/* XPM */
static char *adjustPivotOn[] = {
/* columns rows colors chars-per-pixel */
"144 22 14 1",
"  c gray100",
". c yellow",
"X c magenta",
"o c red",
"O c cyan",
"+ c green",
"@ s bg c blue",
"# c black",
"$ c #C63000",
"% c #FF6D3C",
"& c #EE3804",
"* c #EA3C08",
"= c #DADADA",
"- c #898989",
/* pixels */
"@@############################################################################################################################################@@",
"@#--------------------------------------------------------------------------------------------------------------------------------------------#@",
"#---------------------------------------------------------------------------------------------------------------------------------------------- ",
"#---------------------------------------------------------------------------------------------------------------------------------------------- ",
"#---------------------------------------------------------------------------------------------------------------------------------------------- ",
"#--------------------------------------------------------------------------------------------------------###############################------- ",
"#-----------------    ----------------------------------     -- ----------------------------------------#===============================#------ ",
"#---------------- ---- ------------ -------------------- ---- --------------- -------------------------#==%%%%%%%%%%%%%%%%%%%%%%%%%%%%%== ----- ",
"#---------------- ----------------- -------------------- ---- --------------- -------------------------#=%&****************************$= ----- ",
"#---------------- ------ --- --  --  --   --   -  ------ ---- - - --- --   --  ------------------------#=%&****************************$= ----- ",
"#---------------- ------ --- - -- - -- --- - -- -- -----     -- - --- - --- - -------------------------#=%&****************************$= ----- ",
"#---------------- ------ --- -- --- -- --- - -- -- ----- ------ -- - -- --- - -------------------------#=%&&&&&&&&&&&&&&&&&&&&&&&&&&&&&$= ----- ",
"#---------------- ------ --- --- -- -- --- - -- -- ----- ------ -- - -- --- - -------------------------#==$$$$$$$$$$$$$$$$$$$$$$$$$$$$$== ----- ",
"#---------------- ---- - --  - -- - -- --- - -- -- ----- ------ --- --- --- - -------------------------- =============================== ------ ",
"#-----------------    ---  - --  --- --   -- -- -- ----- ------ --- ----   --- --------------------------                               ------- ",
"#---------------------------------------------------------------------------------------------------------------------------------------------- ",
"#---------------------------------------------------------------------------------------------------------------------------------------------- ",
"#---------------------------------------------------------------------------------------------------------------------------------------------- ",
"#---------------------------------------------------------------------------------------------------------------------------------------------- ",
"#-----------------------------------------------------------------------------------------------  --------------------------------------------- ",
"@ --------------------------------------------------------------------------------------------- @@ ------------------------------------------- @",
"@@                                                                                             @@@@                                           @@"
};
