/* XPM */
static char *adjustPivotOff[] = {
/* columns rows colors chars-per-pixel */
"144 22 12 1",
"  c gray100",
". c yellow",
"X c magenta",
"o c red",
"O c cyan",
"+ c green",
"@ s bg c blue",
"# c black",
"$ c #00E614",
"% c #04CE18",
"& c #008D0C",
"* c #DADADA",
/* pixels */
"@@                                                                                                                                            @@",
"@ @@@@@@@@@@@@@@@@@@@@@@@@@@@@@@@@@@@@@@@@@@@@@@@@@@@@@@@@@@@@@@@@@@@@@@@@@@@@@@@@@@@@@@@@@@@@@@@@@@@@@@@@@@@@@@@@@@@@@@@@@@@@@@@@@@@@@@@@@@@@ @",
" @@@@@@@@@@@@@@@@@@@@@@@@@@@@@@@@@@@@@@@@@@@@@@@@@@@@@@@@@@@@@@@@@@@@@@@@@@@@@@@@@@@@@@@@@@@@@@@@@@@@@@@@@@@@@@@@@@@@@@@@@@@@@@@@@@@@@@@@@@@@@@#",
" @@@@@@@@@@@@@@@@@@@@@@@@@@@@@@@@@@@@@@@@@@@@@@@@@@@@@@@@@@@@@@@@@@@@@@@@@@@@@@@@@@@@@@@@@@@@@@@@@@@@@@@@@@@@@@@@@@@@@@@@@@@@@@@@@@@@@@@@@@@@@@#",
" @@@@@@@@@@@@@@@@@@@@@@@@@@@@@@@@@@@@@@@@@@@@@@@@@@@@@@@@@@@@@@@@@@@@@@@@@@@@@@@@@@@@@@@@@@@@@@@@@@@@@@@@@@@@@@@@@@@@@@@@@@@@@@@@@@@@@@@@@@@@@@#",
" @@@@@@@@@@@@@@@@@@@@@@@@@@@@@@@@@@@@@@@@@@@@@@@@@@@@@@@@@@@@@@@@@@@@@@@@@@@@@@@@@@@@@@@@@@@@@@@@@@@@@@@@###############################@@@@@@@#",
" @@@@@@@@@@@@@@@@@####@@@@@@@@@@@@@@@@@@@@@@@@@@@@@@@@@@#####@@#@@@@@@@@@@@@@@@@@@@@@@@@@@@@@@@@@@@@@@@@#*******************************#@@@@@@#",
" @@@@@@@@@@@@@@@@#@@@@#@@@@@@@@@@@@#@@@@@@@@@@@@@@@@@@@@#@@@@#@@@@@@@@@@@@@@@#@@@@@@@@@@@@@@@@@@@@@@@@@#**$$$$$$$$$$$$$$$$$$$$$$$$$$$$$** @@@@@#",
" @@@@@@@@@@@@@@@@#@@@@@@@@@@@@@@@@@#@@@@@@@@@@@@@@@@@@@@#@@@@#@@@@@@@@@@@@@@@#@@@@@@@@@@@@@@@@@@@@@@@@@#*$%%%%%%%%%%%%%%%%%%%%%%%%%%%%%&* @@@@@#",
" @@@@@@@@@@@@@@@@#@@@@@@#@@@#@@##@@##@@###@@###@##@@@@@@#@@@@#@#@#@@@#@@###@@##@@@@@@@@@@@@@@@@@@@@@@@@#*$%%%%%%%%%%%%%%%%%%%%%%%%%%%%%&* @@@@@#",
" @@@@@@@@@@@@@@@@#@@@@@@#@@@#@#@@#@#@@#@@@#@#@@#@@#@@@@@#####@@#@#@@@#@#@@@#@#@@@@@@@@@@@@@@@@@@@@@@@@@#*$%%%%%%%%%%%%%%%%%%%%%%%%%%%%%&* @@@@@#",
" @@@@@@@@@@@@@@@@#@@@@@@#@@@#@@#@@@#@@#@@@#@#@@#@@#@@@@@#@@@@@@#@@#@#@@#@@@#@#@@@@@@@@@@@@@@@@@@@@@@@@@#*$%%%%%%%%%%%%%%%%%%%%%%%%%%%%%&* @@@@@#",
" @@@@@@@@@@@@@@@@#@@@@@@#@@@#@@@#@@#@@#@@@#@#@@#@@#@@@@@#@@@@@@#@@#@#@@#@@@#@#@@@@@@@@@@@@@@@@@@@@@@@@@#**&&&&&&&&&&&&&&&&&&&&&&&&&&&&&** @@@@@#",
" @@@@@@@@@@@@@@@@#@@@@#@#@@##@#@@#@#@@#@@@#@#@@#@@#@@@@@#@@@@@@#@@@#@@@#@@@#@#@@@@@@@@@@@@@@@@@@@@@@@@@@ ******************************* @@@@@@#",
" @@@@@@@@@@@@@@@@@####@@@##@#@@##@@@#@@###@@#@@#@@#@@@@@#@@@@@@#@@@#@@@@###@@@#@@@@@@@@@@@@@@@@@@@@@@@@@@                               @@@@@@@#",
" @@@@@@@@@@@@@@@@@@@@@@@@@@@@@@@@@@@@@@@@@@@@@@@@@@@@@@@@@@@@@@@@@@@@@@@@@@@@@@@@@@@@@@@@@@@@@@@@@@@@@@@@@@@@@@@@@@@@@@@@@@@@@@@@@@@@@@@@@@@@@@#",
" @@@@@@@@@@@@@@@@@@@@@@@@@@@@@@@@@@@@@@@@@@@@@@@@@@@@@@@@@@@@@@@@@@@@@@@@@@@@@@@@@@@@@@@@@@@@@@@@@@@@@@@@@@@@@@@@@@@@@@@@@@@@@@@@@@@@@@@@@@@@@@#",
" @@@@@@@@@@@@@@@@@@@@@@@@@@@@@@@@@@@@@@@@@@@@@@@@@@@@@@@@@@@@@@@@@@@@@@@@@@@@@@@@@@@@@@@@@@@@@@@@@@@@@@@@@@@@@@@@@@@@@@@@@@@@@@@@@@@@@@@@@@@@@@#",
" @@@@@@@@@@@@@@@@@@@@@@@@@@@@@@@@@@@@@@@@@@@@@@@@@@@@@@@@@@@@@@@@@@@@@@@@@@@@@@@@@@@@@@@@@@@@@@@@@@@@@@@@@@@@@@@@@@@@@@@@@@@@@@@@@@@@@@@@@@@@@@#",
" @@@@@@@@@@@@@@@@@@@@@@@@@@@@@@@@@@@@@@@@@@@@@@@@@@@@@@@@@@@@@@@@@@@@@@@@@@@@@@@@@@@@@@@@@@@@@@@##@@@@@@@@@@@@@@@@@@@@@@@@@@@@@@@@@@@@@@@@@@@@@#",
"@#@@@@@@@@@@@@@@@@@@@@@@@@@@@@@@@@@@@@@@@@@@@@@@@@@@@@@@@@@@@@@@@@@@@@@@@@@@@@@@@@@@@@@@@@@@@@@#@@#@@@@@@@@@@@@@@@@@@@@@@@@@@@@@@@@@@@@@@@@@@@#@",
"@@#############################################################################################@@@@###########################################@@"
};
