/* XPM */
static char *borderOff[] = {
/* columns rows colors chars-per-pixel */
"30 32 71 1",
"  c gray100",
". c yellow",
"X c magenta",
"o c red",
"O c cyan",
"+ c green",
"@ s bg c blue",
"# c black",
"$ c #6D6D79",
"% c #A5A56D",
"& c #40402C",
"* c #85856D",
"= c #4C4C40",
"- c #6D6D61",
"; c #919185",
": c #616159",
"> c #6D6134",
", c #D2BE79",
"< c #DEBE59",
"1 c #615940",
"2 c #C6BEA5",
"3 c #FFBE00",
"4 c #FFBE08",
"5 c #F2BE2C",
"6 c #6D5920",
"7 c #917934",
"8 c #342C14",
"9 c #FFB200",
"0 c #DE9908",
"q c #B2852C",
"w c #857961",
"e c #91856D",
"r c orange",
"t c #DE9100",
"y c #D28500",
"u c #BE7900",
"i c #996100",
"p c #795920",
"a c #594C34",
"s c #B26D00",
"d c #403420",
"f c #FF9900",
"g c #A56100",
"h c #915908",
"j c #614C2C",
"k c #BE6D00",
"l c #854C00",
"z c #6D4C20",
"x c #796140",
"c c #794C14",
"v c #6D6161",
"b c #A59999",
"n c #999191",
"m c #D2D2D2",
"M c #C6C6C6",
"N c gray",
"B c #B2B2B2",
"V c #A5A5A5",
"C c gray60",
"Z c gray57",
"A c gray52",
"S c #797979",
"D c #6D6D6D",
"F c gray38",
"G c gray35",
"H c #4C4C4C",
"J c #343434",
"K c #2C2C2C",
"L c #202020",
"P c gray3",
"I c gray100",
/* pixels */
"@@@@@@@@@@@@@@@@@@@@@@@@@@@@@@",
"@@@@@@@@@@@@@@@@@@@@@@@@@@@@@@",
"@@@@@@@@@@@@@@@@@@@@@@@@@@@@@@",
"@@@@@@@@@@@FKPLLKHF@@@@@@@@@@@",
"@@@@@@@GKLLKHGFGHJJKPLLLKHF@@@",
"@@@&8d=GGFSAAAAAAASASDFFGKJKK@",
"@609t0pvAZAAAAAAAAAAAAADHDGAK@",
"@ltktr99ry7weAAAAAAAASHHDAVBH@",
"@zs*Zxpgyfr99307wSAADJFSVBNZF@",
"@@u*mmmmNe>hk9r99ruqGDZNVVBD@@",
"@@k*mmmmmmmmMSDZiyr4CNBVVVBH@@",
"@@ixmmmmmmmmMSDANCi4BNVVVVVJ@@",
"@@cpmmmmmmmmmSDANNi4NBVVVVVK@@",
"@@jimmmmmmmmmSDANBs4NBVVVVVJ@@",
"@@:kMmmmmmmmmSDABBs4NBVVVVVH@@",
"@@@ubmmmmmmmmSDFCBu5NVVVVVV$@@",
"@@@kwmmmmmmVSADFFFt5NVVVVVZD@@",
"@@@h>mmmmmASSFFFDD95NVVVVVAD@@",
"@@@cpmmmVSASFZNNAFr5NVVVVVG@@@",
"@@@jgmmASSFDNNNNNVt<NVVVVVJ@@@",
"@@@-uDSASFZNNNNNNbf<NVVVVZH@@@",
"@@@@yDSFSNNNNNNNNnr<BVVVVH@@@@",
"@@@@iuu*NNNNNNNNNZ9,BVVVF@@@@@",
"@@@@@ckp*NNNNNNNN;9,BVVA@@@@@@",
"@@@@@@vcup;NNNNNNe32BVVF@@@@@@",
"@@@@@@@@:hupnNNNNe32VVH@@@@@@@",
"@@@@@@@@@F1ik>bNNe32VJ@@@@@@@@",
"@@@@@@@@@@@@1gk>Vw32A@@@@@@@@@",
"@@@@@@@@@@@@@@jssi3%F@@@@@@@@@",
"@@@@@@@@@@@@@@@@ju3a@@@@@@@@@@",
"@@@@@@@@@@@@@@@@@@@@@@@@@@@@@@",
"@@@@@@@@@@@@@@@@@@@@@@@@@@@@@@"
};
