/* XPM */
static char *borderConvert[] = {
/* columns rows colors chars-per-pixel */
"26 26 71 1",
"  c gray100",
". c yellow",
"X c magenta",
"o c red",
"O c cyan",
"+ s bg c green",
"@ c blue",
"# c black",
"$ c #857985",
"% c #383828",
"& c #484838",
"* c #505040",
"= c #595948",
"- c #858571",
"; c #616159",
": c #717169",
"> c #95958D",
", c #FFBE10",
"< c #EEBE30",
"1 c #D6B659",
"2 c #383018",
"3 c #484028",
"4 c #504830",
"5 c #FFB600",
"6 c #B68D28",
"7 c #716138",
"8 c #CEB679",
"9 c #8D8571",
"0 c #FFAE00",
"q c #DE9D10",
"w c #957938",
"e c #B67900",
"r c #796948",
"t c #484030",
"y c #857961",
"u c orange",
"i c #F69D00",
"p c #DE8D00",
"a c #CE8500",
"s c #BE7900",
"d c #AE7100",
"f c #795920",
"g c #615030",
"h c #B67100",
"j c #BE7908",
"k c #A56908",
"l c #9D6108",
"z c #483820",
"x c #8D5910",
"c c #795018",
"v c #696159",
"b c #716961",
"n c #958D85",
"m c #696161",
"M c #8D8585",
"N c #9D9595",
"B c #A59D9D",
"V c #CECECE",
"C c #C6C6C6",
"Z c gray",
"A c #B6B6B6",
"S c #AEAEAE",
"D c #A5A5A5",
"F c #9D9D9D",
"G c #959595",
"H c #8D8D8D",
"J c gray52",
"K c #797979",
"L c #717171",
"P c DimGray",
"I c gray38",
/* pixels */
"++++++++++++++++++++++++++",
"++++++++++++++++++++++++++",
"++++++++++++++++++++++++++",
"++++++++++++++++++++++++++",
"++++++++++++++++++++++++++",
"++++++++++++++&2zz22%&m+++",
"+++++++++Kt2z4;LKKLLP;=43z",
"+++++Kt2z*ILKJHHHHHHHHHJ$K",
"++++Hp0uqfbJHHHHHHHHHHHHHH",
"++++HChpu00uawy9HHHHHHHHJL",
"++++G V>rfkaiu005qwyKHHLIL",
"+++++@ VVVVA97xh0u00uj6LJD",
"+++++@@  VVVVVVCKLHlau,FAC",
"    V@@@V VVVVVCKLJAFl,SCC",
"@@@@@@@@@V VVVVVKLJAAl,ACC",
"@@@@@@@@@@V VVVVKLJASd,ACC",
"@@@@@@@@@@@V VVVKLJSSd,ZCC",
"@@@@@@@@@@@@VAVVKLPFSe<ACC",
"@@@@@@@@@@@@GVDKJLPIIp<ZCC",
"@@@@@@@@@@AVVJKKPPPLL0<ZCC",
"@@@@@@@@@AVDKJKPGZAJPu<ZCC",
"+++++@@@AVJKKPLAZZZZDp1ZCC",
"+++++@@ALKJKPGZZZZZZBi1ZCC",
"+++++@ZaLKPKAZZZZZZZNu1ZCC",
"+++++++lee-ZZZZZZZZZ>08CCC",
"+++++++Kchf-ZZZZZZZZn08CCS"
};
