/* XPM */
static char *borderOff[] = {
/* columns rows colors chars-per-pixel */
"26 26 95 2",
"   c gray100",
".  c yellow",
"X  c magenta",
"o  c red",
"O  c cyan",
"+  c green",
"@  c blue",
"#  c black",
"$  c #999995",
"%  c #554408",
"&  c #403408",
"*  c #857D61",
"=  c #CE9D08",
"-  c #BE9108",
";  c #9D7908",
":  c #AA8514",
">  c #9D8128",
",  c #E2AA08",
"<  c #D6A108",
"1  c #B68908",
"2  c #B28508",
"3  c #916D08",
"4  c #816108",
"5  c #755908",
"6  c #4C3C0C",
"7  c #403410",
"8  c #3C3010",
"9  c #D6B65D",
"0  c #CAB67D",
"q  c #796D4C",
"w  c #FFB600",
"e  c #FFBA10",
"r  c #EEBA30",
"t  c #75653C",
"y  c #715008",
"u  c #81611C",
"i  c #957938",
"p  c #483C20",
"a  c #59554C",
"s  c #FFAA00",
"d  c #B67904",
"f  c #AA7104",
"g  c #7D5504",
"h  c #996908",
"j  c #EAA110",
"k  c #6D4C08",
"l  c #694808",
"z  c #DE9D18",
"x  c #B6892C",
"c  c #50442C",
"v  c #8D8575",
"b  c #716D65",
"n  c #959189",
"m  c #DE8D00",
"M  c #B67500",
"N  c #FFA504",
"B  c #C27D04",
"V  c #B27504",
"C  c #956104",
"Z  c #BA7908",
"A  c #A16908",
"S  c #554C3C",
"D  c #FFA100",
"F  c #F29900",
"G  c #CA8104",
"H  c #916110",
"J  c #65615D",
"K  c #999591",
"L  c #A19D99",
"P  c #CECECE",
"I  c #CACACA",
"U  c #C6C6C6",
"Y  c gray76",
"T  c gray",
"R  c gray73",
"E  c #B6B6B6",
"W  c #B2B2B2",
"Q  c #AAAAAA",
"!  c #A5A5A5",
"~  c #9D9D9D",
"^  c gray60",
"/  c #959595",
"(  c #8D8D8D",
")  c #898989",
"_  c gray52",
"`  c #818181",
"'  c gray49",
"]  c #797979",
"[  c gray46",
"{  c #717171",
"}  c #6D6D6D",
"|  c DimGray",
" . c #656565",
".. c gray38",
"X. c gray100",
/* pixels */
"b b b b b b b b b b b b b b b b b b b b b b b b b   ",
"b , , , , , , , , , , , , , , , , , , , , , , , ,   ",
"b , , , , , , , , , , , , , , , , , , , , , , , ,   ",
"b , , , , , , , , , , , , , , , , , , , , , , , ,   ",
"b , , , , , , , , , , , , , , , , , , , , , , , ,   ",
"b , , , , , , , , , , , , ; % 8 p p 7 8 & % 5 2 ,   ",
"b , , , , , , , , 3 6 7 p S J } ] ] [ { } J a S c   ",
"b , , , , 3 6 7 p S J { ] _ ) ( ( ( ( ( ( ( ) _ `   ",
"b , , , > m D N z u b ` ) ( ( ( ( ( ( ( ( ( ( ( (   ",
"b , , , > m V m N s s D G i * v ( ( ( ( ( ( ( ( _   ",
"b , , , : f P K q u h G F D s s w j i * ' ) ) [ |   ",
"b , , , - d W P P P P W v t u f s D s s D Z x } _   ",
"b , , , < M v P P P P P P P P U ] } ) H B D e ~ W   ",
"b , , , , h q P P P P P P P P U ] } _ W ^ h e W Y   ",
"b , , , , g u P P P P P P P P I ] { ` W W h e W Y   ",
"b , , , , l h P P P P P P P P P ] { ` W W A e E Y   ",
"b , , , , 5 V Y P P P P P P P P ] { ` W W f e R Y   ",
"b , , , , ; d L P P P P P P P I ] [ | ~ Q d r E Y   ",
"b , , , , = V * P P P P P P ! ] _ [ } .. .m r R Y   ",
"b , , , , , C t P P P P I _ ] ' } | | } } s r R Y   ",
"b , , , , , y u P P P ! ] _ ] | / R W _ } D r T Y   ",
"b , , , , , k A P I _ ] ' } [ W R R R R ! m 9 R Y   ",
"b , , , , , 4 d { ] _ ] | / R R R R R R L F 9 T Y   ",
"b , , , , , 1 G [ ' } ] E R R R R R R R $ D 9 T Y   ",
"b , , , , , , C d d ' R R R R R R R R R n s 0 Y Y   ",
"b                                                   "
};
