/* XPM */
static char *bubbleOff[] = {
/* columns rows colors chars-per-pixel */
"50 47 50 1",
"  c #000002",
". s bg c green",
"X c gray100",
"o c #E4E4E4",
"O c #E2E2E2",
"+ c #DFDFDF",
"@ c gainsboro",
"# c gray85",
"$ c gray84",
"% c LightGray",
"& c #D0D0D0",
"* c #CDCDCD",
"= c #CACACA",
"- c gray78",
"; c #C5C5C5",
": c gray76",
"> c gray75",
", c #BCBCBC",
"< c #B9B9B9",
"1 c #B6B6B6",
"2 c gray70",
"3 c gray69",
"4 c gray68",
"5 c #AAAAAA",
"6 c gray66",
"7 c #A5A5A5",
"8 c #A2A2A2",
"9 c #9F9F9F",
"0 c gray61",
"q c gray60",
"w c gray59",
"e c #939393",
"r c #909090",
"t c #8D8D8D",
"y c #8B8B8B",
"u c #888888",
"i c gray52",
"p c gray51",
"a c gray50",
"s c #7C7C7C",
"d c #797979",
"f c #767676",
"g c gray45",
"h c #717171",
"j c gray43",
"k c gray42",
"l c #656565",
"z c #626262",
"x c gray35",
"c c black",
/* pixels */
"..XXXXXXXXXXXXXXXXXXXXXXXXXXXXXXXXXXXXXXXXXXXXXXXX",
".X................................................",
"X.................................................",
"X.................................................",
"X.................................................",
"X.....................dyeerug.....................",
"X....................iw97779wp....................",
"X...................y06433347qu...................",
"X..................u0631<<<1360i..................",
"X.................i052<>:::,<36qa.................",
"X................sw63<:;---;><37ef................",
"X...............jr73<:;-===-;>148t................",
"X...............u051>;=**&**=;>150p...............",
"X..............sw62,;=*&%%%&*-:,37eg..............",
"X..............t94<:-*&%$$$%&*-:149u..............",
"X.............aq62>;=&%$$$$$%&=;,26ws.............",
"X............kr83<:-*%$#####$%*-:<49y.............",
"X............pq62>;=&$##@@@#$%&=;,26ws............",
"X...........jr84<:-*%$#@@@@@#$%*-:149tz...........",
"X...........pq62,;=&$#@@+++@@#$&=;,26ws...........",
"X..........jt941:-*%$#@+++++@#$%*->159yz..........",
"X..........aw62,;=&$#@++++++@@#%&=:,37es..........",
"X.........kt951>-*%$#@++OOO++@#$&=;>250ux.........",
"X.........aw73<:=*%#@++OOOOO+@@$%*-:<48ed.........",
"X........lu052,;=&$#@+OOOOOO++@#$&=;,26qi.........",
"X........se841:-*%$#@+OOOoOOO+@#$%*->149rf........",
"X.......xuq63,:=*%#@++OOoooOO++@$%*-:<37wp........",
"X.......fr951>;=&$#@+OOooooOOO+@#%&=;,250th.......",
"X.......pw73<:-*%$#@+OOoooooOO+@#$&*->148ea.......",
"X......gt062,:-*%$@@+OOoooooOO+@#$%*-:<360uj......",
"X......ae841>;=&%#@++OooooooOO++@#%*=;,259rs......",
"X.....juq63<:-*&$#@+OOoooooooO++@#$&=;>147qil.....",
"X.....dtq842,>-***&%@$@$$$$$@%#$*&*=;><248wyf.....",
"X.................................................",
"X.................................................",
"X..........cccc.........c.....c.....c.............",
"X..........c...c........c.....c.....c.............",
"X..........c...c........c.....c.....c.............",
"X..........c...c..c...c.cccc..cccc..c..ccc........",
"X..........cccc...c...c.c...c.c...c.c.c...c.......",
"X..........c...c..c...c.c...c.c...c.c.ccccc.......",
"X..........c...c..c...c.c...c.c...c.c.c...........",
"X..........c...c..c..cc.c...c.c...c.c.c...c.......",
"X..........cccc....cc.c.cccc..cccc..c..ccc........",
"X.................................................",
". ................................................",
"..                                                "
};
