/* XPM */
static char *bubbleOn[] = {
/* columns rows colors chars-per-pixel */
"50 47 51 1",
"  c #000002",
". s bg c green",
"X c #8D8888",
"o c gray100",
"O c #E4E4E4",
"+ c #E2E2E2",
"@ c #DFDFDF",
"# c gainsboro",
"$ c gray85",
"% c gray84",
"& c LightGray",
"* c #D0D0D0",
"= c #CDCDCD",
"- c #CACACA",
"; c gray78",
": c #C5C5C5",
"> c gray76",
", c gray75",
"< c #BCBCBC",
"1 c #B9B9B9",
"2 c #B6B6B6",
"3 c gray70",
"4 c gray69",
"5 c gray68",
"6 c #AAAAAA",
"7 c gray66",
"8 c #A5A5A5",
"9 c #A2A2A2",
"0 c #9F9F9F",
"q c gray61",
"w c gray60",
"e c gray59",
"r c #939393",
"t c #909090",
"y c #8D8D8D",
"u c #8B8B8B",
"i c #888888",
"p c gray52",
"a c gray51",
"s c gray50",
"d c #7C7C7C",
"f c #797979",
"g c #767676",
"h c gray45",
"j c #717171",
"k c gray43",
"l c gray42",
"z c #656565",
"x c #626262",
"c c gray35",
"v c black",
/* pixels */
"..                                                ",
". XXXXXXXXXXXXXXXXXXXXXXXXXXXXXXXXXXXXXXXXXXXXXXXX",
" XXXXXXXXXXXXXXXXXXXXXXXXXXXXXXXXXXXXXXXXXXXXXXXXX",
" XXXXXXXXXXXXXXXXXXXXXXXXXXXXXXXXXXXXXXXXXXXXXXXXX",
" XXXXXXXXXXXXXXXXXXXXXXXXXXXXXXXXXXXXXXXXXXXXXXXXX",
" XXXXXXXXXXXXXXXXXXXXXfurrtihXXXXXXXXXXXXXXXXXXXXX",
" XXXXXXXXXXXXXXXXXXXXpe08880eaXXXXXXXXXXXXXXXXXXXX",
" XXXXXXXXXXXXXXXXXXXuq7544458wiXXXXXXXXXXXXXXXXXXX",
" XXXXXXXXXXXXXXXXXXiq742111247qpXXXXXXXXXXXXXXXXXX",
" XXXXXXXXXXXXXXXXXpq631,>>><147wsXXXXXXXXXXXXXXXXX",
" XXXXXXXXXXXXXXXXde741>:;;;:,148rgXXXXXXXXXXXXXXXX",
" XXXXXXXXXXXXXXXkt841>:;---;:,259yXXXXXXXXXXXXXXXX",
" XXXXXXXXXXXXXXXiq62,:-==*==-:,26qaXXXXXXXXXXXXXXX",
" XXXXXXXXXXXXXXde73<:-=*&&&*=;><48rhXXXXXXXXXXXXXX",
" XXXXXXXXXXXXXXy051>;=*&%%%&*=;>250iXXXXXXXXXXXXXX",
" XXXXXXXXXXXXXsw73,:-*&%%%%%&*-:<37edXXXXXXXXXXXXX",
" XXXXXXXXXXXXlt941>;=&%$$$$$%&=;>150uXXXXXXXXXXXXX",
" XXXXXXXXXXXXaw73,:-*%$$###$%&*-:<37edXXXXXXXXXXXX",
" XXXXXXXXXXXkt951>;=&%$#####$%&=;>250yxXXXXXXXXXXX",
" XXXXXXXXXXXaw73<:-*%$##@@@##$%*-:<37edXXXXXXXXXXX",
" XXXXXXXXXXky052>;=&%$#@@@@@#$%&=;,260uxXXXXXXXXXX",
" XXXXXXXXXXse73<:-*%$#@@@@@@##$&*-><48rdXXXXXXXXXX",
" XXXXXXXXXly062,;=&%$#@@+++@@#$%*-:,36qicXXXXXXXXX",
" XXXXXXXXXse841>-=&$#@@+++++@##%&=;>159rfXXXXXXXXX",
" XXXXXXXXziq63<:-*%$#@++++++@@#$%*-:<37wpXXXXXXXXX",
" XXXXXXXXdr952>;=&%$#@+++O+++@#$%&=;,250tgXXXXXXXX",
" XXXXXXXciw74<>-=&$#@@++OOO++@@#%&=;>148eaXXXXXXXX",
" XXXXXXXgt062,:-*%$#@++OOOO+++@#$&*-:<36qyjXXXXXXX",
" XXXXXXXae841>;=&%$#@++OOOOO++@#$%*=;,259rsXXXXXXX",
" XXXXXXhyq73<>;=&%##@++OOOOO++@#$%&=;>147qikXXXXXX",
" XXXXXXsr952,:-*&$#@@+OOOOOO++@@#$&=-:<360tdXXXXXX",
" XXXXXkiw741>;=*%$#@++OOOOOOO+@@#$%*-:,258wpzXXXXX",
" XXXXXfyw953<,;===*&#%#%%%%%#&$%=*=-:,1359eugXXXXX",
" XXXXXXXXXXXXXXXXXXXXXXXXXXXXXXXXXXXXXXXXXXXXXXXXX",
" XXXXXXXXXXXXXXXXXXXXXXXXXXXXXXXXXXXXXXXXXXXXXXXXX",
" XXXXXXXXXXooooXXXXXXXXXoXXXXXoXXXXXoXXXXXXXXXXXXX",
" XXXXXXXXXXoXXXoXXXXXXXXoXXXXXoXXXXXoXXXXXXXXXXXXX",
" XXXXXXXXXXoXXXoXXXXXXXXoXXXXXoXXXXXoXXXXXXXXXXXXX",
" XXXXXXXXXXoXXXoXXoXXXoXooooXXooooXXoXXoooXXXXXXXX",
" XXXXXXXXXXooooXXXoXXXoXoXXXoXoXXXoXoXoXXXoXXXXXXX",
" XXXXXXXXXXoXXXoXXoXXXoXoXXXoXoXXXoXoXoooooXXXXXXX",
" XXXXXXXXXXoXXXoXXoXXXoXoXXXoXoXXXoXoXoXXXXXXXXXXX",
" XXXXXXXXXXoXXXoXXoXXooXoXXXoXoXXXoXoXoXXXoXXXXXXX",
" XXXXXXXXXXooooXXXXooXoXooooXXooooXXoXXoooXXXXXXXX",
" XXXXXXXXXXXXXXXXXXXXXXXXXXXXXXXXXXXXXXXXXXXXXXXXX",
".oXXXXXXXXXXXXXXXXXXXXXXXXXXXXXXXXXXXXXXXXXXXXXXXX",
"..oooooooooooooooooooooooooooooooooooooooooooooooo"
};
