/* XPM */
static char *changeLogDown[] = {
/* columns rows colors chars-per-pixel */
"88 18 3 1",
"  c blue",
". s bg c green",
"X c black",
/* pixels */
"........................................................................................",
"........................................................................................",
"........................................................................................",
"........................................................................................",
".. ..... . ...................    .. ................................ ..................",
".. ..... .................... .... . ................................ ..................",
"... ... ..................... ...... ................................ ..................",
"... ... .. ..   .. .. .. .... ...... .  ...   .. .  ...    ..   ..... ......   ...    ..",
"... ... .. . ... . .. .. .... ......  .. ..... .  .. . ... . ... .... ..... ... . ... ..",
".... . ... .     . . . . .... ...... ... ..    . ... . ... .     .... ..... ... . ... ..",
".... . ... . ..... . . . .... ...... ... . ... . ... . ... . ........ ..... ... . ... ..",
"..... .... . ... .. ... ..... .... . ... . ... . ... . ... . ... .... ..... ... . ... ..",
"..... .... ..   ... ... ......    .. ... ..    . ... ..    ..   .....     ..   ...    ..",
".......................................................... .......................... ..",
"..                                                                                    ..",
"........................................................................................",
"........................................................................................",
"........................................................................................"
};
