/* XPM */
static char *magick[] = {
/* columns rows colors chars-per-pixel */
"20 20 10 1",
". c Gray100",
"X c #5d82a3",
"o c #9bc2e6",
"O c #7f91a1",
"+ c #226aa7",
"@ c #4076a5",
"$ c #d34c28",
"% c Gray100",
"& c Gray0",
"  s bg c Green",
/* pixels */
"                    ",
"                    ",
"  $$$$$$$           ",
"  $ooooo$           ",
"  $o+++o$           ",
"  $o+++o$$$$        ",
"  $o+++oooo$        ",
"  $oooo+@@o$        ",
"  $$$$o@@@o$$$$     ",
"     $o@@@oooo$     ",
"     $oooo@XXo$     ",
"     $$$$oXXXo$$$$  ",
"        $oXXXoooo$  ",
"        $ooooXOOo$  ",
"        $$$$oOOOo$  ",
"           $oOOOo$  ",
"           $ooooo$  ",
"           $$$$$$$  ",
"                    ",
"                    "
};
