/* XPM */
static char *edgeOn[] = {
/* columns rows colors chars-per-pixel */
"32 36 64 1",
"  c gray100",
". c yellow",
"X c magenta",
"o c red",
"O c cyan",
"+ c green",
"@ s bg c blue",
"# c black",
"$ c #D22C2C",
"% c #AAAAAA",
"& c #A5A5A5",
"* c #898989",
"= c #818181",
"- c gray49",
"; c #797979",
": c #161415",
"> c #797579",
", c #222122",
"< c #313031",
"1 c #757579",
"2 c #4C4C4D",
"3 c #636364",
"4 c #797975",
"5 c #AAAAA5",
"6 c #949493",
"7 c #A8A365",
"8 c #F7DB07",
"9 c #DDBA1C",
"0 c #B3AB95",
"q c #C4BCA8",
"w c #CAC2AE",
"e c #645943",
"r c #C69944",
"t c #B8873A",
"y c #FA9702",
"u c #837D75",
"i c #7A470A",
"p c #5B3F1B",
"a c #DB7506",
"s c #A25B0A",
"d c #422B13",
"f c #B27940",
"g c #84705B",
"h c #868584",
"j c #4E413B",
"k c #A01313",
"l c #B31818",
"z c #7D1111",
"x c #C62323",
"c c #D62C2C",
"v c #601414",
"b c #3F1313",
"n c #797575",
"m c #8D8989",
"M c #3D3C3C",
"N c #5B5A5A",
"B c gray74",
"V c #B4B4B4",
"C c #AEAEAE",
"Z c #A0A0A0",
"A c #8D8D8D",
"S c gray45",
"D c gray42",
"F c #4BBE2E",
/* pixels */
"@@############################@@",
"@#FFFFFFFFFFFFFFFFFFFFFFFFFFFF6@",
"#FFFFFFFFFFFFFFFFFFFFFFFFFFFFFF6",
"#FFFFFFFFFFFFFFFFFFFFFFFFFFFFFF6",
"#FFFFFFFFFFFFFFFFFFFFFFFFFFFFFF6",
"#FFFFFFFFFFFMdssiddMNFFFFFFFFFF6",
"#FFFFFF;ddsyyspjpiaayyasiddMNFF6",
"#FFSddsyysj3-***m**=>Seees998iF6",
"#Fdy998a3-=============hes788iF6",
"#Fdya88889tgu=========-i9797BMF6",
"#F2<-Djpsy88889fu====g999rVB%3F6",
"#FF,4-;u=Djpiay8889gt.89CC%VDFF6",
"#FF:3=---==-=-Njpsy8.86V&%&&2FF6",
"#FF:N-=---===-=-u-Ds.V%%%%%V<FF6",
"#FF,M--=-====-=====s.C%&%&&C<FF6",
"#FFM<-===-==-======a.V%%&&&%<FF6",
"#FF3,---=-==-=====-a.V%%%&%&2FF6",
"#FFF:S-=-=----==-=-a.B%%&%&ZSFF6",
"#FFF:3----=-======-y.B%%&&%6SFF6",
"#FFF:2=-=---=-=--=-y.B%&&&%-SFF6",
"#FFF,M---=----=-==4y.q%%%&&NFFF6",
"#FFF2<----=--===-=D8.w%&&&%<FFF6",
"#FFFS,;---=-==-==-D8.w%&&%62FFF6",
"#FFFF:D------=----D8.q&&&%MFFFF6",
"#FFFF:<D------=---3880&&%NFFFFF6",
"#FFFFF,:MD------=-3.80&&hFFFFFF6",
"#FFFFFF1,,MS----==3.90&Z3FFFFFF6",
"#FFFFFFFFD:,2S---=N.90&2FFFFFFF6",
"#FFFFFFFFFFN:,2S-=N.y0MFFFFFFFF6",
"#FFFFFFFFFFFF2:,2-2.9hFFFFFFFFF6",
"#FFFFFFFFFFFFFFM:<<.93FFFFFFFFF6",
"#FFFFFFFFFFFFFFFFM:.jFFFFFFFFFF6",
"#FFFFFFFFFFFFFFFFFFFFFFFFFFFFFF6",
"#FFFFFFFFFFFFFFFFFFFFFFFFFFFFFF6",
"@#FFFFFFFFFFFFFFFFFFFFFFFFFFFFF6",
"@@66666666666666666666666666666@"
};
