/* XPM */
static char *edgeOff[] = {
/* columns rows colors chars-per-pixel */
"32 36 63 1",
"  c gray100",
". c yellow",
"X c magenta",
"o c red",
"O c cyan",
"+ c green",
"@ s bg c blue",
"# c black",
"$ c #D22C2C",
"% c #AAAAAA",
"& c #A5A5A5",
"* c #898989",
"= c #818181",
"- c gray49",
"; c #797979",
": c #161415",
"> c #797579",
", c #222122",
"< c #313031",
"1 c #757579",
"2 c #4C4C4D",
"3 c #636364",
"4 c #797975",
"5 c #AAAAA5",
"6 c #949493",
"7 c #A8A365",
"8 c #F7DB07",
"9 c #DDBA1C",
"0 c #B3AB95",
"q c #C4BCA8",
"w c #CAC2AE",
"e c #645943",
"r c #C69944",
"t c #B8873A",
"y c #FA9702",
"u c #837D75",
"i c #7A470A",
"p c #5B3F1B",
"a c #DB7506",
"s c #A25B0A",
"d c #422B13",
"f c #B27940",
"g c #84705B",
"h c #868584",
"j c #4E413B",
"k c #A01313",
"l c #B31818",
"z c #7D1111",
"x c #C62323",
"c c #D62C2C",
"v c #601414",
"b c #3F1313",
"n c #797575",
"m c #8D8989",
"M c #3D3C3C",
"N c #5B5A5A",
"B c gray74",
"V c #B4B4B4",
"C c #AEAEAE",
"Z c #A0A0A0",
"A c #8D8D8D",
"S c gray45",
"D c gray42",
/* pixels */
"@@@@@@@@@@@@@@@@@@@@@@@@@@@@@@@@",
"@@@@@@@@@@@@@@@@@@@@@@@@@@@@@@@@",
"@@@@@@@@@@@@@@@@@@@@@@@@@@@@@@@@",
"@@@@@@@@@@@@@@@@@@@@@@@@@@@@@@@@",
"@@@@@@@@@@@@@@@@@@@@@@@@@@@@@@@@",
"@@@@@@@@@@@@MdssiddMN@@@@@@@@@@@",
"@@@@@@@;ddsyyspjpiaayyasiddMN@@@",
"@@@Sddsyysj3-***m**=>Seees998i@@",
"@@dy998a3-=============hes788i@@",
"@@dya88889tgu=========-i9797BM@@",
"@@2<-Djpsy88889fu====g999rVB%3@@",
"@@@,4-;u=Djpiay8889gt.89CC%VD@@@",
"@@@:3=---==-=-Njpsy8.86V&%&&2@@@",
"@@@:N-=---===-=-u-Ds.V%%%%%V<@@@",
"@@@,M--=-====-=====s.C%&%&&C<@@@",
"@@@M<-===-==-======a.V%%&&&%<@@@",
"@@@3,---=-==-=====-a.V%%%&%&2@@@",
"@@@@:S-=-=----==-=-a.B%%&%&ZS@@@",
"@@@@:3----=-======-y.B%%&&%6S@@@",
"@@@@:2=-=---=-=--=-y.B%&&&%-S@@@",
"@@@@,M---=----=-==4y.q%%%&&N@@@@",
"@@@@2<----=--===-=D8.w%&&&%<@@@@",
"@@@@S,;---=-==-==-D8.w%&&%62@@@@",
"@@@@@:D------=----D8.q&&&%M@@@@@",
"@@@@@:<D------=---3880&&%N@@@@@@",
"@@@@@@,:MD------=-3.80&&h@@@@@@@",
"@@@@@@@1,,MS----==3.90&Z3@@@@@@@",
"@@@@@@@@@D:,2S---=N.90&2@@@@@@@@",
"@@@@@@@@@@@N:,2S-=N.y0M@@@@@@@@@",
"@@@@@@@@@@@@@2:,2-2.9h@@@@@@@@@@",
"@@@@@@@@@@@@@@@M:<<.93@@@@@@@@@@",
"@@@@@@@@@@@@@@@@@M:.j@@@@@@@@@@@",
"@@@@@@@@@@@@@@@@@@@@@@@@@@@@@@@@",
"@@@@@@@@@@@@@@@@@@@@@@@@@@@@@@@@",
"@@@@@@@@@@@@@@@@@@@@@@@@@@@@@@@@",
"@@@@@@@@@@@@@@@@@@@@@@@@@@@@@@@@"
};
