/* XPM */
static char *edgeConvert[] = {
/* columns rows colors chars-per-pixel */
"26 26 68 1",
"  c gray100",
". c yellow",
"X c magenta",
"o c red",
"O c cyan",
"+ s bg c green",
"@ c blue",
"# c black",
"$ c #797179",
"% c #C6BEC6",
"& c #484838",
"* c #505040",
"= c #595948",
"- c #595950",
"; c #FFE600",
": c #FFE618",
"> c #FFD600",
", c #FFD60C",
"< c #FFC600",
"1 c #FFC618",
"2 c #FFBE00",
"3 c #484028",
"4 c #504830",
"5 c #B68D28",
"6 c #FFAE00",
"7 c #FFB200",
"8 c #FAAA00",
"9 c #D69500",
"0 c #DE9D10",
"q c #594820",
"w c #484030",
"e c #857961",
"r c orange",
"t c #F69D00",
"y c #DE8D00",
"u c #CE8500",
"i c #BE7900",
"p c #AE7100",
"a c #C6850C",
"s c #B67100",
"d c #A56908",
"f c #E6950C",
"g c #B27918",
"h c #694810",
"j c #503810",
"k c #B67108",
"l c #9D6108",
"z c #BE7108",
"x c #8D5910",
"c c #795018",
"v c #716969",
"b c #797171",
"n c gray",
"m c #8D8D8D",
"M c gray52",
"N c #797979",
"B c #717171",
"V c DimGray",
"C c gray38",
"Z c gray35",
"A c #505050",
"S c #484848",
"D c gray25",
"F c gray22",
"G c gray19",
"H c #282828",
"J c #202020",
"K c #181818",
/* pixels */
"++++++++++++++++++++++++++",
"++++++++++++++++++++++++++",
"++++++++++++++++++++++++++",
"++++++++++++++++++++++++++",
"++++++++++++++++++++++++++",
"++++++++++++++*jxxhj3*V+++",
"+++++++++Mwjxszx34qclkispx",
"+++++Nwjlikc4=V$NNN$$BC-*4",
"++++jy666kq=VbNNNNNNNNNNNb",
"++++j%dyr66rulq*ZBNNNNNN-c",
"++++C %C&qxit66rtkc4=vCqy2",
"+++++@ %BBBC*3hdyr6rrku2>5",
"+++++@@  BBBBBBBZ&qxzr>0en",
"    %@@@% BBBBBBBBBBBg>nnn",
"@@@@@@@@@% BBBBBBBBBBg>nnn",
"@@@@@@@@@@% BBBBBBBBBa>nnn",
"@@@@@@@@@@@% BBBBBBBBa>nnn",
"@@@@@@@@@@@@ nBBBBBBB9>nnn",
"@@@@@@@@@@@@MBBBBBBBBf>nnn",
"@@@@@@@@@@nBBBBBBBBBB8>nnn",
"@@@@@@@@@nBBBBBBBBBBB7;nnn",
"+++++@@@nBBBBBBBBBBBB7;n%n",
"+++++@@nVBBBBBBBBBBBB<;nnn",
"+++++@%KCVBBBBBBBBBBB<:nnn",
"+++++++JDCBBBBBBBBBBB>,nnn",
"+++++++mGJSBBBBBBBBBB>1nnn"
};
