/* XPM */
static char *elementOff[] = {
/* columns rows colors chars-per-pixel */
"26 26 67 1",
"  c gray100",
". c yellow",
"X c magenta",
"o c red",
"O c cyan",
"+ c green",
"@ c blue",
"# c black",
"$ c #C29508",
"% c #9D7908",
"& c #795D08",
"* c #E2AA08",
"= c #D29D08",
"- c #BA8D08",
"; c #B28508",
": c #AA8108",
"> c #957108",
", c #856508",
"< c #755908",
"1 c #715008",
"2 c #6D4C08",
"3 c #694808",
"4 c #716D65",
"5 c #553804",
"6 c #614008",
"7 c #4C3008",
"8 c #442408",
"9 c #3C180C",
"0 c #40140C",
"q c #4C100C",
"w c #611410",
"e c #691814",
"r c #690C0C",
"t c #7D1010",
"y c #911414",
"u c #711010",
"i c #6D1010",
"p c #A11818",
"a c #711414",
"s c #AE2020",
"d c #551010",
"f c #791818",
"g c #751818",
"h c #811C1C",
"j c #B62828",
"k c #892020",
"l c #8D2424",
"z c #892424",
"x c #912828",
"c c #8D2828",
"v c #C23838",
"b c #992C2C",
"n c #952C2C",
"m c #912C2C",
"M c #9D3030",
"N c #A53434",
"B c #993030",
"V c #CA4040",
"C c #A13434",
"Z c #953030",
"A c #9D3434",
"S c #A53838",
"D c #993434",
"F c #CE4848",
"G c #D24C4C",
"H c #D25050",
"J c gray100",
/* pixels */
"4444444444444444444444444 ",
"4************************ ",
"4************************ ",
"4************************ ",
"4************************ ",
"4************-&799876&%$* ",
"4********;179qahlxzkfawq0 ",
"4****:289dghlBCSSSSSSNCMn ",
"4***7qrriflBCSSSSSSSSSSSS ",
"4***7iairrriahznASSSSSSSM ",
"4***3gCZchfirrrrufhlbSCza ",
"4***>wDCAACDmzhgirrrifttp ",
"4***$0mCAAACCACCBczfiryjV ",
"4****9cACAAACCCACAACAfyvH ",
"4****8hAACACCCCACCCCCgyVH ",
"4****5fACCCACCACCCCCCgyVH ",
"4****<eAAACACCACCCCCCgyVH ",
"4****%dBACACAAAACCACAapVH ",
"4****=0xAAAACACCCCCCAapFH ",
"4*****9zCACAAACACAACAapFH ",
"4*****8hAAACAAAACACCBupFH ",
"4*****6gAAAACAACCCACBipGH ",
"4*****,wDAAACACCACCAZgsGH ",
"4*****-qmAAAAAACAAAAZasGH ",
"4******9fmAAAAAACAAAmasGH ",
"4                         "
};
