/* XPM */
static char *extrudeOff[] = {
/* columns rows colors chars-per-pixel */
"80 22 13 1",
"  c black",
". c gray100",
"X s bg c blue",
"o c #00CE19",
"O c #00E610",
"+ c #008C08",
"@ c gray88",
"# c gray87",
"$ c #DADADA",
"% c #B2B2B2",
"& c gray67",
"* c #979797",
"= c gray100",
/* pixels */
"XX............................................................................XX",
"X.XXXXXXXXXXXXXXXXXXXXXXXXXXXXXXXXXXXXXXXXXXXXXXXXXXXXXXXXXXXXXXXXXXXXXXXXXXXX.X",
".XXXXXXXXXXXXXXXXXXXXXXXXXXXXXXXXXXXXXXXXXXXXXXXXXXXXXXXXXXXXXXXXXXXXXXXXXXXXXX ",
".XXXXXXXXXXXXXXXXXXXXXXXXXXXXXXXXXXXXXXXXXXXXXXXXXXXXXXXXXXXXXXXXXXXXXXXXXXXXXX ",
".XXXXXXXXXXXXXXXXXXXXXXXXXXXXXXXXXXXXXXXXXXXXXXXXXXXXXXXXXXXXXXXXXXXXXXXXXXXXXX ",
".XXXXXXXXXXXXXXXXXXXXXXXXXXXXXXXXXXXXXXXXXXXXXXXXXXXXXXXXXXXXXXXXXXXXXXXXXXXXXX ",
".XXXXXXXXXXXXXXXXXXXXXXXXXXXXXXXXXXXXXXXXXXXXXXX XXXXXXXXXXXXXXXXXX      XXXXXX ",
".XXXXXXXXXXXXXXXXX     XXXXXXX XXXXXXXXXXXXXXXXX XXXXXXXXXXXXXXXXX ###### XXXXX ",
".XXXXXXXXXXXXXXXXX XXXXXXXXXXX XXXXXXXXXXXXXXXXX XXXXXXXXXXXXXXXX ##OOOO##.XXXX ",
".XXXXXXXXXXXXXXXXX XXXXX XXX X   X X X XXX XX    XX   XXXXXXXXXXX #Ooooo+#.XXXX ",
".XXXXXXXXXXXXXXXXX    XXX X XX XXX  XX XXX X XXX X XXX XXXXXXXXXX #Ooooo+#.XXXX ",
".XXXXXXXXXXXXXXXXX XXXXXXX XXX XXX XXX XXX X XXX X     XXXXXXXXXX #Ooooo+#.XXXX ",
".XXXXXXXXXXXXXXXXX XXXXXXX XXX XXX XXX XXX X XXX X XXXXXXXXXXXXXX #Ooooo+#.XXXX ",
".XXXXXXXXXXXXXXXXX XXXXXX X XX XXX XXX XXX X XXX X XXX XXXXXXXXXX ##++++##.XXXX ",
".XXXXXXXXXXXXXXXXX     X XXX XX  X XXXX    XX    XX   XXXXXXXXXXXX.######.XXXXX ",
".XXXXXXXXXXXXXXXXXXXXXXXXXXXXXXXXXXXXXXXXXXXXXXXXXXXXXXXXXXXXXXXXXX......XXXXXX ",
".XXXXXXXXXXXXXXXXXXXXXXXXXXXXXXXXXXXXXXXXXXXXXXXXXXXXXXXXXXXXXXXXXXXXXXXXXXXXXX ",
".XXXXXXXXXXXXXXXXXXXXXXXXXXXXXXXXXXXXXXXXXXXXXXXXXXXXXXXXXXXXXXXXXXXXXXXXXXXXXX ",
".XXXXXXXXXXXXXXXXXXXXXXXXXXXXXXXXXXXXXXXXXXXXXXXXXXXXXXXXXXXXXXXXXXXXXXXXXXXXXX ",
".XXXXXXXXXXXXXXXXXXXXXXXXXXXXXXXXXXXXXXXXXXXXXXXXXXXXXXXXXXXXXXXXXXXXXXXXXXXXXX ",
"X XXXXXXXXXXXXXXXXXXXXXXXXXXXXXXXXXXXXXXXXXXXXXXXXXXXXXXXXXXXXXXXXXXXXXXXXXXXX X",
"XX                                                                            XX"
};
