/* XPM */
static char *growOn[] = {
/* columns rows colors chars-per-pixel */
"55 17 5 1",
"  s bg c green",
". c #8D8989",
"X c gray100",
"o c black",
"O c gray100",
/* pixels */
"  ooooooooooooooooooooooooooooooooooooooooooooooooooo  ",
" o...................................................o ",
"o.....................................................X",
"o.....................................................X",
"o................oooo.................................X",
"o...............o....o................................X",
"o...............o.....................................X",
"o...............o.......oo..ooo..o..o..o..............X",
"o...............o..ooo..o..o...o.o..o..o..............X",
"o...............o....o..o..o...o.o.o.o.o..............X",
"o...............o....o..o..o...o.o.o.o.o..............X",
"o...............o...oo..o..o...o..o...o...............X",
"o................ooo.o..o...ooo...o...o...............X",
"o.....................................................X",
"o.....................................................X",
" X...................................................X ",
"  XXXXXXXXXXXXXXXXXXXXXXXXXXXXXXXXXXXXXXXXXXXXXXXXXXX  "
};
