/* XPM */
static char *hybridOn[] = {
/* columns rows colors chars-per-pixel */
"35 29 5 1",
"  c black",
". c gray100",
"X s bg c blue",
"o c #8D8989",
"O c gray100",
/* pixels */
"XX                                 ",
"X ooooooooooooooooooooooooooooooooo",
" oooooooooooooooooooooooooooooooooo",
" oooooooooooooooooooooooooooooooooo",
" oooooooooooooooooooooooooooooooooo",
" ooooooooooooo..ooooooooooooooooooo",
" ooooooooooooo..ooooooooooooooooooo",
" ooooooooooo  ..  ooooooooooooooooo",
" ooooooooooo  ..  ooooooooooooooooo",
" ooooooooo  oooooo  ooooooooooooooo",
" ooooooooo  oooooo  ooooooooooooooo",
" ooooooo....oo  oo....oo o oooooooo",
" ooooooo....oo  oo....ooooooooooooo",
" ooooooooo  oooooo  oooooo oooooooo",
" ooooooooo  oooooo  ooooooooooooooo",
" ooooooooooo  ..  oooooooo oooooooo",
" ooooooooooo  ..  ooooooooooooooooo",
" ooooooooooooo..oooooooooo oooooooo",
" ooooooooooooo..ooooooooooooooooooo",
" ooooooooooooooooooooooooo oooooooo",
" oooooooooooooooooooooooooooooooooo",
" ooooooooooooo ooooooooooo oooooooo",
" oooooooooooooooooooooooooooooooooo",
" ooooooooooooo o o o o o o oooooooo",
" oooooooooooooooooooooooooooooooooo",
" oooooooooooooooooooooooooooooooooo",
" oooooooooooooooooooooooooooooooooo",
"X.ooooooooooooooooooooooooooooooooo",
"XX................................."
};
