/* XPM */
static char *hybridOff[] = {
/* columns rows colors chars-per-pixel */
"35 29 4 1",
"  c black",
". c gray100",
"X s bg c blue",
"o c gray100",
/* pixels */
"XX.................................",
"X.XXXXXXXXXXXXXXXXXXXXXXXXXXXXXXXXX",
".XXXXXXXXXXXXXXXXXXXXXXXXXXXXXXXXXX",
".XXXXXXXXXXXXXXXXXXXXXXXXXXXXXXXXXX",
".XXXXXXXXXXXXXXXXXXXXXXXXXXXXXXXXXX",
".XXXXXXXXXXXXX..XXXXXXXXXXXXXXXXXXX",
".XXXXXXXXXXXXX..XXXXXXXXXXXXXXXXXXX",
".XXXXXXXXXXX  ..  XXXXXXXXXXXXXXXXX",
".XXXXXXXXXXX  ..  XXXXXXXXXXXXXXXXX",
".XXXXXXXXX  XXXXXX  XXXXXXXXXXXXXXX",
".XXXXXXXXX  XXXXXX  XXXXXXXXXXXXXXX",
".XXXXXXX....XX  XX....XX X XXXXXXXX",
".XXXXXXX....XX  XX....XXXXXXXXXXXXX",
".XXXXXXXXX  XXXXXX  XXXXXX XXXXXXXX",
".XXXXXXXXX  XXXXXX  XXXXXXXXXXXXXXX",
".XXXXXXXXXXX  ..  XXXXXXXX XXXXXXXX",
".XXXXXXXXXXX  ..  XXXXXXXXXXXXXXXXX",
".XXXXXXXXXXXXX..XXXXXXXXXX XXXXXXXX",
".XXXXXXXXXXXXX..XXXXXXXXXXXXXXXXXXX",
".XXXXXXXXXXXXXXXXXXXXXXXXX XXXXXXXX",
".XXXXXXXXXXXXXXXXXXXXXXXXXXXXXXXXXX",
".XXXXXXXXXXXXX XXXXXXXXXXX XXXXXXXX",
".XXXXXXXXXXXXXXXXXXXXXXXXXXXXXXXXXX",
".XXXXXXXXXXXXX X X X X X X XXXXXXXX",
".XXXXXXXXXXXXXXXXXXXXXXXXXXXXXXXXXX",
".XXXXXXXXXXXXXXXXXXXXXXXXXXXXXXXXXX",
".XXXXXXXXXXXXXXXXXXXXXXXXXXXXXXXXXX",
"X XXXXXXXXXXXXXXXXXXXXXXXXXXXXXXXXX",
"XX                                 "
};
