/* XPM */
static char *linearOff[] = {
/* columns rows colors chars-per-pixel */
"49 47 89 1",
"  c #000004",
". s bg c green",
"X c gray100",
"o c gray74",
"O c #BCBCBC",
"+ c #BBBBBB",
"@ c gray73",
"# c #B9B9B9",
"$ c gray72",
"% c #B7B7B7",
"& c #B6B6B6",
"* c gray71",
"= c #B4B4B4",
"- c gray70",
"; c #B2B2B2",
": c #B1B1B1",
"> c gray69",
", c #AFAFAF",
"< c #AEAEAE",
"1 c gray68",
"2 c #ACACAC",
"3 c gray67",
"4 c #AAAAAA",
"5 c #A9A9A9",
"6 c gray66",
"7 c #A7A7A7",
"8 c gray65",
"9 c #A5A5A5",
"0 c #A4A4A4",
"q c gray64",
"w c #A2A2A2",
"e c gray63",
"r c #A0A0A0",
"t c #9F9F9F",
"y c gray62",
"u c #9D9D9D",
"i c gray61",
"p c #9B9B9B",
"a c #9A9A9A",
"s c gray60",
"d c #989898",
"f c #979797",
"g c gray59",
"h c #959595",
"j c gray58",
"k c #939393",
"l c #929292",
"z c gray57",
"x c #909090",
"c c gray56",
"v c #8E8E8E",
"b c #8D8D8D",
"n c gray55",
"m c #8B8B8B",
"M c gray54",
"N c #898989",
"B c #888888",
"V c gray53",
"C c #868686",
"Z c gray52",
"A c #848484",
"S c #838383",
"D c gray51",
"F c #818181",
"G c gray50",
"H c #7E7E7E",
"J c gray49",
"K c #7C7C7C",
"L c #7B7B7B",
"P c gray48",
"I c #797979",
"U c #777777",
"Y c #767676",
"T c gray46",
"R c #747474",
"E c gray45",
"W c #717171",
"Q c gray44",
"! c #6F6F6F",
"~ c gray43",
"^ c #6D6D6D",
"/ c gray42",
"( c #6A6A6A",
") c #676767",
"_ c gray40",
"` c gray39",
"' c gray38",
"] c gray36",
"[ c black",
/* pixels */
"XXXXXXXXXXXXXXXXXXXXXXXXXXXXXXXXXXXXXXXXXXXXXXX..",
"...............................................X.",
"................................................[",
"................................................[",
"................................................[",
"................................................[",
"........................].......................[",
".......................0@g......................[",
"......................Z-O1Z.....................[",
"......................0%o=i.....................[",
".....................j<@o$4M....................[",
"....................Sq-+o@:tT...................[",
"...................~d3&Oo@=6k...................[",
"...................bw>%Oo+&<tV..................[",
"..................Dp5-#ooO$:7gP.................[",
".................Rkw<*@ooO#=3tv_................[",
".................Mi6:%@ooo@*,9sZ................[",
"................Fgw3;%+ooo@%:4rlL...............[",
"...............Ucu7<=$+ooo@%-19am!..............[",
"............../Bdw3:*#+ooo+$=>5rhA..............[",
"..............Fly81;%@Oooo+#&:29ixJ.............[",
".............Pbsw5,=%@OoooO@%-<6rfMR............[",
"............WVjy82:*$@OoooO@%=>39ilA)...........[",
"...........'Fxaw6<;&#+OoooO@$*:16edbJ...........[",
"...........Pmgt93>=%#+ooooO@#&-,40ujBY..........[",
"..........RClpw61:=%@+ooooO+#%=:27esxS^.........[",
".........(Fvft93<;*$@+ooooo+@%*:<50ugnJ.........[",
".........LMkiw62>=&$@Oooooo+@$&-,38ealVU........[",
"........YZxst94<:=%#@OoooooO@$%=:160yfvSW.......[",
".......~Fbhiw73,;*%@@OoooooO@#%=:<38epkMH)......[",
"......`KNlst951:=&$@+OoooooO@#%*->260ydxVI......[",
"......UZcgiw73<:=%$@+OoooooO+@$&=:<48eihbDE.....[",
".....QGMzsuw631:=&$%@#ooooo#+%%&->158wifxVJ/....[",
"................................................[",
"................................................[",
"...........[.....[..............................[",
"...........[....................................[",
"...........[....................................[",
"...........[.....[.[.[[...[[[...[[[..[[.........[",
"...........[.....[.[[..[.[...[.....[.[..........[",
"...........[.....[.[...[.[[[[[..[[[[.[..........[",
"...........[.....[.[...[.[.....[...[.[..........[",
"...........[.....[.[...[.[...[.[...[.[..........[",
"...........[[[[[.[.[...[..[[[...[[[[.[..........[",
"................................................[",
"...............................................[.",
"                   [[[        [[[[[[[[[[[[[[[[[.."
};
