/* XPM */
static char *loopOn[] = {
/* columns rows colors chars-per-pixel */
"43 20 5 1",
"  s bg c green",
". c #8D8989",
"X c gray100",
"o c black",
"O c gray100",
/* pixels */
"  ooooooooooooooooooooooooooooooooooooooo  ",
" o.......................................o ",
"o.........................................o",
"o.........................................o",
"o..........................................",
"o..........o...............................",
"o..........o...............................",
"o..........o...............................",
"o..........o......ooo...ooo..oooo..........",
"o..........o.....o...o.o...o.o...o.........",
"o..........o.....o...o.o...o.o...o.........",
"o..........o.....o...o.o...o.o...o.........",
"o..........o.....o...o.o...o.o...o.........",
"o..........ooooo..ooo...ooo..oooo..........",
"o............................o.............",
"o............................o.............",
"o..........................................",
"o.........................................X",
" X.......................................X ",
"  XXXXXXXXXXXXXXXXXXXXXXXXXXXXXXXXXXXXXXX  "
};
