/* XPM */
static char *mCutOff[] = {
/* columns rows colors chars-per-pixel */
"80 22 13 1",
"  c black",
". c gray100",
"X s bg c blue",
"o c #00CE19",
"O c #00E610",
"+ c #008C08",
"@ c gray88",
"# c gray87",
"$ c #DADADA",
"% c #B2B2B2",
"& c gray67",
"* c #979797",
"= c gray100",
/* pixels */
"XX............................................................................XX",
"X.XXXXXXXXXXXXXXXXXXXXXXXXXXXXXXXXXXXXXXXXXXXXXXXXXXXXXXXXXXXXXXXXXXXXXXXXXXXX.X",
".XXXXXXXXXXXXXXXXXXXXXXXXXXXXXXXXXXXXXXXXXXXXXXXXXXXXXXXXXXXXXXXXXXXXXXXXXXXXXX ",
".XXXXXXXXXXXXXXXXXXXXXXXXXXXXXXXXXXXXXXXXXXXXXXXXXXXXXXXXXXXXXXXXXXXXXXXXXXXXXX ",
".XXXXXXXXXXXXXXXXXXXXXXXXXXXXXXXXXXXXXXXXXXXXXXXXXXXXXXXXXXXXXXXXXXXXXXXXXXXXXX ",
".XXXXXXXXXXXXXXXXXXXXXXXXXXXXXXXXXXXXXXXXXXXXXXXXXXXXXXXXXXXXXXXXXXXXXXXXXXXXXX ",
".XXXXXXXXXXXXX XXXXX XXXXXXXX XXXX XXXXXXX    XXXXXXXXXXXXXXXXXXXXX      XXXXXX ",
".XXXXXXXXXXXXX XXXXX XXXXXXXX X XXXXXXXXX XXXX XXXXXXX XXXXXXXXXXX $$$$$$ XXXXX ",
".XXXXXXXXXXXXX  XXX  XXXXXXXX X XXXXXXXXX XXXXXXXXXXXX XXXXXXXXXX $$%%%%@$.XXXX ",
".XXXXXXXXXXXXX  XXX  XX XXX X X  X XXXXXX XXXXXX XXX X  XXXXXXXXX $%&&&&*$.XXXX ",
".XXXXXXXXXXXXX X X X XX XXX X X XX XXXXXX XXXXXX XXX X XXXXXXXXXX $%&&&&*$.XXXX ",
".XXXXXXXXXXXXX X X X XX XXX X X XX X    X XXXXXX XXX X XXXXXXXXXX $%&&&&*$.XXXX ",
".XXXXXXXXXXXXX XX XX XX XXX X X XX XXXXXX XXXXXX XXX X XXXXXXXXXX $%&&&&*$.XXXX ",
".XXXXXXXXXXXXX XX XX XX XX  X X XX XXXXXX XXXX X XX  X XXXXXXXXXX $$****$$.XXXX ",
".XXXXXXXXXXXXX XXXXX XXX  X X XX X XXXXXXX    XXX  X XX XXXXXXXXXX.$$$$$$.XXXXX ",
".XXXXXXXXXXXXXXXXXXXXXXXXXXXXXXXXXXXXXXXXXXXXXXXXXXXXXXXXXXXXXXXXXX......XXXXXX ",
".XXXXXXXXXXXXXXXXXXXXXXXXXXXXXXXXXXXXXXXXXXXXXXXXXXXXXXXXXXXXXXXXXXXXXXXXXXXXXX ",
".XXXXXXXXXXXXXXXXXXXXXXXXXXXXXXXXXXXXXXXXXXXXXXXXXXXXXXXXXXXXXXXXXXXXXXXXXXXXXX ",
".XXXXXXXXXXXXXXXXXXXXXXXXXXXXXXXXXXXXXXXXXXXXXXXXXXXXXXXXXXXXXXXXXXXXXXXXXXXXXX ",
".XXXXXXXXXXXXXXXXXXXXXXXXXXXXXXXXXXXXXXXXXXXXXXXXXXXXXXXXXXXXXXXXXXXXXXXXXXXXXX ",
"X XXXXXXXXXXXXXXXXXXXXXXXXXXXXXXXXXXXXXXXXXXXXXXXXXXXXXXXXXXXXXXXXXXXXXXXXXXXX X",
"XX                                                                            XX"
};
