/* XPM */
static char *multiVertex[] = {
/* columns rows colors chars-per-pixel */
"32 36 64 1",
"  c gray100",
". c yellow",
"X c magenta",
"o c red",
"O c cyan",
"+ c green",
"@ s bg c blue",
"# c black",
"$ c #D22C2C",
"% c #AAAAAA",
"& c #A5A5A5",
"* c #898989",
"= c #818181",
"- c gray49",
"; c #797979",
": c #161415",
"> c #797579",
", c #222122",
"< c #313031",
"1 c #757579",
"2 c #4C4C4D",
"3 c #636364",
"4 c #797975",
"5 c #AAAAA5",
"6 c #949493",
"7 c #A8A365",
"8 c #F7DB07",
"9 c #DDBA1C",
"0 c #B3AB95",
"q c #C4BCA8",
"w c #CAC2AE",
"e c #645943",
"r c #C69944",
"t c #B8873A",
"y c #FA9702",
"u c #837D75",
"i c #7A470A",
"p c #5B3F1B",
"a c #DB7506",
"s c #A25B0A",
"d c #422B13",
"f c #B27940",
"g c #84705B",
"h c #868584",
"j c #4E413B",
"k c #A01313",
"l c #B31818",
"z c #7D1111",
"x c #C62323",
"c c #D62C2C",
"v c #601414",
"b c #3F1313",
"n c #797575",
"m c #8D8989",
"M c #3D3C3C",
"N c #5B5A5A",
"B c gray74",
"V c #B4B4B4",
"C c #AEAEAE",
"Z c #A0A0A0",
"A c #8D8D8D",
"S c gray45",
"D c gray42",
"F c #4BBE2E",
/* pixels */
"@@##FFFFFFFFFFFFFFFFFFFFFFFFFFFF",
"@#FFFFFFFFFFFFFFFFFFFFFFFFFFFFFF",
"#FFFFFFFFFFFF#####FFFFFFFFFFFFFF",
"#FFFFFFFFFFFF#...#FFFFFFFFFFFFFF",
"#FFFFFFFFFFFF#...#FFFFFFFF#####F",
"#FFFFFFFFFFFD#...#23FFFFFF#...#F",
"######FFN<,,<#####32M,,,,<#...#F",
"##...#,,M2-==========-SD32#...#F",
"##...#<M-===============S2#####F",
"##...#,<MN;=========hh;2<2-%CMFF",
"######N2M<,,M2D==#####M2DZBVZ3FF",
"#FF,S-;;-SDNMM,,<#...#36BV%&=FFF",
"#FF:D-;;;--;--D32#...#VV%&%%3FFF",
"#FF:N;-;;;---;-;-#...#%%%%%%2FFF",
"#FF,2;;-;----;---#####&%&&%&MFFF",
"#FFMM;---;--;------MD%%&&&%&MFFF",
"#FFD<S;;-;--;------<S%%%&%&&2FFF",
"#FFF,D;-;-;;;;--;-;<S&%&%&&Z3FFF",
"#FFF:3;;;;-;------;<=&%&&%&*FFFF",
"#FFF,2-;-;;;-;-;;-S<=&&&&%#####F",
"#FFF,2;;;-;;;;-;--S<*%%%&&#...#F",
"#FF#####;;-;;---;-D<A&&&&&#...#F",
"#FF#...#;;-;--;--;D<6%&&&&#...#F",
"#FF#...#;;;;;-;;;;D<6&&&&&<####F",
"#FF#...#;;;;;;-;;;3<Z&&&&NFFFFFF",
"#FF#####2D;;;;;;-;3<Z&&&SFFFFFFF",
"#FFFFFFF,,2D;;;;--3<&&&A2FFFFFFF",
"#FFFFFFFFD,<2S;;;-N<&%ZMFFFFFFFF",
"#FFFFFFFFFFN:<2S;-N<&Z<FFFFFFFFF",
"#FFFFFFFFFFFF2:<N#####FFFFFFFFFF",
"#FFFFFFFFFFFFFF2:#...#FFFFFFFFFF",
"#FFFFFFFFFFFFFFFF#...#FFFFFFFFFF",
"#FFFFFFFFFFFFFFFF#...#FFFFFFFFFF",
"#FFFFFFFFFFFFFFFF#####FFFFFFFFFF",
"@#FFFFFFFFFFFFFFFFFFFFFFFFFFFFFF",
"@@666666666666666666666666666666"
};
