/* XPM */
static char *multiLabelOn[] = {
/* columns rows colors chars-per-pixel */
"96 18 5 1",
"  s bg c blue",
". c #4BBE2E",
"X c #949493",
"o c black",
"O c gray100",
/* pixels */
"     oooooooooooooooooooooooooooooooooooooooooooooooooooooooooooooooooooooooooooooooooooooo     ",
"    o......................................................................................X    ",
"   o........................................................................................X   ",
"   o........................................................................................X   ",
"   o........................................................................................X   ",
"   o.....o.....o........o....o.....oooo.....................................................X   ",
"   o.....o.....o........o.o.......o....o.............................................o......X   ",
"   o.....oo...oo........o.o.......o..................................................o......X   ",
"   o.....oo...oo..o...o.o.oo.o....o.......ooo..ooo.oo..oooo...ooo..o.oo...ooo..o.oo..oo.....X   ",
"   o.....o.o.o.o..o...o.o.o..o.oo.o......o...o.o..o..o.o...o.o...o.oo..o.o...o.oo..o.o......X   ",
"   o.....o.o.o.o..o...o.o.o..o....o......o...o.o..o..o.o...o.o...o.o...o.ooooo.o...o.o......X   ",
"   o.....o..o..o..o...o.o.o..o....o......o...o.o..o..o.o...o.o...o.o...o.o.....o...o.o......X   ",
"   o.....o..o..o..o..oo.o.o..o....o....o.o...o.o..o..o.o...o.o...o.o...o.o...o.o...o.o......X   ",
"   o.....o.....o...oo.o.o..o.o.....oooo...ooo..o..o..o.oooo...ooo..o...o..ooo..o...o..o.....X   ",
"   o...................................................o....................................X   ",
"   o...................................................o....................................X   ",
"   o........................................................................................X   ",
"   o........................................................................................X   "
};
