/* XPM */
static char *NEXBevelOn[] = {
/* columns rows colors chars-per-pixel */
"80 22 10 1",
"  c black",
". c gray100",
"X s bg c blue",
"o c #C63000",
"O c #FF6D3C",
"+ c #EA3C08",
"@ c gray88",
"# c #DADADA",
"$ c #898989",
"% c gray100",
/* pixels */
"XX                                                                            XX",
"X $$$$$$$$$$$$$$$$$$$$$$$$$$$$$$$$$$$$$$$$$$$$$$$$$$$$$$$$$$$$$$$$$$$$$$$$$$$$ X",
" $$$$$$$$$$$$$$$$$$$$$$$$$$$$$$$$$$$$$$$$$$$$$$$$$$$$$$$$$$$$$$$$$$$$$$$$$$$$$$.",
" $$$$$$$$$$$$$$$$$$$$$$$$$$$$$$$$$$$$$$$$$$$$$$$$$$$$$$$$$$$$$$$$$$$$$$$$$$$$$$.",
" $$$$$$$$$$$$$$$$$$$$$$$$$$$$$$$$$$$$$$$$$$$$$$$$$$$$$$$$$$$$$$$$$$$$$$$$$$$$$$.",
" $$$$$$$$$$$$$$$$$$$$$$$$$$$$$$$$$$$$$$$$$$$$$$$$$$$$$$$$$$$$$$$$$$$$$$$$$$$$$$.",
" $$$$$$$$$$$$$$$$$$$$$$    $$$$$$$$$$$$$$$$$$$$$ $$$$$$$$$$$$$$$$$$      $$$$$$.",
" $$$$$$$$$$$$$$$$$$$$$$ $$$ $$$$$$$$$$$$$$$$$$$$ $$$$$$$$$$$$$$$$$ ###### $$$$$.",
" $$$$$$$$$$$$$$$$$$$$$$ $$$ $$$$$$$$$$$$$$$$$$$$ $$$$$$$$$$$$$$$$ ##OOOO@#.$$$$.",
" $$$$$$$$$$$$$$$$$$$$$$ $$$ $$$   $$ $$$ $$   $$ $$$$$$$$$$$$$$$$ #O++++o#.$$$$.",
" $$$$$$$$$$$$$$$$$$$$$$    $$$ $$$ $ $$$ $ $$$ $ $$$$$$$$$$$$$$$$ #O++++o#.$$$$.",
" $$$$$$$$$$$$$$$$$$$$$$ $$$ $$     $$ $ $$     $ $$$$$$$$$$$$$$$$ #O++++o#.$$$$.",
" $$$$$$$$$$$$$$$$$$$$$$ $$$ $$ $$$$$$ $ $$ $$$$$ $$$$$$$$$$$$$$$$ #O++++o#.$$$$.",
" $$$$$$$$$$$$$$$$$$$$$$ $$$ $$ $$$ $$$ $$$ $$$ $ $$$$$$$$$$$$$$$$ ##oooo##.$$$$.",
" $$$$$$$$$$$$$$$$$$$$$$    $$$$   $$$$ $$$$   $$ $$$$$$$$$$$$$$$$$.######.$$$$$.",
" $$$$$$$$$$$$$$$$$$$$$$$$$$$$$$$$$$$$$$$$$$$$$$$$$$$$$$$$$$$$$$$$$$......$$$$$$.",
" $$$$$$$$$$$$$$$$$$$$$$$$$$$$$$$$$$$$$$$$$$$$$$$$$$$$$$$$$$$$$$$$$$$$$$$$$$$$$$.",
" $$$$$$$$$$$$$$$$$$$$$$$$$$$$$$$$$$$$$$$$$$$$$$$$$$$$$$$$$$$$$$$$$$$$$$$$$$$$$$.",
" $$$$$$$$$$$$$$$$$$$$$$$$$$$$$$$$$$$$$$$$$$$$$$$$$$$$$$$$$$$$$$$$$$$$$$$$$$$$$$.",
" $$$$$$$$$$$$$$$$$$$$$$$$$$$$$$$$$$$$$$$$$$$$$$$$$$$$$$$$$$$$$$$$$$$$$$$$$$$$$$.",
"X.$$$$$$$$$$$$$$$$$$$$$$$$$$$$$$$$$$$$$$$$$$$$$$$$$$$$$$$$$$$$$$$$$$$$$$$$$$$$.X",
"XX............................................................................XX"
};
