/* XPM */
static char *NEXBridgeOffE[] = {
/* columns rows colors chars-per-pixel */
"80 22 12 1",
"  c black",
". c gray100",
"X s bg c blue",
"o c #00CE19",
"O c #00E610",
"+ c #008C08",
"@ c gray88",
"# c gray87",
"$ c #DADADA",
"% c #B2B2B2",
"& c gray67",
"* c #979797",
/* pixels */
"XX............................................................................XX",
"X.XXXXXXXXXXXXXXXXXXXXXXXXXXXXXXXXXXXXXXXXXXXXXXXXXXXXXXXXXXXXXXXXXXXXXXXXXXXX.X",
".XXXXXXXXXXXXXXXXXXXXXXXXXXXXXXXXXXXXXXXXXXXXXXXXXXXXXXXXXXXXXXXXXXXXXXXXXXXXXX ",
".XXXXXXXXXXXXXXXXXXXXXXXXXXXXXXXXXXXXXXXXXXXXXXXXXXXXXXXXXXXXXXXXXXXXXXXXXXXXXX ",
".XXXXXXXXXXXXXXXXXXXXXXXXXXXXXXXXXXXXXXXXXXXXXXXXXXXXXXXXXXXXXXXXXXXXXXXXXXXXXX ",
".XXXXXXXXXXXXXXXXXXXXXXXXXXXXXXXXXXXXXXXXXXXXXXXXXXXXXXXXXXXXXXXXXXXXXXXXXXXXXX ",
".XXXXXXXXXXXXXXXXXXXXX****XXXXXX*XXXXX*XXXXXXXXXXXXXXXXXXXXXXXXXXXX      XXXXXX ",
".XXXXXXXXXXXXXXXXXXXXX*XXX*XXXXXXXXXXX*XXXXXXXXXXXXXXXXXXXXXXXXXXX $$$$$$ XXXXX ",
".XXXXXXXXXXXXXXXXXXXXX*XXX*XXXXXXXXXXX*XXXXXXXXXXXXXXXXXXXXXXXXXX $$$$$$$$.XXXX ",
".XXXXXXXXXXXXXXXXXXXXX*XXX*XX**X*XX****XX****XX***XXXXXXXXXXXXXXX $$$$$$$$.XXXX ",
".XXXXXXXXXXXXXXXXXXXXX****XXX*XX*X*XXX*X*XXX*X*XXX*XXXXXXXXXXXXXX $$$$$$$$.XXXX ",
".XXXXXXXXXXXXXXXXXXXXX*XXX*XX*XX*X*XXX*X*XXX*X*****XXXXXXXXXXXXXX $$$$$$$$.XXXX ",
".XXXXXXXXXXXXXXXXXXXXX*XXX*XX*XX*X*XXX*X*XXX*X*XXXXXXXXXXXXXXXXXX $$$$$$$$.XXXX ",
".XXXXXXXXXXXXXXXXXXXXX*XXX*XX*XX*X*XXX*X*XXX*X*XXX*XXXXXXXXXXXXXX $$$$$$$$.XXXX ",
".XXXXXXXXXXXXXXXXXXXXX****XXX*XX*XX****XX****XX***XXXXXXXXXXXXXXXX.$$$$$$.XXXXX ",
".XXXXXXXXXXXXXXXXXXXXXXXXXXXXXXXXXXXXXXXXXXX*XXXXXXXXXXXXXXXXXXXXXX......XXXXXX ",
".XXXXXXXXXXXXXXXXXXXXXXXXXXXXXXXXXXXXXXX****XXXXXXXXXXXXXXXXXXXXXXXXXXXXXXXXXXX ",
".XXXXXXXXXXXXXXXXXXXXXXXXXXXXXXXXXXXXXXXXXXXXXXXXXXXXXXXXXXXXXXXXXXXXXXXXXXXXXX ",
".XXXXXXXXXXXXXXXXXXXXXXXXXXXXXXXXXXXXXXXXXXXXXXXXXXXXXXXXXXXXXXXXXXXXXXXXXXXXXX ",
".XXXXXXXXXXXXXXXXXXXXXXXXXXXXXXXXXXXXXXXXXXXXXXXXXXXXXXXXXXXXXXXXXXXXXXXXXXXXXX ",
"X XXXXXXXXXXXXXXXXXXXXXXXXXXXXXXXXXXXXXXXXXXXXXXXXXXXXXXXXXXXXXXXXXXXXXXXXXXXX X",
"XX                                                                            XX"
};
