/* XPM */
static char *NEXBevelOff[] = {
/* columns rows colors chars-per-pixel */
"80 22 13 1",
"  c black",
". c gray100",
"X s bg c blue",
"o c #00CE19",
"O c #00E610",
"+ c #008C08",
"@ c gray88",
"# c gray87",
"$ c #DADADA",
"% c #B2B2B2",
"& c gray67",
"* c #979797",
"= c gray100",
/* pixels */
"XX............................................................................XX",
"X.XXXXXXXXXXXXXXXXXXXXXXXXXXXXXXXXXXXXXXXXXXXXXXXXXXXXXXXXXXXXXXXXXXXXXXXXXXXX.X",
".XXXXXXXXXXXXXXXXXXXXXXXXXXXXXXXXXXXXXXXXXXXXXXXXXXXXXXXXXXXXXXXXXXXXXXXXXXXXXX ",
".XXXXXXXXXXXXXXXXXXXXXXXXXXXXXXXXXXXXXXXXXXXXXXXXXXXXXXXXXXXXXXXXXXXXXXXXXXXXXX ",
".XXXXXXXXXXXXXXXXXXXXXXXXXXXXXXXXXXXXXXXXXXXXXXXXXXXXXXXXXXXXXXXXXXXXXXXXXXXXXX ",
".XXXXXXXXXXXXXXXXXXXXXXXXXXXXXXXXXXXXXXXXXXXXXXXXXXXXXXXXXXXXXXXXXXXXXXXXXXXXXX ",
".XXXXXXXXXXXXXXXXXXXXXX    XXXXXXXXXXXXXXXXXXXXX XXXXXXXXXXXXXXXXXX      XXXXXX ",
".XXXXXXXXXXXXXXXXXXXXXX XXX XXXXXXXXXXXXXXXXXXXX XXXXXXXXXXXXXXXXX ###### XXXXX ",
".XXXXXXXXXXXXXXXXXXXXXX XXX XXXXXXXXXXXXXXXXXXXX XXXXXXXXXXXXXXXX ##OOOO##.XXXX ",
".XXXXXXXXXXXXXXXXXXXXXX XXX XXX   XX XXX XX   XX XXXXXXXXXXXXXXXX #Ooooo+#.XXXX ",
".XXXXXXXXXXXXXXXXXXXXXX    XXX XXX X XXX X XXX X XXXXXXXXXXXXXXXX #Ooooo+#.XXXX ",
".XXXXXXXXXXXXXXXXXXXXXX XXX XX     XX X XX     X XXXXXXXXXXXXXXXX #Ooooo+#.XXXX ",
".XXXXXXXXXXXXXXXXXXXXXX XXX XX XXXXXX X XX XXXXX XXXXXXXXXXXXXXXX #Ooooo+#.XXXX ",
".XXXXXXXXXXXXXXXXXXXXXX XXX XX XXX XXX XXX XXX X XXXXXXXXXXXXXXXX ##++++##.XXXX ",
".XXXXXXXXXXXXXXXXXXXXXX    XXXX   XXXX XXXX   XX XXXXXXXXXXXXXXXXX.######.XXXXX ",
".XXXXXXXXXXXXXXXXXXXXXXXXXXXXXXXXXXXXXXXXXXXXXXXXXXXXXXXXXXXXXXXXXX......XXXXXX ",
".XXXXXXXXXXXXXXXXXXXXXXXXXXXXXXXXXXXXXXXXXXXXXXXXXXXXXXXXXXXXXXXXXXXXXXXXXXXXXX ",
".XXXXXXXXXXXXXXXXXXXXXXXXXXXXXXXXXXXXXXXXXXXXXXXXXXXXXXXXXXXXXXXXXXXXXXXXXXXXXX ",
".XXXXXXXXXXXXXXXXXXXXXXXXXXXXXXXXXXXXXXXXXXXXXXXXXXXXXXXXXXXXXXXXXXXXXXXXXXXXXX ",
".XXXXXXXXXXXXXXXXXXXXXXXXXXXXXXXXXXXXXXXXXXXXXXXXXXXXXXXXXXXXXXXXXXXXXXXXXXXXXX ",
"X XXXXXXXXXXXXXXXXXXXXXXXXXXXXXXXXXXXXXXXXXXXXXXXXXXXXXXXXXXXXXXXXXXXXXXXXXXXX X",
"XX                                                                            XX"
};
