/* XPM */
static char *dRCtx[] = {
/* columns rows colors chars-per-pixel */
"32 32 8 1",
"  c #00FF61",
". c #F24444",
"X c gray100",
"o c #C1C1C1",
"O c #717171",
"+ c gray38",
"@ c black",
"# c gray100",
/* pixels */
"oooooooooooooooooooooooooooooooo",
"oooooooooooooooooooooooooooooooo",
"oooooooooooooooooooooooooooooooo",
"oooooooooooooooooooooooooooooooo",
"oooo@@@@o@@@@o@@@@o@@@@ooooooooo",
"oooo@..@o@..@o@..@o@..@ooooooooo",
"oooo@..@o@..@o@..@o@..@ooooooooo",
"oooo@@@@o@@@@o@@@@o@@@@ooooooooo",
"oooooooooooooooooooooooooooooooo",
"oooo@@@@o@@@@@@oo@@@oooooooooooo",
"oooo@..@o@    @oo@X@Oooooooooooo",
"oooo@..@o@    @oo@X@Oooooooooooo",
"oooo@@@@o@    @oo@X@Oooooooooooo",
"ooooooooo@    @oo@X@Oooooooooooo",
"oooo@@@@o@@@@@@oo@@@Oooooooooooo",
"oooo@..@ooooooooooOOOooooooooooo",
"oooo@..@oooooooooooooooooooooooo",
"oooo@@@@o@@@@@@oo@@@oo@@@@@@oooo",
"ooooooooo@XXXX@Oo@X@Oo@XXXX@Oooo",
"oooo@@@@o@@@@@@Oo@@@Oo@@@@@@Oooo",
"oooo@..@ooOOOOOOooOOOooOOOOOOooo",
"oooo@..@oooooooooooooooooooooooo",
"oooo@@@@ooooooooo@@@oooooooooooo",
"ooooooooooooooooo@X@Oooooooooooo",
"ooooooooooooooooo@X@Oooooooooooo",
"ooooooooooooooooo@X@Oooooooooooo",
"ooooooooooooooooo@X@Oooooooooooo",
"ooooooooooooooooo@@@Oooooooooooo",
"ooooooooooooooooooOOOooooooooooo",
"oooooooooooooooooooooooooooooooo",
"oooooooooooooooooooooooooooooooo",
"oooooooooooooooooooooooooooooooo"
};
