/* XPM */
static char *objectOn[] = {
/* columns rows colors chars-per-pixel */
"32 36 63 1",
"  c gray100",
". c yellow",
"X c magenta",
"o c red",
"O c cyan",
"+ c green",
"@ s bg c blue",
"# c black",
"$ c #D22C2C",
"% c #AAAAAA",
"& c #A5A5A5",
"* c #898989",
"= c #818181",
"- c gray49",
"; c #797979",
": c #161415",
"> c #797579",
", c #222122",
"< c #313031",
"1 c #757579",
"2 c #4C4C4D",
"3 c #636364",
"4 c #797975",
"5 c #AAAAA5",
"6 c #949493",
"7 c #A8A365",
"8 c #F7DB07",
"9 c #DDBA1C",
"0 c #B3AB95",
"q c #C4BCA8",
"w c #CAC2AE",
"e c #645943",
"r c #C69944",
"t c #B8873A",
"y c #FA9702",
"u c #837D75",
"i c #7A470A",
"p c #5B3F1B",
"a c #DB7506",
"s c #A25B0A",
"d c #422B13",
"f c #B27940",
"g c #84705B",
"h c #868584",
"j c #4E413B",
"k c #A01313",
"l c #B31818",
"z c #7D1111",
"x c #C62323",
"c c #D62C2C",
"v c #601414",
"b c #3F1313",
"n c #797575",
"m c #8D8989",
"M c #3D3C3C",
"N c #5B5A5A",
"B c gray74",
"V c #B4B4B4",
"C c #AEAEAE",
"Z c #A0A0A0",
"A c #8D8D8D",
"S c gray45",
"D c gray42",
/* pixels */
"@@############################@@",
"@#@@@@@@@@@@@@@@@@@@@@@@@@@@@@6@",
"#@@@@@@@@@@@@@@@@@@@@@@@@@@@@@@6",
"#@@@@@@@@@@@@@@@@@@@@@@@@@@@@@@6",
"#@@@@@@@@@@@@@@@@@@@@@@@@@@@@@@6",
"#@@@@@@@@@@@D<:,,<2D@@@@@@@@@@@6",
"#@@@@@@@N<,,<2N3N2MM<:,,,<2D@@@6",
"#@@@2,,,M23;==hhhhh-=-SDDN<M<<@6",
"#@<b,<<MS=============----SNh<@6",
"#@dh**h1-================-h&C2@6",
"#@j**=A666h-============SACV63@6",
"#@@D*=**AA6666=========A6Z%CS@@6",
"#@@<******A*6A66======6Z&&&C2@@6",
"#@@,***A***AAAA6A66666&%%%%%M@@6",
"#@@<**A*A*AAAA*AAAAA6A&%&&&%<@@6",
"#@@<*hAAAA*AA*AAAA*6-%%&&&&&M@@6",
"#@@N**A**A*AA*AAAAAA-%%%&%%&2@@6",
"#@@@MAA*A*A****AA*AA=&%&%&&Z1@@6",
"#@@@<A*****A*AAAAAAAh&%&&%%6S@@6",
"#@@@,6*A*A***A*A**AA*&&&&%%=S@@6",
"#@@@,*****A****A*AAAA%%%&&&N@@@6",
"#@@@M*********AAA*A*6&&&&&&M@@@6",
"#@@@32AA******A*AA**6%&&&&62@@@6",
"#@@@@MA*******A****h6&&&&&2@@@@6",
"#@@@@,h********A***=Z&&&&=@@@@@6",
"#@@@@>2**********A*=Z&&&h@@@@@@6",
"#@@@@@@D2*********A-&&&Z3@@@@@@6",
"#@@@@@@@@N2*******A-&&&2@@@@@@@6",
"#@@@@@@@@@@22m*****-&&M@@@@@@@@6",
"#@@@@@@@@@@@@j2h***;&h@@@@@@@@@6",
"#@@@@@@@@@@@@@@M2hh-MD@@@@@@@@@6",
"#@@@@@@@@@@@@@@@@<222@@@@@@@@@@6",
"#@@@@@@@@@@@@@@@@@@@@@@@@@@@@@@6",
"#@@@@@@@@@@@@@@@@@@@@@@@@@@@@@@6",
"@#@@@@@@@@@@@@@@@@@@@@@@@@@@@@@6",
"@@66666666666666666666666666666@"
};
