/* XPM */
static char *pinchOff[] = {
/* columns rows colors chars-per-pixel */
"46 47 49 1",
"  c #000002",
". s bg c green",
"X c gray100",
"o c #E2E2E2",
"O c #DFDFDF",
"+ c gainsboro",
"@ c gray85",
"# c gray84",
"$ c LightGray",
"% c #D0D0D0",
"& c #CDCDCD",
"* c #CACACA",
"= c gray78",
"- c #C5C5C5",
"; c gray76",
": c gray75",
"> c #BCBCBC",
", c #B9B9B9",
"< c #B6B6B6",
"1 c gray70",
"2 c gray69",
"3 c gray68",
"4 c #AAAAAA",
"5 c gray66",
"6 c #A5A5A5",
"7 c #A2A2A2",
"8 c #9F9F9F",
"9 c gray61",
"0 c gray60",
"q c gray59",
"w c #939393",
"e c #909090",
"r c #8D8D8D",
"t c #8B8B8B",
"y c #888888",
"u c gray52",
"i c gray51",
"p c gray50",
"a c #7C7C7C",
"s c #797979",
"d c #767676",
"f c gray45",
"g c #717171",
"h c gray43",
"j c gray42",
"k c #686868",
"l c #656565",
"z c #626262",
"x c black",
/* pixels */
"XXXXXXXXXXXXXXXXXXXXXXXXXXXXXXXXXXXXXXXXXXXXXX",
"X............................................X",
"X............................................X",
"X............................................X",
"X............................................X",
"X.....................ff.....................X",
"X.....................11.....................X",
"X.....................%%.....................X",
"X....................ro@r....................X",
"X....................6oO6....................X",
"X....................-oO>....................X",
"X...................q&oO=a...................X",
"X...................3$oO&7...................X",
"X..................d>#OO$1...................X",
"X..................0;#OO$>r..................X",
"X..................4=#O+#-6..................X",
"X.................r1*#++#=2p.................X",
"X.................8>*#@@#*<q.................X",
"X................i4:&#@@$*>6f................X",
"X................q2;&$##$*:3e................X",
"X...............p7<;*%$$%*;19g...............X",
"X...............e5,-*&%%&*;<6t...............X",
"X..............p93,;=&&&*=;<40f..............X",
"X..............r72,;=****-;,38y..............X",
"X.............p052,:-===-;:<26ws.............X",
"X............gr952<>;;--;:><259yl............X",
"X............iw8521,>:::>>,1358wp............X",
"X...........sr075321<,,,<<12358qyd...........X",
"X..........fue086432211122345680eih..........X",
"X.........hpyeq9865544444456689qeyak.........X",
"X........hsiyewq09887777788890qwryisk........X",
"X.......hdaiuyrrewwwqqqqqqwweertyupadj.......X",
"X.....ljgfdssapppiiiiiiiiiiiippaassdfgjz.....X",
"X............................................X",
"X............................................X",
"X..........xxxxx..x.............x............X",
"X..........x....x...............x............X",
"X..........x....x...............x............X",
"X..........x....x.x.x.xx...xxx..x.xx.........X",
"X..........xxxxx..x.xx..x.x...x.xx..x........X",
"X..........x......x.x...x.x.....x...x........X",
"X..........x......x.x...x.x.....x...x........X",
"X..........x......x.x...x.x...x.x...x........X",
"X..........x......x.x...x..xxx..x...x........X",
"X............................................X",
"X............................................X",
"                                              "
};
