/* XPM */
static char *pinchOn[] = {
/* columns rows colors chars-per-pixel */
"46 47 49 1",
"  c #FFFFFC",
". c #8D8888",
"X c gray100",
"o c #E2E2E2",
"O c #DFDFDF",
"+ c gainsboro",
"@ c gray85",
"# c gray84",
"$ c LightGray",
"% c #D0D0D0",
"& c #CDCDCD",
"* c #CACACA",
"= c gray78",
"- c #C5C5C5",
"; c gray76",
": c gray75",
"> c #BCBCBC",
", c #B9B9B9",
"< c #B6B6B6",
"1 c gray70",
"2 c gray69",
"3 c gray68",
"4 c #AAAAAA",
"5 c gray66",
"6 c #A5A5A5",
"7 c #A2A2A2",
"8 c #9F9F9F",
"9 c gray61",
"0 c gray60",
"q c gray59",
"w c #939393",
"e c #909090",
"r c #8D8D8D",
"t c #8B8B8B",
"y c #888888",
"u c gray52",
"i c gray51",
"p c gray50",
"a c #7C7C7C",
"s c #797979",
"d c #767676",
"f c gray45",
"g c #717171",
"h c gray43",
"j c gray42",
"k c #686868",
"l c #656565",
"z c #626262",
"x c black",
/* pixels */
"xxxxxxxxxxxxxxxxxxxxxxxxxxxxxxxxxxxxxxxxxxxxxX",
"x............................................X",
"x............................................X",
"x............................................X",
"x............................................X",
"x.....................ff.....................X",
"x.....................11.....................X",
"x.....................%%.....................X",
"x....................ro@r....................X",
"x....................6oO6....................X",
"x....................-oO>....................X",
"x...................q&oO=a...................X",
"x...................3$oO&7...................X",
"x..................d>#OO$1...................X",
"x..................0;#OO$>r..................X",
"x..................4=#O+#-6..................X",
"x.................r1*#++#=2p.................X",
"x.................8>*#@@#*<q.................X",
"x................i4:&#@@$*>6f................X",
"x................q2;&$##$*:3e................X",
"x...............p7<;*%$$%*;19g...............X",
"x...............e5,-*&%%&*;<6t...............X",
"x..............p93,;=&&&*=;<40f..............X",
"x..............r72,;=****-;,38y..............X",
"x.............p052,:-===-;:<26ws.............X",
"x............gr952<>;;--;:><259yl............X",
"x............iw8521,>:::>>,1358wp............X",
"x...........sr075321<,,,<<12358qyd...........X",
"x..........fue086432211122345680eih..........X",
"x.........hpyeq9865544444456689qeyak.........X",
"x........hsiyewq09887777788890qwryisk........X",
"x.......hdaiuyrrewwwqqqqqqwweertyupadj.......X",
"x.....ljgfdssapppiiiiiiiiiiiippaassdfgjz.....X",
"x............................................X",
"x............................................X",
"x..........XXXXX..X.............X............X",
"x..........X....X...............X............X",
"x..........X....X...............X............X",
"x..........X....X.X.X.XX...XXX..X.XX.........X",
"x..........XXXXX..X.XX..X.X...X.XX..X........X",
"x..........X......X.X...X.X.....X...X........X",
"x..........X......X.X...X.X.....X...X........X",
"x..........X......X.X...X.X...X.X...X........X",
"x..........X......X.X...X..XXX..X...X........X",
"x............................................X",
"x............................................X",
"                                              "
};
