/* XPM */
static char *polygonOn[] = {
/* columns rows colors chars-per-pixel */
"32 36 64 1",
"  c gray100",
". c yellow",
"X c magenta",
"o c red",
"O c cyan",
"+ c green",
"@ s bg c blue",
"# c black",
"$ c #D22C2C",
"% c #AAAAAA",
"& c #A5A5A5",
"* c #898989",
"= c #818181",
"- c gray49",
"; c #797979",
": c #161415",
"> c #797579",
", c #222122",
"< c #313031",
"1 c #757579",
"2 c #4C4C4D",
"3 c #636364",
"4 c #797975",
"5 c #AAAAA5",
"6 c #949493",
"7 c #A8A365",
"8 c #F7DB07",
"9 c #DDBA1C",
"0 c #B3AB95",
"q c #C4BCA8",
"w c #CAC2AE",
"e c #645943",
"r c #C69944",
"t c #B8873A",
"y c #FA9702",
"u c #837D75",
"i c #7A470A",
"p c #5B3F1B",
"a c #DB7506",
"s c #A25B0A",
"d c #422B13",
"f c #B27940",
"g c #84705B",
"h c #868584",
"j c #4E413B",
"k c #A01313",
"l c #B31818",
"z c #7D1111",
"x c #C62323",
"c c #D62C2C",
"v c #601414",
"b c #3F1313",
"n c #797575",
"m c #8D8989",
"M c #3D3C3C",
"N c #5B5A5A",
"B c gray74",
"V c #B4B4B4",
"C c #AEAEAE",
"Z c #A0A0A0",
"A c #8D8D8D",
"S c gray45",
"D c gray42",
"F c #4BBE2E",
/* pixels */
"@@############################@@",
"@#FFFFFFFFFFFFFFFFFFFFFFFFFFFF6@",
"#FFFFFFFFFFFFFFFFFFFFFFFFFFFFFF6",
"#FFFFFFFFFFFFFFFFFFFFFFFFFFFFFF6",
"#FFFFFFFFFFFFFFFFFFFFFFFFFFFFFF6",
"#FFFFFFFFFFFD<:,,<2DFFFFFFFFFFF6",
"#FFFFFFFN<,,<2N3N2MM<:,,,<2DFFF6",
"#FFF2,,,M23;==hhhhh-=-SDDN<M<<F6",
"#F<b,<<MS===============S2SNh<F6",
"#Fdkkzvb,<2D-=========-22Sh&C2F6",
"#Fjk$xxllkvbb,MN;====SM3-ZCV63F6",
"#FFz$$$$$xxxllzvb,<N3MD6V%%CSFF6",
"#FFvxc$$$cc$$$$xllkzMAVC&%&C2FF6",
"#FFbx$$$$$ccc$c$cc$kjZ%%%%%%MFF6",
"#FFbl$$$$$$cc$ccccclj6%&%&&%<FF6",
"#FF<l$$$c$$$$$$$ccckjZ%%&&&&MFF6",
"#FFNk$$$$$$c$$cc$ccl2Z%%%&%&2FF6",
"#FFFzx$$$$$$$$c$$$$k2&%%&%&Z1FF6",
"#FFFbx$$$$$$c$c$c$$kN5%%&&%6SFF6",
"#FFFbl$$$$$$$$$$$$$kNC%&&&%=SFF6",
"#FFFbl$$$$$$$$$$$$xkN&%%%&&NFFF6",
"#FFFMk$$$$$$$$$c$$$zD&%&&&&MFFF6",
"#FFF3k$$$$$$$$$$$$xzS&%&&%62FFF6",
"#FFFFvx$$$$$$$$$$$xzn&&&&&2FFFF6",
"#FFFFblx$$$$$$$$$cxv-&&&&3FFFFF6",
"#FFFFFbzlx$$$$$$$$xz-&&&*FFFFFF6",
"#FFFFFFDbzlx$$$$$$xvh&&Z3FFFFFF6",
"#FFFFFFFFNbkl$$$$$xv6&&2FFFFFFF6",
"#FFFFFFFFFFjbkl$$$xv-&MFFFFFFFF6",
"#FFFFFFFFFFFFjbkx$xd-hFFFFFFFFF6",
"#FFFFFFFFFFFFFFMbklv=DFFFFFFFFF6",
"#FFFFFFFFFFFFFFFF<vb-FFFFFFFFFF6",
"#FFFFFFFFFFFFFFFFFFFFFFFFFFFFFF6",
"#FFFFFFFFFFFFFFFFFFFFFFFFFFFFFF6",
"@#FFFFFFFFFFFFFFFFFFFFFFFFFFFFF6",
"@@66666666666666666666666666666@"
};
