/* XPM */
static char *polygonConvert[] = {
/* columns rows colors chars-per-pixel */
"26 26 71 1",
"  c gray100",
". c yellow",
"X c magenta",
"o c red",
"O c cyan",
"+ s bg c green",
"@ c blue",
"# c black",
"$ c #5D5055",
"% c #444044",
"& c #696569",
"* c #817D81",
"= c #959195",
"- c #501010",
"; c #611414",
": c #711818",
"> c #811C1C",
", c #892020",
"< c #791C1C",
"1 c #8D2424",
"2 c #892424",
"3 c #912828",
"4 c #952C2C",
"5 c #912C2C",
"6 c #9D3030",
"7 c #692020",
"8 c #993030",
"9 c #A13434",
"0 c #953030",
"q c #9D3434",
"w c #551C1C",
"e c #481818",
"r c #482424",
"t c #381C1C",
"y c #3C2424",
"u c #442C2C",
"i c #342828",
"p c #483838",
"a c #4C4040",
"s c #696565",
"d c #757171",
"f c #858181",
"g c #A5A5A5",
"h c gray63",
"j c #9D9D9D",
"k c gray60",
"l c #959595",
"z c gray57",
"x c #8D8D8D",
"c c #818181",
"v c #797979",
"b c gray46",
"n c #717171",
"m c #6D6D6D",
"M c DimGray",
"N c #656565",
"B c gray38",
"V c #5D5D5D",
"C c gray35",
"Z c #555555",
"A c #505050",
"S c #4C4C4C",
"D c #484848",
"F c #444444",
"G c gray25",
"H c #3C3C3C",
"J c gray22",
"K c #343434",
"L c gray19",
"P c #2C2C2C",
"I c #282828",
/* pixels */
"++++++++++++++++++++++++++",
"++++++++++++++++++++++++++",
"++++++++++++++++++++++++++",
"++++++++++++++++++++++++++",
"++++++++++++++++++++++++++",
"++++++++++++++bDPPKFVb++++",
"++++++++++m%PPHSCBZADHKPIP",
"++++++&HIPGSCMnbnbbbbnmMNV",
"++++atiLKFCNnbbbbbbbbbbbbb",
"++++pg>:wriLHDZBmnbbbbbbMA",
"++++$  851,<7ryiJFACMnmZGS",
"++++*@  qq9q811,7wriLGFFVc",
"+++++@@  qq99q99641,>7Gvzg",
"     @@@  qq999q9q99q,axgg",
"@@@@@@@@@  9999q99999,Gzgg",
"@@@@@@@@@@  99q999999,algg",
"@@@@@@@@@@@  9q999999,a=gg",
"@@@@@@@@@@@@ gqq99q9q,Akgg",
"@@@@@@@@@@@@*q999999q>Zkgg",
"@@@@@@@@@@gqqq9q9qq9q>Cjgg",
"@@@@@@@@@@q9qqqq9q996<Vkgg",
"+++++@@@gqqq9qq999q96<Bjgg",
"+++++@@gqqqq9q99q99q87Mjgg",
"+++++@g;8qqqqqq9qqqq87mhgg",
"+++++++e,8qqqqqq9qqq87nhgg",
"+++++++fr:28qqqqqq9q87nhgx"
};
