/* XPM */
static char *quadDrawOff[] = {
/* columns rows colors chars-per-pixel */
"80 22 13 1",
"  c black",
". c gray100",
"X s bg c blue",
"o c #00CE19",
"O c #00E610",
"+ c #008C08",
"@ c gray88",
"# c gray87",
"$ c #DADADA",
"% c #B2B2B2",
"& c gray67",
"* c #979797",
"= c gray100",
/* pixels */
"XX............................................................................XX",
"X.XXXXXXXXXXXXXXXXXXXXXXXXXXXXXXXXXXXXXXXXXXXXXXXXXXXXXXXXXXXXXXXXXXXXXXXXXXXX.X",
".XXXXXXXXXXXXXXXXXXXXXXXXXXXXXXXXXXXXXXXXXXXXXXXXXXXXXXXXXXXXXXXXXXXXXXXXXXXXXX ",
".XXXXXXXXXXXXXXXXXXXXXXXXXXXXXXXXXXXXXXXXXXXXXXXXXXXXXXXXXXXXXXXXXXXXXXXXXXXXXX ",
".XXXXXXXXXXXXXXXXXXXXXXXXXXXXXXXXXXXXXXXXXXXXXXXXXXXXXXXXXXXXXXXXXXXXXXXXXXXXXX ",
".XXXXXXXXXXXXXXXXXXXXXXXXXXXXXXXXXXXXXXXXXXXXXXXXXXXXXXXXXXXXXXXXXXXXXXXXXXXXXX ",
".XXXXXXX    XXXXXXXXXXXXXXXXXXX XXXXXX    XXXXXXXXXXXXXXXXXXXXXXXXX      XXXXXX ",
".XXXXXX XXXX XXXXXXXXXXXXXXXXXX XXXXXX XXX XXXXXXXXXXXXXXXXXXXXXXX $$$$$$ XXXXX ",
".XXXXXX XXXX XXXXXXXXXXXXXXXXXX XXXXXX XXXX XXXXXXXXXXXXXXXXXXXXX $$%%%%@$.XXXX ",
".XXXXXX XXXX XX XXX XX   XXX    XXXXXX XXXX XX  XX   XX XX XX XXX $%&&&&*$.XXXX ",
".XXXXXX XXXX XX XXX XXXXX X XXX XX  XX XXXX XX XXXXXX X XX XX XXX $%&&&&*$.XXXX ",
".XXXXXX XXXX XX XXX XX    X XXX XX  XX XXXX XX XXX    X X X X XXX $%&&&&*$.XXXX ",
".XXXXXX XX X XX XXX X XXX X XXX XXXXXX XXXX XX XX XXX X X X X XXX $%&&&&*$.XXXX ",
".XXXXXX XXX  XX XX  X XXX X XXX XXXXXX XXX XXX XX XXX XX XXX XXXX $$****$$.XXXX ",
".XXXXXXX    XXXX  X XX    XX    XXXXXX    XXXX XXX    XX XXX XXXXX.$$$$$$.XXXXX ",
".XXXXXXXXXXX XXXXXXXXXXXXXXXXXXXXXXXXXXXXXXXXXXXXXXXXXXXXXXXXXXXXXX......XXXXXX ",
".XXXXXXXXXXXXXXXXXXXXXXXXXXXXXXXXXXXXXXXXXXXXXXXXXXXXXXXXXXXXXXXXXXXXXXXXXXXXXX ",
".XXXXXXXXXXXXXXXXXXXXXXXXXXXXXXXXXXXXXXXXXXXXXXXXXXXXXXXXXXXXXXXXXXXXXXXXXXXXXX ",
".XXXXXXXXXXXXXXXXXXXXXXXXXXXXXXXXXXXXXXXXXXXXXXXXXXXXXXXXXXXXXXXXXXXXXXXXXXXXXX ",
".XXXXXXXXXXXXXXXXXXXXXXXXXXXXXXXXXXXXXXXXXXXXXXXXXXXXXXXXXXXXXXXXXXXXXXXXXXXXXX ",
"X XXXXXXXXXXXXXXXXXXXXXXXXXXXXXXXXXXXXXXXXXXXXXXXXXXXXXXXXXXXXXXXXXXXXXXXXXXXX X",
"XX                                                                            XX"
};
