/* XPM */
static char *rotateOff[] = {
/* columns rows colors chars-per-pixel */
"37 29 6 1",
"  c black",
". c gray100",
"X s bg c blue",
"o c #000004",
"O c #8D8989",
"+ c gray100",
/* pixels */
"O...................................O",
"OXXXXXXXXXXXXXXXXXXXXXXXXXXXXXXXXXXXO",
"OXXXXXXXXXXXXXXXXXXXXXXXXXXXXXXXXXXXO",
"OXXXXXXXXXXXXXXXXXXXXXXXXXXXXXXXXXXXO",
"OXXXXXXXXXXXXXXXXXXXXXXXXXXXXXXXXXXXO",
"OXXXXXXXXXXXXXXXXXXXXXXXXXXXXXXXXXXXO",
"OXXXXXXXXXXXXXXXooXXXXXXXXXXXXXXXXXXO",
"OXXXXXXXXXXXXXXXo.oXXXXXXXXXXXXXXXXXO",
"OXXXXXXXXXXXXXXXo..oXXXXXXXXXXXXXXXXO",
"OXXXXXXXXXXXXXoo....oXXXXXXXXXXXXXXXO",
"OXXXXXXXXXXXXo......oooooXXXXXXXXXXXO",
"OXXXXXXXXXXXo...o..oXo..oXXXXXXXXXXXO",
"OXXXXXXXXXXXo..oo.oXXoooooXXXXXXXXXXO",
"OXXXXXXXXXXo..oXooXXXXo..oXXXXXXXXXXO",
"OXXXXXXXXXXo..oXXXoXXXooooXXXXXXXXXXO",
"OXXXXXXXXXXo..oXXo.oXXo..oXXXXXXXXXXO",
"OXXXXXXXXXXo..oXXXoXXXo..oXXXXXXXXXXO",
"OXXXXXXXXXXo..oXXXXXXXo..oXXXXXXXXXXO",
"OXXXXXXXXXXXo..oXXXXXo..oXXXXXXXXXXXO",
"OXXXXXXXXXXXo...ooooo...oXXXXXXXXXXXO",
"OXXXXXXXXXXXXo.........oXXXXXXXXXXXXO",
"OXXXXXXXXXXXXXoo.....ooXXXXXXXXXXXXXO",
"OXXXXXXXXXXXXXXXoooooXXXXXXXXXXXXXXXO",
"OXXXXXXXXXXXXXXXXXXXXXXXXXXXXXXXXXXXO",
"OXXXXXXXXXXXXXXXXXXXXXXXXXXXXXXXXXXXO",
"OXXXXXXXXXXXXXXXXXXXXXXXXXXXXXXXXXXXO",
"OXXXXXXXXXXXXXXXXXXXXXXXXXXXXXXXXXXXO",
"OXXXXXXXXXXXXXXXXXXXXXXXXXXXXXXXXXXXO",
"O                                   O"
};
