/* XPM */
static char *rotateOn[] = {
/* columns rows colors chars-per-pixel */
"37 29 6 1",
"  c black",
". c gray100",
"X c #000004",
"o c #FFFFFB",
"O c #8D8989",
"+ c gray100",
/* pixels */
"                                     ",
" OOOOOOOOOOOOOOOOOOOOOOOOOOOOOOOOOOO ",
" OOOOOOOOOOOOOOOOOOOOOOOOOOOOOOOOOOO ",
" OOOOOOOOOOOOOOOOOOOOOOOOOOOOOOOOOOO ",
" OOOOOOOOOOOOOOOOOOOOOOOOOOOOOOOOOOO ",
" OOOOOOOOOOOOOOOOOOOOOOOOOOOOOOOOOOO ",
" OOOOOOOOOOOOOOOXXOOOOOOOOOOOOOOOOOO ",
" OOOOOOOOOOOOOOOX.XOOOOOOOOOOOOOOOOO ",
" OOOOOOOOOOOOOOOX..XOOOOOOOOOOOOOOOO ",
" OOOOOOOOOOOOOXX....XOOOOOOOOOOOOOOO ",
" OOOOOOOOOOOOX......XXXXXOOOOOOOOOOO ",
" OOOOOOOOOOOX...X..XOX..XOOOOOOOOOOO ",
" OOOOOOOOOOOX..XX.XOOXXXXXOOOOOOOOOO ",
" OOOOOOOOOOX..XOXXOOOOX..XOOOOOOOOOO ",
" OOOOOOOOOOX..XOOOXOOOXXXXOOOOOOOOOO ",
" OOOOOOOOOOX..XOOX.XOOX..XOOOOOOOOOO ",
" OOOOOOOOOOX..XOOOXOOOX..XOOOOOOOOOO ",
" OOOOOOOOOOX..XOOOOOOOX..XOOOOOOOOOO ",
" OOOOOOOOOOOX..XOOOOOX..XOOOOOOOOOOO ",
" OOOOOOOOOOOX...XXXXX...XOOOOOOOOOOO ",
" OOOOOOOOOOOOX.........XOOOOOOOOOOOO ",
" OOOOOOOOOOOOOXX.....XXOOOOOOOOOOOOO ",
" OOOOOOOOOOOOOOOXXXXXOOOOOOOOOOOOOOO ",
" OOOOOOOOOOOOOOOOOOOOOOOOOOOOOOOOOOO ",
" OOOOOOOOOOOOOOOOOOOOOOOOOOOOOOOOOOO ",
" OOOOOOOOOOOOOOOOOOOOOOOOOOOOOOOOOOO ",
" OOOOOOOOOOOOOOOOOOOOOOOOOOOOOOOOOOO ",
" OOOOOOOOOOOOOOOOOOOOOOOOOOOOOOOOOOO ",
" ooo................................ "
};
