/* XPM */
static char *scaleOff[] = {
/* columns rows colors chars-per-pixel */
"36 29 5 1",
"  c black",
". c gray100",
"X s bg c blue",
"o c #D4D0C8",
"O c gray100",
/* pixels */
"..................................XX",
"XXXXXXXXXXXXXXXXXXXXXXXXXXXXXXXXXX.X",
"XXXXXXXXXXXXXXXXXXXXXXXXXXXXXXXXXXX ",
"XXXXXXXXXXXXXXXXXXXXXXXXXXXXXXXXXXX ",
"XXXXXXXXXXXXXXXXXXXXXXXXXXXXXXXXXXX ",
"XXXXXXXXXXXXXXXXXXXXXXXXXXXXXXXXXXX ",
"XXXXXXXXXXXXXXXXXXXXXXXXXXXXXXXXXXX ",
"XXXXXXXXXX               XXXXXXXXXX ",
"XXXXXXXXXX .o.o.o.o.o.o. XXXXXXXXXX ",
"XXXXXXXXXX o.o.o.o     o XXXXXXXXXX ",
"XXXXXXXXXX .o.o.o.o.o  . XXXXXXXXXX ",
"XXXXXXXXXX o.o.o.o.o o o XXXXXXXXXX ",
"XXXXXXXXXX .o.o.o.o o. . XXXXXXXXXX ",
"XXXXXXXXXX o.o.o.o o.o o XXXXXXXXXX ",
"XXXXXXXXXX        o.o.o. XXXXXXXXXX ",
"XXXXXXXXXX o.o.o. .o.o.o XXXXXXXXXX ",
"XXXXXXXXXX .o.o.o o.o.o. XXXXXXXXXX ",
"XXXXXXXXXX o.o.o. .o.o.o XXXXXXXXXX ",
"XXXXXXXXXX .o.o.o o.o.o. XXXXXXXXXX ",
"XXXXXXXXXX o.o.o. .o.o.o XXXXXXXXXX ",
"XXXXXXXXXX .o.o.o o.o.o. XXXXXXXXXX ",
"XXXXXXXXXX               XXXXXXXXXX ",
"XXXXXXXXXXXXXXXXXXXXXXXXXXXXXXXXXXX ",
"XXXXXXXXXXXXXXXXXXXXXXXXXXXXXXXXXXX ",
"XXXXXXXXXXXXXXXXXXXXXXXXXXXXXXXXXXX ",
"XXXXXXXXXXXXXXXXXXXXXXXXXXXXXXXXXXX ",
"XXXXXXXXXXXXXXXXXXXXXXXXXXXXXXXXXXX ",
"XXXXXXXXXXXXXXXXXXXXXXXXXXXXXXXXXX X",
"                                  XX"
};
