/* XPM */
static char *scaleOn[] = {
/* columns rows colors chars-per-pixel */
"36 29 5 1",
"  c black",
". c gray100",
"X s bg c blue",
"o c #8D8989",
"O c gray100",
/* pixels */
"                                  XX",
"oooooooooooooooooooooooooooooooooo X",
"ooooooooooooooooooooooooooooooooooo.",
"ooooooooooooooooooooooooooooooooooo.",
"ooooooooooooooooooooooooooooooooooo.",
"ooooooooooooooooooooooooooooooooooo.",
"ooooooooooooooooooooooooooooooooooo.",
"oooooooooo               oooooooooo.",
"oooooooooo .o.o.o.o.o.o. oooooooooo.",
"oooooooooo o.o.o.o     o oooooooooo.",
"oooooooooo .o.o.o.o.o  . oooooooooo.",
"oooooooooo o.o.o.o.o o o oooooooooo.",
"oooooooooo .o.o.o.o o. . oooooooooo.",
"oooooooooo o.o.o.o o.o o oooooooooo.",
"oooooooooo        o.o.o. oooooooooo.",
"oooooooooo o.o.o. .o.o.o oooooooooo.",
"oooooooooo .o.o.o o.o.o. oooooooooo.",
"oooooooooo o.o.o. .o.o.o oooooooooo.",
"oooooooooo .o.o.o o.o.o. oooooooooo.",
"oooooooooo o.o.o. .o.o.o oooooooooo.",
"oooooooooo .o.o.o o.o.o. oooooooooo.",
"oooooooooo               oooooooooo.",
"ooooooooooooooooooooooooooooooooooo.",
"ooooooooooooooooooooooooooooooooooo.",
"ooooooooooooooooooooooooooooooooooo.",
"ooooooooooooooooooooooooooooooooooo.",
"ooooooooooooooooooooooooooooooooooo.",
"oooooooooooooooooooooooooooooooooo.X",
"..................................XX"
};
