/* XPM */
static char *selectOff[] = {
/* columns rows colors chars-per-pixel */
"35 29 4 1",
"  c black",
". c gray100",
"X s bg c blue",
"o c gray100",
/* pixels */
"XX.................................",
"X.XXXXXXXXXXXXXXXXXXXXXXXXXXXXXXXXX",
".XXXXXXXXXXXXXXXXXXXXXXXXXXXXXXXXXX",
".XXXXXXXXXXXXXXXXXXXXXXXXXXXXXXXXXX",
".XXXXXXXXXXXXXXXXXXXXXXXXXXXXXXXXXX",
".XXXXXXXXX .XXXXXXXXXXXXXXXXXXXXXXX",
".XXXXXXXXX  .XXXXXXXXXXXXXXXXXXXXXX",
".XXXXXXXXX . .XXXXXXXXXXXXXXXXXXXXX",
".XXXXXXXXX .  .XXXXXXXXXXXXXXXXXXXX",
".XXXXXXXXX .   .XXXXXXXXXXXXXXXXXXX",
".XXXXXXXXX .    .XXXXXXXXXXXXXXXXXX",
".XXXXXXXXX .     .XX X X X XXXXXXXX",
".XXXXXXXXX .      .XXXXXXXXXXXXXXXX",
".XXXXXXXXX .       .XXXXXX XXXXXXXX",
".XXXXXXXXX .       .XXXXXXXXXXXXXXX",
".XXXXXXXXX .  ......XXXXXX XXXXXXXX",
".XXXXXXXXX . .XXXXXXXXXXXXXXXXXXXXX",
".XXXXXXXXX  .XXXXXXXXXXXXX XXXXXXXX",
".XXXXXXXXX..XXXXXXXXXXXXXXXXXXXXXXX",
".XXXXXXXXXXXXX XXXXXXXXXXX XXXXXXXX",
".XXXXXXXXXXXXXXXXXXXXXXXXXXXXXXXXXX",
".XXXXXXXXXXXXX XXXXXXXXXXX XXXXXXXX",
".XXXXXXXXXXXXXXXXXXXXXXXXXXXXXXXXXX",
".XXXXXXXXXXXXX X X X X X X XXXXXXXX",
".XXXXXXXXXXXXXXXXXXXXXXXXXXXXXXXXXX",
".XXXXXXXXXXXXXXXXXXXXXXXXXXXXXXXXXX",
".XXXXXXXXXXXXXXXXXXXXXXXXXXXXXXXXXX",
"X XXXXXXXXXXXXXXXXXXXXXXXXXXXXXXXXX",
"XX                                 "
};
