/* XPM */
static char *selectOn[] = {
/* columns rows colors chars-per-pixel */
"35 29 5 1",
"  c black",
". c gray100",
"X s bg c blue",
"o c #8D8989",
"O c gray100",
/* pixels */
"XX                                 ",
"X ooooooooooooooooooooooooooooooooo",
" oooooooooooooooooooooooooooooooooo",
" oooooooooooooooooooooooooooooooooo",
" oooooooooooooooooooooooooooooooooo",
" ooooooooo .ooooooooooooooooooooooo",
" ooooooooo  .oooooooooooooooooooooo",
" ooooooooo . .ooooooooooooooooooooo",
" ooooooooo .  .oooooooooooooooooooo",
" ooooooooo .   .ooooooooooooooooooo",
" ooooooooo .    .oooooooooooooooooo",
" ooooooooo .     .oo o o o oooooooo",
" ooooooooo .      .oooooooooooooooo",
" ooooooooo .       .oooooo oooooooo",
" ooooooooo .       .ooooooooooooooo",
" ooooooooo .  ......oooooo oooooooo",
" ooooooooo . .ooooooooooooooooooooo",
" ooooooooo  .ooooooooooooo oooooooo",
" ooooooooo..ooooooooooooooooooooooo",
" ooooooooooooo ooooooooooo oooooooo",
" oooooooooooooooooooooooooooooooooo",
" ooooooooooooo ooooooooooo oooooooo",
" oooooooooooooooooooooooooooooooooo",
" ooooooooooooo o o o o o o oooooooo",
" oooooooooooooooooooooooooooooooooo",
" oooooooooooooooooooooooooooooooooo",
" oooooooooooooooooooooooooooooooooo",
"X.ooooooooooooooooooooooooooooooooo",
"XX................................."
};
