/* XPM */
static char *shrinkOn[] = {
/* columns rows colors chars-per-pixel */
"55 17 5 1",
"  s bg c green",
". c #8D8989",
"X c gray100",
"o c black",
"O c gray100",
/* pixels */
"  ooooooooooooooooooooooooooooooooooooooooooooooooooo  ",
" o...................................................o ",
"o.....................................................X",
"o.....................................................X",
"o...............ooo...o........o.......o..............X",
"o..............o...o..o................o..............X",
"o..............o......o................o..............X",
"o..............o......o.oo..oo.o.o.oo..o..o...........X",
"o...............ooo...oo..o.o..o.oo..o.o.o............X",
"o..................o..o...o.o..o.o...o.oo.............X",
"o..................o..o...o.o..o.o...o.o.o............X",
"o..............o...o..o...o.o..o.o...o.o..o...........X",
"o...............ooo...o...o.o..o.o...o.o...o..........X",
"o.....................................................X",
"o.....................................................X",
" X...................................................X ",
"  XXXXXXXXXXXXXXXXXXXXXXXXXXXXXXXXXXXXXXXXXXXXXXXXXXX  "
};
