/* XPM */
static char *spinnerDownOff[] = {
/* columns rows colors chars-per-pixel */
"13 10 4 1",
"  s bg c green",
". c gray100",
"o c black",
"O c gray100",
/* pixels */
"  .........  ",
"           . ",
"            o",
"    ooooo   o",
"     ooo    o",
"      o     o",
"            o",
"o           o",
" o         o ",
"  ooooooooo  "
};