/* XPM */
static char *targetWeldOff[] = {
/* columns rows colors chars-per-pixel */
"80 22 13 1",
"  c black",
". c gray100",
"X s bg c blue",
"o c #00CE19",
"O c #00E610",
"+ c #008C08",
"@ c gray88",
"# c gray87",
"$ c #DADADA",
"% c #B2B2B2",
"& c gray67",
"* c #979797",
"= c gray100",
/* pixels */
"XX............................................................................XX",
"X.XXXXXXXXXXXXXXXXXXXXXXXXXXXXXXXXXXXXXXXXXXXXXXXXXXXXXXXXXXXXXXXXXXXXXXXXXXXX.X",
".XXXXXXXXXXXXXXXXXXXXXXXXXXXXXXXXXXXXXXXXXXXXXXXXXXXXXXXXXXXXXXXXXXXXXXXXXXXXXX ",
".XXXXXXXXXXXXXXXXXXXXXXXXXXXXXXXXXXXXXXXXXXXXXXXXXXXXXXXXXXXXXXXXXXXXXXXXXXXXXX ",
".XXXXXXXXXXXXXXXXXXXXXXXXXXXXXXXXXXXXXXXXXXXXXXXXXXXXXXXXXXXXXXXXXXXXXXXXXXXXXX ",
".XXXXXXXXXXXXXXXXXXXXXXXXXXXXXXXXXXXXXXXXXXXXXXXXXXXXXXXXXXXXXXXXXXXXXXXXXXXXXX ",
".XXXX     XXXXXXXXXXXXXXXXXXXXXXXXXXX XXXXXXXXX XXXXXXX XXXXX XXXXX      XXXXXX ",
".XXXXXX XXXXXXXXXXXXXXXXXXXXXXXX XXXX XXXXXXXXX XXXXXXX XXXXX XXXX $$$$$$ XXXXX ",
".XXXXXX XXXXXXXXXXXXXXXXXXXXXXXX XXXXX XXX XXX XXXXXXXX XXXXX XXX $$%%%%@$.XXXX ",
".XXXXXX XXXX   XX  XX    XX   XX  XXXX XXX XXX XXX   XX XX    XXX $%&&&&*$.XXXX ",
".XXXXXX XXXXXXX X XX XXX X XXX X XXXXX XXX XXX XX XXX X X XXX XXX $%&&&&*$.XXXX ",
".XXXXXX XXXX    X XX XXX X     X XXXXXX X X X XXX     X X XXX XXX $%&&&&*$.XXXX ",
".XXXXXX XXX XXX X XX XXX X XXXXX XXXXXX X X X XXX XXXXX X XXX XXX $%&&&&*$.XXXX ",
".XXXXXX XXX XXX X XX XXX X XXX X XXXXXXX XXX XXXX XXX X X XXX XXX $$****$$.XXXX ",
".XXXXXX XXXX    X XXX    XX   XXX XXXXXX XXX XXXXX   XX XX    XXXX.$$$$$$.XXXXX ",
".XXXXXXXXXXXXXXXXXXXXXXX XXXXXXXXXXXXXXXXXXXXXXXXXXXXXXXXXXXXXXXXXX......XXXXXX ",
".XXXXXXXXXXXXXXXXXXX    XXXXXXXXXXXXXXXXXXXXXXXXXXXXXXXXXXXXXXXXXXXXXXXXXXXXXXX ",
".XXXXXXXXXXXXXXXXXXXXXXXXXXXXXXXXXXXXXXXXXXXXXXXXXXXXXXXXXXXXXXXXXXXXXXXXXXXXXX ",
".XXXXXXXXXXXXXXXXXXXXXXXXXXXXXXXXXXXXXXXXXXXXXXXXXXXXXXXXXXXXXXXXXXXXXXXXXXXXXX ",
".XXXXXXXXXXXXXXXXXXXXXXXXXXXXXXXXXXXXXXXXXXXXXXXXXXXXXXXXXXXXXXXXXXXXXXXXXXXXXX ",
"X XXXXXXXXXXXXXXXXXXXXXXXXXXXXXXXXXXXXXXXXXXXXXXXXXXXXXXXXXXXXXXXXXXXXXXXXXXXX X",
"XX                                                                            XX"
};
