/* XPM */
static char *translateOn[] = {
/* columns rows colors chars-per-pixel */
"36 29 6 1",
"  c black",
". c gray100",
"X c #000004",
"o c #FFFFFB",
"O c #8D8989",
"+ c gray100",
/* pixels */
"                                    ",
" OOOOOOOOOOOOOOOOOOOOOOOOOOOOOOOOOOO",
" OOOOOOOOOOOOOOOOOOOOOOOOOOOOOOOOOOO",
" OOOOOOOOOOOOOOOOOOOOOOOOOOOOOOOOOOO",
" OOOOOOOOOOOOOOOOOOOOOOOOOOOOOOOOOOO",
" OOOOOOOOOOOOOOOOOOOOOOOOOOOOOOOOOOO",
" OOOOOOOOOOOOOOOOOXOOOOOOOOOOOOOOOOO",
" OOOOOOOOOOOOOOOOX.XOOOOOOOOOOOOOOOO",
" OOOOOOOOOOOOOOOX...XOOOOOOOOOOOOOOO",
" OOOOOOOOOOOOOOX.....XOOOOOOOOOOOOOO",
" OOOOOOOOOOOOOOXXX.XXXOOOOOOOOOOOOOO",
" OOOOOOOOOOOOXXOOX.XOOXXOOOOOOOOOOOO",
" OOOOOOOOOOOX.XOOX.XOOX.XOOOOOOOOOOO",
" OOOOOOOOOOX..XXXX.XXXX..XOOOOOOOOOO",
" OOOOOOOOOX...............XOOOOOOOOO",
" OOOOOOOOOOX..XXXX.XXXX..XOOOOOOOOOO",
" OOOOOOOOOOOX.XOOX.XOOX.XOOOOOOOOOOO",
" OOOOOOOOOOOOXXOOX.XOOXXOOOOOOOOOOOO",
" OOOOOOOOOOOOOOXXX.XXXOOOOOOOOOOOOOO",
" OOOOOOOOOOOOOOX.....XOOOOOOOOOOOOOO",
" OOOOOOOOOOOOOOOX...XOOOOOOOOOOOOOOO",
" OOOOOOOOOOOOOOOOX.XOOOOOOOOOOOOOOOO",
" OOOOOOOOOOOOOOOOOXOOOOOOOOOOOOOOOOO",
" OOOOOOOOOOOOOOOOOOOOOOOOOOOOOOOOOOO",
" OOOOOOOOOOOOOOOOOOOOOOOOOOOOOOOOOOO",
" OOOOOOOOOOOOOOOOOOOOOOOOOOOOOOOOOOO",
" OOOOOOOOOOOOOOOOOOOOOOOOOOOOOOOOOOO",
" OOOOOOOOOOOOOOOOOOOOOOOOOOOOOOOOOOO",
" ooooooooooooooooooooooooooooooooooo"
};
