/* XPM */
static char *translateOff[] = {
/* columns rows colors chars-per-pixel */
"36 29 6 1",
"  c black",
". c gray100",
"X s bg c blue",
"o c #000004",
"O c #8D8989",
"+ c gray100",
/* pixels */
"O...................................",
"OXXXXXXXXXXXXXXXXXXXXXXXXXXXXXXXXXXX",
"OXXXXXXXXXXXXXXXXXXXXXXXXXXXXXXXXXXX",
"OXXXXXXXXXXXXXXXXXXXXXXXXXXXXXXXXXXX",
"OXXXXXXXXXXXXXXXXXXXXXXXXXXXXXXXXXXX",
"OXXXXXXXXXXXXXXXXXXXXXXXXXXXXXXXXXXX",
"OXXXXXXXXXXXXXXXXXoXXXXXXXXXXXXXXXXX",
"OXXXXXXXXXXXXXXXXo.oXXXXXXXXXXXXXXXX",
"OXXXXXXXXXXXXXXXo...oXXXXXXXXXXXXXXX",
"OXXXXXXXXXXXXXXo.....oXXXXXXXXXXXXXX",
"OXXXXXXXXXXXXXXooo.oooXXXXXXXXXXXXXX",
"OXXXXXXXXXXXXooXXo.oXXooXXXXXXXXXXXX",
"OXXXXXXXXXXXo.oXXo.oXXo.oXXXXXXXXXXX",
"OXXXXXXXXXXo..oooo.oooo..oXXXXXXXXXX",
"OXXXXXXXXXo...............oXXXXXXXXX",
"OXXXXXXXXXXo..oooo.oooo..oXXXXXXXXXX",
"OXXXXXXXXXXXo.oXXo.oXXo.oXXXXXXXXXXX",
"OXXXXXXXXXXXXooXXo.oXXooXXXXXXXXXXXX",
"OXXXXXXXXXXXXXXooo.oooXXXXXXXXXXXXXX",
"OXXXXXXXXXXXXXXo.....oXXXXXXXXXXXXXX",
"OXXXXXXXXXXXXXXXo...oXXXXXXXXXXXXXXX",
"OXXXXXXXXXXXXXXXXo.oXXXXXXXXXXXXXXXX",
"OXXXXXXXXXXXXXXXXXoXXXXXXXXXXXXXXXXX",
"OXXXXXXXXXXXXXXXXXXXXXXXXXXXXXXXXXXX",
"OXXXXXXXXXXXXXXXXXXXXXXXXXXXXXXXXXXX",
"OXXXXXXXXXXXXXXXXXXXXXXXXXXXXXXXXXXX",
"OXXXXXXXXXXXXXXXXXXXXXXXXXXXXXXXXXXX",
"OXXXXXXXXXXXXXXXXXXXXXXXXXXXXXXXXXXX",
"O       oooooooooooooooooooooooooooo"
};
