/* XPM */
static char *uvConvert[] = {
/* columns rows colors chars-per-pixel */
"26 26 42 1",
"  c gray100",
". c yellow",
"X c magenta",
"o c red",
"O c cyan",
"+ s bg c green",
"@ c blue",
"# c black",
"$ c #3C383C",
"% c #444044",
"& c #8D898D",
"* c #959195",
"= c #00FA00",
"- c #75756D",
"; c #A5A5A5",
": c gray63",
"> c #9D9D9D",
", c gray60",
"< c #959595",
"1 c gray57",
"2 c #8D8D8D",
"3 c #818181",
"4 c gray46",
"5 c #717171",
"6 c #6D6D6D",
"7 c DimGray",
"8 c #656565",
"9 c gray38",
"0 c #5D5D5D",
"q c gray35",
"w c #555555",
"e c #505050",
"r c #4C4C4C",
"t c #484848",
"y c #444444",
"u c gray25",
"i c #3C3C3C",
"p c gray22",
"a c #343434",
"s c gray19",
"d c #2C2C2C",
"f c #282828",
/* pixels */
"++++++++++++++++++++++++++",
"++++++++++++++++++++++++++",
"+++++++++++++++-----++++++",
"+++++++++++++++-===-++++++",
"+++++++++++++++-===-++++++",
"++++++++++++++4-===-041+++",
"+++-----++6%ddi-----tiadfd",
"+++-===-fdurq7545444456780",
"+++-===-ayq854444444444444",
"+++-===-sssautw9654444447e",
"+++-----qeypassa$ye-----ur",
"++++&@  66679wtuass-===-03",
"+++++@@  666666680e-===-1;",
"     @@@  666666666-===-;;",
"@@@@@@@@@  66666666-----;;",
"@@@@@@@@@@  666666666uw<;;",
"@@@@@@@@@@@  66666666uw*;;",
"@@@@@@@@@@@@ ;6666666uq,;;",
"@@@@@@@@@@@@366666666i9,;;",
"@@@@@@@@@@;6666666666i9>;;",
"@@@@@@@@@@66666666667$9,;;",
"+++++-----66666666668$7>;;",
"+++++-===-66666666668p6>;;",
"+++++-===-66666666669$5:;;",
"+++++-===-66666666669$5:;;",
"+++++-----r8666666669$4:;2"
};
