/* XPM */
static char *vertexOn[] = {
/* columns rows colors chars-per-pixel */
"32 36 64 1",
"  c gray100",
". c yellow",
"X c magenta",
"o c red",
"O c cyan",
"+ c green",
"@ s bg c blue",
"# c black",
"$ c #D22C2C",
"% c #AAAAAA",
"& c #A5A5A5",
"* c #898989",
"= c #818181",
"- c gray49",
"; c #797979",
": c #161415",
"> c #797579",
", c #222122",
"< c #313031",
"1 c #757579",
"2 c #4C4C4D",
"3 c #636364",
"4 c #797975",
"5 c #AAAAA5",
"6 c #949493",
"7 c #A8A365",
"8 c #F7DB07",
"9 c #DDBA1C",
"0 c #B3AB95",
"q c #C4BCA8",
"w c #CAC2AE",
"e c #645943",
"r c #C69944",
"t c #B8873A",
"y c #FA9702",
"u c #837D75",
"i c #7A470A",
"p c #5B3F1B",
"a c #DB7506",
"s c #A25B0A",
"d c #422B13",
"f c #B27940",
"g c #84705B",
"h c #868584",
"j c #4E413B",
"k c #A01313",
"l c #B31818",
"z c #7D1111",
"x c #C62323",
"c c #D62C2C",
"v c #601414",
"b c #3F1313",
"n c #797575",
"m c #8D8989",
"M c #3D3C3C",
"N c #5B5A5A",
"B c gray74",
"V c #B4B4B4",
"C c #AEAEAE",
"Z c #A0A0A0",
"A c #8D8D8D",
"S c gray45",
"D c gray42",
"F c #4BBE2E",
/* pixels */
"@@############################@@",
"@#FFFFFFFFFFFFFFFFFFFFFFFFFFFF6@",
"#FFFFFFFFFFFF#####FFFFFFFFFFFFF6",
"#FFFFFFFFFFFF#...#FFFFFFFFFFFFF6",
"#FFFFFFFFFFFF#...#FFFFFFFF#####6",
"#FFFFFFFFFFFD#...#23FFFFFF#...#6",
"######FFN<,,<#####32M,,,,<#...#6",
"##...#,,M2-==========-SD32#...#6",
"##...#<M-===============S2#####6",
"##...#,<MN;=========hh;2<2-%CMF6",
"######N2M<,,M2D==#####M2DZBVZ3F6",
"#FF,S-;;-SDNMM,,<#...#36BV%&=FF6",
"#FF:D-;;;--;--D32#...#VV%&%%3FF6",
"#FF:N;-;;;---;-;-#...#%%%%%%2FF6",
"#FF,2;;-;----;---#####&%&&%&MFF6",
"#FFMM;---;--;------MD%%&&&%&MFF6",
"#FFD<S;;-;--;------<S%%%&%&&2FF6",
"#FFF,D;-;-;;;;--;-;<S&%&%&&Z3FF6",
"#FFF:3;;;;-;------;<=&%&&%&*FFF6",
"#FFF,2-;-;;;-;-;;-S<=&&&&%#####6",
"#FFF,2;;;-;;;;-;--S<*%%%&&#...#6",
"#FF#####;;-;;---;-D<A&&&&&#...#6",
"#FF#...#;;-;--;--;D<6%&&&&#...#6",
"#FF#...#;;;;;-;;;;D<6&&&&&<####6",
"#FF#...#;;;;;;-;;;3<Z&&&&NFFFFF6",
"#FF#####2D;;;;;;-;3<Z&&&SFFFFFF6",
"#FFFFFFF,,2D;;;;--3<&&&A2FFFFFF6",
"#FFFFFFFFD,<2S;;;-N<&%ZMFFFFFFF6",
"#FFFFFFFFFFN:<2S;-N<&Z<FFFFFFFF6",
"#FFFFFFFFFFFF2:<N#####FFFFFFFFF6",
"#FFFFFFFFFFFFFF2:#...#FFFFFFFFF6",
"#FFFFFFFFFFFFFFFF#...#FFFFFFFFF6",
"#FFFFFFFFFFFFFFFF#...#FFFFFFFFF6",
"#FFFFFFFFFFFFFFFF#####FFFFFFFFF6",
"@#FFFFFFFFFFFFFFFFFFFFFFFFFFFFF6",
"@@66666666666666666666666666666@"
};
