/* XPM */
static char *xyzOff[] = {
/* columns rows colors chars-per-pixel */
"10 58 10 1",
"  c gray100",
". c yellow",
"X s bg c magenta",
"o c red",
"O c cyan",
"+ c green",
"@ c blue",
"# c black",
"$ c #69696D",
"% c #CECED2",
/* pixels */
"XX        ",
"X XXXXXXXX",
" XXXXXXXXX",
" XXXX$$$$$",
" XXXX$oooo",
" XXXX$oooo",
" XXXX$oooo",
" XXXX$oooo",
" XXXX$oooo",
" XXXX$oooo",
" XXXX$oooo",
" XXXX$oooo",
" XXXX$$$$$",
" XXXXXXXXX",
" XXXXXXXXX",
" XXXXXXXXX",
" XXXXXXXXX",
" XXXXXXXXX",
" XXXXXXXXX",
" XXXXXXXXX",
" XXXXXXXXX",
" XXXXXXXXX",
" XXXXXXXXX",
" XXXX$$$$$",
" XXXX$++++",
" XXXX$++++",
" XXXX$++++",
" XXXX$++++",
" XXXX$++++",
" XXXX$++++",
" XXXX$++++",
" XXXX$++++",
" XXXX$++++",
" XXXX$$$$$",
" XXXXXXXXX",
" XXXXXXXXX",
" XXXXXXXXX",
" XXXXXXXXX",
" XXXXXXXXX",
" XXXXXXXXX",
" XXXXXXXXX",
" XXXXXXXXX",
" XXXXXXXXX",
" XXXXXXXXX",
" XXXX$$$$$",
" XXXX$@@@@",
" XXXX$@@@@",
" XXXX$@@@@",
" XXXX$@@@@",
" XXXX$@@@@",
" XXXX$@@@@",
" XXXX$@@@@",
" XXXX$@@@@",
" XXXX$@@@@",
" XXXX$$$$$",
" XXXXXXXXX",
"X#XXXXXXXX",
"XX########"
};
