/* XPM */
static char *yOn[] = {
/* columns rows colors chars-per-pixel */
"22 20 13 1",
"  c gray100",
". c yellow",
"X s bg c magenta",
"o c red",
"O c cyan",
"+ c green",
"@ c blue",
"# c black",
"$ c #FF282C",
"% c #69696D",
"& c #CECED2",
"* c #282CFF",
"= c #2CFF28",
/* pixels */
"XX%%%%%%%%%%%%%%%%%%%%",
"X%====================",
"%=====================",
"%=====================",
"%=====================",
"======================",
"=======##====##=======",
"=======##====##=======",
"========##==##==##====",
"=========####===##====",
"==========##==========",
"==========##==========",
"==========##====##====",
"==========##====##====",
"==========##==========",
"%=====================",
"%=====================",
"%=====================",
"X&====================",
"XX&&&&&&&&&&&&&&&&&&&&"
};
