/* XPM */
static char *bonusGame[] = {
/* width height num_colors chars_per_pixel */
"    32    32        8            1",
/* colors */
"` c #040204",
". c #bcbabc",
"# c #bcc2c4",
"a c #242624",
"b c #c4c2c4",
"c c #000000",
"d c #000000",
"e c #000000",
/* pixels */
"bb#bb#bb#bb#bb#bb#bb#bb#bb#bb#bb",
"`#b#bb#bb#bb#bb#bb#bb#bb#bb#bb#b",
"`.bb.bb.bb.bb.bb.bb.bb.bb.bb.b#b",
"`b#bb#bb#bb#bb#bb#bb#bb#bb#bb#b.",
"````#b#````#b`````#b``#b``#b```#",
"`.#``.``.#``.```.``.``.b``.``.``",
"`bb``#``bb``#``#b``#``#b``#b``.#",
"`#.``.``#.``.``.b``.``#b``.b#``.",
"`bb``#``bb``#``#b``#``.```#``#``",
"````.b#````.b``#b``.b`````#b```.",
"#b.b#bb.#b#b#b.b#b#b#b.#b.b#b.bb",
"b#b`````b#````#b```````b#b```a#b",
"bb``.#``.b#b.``.``.``.``b``.b`a.",
"#b``bb``#b`````#``#``#``.``````b",
"b.``#.``b``.#``.``.``#``#``.#b.b",
"b#``bb``.``bb``#``#``.``.``bb``#",
"b#b`````#b`````.``.``#``#b````#b",
"b.b#b.``.b#.b#bb#bb#bb.bb.b#.bb.",
"b#`````#bbbb#b.b#b.b.b#b#b#bb#bb",
"b#b.b#b.b#b#bb#bb#bb#bb#bbb#bb#b",
"b.bb#b#bb#bb.bb#bb#bb#bb.b#b.b#b",
"bb#bb.b#bb.bb#bb.bb.bb.bb#bbb#bb",
"#bb.bbbb.bb#bb.bb#bb#bb#bb.b#b.b",
"b#bb#b#b#b#b.bb#bb.bb#bb.bb#bbb#",
"b.b#b.bb#b.bb#bb.bb#b.b#b#bb.b#b",
"b#bbbb#b.bbb#b.bb#bb#bbb#b.bb#bb",
"bb.b#b.bb#b#.bb#bb.bb#.bbbb#bb.b",
"#b#b#bb#bb.bbb#b.bb#bbb#b.bb#bb#",
"bb.bb.bb#bb#b#.bb#bb.b#bb#b#.b#b",
"#bb#bb#b.b#b.bbb#b.b#bb.bb#bbbb.",
"b.bb#b.bbbbbbb#b.bbbb#bb#b.bb#bb",
"b#b#.bbb#b.#b#.bbb#b.b#b.bb#b.b#"
};
