/* XPM */
static char* XpmdrawReduceIcon[] = {
"32 32 47 1",
"  c #C0C0C0",
"! c #818181",
"# c #000033",
"$ c #000066",
"% c #003366",
"& c #003399",
"' c #006699",
"( c #0066CC",
") c #0099CC",
"* c #0099FF",
"+ c #00CCFF",
", c #330066",
"- c #333366",
". c #333399",
"/ c #336699",
"0 c #3366CC",
"1 c #3399CC",
"2 c #3399FF",
"3 c #33CCFF",
"4 c #663333",
"5 c #663366",
"6 c #666666",
"7 c #666699",
"8 c #6699CC",
"9 c #990000",
": c #993333",
"; c #993366",
"< c #996699",
"= c #999999",
"> c #CC0000",
"? c #CC3333",
"@ c #CC3366",
"A c #996666",
"B c #CCCCCC",
"C c #CC0033",
"D c #C1C1C1",
"E c #5F5F5F",
"F c #777777",
"G c #868686",
"H c #969696",
"I c #CBCBCB",
"J c #B2B2B2",
"K c #D7D7D7",
"L c #F1F1F1",
"M c #A4A0A0",
"N c #FF0000",
"O c #FFFFFF",
"DDDII=7-$%$-7MBIDDDDDDDDDIIJJIID",
"DDBJ-&((&2&'(&7DIDDDDDDDI MJHM I",
"DBM,'1&$(3($&1&- IDDDDIDMM BGM=D",
"IJ-&&%01%(%10$&'-DIDIIJM JHGJMMJ",
"I-(3(%22%&%22%23&7BI MJ MJ GMHM ",
"H&222%%%&3&%%&222%JJJ JMDIBMGBM ",
"5&33'&1(%&%(1&(32&EM M IIIJMDD=D",
"-$22%23(&1&(32%21$-MHBIIJM IMMII",
",.&&(33&(3''33(&&.GOJ DMJIJMDIDD",
",7&$2330%&%1232$(FLOKGMDJM IIDDD",
"%<1'%022&(&22(%(1AIIJMDMJIIDDDDD",
"-/A3(&%%&1&%%&)2;/EJJ=JIIDDDDDDD",
"7(<;3)%''$&(&(2?8&GKBIIIBBIDDDDD",
"M%*A?-(++&*+25?7*- H7---7!JBIDDD",
"B7&35>?<757A??5*&--&'%)&&'-7DIDD",
"ID-'&0<@?C?;72'%#&))&'3(%(2&- BD",
"DB -$*+32&23+)&#$''&&&2'&&&&&-DI",
"DIIM7-&()&((&--%2'$23%%$23%'3'7B",
"DII4AJG7---7G -)32&'(&2&''%222%M",
"DBM>>:AAJIDBKH&223(%&&1'%&&223(7",
"II:NNN9!IIIIB7(322&22%&$(3&(32*-",
"BH>N>:MBIDDII-(22(&3''3(&31%222%",
" :N:GDBIIIIII-%&&$(3(&1&'33&%&&$",
"H>; KBIDD  JJ-(22%(32$%$(32&'22%",
"::D AAA::::9:-(33'&3'&3($22$132-",
":AKIA>NNNNN?JG&322$'%133&'&&23(-",
"A>AJBG9>NN?JBJ-*230$%222(#%222&H",
"J:>>::>NN?MBDB7&322$%$%%%%&23(-I",
"IJA:?:>N>MBDDID-'3&&21%'22%()-JB",
"DIBDDH>>MBDDDDI -&$233&(33)$-MBD",
"DDDIKA9=BDDDDDDID6%')2&(2(&-JBDD",
"DDDDBGHBDDDDDDDDIBJ7-%$$-EHIBDDD"};