/* XPM */
static char* XpmedgePathIcon[] = {
"32 32 40 1",
"  c #C0C0C0",
"! c #F0CAA6",
"# c #000066",
"$ c #003366",
"% c #330066",
"& c #333366",
"' c #333399",
"( c #660033",
") c #663333",
"* c #663366",
"+ c #666699",
", c #669999",
"- c #993333",
". c #993366",
"/ c #999999",
"0 c #9999CC",
"1 c #CC0000",
"2 c #990033",
"3 c #CC3333",
"4 c #996666",
"5 c #CC9999",
"6 c #CCCCCC",
"7 c #CC0033",
"8 c #FF3333",
"9 c #CC6666",
": c #FF9999",
"; c #FFCCCC",
"< c #FF6666",
"= c #C1C1C1",
"> c #777777",
"? c #868686",
"@ c #969696",
"A c #CBCBCB",
"B c #B2B2B2",
"C c #D7D7D7",
"D c #DDDDDD",
"E c #E3E3E3",
"F c #F1F1F1",
"G c #A4A0A0",
"H c #FF0000",
"================================",
"================================",
"=============A=BB =AAA==========",
"=========AA G+&##&&++@GB =A6AA==",
"======AAB@+&##&+++&######&++?/B=",
"=====B?'######&'+?+$#&+?+'&####/",
"=== +###+G  G+&#######'+?/+&#&#'",
"==A@#&&###&++&#&+B G?+&####'/ #+",
"==A?#B B@++$####&&+?G+$#&&&A6 #+",
"==A@#BA=AAC+$B/++&&##&+BA&&== #+",
"==A/#/A===6+$ 66CAA/#/6AA&&== #+",
"===G#@A===6+$ 59955G#/6AA&&== #+",
"===G#@A===6+%8HHHHH7#.955&&AA #+",
"===G#/6A 582%35  B54#3HHH(%995#+",
"===B#+598H8.# A===A0#@=55&%8HH2+",
"===B%7HH9BC,#B=====G#/A=6'&9HH(+",
"===B(HHH895># A===AG#/6A5)(89B#+",
"===B#>5988H2(8955 A0#/58H1*=AB#+",
"= = $+DD6!!4(8HHHH84#-H85&+A=B#+",
"=C6:5:<<8<C+# =55987%-5==&+A=B#+",
"E;HHHHHHH!6?#B==AAAG#/6= &+A=B#+",
"6;8HHHHHH;A@#G====AG#/A= &+A=B#+",
" D:HHHHHH;A@#G=====G#@A= &+AAB#?",
" 6!HHHHHH!A@#G=====G#@A= &+CG&&B",
" C<HHHHHH;6/#G=====G#@A==&&+#&BA",
"6:HH8<8HH G@#B6====G#@AAB&#&@A= ",
":HH<;DE::+###+G =A6G#/A?&&?=A===",
"HH<C=  CF @+&###&+/@#+&#+ A=====",
"H<6= ==  =AA= /+&#####'BA=======",
"86============AA= G++GA=========",
"===================AAA==========",
"================================"};