/* XPM */
static char* XpmfacePathSplitIcon[] = {
"32 32 41 1",
"  c #C0C0C0",
"! c #F0CAA6",
"# c #000066",
"$ c #003366",
"% c #333366",
"& c #333399",
"' c #336699",
"( c #660033",
") c #666666",
"* c #666699",
"+ c #993366",
", c #996699",
"- c #999999",
". c #9999CC",
"/ c #99CCCC",
"0 c #CC0000",
"1 c #990033",
"2 c #CC3333",
"3 c #CC6699",
"4 c #CC9999",
"5 c #CCCCCC",
"6 c #CC0033",
"7 c #FF3333",
"8 c #FF6633",
"9 c #CC6666",
": c #FF9999",
"; c #FFCCCC",
"< c #FF6666",
"= c #C1C1C1",
"> c #868686",
"? c #969696",
"@ c #CBCBCB",
"A c #B2B2B2",
"B c #D7D7D7",
"C c #DDDDDD",
"D c #E3E3E3",
"E c #EAEAEA",
"F c #F1F1F1",
"G c #F8F8F8",
"H c #A4A0A0",
"I c #FF0000",
"============ %*@============ 5:I",
"===========@*##H@============4II",
"===========A###&@=====  === 57I7",
"==========@*#%##>@====@@   B<I7@",
"=========@-##*%#%==== DFDBD:I7!=",
"=========@%##A*##*@==@!7<:<II:B ",
"========@>#%%@?#%$A= 5!IIIII7B =",
"======== #*&%@ #'$*@=@:IIIII<B =",
"=======@*#-#*5=%%>#-@=:IIIII7D5 ",
"=======A#*>#H5B*# %%==DIIIIII<G@",
"======5*$=&$A99-#?A#?=!IIIIII<E@",
"=====@H#*@%%7II2#'B&% !I77<:!C= ",
"====@@%% 4#1IIII(%4A#*;:BB@5= ==",
"====4,#+I1#0IIII1#07(#34=== ====",
"== 7I01I9%%47II8H#+<I1II9 ======",
"=@4IIII</#*5 44==%&@7IIII9======",
"=@9IIII<.#>@=@==@*#A7IIII9@=====",
"==4III7 *#A=====@?#-4III7 ======",
"==A(I7 =%%=======A#)@A70% ======",
"=@*$4797I2A=====@40I7774#*@=====",
"@-#>59IIII95@@@@=7IIII45*#H=====",
"@%%=@4IIIII<99997IIIII4@=%%@====",
"H#*@=AIIII7IIIII77III7 =5>#A====",
"%$ ===90I9      =A<I64===A#*@===",
"#%===@*#H@========5>#-@== #&@===",
"%# ==@&# ==========A#*5=@A#*@===",
"H#*@= #&@===========%%==@*%A====",
"5*#?5A#*@==========@*# =&#A@====",
"=@>#%&#A5==========5H#*%#?@=====",
"==@H%##*- ==555@==A*&##*A@======",
"===@@>%###%%****%%###&-@========",
"=====@= ?'%%###%%%*H @@========="};