/* XPM */
static char* XpmfacePathIcon[] = {
"32 32 44 1",
"  c #C0C0C0",
"! c #C0DCC0",
"# c #F0CAA6",
"$ c #818181",
"% c #000066",
"& c #003366",
"' c #330033",
"( c #330066",
") c #333366",
"* c #333399",
"+ c #336699",
", c #660033",
"- c #663366",
". c #666699",
"/ c #669999",
"0 c #990000",
"1 c #993333",
"2 c #993366",
"3 c #999999",
"4 c #CC0000",
"5 c #990033",
"6 c #CC3333",
"7 c #996666",
"8 c #CC9999",
"9 c #CCCCCC",
": c #CC0033",
"; c #FF3333",
"< c #CC6666",
"= c #FF9966",
"> c #FF9999",
"? c #FFCCCC",
"@ c #FF6666",
"A c #C1C1C1",
"B c #868686",
"C c #969696",
"D c #CBCBCB",
"E c #B2B2B2",
"F c #D7D7D7",
"G c #DDDDDD",
"H c #E3E3E3",
"I c #EAEAEA",
"J c #A4A0A0",
"K c #808080",
"L c #FF0000",
"AAAAAAAAAAAAAAADA EJ33JEADDAAAAA",
"AAAAAAAAAAAAADE.)%%%%%%%).3ADAAA",
"AAAAAAAAAAAAAB%%)*.CCCC.)%%)EDAA",
"AAAAAAAAAAA )%.J D9DDDDDAEB)%3DA",
"AAAAAAAAAAE))EDDAAAADDDAAADA.%CD",
"AAAAAAAAAA)) DADA 88<<<8 AAA9.%E",
"AAAAAAAADC%3DD <;LLLLLLLL;8AD &.",
"AAAAAAAAD.)AA8;LL;;;L;<;;LL;89.)",
"AAAAAAAAA))D<L;< AD8L<9A 8<LL8.)",
"AAAAAAAA9.&<L;A <8D8L;DA<8D8LL)*",
"AAAAAAAA9.%4L<98<88<L;88<<D8L4%*",
"AAAAAAAADB%%4;D8<;LLLLLL;<884(%*",
"AAAAAAAADK%-'16LLL;;<<;;LLL2(7)(",
"AAAAAAAAD7%J2%'58 DD99D 3-'%5=*'",
"AAAAAAAAD<(7L2+%%)))+))%%%+3;;11",
"AAAAAAAAD<LL;DA)).))))*..%J9 ;L;",
"        A<LL89A))9DAAADFB%J9E;L;",
"DGFFFFFFF#@LL<A*) AAAAADB%J8;LL;",
"I>LLL;;;;@;8;L;)& ADDDAD.%6L;8;L",
"9#LLLLLLL>L 8<L05;;<<<;;4:L<<<;;",
" I@LLLLL;?L8<8 ;LLLLLLLLLL<!<8L<",
" H@LLLLL@F6L8 A;L88<<88E<L<!E;4B",
"D?LLLLLL@F*,L<D;L8D ;<AD8L<E;L(.",
"?;LLLLLL@F.%6L;;L89A<8DD<L;LL8%.",
";L;>#>;L>F.% <LLL;<<<<<;LLL; E%B",
"L;?9DH?@FDC%CF <4LLLLLLLL58D9.%E",
"@9A   DI9 A*) F/%C8<<<88$%JFJ%.D",
"9A AAA  AAA )) C%39DDDD9B%JJ%.DA",
" AAAAAAAAAAAE)%*%B9999DD.%)%.AAA",
"AAAAAAAAAAAAAA.%%%)...+)%%)3DAAA",
"AAAAAAAAAAAAAADE.*)%%%%).CADAAAA",
"AAAAAAAAAAAAAAAADD EEE ADDAAAAAA"};