/* XPM */
static char *magick[] = {
/* columns rows colors chars-per-pixel */
"32 32 10 1",
"  c #792c06",
". c #85380a",
"X c #984b10",
"o c #a65915",
"O c #b76b1b",
"+ c #c2761e",
"@ c #c87b21",
"# c #d18423",
"$ c #e69a2b",
"% c #f5a830",
/* pixels */
"%o.ooooO#@@#@@#OXoOoooOoXoOoXooo",
"@$XXooooo@#@#@OXXOOOoOOXoOOooooo",
"+#@.ooooooO#+oXXXooOOOooOoOoooOo",
"#+$X.oooooooXXoooXoOOoooOoOooOOo",
"#@#O .XooooooooOoOOOooooOooooOOo",
"##@$+. XoooooooooooOooXoooOOXooo",
"@#+$%$. XooOooooXXoooooXoooXXooX",
"+##+$%#. XooOooXooXXooooooXXooo.",
"+@#@@#%%O  .oOOOOooooooooXXXXoX ",
"@O##++#%$XO. XX.XoooooooX ..XX  ",
"@O@#+@$%#O%O    .. .....       X",
"@+@#++$%$$%%###$$#oX..X+$$$+o@$%",
"+@O##+@$%%%%%%$$$%%%$$$$$##$%%%%",
"+@+@#@+@$%%###OO@##$%#++O++#$$$#",
"@@@O###@@##+OO@@@+O++O@####+++O+",
"O@@+@###O+O+++#####+@####@###@##",
"O+@@O###+O+@#@@########@O+O+####",
"O+@+++###@##@#####@###@O@@@OO++@",
"O+#+@O@########@++@###+O@++@@@+O",
"+O@@#OO@@@@##+OOOO@@#+O#@@@@@@@@",
"OO+@@O+##OO@OOOOO+##@OO#@+O++@+@",
"OO+@#O@#@OOOO+OOOO#@+O+@@+OOOO++",
"+O@+#@O@O+@@@#@OOOOOO@@@+OooO+++",
"O++@@#+++##@+@#+O#++@#@@+OoooOOO",
"O+@#++#@@@@@O+##@###@@+@+Ooooooo",
"OOO@@+@++++++++@+++++O+@OOoooooo",
"+O+O+@+++++O@+OOO+@@@O+@+Ooooooo",
"+O+++++OOO+++@@@@###+O+@@+Oooooo",
"OoOOO+OOooOO++@+@@##@O+@@O+Ooooo",
"oooooOooooooO++OOOO@@O++OO++OOOO",
"oooooooooooooOOOO+O++O@+O++++O++",
"ooooXoooooooOOooOOO@@@@@O++O++@+"
};
