/* XPM */
static char *magick[] = {
/* columns rows colors chars-per-pixel */
"32 32 13 1",
"  c #5c1616",
". c #631f1f",
"X c #703232",
"o c #7c4444",
"O c #885555",
"+ c #986c6c",
"@ c #a27b7b",
"# c #b29191",
"$ c #bea2a2",
"% c #cbb4b4",
"& c #d9c9c9",
"* c #e4d9d9",
"= c #fcfbfb",
/* pixels */
"O#%*=============**====**%%*=**=",
"++%*==============*=====*&&*=**=",
"OO%=====================***=====",
"+@%*============================",
"$$%=============================",
"%%%*============================",
"%&*=============================",
"#**=============================",
"#%**============================",
"$&**============================",
"$*==============================",
"$&==============================",
"%&==============================",
"%%*=============================",
"$%*=============================",
"@%*=============================",
"O#&======================*======",
"#%&*====================*&*=====",
"%&&&*====================&&*====",
"%%*======================%%&&***",
"&%*=====================*&$%$&*%",
"*&*======================%+O#%&#",
"***=====================*#XX+%#+",
"=**=====================&#X.o+@+",
"*=*====================*&#XXOO+O",
"***=======&**==========*&#OXoOX.",
"%#%*==***&%%*=====***==*&#OooOX ",
"%@$&&**%##&%&=====**====*%@OoX..",
"#@#$%&%#O+$#%==***=**==**&##O..X",
"#@OO+#$$+o+#$*%%%&&*===%%%%#+OO+",
"O+OOOO+#@O+@#%#+@#%*==*%###++O#$",
"XoX.XXOOOOO@$%@O+@&*=**%$###@#%&"
};
