/* XPM */
static char *magick[] = {
/* columns rows colors chars-per-pixel */
"32 32 11 1",
"  c #1b1b8a",
". c #313196",
"X c #42429e",
"o c #5252a7",
"O c #6e6eb6",
"+ c #8282bf",
"@ c #9090c7",
"# c #b0b0d7",
"$ c #c1c1df",
"% c #d2d2e8",
"& c #fdfdfe",
/* pixels */
"&&&&&&&&&&&&&&&&&&&&&&&&&&&&&&&&",
"&&&&&&&&&&&&&&&&&&&&&&&&&&&&&&&&",
"#&&&&#&&&&%&&&&$#&&&&$&&&&%%&&&%",
"O#&&OO@&&#OO%&%Oo#&&Oo@&&#OO%&%O",
"%...O&o...%@...$%...O&o...%#.X.#",
"&%@#&&&#@&&&$@%&&&@#&&&#@&&&$@%&",
"&&&&&&&&&&&&&&&&&&&&&&&&&&&&&&&&",
"&&&&&&&%%&&&&&&&&&&&&&&&%&&&&&&&",
"&&O#&&&OO&&&$O%&&&O#&&&OO&&&$O%&",
"+X#oo+o@#.OOo#oOOX#Oo+o@#.OOo#oO",
"o#&&Oo@&&#oO%&%oo#&&Oo@&&#oO%&%o",
"&&&&&&&&&&&&&&&&&&&&&&&&&&&&&&&&",
"&&&&&&&&&&&&&&&&&&&&&&&&&&&&&&&&",
"@&&&&@&&&&#%&&&#@&&&&@&&&&#%&&&#",
"O@%#OOo%%OOo#%@OO@%$OOO%%OOo#%#o",
"&o .#&@  O&$. o%&o .@&@  O&%. X%",
"&&%%&&&%%&&&&%&&&&%%&&&%%&&&&%&&",
"&&&&&&&&&&&&&&&&&&&&&&&&&&&&&&&&",
"&&%&&&&%#&&&&%&&&&%&&&&%#&&&&%&&",
"&$O@&&%OO%&&@O#&&$O@&&%OO%&&@O#&",
"o.%@.o.#%.oXO%XXo.%@.o.#%.o.o%oX",
"@%&&#@$&&%@#&&&@@%&&#@$&&%@#&&&@",
"&&&&&&&&&&&&&&&&&&&&&&&&&&&&&&&&",
"&&&&&&&&&&&&&&&&&&&&&&&&&&&&&&&&",
"O&&&%O&&&&@#&&&@O&&&%O&&&&@#&&&@",
"Oo@+o@o@@o@oO@oO@o@+o@o@@o@OO@OO",
"&@oo%&#oo@&%OoO&&@oo$&#oo@&%OXO&",
"&&&&&&&&&&&&&&&&&&&&&&&&&&&&&&&&",
"&&&&&&&&&&&&&&&&&&&&&&&&&&&&&&&&",
"&&#%&&&#@&&&&#&&&&$%&&&#@&&&&#&&",
"%@OO$&#O@#%%OOO%%@OO$&#OO#%%OOO%",
" o&#  .%%.  @&O  X&#  .$&.  @&O "
};
