/* XPM */
static char *magick[] = {
/* columns rows colors chars-per-pixel */
"32 32 21 1",
"  c #0d1319",
". c #141c25",
"X c #1a2530",
"o c #242d3a",
"O c #1f2e40",
"+ c #2b384a",
"@ c #344559",
"# c #395168",
"$ c #3c657a",
"% c #434d5e",
"& c #47566d",
"* c #4e6577",
"= c #656c7a",
"- c #425f86",
"; c #526f89",
": c #67768a",
"> c #558796",
", c #6b8497",
"< c #6f8ea6",
"1 c #7fa4bf",
"2 c #89919a",
/* pixels */
"+# ++&+#..+&%$#.;;*o# -::X&#@&=.",
"oX@&+O*O&++ *#;#-.%%;@*+@:>*@@X&",
"#X+.&&-X#X+@#X+#+%@+X;@*-> ;&&o#",
"$@++*.+#*++X.+@+o@.#&&X*@>;=o+%O",
"*+o@+-++ *++O# ++*O*o@;;@&*X&-# ",
".:*#X*o@#&X+O+@+XX#@&##.;%%+&.#@",
"@*X@@*@*+X&#+X+.#++ %+$&*.+&@@@o",
"&@*&+.:&;+@ #+#X+.O+#+%+o**@X@X&",
"& #+&&; @#@@#.X#++@O ;&@X&.##& #",
";&*.%+@-=o+++##+ +O&+% #&@+#oo##",
"&+X*#+o*.*$$.#X&@# +++@*OX@+%@+ ",
"o*@# %@*&;X@$%+#+X$%+X@.$@&.#o#@",
".*o#;,o@*&;&+X&+*@+ @%&o#Xo&&@+@",
";*&#&o2>>o:X*&;.#+++#oo#%&#@ &@#",
";.;*=*1o$;=%;+o*&+X@.&#&.;+$@+ @",
"<,*X***,:+X;-;@@ @+@X#X+*;@++X@#",
"@;o:1: ;+;$# &@%@% X+&%*O.;&&o@ ",
"&*@;X<;*o#O@$*oo@+&@@ &#;@&.@@#o",
" &$;&=+o&#@%#.&&#.@X@@#.@@+%#oX#",
",;*+;+=## ;@=@*.+@#o@oX#@+o@.#@+",
"=X;:=+;O+&:o@&@;@o &+#++ &@@o@ +",
"<&:X@;:&@+X=;$.#X@@$.++++@XX@O++",
"X;@:$@ ;@%+& @@@X@.o#@OO+.#@@ @.",
"@+X*O#*:o+@+@#+.@+@X+ %+#X#.++#X",
" O@;+#@+=-+.@O&@@ ++++& o#%+@X.#",
"&+O.;&&O-.##*X@X+##XX++*@o.#+*+@",
"@o##&.%&$##oo&@@O+.&@@.#X+@$.@+@",
"#.@++&*@X$+&## @+@O@.+@@O@XX#%+O",
".#++o# #@&.#X@@@.Ooo+&+.@+&+@ @+",
"+@ ++#+@.o&#Oo+.#@+ +.%@# #+%##.",
"oO#$XX@O@@O @+%+@ @@#o@.O##+++X#",
"@X+.$@& @X@@& OO@@&..@@@@+ +@$+#"
};
