/* XPM */
static char *magick[] = {
/* columns rows colors chars-per-pixel */
"32 32 12 1",
"  c #ff3c0b",
". c #ff5429",
"X c #ff623b",
"o c #ff7350",
"O c #ff8e72",
"+ c #ff9b83",
"@ c #ffa893",
"# c #ffbaa8",
"$ c #ffc6b8",
"% c #ffd5cb",
"& c #ffe2db",
"* c #fff7f5",
/* pixels */
"o@&*************%O****O$*****%**",
"@&&***&&********@o***+O******%$*",
"%%&***&&********oo#*#o%******#O*",
"%&****&%**&****Oo%$@X#*%$&&**@$*",
"&&*&&**&%%##**@o$&&oo%&**&#$@%&*",
"%*&%&%*****&%+X@&*&o$$&****@@*&$",
"%*&&**%****&o+OO&**o%%&******&%#",
"&**%*&#***$OO*%$%&&O&*******&&O%",
"***$&$%*%OoO****&&@O&********#O%",
"****Oo%#@&$&******$O%*&&*&&***@o",
"$#%*O o%**%&******%@&&&***&***&o",
"$&#O..$***%&*******@%%********&O",
"*&*#O+****&*******&@+$****&***%.",
"***$O%***&%#@@#$$#OO#@****%%*%O ",
"%**+.O$%#OO#&&%$+oX#*%&&&%%&*&o.",
"OoXoOOOO$&*******$$%******&**$oX",
"&&oo**#$%**&****$&*%******%&*O@o",
"**+#**@%**$$$%*&$*********%%@OOO",
"**@&**&&&%&*$$*&%&$+#*****%%OOO$",
"*&+%****&&**&#**&OOOo%***$%OO@O&",
"$&#$%&&&**&%$@#$#$*$$@&**#OX@#O&",
"**$#***%&*%OO+o$****$@@%&*o@*%O*",
"**%O&*&*$$$###@&****$$o#$%X%**#&",
"***$#%%$#O#O%%@&******@O%&X$**&#",
"***%*%##&*@@**********%+&%#O**&%",
"**%*******%@%********&#@*%%#@*%&",
"**%**********&&****&%&+@**#$O+%&",
"%%&*******&***&****&**$@&*@+$#**",
"O@***&*&***&**&******&#@%$%%*$%*",
"&##*&&*&****&&$&*****$$#&$&***#%",
"**##**********%&****&$*&&*****$+",
"**%#***********%****&&*******&*&"
};
