/* XPM */
static char *magick[] = {
/* columns rows colors chars-per-pixel */
"32 32 8 1",
"  c #140501",
". c #301205",
"X c #471c08",
"o c #56250b",
"O c #703210",
"+ c #833d14",
"@ c #8f4517",
"# c #a3521b",
/* pixels */
" OX XO@o @OOo@Oo.o+O. .XX@OooO  ",
".O+.X@O..@OOX+OX.oOo.OOXX@OoXO. ",
"oo@XoO  .@OO.OOo.XXo.O@oo@OXXO..",
"ooO.    oOOo.XOoo..X O#oOOo..Oo.",
"oOo.  . OOOX X@oO ...O@oOOO..+O.",
"oo.o .o.O@o   Oo. ..XO+oO@@X.++.",
"oX.OoOoooO .  . X@ .oX+oo+#ooO+.",
"X..O@@.O.. oOO .@@..OXO.oOO.OoO.",
"X..O#O.O  .O#O.OO+. oOO.oOOXOOO.",
"o.o+@XoO  .+@o.+OO..+@o.++o.@@o.",
"O.OOo.OO. X@+XoOOo o#O. @#oXO+XX",
"o.Ooo.@Oo.O++.oOO..X+X  .OoXOOXX",
". OOo.@OO.O++.o+O.X.X  . oX .OXX",
"  O#oX@@o.@+O.O+@oo.  XO    .X. ",
". O#O.@@oXOoX +@@XO.  oO.       ",
"+ o@O.++X.oo..+@O.O.. OOo Xo    ",
"@o.O .++X.oo..O@oXOoo OOO.O+. .O",
"@O.  .OOXoO+..O@OoOO.XOOOX@+X.O@",
"OO   .OooXO+..o+.oO+.ooO.o@+o.@@",
"OX  oOOOO .X .X. OO@.OOo.OO@oX@@",
"O...OOOOX    X   o@O.OOo.O+@Xo+@",
"@.OOOoo@.     .OXX@O.O@O.O@O.oOO",
"O.O@o..o ...  o#oXOO.O@oXO+o.ooo",
"X.oOOo. o.oX..O@O.OOXOOoX++oXO+o",
".oO+Ooo O.OXO.+@O.o@oXooX@OOO+#o",
" X++.oooOXOO+o@OO.O+. XOXoOO.O#X",
" X+O.OO@Xoo+Oo@OO.@O  X@o.OO.O@o",
".O@Oo@O+ OO#OXOoo.@o   @o oO.OOX",
".+@ooO@o O##.XOo. o..o .  Xo..X.",
"X+@.o@+O.O#O.o@O.  ..O.       ..",
"o+@.oOOO.O@o.O@o.. X.Ooo..   . .",
"oOOoo@@o.oo.X@@..o.oX+@@.O.  o. "
};
