/* XPM */
static char * render_swColorPerVertex_xpm[] = {
"32 32 708 2",
"  	c None",
". 	c #C0C0C0",
"+ 	c #BFC2C2",
"@ 	c #BFC3C3",
"# 	c #C0C1C1",
"$ 	c #C0C1C0",
"% 	c #BFC2C1",
"& 	c #BDC7C5",
"* 	c #BDC9C7",
"= 	c #C2BABA",
"- 	c #C3B5B5",
"; 	c #BDC6C7",
"> 	c #BDC6C9",
", 	c #BFC2C3",
"' 	c #C0C0C1",
") 	c #BFC4C1",
"! 	c #BDCAC4",
"~ 	c #BEC6C2",
"{ 	c #C2B9BC",
"] 	c #CE95A2",
"^ 	c #E06376",
"/ 	c #F3303C",
"( 	c #F72E27",
"_ 	c #E46956",
": 	c #D2998B",
"< 	c #C3BAB5",
"[ 	c #BEC2C5",
"} 	c #BCC4CA",
"| 	c #BFC1C4",
"1 	c #BFC2C0",
"2 	c #BEC5C0",
"3 	c #BCCAC0",
"4 	c #BFC3C0",
"5 	c #C6ABBA",
"6 	c #D87AA8",
"7 	c #E74F8E",
"8 	c #F52E71",
"9 	c #FE1C54",
"0 	c #FF1B41",
"a 	c #FF2B39",
"b 	c #FF382E",
"c 	c #FF3E1D",
"d 	c #FF4F1A",
"e 	c #F76A29",
"f 	c #E98A4B",
"g 	c #D8A578",
"h 	c #C7BAAC",
"i 	c #BEC0C4",
"j 	c #BCC1CA",
"k 	c #BFC0C4",
"l 	c #BFC3BF",
"m 	c #BDC8BE",
"n 	c #BDCABD",
"o 	c #C0C0BF",
"p 	c #C7A8C0",
"q 	c #D877BC",
"r 	c #EB44B0",
"s 	c #FA1E9E",
"t 	c #FF148E",
"u 	c #FF1C81",
"v 	c #FF2D78",
"w 	c #FF3A70",
"x 	c #FE4667",
"y 	c #FF515C",
"z 	c #FF5B52",
"A 	c #FF6547",
"B 	c #FF6E3C",
"C 	c #FF762D",
"D 	c #FF7E1D",
"E 	c #FF8A14",
"F 	c #FA9B1E",
"G 	c #EAAE46",
"H 	c #D6BB7C",
"I 	c #C6BFAE",
"J 	c #BFBFC3",
"K 	c #BCBDCA",
"L 	c #BEBEC6",
"M 	c #BFBFC2",
"N 	c #C3B8C3",
"O 	c #D18ECF",
"P 	c #E15FD7",
"Q 	c #EF3BD8",
"R 	c #FA20D2",
"S 	c #FF17C8",
"T 	c #FF20BD",
"U 	c #FF30B4",
"V 	c #FF3CAB",
"W 	c #FF47A0",
"X 	c #FE5096",
"Y 	c #FF5A8C",
"Z 	c #FE6482",
"` 	c #FF6E78",
" .	c #FF786E",
"..	c #FF8264",
"+.	c #FF8B5A",
"@.	c #FF9550",
"#.	c #FF9F46",
"$.	c #FFA83B",
"%.	c #FFB12E",
"&.	c #FFB91E",
"*.	c #FFC416",
"=.	c #F9CF22",
"-.	c #ECD441",
";.	c #DDD36A",
">.	c #CCCB9D",
",.	c #C3C3C0",
"'.	c #C4B2C4",
").	c #EF2FF1",
"!.	c #FF14FE",
"~.	c #FF16FC",
"{.	c #FF23F3",
"].	c #FF32E8",
"^.	c #FF3DDF",
"/.	c #FF47D5",
"(.	c #FF50CB",
"_.	c #FF5AC2",
":.	c #FF64B8",
"<.	c #FE6CAE",
"[.	c #FF76A4",
"}.	c #FE7F9B",
"|.	c #FF8892",
"1.	c #FE9288",
"2.	c #FF9B7E",
"3.	c #FFA475",
"4.	c #FFAE6B",
"5.	c #FFB762",
"6.	c #FFC058",
"7.	c #FFC94F",
"8.	c #FFD245",
"9.	c #FFDC3B",
"0.	c #FFE62E",
"a.	c #FFF11F",
"b.	c #FFFD14",
"c.	c #FCFA19",
"d.	c #DADA3B",
"e.	c #BFC0AC",
"f.	c #C0C0C4",
"g.	c #C1B7C2",
"h.	c #E724F2",
"i.	c #F620FC",
"j.	c #FB3AFD",
"k.	c #FF49FF",
"l.	c #FF51FC",
"m.	c #FF5AF3",
"n.	c #FF63E9",
"o.	c #FF6BE0",
"p.	c #FF74D7",
"q.	c #FE7ECE",
"r.	c #FF86C4",
"s.	c #FF90BB",
"t.	c #FF98B2",
"u.	c #FEA1A9",
"v.	c #FFAAA0",
"w.	c #FEB297",
"x.	c #FFBB8E",
"y.	c #FFC485",
"z.	c #FFCD7C",
"A.	c #FFD772",
"B.	c #FFE069",
"C.	c #FFE860",
"D.	c #FFF257",
"E.	c #FFFD50",
"F.	c #FFFE45",
"G.	c #E9EA34",
"H.	c #C7CB19",
"I.	c #B2BA10",
"J.	c #BEBFAC",
"K.	c #D345E7",
"L.	c #E618FC",
"M.	c #EC3AF9",
"N.	c #F551FA",
"O.	c #FB66FD",
"P.	c #FF74FE",
"Q.	c #FF7DFB",
"R.	c #FF84F4",
"S.	c #FF8CEA",
"T.	c #FE95E1",
"U.	c #FF9DD9",
"V.	c #FFA6D0",
"W.	c #FFAFC7",
"X.	c #FEB7BE",
"Y.	c #FFC0B6",
"Z.	c #FEC8AD",
"`.	c #FED0A5",
" +	c #FED99C",
".+	c #FFE293",
"++	c #FFEA89",
"@+	c #FFF482",
"#+	c #FFFE7B",
"$+	c #FEFD70",
"%+	c #E5E65A",
"&+	c #C6C940",
"*+	c #AFB72A",
"=+	c #A7B512",
"-+	c #AAB92E",
";+	c #BFC0BD",
">+	c #C0C0C2",
",+	c #BFCABD",
"'+	c #C762DD",
")+	c #D712FC",
"!+	c #DF35F9",
"~+	c #E74DF9",
"{+	c #EE63F9",
"]+	c #F77AFB",
"^+	c #FD8EFE",
"/+	c #FF9AFF",
"(+	c #FFA2FB",
"_+	c #FFAAF3",
":+	c #FFB2EA",
"<+	c #FFBBE1",
"[+	c #FFC3D9",
"}+	c #FFCBD1",
"|+	c #FFD3C9",
"1+	c #FFDBC0",
"2+	c #FEE3B8",
"3+	c #FFECB0",
"4+	c #FFF5A7",
"5+	c #FFFFA1",
"6+	c #FFFE97",
"7+	c #EAEB81",
"8+	c #C6C95F",
"9+	c #AFB647",
"0+	c #A9B537",
"a+	c #A6B727",
"b+	c #9FB80C",
"c+	c #A9BB4C",
"d+	c #C1C0C6",
"e+	c #C0C9BD",
"f+	c #C080D3",
"g+	c #C714FA",
"h+	c #CF31F9",
"i+	c #D849F9",
"j+	c #E160F9",
"k+	c #E975F9",
"l+	c #F089F9",
"m+	c #F79EFB",
"n+	c #FDB1FE",
"o+	c #FFBFFE",
"p+	c #FFC7FB",
"q+	c #FFCEF4",
"r+	c #FED6EC",
"s+	c #FFDDE3",
"t+	c #FFE5DB",
"u+	c #FFEED2",
"v+	c #FFF6CC",
"w+	c #FFFFC7",
"x+	c #FEFEBB",
"y+	c #E5E69D",
"z+	c #C5C87A",
"A+	c #B1B763",
"B+	c #A9B652",
"C+	c #A7B845",
"D+	c #A1B836",
"E+	c #9BB825",
"F+	c #93B80A",
"G+	c #AABD6A",
"H+	c #C3C0CB",
"I+	c #C0C6BE",
"J+	c #BD9FCA",
"K+	c #B719F7",
"L+	c #C02BF9",
"M+	c #CA46F9",
"N+	c #D35DF9",
"O+	c #DB73F9",
"P+	c #E287F9",
"Q+	c #E999F9",
"R+	c #F1ACF9",
"S+	c #F8C1FC",
"T+	c #FDD4FE",
"U+	c #FFE1FE",
"V+	c #FFE9FB",
"W+	c #FFEFF5",
"X+	c #FFF8ED",
"Y+	c #FFFFE8",
"Z+	c #FCFCDB",
"`+	c #E6E7BD",
" @	c #C5C996",
".@	c #AFB679",
"+@	c #A9B56C",
"@@	c #A7B761",
"#@	c #A2B853",
"$@	c #9CB843",
"%@	c #96B833",
"&@	c #8FB820",
"*@	c #89B80F",
"=@	c #AFBE8A",
"-@	c #C3C0C8",
";@	c #C0C3BF",
">@	c #BEB6C3",
",@	c #A924F3",
"'@	c #AF26FA",
")@	c #BA43F9",
"!@	c #C45AF9",
"~@	c #CD70F9",
"{@	c #D585F9",
"]@	c #DD98F9",
"^@	c #E4AAF9",
"/@	c #EBBBF9",
"(@	c #F2CCFA",
"_@	c #FAE1FB",
":@	c #FEF5FE",
"<@	c #FFFEFF",
"[@	c #FDFDFA",
"}@	c #E5E6D7",
"|@	c #C3C6AB",
"1@	c #AFB690",
"2@	c #A9B584",
"3@	c #A8B879",
"4@	c #A3B96D",
"5@	c #9EB860",
"6@	c #98B851",
"7@	c #92B841",
"8@	c #8CB831",
"9@	c #83B81C",
"0@	c #80B817",
"a@	c #B8C0A9",
"b@	c #C2C0C4",
"c@	c #C0C2BF",
"d@	c #BFBEC0",
"e@	c #9F38EB",
"f@	c #9D1EFB",
"g@	c #AA3FF9",
"h@	c #B457F9",
"i@	c #BE6EF9",
"j@	c #C783F9",
"k@	c #CF95F9",
"l@	c #D7A8F9",
"m@	c #DFBAFA",
"n@	c #E5CAFA",
"o@	c #ECDAF9",
"p@	c #F5ECFC",
"q@	c #EDEDEF",
"r@	c #C3C7C1",
"s@	c #AFB6A4",
"t@	c #AAB59A",
"u@	c #A8B891",
"v@	c #A3B886",
"w@	c #9EB879",
"x@	c #99B86B",
"y@	c #93B85E",
"z@	c #8DB84F",
"A@	c #87B83F",
"B@	c #80B82E",
"C@	c #75B817",
"D@	c #7DB927",
"E@	c #BDC0B9",
"F@	c #C1C0C3",
"G@	c #C2C5BE",
"H@	c #9A4CE5",
"I@	c #8B16FC",
"J@	c #9B3CF9",
"K@	c #A554F9",
"L@	c #B06BF9",
"M@	c #B981F9",
"N@	c #C294F9",
"O@	c #CAA7F9",
"P@	c #D2B9F9",
"Q@	c #D9C9F9",
"R@	c #E1D9FA",
"S@	c #EBEBFD",
"T@	c #D9E0E4",
"U@	c #AAB6AE",
"V@	c #A8B8A6",
"W@	c #A4B89C",
"X@	c #9FB891",
"Y@	c #9AB885",
"Z@	c #94B878",
"`@	c #8FB86A",
" #	c #89B95C",
".#	c #83B84E",
"+#	c #7BB83D",
"@#	c #74B82C",
"##	c #68B811",
"$#	c #7EBA3C",
"%#	c #C1C0C1",
"&#	c #C4CBBD",
"*#	c #9963DD",
"=#	c #7711FC",
"-#	c #8938F9",
";#	c #9551F9",
">#	c #A069F9",
",#	c #AA7FF9",
"'#	c #B393F9",
")#	c #BCA5F9",
"!#	c #C5B7F9",
"~#	c #CDC9F9",
"{#	c #D5D9F9",
"]#	c #DFEBFD",
"^#	c #D0E1E5",
"/#	c #A5B8B0",
"(#	c #A0B8A6",
"_#	c #9BB99B",
":#	c #96B890",
"<#	c #91B883",
"[#	c #8BB877",
"}#	c #84B869",
"|#	c #7EB95B",
"1#	c #77B84C",
"2#	c #70B83B",
"3#	c #68B829",
"4#	c #58B80A",
"5#	c #82BC52",
"6#	c #C4C0C8",
"7#	c #C1C0C0",
"8#	c #C5CABD",
"9#	c #9F7FD3",
"0#	c #6712FA",
"a#	c #7733F9",
"b#	c #844EF9",
"c#	c #9066F9",
"d#	c #9B7CF9",
"e#	c #A591F9",
"f#	c #AEA4F9",
"g#	c #B7B6F9",
"h#	c #C0C8F9",
"i#	c #C8D9FA",
"j#	c #D2EBFD",
"k#	c #C5E1E5",
"l#	c #9CB8B0",
"m#	c #96B8A6",
"n#	c #92B89B",
"o#	c #8CB88F",
"p#	c #86B883",
"q#	c #80B876",
"r#	c #79B867",
"s#	c #73B859",
"t#	c #6BB84A",
"u#	c #63B939",
"v#	c #5AB826",
"w#	c #4BB809",
"x#	c #8BBC6C",
"y#	c #C7C0CB",
"z#	c #C4C6BE",
"A#	c #AB9ECA",
"B#	c #5917F7",
"C#	c #642DF9",
"D#	c #724AF9",
"E#	c #7F63F9",
"F#	c #8B7AF9",
"G#	c #968FF9",
"H#	c #9FA3F9",
"I#	c #A9B5F9",
"J#	c #B3C7F9",
"K#	c #BBD8F9",
"L#	c #C5EAFD",
"M#	c #BAE2E6",
"N#	c #93B8B0",
"O#	c #8DB8A5",
"P#	c #88B89B",
"Q#	c #82B88F",
"R#	c #7CB882",
"S#	c #75B875",
"T#	c #6EB866",
"U#	c #67B858",
"V#	c #5FB848",
"W#	c #57B836",
"X#	c #4CB822",
"Y#	c #42B70D",
"Z#	c #9BBE8B",
"`#	c #C6C0C8",
" $	c #C2C3BF",
".$	c #B8B5C3",
"+$	c #5223F2",
"@$	c #4F27FA",
"#$	c #6146F9",
"$$	c #6F60F9",
"%$	c #7B78F9",
"&$	c #868CF9",
"*$	c #91A0F9",
"=$	c #9BB4F9",
"-$	c #A5C6F9",
";$	c #AFD7F9",
">$	c #B9EAFC",
",$	c #AFE2E6",
"'$	c #8AB8B1",
")$	c #84B8A5",
"!$	c #7FB89A",
"~$	c #78B88E",
"{$	c #72B881",
"]$	c #6AB873",
"^$	c #63B865",
"/$	c #5BB856",
"($	c #52B946",
"_$	c #4AB834",
":$	c #3DB81E",
"<$	c #3CB815",
"[$	c #AEBFA8",
"}$	c #C3C0C5",
"|$	c #C1C2C0",
"1$	c #C1C1BF",
"2$	c #573EE8",
"3$	c #371FFB",
"4$	c #4E43F9",
"5$	c #5C5DF9",
"6$	c #6A75F8",
"7$	c #758AF9",
"8$	c #829FF9",
"9$	c #8CB3F9",
"0$	c #96C5F9",
"a$	c #A1D7F9",
"b$	c #ABE9FC",
"c$	c #A3E2E5",
"d$	c #80B8B1",
"e$	c #7AB8A5",
"f$	c #74B89A",
"g$	c #6DB88E",
"h$	c #66B881",
"i$	c #5EB872",
"j$	c #57B864",
"k$	c #4EB854",
"l$	c #45B843",
"m$	c #3CB831",
"n$	c #2CB818",
"o$	c #41BA2A",
"p$	c #BCC0BB",
"q$	c #C2C0C2",
"r$	c #C9C9BD",
"s$	c #6259E0",
"t$	c #1C14FD",
"u$	c #3A3FF9",
"v$	c #495AF9",
"w$	c #5773F8",
"x$	c #6488F9",
"y$	c #719DF9",
"z$	c #7CB1F9",
"A$	c #87C4F9",
"B$	c #91D6F9",
"C$	c #9DE9FC",
"D$	c #97E3E6",
"E$	c #77B8B0",
"F$	c #70B8A4",
"G$	c #69B89A",
"H$	c #62B88D",
"I$	c #5AB880",
"J$	c #52B871",
"K$	c #4AB862",
"L$	c #42B852",
"M$	c #37B841",
"N$	c #2DB82F",
"O$	c #16B80F",
"P$	c #50BB47",
"Q$	c #C4C0C5",
"R$	c #C8C8BE",
"S$	c #8D8CD0",
"T$	c #141EF8",
"U$	c #1E35FA",
"V$	c #3656F8",
"W$	c #4570F9",
"X$	c #5285F9",
"Y$	c #609BF9",
"Z$	c #6CB0F9",
"`$	c #78C3F9",
" %	c #83D5F9",
".%	c #8FE8FC",
"+%	c #8BE3E7",
"@%	c #6CB9B0",
"#%	c #65B8A4",
"$%	c #5EB899",
"%%	c #57B88C",
"&%	c #4FB87F",
"*%	c #46B870",
"=%	c #3DB861",
"-%	c #34B850",
";%	c #29B83F",
">%	c #1AB828",
",%	c #06B80B",
"'%	c #75BD74",
")%	c #C9C0C9",
"!%	c #C7C6BE",
"~%	c #8790D0",
"{%	c #193DF5",
"]%	c #184CFB",
"^%	c #326DF9",
"/%	c #4084F9",
"(%	c #4E9AF9",
"_%	c #5CAEF9",
":%	c #68C2F9",
"<%	c #74D4F9",
"[%	c #80E8FC",
"}%	c #7EE2E6",
"|%	c #62B9B0",
"1%	c #5AB8A4",
"2%	c #53B898",
"3%	c #4BB88C",
"4%	c #42B87E",
"5%	c #39B86F",
"6%	c #2FB85F",
"7%	c #26B84F",
"8%	c #14B837",
"9%	c #09B824",
"0%	c #66BC6E",
"a%	c #C2C0C1",
"b%	c #C1C1C0",
"c%	c #CBC9BC",
"d%	c #95A1CC",
"e%	c #245CF2",
"f%	c #1565FB",
"g%	c #2E81F9",
"h%	c #3D97F9",
"i%	c #4BADF9",
"j%	c #58C1F9",
"k%	c #65D4F9",
"l%	c #71E7FC",
"m%	c #71E2E6",
"n%	c #58B9B0",
"o%	c #4FB8A4",
"p%	c #48B898",
"q%	c #3FB88B",
"r%	c #36B87C",
"s%	c #2CB86D",
"t%	c #22B85D",
"u%	c #0FB847",
"v%	c #16B942",
"w%	c #7EBD8B",
"x%	c #C8C0C7",
"y%	c #C9C6BD",
"z%	c #ACB4C5",
"A%	c #327BEC",
"B%	c #0D79FC",
"C%	c #2996F9",
"D%	c #39ACF9",
"E%	c #47C0F9",
"F%	c #54D3F9",
"G%	c #61E7FC",
"H%	c #63E3E7",
"I%	c #4DB9B0",
"J%	c #44B8A3",
"K%	c #3CB898",
"L%	c #32B88A",
"M%	c #29B87B",
"N%	c #1DB86B",
"O%	c #06B854",
"P%	c #28BA5E",
"Q%	c #A1BEAA",
"R%	c #CBC0C8",
"S%	c #C7C4BE",
"T%	c #B6BBC2",
"U%	c #5097E2",
"V%	c #0D91FB",
"W%	c #23A9FA",
"X%	c #36BFF9",
"Y%	c #43D3F9",
"Z%	c #50E6FC",
"`%	c #55E3E7",
" &	c #41B9B0",
".&	c #38B8A3",
"+&	c #2FB897",
"@&	c #25B889",
"#&	c #16B878",
"$&	c #07B866",
"%&	c #4EBB81",
"&&	c #B2BFB7",
"*&	c #C8C0C5",
"=&	c #C5C2BE",
"-&	c #63AADC",
";&	c #11A7F9",
">&	c #1EBDFA",
",&	c #32D2F9",
"'&	c #3FE6FB",
")&	c #46E3E8",
"!&	c #35B9B0",
"~&	c #2BB8A3",
"{&	c #22B997",
"]&	c #11B886",
"^&	c #0FB97A",
"/&	c #69BC99",
"(&	c #C6C0C3",
"_&	c #C2C1BF",
":&	c #CAC2BD",
"<&	c #81B9D3",
"[&	c #10BCF8",
"}&	c #18D1FB",
"|&	c #2FE5FB",
"1&	c #37E3E8",
"2&	c #29B9B0",
"3&	c #1EB7A2",
"4&	c #0AB893",
"5&	c #17B98B",
"6&	c #8FBEAE",
"7&	c #CAC0C4",
"8&	c #CAC1BD",
"9&	c #8CBFD0",
"0&	c #1FCEF3",
"a&	c #13E6FE",
"b&	c #27E3E8",
"c&	c #1BB9B0",
"d&	c #06B7A0",
"e&	c #2DBA9F",
"f&	c #A0BFB7",
"g&	c #CAC0C3",
"h&	c #CBC0BD",
"i&	c #A3C3C9",
"j&	c #2EDEF0",
"k&	c #09E5EB",
"l&	c #07B9AF",
"m&	c #4EBBAE",
"n&	c #B9BFBE",
"o&	c #C8C0C2",
"p&	c #C8BFBD",
"q&	c #B5C4C5",
"r&	c #4BD3D6",
"s&	c #6DBFBC",
"t&	c #C5C0C0",
"u&	c #C5C0C1",
"v&	c #C4BFBF",
"w&	c #C3BFBF",
"x&	c #C6C0C1",
"y&	c #C2C0C0",
". . . . . . . . . . . . . . . + @ # . . . . . . . . . . . . . . ",
". . . . . . . . . . . $ % & * = - ; > , ' . . . . . . . . . . . ",
". . . . . . . . $ ) ! ~ { ] ^ / ( _ : < [ } | ' . . . . . . . . ",
". . . . . 1 2 3 4 5 6 7 8 9 0 a b c d e f g h i j k ' . . . . . ",
". . l m n o p q r s t u v w x y z A B C D E F G H I J K L M . . ",
". $ N O P Q R S T U V W X Y Z `  ...+.@.#.$.%.&.*.=.-.;.>.,.' . ",
"l '.).!.~.{.].^./.(._.:.<.[.}.|.1.2.3.4.5.6.7.8.9.0.a.b.c.d.e.f.",
"l g.h.i.j.k.l.m.n.o.p.q.r.s.t.u.v.w.x.y.z.A.B.C.D.E.F.G.H.I.J.f.",
"$ l K.L.M.N.O.P.Q.R.S.T.U.V.W.X.Y.Z.`. +.+++@+#+$+%+&+*+=+-+;+>+",
". ,+'+)+!+~+{+]+^+/+(+_+:+<+[+}+|+1+2+3+4+5+6+7+8+9+0+a+b+c+d+' ",
". e+f+g+h+i+j+k+l+m+n+o+p+q+r+s+t+u+v+w+x+y+z+A+B+C+D+E+F+G+H+. ",
". I+J+K+L+M+N+O+P+Q+R+S+T+U+V+W+X+Y+Z+`+ @.@+@@@#@$@%@&@*@=@-@. ",
". ;@>@,@'@)@!@~@{@]@^@/@(@_@:@<@[@}@|@1@2@3@4@5@6@7@8@9@0@a@b@. ",
". c@d@e@f@g@h@i@j@k@l@m@n@o@p@q@r@s@t@u@v@w@x@y@z@A@B@C@D@E@F@. ",
". $ G@H@I@J@K@L@M@N@O@P@Q@R@S@T@U@V@W@X@Y@Z@`@ #.#+#@###$#. %#. ",
". . &#*#=#-#;#>#,#'#)#!#~#{#]#^#/#(#_#:#<#[#}#|#1#2#3#4#5#6#7#. ",
". . 8#9#0#a#b#c#d#e#f#g#h#i#j#k#l#m#n#o#p#q#r#s#t#u#v#w#x#y#. . ",
". . z#A#B#C#D#E#F#G#H#I#J#K#L#M#N#O#P#Q#R#S#T#U#V#W#X#Y#Z#`#. . ",
". .  $.$+$@$#$$$%$&$*$=$-$;$>$,$'$)$!$~${$]$^$/$($_$:$<$[$}$. . ",
". . |$1$2$3$4$5$6$7$8$9$0$a$b$c$d$e$f$g$h$i$j$k$l$m$n$o$p$q$. . ",
". . . r$s$t$u$v$w$x$y$z$A$B$C$D$E$F$G$H$I$J$K$L$M$N$O$P$Q$%#. . ",
". . . R$S$T$U$V$W$X$Y$Z$`$ %.%+%@%#%$%%%&%*%=%-%;%>%,%'%)%. . . ",
". . . . !%~%{%]%^%/%(%_%:%<%[%}%|%1%2%3%4%5%6%7%8%9%0%a%%#. . . ",
". . . . b%c%d%e%f%g%h%i%j%k%l%m%n%o%p%q%r%s%t%u%v%w%x%q$. . . . ",
". . . . . . y%z%A%B%C%D%E%F%G%H%I%J%K%L%M%N%O%P%Q%R%%#. . . . . ",
". . . . . . . S%T%U%V%W%X%Y%Z%`% &.&+&@&#&$&%&&&*&. . . . . . . ",
". . . . . . . . =&=&-&;&>&,&'&)&!&~&{&]&^&/&(&(&. . . . . . . . ",
". . . . . . . . . _&:&<&[&}&|&1&2&3&4&5&6&7&a%. . . . . . . . . ",
". . . . . . . . . . 7#8&9&0&a&b&c&d&e&f&g&7#. . . . . . . . . . ",
". . . . . . . . . . . . h&i&j&k&l&m&n&o&. . . . . . . . . . . . ",
". . . . . . . . . . . . . p&q&r&s&t&u&. . . . . . . . . . . . . ",
". . . . . . . . . . . . . . v&w&x&y&. . . . . . . . . . . . . . "};
