/* XPM */
static char *magick[] = {
/* columns rows colors chars-per-pixel */
"32 32 11 1",
"  c #7c7c7c",
". c #a7a77a",
"X c #898989",
"o c #b7b78b",
"O c #b4b4b4",
"+ c #c4c498",
"@ c #dadaae",
"# c #e5e5b9",
"$ c Gray82",
"% c #ededc1",
"& c #f9f9f9",
/* pixels */
"#&&$$$$$$$O$O$$$$$$$$$$$$O$OOOOO",
"#&&&&&$&&&&&&&&&&$&$&&$$$$OOOXOO",
"%&&&&&&&&&&&&&&&&&&$$&&&$$&$$$$$",
"@$$&&&&&&&&&&&&&&&&&&&&&&&&&&&&$",
"#&&&&&&&&&&&&&&&&&&&&&&&&&&&&&&&",
"%&&&&&&&&&&&&&&&&&&&&&&&&&&&&&&&",
"%&&&&&&&&&&&&&&&&&&&&&&&&&&&&&&&",
"%&&&&&&&&&&&&&&&&&&&&&&&&&&&&&&$",
"#&&&&&&&&&&&&&&&&&&$$&&&&&&&&&&&",
"+$$OOOOOOO$OOOOOOOOOOO$$&&&&&&&&",
"#&&$$$$$$$$$$$$$$$$$$&&&&&$&&&&$",
"#&&&&&&&&&&&&&&&&&&&&&$$$$OOOOOO",
"#&&&&&&&&&&&$$$$OOO$OOOOOX      ",
"#&&&&&&&&&&&&&&$$$$&&&&&&$$$$$$$",
"%&&&&&&&&&&&&&&&&&&&&&&&&&&&&&&&",
"%&&$&$$$$$$$$$$$&&&&&&&&&&&&&&&&",
"@&$&&&&&$&&&&&&&&&&&&&&&&&&&&&&&",
"+$$$$$$$$$&&&&&&&&&&&&&&&&&&&&&&",
".OOOO$$$$&&&&&&&&&&&&&&&&&&&&&&&",
"@&&&$&&&&&&&&&&&&&&&&&&&&&&&&&&&",
"%&&&&&&&&&&&&&&&&&&&&&&$&&&&&&&&",
"@$&$$$$$$$$$$$$OOOXOOOOOO$$$$$$$",
"#&&&&&$&&&&&&&&&&&&&&&&&&&&&&&&&",
"%&&&&&&&&&&&$$$$$$$$OOOOOO$$$$$$",
"%&&&&&&$$OOOX X  X X X X  X  X  ",
"%&&&&&&&&&&&&&&&&&&&&&&&&&&&&&&&",
"+$$$$$$$$$$&&&&&&&&&&&&&&&&&&&&&",
"#&&&&&&&&&&&&&&&&&&&&&&$$OOOOOOO",
"%&&&&&&&&&&&&&&&&&&&&&&&&$&$&$&$",
"o$$$$$$&&$$$$$$$$$$$$$$&&&&&&&&&",
"#&&&&&&&&&&&&&&&&&&&&&&&&&&&&&&&",
"%&&&&&&&&&&&&&&&&&&&&&&&&&&&&&&&"
};
