/* XPM */
static char *magick[] = {
/* columns rows colors chars-per-pixel */
"32 32 9 1",
"  c #020202",
". c #2d2d00",
"X c #2f2f2f",
"o c #4b4b4b",
"O c #6c6c6c",
"+ c #929292",
"@ c #aaaaaa",
"# c #cdcdcd",
"$ c Gray99",
/* pixels */
".                               ",
".                               ",
".                               ",
".  XX                      XO   ",
".  XX                      Xo   ",
".                               ",
".                               ",
".                               ",
".             XOOXX             ",
".           O#$$$$$+X X     XX  ",
".          @$$#++@$$#           ",
".         @$#X    X@$#X     o   ",
".        O$#        @$@    XO   ",
".        #$o         #$X        ",
".       X$#          O$O        ",
".   o@X O$+          o$+        ",
".  XO#X O$+          o$@        ",
".       X$@          O$O        ",
".        $$X         #$o        ",
".        +$@        +$#     o   ",
".         #$@      +$$X    XO   ",
".          #$$OooO#$$o          ",
".        X X+$$$$$$@X  ++X  XX  ",
".            XO+@Oo   +@O#      ",
". X                   @O #      ",
".                     X##+      ",
".              +@               ",
".           X  O@   X           ",
".          oO   X  oO           ",
".                            X  ",
".                               ",
".                               "
};
