/* XPM */
static char *magick[] = {
/* columns rows colors chars-per-pixel */
"32 32 11 1",
"  c Gray2",
". c #323232",
"X c #4e4e4e",
"o c #6f6f6f",
"O c #939393",
"+ c #9b9ba0",
"@ c Gray69",
"# c #ececbf",
"$ c #d3d3d3",
"% c #ededc3",
"& c #fefefe",
/* pixels */
"%%%%%%%#%%#%#%%%%%%%%%%%#%%%##%&",
"&+o&&&&&&&&&&&&&&&&&&&&&&&&&&&&&",
"&X.&&&&&&&&+O&&&$&&&&&&&&&&&&&&&",
"&&&&&&&&&&O  o&&&&&&&&&&&&&&&&&&",
"&&&&&&&&&&o  X&&&&$$&&&&&&&&&&&&",
"&&&&&&&&&&$X.$&&&&$@$@&&&&&&&&&&",
"&&&&&&&&$$&&&&&&&&&&&&&&&&&&&&&&",
"&&&&&&&&@@&&&&&&&&&&&&&&&&&&&&&&",
"&&&&&&&&&&&&$$&&&&&&&&&&&&&&&&&&",
"&&&&&@@&&&&&@@&&&&&&&&&&&&&&&&&&",
"&&&&&X.&&&&&&&&&&&&&&&&&&&&&&&&&",
"&&&&&&$&&&&&&&&&&&&&&&&&&&&&$&&&",
"&&&&&&&&&&&&&&&&&&&&&&&&&&&&$$&&",
"&&&&&&&&&&&&&&&&&&&&&&&&&&&&$o+&",
"&&&&&&&&&&&&$@&&&&&&&&&&&&&&&o &",
"&&&&&&&&&&&&$@&&&&&&&&&&&&&&&&$&",
"&$&&&&&&&&&&&&&&&&&&&&&&&&$&&&&&",
"&&&&&&&&&&&&&&&&&&&&&&&&&@o&&&&&",
"&&&$$&&&&&&&&&&&&&&&&&&&&X.&&&&$",
"&&O  @&&&&&&&&&&&&&&&&&&&&$&&&$@",
"&&X  X&&&&&&$$&&&&&&&&&&&&&&&&&&",
"&&O  @&&&&&&$$&&&OO&&&&&&&&&&&&&",
"&&&$$&&&$$&&&&&&&.X&&&&&&&$$&&&&",
"&&&&$&&&$@&&&&&&&&&&&&&&&&$@&&&&",
"$&&&&&&&&&&&&&&&&&&&&&&$&&&&&&&&",
"&&&&&&&&&+@&&&&&&@@&&&OO&&&&&&&&",
"&&&&&&&&& X&&&&&&X.@O$&&&&&&&$&&",
"&&&&&&$&&$&&&&&&&&O  .$&&&&&$@$&",
"&&&&&&&&&&&&&&&&&&@   $&&&&&&&&&",
"&&&&&&&&&&&&&&&&&&&o.@&&&&&&&&&&",
"&&&&&&&&&&&&&&&&$$&&&&&&&&&&&&&&",
"&&&&&$&&&&&&&&&&$@&&&&&&&&&&&&&&"
};
