/* XPM */
static char *storePose[] = {
/* width height num_colors chars_per_pixel */
"    32    32        8            1",
/* colors */
"` c #5d5f5d",
". c #a4aea4",
"# c #858885",
"a c #727471",
"b c #979b91",
"c c #fcfefc",
"d c #90918f",
"e c #7a7c79",
/* pixels */
"cccccccccccccccccccccccccccccccc",
"cc```````````accdca```````````cc",
"cc```````````cdcdbc```````````cc",
"cc````````````cc.c````````````cc",
"cc````````````ecce````````````cc",
"cc`````````````c#`````````````cc",
"cc````````````acd`````````````cc",
"ccaeaea`aaad#bdcbbb#deaeaaaeeacc",
"cccccccccccccccccccccccccccccccc",
"cc``````````cd#cb#dc``````````cc",
"cc``````````c#acde#c``````````cc",
"cc``````````ceacceac``````````cc",
"cc``````````ceccbcec``````````cc",
"cc``````````ccecbc#c``````````cc",
"cc``````````c``cd``c``````````cc",
"cc`````````````cd`````````````cc",
"cc``````````aaecbea```````````cc",
"cc``````````cccccccc``````````cc",
"cc``````````acb##cd```````````cc",
"cc``````````ecc`acba``````````cc",
"cc`````````e.cc#cc#ba`````````cc",
"cc`````````abc`ce`cb``````````cc",
"cccccccccccccccccccccccccccccccc",
"cccccccccccccccccccccccccccccccc",
"cccccccccccccccccccccccccccccccc",
"cccccccccccccccccccccccccccccccc",
"cccccccccccccccccccccccccccccccc",
"cccccccccccccccccccccccccccccccc",
"cccccccccccccccccccccccccccccccc",
"cccccccccccccccccccccccccccccccc",
"cccccccccccccccccccccccccccccccc",
"cccccccccccccccccccccccccccccccc"
};
