/* XPM */
static char * image_name[] = {
"32 32 194 2",
"  	c #ABABABABABAB",
". 	c #A6A6A6A6A6A6",
"X 	c #A7A7A7A7A7A7",
"o 	c #A4A4A4A4A4A4",
"O 	c #A0A0A0A0A0A0",
"+ 	c #A1A1A1A1A1A1",
"@ 	c #A2A2A2A2A2A2",
"# 	c #949494949494",
"$ 	c #999999999A9A",
"% 	c #9B9B9B9B9B9B",
"& 	c #959595959595",
"* 	c #A5A5A5A5A5A5",
"= 	c #909090909090",
"- 	c #686868686868",
"; 	c #818181818181",
": 	c #A3A3A3A3A3A3",
"> 	c #9D9D9D9D9D9D",
", 	c #757575757575",
"< 	c #7E7E7E7E7E7E",
"1 	c #939393939292",
"2 	c #8E8E8E8E8E8E",
"3 	c #8A8A8A8A8A8A",
"4 	c #666666666666",
"5 	c #777777777777",
"6 	c #9F9F9F9F9F9F",
"7 	c #858585858585",
"8 	c #7A7A7A7A7A7A",
"9 	c #787878787878",
"0 	c #6D6D6A6A6F6F",
"q 	c #6A6A67676D6D",
"w 	c #6C6C6C6C6B6B",
"e 	c #6B6B6B6B6B6B",
"r 	c #7F7F7F7F7F7F",
"t 	c #767676767676",
"y 	c #898989898989",
"u 	c #8F8F8F8F8F8F",
"i 	c #696969696969",
"p 	c #737374747373",
"a 	c #70706D6D7373",
"s 	c #6D6D69697070",
"d 	c #6B6B6C6C6B6B",
"f 	c #6C6C6C6C6C6C",
"g 	c #717171717171",
"h 	c #8D8D8D8D8D8D",
"j 	c #616161616161",
"k 	c #7D7D7D7D7D7D",
"l 	c #7D7D7B7B7F7F",
"z 	c #65655E5E6A6A",
"x 	c #696969696A6A",
"c 	c #636363636363",
"v 	c #868686868686",
"b 	c #6D6D6D6D6D6D",
"n 	c #767672727979",
"m 	c #686862626D6D",
"M 	c #64645F5F6767",
"N 	c #60605D5D6363",
"B 	c #888888888888",
"V 	c #A1A1A2A2A1A1",
"C 	c #A2A2A3A3A2A2",
"Z 	c #9A9A9A9A9A9A",
"A 	c #757571717979",
"S 	c #64645A5A6A6A",
"D 	c #737373737373",
"F 	c #656562626767",
"G 	c #565651515959",
"H 	c #5D5D59595F5F",
"J 	c #868687878686",
"K 	c #909091919191",
"L 	c #9E9E9F9F9D9D",
"P 	c #A0A0A1A1A0A0",
"I 	c #93938F8F9696",
"U 	c #A2A2A2A2A1A1",
"Y 	c #9E9E9E9E9E9E",
"T 	c #797979797979",
"R 	c #6C6C6B6B6D6D",
"E 	c #666661616A6A",
"W 	c #70706B6B7373",
"Q 	c #747473737575",
"! 	c #6A6A6A6A6A6A",
"~ 	c #595956565B5B",
"^ 	c #4A4A40405252",
"/ 	c #515147475959",
"( 	c #595952525F5F",
") 	c #5D5D56566161",
"_ 	c #59594E4E6161",
"` 	c #4B4B3F3F5555",
"' 	c #63635F5F6767",
"] 	c #757576767575",
"[ 	c #6F6F6F6F6F6F",
"{ 	c #5D5D5C5C5E5E",
"} 	c #595956565C5C",
"| 	c #646462626565",
" .	c #6A6A68686A6A",
"..	c #686865656B6B",
"X.	c #60605A5A6565",
"o.	c #525248485A5A",
"O.	c #64645E5E6969",
"+.	c #6C6C68686F6F",
"@.	c #666662626868",
"#.	c #666663636969",
"$.	c #6A6A65656F6F",
"%.	c #8D8D8B8B8F8F",
"&.	c #6B6B67676E6E",
"*.	c #686868686767",
"=.	c #626262626262",
"-.	c #5A5A59595A5A",
";.	c #555552525656",
":.	c #7B7B7B7B7B7B",
">.	c #7B7B7D7D7B7B",
",.	c #6D6D6D6D6E6E",
"<.	c #71716E6E7272",
"1.	c #61615D5D6565",
"2.	c #878781818B8B",
"3.	c #A3A3A4A4A3A3",
"4.	c #9B9B9C9C9B9B",
"5.	c #8C8C8C8C8C8C",
"6.	c #6E6E6E6E6E6E",
"7.	c #5F5F60605F5F",
"8.	c #4F4F4C4C5252",
"9.	c #757574747676",
"0.	c #727271717272",
"q.	c #6C6C68686E6E",
"w.	c #6C6C69696F6F",
"e.	c #62625E5E6666",
"r.	c #8A8A88888B8B",
"t.	c #79797A7A7979",
"y.	c #72726D6D7575",
"u.	c #6E6E6B6B7070",
"i.	c #6F6F70706F6F",
"p.	c #7C7C7C7C7C7C",
"a.	c #797976767A7A",
"s.	c #78787A7A7878",
"d.	c #A4A4A4A4A3A3",
"f.	c #676764646A6A",
"g.	c #6E6E69697272",
"h.	c #747474747474",
"j.	c #636360606565",
"k.	c #818181818282",
"l.	c #979797979797",
"z.	c #707070707070",
"x.	c #7F7F7E7E8080",
"c.	c #71716E6E7474",
"v.	c #6A6A64646E6E",
"b.	c #767676767575",
"n.	c #808080808080",
"m.	c #525250505454",
"M.	c #5F5F5C5C6161",
"N.	c #6B6B68686E6E",
"B.	c #676766666969",
"V.	c #69696A6A6969",
"C.	c #515151515151",
"Z.	c #575755555959",
"A.	c #60605E5E6262",
"S.	c #70706C6C7373",
"D.	c #797979797A7A",
"F.	c #50504E4E5252",
"G.	c #585858585858",
"H.	c #A1A1A1A1A2A2",
"J.	c #676761616C6C",
"K.	c #575757575757",
"L.	c #7B7B7A7A7C7C",
"P.	c #646462626464",
"I.	c #969696969696",
"U.	c #74746F6F7878",
"Y.	c #989897979999",
"T.	c #898989898A8A",
"R.	c #9C9C9C9C9C9C",
"E.	c #989898989797",
"W.	c #757572727777",
"Q.	c #787872727B7B",
"!.	c #A3A3A3A3A2A2",
"~.	c #7A7A76767E7E",
"^.	c #979796969898",
"/.	c #878786868989",
"(.	c #73736B6B7878",
").	c #8F8F8C8C9191",
"_.	c #898986868C8C",
"`.	c #8A8A8A8A8B8B",
"'.	c #6D6D66667171",
"].	c #8B8B89898D8D",
"[.	c #83837E7E8787",
"{.	c #7E7E7C7C8080",
"}.	c #8C8C8A8A8C8C",
"|.	c #9F9FA0A09F9F",
" X	c #71716B6B7575",
".X	c #9E9E9D9D9E9E",
"XX	c #90908F8F9090",
"oX	c #9B9B9A9A9C9C",
"OX	c #8E8E8D8D8F8F",
"+X	c #737370707676",
"@X	c #898986868B8B",
"#X	c #828283838282",
"$X	c #959592929797",
"%X	c #A8A8A8A8A8A8",
"  . . . . . . . . . . X X . . . . . . . . . . . . . . . . . .   ",
"o O O O + @ O O O O O # $ + O O O O O O O O O O O O O O O O O o ",
". O O + % & O @ @ @ * = - ; : + O O O O O O O O O O O O O O O . ",
". O O + > , < = 1 1 2 3 4 5 + % 6 O O O O O O O O O O O O O O . ",
". O O O + % 7 8 9 0 q w e r t 9 y O O O O O O O O O O O O O O . ",
". O O O : u i - p a s d f - g 9 h + O O O O O O O O O O O O O . ",
". O O O @ 1 j j k l z x c 4 ; v 6 + O O O O O O O O O O O O O . ",
". O O O : % e b k n m M N j B + o @ + + + + V C O O O O O O O . ",
". O O + Z 8 b t A S , D F G H t J K L P P V Z I o U O O O O O . ",
". O + Y T b R E W Q 5 , ! ~ ^ / ( ( ) E z z _ ` n % : O O O O . ",
". O + > g F ' R t ] D [ { } |  ...X.o.` / O.+.@.#.$.I C O O O . ",
". O O @ %.&.*.=.4 - i -.;.4 e e g ] g X.E :.>.,.<.1.2.3.O O O . ",
". O O O @ 6 4.5.r 6.7.8.{ b x e D 9.&.0.q.:.8 g w.e.r.: O O O . ",
". O O O O + + : o 6 g ;.@.[ ! b t.y.&.9.u.8 8 g t 1.r.: O O O . ",
". O O O O O O O O * B -...i.e g p.a.<.a 0.T p.g s.e.v d.O O O . ",
". O O O O O O O O : 2 c f.[ b D p.a.g.g.u.T :.g h.j.k.o O O O . ",
". O O O O O O O O @ l.*.X.f.z.t < x.c.Q v.b.8 6.[ G r * O O O . ",
". O O O O O O O O O O h.' q g 8 n.n.v.g .., k f 4 m.v o O O O . ",
". O O O O O O O O O o 7 M.N.D t k :.O.b B.Q :.V.C.Z.& @ O O O . ",
". O O O O O O O O O @ = A.S.t., :.D.s 6.F.B.D G.8.M $ H.O O O . ",
". O O O O O O O O O + L F s ; T g b J.{ { K.-.c n.J.# @ O O O . ",
". O O O O O O O O O O : L.~ e z.b 6.j.P.j.y K I.+ U.Y.V O O O . ",
". O O O O O O O O O O : T.N.2 # R.E.S.W.Q.!.: @ U ~.^.V O O O . ",
". O O O O O O O O O O : /.g.6 : @ Y W.+.l O O + P (.).!.O O O . ",
". O O O O O O O O O O : _.~.P O + O A f.`.P O + L '.].: O O O . ",
". O O O O O O O O O O o [.{.O O + 6 U.}.+ O O + |. X/.@ O O O . ",
". O O O O O O O O O P + ~.k.O O + .XA XX!.O O O + oX> O O O O . ",
". O O O O O O O O O @ OXc.5.@ O + oXg.5.: O O O O + + O O O O . ",
". O O O O O O O O O P l +X1 : O @ 1 y.5.@ O O O O O O O O O O . ",
". O O O O O O O O O O Y > O O O : @Xc.#X6 O O O O O O O O O O . ",
"o O O O O O O O O O O + + O O O U $X].# O O O O O O O O O O O o ",
"  . . . . . . . . . . . . . . . . X %XX . . . . . . . . . . .   "};
