/* XPM */
static char * image_name[] = {
"32 32 246 2",
"  	c #ABABABABABAB",
". 	c #A6A6A6A6A6A6",
"X 	c #A7A7A7A7A7A7",
"o 	c #A7A7A7A7A6A6",
"O 	c #A4A4A4A4A4A4",
"+ 	c #A0A0A0A0A0A0",
"@ 	c #A1A1A1A1A1A1",
"# 	c #9F9FA0A09F9F",
"$ 	c #80807B7B8484",
"% 	c #888885858A8A",
"& 	c #A0A0A1A1A0A0",
"* 	c #9E9E9E9E9E9E",
"= 	c #7D7D7E7E7D7D",
"- 	c #696964646D6D",
"; 	c #70706D6D7272",
": 	c #7F7F80807F7F",
"> 	c #9F9F9F9F9F9F",
", 	c #A2A2A2A2A2A2",
"< 	c #919191919191",
"1 	c #717172727171",
"2 	c #71716B6B7676",
"3 	c #767673737979",
"4 	c #707071717070",
"5 	c #959595959595",
"6 	c #929292929292",
"7 	c #6B6B6C6C6A6A",
"8 	c #676760606D6D",
"9 	c #6F6F6B6B7272",
"0 	c #6A6A6A6A6969",
"q 	c #979797979797",
"w 	c #9C9C9C9C9C9C",
"e 	c #676768686666",
"r 	c #4F4F47475555",
"t 	c #585853535B5B",
"y 	c #6B6B6B6B6A6A",
"u 	c #828283838282",
"i 	c #595955555D5D",
"p 	c #5F5F5E5E6161",
"a 	c #838383838383",
"s 	c #959596969595",
"d 	c #62625E5E6565",
"f 	c #666663636767",
"g 	c #979797979696",
"h 	c #A4A4A5A5A5A5",
"j 	c #757572727878",
"k 	c #7B7B79797B7B",
"l 	c #A2A2A3A3A2A2",
"z 	c #A3A3A3A3A3A3",
"x 	c #A1A1A2A2A1A1",
"c 	c #A2A2A2A2A1A1",
"v 	c #A3A3A3A3A2A2",
"b 	c #A0A0A0A09F9F",
"n 	c #6A6A66666D6D",
"m 	c #6D6D6A6A6F6F",
"M 	c #969696969696",
"N 	c #9D9D9E9E9D9D",
"B 	c #A3A3A4A4A3A3",
"V 	c #9E9E9D9D9E9E",
"C 	c #939391919494",
"Z 	c #8E8E8D8D9090",
"A 	c #8A8A87878B8B",
"S 	c #8A8A87878C8C",
"D 	c #8B8B88888D8D",
"F 	c #989896969999",
"G 	c #979795959A9A",
"H 	c #969693939898",
"J 	c #92928E8E9595",
"K 	c #8F8F8B8B9292",
"L 	c #73736F6F7676",
"P 	c #787875757B7B",
"I 	c #6D6D69697171",
"U 	c #6D6D6C6C6D6D",
"Y 	c #636360606666",
"T 	c #666664646868",
"R 	c #6D6D6C6C6E6E",
"E 	c #6C6C68687070",
"W 	c #797977777B7B",
"Q 	c #70706C6C7474",
"! 	c #8C8C88888F8F",
"~ 	c #8C8C87878F8F",
"^ 	c #8D8D88889191",
"/ 	c #8F8F8A8A9292",
"( 	c #91918E8E9494",
") 	c #90908D8D9191",
"_ 	c #858583838787",
"` 	c #868683838888",
"' 	c #919190909292",
"] 	c #969695959797",
"[ 	c #A0A09F9FA1A1",
"{ 	c #72726A6A7777",
"} 	c #636355556E6E",
"| 	c #6F6F67677777",
" .	c #6B6B60607373",
"..	c #66665C5C6D6D",
"X.	c #62625A5A6868",
"o.	c #73736D6D7777",
"O.	c #707067677878",
"+.	c #717167677878",
"@.	c #75756C6C7B7B",
"#.	c #6D6D66667474",
"$.	c #5B5B52526161",
"%.	c #53534F4F5757",
"&.	c #52524B4B5757",
"*.	c #6B6B63637171",
"=.	c #5B5B57575F5F",
"-.	c #5D5D58586161",
";.	c #696960607070",
":.	c #505047475656",
">.	c #565651515A5A",
",.	c #5E5E55556464",
"<.	c #6F6F67677676",
"1.	c #73736B6B7979",
"2.	c #76766E6E7D7D",
"3.	c #737369697A7A",
"4.	c #6E6E63637777",
"5.	c #74746C6C7A7A",
"6.	c #686862626D6D",
"7.	c #75756F6F7A7A",
"8.	c #84847E7E8787",
"9.	c #A3A3A2A2A3A3",
"0.	c #9A9A9A9A9999",
"q.	c #9E9E9F9F9E9E",
"w.	c #A1A1A2A2A0A0",
"e.	c #A2A2A3A3A1A1",
"r.	c #636364646363",
"t.	c #6B6B6C6C6B6B",
"y.	c #7B7B7A7A7B7B",
"u.	c #646461616767",
"i.	c #666663636868",
"p.	c #7C7C7B7B7C7C",
"a.	c #6C6C6C6C6C6C",
"s.	c #626263636262",
"d.	c #959596969494",
"f.	c #A3A3A4A4A2A2",
"g.	c #A4A4A5A5A3A3",
"h.	c #A3A3A5A5A2A2",
"j.	c #9C9C9D9D9C9C",
"k.	c #A2A2A1A1A2A2",
"l.	c #A5A5A5A5A5A5",
"z.	c #6F6F6F6F6F6F",
"x.	c #696969696969",
"c.	c #7E7E7E7E7D7D",
"v.	c #6B6B68686D6D",
"b.	c #6B6B69696D6D",
"n.	c #7D7D7D7D7D7D",
"m.	c #6B6B6B6B6B6B",
"M.	c #A6A6A7A7A6A6",
"N.	c #9D9D9D9D9D9D",
"B.	c #757575757575",
"V.	c #747474747474",
"C.	c #8B8B8B8B8A8A",
"Z.	c #666665656868",
"A.	c #6B6B6A6A6C6C",
"S.	c #898989898989",
"D.	c #777777777777",
"F.	c #9A9A9A9A9A9A",
"G.	c #7A7A7A7A7A7A",
"H.	c #8A8A8A8A8A8A",
"J.	c #5E5E5A5A6161",
"K.	c #646462626666",
"L.	c #888888888787",
"P.	c #8B8B8B8B8B8B",
"I.	c #9B9B9B9B9B9B",
"U.	c #7B7B7B7B7B7B",
"Y.	c #818181818181",
"T.	c #808081818080",
"R.	c #63635D5D6767",
"E.	c #676764646969",
"W.	c #7C7C7C7C7C7C",
"Q.	c #888889898787",
"!.	c #6D6D69696F6F",
"~.	c #868687878686",
"^.	c #808080808080",
"/.	c #979798989797",
"(.	c #62625E5E6666",
").	c #6B6B68686C6C",
"_.	c #959595959494",
"`.	c #9C9C9C9C9B9B",
"'.	c #666662626A6A",
"].	c #6E6E6B6B7070",
"[.	c #9E9E9E9E9D9D",
"{.	c #696963636D6D",
"}.	c #71716E6E7474",
"|.	c #949494949494",
" X	c #888888888888",
".X	c #868687878585",
"XX	c #64645E5E6969",
"oX	c #6E6E6A6A7171",
"OX	c #878788888787",
"+X	c #707071716F6F",
"@X	c #585851515F5F",
"#X	c #60605B5B6363",
"$X	c #828282828282",
"%X	c #787878787878",
"&X	c #7F7F81817F7F",
"*X	c #727272727171",
"=X	c #4F4F40405B5B",
"-X	c #56564A4A5E5E",
";X	c #7A7A7A7A7878",
":X	c #7C7C7D7D7C7C",
">X	c #7E7E7D7D7E7E",
",X	c #939394949292",
"<X	c #6E6E65657474",
"1X	c #7D7D7A7A8181",
"2X	c #7B7B76767F7F",
"3X	c #6A6A62627171",
"4X	c #757573737777",
"5X	c #9A9A9B9B9A9A",
"6X	c #878784848A8A",
"7X	c #666663636969",
"8X	c #919192929191",
"9X	c #5A5A55555E5E",
"0X	c #64645D5D6A6A",
"qX	c #91918F8F9393",
"wX	c #A1A1A1A1A0A0",
"eX	c #848482828686",
"rX	c #626259596969",
"tX	c #858585858585",
"yX	c #747475757474",
"uX	c #6E6E6E6E6E6E",
"iX	c #7E7E7F7F7D7D",
"pX	c #81817E7E8282",
"aX	c #626258586969",
"sX	c #939392929393",
"dX	c #8C8C8A8A8E8E",
"fX	c #686860606E6E",
"gX	c #999999999999",
"hX	c #868686868686",
"jX	c #8D8D8C8C8E8E",
"kX	c #959593939797",
"lX	c #6C6C64647373",
"zX	c #91918F8F9191",
"xX	c #707068687676",
"cX	c #9F9F9E9E9F9F",
"vX	c #949492929696",
"bX	c #6E6E66667474",
"nX	c #91918F8F9292",
"mX	c #76766F6F7B7B",
"MX	c #6E6E67677575",
"NX	c #8F8F8E8E9191",
"BX	c #9D9D9A9A9E9E",
"VX	c #777770707D7D",
"CX	c #A8A8A8A8A7A7",
"ZX	c #939391919595",
"AX	c #7E7E77778484",
"SX	c #A9A9A9A9A7A7",
"  . . . . . . . . . . . . . X X X o . . . . . . . . . . . . .   ",
"O + + + + + + + + + + + + @ # $ % & @ + + + + + + + + + + + + O ",
". + + + + + + + + + + + @ * = - ; : > + + + + + + + + + + + + . ",
". + + + + + + + + + + + , < 1 2 3 4 5 , + + + + + + + + + + + . ",
". + + + + + + + + + + + , 6 7 8 9 0 q , + + + + + + + + + + + . ",
". + + + + + + + + + + + @ w e r t y * @ + + + + + + + + + + + . ",
". + + + + + + + + + + + + @ u i p a , + + + + + + + + + + + + . ",
". + + + + + + + + + + + + , s d f g , + + + + + + + + + + + + . ",
". + + + + + + + + + + + @ @ h j k O @ @ @ + + + + + + + + + + . ",
"X , l z z z x x c , v c b & g n m M # N & v v l l , l B B , x X ",
"V C Z A S D F G H J K L P I U Y T R E W Q ! ~ ^ / ( ) _ ` ' ] [ ",
"{ } |  ...X.o.O.+.@.#.$.%.&.*.=.-.;.:.>.,.<.1.2.3.4.5.6.8 7.O.8.",
"9.V > x + 0.q.w.e.e.@ s r.t.y.u.i.p.a.s.d.e.f.g.f.h.e.j.> k., l.",
"X @ @ & @ @ @ + + + , @ z.x.c.v.b.n.m.a.> x + + + + + @ @ + + M.",
". + + + + + + + + + @ N.B.V.C.Z.A.S.D.V.F.@ + + + + + + + + + . ",
". + + + + + + + + + @ w G.H.S.J.K.L.P.G.I.@ + + + + + + + + + . ",
". + + + + + + + + + @ N.U.Y.T.R.E.T.Y.G.* @ + + + + + + + + + . ",
". + + + + + + + + + @ * W.U.Q.6.!.~.U.W.* @ + + + + + + + + + . ",
". + + + + + + + + + + + ^.S./.(.)._.Y.a , + + + + + + + + + + . ",
". + + + + + + + + + + + I.@ `.'.].[.w q @ + + + + + + + + + + . ",
". + + + + + + + + + + + , , `.{.}.N z , + + + + + + + + + + + . ",
". + + + + + + + + + + @ |. X.XXXoXOXS.F.@ + + + + + + + + + + . ",
". + + + + + + + + + @ N.W.W.+X@X#XV.W.$X+ + + + + + + + + + + . ",
". + + + + + + + + + @ I.%X&X*X=X-X;X:X>X+ + + + + + + + + + + . ",
". + + + + + + + + + + , ,XoX<X1X2X3X4X5X, + + + + + + + + + + . ",
". + + + + + + + + + @ * 6X$.7X0.8X9X0XqX+ wX+ + + + + + + + + . ",
". + + + + + + + + + z eXrXtXyXB.uXiXpXaXsX, + + + + + + + + + . ",
". + + + + + + + + + v dXfXI.gXhXtXx jX..F.@ + + + + + + + + + . ",
". + + + + + + + + + , kXlXN., z z z zXxXcX@ + + + + + + + + + . ",
". + + + + + + + + + , vXbXw.@ + + , nXmX+ wX+ + + + + + + + + . ",
"O + + + + + + + + + , vXMXw.@ + + l NXmX@ + + + + + + + + + + O ",
"  . . . . . . . . . X BXVXo X . . CXZXAXSX. . . . . . . . . .   "};
