/* XPM */
static char * image_name[] = {
"32 32 216 2",
"  	c #ABABABABABAB",
". 	c #A4A4A4A4A4A4",
"X 	c #A6A6A6A6A6A6",
"o 	c #A7A7A7A7A6A6",
"O 	c #A7A7A6A6A6A6",
"+ 	c #A7A7A7A7A7A7",
"@ 	c #A1A1A1A1A1A1",
"# 	c #A4A4A5A5A3A3",
"$ 	c #A6A6A7A7A4A4",
"% 	c #A2A2A3A3A2A2",
"& 	c #A2A2A2A2A1A1",
"* 	c #A0A0A0A0A1A1",
"= 	c #A2A2A1A1A2A2",
"- 	c #A5A5A6A6A4A4",
"; 	c #A2A2A2A2A2A2",
": 	c #A0A0A0A0A0A0",
"> 	c #9F9F9F9F9F9F",
", 	c #9F9F9F9FA0A0",
"< 	c #9A9A99999B9B",
"1 	c #93938F8F9696",
"2 	c #8D8D87879292",
"3 	c #9C9C9B9B9D9D",
"4 	c #90908C8C9494",
"5 	c #82827A7A8888",
"6 	c #8C8C87878F8F",
"7 	c #92928E8E9595",
"8 	c #A1A1A2A2A1A1",
"9 	c #A3A3A3A3A3A3",
"0 	c #A0A09F9FA0A0",
"q 	c #A3A3A4A4A3A3",
"w 	c #A4A4A4A4A2A2",
"e 	c #9E9E9E9E9E9E",
"r 	c #868681818C8C",
"t 	c #898983838D8D",
"y 	c #7D7D76768282",
"u 	c #898985858D8D",
"i 	c #84847C7C8888",
"p 	c #8D8D89899191",
"a 	c #999997979A9A",
"s 	c #969692929898",
"d 	c #999997979B9B",
"f 	c #A4A4A4A4A3A3",
"g 	c #A2A2A3A3A1A1",
"h 	c #A1A1A1A1A0A0",
"j 	c #9B9B9A9A9D9D",
"k 	c #989896969A9A",
"l 	c #8B8B85858E8E",
"z 	c #83837C7C8888",
"x 	c #8A8A87878D8D",
"c 	c #90908F8F9191",
"v 	c #A5A5A5A5A5A5",
"b 	c #9D9D9C9C9E9E",
"n 	c #8E8E8A8A9090",
"m 	c #898986868B8B",
"M 	c #8C8C89898E8E",
"N 	c #85857F7F8A8A",
"B 	c #8B8B87878F8F",
"V 	c #8E8E89899191",
"C 	c #979795959999",
"Z 	c #9D9D9D9D9F9F",
"A 	c #A7A7A8A8A7A7",
"S 	c #939391919595",
"D 	c #8C8C88889090",
"F 	c #858581818989",
"G 	c #91918F8F9393",
"H 	c #949492929595",
"J 	c #949492929494",
"K 	c #959595959595",
"L 	c #90908E8E9292",
"P 	c #8F8F8D8D9191",
"I 	c #939393939393",
"U 	c #83837E7E8686",
"Y 	c #949495959494",
"T 	c #8E8E8C8C9090",
"R 	c #8D8D8B8B8F8F",
"E 	c #868682828A8A",
"W 	c #878782828B8B",
"Q 	c #91918E8E9494",
"! 	c #959593939797",
"~ 	c #A4A4A3A3A4A4",
"^ 	c #A0A09F9FA2A2",
"/ 	c #949492929696",
"( 	c #8A8A87878C8C",
") 	c #888883838B8B",
"_ 	c #9A9A9B9B9999",
"` 	c #8F8F8B8B9191",
"' 	c #989899999797",
"] 	c #8C8C8C8C8C8C",
"[ 	c #7B7B7A7A7D7D",
"{ 	c #909090909090",
"} 	c #969697979494",
"| 	c #8A8A88888D8D",
" .	c #8D8D8C8C8F8F",
"..	c #98989A9A9797",
"X.	c #929292929393",
"o.	c #9C9C99999D9D",
"O.	c #949491919494",
"+.	c #979796969898",
"@.	c #959595959696",
"#.	c #8F8F8E8E9191",
"$.	c #979796969797",
"%.	c #9A9A9C9C9A9A",
"&.	c #79797A7A7979",
"*.	c #6F6F6D6D7171",
"=.	c #757574747777",
"-.	c #8B8B8B8B8C8C",
";.	c #969696969595",
":.	c #919191919191",
">.	c #929291919393",
",.	c #939394949393",
"<.	c #8E8E8E8E8F8F",
"1.	c #949494949494",
"2.	c #A3A3A3A3A4A4",
"3.	c #9D9D9D9D9D9D",
"4.	c #989898989898",
"5.	c #99999A9A9999",
"6.	c #969696969696",
"7.	c #949494949696",
"8.	c #6E6E6E6E6E6E",
"9.	c #777775757A7A",
"0.	c #7C7C7B7B7D7D",
"q.	c #7C7C78787E7E",
"w.	c #8A8A88888C8C",
"e.	c #949493939494",
"r.	c #91918E8E9393",
"t.	c #9E9E9F9F9E9E",
"y.	c #8D8D8D8D8D8D",
"u.	c #717171717070",
"i.	c #7B7B76767F7F",
"p.	c #747470707878",
"a.	c #929292929292",
"s.	c #9E9E9E9E9D9D",
"d.	c #9B9B9B9B9B9B",
"f.	c #777771717A7A",
"g.	c #727272727474",
"h.	c #7E7E7A7A8282",
"j.	c #9A9A9A9A9B9B",
"k.	c #9F9FA0A09F9F",
"l.	c #7E7E7E7E7E7E",
"z.	c #61615F5F6464",
"x.	c #62625E5E6565",
"c.	c #868683838888",
"v.	c #9B9B9C9C9B9B",
"b.	c #646464646464",
"n.	c #686863636C6C",
"m.	c #848484848484",
"M.	c #787877777979",
"N.	c #7D7D7C7C7D7D",
"B.	c #7C7C78788080",
"V.	c #7E7E7E7E7F7F",
"C.	c #8A8A89898B8B",
"Z.	c #9C9C9C9C9C9C",
"A.	c #747472727676",
"S.	c #83837F7F8686",
"D.	c #7C7C7A7A7E7E",
"F.	c #878786868787",
"G.	c #818181818282",
"H.	c #878785858989",
"J.	c #80807B7B8484",
"K.	c #8C8C8B8B8D8D",
"L.	c #7F7F7E7E8181",
"P.	c #8F8F90908F8F",
"I.	c #797977777B7B",
"U.	c #828281818383",
"Y.	c #747473737373",
"T.	c #7C7C7A7A7D7D",
"R.	c #999999999999",
"E.	c #9D9D9E9E9D9D",
"W.	c #6F6F6E6E7171",
"Q.	c #80807A7A8383",
"!.	c #7D7D7B7B7E7E",
"~.	c #868682828989",
"^.	c #767673737979",
"/.	c #878786868888",
"(.	c #6A6A65656D6D",
").	c #757573737777",
"_.	c #7B7B79797C7C",
"`.	c #868685858686",
"'.	c #A8A8A8A8A8A8",
"].	c #71716E6E7373",
"[.	c #5E5E5A5A6161",
"{.	c #7E7E7D7D7E7E",
"}.	c #7E7E78788282",
"|.	c #848482828686",
" X	c #777775757979",
".X	c #5B5B58585F5F",
"XX	c #919192929191",
"oX	c #646461616565",
"OX	c #7F7F7A7A8282",
"+X	c #838381818585",
"@X	c #767674747878",
"#X	c #7A7A79797B7B",
"$X	c #50504D4D5252",
"%X	c #8C8C8D8D8C8C",
"&X	c #7C7C7A7A7C7C",
"*X	c #787872727C7C",
"=X	c #686866666969",
"-X	c #7C7C79798080",
";X	c #797972727D7D",
":X	c #80807E7E8282",
">X	c #6C6C67676F6F",
",X	c #7D7D79797F7F",
"<X	c #9A9A9A9A9999",
"1X	c #737373737474",
"2X	c #828280808484",
"3X	c #73736F6F7676",
"4X	c #646460606868",
"5X	c #A0A0A0A09F9F",
"6X	c #7A7A77777D7D",
"7X	c #969695959696",
"8X	c #9C9C9C9C9B9B",
"9X	c #646460606666",
"0X	c #81817E7E8383",
"qX	c #9C9C9B9B9C9C",
"wX	c #7A7A76767C7C",
"eX	c #7C7C77777F7F",
"  . X X X X X X X X X X X X X X X o O X X X X X X X X X X X .   ",
"+ @ @ @ @ @ @ @ @ @ # $ % & @ @ % * = - ; @ @ @ @ @ @ @ @ @ @ + ",
"X : : : : > , : % - < 1 2 3 : ; 4 5 6 7 , 8 # 9 @ @ , > 0 : : X ",
"X : : * 8 q w % e 2 5 r r 1 ; : t y u i p a s d , * f # g h h X ",
"o & % @ 0 j k 1 l 5 z x c 1 v b n x m M N M 6 B V 4 C d Z : @ A ",
"O > 3 C S D N z F G H J K L & e P I U Y T m P R E E W l Q ! d ~ ",
"^ / V u E ( ) P _ S ` ' ] [ { 3 x } m | }  .x I ' ..X.X.T D Q o.",
"C O.+.@.#.n $.%.! n $.Y &.*.=.-.W ;.:.E >.,.<.( 1.> @ @ 8 8 : 2.",
"X h 3.G >.4.5.6.L 7.6.{ 8.9.0.q.B K I w.R Y K e.r.> : : : : : X ",
"o h b 3 t.e t.< a 4.I y.u.i.[ p.` Y a.@.k s.> t.b 0 : : : : : X ",
"X : > : @ : : 0 : e d.a.&.f.g.h.>.6.j.k.: h @ @ @ : : : : : : X ",
"X : : : : : : @ @ @ @ e l.z.x.c.v.3.@ @ @ : : : : : : : : : : X ",
"X : : : : : : : : : @ X l.b.n.m.v.. @ : : : : : : : : : : : : X ",
"X : : : : : : : : : ; 4.M.N.B.V.C.Z.@ : : : : : : : : : : : : X ",
"X : : : : : : : : @ : M.A.S.y h.D.F.> @ : : : : : : : : : : : X ",
"X : : : : : : : : 9 :.x.G.H.J.K.L.9.P.; : : : : : : : : : : : X ",
"X : : : : : : : : ; N.z.I.U y U.Y.=.T.R.; : : : : : : : : : : X ",
"X : : : : : : : @ E.*.W.T.Q.F !.G.m.A.U.Z.@ : : : : : : : : : X ",
"X : : : : : : : @ Z.*.L.!.S.~.^./.t.F.A.-.9 : : : : : : : : : X ",
"X : : : : : : : @ > (.)._.y ~.M.`.'.I ].-.; : : : : : : : : : X ",
"X : : : : : : : ; 4.[.W.{.}.|. XU.+ m..XXX; : : : : : : : : : X ",
"X : : : : : : : 9 y.oXU.G.OX+X@XH.+ #X$X%X9 : : : : : : : : : X ",
"X : : : : : : : ; X.!.e.&X*XS.N.%Xv /.=Xy.9 : : : : : : : : : X ",
"X : : : : : : : 8 k -XG  X|.;XI.+Xv :X#Xk.@ : : : : : : : : : X ",
"X : : : : : : : q B |.3.[ f.>X XC.q *XR 9 : : : : : : : : : : X ",
"X : : : : : : @ Z.,XK <X].n.1X].#.9 2XV % : : : : : : : : : : X ",
"X : : : : : : : Z.G : <X=X3XG.4X1.X c ~.@ : : : : : : : : : : X ",
"X : : : : : : : 5X@ % s.8.6X:.[.7X< 3.K.e : : : : : : : : : : X ",
"X : : : : : : : @ @ : & :XD.8X9X0XP 9 qXe : : : : : : : : : : X ",
"X : : : : : : : : : : 9 ] _.s.].wX+.@ % : : : : : : : : : : : X ",
"+ @ @ @ @ @ @ @ @ @ @ .  .^.E.[ j.. @ @ @ @ @ @ @ @ @ @ @ @ @ + ",
"  . X X X X X X X X X A 7XeXq :XqX+ X X X X X X X X X X X X .   "};
