/* XPM */
static char * image_name[] = {
"32 32 224 2",
"  	c #ABABABABABAB",
". 	c #A6A6A6A6A6A6",
"X 	c #A7A7A7A7A7A7",
"o 	c #A4A4A4A4A4A4",
"O 	c #A0A0A0A0A0A0",
"+ 	c #A0A0A1A1A0A0",
"@ 	c #9D9D9C9C9D9D",
"# 	c #A2A2A3A3A2A2",
"$ 	c #A1A1A1A1A1A1",
"% 	c #A1A1A2A2A1A1",
"& 	c #82827D7D8585",
"* 	c #80807A7A8484",
"= 	c #8C8C87879090",
"- 	c #9C9C9B9B9C9C",
"; 	c #9C9C9C9C9C9C",
": 	c #777774747979",
"> 	c #92928F8F9595",
", 	c #939390909696",
"< 	c #A3A3A3A3A2A2",
"1 	c #91918F8F9292",
"2 	c #686865656B6B",
"3 	c #9F9F9F9F9F9F",
"4 	c #848482828686",
"5 	c #6E6E6A6A7272",
"6 	c #9B9B9C9C9B9B",
"7 	c #A2A2A2A2A2A2",
"8 	c #A3A3A3A3A3A3",
"9 	c #909090908F8F",
"0 	c #777776767878",
"q 	c #767672727979",
"w 	c #828283838282",
"e 	c #9E9E9E9E9E9E",
"r 	c #A2A2A2A2A1A1",
"t 	c #838381818585",
"y 	c #81817E7E8282",
"u 	c #7F7F7F7F7F7F",
"i 	c #949494949393",
"p 	c #A5A5A5A5A5A5",
"a 	c #A0A0A1A1A1A1",
"s 	c #9C9C9D9D9C9C",
"d 	c #7A7A78787C7C",
"f 	c #797975757C7C",
"g 	c #797977777B7B",
"h 	c #8A8A88888B8B",
"j 	c #82827E7E8686",
"k 	c #868686868686",
"l 	c #8D8D8B8B8F8F",
"z 	c #8B8B87878E8E",
"x 	c #9F9F9F9FA0A0",
"c 	c #979796969898",
"v 	c #7D7D76768282",
"b 	c #8E8E8E8E8E8E",
"n 	c #797978787A7A",
"m 	c #737371717575",
"M 	c #7B7B74748080",
"N 	c #717165657979",
"B 	c #7B7B77777D7D",
"V 	c #666662626A6A",
"C 	c #70706C6C7474",
"Z 	c #787875757A7A",
"A 	c #8B8B85859090",
"S 	c #959592929898",
"D 	c #A5A5A6A6A5A5",
"F 	c #9B9B9B9B9A9A",
"G 	c #7D7D7D7D7D7D",
"H 	c #7D7D79798181",
"J 	c #7C7C77778181",
"K 	c #808080808080",
"L 	c #898989898989",
"P 	c #A3A3A4A4A2A2",
"I 	c #9E9E9D9D9E9E",
"U 	c #9B9B9B9B9C9C",
"Y 	c #9D9D9D9D9D9D",
"T 	c #737373737373",
"R 	c #6B6B67676E6E",
"E 	c #828281818383",
"W 	c #969696969696",
"Q 	c #717171717171",
"! 	c #6C6C6B6B6C6C",
"~ 	c #707070707070",
"^ 	c #939393939393",
"/ 	c #7C7C7C7C7C7C",
"( 	c #7A7A79797B7B",
") 	c #858585858585",
"_ 	c #787877777979",
"` 	c #7C7C7D7D7C7C",
"' 	c #848484848484",
"] 	c #9C9C9B9B9B9B",
"[ 	c #626260606464",
"{ 	c #84847F7F8686",
"} 	c #797973737F7F",
"| 	c #7B7B76767E7E",
" .	c #78787A7A7A7A",
"..	c #7E7E7E7E7E7E",
"X.	c #70706F6F7171",
"o.	c #5A5A54546060",
"O.	c #929293939191",
"+.	c #8F8F8F8F9090",
"@.	c #858583838989",
"#.	c #8B8B8B8B8C8C",
"$.	c #75756F6F7979",
"%.	c #777771718181",
"&.	c #7B7B7B7B7B7B",
"*.	c #646461616666",
"=.	c #696966666B6B",
"-.	c #7C7C7B7B7D7D",
";.	c #787878787979",
":.	c #73736A6A7B7B",
">.	c #888886868A8A",
",.	c #888888888888",
"<.	c #77777A7A7777",
"1.	c #83837A7A8888",
"2.	c #727274747272",
"3.	c #9D9D9E9E9D9D",
"4.	c #676764646A6A",
"5.	c #7E7E7D7D7E7E",
"6.	c #A0A09E9EA0A0",
"7.	c #969693939696",
"8.	c #8A8A88888C8C",
"9.	c #878785858989",
"0.	c #767674747878",
"q.	c #7F7F7F7F8080",
"w.	c #5F5F82826565",
"e.	c #52528F8F5151",
"r.	c #89898B8B8989",
"t.	c #6F6F6D6D7272",
"y.	c #9C9C9A9A9E9E",
"u.	c #929291919292",
"i.	c #6E6E6A6A7171",
"p.	c #73736B6B7979",
"a.	c #72726C6C7B7B",
"s.	c #848483838585",
"d.	c #767676767777",
"f.	c #959595959595",
"g.	c #84849A9A8B8B",
"h.	c #5F5F77776060",
"j.	c #999999999999",
"k.	c #757573737676",
"l.	c #70706D6D7373",
"z.	c #989896969A9A",
"x.	c #8D8D8D8D8D8D",
"c.	c #7B7B78787F7F",
"v.	c #828280808484",
"b.	c #9C9CACACA3A3",
"n.	c #81818F8F8484",
"m.	c #7A7A6C6C7A7A",
"M.	c #7E7E6B6B7F7F",
"N.	c #8D8D8E8E8D8D",
"B.	c #6A6A66666E6E",
"V.	c #969695959696",
"C.	c #7E7E79798484",
"Z.	c #797988887C7C",
"A.	c #7C7C5F5F7D7D",
"S.	c #7D7D70707E7E",
"D.	c #9C9C9E9E9C9C",
"F.	c #949494949494",
"G.	c #6B6B66666E6E",
"H.	c #989898989898",
"J.	c #717170707272",
"K.	c #72726F6F7474",
"L.	c #797973737D7D",
"P.	c #898987878A8A",
"I.	c #6B6B73736B6B",
"U.	c #7C7C69697979",
"Y.	c #A3A3A3A3A4A4",
"T.	c #A1A1A3A3A3A3",
"R.	c #A2A2A6A6A6A6",
"E.	c #6E6E6C6C7070",
"W.	c #6B6B6C6C6B6B",
"Q.	c #89898A8A8787",
"!.	c #888887878484",
"~.	c #949498987F7F",
"^.	c #7F7F7E7E6F6F",
"/.	c #737366666868",
"(.	c #A1A199999999",
").	c #96967F7F7F7F",
"_.	c #969661616161",
"`.	c #979796969595",
"'.	c #A1A1A2A2A2A2",
"].	c #595959595959",
"[.	c #696968686A6A",
"{.	c #747471717777",
"}.	c #67675C5C6F6F",
"|.	c #70706A6A7575",
" X	c #656565656666",
".X	c #707070706E6E",
"XX	c #929291918484",
"oX	c #60605E5E8B8B",
"OX	c #93939191A1A1",
"+X	c #A2A2A0A09E9E",
"@X	c #999987878787",
"#X	c #5F5F5D5D6161",
"$X	c #60605B5B6363",
"%X	c #64645F5F6868",
"&X	c #62625E5E6565",
"*X	c #585855555A5A",
"=X	c #7D7D7D7D7A7A",
"-X	c #9B9B9C9C9696",
";X	c #A1A1A1A19D9D",
":X	c #9A9A99999B9B",
">X	c #9A9A9A9A9999",
",X	c #686869696767",
"<X	c #595955555D5D",
"1X	c #666665656666",
"2X	c #60605E5E6262",
"3X	c #9A9A9A9A9A9A",
"4X	c #8F8F8F8F8F8F",
"5X	c #646460606666",
"6X	c #707070706F6F",
"7X	c #6E6E6C6C6F6F",
"8X	c #8F8F90908F8F",
"9X	c #71716E6E7373",
"0X	c #70706E6E7272",
"qX	c #7B7B78787D7D",
"wX	c #949493939595",
"eX	c #787876767A7A",
"rX	c #9C9C9B9B9D9D",
"tX	c #9A9A97979B9B",
"yX	c #565650505B5B",
"uX	c #A8A8A8A8A8A8",
"iX	c #848481818585",
"pX	c #9E9E9B9BA0A0",
"aX	c #A7A7A8A8A7A7",
"sX	c #979797979797",
"  . . . . . . . . . . . . . . . X X . . . . . . . . . . . . .   ",
"o O O O O O O O O O O O O O O + @ @ # $ O O O O O O O O O O O o ",
". O O O O O O O O O O O O O O % & * = - $ O O O O O O O O O O . ",
". O O O O O O O O O O O O O $ ; : - > , % O O O O O O O O O O . ",
". O O O O O O O O O O O O O < 1 2 3 < % O O O O O O O O O O O . ",
". O O O O O O O O O O O O O < 4 5 6 7 O O O O O O O O O O O O . ",
". O O O O O O O O O O O O 8 9 0 q w e $ O O O O O O O O O O O . ",
". O O O O O O O O O O r + 3 w t y u i p 8 < r O O O O O O O O . ",
". O O O O O O O O a s d f 5 g h j k g h l z , x % O O O O O O . ",
". O O O O O O O O % c v b n m M N B V C Z l A z c $ O O O O O . ",
". O O O O O O O O r > S D F G H J K L + 7 # P I @ O O O O O O . ",
". O O O O O O O O r 1 U 8 Y T R E G W 7 O O O + O O O O O O O . ",
". O O O O O O O O O O 8 ; w Q 2 ! ~ Y 7 O O O O O O O O O O O . ",
". O O O O O O O O 7 8 ^ / ( ) q _ ` ' ] 7 O O O O O O O O O O . ",
". O O O O O O $ 7 F L [ 5 H { } j | :  .F 7 O O O O O O O O O . ",
". O O O O O $ 3 ..X.V o.( O.+.@.O.#.$.%.&.e $ O O O O O O O O . ",
". O O O O O $ s *.=.-._ ;.t v :.>.,.<.1.2.) 7 $ O O O O O O O . ",
". O O O O O $ 3.4.5.6.7.0 ,.8.j 9.0.q.w.e.* r.8 O O O O O O O . ",
". O O O O O $ s t.B y.u.i.J p.a.s.d.f.g.h.1.;.W 7 O O O O O O . ",
". O O O O O 7 j.k.l.z.x.T >.c.4 v.m u.b.n.m.M.N.7 O O O O O O . ",
". O O O O O 7 W n B.V.E d.>.C.9.k ;.^ b.Z.A.S.D.$ O O O O O O . ",
". O O O O O 7 F.X.G.H.J.K.f p.L.f i.P.g.I.U.r.Y.T.R.$ O O O O . ",
". O O O O O $ + q.E.6 W.&.Q.v.k ) d.!.~.^./.1 (.)._.`.'.O O O . ",
". O O O O O O D : y x.].[.{.}.|.m  X.X.XXXoXOX+X7.@XY a O O O . ",
". O O O O O 7 1 C H.) #X$XE.%X4.&X*X X=X-X;Xa O '.T.O O O O O . ",
". O O O O O + z :X>Xx.Q ,X( <X=.d.1Xs.' ) ^ < O O O O O O O O . ",
". O O O O O O # 8 ^ b w #XV &.( G.2XL x.3XY $ O O O O O O O O . ",
". O O O O O O O O 3X4Xu.5X2 6XT 7X$XE.x.$ O O O O O O O O O O . ",
". O O O O O O O O $ H.8X9Xm L ` t G 4.d % $ O O O O O O O O O . ",
". O O O O O O O O $ O O.0XqX:XF wXf.x.eXy e $ O O O O O O O O . ",
"o O O O O O O O O O 7 wX{.u.7.s rXtXu.0.yXl 8 O O O O O O O O o ",
"  . . . . . . . . . uXV.iXY.pXaXsX} l.m E 8 X . . . . . . . .   "};
