/* XPM */
static char * image_name[] = {
"32 31 206 2",
"  	c #ACACACACACAC",
". 	c #A4A4A4A4A4A4",
"X 	c #A6A6A6A6A6A6",
"o 	c #A7A7A7A7A7A7",
"O 	c #AAAAABABAAAA",
"+ 	c #A0A0A0A0A0A0",
"@ 	c #A2A2A2A2A2A2",
"# 	c #A0A09F9FA0A0",
"$ 	c #919191919191",
"% 	c #A3A3A3A3A3A3",
"& 	c #969696969696",
"* 	c #7B7B7A7A7D7D",
"= 	c #767673737979",
"- 	c #989898989797",
"; 	c #A1A1A1A1A1A1",
": 	c #7E7E7F7F7E7E",
"> 	c #9F9F9F9F9F9F",
", 	c #797979797979",
"< 	c #717171717272",
"1 	c #696964646D6D",
"2 	c #7A7A7A7A7B7B",
"3 	c #A0A0A0A09F9F",
"4 	c #9B9B9B9B9B9B",
"5 	c #9D9D9D9D9D9D",
"6 	c #727272727272",
"7 	c #707071717171",
"8 	c #61615C5C6565",
"9 	c #767676767777",
"0 	c #9E9E9E9E9E9E",
"q 	c #7F7F7D7D8181",
"w 	c #959595959595",
"e 	c #565652525959",
"r 	c #55554E4E5A5A",
"t 	c #8B8B8A8A8D8D",
"y 	c #7F7F80807F7F",
"u 	c #5F5F59596565",
"i 	c #6B6B69696D6D",
"p 	c #7C7C7A7A7E7E",
"a 	c #777775757979",
"s 	c #6A6A67676D6D",
"d 	c #A3A3A3A3A2A2",
"f 	c #52524C4C5656",
"g 	c #A2A2A3A3A2A2",
"h 	c #686863636B6B",
"j 	c #858585858686",
"k 	c #969695959797",
"l 	c #71716E6E7474",
"z 	c #848482828686",
"x 	c #A4A4A5A5A4A4",
"c 	c #888886868A8A",
"v 	c #9F9FA0A09F9F",
"b 	c #A0A0A1A19F9F",
"n 	c #797977777B7B",
"m 	c #A1A1A2A2A1A1",
"M 	c #9D9D9D9D9E9E",
"N 	c #A2A2A2A2A1A1",
"B 	c #797975757A7A",
"V 	c #777772727C7C",
"C 	c #A4A4A4A4A3A3",
"Z 	c #8F8F8E8E9191",
"A 	c #62625D5D6767",
"S 	c #656562626868",
"D 	c #636361616565",
"F 	c #9E9E9D9D9F9F",
"G 	c #71716B6B7575",
"H 	c #5E5E59596363",
"J 	c #60605A5A6464",
"K 	c #8B8B88888D8D",
"L 	c #787878787777",
"P 	c #878786868787",
"I 	c #A3A3A4A4A2A2",
"U 	c #969692929898",
"Y 	c #767672727B7B",
"T 	c #626262626363",
"R 	c #5F5F5F5F6060",
"E 	c #4F4F4A4A5353",
"W 	c #595952525E5E",
"Q 	c #55554D4D5D5D",
"! 	c #959592929797",
"~ 	c #A4A4A5A5A3A3",
"^ 	c #9C9C9B9B9D9D",
"/ 	c #82827B7B8787",
"( 	c #646464646363",
") 	c #646462626666",
"_ 	c #5B5B59595D5D",
"` 	c #999997979A9A",
"' 	c #5C5C57576262",
"] 	c #4E4E45455555",
"[ 	c #949494949494",
"{ 	c #A3A3A4A4A3A3",
"} 	c #7F7F78788383",
"| 	c #8D8D8D8D8C8C",
" .	c #6D6D6D6D6D6D",
"..	c #7D7D77778181",
"X.	c #8E8E8B8B9090",
"o.	c #83837D7D8888",
"O.	c #979795959898",
"+.	c #757575757676",
"@.	c #5A5A56565F5F",
"#.	c #6D6D6B6B6E6E",
"$.	c #7D7D7D7D7D7D",
"%.	c #9B9B9B9B9C9C",
"&.	c #82827E7E8686",
"*.	c #929292929292",
"=.	c #5F5F5B5B6262",
"-.	c #838380808686",
";.	c #A5A5A6A6A5A5",
":.	c #81817C7C8484",
">.	c #66665F5F6C6C",
",.	c #999999999999",
"<.	c #848484848484",
"1.	c #585855555B5B",
"2.	c #6F6F6E6E7070",
"3.	c #898989898989",
"4.	c #74746E6E7878",
"5.	c #5A5A56566060",
"6.	c #666666666666",
"7.	c #939391919595",
"8.	c #8C8C8A8A8E8E",
"9.	c #9C9C9C9C9C9C",
"0.	c #A5A5A5A5A5A5",
"q.	c #575752525E5E",
"w.	c #868686868686",
"e.	c #939393939393",
"r.	c #9B9B9A9A9C9C",
"t.	c #898985858D8D",
"y.	c #63635E5E6868",
"u.	c #676768686666",
"i.	c #7A7A75757F7F",
"p.	c #999999999A9A",
"a.	c #A5A5A5A5A4A4",
"s.	c #828282828282",
"d.	c #898986868A8A",
"f.	c #626259596969",
"g.	c #989898989898",
"h.	c #8D8D8D8D8E8E",
"j.	c #949492929595",
"k.	c #70706E6E7373",
"l.	c #7B7B76768080",
"z.	c #83837E7E8686",
"x.	c #717172727070",
"c.	c #757573737676",
"v.	c #90908F8F9292",
"b.	c #80807C7C8383",
"n.	c #7E7E7A7A8181",
"m.	c #84847E7E8989",
"M.	c #858584848585",
"N.	c #5A5A4E4E6464",
"B.	c #9D9D9E9E9D9D",
"V.	c #9C9C9B9B9C9C",
"C.	c #8A8A8B8B8A8A",
"Z.	c #9A9A9A9A9999",
"A.	c #73736D6D7878",
"S.	c #898988888B8B",
"D.	c #747474747373",
"F.	c #6C6C67677070",
"G.	c #4D4D42425858",
"H.	c #81817E7E8282",
"J.	c #9E9E9D9D9E9E",
"K.	c #797975757D7D",
"L.	c #9B9B99999C9C",
"P.	c #6F6F69697474",
"I.	c #5E5E54546666",
"U.	c #69695E5E7070",
"Y.	c #60605A5A6363",
"T.	c #9A9A99999B9B",
"R.	c #858581818989",
"E.	c #6E6E6A6A7171",
"W.	c #939394949393",
"Q.	c #A0A09E9EA1A1",
"!.	c #93938F8F9595",
"~.	c #787873737C7C",
"^.	c #858580808888",
"/.	c #696962626E6E",
"(.	c #737372727474",
").	c #868682828A8A",
"_.	c #80807A7A8585",
"`.	c #676767676969",
"'.	c #848481818787",
"].	c #787870707C7C",
"[.	c #979797979797",
"{.	c #878788888787",
"}.	c #666660606C6C",
"|.	c #A5A5A6A6A4A4",
" X	c #82827F7F8585",
".X	c #82827D7D8787",
"XX	c #6D6D66667373",
"oX	c #979796969898",
"OX	c #5C5C5D5D5B5B",
"+X	c #7C7C76767F7F",
"@X	c #575755555959",
"#X	c #64645A5A6C6C",
"$X	c #77776F6F7C7C",
"%X	c #65655C5C6A6A",
"&X	c #707069697575",
"*X	c #959592929696",
"=X	c #6B6B63637070",
"-X	c #7D7D74748383",
";X	c #747470707777",
":X	c #A8A8A8A8A7A7",
">X	c #9F9F9C9CA0A0",
",X	c #A4A4A4A4A5A5",
"<X	c #A8A8A9A9A8A8",
"1X	c #A9A9A9A9A8A8",
"2X	c #A3A3A1A1A4A4",
"3X	c #646457576C6C",
"  . X X X X X X X X X X o o X X X X X X X X X X X X X X X X . O ",
"X + + + + + + + + + + @ + # @ + + + + + + + + + + + + + + + + X ",
"$ % + + + + + + + + @ & * = - ; + + + + + + + + ; ; + + + + + X ",
": + ; + + + + + + ; > , < 1 2 3 ; + + + + + + ; 4 # + + + + + X ",
"2 > ; + + + + + + ; 5 6 7 8 9 0 ; + + + + + @ $ 1 q + + + + + X ",
"w @ + + + + + + + ; + 6 e r t @ + + + + + + ; y u i 0 ; + + + X ",
". + + + + + + + + + % p a s $ d + + + + + + % 9 f q d + + + + X ",
"w d + + + + + + + + + ; g h j . + + + + + + % k l z x + + + + X ",
"c % + + + + + + + + v v b s n m @ + + + + ; M N B B x N + + + X ",
"V b . ; + + + + + C Z A S e D = z d + + @ F G H e J 1 K . + + X ",
"8 L P 0 ; + + + I U Y T R E W 8 Q ! ~ g ^ / * ( E ) _ Y ` % + X ",
"' r ] [ g + + { ! } | , i e D  . ...X.M o.O.| +.@.#.$.%.&.*.; X ",
"e =.r -.;.+ g ! ..5 w 2 , S ) 9 | % :.>.,.g <.: 1.2.3.. k 4.+ X ",
"5.6.D H 7.;.8.= 9.0.t , $.q.D $.,.@ C 1 Y % w.$ H 9 e.% r.t.d X ",
"y.u.#.2 i.p.Z * a.; <.w.| ' i s.5 ; C d.f.,.v g.W h.@ d X.j.m X ",
"q.( k.p.p.l.9.z.r.@ | [ 4 u 2.*.+ + { K = $.| = Q x.g.d ..` ; X ",
"' u.c.p.. v.b.n.K g ; ; 5 W s.. + + > m.*.<.M.f.N.T B.e.n ; + X ",
"u 7 * V.; C 3.J #.[ 0 C.* W , *.@ @ O.l.d Z.A.l n f.X.$ 3.% + X ",
"u 6 z > + a.S.@.D.& & <.F.G.u.s.. N H.H.;.J.} p.& K.&.Z.,.; + X ",
"@.w.^ L.g p.P.v.: e.d p I.U.Y.$ 0.g.+.C.. T.R.% ; ..^ @ ; + + X ",
"E.W.Q.!.~ ~.^.a.w 9.+ /.(.* W Y 0 9.2 w % ` ).;.7._.C + + + + X ",
"`.D.w U '...d + ; N T.].[.{.C.}.k B.3.0 @ k '.|. X!.@ + + + + X ",
"i T e..XXX` @ + + N j._.;.0.oXi.; > > + C '.E.W.1 9.@ + + + + X ",
"G OX2 I.).@ + + + d K c % % c ^.C + + + x :.K.0 G b.N ; + + + X ",
"XX] `.c.O.` # + + { z.v.@ d +X7.N + + + { m.).a.d ^.'.; + + + X ",
"#.@X_ j . ; + + + g  Xk g 9.~.5 ; + + + C .XS.d g 4 #X9.; + + X ",
"<.x.@. X. + + + ; 0 B e.. P n { + + + + x R.S.% d $X%X3 ; + + X ",
"4 j &X*XM ; + + @ oX=.w.x k.J Z.C + + m m =XS.x L.-Xg.; + + + X ",
"o K ..g ` > + + ; J.k.*.. j.&X=Xh.C @ 4 ;Xn v ; + d @ + + + + X ",
":Xn.t.~ ^ L.; + + % q w ; g ~ !.Y n.+ %.).; ; + + + + + + + + X ",
"O K.F o o >X,X,X0.<X8.[.o X X 1X2X3X[ <X1Xo X X X X X X X X . O "};
