/* XPM */
static char * image_name[] = {
"32 32 245 2",
"  	c #ABABABABABAB",
". 	c #A6A6A6A6A6A6",
"X 	c #A4A4A4A4A4A4",
"o 	c #A0A0A0A0A0A0",
"O 	c #A1A1A1A1A1A1",
"+ 	c #9F9F9F9F9F9F",
"@ 	c #9C9C9C9C9C9C",
"# 	c #A3A3A3A3A2A2",
"$ 	c #939393939393",
"% 	c #858585858585",
"& 	c #929292929292",
"* 	c #A2A2A2A2A2A2",
"= 	c #989898989999",
"- 	c #90908F8F9191",
"; 	c #9D9D9D9D9D9D",
": 	c #9E9E9E9E9E9E",
"> 	c #8A8A8A8A8A8A",
", 	c #7D7D7D7D7D7D",
"< 	c #818181818181",
"1 	c #727272727272",
"2 	c #64645E5E6868",
"3 	c #747473737474",
"4 	c #8B8B8B8B8B8B",
"5 	c #757575757575",
"6 	c #737373737373",
"7 	c #797979797979",
"8 	c #787879797878",
"9 	c #6A6A64646E6E",
"0 	c #6C6C69696D6D",
"q 	c #989898989898",
"w 	c #767676767676",
"e 	c #6B6B6C6C6B6B",
"r 	c #808080808080",
"t 	c #707070707070",
"y 	c #767677777676",
"u 	c #676762626A6A",
"i 	c #676764646969",
"p 	c #727273737171",
"a 	c #81817F7F8181",
"s 	c #595954545C5C",
"d 	c #848485858484",
"f 	c #A4A4A4A4A3A3",
"g 	c #717171717171",
"h 	c #656566666464",
"j 	c #60605B5B6363",
"k 	c #51514D4D5555",
"l 	c #707071717070",
"z 	c #A3A3A3A3A3A3",
"x 	c #919191919090",
"c 	c #5E5E55556464",
"v 	c #898986868B8B",
"b 	c #A1A1A1A1A0A0",
"n 	c #595958585A5A",
"m 	c #4E4E48485252",
"M 	c #52524E4E5656",
"N 	c #89898A8A8989",
"B 	c #9F9FA0A09E9E",
"V 	c #72726A6A7878",
"C 	c #787871717E7E",
"Z 	c #9C9C9A9A9D9D",
"A 	c #9D9D9C9C9E9E",
"S 	c #6F6F6D6D7070",
"D 	c #6D6D6B6B6F6F",
"F 	c #626260606464",
"G 	c #979797979797",
"H 	c #A1A1A2A2A1A1",
"J 	c #858582828787",
"K 	c #787872727D7D",
"L 	c #9E9E9E9E9D9D",
"P 	c #9B9B98989C9C",
"I 	c #9A9A98989B9B",
"U 	c #A0A09F9FA0A0",
"Y 	c #A0A0A1A1A0A0",
"T 	c #9C9C9D9D9C9C",
"R 	c #8F8F8F8F8F8F",
"E 	c #5E5E58586262",
"W 	c #8F8F8E8E9090",
"Q 	c #A3A3A2A2A2A2",
"! 	c #6E6E68687373",
"~ 	c #949493939494",
"^ 	c #9C9C9B9B9C9C",
"/ 	c #999997979A9A",
"( 	c #9E9E9D9D9F9F",
") 	c #999999999999",
"_ 	c #8C8C8B8B8D8D",
"` 	c #9E9E9F9F9D9D",
"' 	c #66665E5E6D6D",
"] 	c #868683838888",
"[ 	c #A4A4A5A5A4A4",
"{ 	c #9B9B99999C9C",
"} 	c #9E9E9C9C9E9E",
"| 	c #9D9D9E9E9D9D",
" .	c #9F9FA0A09F9F",
"..	c #8D8D8D8D8D8D",
"X.	c #5A5A55555E5E",
"o.	c #838382828484",
"O.	c #A2A2A3A3A2A2",
"+.	c #73736E6E7878",
"@.	c #757570707878",
"#.	c #A3A3A4A4A2A2",
"$.	c #949493939595",
"%.	c #888885858A8A",
"&.	c #6C6C67677070",
"*.	c #6C6C6A6A6E6E",
"=.	c #777774747979",
"-.	c #6A6A68686C6C",
";.	c #5D5D5A5A6060",
":.	c #7A7A7A7A7A7A",
">.	c #878785858888",
",.	c #959596969595",
"<.	c #838381818585",
"1.	c #5A5A52526161",
"2.	c #797975757B7B",
"3.	c #7B7B76767F7F",
"4.	c #787872727C7C",
"5.	c #797972727E7E",
"6.	c #74746D6D7979",
"7.	c #595954545E5E",
"8.	c #4E4E4A4A5151",
"9.	c #55554F4F5A5A",
"0.	c #686864646C6C",
"q.	c #5C5C58586060",
"w.	c #5D5D56566262",
"e.	c #6C6C64647171",
"r.	c #54544E4E5959",
"t.	c #585852525C5C",
"y.	c #7C7C78787F7F",
"u.	c #9A9A99999B9B",
"i.	c #999998989A9A",
"p.	c #A1A1A1A1A2A2",
"a.	c #A8A8A9A9A7A7",
"s.	c #7A7A7B7B7A7A",
"d.	c #5D5D5B5B5F5F",
"f.	c #747474747575",
"g.	c #575751515B5B",
"h.	c #696964646C6C",
"j.	c #626262626161",
"k.	c #6A6A62627070",
"l.	c #868683838989",
"z.	c #878787878787",
"x.	c #686868686868",
"c.	c #6B6B6B6B6B6B",
"v.	c #767676767575",
"b.	c #5B5B57576060",
"n.	c #6C6C6B6B6C6C",
"m.	c #7E7E7E7E7E7E",
"M.	c #616161616161",
"N.	c #767675757575",
"B.	c #989895959A9A",
"V.	c #7E7E79798282",
"C.	c #A2A2A2A2A1A1",
"Z.	c #7E7E7F7F7E7E",
"A.	c #646460606767",
"S.	c #6C6C6A6A6C6C",
"D.	c #848484848484",
"F.	c #9F9F9D9DA1A1",
"G.	c #9F9F9E9E9F9F",
"H.	c #7B7B75758080",
"J.	c #9C9C9B9B9D9D",
"K.	c #A3A3A4A4A3A3",
"L.	c #7C7C7C7C7C7C",
"P.	c #7F7F80807F7F",
"I.	c #6C6C6B6B6D6D",
"U.	c #828283838282",
"Y.	c #A0A09F9FA1A1",
"T.	c #9A9A97979B9B",
"R.	c #A4A4A5A5A3A3",
"E.	c #8E8E8D8D9090",
"W.	c #75756F6F7979",
"Q.	c #919191919393",
"!.	c #868686868686",
"~.	c #828282828282",
"^.	c #7B7B7B7B7B7B",
"/.	c #5B5B58585E5E",
"(.	c #6D6D6C6C6D6D",
").	c #6E6E6B6B7171",
"_.	c #7B7B79797C7C",
"`.	c #8D8D8C8C8C8C",
"'.	c #62625C5C6767",
"].	c #6A6A68686B6B",
"[.	c #9B9B9A9A9D9D",
"{.	c #5D5D56566161",
"}.	c #80807E7E8383",
"|.	c #929292929191",
" X	c #61615A5A6767",
".X	c #6C6C69696E6E",
"XX	c #838384848383",
"oX	c #9C9C99999E9E",
"OX	c #9B9B9C9C9A9A",
"+X	c #6F6F68687373",
"@X	c #7A7A75757E7E",
"#X	c #888888888888",
"$X	c #9B9B9B9B9B9B",
"%X	c #9C9C9C9C9B9B",
"&X	c #64645D5D6A6A",
"*X	c #8C8C8A8A8E8E",
"=X	c #6F6F69697474",
"-X	c #6D6D64647474",
";X	c #A1A1A2A2A0A0",
":X	c #656562626767",
">X	c #808080807F7F",
",X	c #646462626565",
"<X	c #5A5A52526060",
"1X	c #969696969696",
"2X	c #939394949393",
"3X	c #6E6E6E6E6E6E",
"4X	c #838383838383",
"5X	c #747475757474",
"6X	c #595954545F5F",
"7X	c #787878787878",
"8X	c #818182828181",
"9X	c #6F6F70706E6E",
"0X	c #4A4A3F3F5454",
"qX	c #666664646969",
"wX	c #737374747272",
"eX	c #8E8E8E8E8E8E",
"rX	c #808081817F7F",
"tX	c #71716F6F7373",
"yX	c #5D5D4F4F6767",
"uX	c #65655C5C6C6C",
"iX	c #7B7B7C7C7C7C",
"pX	c #898989898989",
"aX	c #8E8E8F8F8E8E",
"sX	c #66665F5F6B6B",
"dX	c #8A8A8B8B8A8A",
"fX	c #8B8B87878D8D",
"gX	c #67675D5D6F6F",
"hX	c #646462626666",
"jX	c #969695959696",
"kX	c #6D6D67677373",
"lX	c #6A6A66666D6D",
"zX	c #646464646464",
"xX	c #9B9B9C9C9B9B",
"cX	c #6A6A67676B6B",
"vX	c #71716C6C7474",
"bX	c #74746F6F7878",
"nX	c #909090909090",
"mX	c #8A8A8A8A8B8B",
"MX	c #6F6F6F6F6F6F",
"NX	c #787873737C7C",
"BX	c #AAAAAAAAAAAA",
"VX	c #A7A7A7A7A7A7",
"CX	c #8B8B89898D8D",
"ZX	c #787874747C7C",
"AX	c #A5A5A5A5A5A5",
"  . . . . . . . . . . . . . . . . . . . . . . . . . . . . . .   ",
"X o o O o o o o o o o o o o o o o o o o o o o o o o o o o o o X ",
". o + @ O o o o o o o o o o o O # O o o o o o o o o o o o o o . ",
". O $ % & o o o o o o o o o * = - ; * o o o o o o o o o o o o . ",
". : > , < : O o o o o o o * & 1 2 3 $ * o o o o o o o o o o o . ",
". O 4 5 6 $ + O o o o o O + 7 8 9 0 5 + O o o o o o o o o o o . ",
". * q w e r : O o o o o O + t y u i p @ O o o o o o o o o o o . ",
". o * a s d f o o o o o O O g h j k l + O o o o o o o o o o o . ",
". o z x c v * b o o o o o * % n m M N z o o o o o o o o o o o . ",
". o O B V C Z A O o o o o * q S D F G * o o o o o o o o o o o . ",
". o o H J K L P I U Y o o o + T R E W * o o o o o o o o o o o . ",
". o o Q & ! ~ z ^ / ( b Y O O X ) j _ z o o o o o o o o o o o . ",
". o o O ` ' ] [ H o { } H | O  ...X.o.: * b * o o o o o o o o . ",
". o o o O.+.@.#.; = $.%.&.*.=.-.6 ;.g :.>.> ,.O o o o o o o o . ",
". o o o X <.1.2.3.4.5.5.6.7.8.9.0.q.w.e.r.t.y.[ Y o o o o o o . ",
". o o o o + u.i.; o p.X a.s.d.l f.g.h., j.d.k.l.z O o o o o o . ",
". o o o o Y H O O Y o o * z.x.c.v.b.n.m.M.N.B.V.V.o C.o o o o . ",
". o o o o o o o o o o o o < 6 w Z.A.S.D.x.< F.G.J H.J.K.o o o . ",
". o o o o o o o o o o O : L.r 4 P.;.I.z.L.U.Y.T.R.E.W.Q.O o o . ",
". o o o o o o o o o o O ; 7 !.~.^./.(.D.7 D.* T.G.K.,.)._.* o . ",
". o o o o o o o o o o O : L.m.r `.'.].d :.% * [.Z f G {.}.f o . ",
". o o o o o o o o o o O : ~.^...|. X.XXX~...X O oXOX+X@X# Y o . ",
". o o o o o o o o o o o O #X% $X%X&X-.,...$X) R *X=X-X;XO o o . ",
". o o o o o o o o o o o o + O X L  X:X%XX O G >X,X<X1Xz o o o . ",
". o o o o o o o o o o o o O ; 1X2X&X).2X) O G > 3X3 o O o o o . ",
". o o o o o o o o o o o O $X4Xr 5X6Xi 5X:.& : z.w & * o o o o . ",
". o o o o o o o o o o o z 4 7X8X9X0XqXwX7XD.O G & O o o o o o . ",
". o o o o o o o o o o o * eX7XrXtXyXuXiXy pXz O * o o o o o o . ",
". o o o o o o o o o o o o z aX XsXdXfXgXhX1Xz o o o o o o o o . ",
". o o o o o o o o o o o * jXkXlXzXU.xXcXvXbXjX* o o o o o o o . ",
"X o o o o o o o o o o o z nXsXmX..3XMXz.Q.&XmXz o o o o o o o X ",
"  . . . . . . . . . . . . [ NX- BXO @ VXCXZXAXVX. . . . . . .   "};
