/* XPM */
static char * image_name[] = {
"32 32 254 2",
"  	c #ABABABABABAB",
". 	c #A6A6A6A6A6A6",
"X 	c #A4A4A4A4A4A4",
"o 	c #A0A0A0A0A0A0",
"O 	c #A2A2A2A2A2A2",
"+ 	c #A3A3A3A3A3A3",
"@ 	c #A1A1A1A1A1A1",
"# 	c #9A9A9A9A9A9A",
"$ 	c #787875757B7B",
"% 	c #797977777979",
"& 	c #8A8A8A8A8A8A",
"* 	c #9C9C9C9C9C9C",
"= 	c #747475757373",
"- 	c #6C6C68686E6E",
"; 	c #757573737676",
": 	c #6F6F6F6F6F6F",
"> 	c #878787878787",
", 	c #8C8C8C8C8C8C",
"< 	c #6D6D6E6E6E6E",
"1 	c #747471717676",
"2 	c #747471717777",
"3 	c #717171717171",
"4 	c #727272727272",
"5 	c #9F9F9F9F9F9F",
"6 	c #666665656666",
"7 	c #6A6A67676C6C",
"8 	c #6E6E69697272",
"9 	c #6E6E6E6E6E6E",
"0 	c #686868686868",
"q 	c #9E9E9E9E9E9E",
"w 	c #969696969696",
"e 	c #5E5E5E5E5E5E",
"r 	c #686866666969",
"t 	c #606059596464",
"y 	c #656565656565",
"u 	c #636363636363",
"i 	c #6C6C6D6D6C6C",
"p 	c #525250505353",
"a 	c #50504B4B5454",
"s 	c #747474747474",
"d 	c #8F8F8F8F8F8F",
"f 	c #696969696969",
"g 	c #575753535A5A",
"h 	c #6A6A68686A6A",
"j 	c #858585858585",
"k 	c #7C7C7C7C7C7C",
"l 	c #5A5A57575C5C",
"z 	c #989898989898",
"x 	c #656562626868",
"c 	c #7E7E7D7D7F7F",
"v 	c #939393939393",
"b 	c #61615E5E6363",
"n 	c #7D7D7C7C7D7D",
"m 	c #A2A2A3A3A2A2",
"M 	c #99999A9A9999",
"N 	c #919191919191",
"B 	c #8A8A8A8A8989",
"V 	c #7F7F7E7E7F7F",
"C 	c #585852525C5C",
"Z 	c #787878787878",
"A 	c #8E8E8E8E8E8E",
"S 	c #A0A0A0A09F9F",
"D 	c #9B9B9B9B9B9B",
"F 	c #A3A3A3A3A2A2",
"G 	c #A0A09F9FA0A0",
"H 	c #979796969999",
"J 	c #72726D6D7575",
"K 	c #60605B5B6363",
"L 	c #5A5A53535F5F",
"P 	c #6A6A69696B6B",
"I 	c #5C5C5B5B5E5E",
"U 	c #5F5F5D5D6262",
"Y 	c #666662626969",
"T 	c #737371717474",
"R 	c #9F9F9E9E9E9E",
"E 	c #A0A0A1A1A0A0",
"W 	c #A1A1A1A1A0A0",
"Q 	c #9E9E9D9D9F9F",
"! 	c #999997979A9A",
"~ 	c #8E8E8B8B9191",
"^ 	c #82827E7E8585",
"/ 	c #7A7A75757D7D",
"( 	c #757571717878",
") 	c #666661616A6A",
"_ 	c #555554545757",
"` 	c #585858585959",
"' 	c #787875757A7A",
"] 	c #676761616B6B",
"[ 	c #595955555E5E",
"{ 	c #646461616767",
"} 	c #545450505757",
"| 	c #565654545858",
" .	c #5D5D55556262",
"..	c #868683838888",
"X.	c #A4A4A5A5A4A4",
"o.	c #8B8B89898C8C",
"O.	c #6D6D6B6B6E6E",
"+.	c #7A7A77777C7C",
"@.	c #787874747B7B",
"#.	c #777773737B7B",
"$.	c #80807E7E8282",
"%.	c #8B8B89898B8B",
"&.	c #9B9B9A9A9C9C",
"*.	c #969696969797",
"=.	c #666667676666",
"-.	c #626262626262",
";.	c #7F7F80807F7F",
":.	c #5C5C58585F5F",
">.	c #757575757575",
",.	c #707070707070",
"<.	c #727273737272",
"1.	c #898988888A8A",
"2.	c #6F6F6A6A7373",
"3.	c #8D8D8C8C9090",
"4.	c #A4A4A4A4A3A3",
"5.	c #7E7E7B7B8080",
"6.	c #757575757777",
"7.	c #959595959595",
"8.	c #9E9E9F9F9E9E",
"9.	c #A2A2A2A2A1A1",
"0.	c #A2A2A1A1A1A1",
"q.	c #9C9C9A9A9D9D",
"w.	c #646464646464",
"e.	c #6E6E6B6B7070",
"r.	c #61615D5D6565",
"t.	c #787879797878",
"y.	c #808080808080",
"u.	c #959593939696",
"i.	c #737370707777",
"p.	c #91918F8F9292",
"a.	c #A1A1A0A0A0A0",
"s.	c #989899999898",
"d.	c #797976767C7C",
"f.	c #9A9A9A9A9999",
"g.	c #A2A2A2A2A3A3",
"h.	c #9E9E9E9E9F9F",
"j.	c #7B7B7B7B7B7B",
"k.	c #7A7A7A7A7A7A",
"l.	c #888888888888",
"z.	c #7D7D7E7E7C7C",
"x.	c #848484848484",
"c.	c #9A9A9B9B9A9A",
"v.	c #A1A1A1A1A2A2",
"b.	c #787874747A7A",
"n.	c #8E8E8C8C9090",
"m.	c #A1A1A2A2A1A1",
"M.	c #8C8C8C8C8D8D",
"N.	c #787872727D7D",
"B.	c #838381818484",
"V.	c #9F9F9E9E9F9F",
"C.	c #9B9B99999C9C",
"Z.	c #9D9D9D9D9D9D",
"A.	c #7F7F7F7F7F7F",
"S.	c #8B8B8B8B8B8B",
"D.	c #6B6B6B6B6D6D",
"F.	c #5E5E5A5A6363",
"G.	c #787878787777",
"H.	c #989897979898",
"J.	c #70706D6D7373",
"K.	c #7C7C7A7A7D7D",
"L.	c #9C9C9C9C9B9B",
"P.	c #82827F7F8484",
"I.	c #7E7E78788383",
"U.	c #8C8C8B8B8C8C",
"Y.	c #767676767676",
"T.	c #868686868686",
"R.	c #777777777777",
"E.	c #737373737373",
"W.	c #818181818181",
"Q.	c #9F9F9D9DA0A0",
"!.	c #828281818383",
"~.	c #6C6C69696F6F",
"^.	c #797971717F7F",
"/.	c #787875757C7C",
"(.	c #989897979999",
").	c #9D9D9C9C9E9E",
"_.	c #A0A0A0A0A1A1",
"`.	c #7E7E7E7E7D7D",
"'.	c #60605D5D6464",
"].	c #898989898989",
"[.	c #9D9D9B9B9E9E",
"{.	c #74746F6F7878",
"}.	c #7E7E7B7B8181",
"|.	c #898988888989",
" X	c #9F9F9E9EA0A0",
".X	c #9C9C9B9B9D9D",
"XX	c #7D7D7E7E7D7D",
"oX	c #61615B5B6666",
"OX	c #9F9FA0A0A0A0",
"+X	c #989896969999",
"@X	c #787873737C7C",
"#X	c #64645C5C6B6B",
"$X	c #7B7B78787D7D",
"%X	c #999999999999",
"&X	c #7D7D7D7D7D7D",
"*X	c #888888888787",
"=X	c #676763636C6C",
"-X	c #727270707474",
";X	c #9C9C9B9B9E9E",
":X	c #6F6F65657676",
">X	c #9A9A98989A9A",
",X	c #696964646D6D",
"<X	c #9D9D9E9E9D9D",
"1X	c #A5A5A5A5A5A5",
"2X	c #5D5D57576161",
"3X	c #70706E6E7171",
"4X	c #808080807F7F",
"5X	c #8E8E8E8E8C8C",
"6X	c #6F6F6C6C7272",
"7X	c #929292929292",
"8X	c #5C5C5A5A5E5E",
"9X	c #767673737878",
"0X	c #9A9A99999C9C",
"qX	c #9C9C9C9C9D9D",
"wX	c #828282828282",
"eX	c #6F6F70706F6F",
"rX	c #656563636868",
"tX	c #717172727070",
"yX	c #838383838383",
"uX	c #686867676969",
"iX	c #A1A1A0A0A2A2",
"pX	c #7E7E7E7E7E7E",
"aX	c #8D8D8D8D8D8D",
"sX	c #60605B5B6464",
"dX	c #54544B4B5B5B",
"fX	c #757576767474",
"gX	c #797979797878",
"hX	c #6B6B61617373",
"jX	c #656559596F6F",
"kX	c #737372727474",
"lX	c #7A7A7A7A7979",
"zX	c #8D8D8E8E8D8D",
"xX	c #949494949494",
"cX	c #9A9A9A9A9B9B",
"vX	c #808080808181",
"bX	c #62625E5E6565",
"nX	c #696961616F6F",
"mX	c #939391919595",
"MX	c #5F5F59596464",
"NX	c #777777777878",
"BX	c #979797979797",
"VX	c #909090909090",
"CX	c #868684848888",
"ZX	c #6E6E68687373",
"AX	c #696964646C6C",
"SX	c #686866666A6A",
"DX	c #838380808484",
"FX	c #66665F5F6B6B",
"GX	c #7F7F7D7D8181",
"HX	c #6A6A66666E6E",
"JX	c #A7A7A7A7A7A7",
"KX	c #7C7C78788080",
"LX	c #A7A7A8A8A7A7",
"PX	c #797975757D7D",
"  . . . . . . . . . . . . . . . . . . . . . . . . . . . . . .   ",
"X o o o o o o o o o o o o o O O o + @ o o o o o o o o o o o o X ",
". o o o o o o o o o o o o O # $ % & o @ o o o o o o o o o o o . ",
". o o o o o o o o o o o @ * = - ; : > O o o o o o o o o o o o . ",
". o o o o o o o o o o o + , < 1 2 3 4 5 @ o o o o o o o o o o . ",
". o o o o o o o o o o o + & 6 7 8 9 0 q @ o o o o o o o o o o . ",
". o o o o o o o o o o o O w e r t y u q @ o o o o o o o o o o . ",
". o o o o o o o o o o o o O i p a e s o @ o o o o o o o o o o . ",
". o o o o o o o o o o o o + d f g h j O o o o o o o o o o o o . ",
". o o o o o o o o o o o o o 5 k l 3 z O o o o o o o o o o o o . ",
". o o o o o o o o o o o o o + # x c X o o o o o o o o o o o o . ",
". o o o o o o o o o o @ + O X v b n X @ @ @ o o o o o o o o o . ",
". o o o o o o o o @ m M N w B V C Z A S z D @ o o o o o o o o . ",
". o o @ o @ @ m F G H J K L x P I < U Y T V R @ o o o o o o o . ",
". o E S W Q ! ~ ^ / ( ) _ ` ' ] [ 7 { } |  ...X.o o o o o o o . ",
". + o.O.+.@.#.$.%.w &.*.=.-.;.O.:.>.,.u <.1.2.3.4.o o o o o o . ",
". 4.5.a 6.7.8.9.+ 0.q.X >.w.> e.r.t.: : y.4.u.i.p.X.a.o o o o . ",
". 9.s.e.d.f.g.o W q.h.E j.k.l.O.U z.x.j.>.c.v.u.b.n.m.o o o o . ",
". o O M.N.B.8.@ V.C.@ Z.A.S.l.D.F.G.> > Z , + Q H.J.K.W o o o . ",
". o @ L.P.I.U.F C.V.W o j Y.T.R.F.E.y.W.k l.+ V.Q.!.~.O o o o . ",
". o o O N ^./.(.Q W )._.j s S.`.'.>.x.k.k ].O W [.H {.G @ o o . ",
". o o @ 8.}.#.|. XC..Xg., s > XXoXc # l.>.> o W OX+X@X.X@ o o . ",
". o o o + S.#X$X*.@ @ m.%X&X& *X=X-X5 @ x.j O o @ ;X:X>X@ o o . ",
". o o o + T.) D.j.A Z.@ o & , f.,X,X<X1Xo * @ o + N 2Xu.o h.5 . ",
". o o o + |.3X4Xl.A N Z.@ o w 5X6X=Xl.7XZ.O o o @ A 8X9X X0XqX. ",
". o o o O v n wXS.S.D z @ & R.eXrX[ tXk yXZ.@ o o 1Xk uXiX@ E . ",
". o o o O z pXj.l.aXw O # R.Z tXsXdXfXW.R.aXO o o + d 0 Z.@ o . ",
". o o o o q j > S.v , @ z 4 gXk hXjXkXlXY.zXO o o o @ Z w @ o . ",
". o o o o @ S.l.> xXxXcXE vXbXnXmXT. .MXNXZ.@ o o o O A BX@ o . ",
". o o o o O z VXaXN Z.S CXZXAXSXZ.yX4 DXFXN O o o o o @ o o o . ",
"X o o o o o o o %X%X5 O GXHX7.d k.Y.v BX2.H.v.o o o o o o o o X ",
"  . . . . . . . JXJX. JXqXKXO   @ O LXcXPXg.JX. . . . . . . .   "};
