/* XPM */
static char * image_name[] = {
"32 32 213 2",
"  	c #ABABABABABAB",
". 	c #A6A6A6A6A6A6",
"X 	c #A7A7A7A7A7A7",
"o 	c #A4A4A4A4A4A4",
"O 	c #A0A0A0A0A0A0",
"+ 	c #A1A1A1A1A1A1",
"@ 	c #9F9F9F9F9F9F",
"# 	c #949494949494",
"$ 	c #9C9C9C9C9C9C",
"% 	c #919191919191",
"& 	c #A0A09F9FA0A0",
"* 	c #9D9D9C9C9E9E",
"= 	c #A1A1A1A1A0A0",
"- 	c #A0A0A1A1A0A0",
"; 	c #9E9E9E9E9E9E",
": 	c #8F8F8F8F8F8F",
"> 	c #878787878787",
", 	c #7D7D7D7D7D7D",
"< 	c #868686868686",
"1 	c #828282828282",
"2 	c #838383838383",
"3 	c #9F9F9E9E9F9F",
"4 	c #9B9B99999C9C",
"5 	c #9B9B9A9A9C9C",
"6 	c #989898989898",
"7 	c #7E7E7E7E7E7E",
"8 	c #A2A2A2A2A2A2",
"9 	c #7A7A7A7A7A7A",
"0 	c #808080808080",
"q 	c #7B7B7B7B7B7B",
"w 	c #A3A3A3A3A3A3",
"e 	c #6E6E6D6D6E6E",
"r 	c #89898A8A8989",
"t 	c #898989898989",
"y 	c #717171717171",
"u 	c #969696969696",
"i 	c #9B9B9B9B9B9B",
"p 	c #8A8A8A8A8A8A",
"a 	c #999999999999",
"s 	c #8C8C8C8C8C8C",
"d 	c #757575757575",
"f 	c #727272727272",
"g 	c #848484848484",
"h 	c #9C9C9A9A9D9D",
"j 	c #959595959595",
"k 	c #9B9B9B9B9C9C",
"l 	c #5D5D5D5D5E5E",
"z 	c #797979797979",
"x 	c #888888888888",
"c 	c #767676767676",
"v 	c #7F7F7F7F7F7F",
"b 	c #8D8D8D8D8D8D",
"n 	c #6C6C6C6C6C6C",
"m 	c #6D6D6D6D6D6D",
"M 	c #9E9E9C9C9E9E",
"N 	c #A0A0A0A09F9F",
"B 	c #A9A9A9A9A9A9",
"V 	c #60605F5F6161",
"C 	c #686868686868",
"Z 	c #696969696969",
"A 	c #858585858585",
"S 	c #70706F6F7070",
"D 	c #929291919393",
"F 	c #6F6F6F6F6F6F",
"G 	c #81817F7F8181",
"H 	c #666666666666",
"J 	c #676767676767",
"K 	c #6A6A69696A6A",
"L 	c #636361616363",
"P 	c #777776767979",
"I 	c #A8A8A8A8A8A8",
"U 	c #606060606060",
"Y 	c #636363636363",
"T 	c #656565656565",
"R 	c #929292929393",
"E 	c #9D9D9D9D9D9D",
"W 	c #63635D5D6767",
"Q 	c #686866666A6A",
"! 	c #9E9E9E9E9F9F",
"~ 	c #606060605F5F",
"^ 	c #676766666868",
"/ 	c #646463636565",
"( 	c #747474747474",
") 	c #6B6B6B6B6B6B",
"_ 	c #9A9A9A9A9999",
"` 	c #7C7C7C7C7C7C",
"' 	c #696963636E6E",
"] 	c #696964646D6D",
"[ 	c #797979797A7A",
"{ 	c #959593939696",
"} 	c #585858585A5A",
"| 	c #5B5B5B5B5B5B",
" .	c #787878787878",
"..	c #737373737373",
"X.	c #878786868888",
"o.	c #717170707373",
"O.	c #62625E5E6464",
"+.	c #80807B7B8383",
"@.	c #494948484A4A",
"#.	c #50504D4D5252",
"$.	c #6F6F6E6E7171",
"%.	c #747473737474",
"&.	c #8B8B8A8A8C8C",
"*.	c #70706C6C7474",
"=.	c #797977777B7B",
"-.	c #909090909090",
";.	c #999997979999",
":.	c #7C7C7B7B7B7B",
">.	c #77776F6F7D7D",
",.	c #777777777777",
"<.	c #5F5F5C5C6161",
"1.	c #56564F4F5B5B",
"2.	c #575756565858",
"3.	c #616161616060",
"4.	c #6C6C69696F6F",
"5.	c #9D9D9B9B9E9E",
"6.	c #7F7F7F7F8080",
"7.	c #74746F6F7777",
"8.	c #797975757C7C",
"9.	c #A2A2A2A2A1A1",
"0.	c #7E7E79798282",
"q.	c #64645B5B6C6C",
"w.	c #797977777C7C",
"e.	c #A3A3A4A4A3A3",
"r.	c #878788888787",
"t.	c #767672727878",
"y.	c #70706D6D7373",
"u.	c #5B5B52526363",
"i.	c #898986868C8C",
"p.	c #A5A5A5A5A4A4",
"a.	c #707070707070",
"s.	c #828282828181",
"d.	c #9D9D9B9B9D9D",
"f.	c #6F6F6B6B7171",
"g.	c #868685858686",
"h.	c #71716B6B7575",
"j.	c #9F9F9E9EA0A0",
"k.	c #747475757474",
"l.	c #7C7C7A7A7E7E",
"z.	c #6E6E6A6A7070",
"x.	c #767673737878",
"c.	c #61615F5F6363",
"v.	c #848482828585",
"b.	c #5E5E5B5B6161",
"n.	c #9B9B98989C9C",
"m.	c #626258586969",
"M.	c #585856565B5B",
"N.	c #5E5E59596060",
"B.	c #646462626666",
"V.	c #484843434B4B",
"C.	c #898989898A8A",
"Z.	c #9C9C9B9B9D9D",
"A.	c #646464646464",
"S.	c #53534F4F5656",
"D.	c #505049495555",
"F.	c #5D5D5D5D5D5D",
"G.	c #5E5E5E5E5E5E",
"H.	c #9E9E9E9E9D9D",
"J.	c #636362626565",
"K.	c #7A7A77777C7C",
"L.	c #6C6C6A6A6E6E",
"P.	c #A5A5A5A5A5A5",
"I.	c #818181818181",
"U.	c #676764646868",
"Y.	c #5A5A58585C5C",
"T.	c #A4A4A4A4A3A3",
"R.	c #7D7D7B7B7E7E",
"E.	c #737371717676",
"W.	c #9B9B9C9C9B9B",
"Q.	c #A2A2A3A3A2A2",
"!.	c #A3A3A3A3A2A2",
"~.	c #676765656A6A",
"^.	c #5B5B57575D5D",
"/.	c #626262626262",
"(.	c #6A6A66666D6D",
").	c #747472727676",
"_.	c #656563636666",
"`.	c #585855555B5B",
"'.	c #888886868989",
"].	c #838382828585",
"[.	c #72726E6E7575",
"{.	c #8F8F8E8E9090",
"}.	c #5B5B5A5A5D5D",
"|.	c #787876767A7A",
" X	c #727270707474",
".X	c #9A9A99999B9B",
"XX	c #7C7C79797E7E",
"oX	c #7A7A76767C7C",
"OX	c #585853535C5C",
"+X	c #757573737777",
"@X	c #5A5A54545E5E",
"#X	c #5A5A56565E5E",
"$X	c #696967676B6B",
"%X	c #565653535959",
"&X	c #6E6E6C6C7070",
"*X	c #666663636868",
"=X	c #70706F6F7171",
"-X	c #848482828686",
";X	c #6B6B69696C6C",
":X	c #707070706F6F",
">X	c #5E5E5B5B5F5F",
",X	c #60605E5E6262",
"<X	c #5F5F59596464",
"1X	c #686864646C6C",
"2X	c #848484848383",
"3X	c #6A6A6A6A6A6A",
"4X	c #595959595A5A",
"5X	c #868684848888",
"6X	c #9A9A9A9A9A9A",
"7X	c #656562626868",
"8X	c #8B8B8B8B8B8B",
"9X	c #838387878484",
"0X	c #727271717575",
"  . . . . . . . . . . . . . . X X X X . . . . . . . . . . . .   ",
"o O O O O O O + O O O O O O @ # # $ % + + O O & * = O O O O O o ",
". O O O O - O ; O O O O O + : > , < 1 2 + + O 3 4 = O O O O O . ",
". O O @ 5 - 6 7 @ + 8 O O O @ > 1 9 0 q 2 + + 4 3 O O O O O O . ",
". 8 w @ e r t y + O u O + i p a s 9 d 9 f g 8 h 3 O O O O O O . ",
"X j # k l s z d X x c 8 O + # v b % z n y m b M N O O O O O O . ",
"B z c $ V x C 1 8 Z A o O O 8 i 2 2 2 y n y S D w O O O O O O . ",
"B , F # l G H % 2 J $ + O O O w o s c A , K L P ; + O O O O O . ",
"I p U b Y f m b T 2 w + + O O j R E u A v m W Q > 8 ! ! @ - O . ",
"X a ~ z ^ / ( 0 ) E o $ _ + + 6 t 0 ` 2 f S ' ] [ { * 5 4 $ O . ",
". o , U } |  .m A # x ..X.+ = o + M # s < r o.O.+.G - 8 O @ O . ",
". 8 6 U @.#./ ^ [ $.%.&.3 - 8 : *.=.-.w w o ;.:.' >.2 + + O O . ",
". + a ,.<.1.2.3.z x $ w + 8 2 F 4.o.F 7 O = 5.- 6.7.8.A 9.+ O . ",
". O w > 0.q./ a ; w + O 8 6 m , 8.w.9 n : e.4 & 8 r.t.y.< 8 + . ",
". O 8 9 0.u.i.p.+ O O O 8 -.a.s.8.7.7 ) A o d.* + 8 : P f.g.+ X ",
". 8 6 a.h.=.j.* = O O O 8 j J k.l.z.f T < o 3 4 = O w u x.c.v.X ",
". w s.b.f.@ + n.O O O O + $ T f *.m.) U p o 3 4 = O O w u M.N.;.",
"X @ B.V.C.p.O Z.* = O O + $ A.U S.D.F.G.# 8 3 4 = O O + H.J.K.+ ",
"X @ L.#.v.P.+ & n.O O O O w I.) U.Y.( z E + 3 4 = O O T.R.E.e.X ",
". + W., Q v.Q.!.Z.* = O O w # ) ~.^./.A O = 3 4 = O w D (.i 8 . ",
". O + w 6 ).=.$ !.4 O O O + ; d _.`.Y -.8 O 3 4 = 8 E z.'.w O . ",
". O O O 8 = ].[.{.& M = + O 8 i 7 }.$.Q.+ O 3 4 + 8 |.=.8 + O . ",
". O O O O + w D  XG .X!.O p.H.R 0 b. .a 8 + & h o A z.$ 8 O O . ",
". O O O O O O !.$ XXf. X .oXJ.c 9 OXc ` 1 O E Z.D 4.% w O O O . ",
". O O O O O O O 8 - +X@X#X#.`.y.$X%X&X[.S.*X( =X$X-Xw O O O O . ",
". O O O O O O O O 8 .X;X2.U :Xf >X^.c._.,XS.N.<X1X$ 9.O O O O . ",
". O O O O O O O O O 8 W.F J f 2X/ J.k. .3XF.4XW 5X8 O O O O O . ",
". O O O O O O O O O 8 6X..f g I.7X7Xq 7 ) J A i @ O O O O O O . ",
". O O O O O O O O O 8 % c < t g $XZ , : ` d 0 w O O O O O O O . ",
". O O O O O O O O O w b f x b v ^ $X,.A 8X7 d @ + O O O O O O . ",
"o O O O O O O O O O w x , I.` 0 _.~.z 2 q v d $ + O O O O O O o ",
"  . . . . . . . . . I : > I.r 9X0X Xv 8XA g ` O X . . . . . .   "};
