/* XPM */
static char * spGreasePencil_downAll_xpm[] = {
"30 30 280 2",
"  	c None",
". 	c #818181",
"+ 	c #828282",
"@ 	c #C8C8C8",
"# 	c #D1D1D1",
"$ 	c #D0D0D0",
"% 	c #CFCFCF",
"& 	c #D8D8D8",
"* 	c #E7E7E7",
"= 	c #E8E8E8",
"- 	c #E5E5E5",
"; 	c #E3E3E3",
"> 	c #E4E4E4",
", 	c #B8B8B8",
"' 	c #D7D7D6",
") 	c #D7D7D7",
"! 	c #D8D9D9",
"~ 	c #D9D9D9",
"{ 	c #DADADA",
"] 	c #DADBDA",
"^ 	c #D6D6D6",
"/ 	c #D5D5D6",
"( 	c #D6D6D7",
"_ 	c #DBDBDB",
": 	c #B9B8B8",
"< 	c #DAD9D9",
"[ 	c #DCDCDC",
"} 	c #D5D5D5",
"| 	c #DBDADA",
"1 	c #D9D8D8",
"2 	c #B9B9B9",
"3 	c #DBDBDA",
"4 	c #DCDBDB",
"5 	c #DADBDB",
"6 	c #DDDDDD",
"7 	c #DBDCDB",
"8 	c #D9DADA",
"9 	c #DADAD9",
"0 	c #DCDBDC",
"a 	c #D9D9DA",
"b 	c #D9DAD9",
"c 	c #DEDEDE",
"d 	c #DFDFDF",
"e 	c #DEDEDD",
"f 	c #DBDCDC",
"g 	c #BABABA",
"h 	c #D4D4D4",
"i 	c #DCDCDB",
"j 	c #DEDEDF",
"k 	c #DFDFE0",
"l 	c #E1E0E0",
"m 	c #E0E0E1",
"n 	c #D6D7D6",
"o 	c #CCCDCC",
"p 	c #BABAB9",
"q 	c #D5D5D4",
"r 	c #CDCDCD",
"s 	c #B2B2B2",
"t 	c #CBCBCC",
"u 	c #DEDFDE",
"v 	c #E1E1E1",
"w 	c #E2E2E2",
"x 	c #DFDEDF",
"y 	c #C9C9C9",
"z 	c #9A9A99",
"A 	c #909090",
"B 	c #C2C2C2",
"C 	c #DDDEDD",
"D 	c #DCDDDC",
"E 	c #9B9B9B",
"F 	c #6F6F6F",
"G 	c #A0A0A0",
"H 	c #E5E5E4",
"I 	c #E3E2E2",
"J 	c #A9A9A9",
"K 	c #5B5B5B",
"L 	c #565756",
"M 	c #DBDBDC",
"N 	c #DEDDDE",
"O 	c #BBBBBB",
"P 	c #D3D3D3",
"Q 	c #BEBEBE",
"R 	c #676767",
"S 	c #414141",
"T 	c #7F7F7F",
"U 	c #E6E6E6",
"V 	c #939393",
"W 	c #474747",
"X 	c #464646",
"Y 	c #8A8A8A",
"Z 	c #E0E0E0",
"` 	c #838383",
" .	c #D8D8D7",
"..	c #B3B4B3",
"+.	c #272727",
"@.	c #595959",
"#.	c #E5E4E4",
"$.	c #E7E7E6",
"%.	c #E6E7E6",
"&.	c #E7E6E6",
"*.	c #E4E5E4",
"=.	c #888888",
"-.	c #404040",
";.	c #3F3F3F",
">.	c #878787",
",.	c #DFE0DF",
"'.	c #848484",
").	c #BCBCBC",
"!.	c #B1B1B1",
"~.	c #333333",
"{.	c #1E1E1E",
"].	c #494949",
"^.	c #CACACA",
"/.	c #E4E3E4",
"(.	c #828383",
"_.	c #3C3C3D",
":.	c #3C3C3C",
"<.	c #BBBCBB",
"[.	c #B7B7B7",
"}.	c #313131",
"|.	c #191919",
"1.	c #C3C3C3",
"2.	c #E2E1E1",
"3.	c #7A7A7A",
"4.	c #363636",
"5.	c #7B7B7B",
"6.	c #E0E0DF",
"7.	c #E1E0E1",
"8.	c #858585",
"9.	c #BFBFBF",
"0.	c #151515",
"a.	c #B5B5B5",
"b.	c #717171",
"c.	c #2A2A2A",
"d.	c #282828",
"e.	c #696969",
"f.	c #D0CFD0",
"g.	c #868686",
"h.	c #BDBDBD",
"i.	c #CBCBCB",
"j.	c #AEAEAE",
"k.	c #0E0E0E",
"l.	c #202020",
"m.	c #AAAAAA",
"n.	c #B3B3B3",
"o.	c #C9C8C8",
"p.	c #D2D1D1",
"q.	c #616161",
"r.	c #1C1C1C",
"s.	c #4C4C4C",
"t.	c #9E9E9E",
"u.	c #9A9A9A",
"v.	c #D2D2D2",
"w.	c #DDDDDC",
"x.	c #BDBDBC",
"y.	c #999999",
"z.	c #5F5F5F",
"A.	c #161616",
"B.	c #070707",
"C.	c #0C0C0C",
"D.	c #292929",
"E.	c #424242",
"F.	c #525252",
"G.	c #C0C0C0",
"H.	c #C5C5C5",
"I.	c #8B8B8B",
"J.	c #111111",
"K.	c #0F0F0F",
"L.	c #242424",
"M.	c #383838",
"N.	c #707070",
"O.	c #9D9D9D",
"P.	c #0D0D0D",
"Q.	c #030303",
"R.	c #060606",
"S.	c #171717",
"T.	c #5D5D5D",
"U.	c #B6B7B7",
"V.	c #B0B0B0",
"W.	c #4D4D4D",
"X.	c #1F1F1F",
"Y.	c #141414",
"Z.	c #0A0A0A",
"`.	c #040404",
" +	c #DADADB",
".+	c #1A1A1A",
"++	c #090909",
"@+	c #010101",
"#+	c #0B0B0B",
"$+	c #393939",
"%+	c #919191",
"&+	c #C4C4C4",
"*+	c #1B1B1B",
"=+	c #020202",
"-+	c #080808",
";+	c #727272",
">+	c #444545",
",+	c #121212",
"'+	c #2C2C2C",
")+	c #8D8D8D",
"!+	c #969696",
"~+	c #131313",
"{+	c #BEBDBE",
"]+	c #747373",
"^+	c #050505",
"/+	c #222222",
"(+	c #CBCBCA",
"_+	c #777777",
":+	c #1D1D1D",
"<+	c #444444",
"[+	c #DDDCDC",
"}+	c #ADADAD",
"|+	c #454545",
"1+	c #181818",
"2+	c #E2E2E3",
"3+	c #E4E5E5",
"4+	c #E1E1E0",
"5+	c #BDBCBC",
"6+	c #232323",
"7+	c #929292",
"8+	c #CCCCCD",
"9+	c #E6E5E5",
"0+	c #E1E1E2",
"a+	c #2F2F2F",
"b+	c #373737",
"c+	c #EBEBEB",
"d+	c #EDEDED",
"e+	c #EAEAEA",
"f+	c #B8B8B7",
"g+	c #2E2E2E",
"h+	c #5C5C5C",
"i+	c #BEBFBE",
"j+	c #6D6D6D",
"k+	c #4F4F4F",
"l+	c #F1F1F1",
"m+	c #F3F3F4",
"n+	c #F1F1F2",
"o+	c #808080",
"p+	c #6C6C6C",
"q+	c #E8E7E7",
"r+	c #E9E9E9",
"s+	c #E8E8E9",
"t+	c #E6E6E5",
"u+	c #A6A6A6",
"v+	c #E9E8E9",
"w+	c #F5F5F6",
"x+	c #F8F8F8",
"y+	c #F7F7F7",
"z+	c #F3F3F3",
"A+	c #C7C7C7",
"B+	c #E7E8E8",
"C+	c #EBEBEA",
"D+	c #E9E9EA",
"E+	c #F0F0F0",
"F+	c #F6F5F5",
"G+	c #FAF9FA",
"H+	c #FBFBFB",
"I+	c #F4F4F4",
"J+	c #EFEFEF",
"K+	c #EBEBEC",
"L+	c #EBECEB",
"M+	c #EEEEEE",
"N+	c #F5F5F5",
"O+	c #F9F9F9",
"P+	c #FDFDFD",
"Q+	c #FAFAFA",
"R+	c #F4F5F4",
"S+	c #ECECEC",
"T+	c #EDEDEE",
"U+	c #F2F1F2",
"V+	c #FBFAFA",
"W+	c #FCFCFC",
"X+	c #F9F9FA",
"Y+	c #EFEEEF",
"Z+	c #EAEAEB",
"`+	c #D4D3D4",
" @	c #D3D2D2",
".@	c #D0D0D1",
"+@	c #CFD0CF",
"@@	c #CECECE",
". . . . . . . . . . . + + + + + . . . . . . . . . . . . . . ",
". @ # # # # # $ $ $ $ $ % % $ $ $ $ $ $ # # # # # # # # @ . ",
". & * * = = = = = = * - ; ; > - * = = = = = = = = * * * & . ",
". , ' ) & ! ~ { { ] ~ & ^ / ( ! { _ _ _ { { ~ ~ & & ) ' , . ",
". : & ~ < { _ _ [ _ ] & ^ } ^ ~ _ [ [ [ _ { { | { < 1 & , . ",
". 2 ~ { | | _ 3 _ 4 5 ~ ) ) & _ [ 6 6 7 { { ~ 8 { 5 9 ~ 2 . ",
". 2 _ 0 _ { a ~ b 3 [ _ _ _ [ c d e [ { & ) & ~ ] f _ { 2 . ",
". g [ [ | & ^ h ) a i c j c k l m c _ n % o h ) _ [ [ [ p . ",
". g [ _ ~ q r s t ) _ u v w w w v x ~ y z A B ) _ 6 C 6 g . ",
". g D { ^ r E F G $ { d w > H > I c ~ J K L E ^ M N c c g . ",
"+ O [ & P Q R S T r ~ k > U U - > d & V W X Y ^ [ d Z d O . ",
"` O [  .# ..S +.@.r ~ Z #.$.%.&.*.d & =.-.;.>.^ [ ,.Z m O . ",
"'.)._ ^ $ !.~.{.].^.) c /.U U U > x ) (._.:.'.^ _ d m Z <.. ",
"'.).{ } $ [.}.|.-.1.} [ Z 2.w 2.Z [ } 3.4.4.5.P a 6 6.7.).+ ",
"8.).| } % 9.}.0.~.a.# ^ ~ _ _ _ ~ ^ # b.c.d.e.f.} ~ 4 j ).` ",
"g.h.{ h i.j.c.k.l.8.m.n.O o.p.$ @ 2 !.q.l.r.s.t.u.s v.w.x.'.",
">.h.& @ y.z.A.B.C.D.:.E.F.8.G.H.I.@.].+.J.K.L.M.E.N.9._ h.'.",
"=.Q h O.s.D.P.Q.R.P.J.S.+.T.U.V.W.X.Y.Z.`.R.J.A.+.@.G. +h.'.",
"=.Q P I.4..+++@+Q.Z.#+S.$+%+&+).K *+P.R.=+Q.-+J.D.;+% [ h.'.",
">.Q ) m.>+r.#+Q.`.Z.,+'+)+i.# r !+$+~+C.P.Z.#+.+W.a.& d {+` ",
"g.Q 5 ^.]++.P.`.^+P./+R (+~ _ & H._+D.,+Y..+:+<+G P [+w Q + ",
"'.Q c ^ }+|+1+C.#+1+|+!._ 2+3+4+& 5+q.6+Y..+S 7+8+{ v 9+Q + ",
"` Q 0+_ % '.a+r.{.b+T h ; c+d+e+w & f+T.a+g+h+2 & Z - = Q . ",
"+ i+- Z { 1.j+W k++ 1.4+e+l+m+n+c+; { 9.o+p+%+^.N > q+r+Q . ",
". 9.s+t+v _ &+u+n.$ Z v+l+w+x+y+z+d+U d h A+r _ ; B+e+C+Q . ",
". 9.c+r+* > w v w - D+E+F+G+H+H+x+I+J+e+U > ; U B+c+c+e+Q . ",
". 9.K+c+K+e+e+e+L+M+l+N+O+H+P+P+Q+x+R+l+M+S+c+S+S+d+S+c+Q . ",
". 9.K+d+T+M+M+E+U+z+N+x+V+H+W+W+H+X+y+N+z+l+E+Y+M+M+S+Z+Q . ",
". O % % $ $ # # v.v.P P `+h h h `+P P  @v.# # .@$ +@% @@O . ",
". . . . . . . . . . . . . . . . . . . . . . . . . . . . . . "};
