/* XPM */
static char * helpButton_xpm[] = {
"57 21 172 2",
"  	c None",
". 	c #818181",
"+ 	c #848484",
"@ 	c #8E8E8E",
"# 	c #939393",
"$ 	c #E1E1E1",
"% 	c #F4F4F4",
"& 	c #F0F0F0",
"* 	c #D3D3D3",
"= 	c #DCDCDC",
"- 	c #DDDDDD",
"; 	c #DEDEDE",
"> 	c #DEDEDF",
", 	c #DFDFDF",
"' 	c #DFE0DF",
") 	c #E0E0E0",
"! 	c #E1E1E0",
"~ 	c #E2E1E2",
"{ 	c #E2E2E2",
"] 	c #E2E2E3",
"^ 	c #E2E3E3",
"/ 	c #E3E3E2",
"( 	c #E3E3E3",
"_ 	c #E3E3E4",
": 	c #E0DFDF",
"< 	c #E0E0DF",
"[ 	c #464646",
"} 	c #1C1C1C",
"| 	c #050505",
"1 	c #000000",
"2 	c #151515",
"3 	c #535353",
"4 	c #CBCBCB",
"5 	c #E4E4E4",
"6 	c #E4E4E5",
"7 	c #E5E5E5",
"8 	c #E5E5E4",
"9 	c #DFDFE0",
"0 	c #E1E0E0",
"a 	c #E2E1E1",
"b 	c #E2E2E1",
"c 	c #E3E4E3",
"d 	c #DADADA",
"e 	c #1A1A1A",
"f 	c #5A5A5A",
"g 	c #7A7A7A",
"h 	c #777677",
"i 	c #2A2A2A",
"j 	c #353535",
"k 	c #E6E6E6",
"l 	c #E7E6E7",
"m 	c #E7E7E7",
"n 	c #E8E7E7",
"o 	c #E7E8E7",
"p 	c #E7E8E8",
"q 	c #E5E6E5",
"r 	c #E4E5E4",
"s 	c #CCCCCC",
"t 	c #020202",
"u 	c #E8E8E8",
"v 	c #E8E8E9",
"w 	c #E9E8E9",
"x 	c #E9E9E9",
"y 	c #EAE9E9",
"z 	c #EAEAEA",
"A 	c #E9EAEA",
"B 	c #E9EAE9",
"C 	c #E9E9EA",
"D 	c #E4E3E3",
"E 	c #E6E6E5",
"F 	c #E6E6E7",
"G 	c #E7E7E8",
"H 	c #B8B8B8",
"I 	c #333333",
"J 	c #EAEAEB",
"K 	c #EAEBEA",
"L 	c #EBEBEB",
"M 	c #ECEBEB",
"N 	c #ECEBEC",
"O 	c #EBECEB",
"P 	c #ECECEC",
"Q 	c #EBEBEC",
"R 	c #E6E7E6",
"S 	c #E8E8E7",
"T 	c #EBEBEA",
"U 	c #CDCDCD",
"V 	c #262626",
"W 	c #363636",
"X 	c #ECEDEC",
"Y 	c #EDEDED",
"Z 	c #EEEDED",
"` 	c #EEEDEE",
" .	c #EEEEEE",
"..	c #E6E7E7",
"+.	c #E8E9E8",
"@.	c #EAEAE9",
"#.	c #EBEAEB",
"$.	c #EDEDEC",
"%.	c #BDBDBD",
"&.	c #111111",
"*.	c #6B6C6B",
"=.	c #EEEFEE",
"-.	c #EFEFEF",
";.	c #F0EFEF",
">.	c #F0EFF0",
",.	c #EBECEC",
"'.	c #ECECED",
").	c #282828",
"!.	c #F1F1F1",
"~.	c #F2F1F1",
"{.	c #F2F1F2",
"].	c #F2F2F2",
"^.	c #E8E7E8",
"/.	c #E8E9E9",
"(.	c #ECEDED",
"_.	c #EDEDEE",
":.	c #EEEEEF",
"<.	c #EFF0F0",
"[.	c #0E0E0E",
"}.	c #F1F2F1",
"|.	c #F3F3F3",
"1.	c #F4F3F3",
"2.	c #F4F3F4",
"3.	c #EAEBEB",
"4.	c #ECECEB",
"5.	c #F0F0EF",
"6.	c #F0F1F1",
"7.	c #F3F2F2",
"8.	c #F3F2F3",
"9.	c #F4F4F3",
"0.	c #F4F4F5",
"a.	c #F5F4F5",
"b.	c #F5F5F5",
"c.	c #F5F6F5",
"d.	c #F5F6F6",
"e.	c #F6F6F6",
"f.	c #EEEEED",
"g.	c #2C2C2C",
"h.	c #F5F4F4",
"i.	c #F5F5F4",
"j.	c #F6F6F7",
"k.	c #F7F7F7",
"l.	c #F7F8F7",
"m.	c #F7F8F8",
"n.	c #F8F8F8",
"o.	c #EFEEEE",
"p.	c #F0F0F1",
"q.	c #F7F7F6",
"r.	c #F7F7F8",
"s.	c #F9F9F9",
"t.	c #FAF9F9",
"u.	c #FAFAF9",
"v.	c #FAFAFA",
"w.	c #FAFAFB",
"x.	c #FAFBFB",
"y.	c #FBFBFB",
"z.	c #F2F2F1",
"A.	c #F2F2F3",
"B.	c #F3F3F4",
"C.	c #F6F5F6",
"D.	c #F7F6F6",
"E.	c #FBFAFA",
"F.	c #FCFBFC",
"G.	c #FCFCFC",
"H.	c #FCFCFD",
"I.	c #FDFDFD",
"J.	c #FDFDFC",
"K.	c #838383",
"L.	c #8C8C8C",
"M.	c #919191",
"N.	c #929292",
"O.	c #909090",
". . . + @ # # # # # # # # # # # # # # # # # # # # # # # # # # # # # # # # # # # # # # # # # # # # # # # # @ + . . ",
". . . . . . . . . . . . . . . . . . . . . . . . . . . . . . . . . . . . . . . . . . . . . . . . . . . . . . . . . ",
". . $ $ $ $ $ $ $ $ $ $ $ $ $ $ $ $ $ $ $ $ $ $ $ $ $ $ $ $ $ $ $ $ $ $ $ $ $ $ $ $ $ $ $ $ $ $ $ $ $ $ $ $ $ . . ",
". . % % % % % % % % % % % % % % % % % % % % % % % % % % % % % % % % % % % % % % % % % % % % % % % % % % % % % . . ",
". . & & & & & & & & & & & & & & & & & & & & & & & & & & & & & & & & & & & & & & & & & & & & & & & & & & & & & . . ",
". . * = - - - - ; ; ; > , , , ' ) ) ) ) ) ! $ $ $ $ ~ { { { { { ] ^ / ( / ( ( ( ( ( ( ( ( ( ( ( ( _ ( ( ( ( * . . ",
". . * ; ; ; , , : < ) ) ) $ $ $ $ { { { { { ( = [ } | 1 2 3 4 5 5 6 7 7 8 7 7 7 7 7 7 7 7 7 7 7 7 7 7 7 7 7 * . . ",
". . * , 9 ) ) 0 $ $ a b { { ( ( ( c c c 5 5 7 d e f g h i 1 j k k l m m m m m m m n m m o p p o o m m m m m * . . ",
". . * $ $ b { { / ( ( c 5 5 5 7 7 7 7 q k k k r 7 m m m s 1 t u u v w x x x x x y y x x y z z A B y y x C x * . . ",
". . * { ^ ( D 5 5 5 8 7 7 E k k F m m G u u u u x x x x H 1 I z z J J K L L L L M M N N M M L O P P L Q Q L * . . ",
". . * 5 5 r 7 k k k k R m S u u u u w C z z z z T L L U V W * P P P P X Y Z Z ` Z Z  . . . . . . . . . . . .* . . ",
". . * k k k ..m m o u +.x x y @.z z #.L L N P P $.Y %.&.*.K  . . . .=.-.-.;.;.>.;.;.& & & & & & & & & & & & * . . ",
". . * m m G p u v x x z z z L L L ,.P '.'.Y Y  . . .).1 ) -.& & & & & !.!.!.!.~.~.{.].].].].].].].].].].].].* . . ",
". . * ^.u /.x C z z K L L P P X (.Y _. . .:.-.<.& u [.[.!.!.}.].].].].|.|.|.|.1.1.2.2.% % % % % % % % % % % * . . ",
". . * w x C z K 3.L 4.P P Y Y `  . .-.-.5.& & 6.!.!.{.].7.8.|.|.1.9.% % 0.a.b.b.c.d.e.e.e.e.e.e.e.e.e.e.e.e.* . . ",
". . * x C z L L Q P P Y Y f. .:.-.-.& & 6.!.].].].x g.g.% % h.i.b.c.e.e.e.j.k.k.l.m.m.n.n.n.n.n.n.n.n.n.n.n.* . . ",
". . * z z L L P P '.Y Y  .o.-.-.<.& p.!.}.].].8.1.S 1 1 b.b.e.e.q.k.r.m.n.s.s.t.u.v.v.w.x.y.y.y.y.y.y.y.y.w.* . . ",
". . * z L L ,.P '.Y Y  . .-.-.;.& !.!.z.].A.|.|.B.% a.b.C.e.D.k.k.n.n.s.s.u.v.E.y.y.F.G.H.I.I.I.I.I.I.J.J.G.* . . ",
". . * * * * * * * * * * * * * * * * * * * * * * * * * * * * * * * * * * * * * * * * * * * * * * * * * * * * * . . ",
". . . . . . . . . . . . . . . . . . . . . . . . . . . . . . . . . . . . . . . . . . . . . . . . . . . . . . . . . ",
". . . K.L.M.N.# # # # # # # # # O.O.O.O.O.O.O.O.O.O.O.O.O.O.O.O.O.O.O.O.O.O.O.O.O.O.O.O.O.O.O.O.O.O.O.O.O.L.K.. . "};
