/* XPM */
static char * spGreasePencil_ghostPostOn_xpm[] = {
"30 30 256 2",
"  	c None",
". 	c #818181",
"+ 	c #C8C8C8",
"@ 	c #D1D1D1",
"# 	c #D8D8D8",
"$ 	c #E8E8E8",
"% 	c #E9E9E9",
"& 	c #B8B8B8",
"* 	c #D8D8D7",
"= 	c #D9D9D9",
"- 	c #D9DADA",
"; 	c #DADADA",
"> 	c #DBDBDB",
", 	c #DBDCDB",
"' 	c #DCDCDC",
") 	c #DCDCDD",
"! 	c #DCDDDD",
"~ 	c #B9B8B8",
"{ 	c #DAD9D9",
"] 	c #DCDDDC",
"^ 	c #DDDDDC",
"/ 	c #DDDDDD",
"( 	c #DBDADA",
"_ 	c #B9B9B9",
": 	c #DCDBDB",
"< 	c #DEDDDD",
"[ 	c #DDDEDE",
"} 	c #DEDEDE",
"| 	c #DFDEDE",
"1 	c #DDDEDD",
"2 	c #DBDCDC",
"3 	c #DADBDB",
"4 	c #DADAD9",
"5 	c #DCDBDC",
"6 	c #DDDDDE",
"7 	c #DEDEDD",
"8 	c #DFDFDF",
"9 	c #BABABA",
"0 	c #DCDCDB",
"a 	c #BABAB9",
"b 	c #D9D9DA",
"c 	c #D7D7D7",
"d 	c #D7D8D7",
"e 	c #D8D7D8",
"f 	c #DEDFDE",
"g 	c #DADADB",
"h 	c #D4D4D4",
"i 	c #D0D0D0",
"j 	c #CDCDCD",
"k 	c #CCCCCC",
"l 	c #CFCFCF",
"m 	c #D3D3D3",
"n 	c #D4D4D3",
"o 	c #CECECE",
"p 	c #DFDEDF",
"q 	c #BBBBBB",
"r 	c #E0DFDF",
"s 	c #D6D6D6",
"t 	c #CFD0D0",
"u 	c #BEBEBE",
"v 	c #A0A0A0",
"w 	c #888888",
"x 	c #8E8E8E",
"y 	c #A3A3A3",
"z 	c #C5C5C5",
"A 	c #C4C4C4",
"B 	c #B6B6B6",
"C 	c #ABABAB",
"D 	c #AFAFAF",
"E 	c #C6C6C6",
"F 	c #E0E0E0",
"G 	c #DFDFDE",
"H 	c #D6D7D6",
"I 	c #CBCBCB",
"J 	c #9D9D9D",
"K 	c #5A595A",
"L 	c #3F3F3F",
"M 	c #474747",
"N 	c #515151",
"O 	c #525252",
"P 	c #636363",
"Q 	c #737373",
"R 	c #7F7F7F",
"S 	c #848484",
"T 	c #8B8B8B",
"U 	c #909090",
"V 	c #929293",
"W 	c #9E9E9E",
"X 	c #B0B0B0",
"Y 	c #D2D2D2",
"Z 	c #DFDFE0",
"` 	c #BCBCBC",
" .	c #999899",
"..	c #444444",
"+.	c #2D2D2D",
"@.	c #434343",
"#.	c #4A4A4A",
"$.	c #3D3D3D",
"%.	c #303030",
"&.	c #383838",
"*.	c #6A6A6A",
"=.	c #8A8A8A",
"-.	c #8C8C8C",
";.	c #8D8D8D",
">.	c #929292",
",.	c #C0C0C0",
"'.	c #BBBCBB",
").	c #BFBFBF",
"!.	c #2F2F2F",
"~.	c #595959",
"{.	c #555555",
"].	c #2A2A2A",
"^.	c #3C3C3C",
"/.	c #979797",
"(.	c #B2B2B2",
"_.	c #AEAEAE",
":.	c #C8C8C9",
"<.	c #D5D6D5",
"[.	c #E0DFE0",
"}.	c #828282",
"|.	c #A9A9A9",
"1.	c #7E7E7E",
"2.	c #989898",
"3.	c #A4A4A4",
"4.	c #999999",
"5.	c #5B5B5B",
"6.	c #626262",
"7.	c #4E4E4E",
"8.	c #242424",
"9.	c #727272",
"0.	c #B1B1B1",
"a.	c #DEDEDF",
"b.	c #BDBDBD",
"c.	c #767676",
"d.	c #5F5F5F",
"e.	c #7C7C7C",
"f.	c #7D7D7D",
"g.	c #282828",
"h.	c #464646",
"i.	c #898989",
"j.	c #BDBDBC",
"k.	c #C9C9C9",
"l.	c #858585",
"m.	c #343434",
"n.	c #696969",
"o.	c #787878",
"p.	c #777777",
"q.	c #878787",
"r.	c #363636",
"s.	c #B7B7B7",
"t.	c #E1E1E1",
"u.	c #313131",
"v.	c #424242",
"w.	c #6B6B6B",
"x.	c #838383",
"y.	c #707070",
"z.	c #252525",
"A.	c #969696",
"B.	c #AAAAAA",
"C.	c #A6A6A6",
"D.	c #E0E0E1",
"E.	c #BDBEBE",
"F.	c #E3E3E3",
"G.	c #D5D5D5",
"H.	c #B5B5B5",
"I.	c #666666",
"J.	c #3E3E3E",
"K.	c #585858",
"L.	c #5C5C5C",
"M.	c #5D5D5D",
"N.	c #505050",
"O.	c #212121",
"P.	c #616161",
"Q.	c #9B9B9B",
"R.	c #919191",
"S.	c #E2E2E2",
"T.	c #E5E5E5",
"U.	c #A2A2A2",
"V.	c #606060",
"W.	c #414141",
"X.	c #353535",
"Y.	c #2B2B2B",
"Z.	c #323232",
"`.	c #535353",
" +	c #868686",
".+	c #BEBDBE",
"++	c #E7E8E8",
"@+	c #E6E6E6",
"#+	c #E3E2E2",
"$+	c #A7A7A7",
"%+	c #808080",
"&+	c #A8A8A8",
"*+	c #E6E5E5",
"=+	c #E7E7E7",
"-+	c #E4E4E4",
";+	c #E1E0E1",
">+	c #CFCFD0",
",+	c #CECECF",
"'+	c #D3D2D2",
")+	c #E3E3E4",
"!+	c #E9E8E8",
"~+	c #EAEAEB",
"{+	c #EBEBEB",
"]+	c #EAEAEA",
"^+	c #E2E2E1",
"/+	c #BEBFBE",
"(+	c #ECECEC",
"_+	c #EDEDED",
":+	c #EDEDEE",
"<+	c #EEEEEE",
"[+	c #EDECED",
"}+	c #EEEEED",
"|+	c #EEEEEF",
"1+	c #ECEBEB",
"2+	c #EBEBEC",
"3+	c #EDEDEC",
"4+	c #EEEFEE",
"5+	c #EFEFF0",
"6+	c #F0F0F0",
"7+	c #F2F1F2",
"8+	c #F2F2F2",
"9+	c #F3F2F3",
"0+	c #F3F3F3",
"a+	c #F5F4F5",
"b+	c #F6F6F6",
"c+	c #F6F6F7",
"d+	c #F7F7F7",
"e+	c #F5F5F5",
"f+	c #F4F4F4",
"g+	c #F1F1F1",
"h+	c #EFEFEF",
"i+	c #EDEEEE",
"j+	c #EBEBEA",
"k+	c #EFEEEE",
"l+	c #F4F4F5",
"m+	c #F8F8F8",
"n+	c #FAF9F9",
"o+	c #FBFAFB",
"p+	c #FBFBFB",
"q+	c #FAFAFA",
"r+	c #F9F9F9",
"s+	c #EEEFEF",
"t+	c #ECECED",
"u+	c #F1F1F2",
"v+	c #F4F5F4",
"w+	c #F8F7F8",
"x+	c #FCFCFC",
"y+	c #FDFDFD",
"z+	c #F8F9F8",
"A+	c #F6F5F6",
"B+	c #FCFBFB",
"C+	c #FAFAFB",
"D+	c #D5D4D5",
"E+	c #D4D3D3",
"F+	c #D1D1D2",
"G+	c #D0D1D0",
". . . . . . . . . . . . . . . . . . . . . . . . . . . . . . ",
". + @ @ @ @ @ @ @ @ @ @ @ @ @ @ @ @ @ @ @ @ @ @ @ @ @ @ + . ",
". # $ $ % % % % % % % % % % % % % % % % % % % % % $ $ $ # . ",
". & * # = - ; > > , ' ' ' ) ) ! ' ' ' ' > > ; ; = = # * & . ",
". ~ = ; { ; > > ' ' ] ^ / / / / / / ' ' ' > > ( ; ( { = & . ",
". _ = ; ( : ' ^ / < [ } } } } | } } } 1 / / ' 2 > 3 4 ; _ . ",
". _ > 5 ' / 6 } 1 7 } } 8 8 8 8 8 } } } } } } / ] 2 > ; _ . ",
". 9 ' / < } } / / ) 0 ' ) / 6 < ) ' ' ] / 1 } } } / ' ' a . ",
". 9 / } 8 } / ' b # c d # = ; = # e c # 4 > / } } } 1 / 9 . ",
". 9 f 8 } / g c h i j k l m n m @ l o @ h c ; ' 6 p } } 9 . ",
". q r } / ; s t u v w x y 9 z A B C D 9 E l h e > / 8 8 q . ",
". q F G ' H I J K L M N O P Q R S T U V W X E Y c , } Z q . ",
". ` F / = l  ...+.@.#.#.M $.%.&.*.=.-.-.;.>.v ,.Y # / 8 '.. ",
". ` F ' s ).P !.~.. -.v x {.%.].^./.(._.v U x J :.<.0 [.` . ",
"}.` r ; Y |.L !.1.2.3.4.R 5.6.7.8.9.C C C 0.2.=.B Y ; a.` }.",
"}.b.8 = j >.%.&.c.S =.. *.d.e.f.g.h.2.3.X u D i.y o = G j.}.",
"}.b.F ; k.l.m.&.n.R Q o.T *.p.q.!.r.;.9 s.9 & -.J I ; F b.}.",
"}.b.t.> j U @.u.v.w.9.x.Q 6.y.n.z.v.A.B._._ X =.C.l > D.b.}.",
"}.E.F.} G.H.I.J.L K.w.L.M.7.N.!.O.P.U 4.Q.y R.U _ G./ S.b.}.",
". u T.S.' m U.Q V.W.X.X.u.%.Y.Z.`.f.x.x. +T A.H.m ' t.T..+. ",
". u ++@+#+' G.q $+U %+1.o.f.-.W B.&+&+C.C & + G.' t.*+=+u . ",
". u % % =+-+;+' s @ >+o o ,+m n m '+Y Y m d ' F )+@+$ !+u . ",
". u ~+{+{+]+$ @+-+S.S.S.S.F.F.F.#+S.^+S.S.F.@+=+% {+]+]+u . ",
". /+{+(+_+:+<+_+[+(+(+}+<+<+|+|+<+<+_+(+(+(+(+_+[+(+1+]+u . ",
". ).2+3+4+5+6+7+8+9+0+a+b+c+d+d+b+e+f+8+8+g+g+h+h+i+(+j+u . ",
". ).(+_+k+6+8+0+l+e+c+m+n+o+p+p+q+r+d+b+f+f+8+g+s+<+(+]+u . ",
". ).t+_+|+6+u+0+v+b+w+r+p+x+y+y+p+q+z+d+e+f+8+g+h+<+(+(+u . ",
". ).t+<+5+g+8+f+A+d+m+q+B+x+y+y+x+C+r+m+b+e+0+7+6+h+_+2+u . ",
". q i i @ @ Y Y m m h h D+G.G.G.D+h h E+m Y Y F+@ G+i l q . ",
". . . . . . . . . . . . . . . . . . . . . . . . . . . . . . "};
