/* XPM */
static char * spGreasePencil_down_xpm[] = {
"30 30 267 2",
"  	c None",
". 	c #818181",
"+ 	c #828282",
"@ 	c #838383",
"# 	c #C8C8C8",
"$ 	c #D1D1D1",
"% 	c #D0D0D0",
"& 	c #CFCFCF",
"* 	c #D8D8D8",
"= 	c #E8E8E8",
"- 	c #E9E9E9",
"; 	c #E7E7E7",
"> 	c #E6E6E6",
", 	c #E3E3E3",
"' 	c #E1E1E1",
") 	c #DFDFDF",
"! 	c #E2E2E2",
"~ 	c #E4E4E4",
"{ 	c #B8B8B8",
"] 	c #D8D8D7",
"^ 	c #D9D9D9",
"/ 	c #D9DADA",
"( 	c #DADADA",
"_ 	c #DADBDA",
": 	c #D5D5D5",
"< 	c #D2D2D3",
"[ 	c #D0D0D1",
"} 	c #D4D4D4",
"| 	c #D7D7D7",
"1 	c #DBDBDB",
"2 	c #B9B8B8",
"3 	c #DBDADA",
"4 	c #DCDCDC",
"5 	c #D3D3D3",
"6 	c #C9C9C9",
"7 	c #BCBCBC",
"8 	c #C6C6C6",
"9 	c #D2D2D2",
"0 	c #DCDBDB",
"a 	c #DAD9D9",
"b 	c #B9B9B9",
"c 	c #DDDCDC",
"d 	c #DDDDDC",
"e 	c #DDDDDD",
"f 	c #CBCBCB",
"g 	c #969696",
"h 	c #7B7B7B",
"i 	c #A9A9A9",
"j 	c #DCDDDC",
"k 	c #DBDCDC",
"l 	c #DADBDB",
"m 	c #DADAD9",
"n 	c #DCDBDC",
"o 	c #DDDDDE",
"p 	c #DEDEDE",
"q 	c #DEDFDE",
"r 	c #BEBEBE",
"s 	c #646464",
"t 	c #5F5F5F",
"u 	c #ADADAD",
"v 	c #BABABA",
"w 	c #DEDDDD",
"x 	c #D9D9D8",
"y 	c #B4B4B4",
"z 	c #575757",
"A 	c #D3D3D4",
"B 	c #BABAB9",
"C 	c #E0E0E0",
"D 	c #DFDFE0",
"E 	c #AEAEAE",
"F 	c #525252",
"G 	c #565656",
"H 	c #C0C0C0",
"I 	c #D5D5D4",
"J 	c #DEDEDD",
"K 	c #DDDEDD",
"L 	c #E0DFDF",
"M 	c #CECECE",
"N 	c #A1A1A1",
"O 	c #4B4B4B",
"P 	c #5A5A5A",
"Q 	c #C3C3C3",
"R 	c #D6D5D5",
"S 	c #D7D8D7",
"T 	c #DADADB",
"U 	c #DDDCDD",
"V 	c #BBBBBB",
"W 	c #CDCDCD",
"X 	c #949494",
"Y 	c #464646",
"Z 	c #5B5B5B",
"` 	c #C5C5C5",
" .	c #D2D1D2",
"..	c #D6D7D6",
"+.	c #D6D6D6",
"@.	c #CCCCCC",
"#.	c #898989",
"$.	c #414141",
"%.	c #5E5F5E",
"&.	c #C4C4C4",
"*.	c #B0B0B0",
"=.	c #B1B1B1",
"-.	c #B3B3B3",
";.	c #D9DAD9",
">.	c #A6A5A6",
",.	c #CACACA",
"'.	c #D6D7D7",
").	c #7E7E7E",
"!.	c #3B3B3B",
"~.	c #D1D0D1",
"{.	c #6B6B6B",
"].	c #49494A",
"^.	c #505050",
"/.	c #787878",
"(.	c #BBBCBB",
"_.	c #ABABAB",
":.	c #6A6A6A",
"<.	c #545454",
"[.	c #777777",
"}.	c #C7C8C7",
"|.	c #C7C7C7",
"1.	c #747474",
"2.	c #313131",
"3.	c #616161",
"4.	c #656565",
"5.	c #343434",
"6.	c #4A4A4A",
"7.	c #535353",
"8.	c #CBCBCC",
"9.	c #DFDFDE",
"0.	c #727272",
"a.	c #696969",
"b.	c #6F6F6F",
"c.	c #262626",
"d.	c #636363",
"e.	c #BFBFBF",
"f.	c #2C2C2C",
"g.	c #474747",
"h.	c #373737",
"i.	c #454545",
"j.	c #A8A8A8",
"k.	c #E1E0E0",
"l.	c #E2E2E3",
"m.	c #BDBDBD",
"n.	c #222222",
"o.	c #232323",
"p.	c #1B1B1B",
"q.	c #B6B6B6",
"r.	c #2A2A2A",
"s.	c #303030",
"t.	c #404040",
"u.	c #E4E4E3",
"v.	c #BDBDBC",
"w.	c #DFE0DF",
"x.	c #767676",
"y.	c #181818",
"z.	c #1A1A1A",
"A.	c #6E6E6E",
"B.	c #707070",
"C.	c #141414",
"D.	c #717171",
"E.	c #2F2F2F",
"F.	c #242424",
"G.	c #353535",
"H.	c #E5E5E5",
"I.	c #A9AAA9",
"J.	c #6C6B6C",
"K.	c #121212",
"L.	c #171717",
"M.	c #686868",
"N.	c #111111",
"O.	c #5C5C5C",
"P.	c #1F1F1F",
"Q.	c #2E2E2E",
"R.	c #434343",
"S.	c #E6E6E7",
"T.	c #BDBEBE",
"U.	c #DBDBDC",
"V.	c #B5B5B5",
"W.	c #757575",
"X.	c #131313",
"Y.	c #1D1D1D",
"Z.	c #444444",
"`.	c #0B0B0B",
" +	c #3F3F3F",
".+	c #E6E7E7",
"++	c #858585",
"@+	c #2B2B2B",
"#+	c #060606",
"$+	c #3E3E3E",
"%+	c #C1C1C2",
"&+	c #E1E2E1",
"*+	c #EAEAEA",
"=+	c #EBEBEB",
"-+	c #BEBDBE",
";+	c #E9EAEA",
">+	c #EAE9E9",
",+	c #959595",
"'+	c #222221",
")+	c #3C3C3C",
"!+	c #494949",
"~+	c #4F4F4F",
"{+	c #E0E1E0",
"]+	c #E8E8E7",
"^+	c #EDEDED",
"/+	c #EBEAEA",
"(+	c #ECECEC",
"_+	c #EBEAEB",
":+	c #939393",
"<+	c #3A3A3A",
"[+	c #2C2C2D",
"}+	c #363636",
"|+	c #666666",
"1+	c #D6D6D5",
"2+	c #ECEDEC",
"3+	c #EEEEEE",
"4+	c #EFEFEF",
"5+	c #EDEDEE",
"6+	c #EAEAEB",
"7+	c #EEEDEE",
"8+	c #989898",
"9+	c #5D5D5D",
"0+	c #AAAAAA",
"a+	c #ECEDED",
"b+	c #F0F0F0",
"c+	c #BEBFBE",
"d+	c #EFEFF0",
"e+	c #F1F1F1",
"f+	c #F0EFF0",
"g+	c #E3E3E2",
"h+	c #B5B5B6",
"i+	c #F2F2F2",
"j+	c #EFEEEF",
"k+	c #EDECEC",
"l+	c #EBEBEC",
"m+	c #EDEDEC",
"n+	c #EEEFEE",
"o+	c #F3F2F3",
"p+	c #F3F3F3",
"q+	c #EDECED",
"r+	c #E4E4E5",
"s+	c #F4F4F4",
"t+	c #EEEFEF",
"u+	c #ECECEB",
"v+	c #EFEEEE",
"w+	c #F4F4F5",
"x+	c #F5F5F5",
"y+	c #F2F1F1",
"z+	c #F6F6F6",
"A+	c #ECECED",
"B+	c #F1F1F2",
"C+	c #F4F5F4",
"D+	c #F7F6F7",
"E+	c #F7F7F7",
"F+	c #F8F8F8",
"G+	c #F7F8F7",
"H+	c #F5F4F5",
"I+	c #F9F9F9",
"J+	c #FAF9F9",
"K+	c #FAFAFA",
"L+	c #FBFBFB",
"M+	c #F9F9FA",
"N+	c #F2F1F2",
"O+	c #D4D3D4",
"P+	c #D3D2D2",
"Q+	c #D1D1D2",
"R+	c #D0D1D0",
". . . . . . . . . . . . + @ @ @ @ + . . . . . . . . . . . . ",
". # $ $ $ $ $ % % % % % % & & & & % % % % % $ $ $ $ $ $ # . ",
". * = = - - - = = = ; > , ' ) ) ! ~ > = = = - - - = = = * . ",
". { ] * ^ / ^ ( ( _ ( * : < [ $ } | ^ 1 ( ( ( ( ^ ^ * ] { . ",
". 2 ^ ( 3 1 1 1 4 1 _ | 5 6 7 8 9 | ^ 1 4 1 4 0 1 3 a ^ { . ",
". b ( 1 0 c 4 d e c / : f g h i & | 1 j e e 4 k 1 l m ^ b . ",
". b 1 n 4 e o p q d ^ } r s t u 9 * 4 p ) p p e j k 1 ( b . ",
". v 4 e w p ) ) ) o x 9 y z z b A ( p q ) p p e e e 4 4 B . ",
". v e p ) ) C C D e * % E F G H I 1 p p J 4 4 4 e e K e v . ",
". v K e p ) D C L e * M N O P Q R 1 e 4 ^ S * * T U e p v . ",
"+ V e 4 1 1 e p p 4 | W X Y Z ` : ^ ^ | 9 $ $  .| 1 e p V . ",
"@ V 4 m | ..* ( 1 ( +.@.#.$.%.&.5 : : &.*.=.7 -.9 ;.e D V . ",
"@ 7 1 | W H >.,.+.'.5 ,.).!.t Q & ~.b {.].^./.).# * o C (.. ",
"@ 7 1 5 _.:.<.[.}.$ & |.1.2.3.H f V 4.2.5.6.7.+ 8.^ 9.' 7 . ",
"@ 7 w * 8 0.5.2.a.` f Q b.c.d.e.V s f.5.g.h.i.j.} 4 k.l.7 . ",
"+ m.C 1 : m.F n.o.:.H H b.p.:.q.b.r.s.i.2.t.. M ( ) , u.v.. ",
". m., w.^ # x.5.y.z.A.b B.C.D.h E.F.G.s.$.h 8 ^ ) , H.> m.. ",
". m.H.! w } I.J.2.K.L.b.M.N.O.!.P.n.Q.R.[.` ( C ~ > ; S.m.. ",
". T.; H.' U.9 V.W.f.X.Y.Z.`.s.F.y.f. +/.8 ( ' H.= - = ; m.. ",
". r - = .+! e +.# ++@+L.Q.#+z.f.5.$+:.%+( &+; *+=+=+- = -+. ",
". r ;+*+>+; H.C ( 9 ,+2.'+N.)+!+~+Z v * {+]+=+^+^+=+/+- r . ",
". r *+(+(+(+_+= , e : :+<+[+}+P |+-.1+C ; 2+3+4+5+(+=+>+r . ",
". r 6+(+^+3+3+7+=+> ) +.8+M.9+[.0++.C = a+4+b+4+3+^+=+=+r . ",
". c+=+(+3+d+e+e+f+^+= g+1 H h+H 4 , - 3+e+i+e+b+j+^+k+=+r . ",
". e.l+m+n+d+e+o+p+i+b+q+= r+, H.= ^+e+i+s+p+i+b+4+t+^+u+r . ",
". e.^+3+v+b+i+p+w+x+w+p+y+f+4+b+i+s+x+z+x+s+i+e+t+4+^+=+r . ",
". e.A+3+d+b+B+p+C+z+D+E+F+E+F+F+F+F+G+E+x+s+i+e+b+4+^+(+r . ",
". e.A+3+d+e+e+p+H+z+E+I+J+K+K+L+K+M+F+E+x+s+i+N+b+4+^+l+r . ",
". V % % $ $ 9 $ 9 9 5 5 O+} } } O+5 5 P+9 $ 9 Q+$ R+% & V . ",
". . . . . . . . . . . . . . . . . . . . . . . . . . . . . . "};
