/* XPM */
static char * spGreasePencil_ghostPreOff_xpm[] = {
"30 30 262 2",
"  	c None",
". 	c #818181",
"+ 	c #828282",
"@ 	c #848484",
"# 	c #858585",
"$ 	c #868686",
"% 	c #838383",
"& 	c #C7C7C7",
"* 	c #D0D0D0",
"= 	c #D1D1D1",
"- 	c #CFCFCF",
"; 	c #CECECE",
"> 	c #D6D6D6",
", 	c #E3E3E3",
"' 	c #E5E5E5",
") 	c #E6E6E6",
"! 	c #E7E7E7",
"~ 	c #E8E8E8",
"{ 	c #E9E9E9",
"] 	c #DFDFDF",
"^ 	c #DCDCDC",
"/ 	c #DBDBDB",
"( 	c #DEDEDE",
"_ 	c #D4D4D4",
": 	c #878787",
"< 	c #B9B9B9",
"[ 	c #D2D2D1",
"} 	c #D2D2D2",
"| 	c #D5D6D6",
"1 	c #D8D8D8",
"2 	c #DADADA",
"3 	c #DADBDA",
"4 	c #DCDCDD",
"5 	c #DBDCDC",
"6 	c #D3D3D3",
"7 	c #CCCCCC",
"8 	c #C1C1C1",
"9 	c #C8C8C7",
"0 	c #8C8C8C",
"a 	c #BBBABA",
"b 	c #C6C6C6",
"c 	c #CDCDCD",
"d 	c #D2D1D1",
"e 	c #D7D7D7",
"f 	c #D9D9D9",
"g 	c #DCDDDC",
"h 	c #DDDDDC",
"i 	c #DDDDDD",
"j 	c #D1D0D0",
"k 	c #C9C9C9",
"l 	c #AEAEAE",
"m 	c #A8A7A7",
"n 	c #C4C4C4",
"o 	c #BABABA",
"p 	c #8F8F8F",
"q 	c #BBBBBB",
"r 	c #D5D5D5",
"s 	c #D9D9D8",
"t 	c #DDDCDC",
"u 	c #DDDEDE",
"v 	c #DFDEDE",
"w 	c #DBDCDB",
"x 	c #C8C8C8",
"y 	c #AAAAAA",
"z 	c #A4A4A4",
"A 	c #C6C6C5",
"B 	c #9B9A9B",
"C 	c #BDBDBD",
"D 	c #D9DAD9",
"E 	c #DCDCDB",
"F 	c #DEDEDD",
"G 	c #A6A6A6",
"H 	c #A0A0A0",
"I 	c #C4C5C5",
"J 	c #8D8D8D",
"K 	c #BCBCBC",
"L 	c #CBCBCB",
"M 	c #939292",
"N 	c #B2B2B2",
"O 	c #DADADB",
"P 	c #DDDDDE",
"Q 	c #D7D8D7",
"R 	c #CACACA",
"S 	c #A7A7A7",
"T 	c #9F9F9F",
"U 	c #BABAB9",
"V 	c #898989",
"W 	c #A9A9A9",
"X 	c #898988",
"Y 	c #A2A2A2",
"Z 	c #C3C3C3",
"` 	c #D8D8D7",
" .	c #D8D7D8",
"..	c #A8A8A8",
"+.	c #9E9E9E",
"@.	c #D6D7D6",
"#.	c #ADADAD",
"$.	c #878788",
"%.	c #939393",
"&.	c #BAB9B9",
"*.	c #D0D0CF",
"=.	c #9B9B9B",
"-.	c #C5C5C5",
";.	c #D8D8D9",
">.	c #D9D8D8",
",.	c #B1B1B1",
"'.	c #888888",
").	c #7D7D7D",
"!.	c #A5A5A5",
"~.	c #B4B4B4",
"{.	c #919191",
"].	c #BFBFBF",
"^.	c #D9D8D9",
"/.	c #B6B6B6",
"(.	c #6C6C6C",
"_.	c #9B9A9A",
":.	c #949494",
"<.	c #989898",
"[.	c #9C9C9C",
"}.	c #797979",
"|.	c #7C7C7C",
"1.	c #B7B7B7",
"2.	c #E0E0E0",
"3.	c #E1E2E1",
"4.	c #E1E1E1",
"5.	c #E0E0E1",
"6.	c #BEBEBE",
"7.	c #B4B3B4",
"8.	c #B0B0B0",
"9.	c #595959",
"0.	c #535353",
"a.	c #737373",
"b.	c #636363",
"c.	c #5C5C5C",
"d.	c #CECFCE",
"e.	c #E2E2E2",
"f.	c #E2E2E3",
"g.	c #BBBCBB",
"h.	c #8E8E8E",
"i.	c #A3A3A3",
"j.	c #757575",
"k.	c #4E4E4E",
"l.	c #4D4D4D",
"m.	c #656565",
"n.	c #5F5F5F",
"o.	c #969696",
"p.	c #A4A3A4",
"q.	c #E1E1E2",
"r.	c #E3E4E3",
"s.	c #E4E4E3",
"t.	c #E3E2E3",
"u.	c #C2C1C1",
"v.	c #ABABAB",
"w.	c #959595",
"x.	c #747474",
"y.	c #6D6D6D",
"z.	c #6B6B6B",
"A.	c #545454",
"B.	c #676767",
"C.	c #606060",
"D.	c #979797",
"E.	c #B3B3B3",
"F.	c #A1A1A1",
"G.	c #D4D3D3",
"H.	c #DCDBDC",
"I.	c #E4E4E4",
"J.	c #E5E4E4",
"K.	c #E3E3E4",
"L.	c #999999",
"M.	c #B5B5B5",
"N.	c #777777",
"O.	c #5A5A5A",
"P.	c #292929",
"Q.	c #454545",
"R.	c #ACACAC",
"S.	c #E5E5E4",
"T.	c #BDBDBC",
"U.	c #5D5D5D",
"V.	c #464646",
"W.	c #565656",
"X.	c #6F6F6F",
"Y.	c #AFAFAF",
"Z.	c #9D9D9D",
"`.	c #7F7F7F",
" +	c #3C3C3C",
".+	c #9A9A9A",
"++	c #5E5E5E",
"@+	c #E6E6E7",
"#+	c #B0B1B1",
"$+	c #484848",
"%+	c #626262",
"&+	c #686868",
"*+	c #525252",
"=+	c #717171",
"-+	c #8A8A8A",
";+	c #909090",
">+	c #4D4D4E",
",+	c #BEBDBE",
"'+	c #B5B6B6",
")+	c #999998",
"!+	c #6A6A6A",
"~+	c #767676",
"{+	c #E1E0E0",
"]+	c #616161",
"^+	c #929292",
"/+	c #D0D1D1",
"(+	c #727272",
"_+	c #C0C0C0",
":+	c #E0DFDF",
"<+	c #696969",
"[+	c #DFDFDE",
"}+	c #7B7B7B",
"|+	c #7C7C7D",
"1+	c #ECECED",
"2+	c #EDEDEE",
"3+	c #EEEEEE",
"4+	c #EDEDED",
"5+	c #EAEAEA",
"6+	c #E7E7E6",
"7+	c #888788",
"8+	c #7E7E7E",
"9+	c #9B9B9C",
"0+	c #7D7E7D",
"a+	c #787878",
"b+	c #EBEAEB",
"c+	c #F0F0F0",
"d+	c #F3F3F3",
"e+	c #F5F5F5",
"f+	c #F6F6F6",
"g+	c #EFEFEF",
"h+	c #EBEBEB",
"i+	c #979898",
"j+	c #707070",
"k+	c #6E6E6E",
"l+	c #EEEEEF",
"m+	c #F7F6F6",
"n+	c #F9F8F9",
"o+	c #FAFAFA",
"p+	c #FBFBFB",
"q+	c #F9F9F9",
"r+	c #F4F4F4",
"s+	c #F1F1F1",
"t+	c #ECECEC",
"u+	c #CACACB",
"v+	c #DEDEDF",
"w+	c #F5F4F5",
"x+	c #F7F7F7",
"y+	c #FCFCFC",
"z+	c #FDFDFD",
"A+	c #F8F9F8",
"B+	c #D3D3D4",
"C+	c #DBDBDC",
"D+	c #F1F0F1",
"E+	c #FBFAFA",
"F+	c #F9F9FA",
"G+	c #F8F8F8",
"H+	c #EDECED",
"I+	c #B9B9BA",
"J+	c #D4D3D4",
"K+	c #D5D4D5",
"L+	c #D3D2D2",
"M+	c #D0D0D1",
". . . . . . . . . . . . . . . . . . . . . . . + @ # $ # % + ",
"+ & * * * * * * * * * = = = = = = * * * * * * - - ; ; ; & @ ",
"@ > , , ' ) ! ~ ~ ~ ~ ~ { { { { ~ ~ ~ ~ ~ ! ' , ] ^ / ( _ $ ",
": < [ } _ | 1 2 2 3 / / / 4 4 5 / / / / 2 1 > 6 * 7 8 9 < : ",
"0 a b c d _ e f ^ ^ g h i i i i i i ^ ^ 2 e _ j k l m n o : ",
"p o l q c = r s / t u ( ( ( ( v ( ( i w f > } x y z A = o $ ",
"p q < B C c } > D E ( ( ] ] ( ( ( F ^ / e 6 k G H I = _ o @ ",
"J K L y M N k } e O ^ i P ^ 4 t 4 ^ / Q _ R S T b } r 1 U + ",
"V q } R W X Y Z } > 1 D f 1 1 e `  .> _ L ..+.b 6 e D / o . ",
"$ q @.} L #.$.%.&.c } 6 6 = *.- * = = k S =.-._ ;./ ^ i o . ",
"@ q >._ * k ,.'.).!.n L -.o N ~.K n C =.{.].6 ^.i ] ] ] q . ",
"# q f r * L b /.0 (.$ z _.:.<.[.[.:.}.|.1.- > ^ 2.3.4.5.q . ",
"V C e } k 6.7.,.8.:.9.0.a.%.<.<.: b.c.0 K d.e i 4.e.f.4.g.. ",
"h.C = Z 8.G !.!.i.+.j.k.l.% ..[.m.n.+ o.p.k > i q.r.s.t.K . ",
":.C u.v.i.G G z z w.x.y.z.A.B.9.C.D.E.F.D.o G.H.e.I.J.K.K . ",
"L.q E.i.v.E.M.o M.<.a.N.% O.P.Q.0 ~.].~.D.R.* / e.' ) S.T.. ",
"+.1.W F.N 1.o 1.,.L.% N.U.V.W.k.X.F.o o <.G 7 / e.) ! ) C . ",
"H E.z Y Y.E.~.E.l Z.`.A. +B..+h.n.++:.#.%.W 7 2 4.) ! @+C . ",
"T #+G i.#.,.Y.,.C D.A.$+%++ +.Z.p &+*+=+-+E.- 1 2.' ) ) C . ",
"Z.E.v.i.z #.l ~.=.b.c.).`.`.J {.;+'.&+>+y.l 7 r i e.I.) ,+. ",
"L.o '+S z W R.;+n.m.[.+.)+z #.l #.l 8.<.!+~+!.L e ^ {+I.6.% ",
":.].Z E.y T -+O.]+^+..l C c /+} } } } ; E.@ (+D._+r / :+6.$ ",
"^+].- 8 ,.{.&+<+T o Z ; 1 i 2.e.e.4.[+/ > -.Z.}+# N = f 6.-+",
":.].x Y.{.|+~+,.; 6 f ] I.{ 1+2+3+4+5+6+4./ = E.7+8+!.; ].{.",
"<.o 9+. 0+a+E.} 2 2.' b+c+d+e+f+f+e+d+g+h+' ( e 8 i+).i.q .+",
".+..j+k+$ 1._ i I.5+l+d+m+n+o+p+o+q+f+r+s+t+) 2.f k .+`.+.F.",
"L.1.z 1.u+e v+) t+s+w+x+o+y+z+z+p+o+A+f+d+s+t+~ 4.2 b ;+j.<.",
":.].B+e C+4.) t+D+r+f+q+E+p+y+y+p+F+G+x+e+d+c+H+! 2.1 I+j+j.",
"J K L L c ; * * } } 6 6 J+_ _ _ K+6 6 L+} = = M+- c R n %.O.",
"$ V -+V '.# @ + . . . . . . . . . . . . . . . + @ '.;+=.[.X."};
