/* XPM */
static char * spGreasePencil_storeButton_xpm[] = {
"30 30 219 2",
"  	c None",
". 	c #818181",
"+ 	c #828282",
"@ 	c #838383",
"# 	c #858585",
"$ 	c #888888",
"% 	c #8C8C8C",
"& 	c #919191",
"* 	c #989898",
"= 	c #9F9F9F",
"- 	c #A6A6A6",
"; 	c #A8A8A8",
"> 	c #A5A5A5",
", 	c #969696",
"' 	c #8E8E8E",
") 	c #848484",
"! 	c #C8C8C8",
"~ 	c #D1D1D1",
"{ 	c #D2D2D2",
"] 	c #D3D3D3",
"^ 	c #D5D5D5",
"/ 	c #D7D7D7",
"( 	c #DADADA",
"_ 	c #DDDDDD",
": 	c #E1E1E1",
"< 	c #E5E5E5",
"[ 	c #999999",
"} 	c #C5C5C5",
"| 	c #E4E4E4",
"1 	c #DFDFDF",
"2 	c #D6D6D6",
"3 	c #D8D8D8",
"4 	c #E8E8E8",
"5 	c #EAEAEA",
"6 	c #EBEBEB",
"7 	c #EDEDED",
"8 	c #EFEFEF",
"9 	c #F1F1F1",
"0 	c #F3F3F3",
"a 	c #E0E0E0",
"b 	c #C6C6C6",
"c 	c #747474",
"d 	c #787878",
"e 	c #929292",
"f 	c #B4B4B4",
"g 	c #F0F0F0",
"h 	c #E9E9E9",
"i 	c #B8B8B8",
"j 	c #D8D8D7",
"k 	c #D9D9D9",
"l 	c #DCDCDC",
"m 	c #DBDBDB",
"n 	c #898989",
"o 	c #6E6E6E",
"p 	c #B5B5B5",
"q 	c #7B7B7B",
"r 	c #C3C3C3",
"s 	c #E6E6E6",
"t 	c #B9B8B8",
"u 	c #DFDEDE",
"v 	c #E3E3E3",
"w 	c #7C7C7C",
"x 	c #ABABAB",
"y 	c #C9C9C9",
"z 	c #FDFDFD",
"A 	c #FCFCFC",
"B 	c #9D9D9D",
"C 	c #DCDBDB",
"D 	c #DBDADA",
"E 	c #DAD9D9",
"F 	c #B9B9B9",
"G 	c #7A7A7A",
"H 	c #FEFEFE",
"I 	c #959595",
"J 	c #EEEEEE",
"K 	c #E7E8E7",
"L 	c #DEDEDE",
"M 	c #DCDDDD",
"N 	c #DBDCDC",
"O 	c #DBDBDA",
"P 	c #DFDEDF",
"Q 	c #E2E2E2",
"R 	c #A2A2A2",
"S 	c #5E5E5E",
"T 	c #C4C4C4",
"U 	c #D0D0D0",
"V 	c #F8F8F8",
"W 	c #AEAEAE",
"X 	c #6C6C6B",
"Y 	c #DEDFDE",
"Z 	c #BBBBBB",
"` 	c #E6E5E5",
" .	c #F2F2F2",
"..	c #585858",
"+.	c #4D4D4D",
"@.	c #494949",
"#.	c #474747",
"$.	c #5B5B5B",
"%.	c #8D8D8D",
"&.	c #C1C1C1",
"*.	c #EAEBEA",
"=.	c #E7E7E7",
"-.	c #BABAB9",
";.	c #BCBCBC",
">.	c #CDCDCD",
",.	c #555555",
"'.	c #707070",
").	c #BEBEBE",
"!.	c #9A9A9A",
"~.	c #666666",
"{.	c #5A595A",
"].	c #868686",
"^.	c #DFE0DF",
"/.	c #BABABA",
"(.	c #E2E3E2",
"_.	c #D4D4D4",
":.	c #8F8F8F",
"<.	c #717171",
"[.	c #8B8B8B",
"}.	c #FFFFFF",
"|.	c #ACACAC",
"1.	c #484848",
"2.	c #626262",
"3.	c #535353",
"4.	c #5C5C5C",
"5.	c #676767",
"6.	c #777777",
"7.	c #E8E8E9",
"8.	c #E4E3E4",
"9.	c #E5E4E4",
"0.	c #C0C0C0",
"a.	c #797979",
"b.	c #FBFCFC",
"c.	c #CECECE",
"d.	c #A7A7A7",
"e.	c #4C4C4C",
"f.	c #767676",
"g.	c #CFCFCF",
"h.	c #ECECEC",
"i.	c #F4F4F4",
"j.	c #F5F5F5",
"k.	c #6B6B6B",
"l.	c #7E7E7E",
"m.	c #6F6F6F",
"n.	c #C7C7C7",
"o.	c #E1E1E2",
"p.	c #656465",
"q.	c #515151",
"r.	c #595959",
"s.	c #E5E5E6",
"t.	c #BBBCBB",
"u.	c #BDBDBD",
"v.	c #B7B7B7",
"w.	c #757575",
"x.	c #E7E7E6",
"y.	c #E7E6E6",
"z.	c #B3B3B3",
"A.	c #464646",
"B.	c #4E4E4E",
"C.	c #9B9B9B",
"D.	c #F6F6F6",
"E.	c #E8E7E7",
"F.	c #E4E4E5",
"G.	c #B0B0B0",
"H.	c #5D5D5D",
"I.	c #4B4B4B",
"J.	c #7F7F7F",
"K.	c #BDBDBC",
"L.	c #4A4A4A",
"M.	c #737373",
"N.	c #F1F0F0",
"O.	c #5A5A5A",
"P.	c #727272",
"Q.	c #FBFBFB",
"R.	c #646464",
"S.	c #656565",
"T.	c #6C6C6C",
"U.	c #BEBFBF",
"V.	c #939393",
"W.	c #CCCCCC",
"X.	c #4F4F4F",
"Y.	c #B6B6B6",
"Z.	c #BFBFBF",
"`.	c #F2F3F3",
" +	c #B1B1B1",
".+	c #A9A9A9",
"++	c #5F5F5F",
"@+	c #BFBEBF",
"#+	c #EBECEC",
"$+	c #525252",
"%+	c #EFEEEE",
"&+	c #CBCBCB",
"*+	c #ECEBEB",
"=+	c #EBEBEC",
"-+	c #A1A1A1",
";+	c #F9F9F9",
">+	c #BEBFBE",
",+	c #EEEDED",
"'+	c #ECECED",
")+	c #EEEEED",
"!+	c #F0F1F0",
"~+	c #F3F3F4",
"{+	c #F7F7F7",
"]+	c #C3C2C3",
"^+	c #AAAAAA",
"/+	c #808080",
"(+	c #F0F1F1",
"_+	c #ECECEB",
":+	c #9C9C9D",
"<+	c #F1F2F2",
"[+	c #EFEFF0",
"}+	c #F4F4F5",
"|+	c #777877",
"1+	c #F9F8F9",
"2+	c #F3F2F3",
"3+	c #E5E4E5",
"4+	c #D3D3D4",
"5+	c #D0D1D0",
"6+	c #878787",
". . . . + @ # $ % & * = - ; > = , ' $ ) + . . . . . . . . . ",
". ! ~ ~ { ] ^ / ( _ : < ! [ } | 1 ( 2 ] ~ ~ ~ ~ ~ ~ ~ ~ ! . ",
". 3 4 4 5 6 7 8 9 0 a b @ c d e f g 7 6 h h h h h 4 4 4 3 . ",
". i j k l a < m f n o o = k p # q r s : _ m ( ( k k 3 j i . ",
". t k m u v ^ n w x y 7 z z A 0 d B 5 | a _ l C m D E k i . ",
". F ( l a s ^ G % A z H H H H A I @ J K v a L M l N O ( F . ",
". F l P Q 4 8 R S T v R U J V z W X 3 7 4 | Q a Y M l m F . ",
". Z L : ` 6 9  .S ..+.@.#.+.$.%.} S &. .J *.=.| : 1 _ _ -.. ",
". ;.a | h 8 >.& ,.'.).l p !.~.@.( {.].3 j ~ 7 h < : ^.L /.. ",
"+ ;.(.=._.:.<.[.2 H H }.}.}.|.1.2 2.3.4.5.6.I : 7.8.a 1 /.. ",
"+ ).9.h 0.a.F b.H H }.}.}.}.c.1.d.).e.f.g.Z f.c.h.s Q a Z . ",
"+ ).< 5 v # 6.i.H H }.}.}.}.j.S k.V l.+.).Q m.n.7 4 | o.Z . ",
"+ ).s 5 g ).p.p H H }.}.}.}.}.@ q.h a r.3.% k.F 8 h s.Q t.. ",
". u.s h 8 g d 4.J H }.}.}.}.}.r #.o 4.@...v.w.d.g *.x.8.;.. ",
". u.y.h J 0 v.$.z.H }.}.}.}.}.1 A.B.C._.D.A + & 9 h.E.F.;.. ",
". u.=.5 J 0 G.H.~.D.}.}.}.}.}.}.@ I._.}.H H [ J.0 J h x.K.. ",
". u.4 *.8 i.%.<.B.v.}.}.}.}.}.}.m L.* }.H H G.M.v 8 6 4 ).. ",
". ).h h.N.F.f.T O.P.z }.}.}.}.}.Q.R.S.V H H ! T.2 9 h.7.).. ",
". U.5 7 9 c.m.< V.I.W.}.}.}.}.}.z %.X.=.H H v T.Y. .7 h ).. ",
". Z.6 J `.y k.z. ++.T./ _ _ W..+) ++) i.H H Q.+ !.0 7 5 @+. ",
". Z.#+8 0 >.o r.+.@.1.1.1.1.1.@.X.$+O.S.f.l.[.w.:.0 %+6 Z.. ",
". Z.h.8 0 a G ) &+y y y y y y 0.Y.* % J.w.4.<.c d.0 8 *+Z.. ",
". ).=+J  .D.-+o Q H H }.}.}.}.}.}.}.}.H z ;+z.n 7  .J h.Z.. ",
". >+h.J 9 j.: w ].j.H H }.}.}.}.}.}.H H H >.w l j.9 ,+6 ).. ",
". Z.'+)+!+~+{+]+'.^+H H H H H H H H H H < /+W.D.0 (+J _+).. ",
". Z.7 J N.0 D.;+:+6.^ h < =.4 4 4 4 4 s V. +V j.<+g 7 6 ).. ",
". Z.'+J [+ .}+{+^.].a.<.T.'.<.<.<.P.|+. R {+D.i.9 8 7 h.).. ",
". Z.'+J [+9 0 D.1+m >.! ! &+W.W.W.W.c._.;+V j.2+g 8 7 =+).. ",
". Z U U ~ { _./ m 1 Q | 3+< < < 3+| v a _ k 2 4+~ 5+U g.Z . ",
". . . . . + ) 6+% e , * [ [ [ [ [ * , V.' n # @ . . . . . . "};
