/* XPM */
static char * image_name[] = {
"32 32 62 1",
" 	c #020200000000",
".	c #0A0A0A0A0A0A",
"X	c #0B0B0B0B0B0B",
"o	c #191919191919",
"O	c #090909090909",
"+	c #080808080808",
"@	c #222222222222",
"#	c #1A1A1A1A1A1A",
"$	c #111111111111",
"%	c #282828282828",
"&	c #363636363636",
"*	c #1F1F1F1F1F1F",
"=	c #1D1D1D1D1D1D",
"-	c #333333333333",
";	c #343434343434",
":	c #0D0D0D0D0D0D",
">	c #121212121212",
",	c #040404040404",
"<	c #101010101010",
"1	c #020202020202",
"2	c #020201010101",
"3	c #050505050505",
"4	c #171717171717",
"5	c #161616161616",
"6	c #1C1C1C1C1C1C",
"7	c #181818181818",
"8	c #131313131313",
"9	c #060606060606",
"0	c #232323232323",
"q	c #1B1B1B1B1B1B",
"w	c #242424242424",
"e	c #141414141414",
"r	c #1E1E1E1E1E1E",
"t	c #0C0C0C0C0C0C",
"y	c #0F0F0F0F0F0F",
"u	c #0E0E0E0E0E0E",
"i	c #252525252525",
"p	c #070707070707",
"a	c #3A3A3A3A3A3A",
"s	c #2A2A2A2A2A2A",
"d	c #353535353535",
"f	c #303030303030",
"g	c #262626262626",
"h	c #151515151515",
"j	c #373737373737",
"k	c #292929292929",
"l	c #474747474747",
"z	c #434343434343",
"x	c #2E2E2E2E2E2E",
"c	c #212121212121",
"v	c #313131313131",
"b	c #3E3E3E3E3E3E",
"n	c #030303030303",
"m	c #202020202020",
"M	c #2B2B2B2B2B2B",
"N	c #414141414141",
"B	c #2D2D2D2D2D2D",
"V	c #3C3C3C3C3C3C",
"C	c #272727272727",
"Z	c #3D3D3D3D3D3D",
"A	c #393939393939",
"S	c #2C2C2C2C2C2C",
"                                ",
"                                ",
"                                ",
"                                ",
"                                ",
"                                ",
"                                ",
"                                ",
"  .  Xo  O+                     ",
" @#$%&*=-;:>,<. 1:23<:$>4567=83 ",
" 910q :we        2  2           ",
"  r> 1@X  9  X.+t7yu883<:9<o6%i ",
"pas@id*0rtff+6r#e*68**r*irg*7h.2",
"$1 uj6yr7kli#;zxtqq9 8u  1   1  ",
"   e2   >w*cvw*4ib=ycdwy5=85o8p ",
"  h    XX  rX  ,h3 5q n, yr22   ",
" m    5=  e7  +c+tMNg=Bx@VC6h2 8",
".#OOhBvr6-r4e6Z0+twe,33wky   ty ",
" 1  7u 1h   1:  3e    78    4$  ",
"   ye  h   1:  $e    +     *8   ",
"  po  op  +i  68,   3$<:>%A.    ",
" X%e<wg$7xCurfS5Oup9 2  n8,     ",
"    3X   O  n9         n6       ",
"   :e                 uu        ",
"   p                 h          ",
"                    >3          ",
"                                ",
"                                ",
"      1$X+8c<4:*6#rhr@p.+       ",
"               ,O$Xohe+1        ",
"                                ",
"                                "};
