/* XPM */
static char * image_name[] = {
"32 32 168 2",
"  	c #020200000000",
". 	c #020201010101",
"X 	c #020202020202",
"o 	c #050505050505",
"O 	c #060606060606",
"+ 	c #0B0B0B0B0B0B",
"@ 	c #070707070707",
"# 	c #040404040404",
"$ 	c #080808080808",
"% 	c #111111111111",
"& 	c #222222222222",
"* 	c #444444444444",
"= 	c #131313131313",
"- 	c #030303030303",
"; 	c #181818181818",
": 	c #383838383838",
"> 	c #1E1E1E1E1E1E",
", 	c #393939393939",
"< 	c #626262626262",
"1 	c #252525252525",
"2 	c #191919191919",
"3 	c #323232323232",
"4 	c #292929292929",
"5 	c #151515151515",
"6 	c #4E4E4E4E4E4E",
"7 	c #6D6D6D6D6D6D",
"8 	c #7D7D7D7D7D7D",
"9 	c #888888888888",
"0 	c #747474747474",
"q 	c #474747474747",
"w 	c #0E0E0E0E0E0E",
"e 	c #232323232323",
"r 	c #555555555555",
"t 	c #2C2C2C2C2C2C",
"y 	c #202020202020",
"u 	c #505050505050",
"i 	c #5E5E5E5E5E5E",
"p 	c #636363636363",
"a 	c #5A5A5A5A5A5A",
"s 	c #3E3E3E3E3E3E",
"d 	c #6F6F6F6F6F6F",
"f 	c #848484848484",
"g 	c #979797979797",
"h 	c #A3A3A3A3A3A3",
"j 	c #A7A7A7A7A7A7",
"k 	c #A4A4A4A4A4A4",
"l 	c #8B8B8B8B8B8B",
"z 	c #0C0C0C0C0C0C",
"x 	c #0D0D0D0D0D0D",
"c 	c #1F1F1F1F1F1F",
"v 	c #595959595959",
"b 	c #7A7A7A7A7A7A",
"n 	c #8E8E8E8E8E8E",
"m 	c #A0A0A0A0A0A0",
"M 	c #A6A6A6A6A6A6",
"N 	c #858585858585",
"B 	c #929292929292",
"V 	c #B5B5B5B5B5B5",
"C 	c #B4B4B4B4B4B4",
"Z 	c #727272727272",
"A 	c #272727272727",
"S 	c #494949494949",
"D 	c #4D4D4D4D4D4D",
"F 	c #767676767676",
"G 	c #CBCBCBCBCBCB",
"H 	c #C5C5C5C5C5C5",
"J 	c #B1B1B1B1B1B1",
"K 	c #7B7B7B7B7B7B",
"L 	c #434343434343",
"P 	c #989898989898",
"I 	c #A9A9A9A9A9A9",
"U 	c #828282828282",
"Y 	c #4C4C4C4C4C4C",
"T 	c #4F4F4F4F4F4F",
"R 	c #8F8F8F8F8F8F",
"E 	c #BCBCBCBCBCBC",
"W 	c #D1D1D1D1D1D1",
"Q 	c #CACACACACACA",
"! 	c #212121212121",
"~ 	c #969696969696",
"^ 	c #B0B0B0B0B0B0",
"/ 	c #8D8D8D8D8D8D",
"( 	c #606060606060",
") 	c #373737373737",
"_ 	c #1B1B1B1B1B1B",
"` 	c #101010101010",
"' 	c #656565656565",
"] 	c #838383838383",
"[ 	c #ADADADADADAD",
"{ 	c #C7C7C7C7C7C7",
"} 	c #E0E0E0E0E0E0",
"| 	c #CDCDCDCDCDCD",
" .	c #757575757575",
"..	c #6C6C6C6C6C6C",
"X.	c #C0C0C0C0C0C0",
"o.	c #C6C6C6C6C6C6",
"O.	c #B8B8B8B8B8B8",
"+.	c #9D9D9D9D9D9D",
"@.	c #676767676767",
"#.	c #0F0F0F0F0F0F",
"$.	c #6E6E6E6E6E6E",
"%.	c #ABABABABABAB",
"&.	c #DEDEDEDEDEDE",
"*.	c #DBDBDBDBDBDB",
"=.	c #9C9C9C9C9C9C",
"-.	c #C8C8C8C8C8C8",
";.	c #D3D3D3D3D3D3",
":.	c #D7D7D7D7D7D7",
">.	c #C2C2C2C2C2C2",
",.	c #B3B3B3B3B3B3",
"<.	c #303030303030",
"1.	c #5D5D5D5D5D5D",
"2.	c #898989898989",
"3.	c #818181818181",
"4.	c #ACACACACACAC",
"5.	c #CCCCCCCCCCCC",
"6.	c #999999999999",
"7.	c #D2D2D2D2D2D2",
"8.	c #CFCFCFCFCFCF",
"9.	c #C1C1C1C1C1C1",
"0.	c #BFBFBFBFBFBF",
"q.	c #1C1C1C1C1C1C",
"w.	c #404040404040",
"e.	c #353535353535",
"r.	c #090909090909",
"t.	c #424242424242",
"y.	c #A1A1A1A1A1A1",
"u.	c #9E9E9E9E9E9E",
"i.	c #939393939393",
"p.	c #9F9F9F9F9F9F",
"a.	c #A8A8A8A8A8A8",
"s.	c #878787878787",
"d.	c #282828282828",
"f.	c #565656565656",
"g.	c #B2B2B2B2B2B2",
"h.	c #141414141414",
"j.	c #BBBBBBBBBBBB",
"k.	c #7E7E7E7E7E7E",
"l.	c #949494949494",
"z.	c #868686868686",
"x.	c #414141414141",
"c.	c #BDBDBDBDBDBD",
"v.	c #545454545454",
"b.	c #7F7F7F7F7F7F",
"n.	c #787878787878",
"m.	c #2F2F2F2F2F2F",
"M.	c #707070707070",
"N.	c #686868686868",
"B.	c #454545454545",
"V.	c #2D2D2D2D2D2D",
"C.	c #3C3C3C3C3C3C",
"Z.	c #363636363636",
"A.	c #333333333333",
"S.	c #525252525252",
"D.	c #3B3B3B3B3B3B",
"F.	c #2E2E2E2E2E2E",
"G.	c #121212121212",
"H.	c #5F5F5F5F5F5F",
"J.	c #2A2A2A2A2A2A",
"K.	c #262626262626",
"L.	c #1D1D1D1D1D1D",
"P.	c #535353535353",
"I.	c #313131313131",
"U.	c #161616161616",
"Y.	c #343434343434",
"T.	c #3A3A3A3A3A3A",
"R.	c #2B2B2B2B2B2B",
"E.	c #0A0A0A0A0A0A",
"                                                                ",
"                                                                ",
"                                                                ",
"                                                                ",
"                      . X .                                     ",
"                  o O + @ o                                     ",
"              X # $ @ X                                         ",
"              . X # .                                           ",
"              X X .                       # %                   ",
"              X .                         & * =                 ",
"            X O -           ; : > -       , < 1     .   .       ",
"            2 3 4 5 #   % 6 7 8 9 0 q w   e r t . . . .         ",
"            y u i p a s d f g h j k l r     z x X   . .         ",
"            c v b l n j m M h N B V C Z A       .     X         ",
"            5 S D F k G H J K 1 L P I U Y             o   .     ",
"            + L T R E W Q m 1   ! ~ ^ / ( ) _         o . .     ",
"            ` ' ] [ { } |  .- % ..X.o.O.+.9 @.@       # .       ",
"            #.$.g %.o.&.*.P ' =.-.;.:.>.{ ,.g <.      .         ",
"            - 1.2.3.4.G *.5.6.%.7.8.9.6.0.| =.q.  .   . .       ",
"              w.e.r.t.y.>.H O.u.y.i.$.p p.a.s.d.  #             ",
"              $     - f.h 9.g.d t 5 - O 6 f ] ' 4 o .           ",
"                  h.s < =.j.,...        % k.l.z.q o             ",
"                #.x.p 3.P c.V 0         . v.9 b.u # .           ",
"                A q 1...2.a.[ n.r.        m.M.N.B.- X           ",
"              $ V.C.Z.Z.d / g F q.      # A.S.u D.# .           ",
"                1 F.G.#.6 N.Z H.G.      @ <.A.A.J.X .           ",
"                ; K.L.d.x.6 P.t.L.q.z   _ I.d.q.` X             ",
"                + U.> d.I.) Y.Y.T.t U.x 1 ! U.o                 ",
"                  @ #.U.L.y ! 1 t R.& L.2 G.O                   ",
"                    X O E.+ r.% 2 ; G.#.E.o                     ",
"                              X @ $ # X .                       ",
"                                                                "};
