/* XPM */
static char * image_name[] = {
"32 32 107 2",
"  	c #020200000000",
". 	c #020201010101",
"X 	c #020202020202",
"o 	c #040404040404",
"O 	c #060606060606",
"+ 	c #070707070707",
"@ 	c #0F0F0F0F0F0F",
"# 	c #101010101010",
"$ 	c #0E0E0E0E0E0E",
"% 	c #050505050505",
"& 	c #090909090909",
"* 	c #191919191919",
"= 	c #1F1F1F1F1F1F",
"- 	c #1C1C1C1C1C1C",
"; 	c #1B1B1B1B1B1B",
": 	c #151515151515",
"> 	c #0D0D0D0D0D0D",
", 	c #030303030303",
"< 	c #111111111111",
"1 	c #292929292929",
"2 	c #383838383838",
"3 	c #2C2C2C2C2C2C",
"4 	c #181818181818",
"5 	c #252525252525",
"6 	c #353535353535",
"7 	c #4D4D4D4D4D4D",
"8 	c #3D3D3D3D3D3D",
"9 	c #262626262626",
"0 	c #232323232323",
"q 	c #131313131313",
"w 	c #272727272727",
"e 	c #424242424242",
"r 	c #626262626262",
"t 	c #5B5B5B5B5B5B",
"y 	c #3B3B3B3B3B3B",
"u 	c #1A1A1A1A1A1A",
"i 	c #0A0A0A0A0A0A",
"p 	c #080808080808",
"a 	c #222222222222",
"s 	c #212121212121",
"d 	c #2E2E2E2E2E2E",
"f 	c #565656565656",
"g 	c #616161616161",
"h 	c #505050505050",
"j 	c #313131313131",
"k 	c #202020202020",
"l 	c #1D1D1D1D1D1D",
"z 	c #434343434343",
"x 	c #4F4F4F4F4F4F",
"c 	c #5C5C5C5C5C5C",
"v 	c #747474747474",
"b 	c #8B8B8B8B8B8B",
"n 	c #858585858585",
"m 	c #7A7A7A7A7A7A",
"M 	c #7C7C7C7C7C7C",
"N 	c #4E4E4E4E4E4E",
"B 	c #2B2B2B2B2B2B",
"V 	c #171717171717",
"C 	c #515151515151",
"Z 	c #5E5E5E5E5E5E",
"A 	c #6D6D6D6D6D6D",
"S 	c #818181818181",
"D 	c #929292929292",
"F 	c #7F7F7F7F7F7F",
"G 	c #4B4B4B4B4B4B",
"H 	c #0C0C0C0C0C0C",
"J 	c #585858585858",
"K 	c #797979797979",
"L 	c #979797979797",
"P 	c #989898989898",
"I 	c #9A9A9A9A9A9A",
"U 	c #767676767676",
"Y 	c #555555555555",
"T 	c #2F2F2F2F2F2F",
"R 	c #656565656565",
"E 	c #787878787878",
"W 	c #878787878787",
"Q 	c #939393939393",
"! 	c #808080808080",
"~ 	c #727272727272",
"^ 	c #303030303030",
"/ 	c #3F3F3F3F3F3F",
"( 	c #6A6A6A6A6A6A",
") 	c #7E7E7E7E7E7E",
"_ 	c #8E8E8E8E8E8E",
"` 	c #838383838383",
"' 	c #373737373737",
"] 	c #323232323232",
"[ 	c #454545454545",
"{ 	c #5D5D5D5D5D5D",
"} 	c #6C6C6C6C6C6C",
"| 	c #707070707070",
" .	c #636363636363",
"..	c #2D2D2D2D2D2D",
"X.	c #121212121212",
"o.	c #494949494949",
"O.	c #717171717171",
"+.	c #696969696969",
"@.	c #7B7B7B7B7B7B",
"#.	c #333333333333",
"$.	c #646464646464",
"%.	c #6E6E6E6E6E6E",
"&.	c #595959595959",
"*.	c #393939393939",
"=.	c #3A3A3A3A3A3A",
"-.	c #242424242424",
";.	c #363636363636",
"                                                                ",
"                                                                ",
"                                                                ",
"                                                                ",
"                                              .                 ",
"                                            X o O o             ",
"                                          + @ @ # $ %           ",
"                                        & * = - ; : > ,         ",
"                                      o < 1 2 3 = 4 $ %         ",
"                                    O @ 5 6 7 8 9 0 q O .       ",
"                                  O 4 w e r t 7 y 1 u i         ",
"                                p a s d t f g h j k : +         ",
"                              o l z x c c c v f d # + .         ",
"                            $ a d f b n m M c N B @ .           ",
"                          o V C Z A S D F g G j s X             ",
"                        X H * J K L P I U Y T ; o               ",
"                      X : w d R E W Q ! ~ Y ^ $                 ",
"                    + a d / ( n ) _ ` g ' ] <                   ",
"                  X V [ { } S | E K  ...V @                     ",
"                  X.- o.E b ! E O.f o.- %                       ",
"                $ w ..2 +.M @.~ G #.3 $                         ",
"                p T G Y $.%.S t 0 V H                           ",
"              X > 9 2 z t g { &.a +                             ",
"              X q 9 y *.[ =.' 3 * .                             ",
"              . i , -.;.w 9 B * .                               ",
"              . p . $ < + + > .                                 ",
"              . . O H X . . X                                   ",
"                  X % .                                         ",
"                                                                ",
"                                                                ",
"                                                                ",
"                                                                "};
