/* XPM */
static char * image_name[] = {
"32 32 140 2",
"  	c #020200000000",
". 	c #020202020202",
"X 	c #040404040404",
"o 	c #050505050505",
"O 	c #0B0B0B0B0B0B",
"+ 	c #111111111111",
"@ 	c #141414141414",
"# 	c #121212121212",
"$ 	c #020201010101",
"% 	c #060606060606",
"& 	c #101010101010",
"* 	c #1C1C1C1C1C1C",
"= 	c #252525252525",
"- 	c #282828282828",
"; 	c #0D0D0D0D0D0D",
": 	c #070707070707",
"> 	c #030303030303",
", 	c #0E0E0E0E0E0E",
"< 	c #1D1D1D1D1D1D",
"1 	c #303030303030",
"2 	c #3A3A3A3A3A3A",
"3 	c #3C3C3C3C3C3C",
"4 	c #363636363636",
"5 	c #2C2C2C2C2C2C",
"6 	c #2A2A2A2A2A2A",
"7 	c #262626262626",
"8 	c #1A1A1A1A1A1A",
"9 	c #1B1B1B1B1B1B",
"0 	c #343434343434",
"q 	c #4D4D4D4D4D4D",
"w 	c #585858585858",
"e 	c #535353535353",
"r 	c #474747474747",
"t 	c #414141414141",
"y 	c #464646464646",
"u 	c #4C4C4C4C4C4C",
"i 	c #484848484848",
"p 	c #0F0F0F0F0F0F",
"a 	c #2D2D2D2D2D2D",
"s 	c #4F4F4F4F4F4F",
"d 	c #707070707070",
"f 	c #808080808080",
"g 	c #797979797979",
"h 	c #606060606060",
"j 	c #575757575757",
"k 	c #5D5D5D5D5D5D",
"l 	c #616161616161",
"z 	c #545454545454",
"x 	c #454545454545",
"c 	c #2F2F2F2F2F2F",
"v 	c #191919191919",
"b 	c #2B2B2B2B2B2B",
"n 	c #676767676767",
"m 	c #929292929292",
"M 	c #A9A9A9A9A9A9",
"N 	c #9D9D9D9D9D9D",
"B 	c #828282828282",
"V 	c #696969696969",
"C 	c #717171717171",
"Z 	c #747474747474",
"A 	c #6F6F6F6F6F6F",
"S 	c #5F5F5F5F5F5F",
"D 	c #0A0A0A0A0A0A",
"F 	c #161616161616",
"G 	c #272727272727",
"H 	c #525252525252",
"J 	c #787878787878",
"K 	c #A5A5A5A5A5A5",
"L 	c #C3C3C3C3C3C3",
"P 	c #BDBDBDBDBDBD",
"I 	c #9E9E9E9E9E9E",
"U 	c #727272727272",
"Y 	c #6C6C6C6C6C6C",
"T 	c #838383838383",
"R 	c #8E8E8E8E8E8E",
"E 	c #8D8D8D8D8D8D",
"W 	c #767676767676",
"Q 	c #424242424242",
"! 	c #292929292929",
"~ 	c #080808080808",
"^ 	c #212121212121",
"/ 	c #3B3B3B3B3B3B",
"( 	c #555555555555",
") 	c #919191919191",
"_ 	c #B6B6B6B6B6B6",
"` 	c #D6D6D6D6D6D6",
"' 	c #D5D5D5D5D5D5",
"] 	c #B5B5B5B5B5B5",
"[ 	c #898989898989",
"{ 	c #7F7F7F7F7F7F",
"} 	c #B3B3B3B3B3B3",
"| 	c #8C8C8C8C8C8C",
" .	c #5B5B5B5B5B5B",
"..	c #0C0C0C0C0C0C",
"X.	c #A2A2A2A2A2A2",
"o.	c #BFBFBFBFBFBF",
"O.	c #DDDDDDDDDDDD",
"+.	c #E5E5E5E5E5E5",
"@.	c #CECECECECECE",
"#.	c #AAAAAAAAAAAA",
"$.	c #C9C9C9C9C9C9",
"%.	c #B4B4B4B4B4B4",
"&.	c #979797979797",
"*.	c #878787878787",
"=.	c #757575757575",
"-.	c #131313131313",
";.	c #565656565656",
":.	c #7D7D7D7D7D7D",
">.	c #BABABABABABA",
",.	c #D2D2D2D2D2D2",
"<.	c #DEDEDEDEDEDE",
"1.	c #DBDBDBDBDBDB",
"2.	c #CBCBCBCBCBCB",
"3.	c #CACACACACACA",
"4.	c #C8C8C8C8C8C8",
"5.	c #999999999999",
"6.	c #7E7E7E7E7E7E",
"7.	c #515151515151",
"8.	c #848484848484",
"9.	c #ACACACACACAC",
"0.	c #C7C7C7C7C7C7",
"q.	c #CCCCCCCCCCCC",
"w.	c #C1C1C1C1C1C1",
"e.	c #989898989898",
"r.	c #818181818181",
"t.	c #737373737373",
"y.	c #626262626262",
"u.	c #242424242424",
"i.	c #595959595959",
"p.	c #8F8F8F8F8F8F",
"a.	c #A3A3A3A3A3A3",
"s.	c #959595959595",
"d.	c #686868686868",
"f.	c #434343434343",
"g.	c #373737373737",
"h.	c #181818181818",
"j.	c #4A4A4A4A4A4A",
"k.	c #3F3F3F3F3F3F",
"l.	c #1E1E1E1E1E1E",
"z.	c #151515151515",
"                                                                ",
"                                                                ",
"                                                                ",
"                                                                ",
"                                                                ",
"                                                                ",
"                                                                ",
"                        . X o X .                               ",
"                      X O + @ # O o $ $ . . $                   ",
"                    % & * = - = * # + + & ; : .                 ",
"                  > , < 1 2 3 4 5 6 6 6 7 8 # % $               ",
"                . O 9 0 q w e r t y u i 3 5 < p X $             ",
"            $ X O 8 a s d f g h j k l k z x c * , o $           ",
"          $ o ; v b t n m M N B V V C Z A S y c * , X           ",
"          . D F G 3 H J K L P I U Y T R E W S Q ! @ ~           ",
"          > p ^ / ( C ) _ ` ' ] [ { N } M | Z  .Q = ..$         ",
"          X # - q U E X.o.O.+.@.#.K P $.%.&.*.=.w 1 p $         ",
"          X -.a ;.:.&.#.>.,.<.1.2.3.,.4.] 5.E 6.w 1 ;           ",
"          . p - 7.Z 8.R &.9.>.L 0.q.w.} e.r.t.y.r u.%           ",
"            ~ 8 2 7.z ( i.Y :.p.N a.s.*.d.q f.g.^ O             ",
"            $ O * G ^ @ p h.5 j.k n ;.k.- l.& : $               ",
"              $ % D : . $ $ $ . , z.; o .                       ",
"                  $ $                                           ",
"                                                                ",
"                                                                ",
"                                                                ",
"                                                                ",
"                                                                ",
"                                                                ",
"                                                                ",
"                                                                ",
"                                                                "};
