/* XPM */
static char * image_name[] = {
"32 32 96 2",
"  	c #020200000000",
". 	c #040404040404",
"X 	c #020202020202",
"o 	c #1E1E1E1E1E1E",
"O 	c #2F2F2F2F2F2F",
"+ 	c #232323232323",
"@ 	c #202020202020",
"# 	c #050505050505",
"$ 	c #0A0A0A0A0A0A",
"% 	c #0E0E0E0E0E0E",
"& 	c #222222222222",
"* 	c #1B1B1B1B1B1B",
"= 	c #242424242424",
"- 	c #020201010101",
"; 	c #101010101010",
": 	c #030303030303",
"> 	c #121212121212",
", 	c #212121212121",
"< 	c #2B2B2B2B2B2B",
"1 	c #0F0F0F0F0F0F",
"2 	c #090909090909",
"3 	c #111111111111",
"4 	c #1C1C1C1C1C1C",
"5 	c #2C2C2C2C2C2C",
"6 	c #161616161616",
"7 	c #272727272727",
"8 	c #262626262626",
"9 	c #1D1D1D1D1D1D",
"0 	c #141414141414",
"q 	c #323232323232",
"w 	c #565656565656",
"e 	c #343434343434",
"r 	c #0B0B0B0B0B0B",
"t 	c #3A3A3A3A3A3A",
"y 	c #3B3B3B3B3B3B",
"u 	c #404040404040",
"i 	c #6E6E6E6E6E6E",
"p 	c #080808080808",
"a 	c #525252525252",
"s 	c #2E2E2E2E2E2E",
"d 	c #484848484848",
"f 	c #5B5B5B5B5B5B",
"g 	c #1A1A1A1A1A1A",
"h 	c #2A2A2A2A2A2A",
"j 	c #4D4D4D4D4D4D",
"k 	c #3D3D3D3D3D3D",
"l 	c #171717171717",
"z 	c #191919191919",
"x 	c #4B4B4B4B4B4B",
"c 	c #6F6F6F6F6F6F",
"v 	c #555555555555",
"b 	c #0C0C0C0C0C0C",
"n 	c #292929292929",
"m 	c #606060606060",
"M 	c #888888888888",
"N 	c #515151515151",
"B 	c #2D2D2D2D2D2D",
"V 	c #363636363636",
"C 	c #808080808080",
"Z 	c #878787878787",
"A 	c #5A5A5A5A5A5A",
"S 	c #929292929292",
"D 	c #717171717171",
"F 	c #4C4C4C4C4C4C",
"G 	c #313131313131",
"H 	c #3C3C3C3C3C3C",
"J 	c #181818181818",
"K 	c #7D7D7D7D7D7D",
"L 	c #535353535353",
"P 	c #060606060606",
"I 	c #494949494949",
"U 	c #575757575757",
"Y 	c #454545454545",
"T 	c #434343434343",
"R 	c #131313131313",
"E 	c #373737373737",
"W 	c #626262626262",
"Q 	c #5F5F5F5F5F5F",
"! 	c #151515151515",
"~ 	c #393939393939",
"^ 	c #5C5C5C5C5C5C",
"/ 	c #4E4E4E4E4E4E",
"( 	c #838383838383",
") 	c #696969696969",
"_ 	c #505050505050",
"` 	c #7F7F7F7F7F7F",
"' 	c #595959595959",
"] 	c #4A4A4A4A4A4A",
"[ 	c #1F1F1F1F1F1F",
"{ 	c #353535353535",
"} 	c #252525252525",
"| 	c #4F4F4F4F4F4F",
" .	c #070707070707",
"..	c #0D0D0D0D0D0D",
"X.	c #3E3E3E3E3E3E",
"o.	c #282828282828",
"                                    .                           ",
"                                  X o X                         ",
"                                  o O                           ",
"                                  + @ # $                       ",
"                                % & * = -     .                 ",
"                        ;     : > + , <       1                 ",
"          .     2       3 -   4 5 6 7 8       ;                 ",
"              % 9 :     0     q w e 7 0       r                 ",
"        -   $ t y %     #     u i q =       p #                 ",
"        - - O a s - -         d f & >       g                   ",
"        # h a j 4 . %         k l z 2     2 l                   ",
"        z x c v 1 b *         n     .     <                     ",
"        o m M N B r 3       2 .           V                     ",
"        + C Z A s             - -       l l   0 z               ",
"        < S D F >               % o X - 5     G H J             ",
"        $ K L V                 p 1 P z o 9 h I U q             ",
"          Y h ;                     1 B 6 T N U w R             ",
"          < $         > O 3 :       g @ E W Q Q a !             ",
"          ! R         ~ ^ / n .     $ o x ( ) Q v l             ",
"            -         = D _ 3     : P < c ` ' ^ ] $             ",
"                2       [ {         - k D & } O l               ",
"                J o       g -       : | {   .                   ",
"                  #       1 X         = 9 # b                   ",
"                          >           - # b # . X               ",
"                          p               # p 2  .              ",
"                                    X   - - 2 ..:               ",
"                                  .  .      % R .               ",
"                        ; ;     X  .        > 8 -               ",
"                      2 X.t 1     ..        o o.                ",
"                      - h e #               E ;                 ",
"                        ..l               X 2                   ",
"                                                                "};
