/* XPM */
static char * image_name[] = {
"32 32 81 1",
" 	c #020200000000",
".	c #020201010101",
"X	c #0C0C0C0C0C0C",
"o	c #090909090909",
"O	c #080808080808",
"+	c #191919191919",
"@	c #1B1B1B1B1B1B",
"#	c #0F0F0F0F0F0F",
"$	c #111111111111",
"%	c #2C2C2C2C2C2C",
"&	c #323232323232",
"*	c #1F1F1F1F1F1F",
"=	c #2E2E2E2E2E2E",
"-	c #474747474747",
";	c #070707070707",
":	c #0D0D0D0D0D0D",
">	c #222222222222",
",	c #313131313131",
"<	c #282828282828",
"1	c #0A0A0A0A0A0A",
"2	c #030303030303",
"3	c #020202020202",
"4	c #121212121212",
"5	c #3A3A3A3A3A3A",
"6	c #3C3C3C3C3C3C",
"7	c #2F2F2F2F2F2F",
"8	c #161616161616",
"9	c #1A1A1A1A1A1A",
"0	c #131313131313",
"q	c #171717171717",
"w	c #1D1D1D1D1D1D",
"e	c #151515151515",
"r	c #050505050505",
"t	c #0E0E0E0E0E0E",
"y	c #343434343434",
"u	c #363636363636",
"i	c #464646464646",
"p	c #535353535353",
"a	c #4A4A4A4A4A4A",
"s	c #2D2D2D2D2D2D",
"d	c #202020202020",
"f	c #101010101010",
"g	c #272727272727",
"h	c #181818181818",
"j	c #353535353535",
"k	c #4F4F4F4F4F4F",
"l	c #6B6B6B6B6B6B",
"z	c #7E7E7E7E7E7E",
"x	c #727272727272",
"c	c #333333333333",
"v	c #1C1C1C1C1C1C",
"b	c #292929292929",
"n	c #303030303030",
"m	c #404040404040",
"M	c #4B4B4B4B4B4B",
"N	c #565656565656",
"B	c #626262626262",
"V	c #818181818181",
"C	c #999999999999",
"Z	c #898989898989",
"A	c #4C4C4C4C4C4C",
"S	c #454545454545",
"D	c #5B5B5B5B5B5B",
"F	c #6E6E6E6E6E6E",
"G	c #7B7B7B7B7B7B",
"H	c #787878787878",
"J	c #757575757575",
"K	c #141414141414",
"L	c #0B0B0B0B0B0B",
"P	c #383838383838",
"I	c #646464646464",
"U	c #6F6F6F6F6F6F",
"Y	c #606060606060",
"T	c #424242424242",
"R	c #3D3D3D3D3D3D",
"E	c #373737373737",
"W	c #212121212121",
"Q	c #1E1E1E1E1E1E",
"!	c #242424242424",
"~	c #232323232323",
"^	c #060606060606",
"                                ",
"                                ",
"                                ",
"                                ",
"              .XoO              ",
"               +@@#.            ",
"             $%&*=-&;           ",
"               :>=,<#           ",
"             12 ;               ",
"            34=5678;3           ",
"             o90qwwe4r          ",
"              :4t               ",
"        ....    ;O              ",
"           q%&yyu6ipa7          ",
"          .o44q9e4wssd          ",
"                                ",
"                   fgso         ",
"         1whqe%j&sklzxc         ",
"          1vbnmMNBVCZAw         ",
"           ;@<SDFGHJNK          ",
"          LPIUUYMP7vt           ",
"          .1gTREWQ<!+#.         ",
"           .;~%<*3^L            ",
"              2oKtf3            ",
"                                ",
"                                ",
"                                ",
"                                ",
"                                ",
"                                ",
"                                ",
"                                "};
