/* XPM */
static char * image_name[] = {
"32 32 177 2",
"  	c #020200000000",
". 	c #1C1C1C1C1C1C",
"X 	c #2B2B2B2B2B2B",
"o 	c #060606060606",
"O 	c #787878787878",
"+ 	c #9F9F9F9F9F9F",
"@ 	c #A8A8A8A8A8A8",
"# 	c #909090909090",
"$ 	c #3B3B3B3B3B3B",
"% 	c #4C4C4C4C4C4C",
"& 	c #AAAAAAAAAAAA",
"* 	c #BEBEBEBEBEBE",
"= 	c #C4C4C4C4C4C4",
"- 	c #C2C2C2C2C2C2",
"; 	c #B4B4B4B4B4B4",
": 	c #757575757575",
"> 	c #191919191919",
", 	c #5C5C5C5C5C5C",
"< 	c #B2B2B2B2B2B2",
"1 	c #BFBFBFBFBFBF",
"2 	c #C1C1C1C1C1C1",
"3 	c #C0C0C0C0C0C0",
"4 	c #6C6C6C6C6C6C",
"5 	c #1A1A1A1A1A1A",
"6 	c #A0A0A0A0A0A0",
"7 	c #BABABABABABA",
"8 	c #BDBDBDBDBDBD",
"9 	c #BCBCBCBCBCBC",
"0 	c #BBBBBBBBBBBB",
"q 	c #B8B8B8B8B8B8",
"w 	c #A7A7A7A7A7A7",
"e 	c #7B7B7B7B7B7B",
"r 	c #373737373737",
"t 	c #111111111111",
"y 	c #272727272727",
"u 	c #1E1E1E1E1E1E",
"i 	c #353535353535",
"p 	c #838383838383",
"a 	c #ABABABABABAB",
"s 	c #B6B6B6B6B6B6",
"d 	c #B7B7B7B7B7B7",
"f 	c #B9B9B9B9B9B9",
"g 	c #9C9C9C9C9C9C",
"h 	c #6B6B6B6B6B6B",
"j 	c #303030303030",
"k 	c #020201010101",
"l 	c #545454545454",
"z 	c #383838383838",
"x 	c #171717171717",
"c 	c #737373737373",
"v 	c #969696969696",
"b 	c #292929292929",
"n 	c #020202020202",
"m 	c #484848484848",
"M 	c #B1B1B1B1B1B1",
"N 	c #B5B5B5B5B5B5",
"B 	c #999999999999",
"V 	c #C6C6C6C6C6C6",
"C 	c #C8C8C8C8C8C8",
"Z 	c #3A3A3A3A3A3A",
"A 	c #444444444444",
"S 	c #939393939393",
"D 	c #B3B3B3B3B3B3",
"F 	c #A2A2A2A2A2A2",
"G 	c #898989898989",
"H 	c #3E3E3E3E3E3E",
"J 	c #252525252525",
"K 	c #696969696969",
"L 	c #8B8B8B8B8B8B",
"P 	c #B0B0B0B0B0B0",
"I 	c #CACACACACACA",
"U 	c #CFCFCFCFCFCF",
"Y 	c #D5D5D5D5D5D5",
"T 	c #D8D8D8D8D8D8",
"R 	c #D9D9D9D9D9D9",
"E 	c #D6D6D6D6D6D6",
"W 	c #9E9E9E9E9E9E",
"Q 	c #2F2F2F2F2F2F",
"! 	c #3F3F3F3F3F3F",
"~ 	c #A1A1A1A1A1A1",
"^ 	c #AEAEAEAEAEAE",
"/ 	c #878787878787",
"( 	c #5D5D5D5D5D5D",
") 	c #282828282828",
"_ 	c #1D1D1D1D1D1D",
"` 	c #4A4A4A4A4A4A",
"' 	c #949494949494",
"] 	c #CECECECECECE",
"[ 	c #D3D3D3D3D3D3",
"{ 	c #DADADADADADA",
"} 	c #DEDEDEDEDEDE",
"| 	c #E5E5E5E5E5E5",
" .	c #E3E3E3E3E3E3",
"..	c #DBDBDBDBDBDB",
"X.	c #C7C7C7C7C7C7",
"o.	c #2C2C2C2C2C2C",
"O.	c #0B0B0B0B0B0B",
"+.	c #7A7A7A7A7A7A",
"@.	c #AFAFAFAFAFAF",
"#.	c #ADADADADADAD",
"$.	c #A9A9A9A9A9A9",
"%.	c #616161616161",
"&.	c #919191919191",
"*.	c #A5A5A5A5A5A5",
"=.	c #C3C3C3C3C3C3",
"-.	c #E4E4E4E4E4E4",
";.	c #E9E9E9E9E9E9",
":.	c #E2E2E2E2E2E2",
">.	c #DFDFDFDFDFDF",
",.	c #CCCCCCCCCCCC",
"<.	c #0D0D0D0D0D0D",
"1.	c #393939393939",
"2.	c #A3A3A3A3A3A3",
"3.	c #ACACACACACAC",
"4.	c #D0D0D0D0D0D0",
"5.	c #DCDCDCDCDCDC",
"6.	c #E8E8E8E8E8E8",
"7.	c #E0E0E0E0E0E0",
"8.	c #313131313131",
"9.	c #141414141414",
"0.	c #676767676767",
"q.	c #9B9B9B9B9B9B",
"w.	c #5B5B5B5B5B5B",
"e.	c #666666666666",
"r.	c #959595959595",
"t.	c #929292929292",
"y.	c #D4D4D4D4D4D4",
"u.	c #CBCBCBCBCBCB",
"i.	c #8C8C8C8C8C8C",
"p.	c #A4A4A4A4A4A4",
"a.	c #A6A6A6A6A6A6",
"s.	c #868686868686",
"d.	c #646464646464",
"f.	c #606060606060",
"g.	c #777777777777",
"h.	c #040404040404",
"j.	c #979797979797",
"k.	c #CDCDCDCDCDCD",
"l.	c #828282828282",
"z.	c #7F7F7F7F7F7F",
"x.	c #8D8D8D8D8D8D",
"c.	c #9D9D9D9D9D9D",
"v.	c #202020202020",
"b.	c #090909090909",
"n.	c #C5C5C5C5C5C5",
"m.	c #2E2E2E2E2E2E",
"M.	c #151515151515",
"N.	c #0C0C0C0C0C0C",
"B.	c #080808080808",
"V.	c #222222222222",
"C.	c #7D7D7D7D7D7D",
"Z.	c #6A6A6A6A6A6A",
"A.	c #8A8A8A8A8A8A",
"S.	c #858585858585",
"D.	c #2D2D2D2D2D2D",
"F.	c #0A0A0A0A0A0A",
"G.	c #404040404040",
"H.	c #7C7C7C7C7C7C",
"J.	c #121212121212",
"K.	c #363636363636",
"L.	c #8F8F8F8F8F8F",
"P.	c #424242424242",
"I.	c #626262626262",
"U.	c #4F4F4F4F4F4F",
"Y.	c #0F0F0F0F0F0F",
"T.	c #131313131313",
"R.	c #242424242424",
"E.	c #5E5E5E5E5E5E",
"W.	c #101010101010",
"Q.	c #3D3D3D3D3D3D",
"!.	c #585858585858",
"~.	c #767676767676",
"^.	c #848484848484",
"/.	c #333333333333",
"(.	c #636363636363",
").	c #050505050505",
"_.	c #070707070707",
"                                                                ",
"                                                                ",
"                                                                ",
"                                                                ",
"                                                                ",
"                        . X                                     ",
"                    o O + @ # $                                 ",
"                    % & * = - ; : >                             ",
"                    , < 1 2 3 3 * + 4 5                         ",
"                    X 6 7 8 9 0 0 0 q w e r                     ",
"            t y u     i p a s s s d f 0 * s g h j     k . l z   ",
"          x c # v 4 b   n m v a M < N d 7 * - - q w O B V C N Z ",
"          A S < q D F G H n J K L w P ; q 9 3 V I U Y T R E V , ",
"W Q       ! ~ q 9 0 s ^ ~ / ( ) _ ` ' P N f 1 = C ] [ { } |  .L ",
"..X.e o.  O.+.@.0 q ; M #.$.~ v G %.&.*.^ s 8 =.X.] [ T } -.;.~ ",
":.>.,.< %.  <.1.+.2.P P #.a & 3.3.3.& & #.P ; 7 = C 4.E 5. .6.M ",
",.7.T ] * ' 8.  9.0.6 3.^ #.3.< ^ #.#.M D N M q.w.e.r.9 V { | 9 ",
"t.3 Y y.u.s @ p i.*.*.w p.p.& a 3.#.^ M M N N ; a.p s.d.f.g.d 3.",
"h.j j.X.U k.C * D #.3.*.+ v / l.z.x.c.& M s f 8 2 2 8 s i.v.<.b.",
"    Z ~ n.4.,.V 2 0 P ~ f.m.M.N.B.V.m C.&.@ s * = I ] u.^ (     ",
"  j Z.A.t.*.N 8 f ; 3.2.S.0.D.        h.F.G.H.i.B @.1 s W !     ",
"  b.J.x O.B.K.+.L.w w p.g s.0.P.i I.U.Y.        T.R.r E.1.      ",
"              n W.Q.!.O h e.d.~.p.N M p                         ",
"                          n Y.g.@.1 * a.X                       ",
"                            k ^.D - * g /.                      ",
"                              Q.i.j.&.(.).                      ",
"                                ).) ) _.                        ",
"                                                                ",
"                                                                ",
"                                                                ",
"                                                                ",
"                                                                "};
