/* XPM */
static char * image_name[] = {
"32 32 79 1",
" 	c #020200000000",
".	c #020201010101",
"X	c #020202020202",
"o	c #040404040404",
"O	c #050505050505",
"+	c #030303030303",
"@	c #080808080808",
"#	c #0A0A0A0A0A0A",
"$	c #090909090909",
"%	c #060606060606",
"&	c #0B0B0B0B0B0B",
"*	c #0C0C0C0C0C0C",
"=	c #0E0E0E0E0E0E",
"-	c #0D0D0D0D0D0D",
";	c #070707070707",
":	c #0F0F0F0F0F0F",
">	c #101010101010",
",	c #141414141414",
"<	c #151515151515",
"1	c #191919191919",
"2	c #1A1A1A1A1A1A",
"3	c #1B1B1B1B1B1B",
"4	c #1D1D1D1D1D1D",
"5	c #121212121212",
"6	c #111111111111",
"7	c #161616161616",
"8	c #1E1E1E1E1E1E",
"9	c #232323232323",
"0	c #242424242424",
"q	c #171717171717",
"w	c #262626262626",
"e	c #222222222222",
"r	c #212121212121",
"t	c #131313131313",
"y	c #292929292929",
"u	c #272727272727",
"i	c #181818181818",
"p	c #282828282828",
"a	c #313131313131",
"s	c #323232323232",
"d	c #343434343434",
"f	c #3F3F3F3F3F3F",
"g	c #393939393939",
"h	c #1C1C1C1C1C1C",
"j	c #2F2F2F2F2F2F",
"k	c #464646464646",
"l	c #4E4E4E4E4E4E",
"z	c #373737373737",
"x	c #353535353535",
"c	c #444444444444",
"v	c #4C4C4C4C4C4C",
"b	c #555555555555",
"n	c #5D5D5D5D5D5D",
"m	c #2C2C2C2C2C2C",
"M	c #3D3D3D3D3D3D",
"N	c #565656565656",
"B	c #626262626262",
"V	c #474747474747",
"C	c #535353535353",
"Z	c #525252525252",
"A	c #454545454545",
"S	c #3A3A3A3A3A3A",
"D	c #4D4D4D4D4D4D",
"F	c #2E2E2E2E2E2E",
"G	c #5B5B5B5B5B5B",
"H	c #595959595959",
"J	c #575757575757",
"K	c #434343434343",
"L	c #505050505050",
"P	c #363636363636",
"I	c #404040404040",
"U	c #515151515151",
"Y	c #333333333333",
"T	c #1F1F1F1F1F1F",
"R	c #2A2A2A2A2A2A",
"E	c #3E3E3E3E3E3E",
"W	c #252525252525",
"Q	c #2B2B2B2B2B2B",
"!	c #202020202020",
"                                ",
"              ....              ",
"          ...XXXXXX..           ",
"        ..XXXooOOOoXX.          ",
"      .XX+oO@###$#OOooX         ",
"      .Xo%@&*=#$$=-$;o.         ",
"     .Xo;&:>>>&&&:,:&@.         ",
"    .Xo%&><12345=637=%          ",
"    XXo#6<89009266<>O           ",
"   .Xo%:>q49wer87q,*+           ",
"   .XO$t7q49yuww27>$+.          ",
"  .XX%-,i3pasdfgh,:$@X.         ",
"  .X+%*5qrjgfklzrq>&OX          ",
"  X+o@&t3wxcvbnkm1:%+.          ",
"  X+O@*7hyMlNnBf1&O+.           ",
"  XXo@=,4aVCZAS8t@OX            ",
"  XXo$>t4avZDdFdh%X.            ",
"  .Xo$-,4FkGHJlw>@%X.           ",
"  .Xo@-78aKLCZA4,5ii6#o..       ",
"   X+%#thyPIAVUYwyy9T6#OXX.     ",
"   XXO$:<TRsSEEcgpp04t*@O       ",
"    Xo%#><4WQaxas9e3,-@X        ",
"    .Xo%@=,2!Wpwweq6#%O.        ",
"     .+oO@=671322q5*%OoX.       ",
"      X+oO;#->66>=*$%oXX.       ",
"       .XoO%;$##$@;%o+X.        ",
"        .XXooOOOOOo+X.          ",
"          .XXX++XXX.            ",
"             ....               ",
"                                ",
"                                ",
"                                "};
