/* XPM */
static char * image_name[] = {
"32 32 192 2",
"  	c #020200000000",
". 	c #1F1F1F1F1F1F",
"X 	c #414141414141",
"o 	c #151515151515",
"O 	c #0B0B0B0B0B0B",
"+ 	c #3E3E3E3E3E3E",
"@ 	c #2B2B2B2B2B2B",
"# 	c #070707070707",
"$ 	c #2C2C2C2C2C2C",
"% 	c #3C3C3C3C3C3C",
"& 	c #565656565656",
"* 	c #1E1E1E1E1E1E",
"= 	c #494949494949",
"- 	c #686868686868",
"; 	c #242424242424",
": 	c #606060606060",
"> 	c #737373737373",
", 	c #272727272727",
"< 	c #191919191919",
"1 	c #232323232323",
"2 	c #3B3B3B3B3B3B",
"3 	c #535353535353",
"4 	c #515151515151",
"5 	c #636363636363",
"6 	c #6A6A6A6A6A6A",
"7 	c #727272727272",
"8 	c #A8A8A8A8A8A8",
"9 	c #717171717171",
"0 	c #999999999999",
"q 	c #8E8E8E8E8E8E",
"w 	c #484848484848",
"e 	c #797979797979",
"r 	c #5A5A5A5A5A5A",
"t 	c #2D2D2D2D2D2D",
"y 	c #6D6D6D6D6D6D",
"u 	c #A6A6A6A6A6A6",
"i 	c #747474747474",
"p 	c #676767676767",
"a 	c #6E6E6E6E6E6E",
"s 	c #989898989898",
"d 	c #909090909090",
"f 	c #C1C1C1C1C1C1",
"g 	c #B8B8B8B8B8B8",
"h 	c #BEBEBEBEBEBE",
"j 	c #C8C8C8C8C8C8",
"k 	c #AAAAAAAAAAAA",
"l 	c #878787878787",
"z 	c #9B9B9B9B9B9B",
"x 	c #404040404040",
"c 	c #373737373737",
"v 	c #363636363636",
"b 	c #141414141414",
"n 	c #777777777777",
"m 	c #B1B1B1B1B1B1",
"M 	c #A9A9A9A9A9A9",
"N 	c #9D9D9D9D9D9D",
"B 	c #898989898989",
"V 	c #B7B7B7B7B7B7",
"C 	c #ADADADADADAD",
"Z 	c #BFBFBFBFBFBF",
"A 	c #C9C9C9C9C9C9",
"S 	c #D0D0D0D0D0D0",
"D 	c #D3D3D3D3D3D3",
"F 	c #AFAFAFAFAFAF",
"G 	c #9E9E9E9E9E9E",
"H 	c #939393939393",
"J 	c #353535353535",
"K 	c #1A1A1A1A1A1A",
"L 	c #1D1D1D1D1D1D",
"P 	c #6C6C6C6C6C6C",
"I 	c #818181818181",
"U 	c #8C8C8C8C8C8C",
"Y 	c #B9B9B9B9B9B9",
"T 	c #B3B3B3B3B3B3",
"R 	c #BABABABABABA",
"E 	c #BDBDBDBDBDBD",
"W 	c #C0C0C0C0C0C0",
"Q 	c #C6C6C6C6C6C6",
"! 	c #CBCBCBCBCBCB",
"~ 	c #CFCFCFCFCFCF",
"^ 	c #B2B2B2B2B2B2",
"/ 	c #8D8D8D8D8D8D",
"( 	c #8A8A8A8A8A8A",
") 	c #181818181818",
"_ 	c #4D4D4D4D4D4D",
"` 	c #A2A2A2A2A2A2",
"' 	c #B4B4B4B4B4B4",
"] 	c #C2C2C2C2C2C2",
"[ 	c #D1D1D1D1D1D1",
"{ 	c #CDCDCDCDCDCD",
"} 	c #656565656565",
"| 	c #0A0A0A0A0A0A",
" .	c #424242424242",
"..	c #505050505050",
"X.	c #646464646464",
"o.	c #959595959595",
"O.	c #C4C4C4C4C4C4",
"+.	c #BCBCBCBCBCBC",
"@.	c #9F9F9F9F9F9F",
"#.	c #A1A1A1A1A1A1",
"$.	c #D9D9D9D9D9D9",
"%.	c #7B7B7B7B7B7B",
"&.	c #303030303030",
"*.	c #7C7C7C7C7C7C",
"=.	c #AEAEAEAEAEAE",
"-.	c #B0B0B0B0B0B0",
";.	c #A5A5A5A5A5A5",
":.	c #9A9A9A9A9A9A",
">.	c #919191919191",
",.	c #A4A4A4A4A4A4",
"<.	c #CACACACACACA",
"1.	c #D5D5D5D5D5D5",
"2.	c #D4D4D4D4D4D4",
"3.	c #9C9C9C9C9C9C",
"4.	c #262626262626",
"5.	c #050505050505",
"6.	c #4E4E4E4E4E4E",
"7.	c #B5B5B5B5B5B5",
"8.	c #C3C3C3C3C3C3",
"9.	c #A3A3A3A3A3A3",
"0.	c #7F7F7F7F7F7F",
"q.	c #787878787878",
"w.	c #949494949494",
"e.	c #A7A7A7A7A7A7",
"r.	c #323232323232",
"t.	c #ACACACACACAC",
"y.	c #979797979797",
"u.	c #626262626262",
"i.	c #767676767676",
"p.	c #858585858585",
"a.	c #828282828282",
"s.	c #131313131313",
"d.	c #090909090909",
"f.	c #848484848484",
"g.	c #838383838383",
"h.	c #8F8F8F8F8F8F",
"j.	c #696969696969",
"k.	c #4F4F4F4F4F4F",
"l.	c #4C4C4C4C4C4C",
"z.	c #595959595959",
"x.	c #707070707070",
"c.	c #0C0C0C0C0C0C",
"v.	c #B6B6B6B6B6B6",
"b.	c #5D5D5D5D5D5D",
"n.	c #4B4B4B4B4B4B",
"m.	c #3D3D3D3D3D3D",
"M.	c #383838383838",
"N.	c #5B5B5B5B5B5B",
"B.	c #969696969696",
"V.	c #020202020202",
"C.	c #808080808080",
"Z.	c #7E7E7E7E7E7E",
"A.	c #6B6B6B6B6B6B",
"S.	c #3F3F3F3F3F3F",
"D.	c #7D7D7D7D7D7D",
"F.	c #101010101010",
"G.	c #545454545454",
"H.	c #343434343434",
"J.	c #757575757575",
"K.	c #C7C7C7C7C7C7",
"L.	c #575757575757",
"P.	c #1C1C1C1C1C1C",
"I.	c #585858585858",
"U.	c #454545454545",
"Y.	c #434343434343",
"T.	c #929292929292",
"R.	c #888888888888",
"E.	c #040404040404",
"W.	c #ABABABABABAB",
"Q.	c #474747474747",
"!.	c #525252525252",
"~.	c #616161616161",
"^.	c #868686868686",
"/.	c #444444444444",
"(.	c #5C5C5C5C5C5C",
").	c #BBBBBBBBBBBB",
"_.	c #313131313131",
"`.	c #111111111111",
"'.	c #8B8B8B8B8B8B",
"].	c #030303030303",
"[.	c #171717171717",
"{.	c #202020202020",
"}.	c #3A3A3A3A3A3A",
"|.	c #4A4A4A4A4A4A",
" X	c #333333333333",
".X	c #282828282828",
"XX	c #0E0E0E0E0E0E",
"oX	c #666666666666",
"OX	c #020201010101",
"+X	c #2F2F2F2F2F2F",
"@X	c #1B1B1B1B1B1B",
"#X	c #060606060606",
"                                                                ",
"                                                                ",
"                        . X   o O   + @                         ",
"                    # $ % & * = - ; : > , < 1 2                 ",
"                  2 3 4 5 6 : 7 8 9 0 0 q w e r                 ",
"                t y u i p a s d f g h j k l z - x               ",
"          c v b $ n m M N B V C Z A S D F G g H c J K           ",
"          L P B I U 8 Y g T R E W Q ! ~ Y ^ Q k / ( 3           ",
"        ) v _ U T ` T R m ' ^ m ^ ' R f ] j [ { ~ 8 } 1         ",
"    |  ...X.i o.m O.+.^ 8 ` @.G @.#.8 m E j [ $.D W %.)         ",
"  &...*.s #.=.M 8 m -.;.:.>.U U U d s ,.m h <.1.2.3.4.          ",
"  5.; 6.H 7.g 8.V F 9.o.B 0.q.n n *.l w.` m Z W e.c             ",
"      | r.*.G t.' e.y.l q.P 5 u.u.6 i.p.o.u V E a.s.            ",
"    d.X.f.g.h.t.F @./ %.j.r k.l._ z.p q.( 3.F E #.x._ 6.x c.    ",
"    + & *.@.v.=.M s f.9 b.n.m.M.2 = N.a I B.M V m 3.I b.J V.    ",
"    3 C./ :.3.-.e.w.Z.A.& X J 3 J S.3 - D.>.u v.h f k 0.K       ",
"    F.b./ ` #.;.;.H Z.j.G.S.H.J.v 2 ..} %.h.;.7.f K.Q A @.L.    ",
"      P.% I.2 9 9.o.C.P I.U.J H.v Y.& 6 Z.T.u g Q E :.R.3 r.    ",
"      E.r.Y.U.w.W.z R.i u.3 Q.U.w !.~.7 ^.0 t.+.g W.D./.F.      ",
"          L 0.^ -.#.>.C.9 X.(.N.(.X.x.0.d #.m ).-.a.x.w         ",
"          3 @.,.C k 3.h.a.n 9 x.9 q.a.q 3.W.v.^ k *.z._.        ",
"        `.J.;.h.k m M G H '.^.p.^.'.H G W.g ] E Y 3.N.6.,       ",
"        3 d R.d 9.u m t.9.3.s y.s 3.9.t.v.O.! ^ y.).*.].|       ",
"        G.~.f.h.a.l B.' ' C k 9.t.=.t.V ] { Q F e ~.7 [.        ",
"      `.{.}.|.N.7  X> ' h V >.x.h.#.0 T.f j e.D.Z.3 .X          ",
"          d.. (._.XX~.O.).).- u.oX*.a.Z.m ).C.G.P.|             ",
"          OX&.b   # !.h M #._ ~.b.X.w w B.V H..Xv               ",
"            OX      6.%.B : 5.!.+XH._.V./.B.t   5.              ",
"                    P. XJ ].  @X  #X].  V.2 c.                  ",
"                                                                ",
"                                                                ",
"                                                                "};
