/* XPM */
static char * image_name[] = {
"32 32 95 2",
"  	c #020200000000",
". 	c #040404040404",
"X 	c #030303030303",
"o 	c #020201010101",
"O 	c #1D1D1D1D1D1D",
"+ 	c #1C1C1C1C1C1C",
"@ 	c #0B0B0B0B0B0B",
"# 	c #151515151515",
"$ 	c #020202020202",
"% 	c #101010101010",
"& 	c #2B2B2B2B2B2B",
"* 	c #333333333333",
"= 	c #242424242424",
"- 	c #111111111111",
"; 	c #282828282828",
": 	c #2A2A2A2A2A2A",
"> 	c #0F0F0F0F0F0F",
", 	c #171717171717",
"< 	c #252525252525",
"1 	c #2E2E2E2E2E2E",
"2 	c #373737373737",
"3 	c #232323232323",
"4 	c #202020202020",
"5 	c #121212121212",
"6 	c #0A0A0A0A0A0A",
"7 	c #060606060606",
"8 	c #1A1A1A1A1A1A",
"9 	c #2C2C2C2C2C2C",
"0 	c #383838383838",
"q 	c #181818181818",
"w 	c #0C0C0C0C0C0C",
"e 	c #292929292929",
"r 	c #313131313131",
"t 	c #363636363636",
"y 	c #0D0D0D0D0D0D",
"u 	c #050505050505",
"i 	c #303030303030",
"p 	c #212121212121",
"a 	c #0E0E0E0E0E0E",
"s 	c #131313131313",
"d 	c #1B1B1B1B1B1B",
"f 	c #1F1F1F1F1F1F",
"g 	c #222222222222",
"h 	c #070707070707",
"j 	c #161616161616",
"k 	c #090909090909",
"l 	c #272727272727",
"z 	c #4B4B4B4B4B4B",
"x 	c #474747474747",
"c 	c #3A3A3A3A3A3A",
"v 	c #343434343434",
"b 	c #3C3C3C3C3C3C",
"n 	c #323232323232",
"m 	c #2F2F2F2F2F2F",
"M 	c #141414141414",
"N 	c #404040404040",
"B 	c #626262626262",
"V 	c #565656565656",
"C 	c #434343434343",
"Z 	c #3B3B3B3B3B3B",
"A 	c #2D2D2D2D2D2D",
"S 	c #353535353535",
"D 	c #3E3E3E3E3E3E",
"F 	c #535353535353",
"G 	c #464646464646",
"H 	c #191919191919",
"J 	c #414141414141",
"K 	c #424242424242",
"L 	c #1E1E1E1E1E1E",
"P 	c #454545454545",
"I 	c #4F4F4F4F4F4F",
"U 	c #4E4E4E4E4E4E",
"Y 	c #494949494949",
"T 	c #4C4C4C4C4C4C",
"R 	c #3D3D3D3D3D3D",
"E 	c #4A4A4A4A4A4A",
"W 	c #515151515151",
"Q 	c #505050505050",
"! 	c #525252525252",
"~ 	c #5B5B5B5B5B5B",
"^ 	c #393939393939",
"/ 	c #484848484848",
"( 	c #080808080808",
") 	c #5F5F5F5F5F5F",
"_ 	c #585858585858",
"` 	c #545454545454",
"' 	c #3F3F3F3F3F3F",
"] 	c #555555555555",
"[ 	c #5C5C5C5C5C5C",
"{ 	c #262626262626",
"} 	c #4D4D4D4D4D4D",
"| 	c #444444444444",
" .	c #686868686868",
"..	c #575757575757",
"X.	c #5D5D5D5D5D5D",
"                                                                ",
"                          . X         o                         ",
"                        X O + @     # # $                       ",
"                        % & * = $ - ; : >                       ",
"                        , < 1 2 3 4 O 4 5                       ",
"              6 7       8 3 9 2 0 q 5 , %                       ",
"            7 < O w   o 8 3 e r t 5 y % % $ u $ . > 6           ",
"            @ 1 i p > a + = = i i s @ a d % s f g : O o         ",
"            h : ; g p 3 p g 3 < e d y j g 4 = O q 3 f           ",
"    @ , , a % ; p q q < e p = p g < q 8 3 8 d 5 5 O >           ",
"  k l z x c v b : , # p n & = 4 p m f p q # j y % j             ",
"  M N B V C 0 Z c 9 g A r r < g ; S + d # M % w % 7             ",
"  s D F G v ; l S r n Z S c v m i r 8 H j j @ w y               ",
"  a 1 D D r < = & A 9 Z J K C N n * L f , M w -                 ",
"    d A i S l g 1 S S P P z I U G C v * 9 = p L 6 X $           ",
"    < N K Y T G R N G E I W Q I Q E R v l < p + L = : g + s     ",
"o = ! ~ T K 0 ^ c c G E F W W Q I Q / N S i = g p 3 & n Z 1 - o ",
"( m ) _ b 1 : r * D x Q F F V ` W W Y K ' r < = < 1 0 c D A - o ",
"h e ] [ R & { = : S z F W F V V F W } ' 2 0 t A l A 2 K U m 7   ",
"$ H Z ! Y t l g g 1 N } Q F ` ! W ! z b t 2 ' C Z r { = i g h   ",
"    w L 3 < ; 1 i b D x F F ` W W ! P N 0 A & i D S p 4 9 d h   ",
"              k 3 8 1 Z | E z Q ! z b ^ * e e 1 Z T G v H h     ",
"              M d j { 2 ^ J C ' K J 2 * ' t v 2 ' F ~ S         ",
"            ( & H , & S ^ c C S 2 v A l : 2 A S D Q  .c o       ",
"            : i d H v 2 D 2 S 0 t & L 4 l v f q L m R {         ",
"          ( Z 2 g g K N ' n : R v e q , H * & d f { = s o       ",
"          w n J t t U N ' * r b D A q q 8 { 2 + j 8 s h         ",
"          h H g 4 3 ] U D | C R t R L O 4 1 ' a                 ",
"            $ 6 - H G ../ X.~ P n { R r n Z v y                 ",
"              o u $ O R C T ` } : ( q m S A 4 k                 ",
"                    $ H g p l 4 y     o y a .                   ",
"                        o 7 u X                                 "};
