/* XPM */
static char * image_name[] = {
"32 32 190 2",
"  	c #020200000000",
". 	c #030303030303",
"X 	c #040404040404",
"o 	c #1D1D1D1D1D1D",
"O 	c #181818181818",
"+ 	c #070707070707",
"@ 	c #2A2A2A2A2A2A",
"# 	c #515151515151",
"$ 	c #545454545454",
"% 	c #424242424242",
"& 	c #373737373737",
"* 	c #303030303030",
"= 	c #202020202020",
"- 	c #1C1C1C1C1C1C",
"; 	c #050505050505",
": 	c #404040404040",
"> 	c #6E6E6E6E6E6E",
", 	c #787878787878",
"< 	c #737373737373",
"1 	c #363636363636",
"2 	c #171717171717",
"3 	c #3E3E3E3E3E3E",
"4 	c #444444444444",
"5 	c #141414141414",
"6 	c #0A0A0A0A0A0A",
"7 	c #292929292929",
"8 	c #5B5B5B5B5B5B",
"9 	c #474747474747",
"0 	c #949494949494",
"q 	c #9E9E9E9E9E9E",
"w 	c #9B9B9B9B9B9B",
"e 	c #4D4D4D4D4D4D",
"r 	c #656565656565",
"t 	c #8D8D8D8D8D8D",
"y 	c #898989898989",
"u 	c #797979797979",
"i 	c #3F3F3F3F3F3F",
"p 	c #353535353535",
"a 	c #808080808080",
"s 	c #888888888888",
"d 	c #8E8E8E8E8E8E",
"f 	c #B3B3B3B3B3B3",
"g 	c #BABABABABABA",
"h 	c #C0C0C0C0C0C0",
"j 	c #BEBEBEBEBEBE",
"k 	c #868686868686",
"l 	c #ABABABABABAB",
"z 	c #B7B7B7B7B7B7",
"x 	c #ACACACACACAC",
"c 	c #989898989898",
"v 	c #414141414141",
"b 	c #2C2C2C2C2C2C",
"n 	c #9A9A9A9A9A9A",
"m 	c #AEAEAEAEAEAE",
"M 	c #AAAAAAAAAAAA",
"N 	c #969696969696",
"B 	c #9D9D9D9D9D9D",
"V 	c #D6D6D6D6D6D6",
"C 	c #D8D8D8D8D8D8",
"Z 	c #999999999999",
"A 	c #B0B0B0B0B0B0",
"S 	c #525252525252",
"D 	c #161616161616",
"F 	c #1E1E1E1E1E1E",
"G 	c #828282828282",
"H 	c #C3C3C3C3C3C3",
"J 	c #BCBCBCBCBCBC",
"K 	c #858585858585",
"L 	c #CBCBCBCBCBCB",
"P 	c #D9D9D9D9D9D9",
"I 	c #ADADADADADAD",
"U 	c #B1B1B1B1B1B1",
"Y 	c #838383838383",
"T 	c #878787878787",
"R 	c #939393939393",
"E 	c #7A7A7A7A7A7A",
"W 	c #232323232323",
"Q 	c #020202020202",
"! 	c #1F1F1F1F1F1F",
"~ 	c #4A4A4A4A4A4A",
"^ 	c #9F9F9F9F9F9F",
"/ 	c #A4A4A4A4A4A4",
"( 	c #BBBBBBBBBBBB",
") 	c #757575757575",
"_ 	c #B5B5B5B5B5B5",
"` 	c #C4C4C4C4C4C4",
"' 	c #6C6C6C6C6C6C",
"] 	c #5F5F5F5F5F5F",
"[ 	c #3A3A3A3A3A3A",
"{ 	c #0C0C0C0C0C0C",
"} 	c #111111111111",
"| 	c #7F7F7F7F7F7F",
" .	c #9C9C9C9C9C9C",
"..	c #8C8C8C8C8C8C",
"X.	c #666666666666",
"o.	c #717171717171",
"O.	c #5E5E5E5E5E5E",
"+.	c #7B7B7B7B7B7B",
"@.	c #707070707070",
"#.	c #C1C1C1C1C1C1",
"$.	c #272727272727",
"%.	c #121212121212",
"&.	c #565656565656",
"*.	c #CCCCCCCCCCCC",
"=.	c #2F2F2F2F2F2F",
"-.	c #E4E4E4E4E4E4",
";.	c #EEEEEEEEEEEE",
":.	c #E3E3E3E3E3E3",
">.	c #DDDDDDDDDDDD",
",.	c #D2D2D2D2D2D2",
"<.	c #6D6D6D6D6D6D",
"1.	c #252525252525",
"2.	c #6B6B6B6B6B6B",
"3.	c #B2B2B2B2B2B2",
"4.	c #979797979797",
"5.	c #383838383838",
"6.	c #A3A3A3A3A3A3",
"7.	c #8B8B8B8B8B8B",
"8.	c #CACACACACACA",
"9.	c #C5C5C5C5C5C5",
"0.	c #8F8F8F8F8F8F",
"q.	c #777777777777",
"w.	c #3C3C3C3C3C3C",
"e.	c #2E2E2E2E2E2E",
"r.	c #191919191919",
"t.	c #434343434343",
"y.	c #676767676767",
"u.	c #AFAFAFAFAFAF",
"i.	c #0D0D0D0D0D0D",
"p.	c #393939393939",
"a.	c #4C4C4C4C4C4C",
"s.	c #6A6A6A6A6A6A",
"d.	c #727272727272",
"f.	c #A1A1A1A1A1A1",
"g.	c #B8B8B8B8B8B8",
"h.	c #595959595959",
"j.	c #454545454545",
"k.	c #575757575757",
"l.	c #4B4B4B4B4B4B",
"z.	c #6F6F6F6F6F6F",
"x.	c #7E7E7E7E7E7E",
"c.	c #818181818181",
"v.	c #7D7D7D7D7D7D",
"b.	c #646464646464",
"n.	c #585858585858",
"m.	c #5C5C5C5C5C5C",
"M.	c #555555555555",
"N.	c #616161616161",
"B.	c #A5A5A5A5A5A5",
"V.	c #767676767676",
"C.	c #101010101010",
"Z.	c #090909090909",
"A.	c #919191919191",
"S.	c #222222222222",
"D.	c #5D5D5D5D5D5D",
"F.	c #A6A6A6A6A6A6",
"G.	c #8A8A8A8A8A8A",
"H.	c #747474747474",
"J.	c #1A1A1A1A1A1A",
"K.	c #A0A0A0A0A0A0",
"L.	c #313131313131",
"P.	c #929292929292",
"I.	c #D0D0D0D0D0D0",
"U.	c #CDCDCDCDCDCD",
"Y.	c #5A5A5A5A5A5A",
"T.	c #C6C6C6C6C6C6",
"R.	c #242424242424",
"E.	c #0F0F0F0F0F0F",
"W.	c #0E0E0E0E0E0E",
"Q.	c #D7D7D7D7D7D7",
"!.	c #D4D4D4D4D4D4",
"~.	c #B6B6B6B6B6B6",
"^.	c #E2E2E2E2E2E2",
"/.	c #B9B9B9B9B9B9",
"(.	c #020201010101",
").	c #606060606060",
"_.	c #BDBDBDBDBDBD",
"`.	c #C8C8C8C8C8C8",
"'.	c #060606060606",
"].	c #2D2D2D2D2D2D",
"[.	c #B4B4B4B4B4B4",
"{.	c #686868686868",
"}.	c #131313131313",
"|.	c #080808080808",
" X	c #505050505050",
".X	c #3D3D3D3D3D3D",
"XX	c #494949494949",
"oX	c #2B2B2B2B2B2B",
"OX	c #484848484848",
"+X	c #1B1B1B1B1B1B",
"                                                                ",
"                                                                ",
"                                        .                       ",
"                      X o O +                                   ",
"                      @ # $ %           & * =                   ",
"                - ;   : > , < 1     2 3 4 5 6                   ",
"                7 8 5 9 0 q q w e r t y u i                     ",
"              p 9 a s d f g h j k l z x c v                     ",
"            o b e n m M N B V C z Z h A S ; ;   D               ",
"                F G h H J K h L P I U Y T G R E r W             ",
"              Q ! ~ ^ / ( n d l G ) _ ` ) ' z ^ k ] [           ",
"              { } i < , |  ...X.n o.O.+.T @.#.A a e $.          ",
"              %.%.&.d q t 0 *.=. .-.;.:.>.,.A <.1.              ",
"            Q } F 2.3.P 4.5.6.7.@.,.8.9._ #.0.q.] w.  W         ",
"            ; D e.=.q.P 9.r.e g t.T y.2.7.j u.x A 0.7           ",
"          . i.4 p.w.a.0 +.s.: m < d.X.2.f.g.L  .z N h.          ",
"          i.j.E ! k.@.p.h.0 l.z.x.X.<.k c.0 ^ x.v.G b.X         ",
"            [ o.n.j.m.n.t v M.$ z.y.X.b.N.] B.V.k.$.! C.        ",
"          Q Z.W A.K S.e.4.k.D.F.T G.> X.H.m.N.3 5.=.Z.W 6       ",
"          J.* j.x K.L.P.I.s.H U._ ) Y.I T.0 R.6 E.W.    F       ",
"          Q 2 r.n f 7.> B.c Q.g.!./ ~.^./.# { X                 ",
"          (.; v ).F.~.J _.9.` 0 &.C C `.m 9 '.Q                 ",
"          i.4 ] ].Y [.f.f j 8.{.b I.h w R ) R.(.;               ",
"            ; =.  # , Y.+.+./ K.' B.c {.b.5.b 2 Q               ",
"              }.. &.m.p.1.9 R I d.K a +.).$.4 1                 ",
"                  %.}   |.].K 4.@. X+.c.O.1..XZ.                ",
"                        ].D.> s.* 2 XXS 2 . '.                  ",
"                    { R.oXOX$ 9 + (.. E.(.                      ",
"                          Z.+Xi.                                ",
"                                                                ",
"                                                                ",
"                                                                "};
