/* XPM */
static char * image_name[] = {
"32 32 141 2",
"  	c #020200000000",
". 	c #020202020202",
"X 	c #040404040404",
"o 	c #030303030303",
"O 	c #0A0A0A0A0A0A",
"+ 	c #101010101010",
"@ 	c #090909090909",
"# 	c #020201010101",
"$ 	c #050505050505",
"% 	c #121212121212",
"& 	c #151515151515",
"* 	c #161616161616",
"= 	c #141414141414",
"- 	c #0F0F0F0F0F0F",
"; 	c #0D0D0D0D0D0D",
": 	c #3A3A3A3A3A3A",
"> 	c #373737373737",
", 	c #292929292929",
"< 	c #454545454545",
"1 	c #2B2B2B2B2B2B",
"2 	c #131313131313",
"3 	c #1A1A1A1A1A1A",
"4 	c #4C4C4C4C4C4C",
"5 	c #494949494949",
"6 	c #191919191919",
"7 	c #0C0C0C0C0C0C",
"8 	c #0B0B0B0B0B0B",
"9 	c #212121212121",
"0 	c #2A2A2A2A2A2A",
"q 	c #1B1B1B1B1B1B",
"w 	c #4F4F4F4F4F4F",
"e 	c #6A6A6A6A6A6A",
"r 	c #2E2E2E2E2E2E",
"t 	c #060606060606",
"y 	c #080808080808",
"u 	c #0E0E0E0E0E0E",
"i 	c #1F1F1F1F1F1F",
"p 	c #1D1D1D1D1D1D",
"a 	c #313131313131",
"s 	c #383838383838",
"d 	c #2F2F2F2F2F2F",
"f 	c #1C1C1C1C1C1C",
"g 	c #242424242424",
"h 	c #303030303030",
"j 	c #333333333333",
"k 	c #393939393939",
"l 	c #2C2C2C2C2C2C",
"z 	c #222222222222",
"x 	c #252525252525",
"c 	c #181818181818",
"v 	c #232323232323",
"b 	c #363636363636",
"n 	c #4B4B4B4B4B4B",
"m 	c #3E3E3E3E3E3E",
"M 	c #2D2D2D2D2D2D",
"N 	c #1E1E1E1E1E1E",
"B 	c #535353535353",
"V 	c #595959595959",
"C 	c #070707070707",
"Z 	c #474747474747",
"A 	c #585858585858",
"S 	c #656565656565",
"D 	c #6B6B6B6B6B6B",
"F 	c #646464646464",
"G 	c #3C3C3C3C3C3C",
"H 	c #484848484848",
"J 	c #414141414141",
"K 	c #626262626262",
"L 	c #757575757575",
"P 	c #5F5F5F5F5F5F",
"I 	c #3D3D3D3D3D3D",
"U 	c #282828282828",
"Y 	c #707070707070",
"T 	c #171717171717",
"R 	c #464646464646",
"E 	c #4A4A4A4A4A4A",
"W 	c #5E5E5E5E5E5E",
"Q 	c #111111111111",
"! 	c #343434343434",
"~ 	c #404040404040",
"^ 	c #434343434343",
"/ 	c #616161616161",
"( 	c #323232323232",
") 	c #606060606060",
"_ 	c #868686868686",
"` 	c #545454545454",
"' 	c #5B5B5B5B5B5B",
"] 	c #3F3F3F3F3F3F",
"[ 	c #6D6D6D6D6D6D",
"{ 	c #444444444444",
"} 	c #3B3B3B3B3B3B",
"| 	c #747474747474",
" .	c #727272727272",
"..	c #787878787878",
"X.	c #7D7D7D7D7D7D",
"o.	c #505050505050",
"O.	c #828282828282",
"+.	c #636363636363",
"@.	c #202020202020",
"#.	c #858585858585",
"$.	c #878787878787",
"%.	c #AAAAAAAAAAAA",
"&.	c #9C9C9C9C9C9C",
"*.	c #818181818181",
"=.	c #ABABABABABAB",
"-.	c #7C7C7C7C7C7C",
";.	c #989898989898",
":.	c #A2A2A2A2A2A2",
">.	c #686868686868",
",.	c #A5A5A5A5A5A5",
"<.	c #D2D2D2D2D2D2",
"1.	c #B3B3B3B3B3B3",
"2.	c #B5B5B5B5B5B5",
"3.	c #5D5D5D5D5D5D",
"4.	c #999999999999",
"5.	c #B0B0B0B0B0B0",
"6.	c #6E6E6E6E6E6E",
"7.	c #939393939393",
"8.	c #A9A9A9A9A9A9",
"9.	c #969696969696",
"0.	c #515151515151",
"q.	c #7A7A7A7A7A7A",
"w.	c #676767676767",
"e.	c #737373737373",
"r.	c #4E4E4E4E4E4E",
"t.	c #424242424242",
"y.	c #717171717171",
"u.	c #5A5A5A5A5A5A",
"i.	c #848484848484",
"p.	c #838383838383",
"a.	c #7B7B7B7B7B7B",
"s.	c #979797979797",
"d.	c #6C6C6C6C6C6C",
"f.	c #272727272727",
"g.	c #777777777777",
"h.	c #262626262626",
"j.	c #5C5C5C5C5C5C",
"k.	c #666666666666",
"l.	c #555555555555",
"z.	c #353535353535",
"x.	c #565656565656",
"                                                                ",
"                                                                ",
"                              . X X o                           ",
"                            X O + + @ X #                       ",
"                      $ % X & * = - - ; X                       ",
"                    # : > , < 1 * + 2 % @           ; +         ",
"                  . 3 4 5 1 6 - = 7 = 8 #       2 8 9 0         ",
"                X 8 q w e r & . . t y         $ 9   u i         ",
"            # t + p , a s d f                 1 t   g ; y       ",
"            $ + 9 h j k l z x 6             9 f   - p y o       ",
"          8 c v b n m l p 8 u r u         g M   7 N . X         ",
"      # $ N 0 m B V V j 3 O C % 0       + s     p o . 8         ",
"        O r Z A S D F G 0 2 8 o H G   # s .   u . X ;           ",
"        2 , J K L P I H > v a @ U Y   M q   O u ; % 1 $         ",
"      o T r R E 1 f & % p s k M b W ; f + & W 1 6 p c $         ",
"      C p b H 5 s N ; y Q , ! ~ ^ / < , 2 ( =         $ 7 #     ",
"      8 z I ) Y H % & q f ^ _ ` 5 _ ' ] s $ &           #       ",
"      7 g ~ [ Y { , g p Q } |  ...X.L o.O.% X Q .   p 5 O       ",
"      u g ~ +.B j , @.$ O ~ #.$.%.&.*.) =.-.O u B ) 2 j =       ",
"      7 v ]  .;.:.>.z 6 = r ,.<.1.2.| 3.K 4.g $ O N ; o 7 o     ",
"      O @.: e ,.5.6.o.i ! L 7.8.8.9.[ 4.R j H C . 8 j q   + O   ",
"      C 3 ( 0.q.#.F b w.e H w  .e.r.o.:.+.; R i q Q 2 8         ",
"      . 2 U t.3.y.u.X.i.p.5 5 5 | 4 k : a 8 - a = a s ; $       ",
"        O p j E w. .a.s.d.Y x M ] +.! k = 3 ; T + 8 6 u         ",
"        X % f.: B e X.X.>.g.% ^ h.I l j., U & C C t             ",
"          @ T U } 0.k.>.[ 4 * u.d 6 ( n b M x C o #             ",
"          # O T U s H ` l.j h.j.0.O h.9 ] ! I ; .               ",
"            # y 2 9 r s z.U v [ 1 y 9 T l ] x.3                 ",
"                $ ; T @.p N z A 6 @ Q + 2 @ ( h.%               ",
"                  # t 8 u & & 6 - t C $ o     Q $               ",
"                      # . X $ $ . #                             ",
"                                                                "};
