/* XPM */
static char * image_name[] = {
"32 32 58 1",
" 	c #020200000000",
".	c #020201010101",
"X	c #040404040404",
"o	c #020202020202",
"O	c #0B0B0B0B0B0B",
"+	c #0F0F0F0F0F0F",
"@	c #030303030303",
"#	c #050505050505",
"$	c #0D0D0D0D0D0D",
"%	c #101010101010",
"&	c #060606060606",
"*	c #121212121212",
"=	c #080808080808",
"-	c #151515151515",
";	c #0A0A0A0A0A0A",
":	c #070707070707",
">	c #111111111111",
",	c #0C0C0C0C0C0C",
"<	c #141414141414",
"1	c #090909090909",
"2	c #1A1A1A1A1A1A",
"3	c #161616161616",
"4	c #0E0E0E0E0E0E",
"5	c #171717171717",
"6	c #181818181818",
"7	c #131313131313",
"8	c #1B1B1B1B1B1B",
"9	c #202020202020",
"0	c #252525252525",
"q	c #2F2F2F2F2F2F",
"w	c #383838383838",
"e	c #393939393939",
"r	c #191919191919",
"t	c #212121212121",
"y	c #282828282828",
"u	c #363636363636",
"i	c #373737373737",
"p	c #303030303030",
"a	c #424242424242",
"s	c #3D3D3D3D3D3D",
"d	c #434343434343",
"f	c #3B3B3B3B3B3B",
"g	c #262626262626",
"h	c #444444444444",
"j	c #3C3C3C3C3C3C",
"k	c #292929292929",
"l	c #1C1C1C1C1C1C",
"z	c #222222222222",
"x	c #313131313131",
"c	c #333333333333",
"v	c #2A2A2A2A2A2A",
"b	c #1F1F1F1F1F1F",
"n	c #232323232323",
"m	c #272727272727",
"M	c #2B2B2B2B2B2B",
"N	c #1E1E1E1E1E1E",
"B	c #2E2E2E2E2E2E",
"V	c #2C2C2C2C2C2C",
"                                ",
"                                ",
"          .  X  .               ",
"               o  O+@           ",
"             #$%&   @*=         ",
"         ..o   X-+  . OX$.      ",
"          .#o.o&;.:#=$>@o,;     ",
"            X&=+<$$:::X #$>=    ",
"         .  &1*<223<$;$1,$4>#   ",
"           @#$22225561:74%$3*   ",
"       .   1:#X*-328<*;44 =$7   ",
"         oO1+65%69-$==;$;&:++   ",
"         X#$*50qweq9>:X,O$@+4   ",
"      ;rtyuuipaswdf<%=#;=1#%O   ",
"         o&>rguehjk6l>&O+%.3=   ",
"            ;<zxcvg8l1+-&==b    ",
"          . o o:$5n5550&%=38:   ",
"           @o.5mvMN45M+r#$5,@   ",
"          @#+-9b+=:virX +t=o    ",
"      %X    @XoXrcfB7 >cN;&:    ",
"        :3O=@6yqmzN0VBg*X==     ",
"           :29kvBvq6>;4$:       ",
"              X1&$o:1           ",
"                                ",
"                                ",
"                                ",
"                                ",
"                                ",
"                                ",
"                                ",
"                                ",
"                                "};
