/* XPM */
static char * image_name[] = {
"32 32 90 1",
" 	c #020200000000",
".	c #020201010101",
"X	c #020202020202",
"o	c #040404040404",
"O	c #050505050505",
"+	c #030303030303",
"@	c #080808080808",
"#	c #070707070707",
"$	c #090909090909",
"%	c #0C0C0C0C0C0C",
"&	c #0E0E0E0E0E0E",
"*	c #0D0D0D0D0D0D",
"=	c #0B0B0B0B0B0B",
"-	c #0F0F0F0F0F0F",
";	c #111111111111",
":	c #151515151515",
">	c #1B1B1B1B1B1B",
",	c #181818181818",
"<	c #141414141414",
"1	c #060606060606",
"2	c #121212121212",
"3	c #1F1F1F1F1F1F",
"4	c #252525252525",
"5	c #292929292929",
"6	c #272727272727",
"7	c #222222222222",
"8	c #2A2A2A2A2A2A",
"9	c #373737373737",
"0	c #3B3B3B3B3B3B",
"q	c #383838383838",
"w	c #343434343434",
"e	c #3E3E3E3E3E3E",
"r	c #4E4E4E4E4E4E",
"t	c #535353535353",
"y	c #4F4F4F4F4F4F",
"u	c #494949494949",
"i	c #1D1D1D1D1D1D",
"p	c #0A0A0A0A0A0A",
"a	c #161616161616",
"s	c #505050505050",
"d	c #676767676767",
"f	c #6F6F6F6F6F6F",
"g	c #696969696969",
"h	c #606060606060",
"j	c #404040404040",
"k	c #101010101010",
"l	c #131313131313",
"z	c #242424242424",
"x	c #323232323232",
"c	c #4B4B4B4B4B4B",
"v	c #787878787878",
"b	c #737373737373",
"n	c #686868686868",
"m	c #6C6C6C6C6C6C",
"M	c #2F2F2F2F2F2F",
"N	c #262626262626",
"B	c #202020202020",
"V	c #3D3D3D3D3D3D",
"C	c #2D2D2D2D2D2D",
"Z	c #5C5C5C5C5C5C",
"A	c #616161616161",
"S	c #6E6E6E6E6E6E",
"D	c #626262626262",
"F	c #303030303030",
"G	c #424242424242",
"H	c #525252525252",
"J	c #313131313131",
"K	c #1C1C1C1C1C1C",
"L	c #656565656565",
"P	c #282828282828",
"I	c #363636363636",
"U	c #191919191919",
"Y	c #414141414141",
"T	c #2E2E2E2E2E2E",
"R	c #1A1A1A1A1A1A",
"E	c #484848484848",
"W	c #454545454545",
"Q	c #212121212121",
"!	c #393939393939",
"~	c #1E1E1E1E1E1E",
"^	c #4A4A4A4A4A4A",
"/	c #464646464646",
"(	c #232323232323",
")	c #2C2C2C2C2C2C",
"_	c #3C3C3C3C3C3C",
"`	c #3A3A3A3A3A3A",
"'	c #333333333333",
"]	c #434343434343",
"[	c #444444444444",
"{	c #171717171717",
"                                ",
"               .X..             ",
"           .   ..X..            ",
"          .oO+XO@oXo..X.        ",
"          X#$$%&&*=OoXXXX       ",
"       ...X%-;:>>,<$#Oo+XX      ",
"     ..XX..12345567&=@1oOX      ",
"    .Xo1 .X+@8900qw2-O$OOX      ",
"     +O@.+oo$erttyuipOO2%X      ",
"   .XX+@p-a7isdffghj>2kl1oX.    ",
"   .XXX1=kzxjcyvbnmueMNi@oX.    ",
"   .XXo#=k8BVcCZASDFGHGJi@o..   ",
"   .XX$<*l7Kp#1p*=+>9Lsq4:#X.X. ",
"   .Xo$:PI7-U+     U=tZYTR@ooX. ",
"      o,z<1;VF  *;  XEAW5ooo... ",
"        +-QPqz.Xo!~zJ^D/(O++X.. ",
"        .#XU#.   lN)5uc_N#oXo.  ",
"        O;,:l   l4BO +BU-@o+OX  ",
"       +@-:al   k6`  +p2@oXoOX  ",
"   Xo. X@*-%   pi('OX  $=*#XX.  ",
"   XO@*$XX.   p:0]Yko.1O&&@XX.  ",
"  ..+1#...     =w[Nl&#  ###o.   ",
"    XO#o..+    o>iK{-. XO1oX.   ",
"     +O1X+O#.XO-aRlk<#o+11oX    ",
"     .X.       @k>#Oo;*$OoX     ",
"      .        #*2%++#11oX.     ",
"              .#1#+    o.       ",
"                 +.    .        ",
"                  ..            ",
"                                ",
"                                ",
"                                "};
