/* XPM */
static char * image_name[] = {
"32 32 87 1",
" 	c #020200000000",
".	c #353535353535",
"X	c #8B8B8B8B8B8B",
"o	c #B1B1B1B1B1B1",
"O	c #B3B3B3B3B3B3",
"+	c #878787878787",
"@	c #2A2A2A2A2A2A",
"#	c #383838383838",
"$	c #B7B7B7B7B7B7",
"%	c #F4F4F4F4F4F4",
"&	c #FDFDFDFDFDFD",
"*	c #A9A9A9A9A9A9",
"=	c #0C0C0C0C0C0C",
"-	c #797979797979",
";	c #D6D6D6D6D6D6",
":	c #ABABABABABAB",
">	c #8F8F8F8F8F8F",
",	c #999999999999",
"<	c #C9C9C9C9C9C9",
"1	c #F1F1F1F1F1F1",
"2	c #BABABABABABA",
"3	c #5B5B5B5B5B5B",
"4	c #5C5C5C5C5C5C",
"5	c #020202020202",
"6	c #424242424242",
"7	c #D2D2D2D2D2D2",
"8	c #FBFBFBFBFBFB",
"9	c #737373737373",
"0	c #020201010101",
"q	c #0D0D0D0D0D0D",
"w	c #161616161616",
"e	c #C7C7C7C7C7C7",
"r	c #DEDEDEDEDEDE",
"t	c #0B0B0B0B0B0B",
"y	c #222222222222",
"u	c #DDDDDDDDDDDD",
"i	c #FAFAFAFAFAFA",
"p	c #202020202020",
"a	c #6D6D6D6D6D6D",
"s	c #A0A0A0A0A0A0",
"d	c #A4A4A4A4A4A4",
"f	c #767676767676",
"g	c #1E1E1E1E1E1E",
"h	c #757575757575",
"j	c #FCFCFCFCFCFC",
"k	c #A1A1A1A1A1A1",
"l	c #1C1C1C1C1C1C",
"z	c #9F9F9F9F9F9F",
"x	c #EEEEEEEEEEEE",
"c	c #F0F0F0F0F0F0",
"v	c #949494949494",
"b	c #040404040404",
"n	c #C8C8C8C8C8C8",
"m	c #4F4F4F4F4F4F",
"M	c #E2E2E2E2E2E2",
"N	c #EBEBEBEBEBEB",
"B	c #D0D0D0D0D0D0",
"V	c #ADADADADADAD",
"C	c #B9B9B9B9B9B9",
"Z	c #E8E8E8E8E8E8",
"A	c #7E7E7E7E7E7E",
"S	c #828282828282",
"D	c #F5F5F5F5F5F5",
"F	c #B5B5B5B5B5B5",
"G	c #454545454545",
"H	c #070707070707",
"J	c #919191919191",
"K	c #EDEDEDEDEDED",
"L	c #DFDFDFDFDFDF",
"P	c #0A0A0A0A0A0A",
"I	c #646464646464",
"U	c #F6F6F6F6F6F6",
"Y	c #E5E5E5E5E5E5",
"T	c #636363636363",
"R	c #616161616161",
"E	c #EAEAEAEAEAEA",
"W	c #585858585858",
"Q	c #525252525252",
"!	c #F2F2F2F2F2F2",
"~	c #E7E7E7E7E7E7",
"^	c #484848484848",
"/	c #888888888888",
"(	c #545454545454",
")	c #575757575757",
"_	c #787878787878",
"`	c #444444444444",
"'	c #2E2E2E2E2E2E",
"                                ",
"                                ",
"                                ",
"                                ",
"                                ",
"       .XoO+@                   ",
"     #$%&&&&%*=                 ",
"    -;:>,<1&&&2                 ",
"   34=   567&&89                ",
"  0q       we&&rt               ",
"            yu&i3   pasdfg      ",
"             hj&k lzx&&&&cvb    ",
"             tu&nmM&&&&&&&8$    ",
"              :&N1&&%BVkCZjjA   ",
"              S&%&DFGH   gJKLP  ",
"              IU%YT0      0REW  ",
"              Q!~^          /k  ",
"              (Z)           =C  ",
"              4_             A  ",
"              `              '  ",
"              0                 ",
"                                ",
"                                ",
"                                ",
"                                ",
"                                ",
"                                ",
"                                ",
"                                ",
"                                ",
"                                ",
"                                "};
