/* XPM */
static char * image_name[] = {
"32 32 168 2",
"  	c #020200000000",
". 	c #040404040404",
"X 	c #060606060606",
"o 	c #505050505050",
"O 	c #070707070707",
"+ 	c #181818181818",
"@ 	c #3B3B3B3B3B3B",
"# 	c #2B2B2B2B2B2B",
"$ 	c #1F1F1F1F1F1F",
"% 	c #0A0A0A0A0A0A",
"& 	c #616161616161",
"* 	c #8E8E8E8E8E8E",
"= 	c #161616161616",
"- 	c #030303030303",
"; 	c #9B9B9B9B9B9B",
": 	c #9A9A9A9A9A9A",
"> 	c #6D6D6D6D6D6D",
", 	c #020202020202",
"< 	c #414141414141",
"1 	c #999999999999",
"2 	c #A6A6A6A6A6A6",
"3 	c #282828282828",
"4 	c #8F8F8F8F8F8F",
"5 	c #C3C3C3C3C3C3",
"6 	c #B2B2B2B2B2B2",
"7 	c #4E4E4E4E4E4E",
"8 	c #6E6E6E6E6E6E",
"9 	c #C5C5C5C5C5C5",
"0 	c #C7C7C7C7C7C7",
"q 	c #545454545454",
"w 	c #0C0C0C0C0C0C",
"e 	c #4A4A4A4A4A4A",
"r 	c #ABABABABABAB",
"t 	c #CCCCCCCCCCCC",
"y 	c #C4C4C4C4C4C4",
"u 	c #868686868686",
"i 	c #0F0F0F0F0F0F",
"p 	c #AAAAAAAAAAAA",
"a 	c #D8D8D8D8D8D8",
"s 	c #575757575757",
"d 	c #202020202020",
"f 	c #7F7F7F7F7F7F",
"g 	c #D6D6D6D6D6D6",
"h 	c #D3D3D3D3D3D3",
"j 	c #9F9F9F9F9F9F",
"k 	c #2E2E2E2E2E2E",
"l 	c #272727272727",
"z 	c #DEDEDEDEDEDE",
"x 	c #CFCFCFCFCFCF",
"c 	c #5D5D5D5D5D5D",
"v 	c #424242424242",
"b 	c #979797979797",
"n 	c #DCDCDCDCDCDC",
"m 	c #B3B3B3B3B3B3",
"M 	c #333333333333",
"N 	c #1C1C1C1C1C1C",
"B 	c #ADADADADADAD",
"V 	c #E2E2E2E2E2E2",
"C 	c #D7D7D7D7D7D7",
"Z 	c #727272727272",
"A 	c #262626262626",
"S 	c #E1E1E1E1E1E1",
"D 	c #BBBBBBBBBBBB",
"F 	c #494949494949",
"G 	c #E5E5E5E5E5E5",
"H 	c #4D4D4D4D4D4D",
"J 	c #969696969696",
"K 	c #E4E4E4E4E4E4",
"L 	c #BCBCBCBCBCBC",
"P 	c #090909090909",
"I 	c #E7E7E7E7E7E7",
"U 	c #A1A1A1A1A1A1",
"Y 	c #959595959595",
"T 	c #D2D2D2D2D2D2",
"R 	c #E8E8E8E8E8E8",
"E 	c #7A7A7A7A7A7A",
"W 	c #5A5A5A5A5A5A",
"Q 	c #454545454545",
"! 	c #242424242424",
"~ 	c #EAEAEAEAEAEA",
"^ 	c #EBEBEBEBEBEB",
"/ 	c #E9E9E9E9E9E9",
"( 	c #C2C2C2C2C2C2",
") 	c #A2A2A2A2A2A2",
"_ 	c #C9C9C9C9C9C9",
"` 	c #B9B9B9B9B9B9",
"' 	c #A0A0A0A0A0A0",
"] 	c #A7A7A7A7A7A7",
"[ 	c #757575757575",
"{ 	c #626262626262",
"} 	c #222222222222",
"| 	c #303030303030",
" .	c #4F4F4F4F4F4F",
"..	c #666666666666",
"X.	c #909090909090",
"o.	c #D1D1D1D1D1D1",
"O.	c #EDEDEDEDEDED",
"+.	c #ECECECECECEC",
"@.	c #C1C1C1C1C1C1",
"#.	c #949494949494",
"$.	c #1D1D1D1D1D1D",
"%.	c #3C3C3C3C3C3C",
"&.	c #CBCBCBCBCBCB",
"*.	c #D4D4D4D4D4D4",
"=.	c #E3E3E3E3E3E3",
"-.	c #E6E6E6E6E6E6",
";.	c #E0E0E0E0E0E0",
":.	c #DDDDDDDDDDDD",
">.	c #CACACACACACA",
",.	c #B4B4B4B4B4B4",
"<.	c #747474747474",
"1.	c #D9D9D9D9D9D9",
"2.	c #DADADADADADA",
"3.	c #DFDFDFDFDFDF",
"4.	c #D0D0D0D0D0D0",
"5.	c #BFBFBFBFBFBF",
"6.	c #808080808080",
"7.	c #404040404040",
"8.	c #393939393939",
"9.	c #8C8C8C8C8C8C",
"0.	c #9E9E9E9E9E9E",
"q.	c #A5A5A5A5A5A5",
"w.	c #B0B0B0B0B0B0",
"e.	c #595959595959",
"r.	c #5C5C5C5C5C5C",
"t.	c #323232323232",
"y.	c #101010101010",
"u.	c #353535353535",
"i.	c #606060606060",
"p.	c #292929292929",
"a.	c #1A1A1A1A1A1A",
"s.	c #565656565656",
"d.	c #C0C0C0C0C0C0",
"f.	c #DBDBDBDBDBDB",
"g.	c #0E0E0E0E0E0E",
"h.	c #A4A4A4A4A4A4",
"j.	c #C6C6C6C6C6C6",
"k.	c #444444444444",
"l.	c #212121212121",
"z.	c #636363636363",
"x.	c #2D2D2D2D2D2D",
"c.	c #919191919191",
"v.	c #131313131313",
"b.	c #AEAEAEAEAEAE",
"n.	c #020201010101",
"m.	c #898989898989",
"M.	c #CECECECECECE",
"N.	c #818181818181",
"B.	c #A3A3A3A3A3A3",
"V.	c #525252525252",
"C.	c #6A6A6A6A6A6A",
"Z.	c #050505050505",
"A.	c #707070707070",
"S.	c #484848484848",
"D.	c #717171717171",
"F.	c #888888888888",
"G.	c #D5D5D5D5D5D5",
"H.	c #121212121212",
"J.	c #464646464646",
"K.	c #2C2C2C2C2C2C",
"L.	c #1B1B1B1B1B1B",
"P.	c #989898989898",
"I.	c #2A2A2A2A2A2A",
"U.	c #363636363636",
"Y.	c #232323232323",
"T.	c #191919191919",
"R.	c #878787878787",
"E.	c #141414141414",
"                                                                ",
"                                                                ",
"                                                                ",
"                          .                                     ",
"                        X o O               + @ # $             ",
"                      % & * =             - o ; : > ,           ",
"                      < 1 2 3           . < 4 5 6 7             ",
"                    = 8 9 0 q         w e r t y u i             ",
"                    @ p a t s       d f 5 g h j k               ",
"                    l 2 z x c     v b h z n m M                 ",
"                    N B V C Z i A 4 n V S D F                   ",
"                    v 0 G n > H J x K G L & P                   ",
"                    e 5 I z U Y T I R g U E W @ Q -             ",
"                    ! m R ~ h g ^ ^ / ( ) _ ` ' ] f [ { }       ",
"            = |  ...X.o.~ ^ ~ ^ O.+./ C z V z C g x 9 @.#.$.    ",
"      - %.[ ] @.&.*.=.-.~ +.O.O.O.O.^ / I G =.;.:.a >.,.<.%     ",
"      ! Y 0 1.2.3.K I R ~ +.O.O.O.O./ ;.4.T T 5.m 2 6.7.X       ",
"      - 8.9.0.q.r w.B ` 2.~ O.O.O.+.g 4 e.r.W t.N = X           ",
"          i y.u.i.p.a.s.d.K / +.+.^ f.4 g.                      ",
"                      e.5 h.5 / ^ ~ R j.k.                      ",
"                  l.W Z z.x.X.;.R 3.C f.c.v.                    ",
"                N #.b.c.d n.m.z -.t U M.9 N.w                   ",
"                M B.j.; $   N.a =.5.m.h.4.( V.                  ",
"                O C.X.{ Z.  A.*.;.5 A.S.: L D.                  ",
"                  - g..     F.G.*.X.d   H.v J.K.L.              ",
"                          w P.*.q.I.        } s.U.              ",
"                          g.j t D.-         P Y.T.              ",
"                          Z.R.B.U.                              ",
"                            E.Y.                                ",
"                                                                ",
"                                                                ",
"                                                                "};
