/* XPM */
static char * image_name[] = {
"32 32 33 1",
" 	c #020200000000",
".	c #050505050505",
"X	c #020202020202",
"o	c #141414141414",
"O	c #111111111111",
"+	c #0F0F0F0F0F0F",
"@	c #040404040404",
"#	c #0C0C0C0C0C0C",
"$	c #1D1D1D1D1D1D",
"%	c #101010101010",
"&	c #414141414141",
"*	c #3E3E3E3E3E3E",
"=	c #131313131313",
"-	c #030303030303",
";	c #2D2D2D2D2D2D",
":	c #171717171717",
">	c #1B1B1B1B1B1B",
",	c #060606060606",
"<	c #181818181818",
"1	c #3C3C3C3C3C3C",
"2	c #444444444444",
"3	c #080808080808",
"4	c #383838383838",
"5	c #282828282828",
"6	c #070707070707",
"7	c #404040404040",
"8	c #161616161616",
"9	c #252525252525",
"0	c #121212121212",
"q	c #191919191919",
"w	c #2A2A2A2A2A2A",
"e	c #0E0E0E0E0E0E",
"r	c #1A1A1A1A1A1A",
"                                ",
"                                ",
"                                ",
"                                ",
"                                ",
"                                ",
"                                ",
"                    .           ",
"            X      o            ",
"           O      +@            ",
"          #      X$             ",
"         %       &              ",
"         @      *      =        ",
"        -      ;:     >         ",
"       ,      <1     >-         ",
"              2     3>          ",
"             *      4    @      ",
"            56     7    X       ",
"           #8     9@            ",
"           :     0q    ,        ",
"          #      w    e         ",
"                r    X          ",
"               %    X           ",
"                                ",
"                                ",
"                                ",
"                                ",
"                                ",
"                                ",
"                                ",
"                                ",
"                                "};
