/* XPM */
static char * image_name[] = {
"32 32 198 2",
"  	c #020200000000",
". 	c #020202020202",
"X 	c #030303030303",
"o 	c #090909090909",
"O 	c #0A0A0A0A0A0A",
"+ 	c #050505050505",
"@ 	c #0C0C0C0C0C0C",
"# 	c #191919191919",
"$ 	c #070707070707",
"% 	c #1D1D1D1D1D1D",
"& 	c #121212121212",
"* 	c #1E1E1E1E1E1E",
"= 	c #363636363636",
"- 	c #0E0E0E0E0E0E",
"; 	c #252525252525",
": 	c #171717171717",
"> 	c #131313131313",
", 	c #3C3C3C3C3C3C",
"< 	c #595959595959",
"1 	c #2A2A2A2A2A2A",
"2 	c #1B1B1B1B1B1B",
"3 	c #1F1F1F1F1F1F",
"4 	c #262626262626",
"5 	c #414141414141",
"6 	c #101010101010",
"7 	c #494949494949",
"8 	c #A9A9A9A9A9A9",
"9 	c #CDCDCDCDCDCD",
"0 	c #B0B0B0B0B0B0",
"q 	c #464646464646",
"w 	c #292929292929",
"e 	c #3E3E3E3E3E3E",
"r 	c #7B7B7B7B7B7B",
"t 	c #828282828282",
"y 	c #656565656565",
"u 	c #404040404040",
"i 	c #454545454545",
"p 	c #535353535353",
"a 	c #020201010101",
"s 	c #222222222222",
"d 	c #DADADADADADA",
"f 	c #FCFCFCFCFCFC",
"g 	c #F3F3F3F3F3F3",
"h 	c #9D9D9D9D9D9D",
"j 	c #8B8B8B8B8B8B",
"k 	c #777777777777",
"l 	c #969696969696",
"z 	c #A2A2A2A2A2A2",
"x 	c #606060606060",
"c 	c #5D5D5D5D5D5D",
"v 	c #3F3F3F3F3F3F",
"b 	c #060606060606",
"n 	c #161616161616",
"m 	c #242424242424",
"M 	c #ADADADADADAD",
"N 	c #E1E1E1E1E1E1",
"B 	c #F0F0F0F0F0F0",
"V 	c #CCCCCCCCCCCC",
"C 	c #B3B3B3B3B3B3",
"Z 	c #B7B7B7B7B7B7",
"A 	c #B4B4B4B4B4B4",
"S 	c #AAAAAAAAAAAA",
"D 	c #9E9E9E9E9E9E",
"F 	c #939393939393",
"G 	c #787878787878",
"H 	c #818181818181",
"J 	c #5A5A5A5A5A5A",
"K 	c #151515151515",
"L 	c #2C2C2C2C2C2C",
"P 	c #4B4B4B4B4B4B",
"I 	c #555555555555",
"U 	c #BBBBBBBBBBBB",
"Y 	c #B2B2B2B2B2B2",
"T 	c #A7A7A7A7A7A7",
"R 	c #A4A4A4A4A4A4",
"E 	c #9A9A9A9A9A9A",
"W 	c #A5A5A5A5A5A5",
"Q 	c #ABABABABABAB",
"! 	c #888888888888",
"~ 	c #4E4E4E4E4E4E",
"^ 	c #757575757575",
"/ 	c #9B9B9B9B9B9B",
"( 	c #BABABABABABA",
") 	c #959595959595",
"_ 	c #949494949494",
"` 	c #878787878787",
"' 	c #4D4D4D4D4D4D",
"] 	c #424242424242",
"[ 	c #686868686868",
"{ 	c #8D8D8D8D8D8D",
"} 	c #B1B1B1B1B1B1",
"| 	c #9F9F9F9F9F9F",
" .	c #909090909090",
"..	c #979797979797",
"X.	c #8F8F8F8F8F8F",
"o.	c #8E8E8E8E8E8E",
"O.	c #A3A3A3A3A3A3",
"+.	c #858585858585",
"@.	c #4C4C4C4C4C4C",
"#.	c #2E2E2E2E2E2E",
"$.	c #0B0B0B0B0B0B",
"%.	c #6E6E6E6E6E6E",
"&.	c #A0A0A0A0A0A0",
"*.	c #989898989898",
"=.	c #717171717171",
"-.	c #040404040404",
";.	c #585858585858",
":.	c #868686868686",
">.	c #838383838383",
",.	c #AFAFAFAFAFAF",
"<.	c #C0C0C0C0C0C0",
"1.	c #A8A8A8A8A8A8",
"2.	c #9C9C9C9C9C9C",
"3.	c #A6A6A6A6A6A6",
"4.	c #7D7D7D7D7D7D",
"5.	c #353535353535",
"6.	c #7E7E7E7E7E7E",
"7.	c #666666666666",
"8.	c #B8B8B8B8B8B8",
"9.	c #CACACACACACA",
"0.	c #CBCBCBCBCBCB",
"q.	c #C4C4C4C4C4C4",
"w.	c #BEBEBEBEBEBE",
"e.	c #C7C7C7C7C7C7",
"r.	c #C5C5C5C5C5C5",
"t.	c #CFCFCFCFCFCF",
"y.	c #CECECECECECE",
"u.	c #919191919191",
"i.	c #5B5B5B5B5B5B",
"p.	c #6D6D6D6D6D6D",
"a.	c #C3C3C3C3C3C3",
"s.	c #D1D1D1D1D1D1",
"d.	c #D2D2D2D2D2D2",
"f.	c #D0D0D0D0D0D0",
"g.	c #D7D7D7D7D7D7",
"h.	c #999999999999",
"j.	c #2B2B2B2B2B2B",
"k.	c #080808080808",
"l.	c #313131313131",
"z.	c #565656565656",
"x.	c #929292929292",
"c.	c #BCBCBCBCBCBC",
"v.	c #D3D3D3D3D3D3",
"b.	c #D4D4D4D4D4D4",
"n.	c #5F5F5F5F5F5F",
"m.	c #7A7A7A7A7A7A",
"M.	c #676767676767",
"N.	c #636363636363",
"B.	c #D5D5D5D5D5D5",
"V.	c #BDBDBDBDBDBD",
"C.	c #B9B9B9B9B9B9",
"Z.	c #E4E4E4E4E4E4",
"A.	c #181818181818",
"S.	c #DFDFDFDFDFDF",
"D.	c #A1A1A1A1A1A1",
"F.	c #C1C1C1C1C1C1",
"G.	c #0D0D0D0D0D0D",
"H.	c #D9D9D9D9D9D9",
"J.	c #BFBFBFBFBFBF",
"K.	c #D8D8D8D8D8D8",
"L.	c #3D3D3D3D3D3D",
"P.	c #C6C6C6C6C6C6",
"I.	c #DCDCDCDCDCDC",
"U.	c #E2E2E2E2E2E2",
"Y.	c #B6B6B6B6B6B6",
"T.	c #DBDBDBDBDBDB",
"R.	c #0F0F0F0F0F0F",
"E.	c #D6D6D6D6D6D6",
"W.	c #797979797979",
"Q.	c #484848484848",
"!.	c #323232323232",
"~.	c #505050505050",
"^.	c #AEAEAEAEAEAE",
"/.	c #E3E3E3E3E3E3",
"(.	c #E0E0E0E0E0E0",
").	c #DDDDDDDDDDDD",
"_.	c #626262626262",
"`.	c #333333333333",
"'.	c #696969696969",
"].	c #6C6C6C6C6C6C",
"[.	c #EEEEEEEEEEEE",
"{.	c #EDEDEDEDEDED",
"}.	c #E5E5E5E5E5E5",
"|.	c #DEDEDEDEDEDE",
" X	c #111111111111",
".X	c #EFEFEFEFEFEF",
"XX	c #8C8C8C8C8C8C",
"oX	c #6B6B6B6B6B6B",
"OX	c #5E5E5E5E5E5E",
"+X	c #616161616161",
"@X	c #2D2D2D2D2D2D",
"#X	c #747474747474",
"$X	c #282828282828",
"%X	c #343434343434",
"&X	c #383838383838",
"*X	c #6F6F6F6F6F6F",
"=X	c #4A4A4A4A4A4A",
"-X	c #1A1A1A1A1A1A",
"                                                                ",
"                        .                 X                     ",
"              o O       + O     @ # . $ o + % &                 ",
"                * = - ; * : > + , < 1 2 3 4 5 6 .               ",
"                  7 8 9 0 q w e r t y q u i p % a               ",
"            a .   s d f g h j k l z t r x c v # a a a           ",
"            b n m 4 M N B V C Z A S D F G H J v K 6 X           ",
"              L P I G U d Y T R D E D W W Q ! J w -             ",
"              $ , ~ ^ / ( U C R ) _ ) D W D ` ' 3 .             ",
"              4 4 ] [ { } |  ...X._ o._ E O.+.@.#.> $.X         ",
"              7 1 = %.! Z &.X.*.| &...l ....) =.= w K a         ",
"          -.: ;.:.p >.,.<.A W 1.A C Q 2.2.3.8 X.4.~ 5.>         ",
"            . 2 6.7.{ 8.9.0.q.w.e.r.8.0 w.t.y.C u.w - O         ",
"            : i.p...C a.t.s.d.f.d.t.r.<.w.9 g.h.j.$.            ",
"        k.l.u z.x.c.e.t.d.v.b.b.v.d.f.9 9 <.s.C n.%.1           ",
"& m.,.x M.z.N.{ U e.9 f.v.v.B.B.b.v.d.t.V.C.f.Z.B.8 A.          ",
"; , R 9 S.f.D.Z 9.y.f.s.d.v.b.b.v.v.d.t.( F.b.C.< 2             ",
"    G.^ B.H.J.a.v.s.f.f.d.v.v.v.v.d.f.f.V V K.z :               ",
"      L.P.K.U 9.f.d.f.f.f.s.s.s.s.s.f.f.s.B.I.U.k               ",
"    a D U.3.` Y.f.v.d.f.f.f.f.f.f.f.f.s.d.r.T.Z.z R.            ",
"      3  .p X.S J.E.v.d.f.f.f.t.t.f.s.d.E.F.Z p.w X             ",
"        k.J | W.u.d.K.b.v.d.s.s.s.s.v.E.I.S.M ,                 ",
"        Q.E.4.z F.V.I.H.K.g.E.B.B.g.I.S.E.d.h.!.                ",
"        t.g.O.k ~.^.t.E./.(.S.).).(.U.H.C.o._.R.                ",
"      R.T J.`.a > '.].*.N [.{.[.}.|.B.B.{ x.x &                 ",
"        b G.       X] u.8.S..X/.9.8.,.XXoXn q                   ",
"                    OXN.G P.y.I.l >.=.R.-   +                   ",
"                  s +X@Xp.^.^.a.&.m.~.a                         ",
"                  2 6 @ _.` ^ #XW./ z.+                         ",
"                      $ $X%Xk.L &X*X=X                          ",
"                        $ +     $ -XG.                          ",
"                                                                "};
