/* XPM */
static char * image_name[] = {
"32 32 178 2",
"  	c #020200000000",
". 	c #020201010101",
"X 	c #030303030303",
"o 	c #040404040404",
"O 	c #050505050505",
"+ 	c #0B0B0B0B0B0B",
"@ 	c #121212121212",
"# 	c #131313131313",
"$ 	c #101010101010",
"% 	c #0A0A0A0A0A0A",
"& 	c #020202020202",
"* 	c #141414141414",
"= 	c #252525252525",
"- 	c #393939393939",
"; 	c #3A3A3A3A3A3A",
": 	c #383838383838",
"> 	c #323232323232",
", 	c #292929292929",
"< 	c #212121212121",
"1 	c #171717171717",
"2 	c #090909090909",
"3 	c #282828282828",
"4 	c #3F3F3F3F3F3F",
"5 	c #565656565656",
"6 	c #6F6F6F6F6F6F",
"7 	c #7E7E7E7E7E7E",
"8 	c #7D7D7D7D7D7D",
"9 	c #747474747474",
"0 	c #6E6E6E6E6E6E",
"q 	c #5E5E5E5E5E5E",
"w 	c #474747474747",
"e 	c #363636363636",
"r 	c #1B1B1B1B1B1B",
"t 	c #060606060606",
"y 	c #1E1E1E1E1E1E",
"u 	c #4A4A4A4A4A4A",
"i 	c #5F5F5F5F5F5F",
"p 	c #808080808080",
"a 	c #979797979797",
"s 	c #AEAEAEAEAEAE",
"d 	c #CACACACACACA",
"f 	c #BBBBBBBBBBBB",
"g 	c #A9A9A9A9A9A9",
"h 	c #828282828282",
"j 	c #696969696969",
"k 	c #4D4D4D4D4D4D",
"l 	c #1C1C1C1C1C1C",
"z 	c #080808080808",
"x 	c #7F7F7F7F7F7F",
"c 	c #A4A4A4A4A4A4",
"v 	c #B3B3B3B3B3B3",
"b 	c #BCBCBCBCBCBC",
"n 	c #D1D1D1D1D1D1",
"m 	c #DDDDDDDDDDDD",
"M 	c #E9E9E9E9E9E9",
"N 	c #EAEAEAEAEAEA",
"B 	c #D3D3D3D3D3D3",
"V 	c #A0A0A0A0A0A0",
"C 	c #878787878787",
"Z 	c #6B6B6B6B6B6B",
"A 	c #515151515151",
"S 	c #3D3D3D3D3D3D",
"D 	c #2B2B2B2B2B2B",
"F 	c #1F1F1F1F1F1F",
"G 	c #161616161616",
"H 	c #272727272727",
"J 	c #DCDCDCDCDCDC",
"K 	c #E7E7E7E7E7E7",
"L 	c #F1F1F1F1F1F1",
"P 	c #F9F9F9F9F9F9",
"I 	c #FAFAFAFAFAFA",
"U 	c #F6F6F6F6F6F6",
"Y 	c #ECECECECECEC",
"T 	c #D7D7D7D7D7D7",
"R 	c #BFBFBFBFBFBF",
"E 	c #A5A5A5A5A5A5",
"W 	c #8A8A8A8A8A8A",
"Q 	c #545454545454",
"! 	c #2D2D2D2D2D2D",
"~ 	c #242424242424",
"^ 	c #CBCBCBCBCBCB",
"/ 	c #F2F2F2F2F2F2",
"( 	c #F8F8F8F8F8F8",
") 	c #FBFBFBFBFBFB",
"_ 	c #FDFDFDFDFDFD",
"` 	c #EEEEEEEEEEEE",
"' 	c #DADADADADADA",
"] 	c #C4C4C4C4C4C4",
"[ 	c #A7A7A7A7A7A7",
"{ 	c #8B8B8B8B8B8B",
"} 	c #707070707070",
"| 	c #414141414141",
" .	c #2F2F2F2F2F2F",
"..	c #232323232323",
"X.	c #191919191919",
"o.	c #0C0C0C0C0C0C",
"O.	c #C2C2C2C2C2C2",
"+.	c #F4F4F4F4F4F4",
"@.	c #F0F0F0F0F0F0",
"#.	c #DFDFDFDFDFDF",
"$.	c #C9C9C9C9C9C9",
"%.	c #ACACACACACAC",
"&.	c #909090909090",
"*.	c #595959595959",
"=.	c #434343434343",
"-.	c #313131313131",
";.	c #181818181818",
":.	c #0D0D0D0D0D0D",
">.	c #111111111111",
",.	c #4F4F4F4F4F4F",
"<.	c #A6A6A6A6A6A6",
"1.	c #E8E8E8E8E8E8",
"2.	c #E1E1E1E1E1E1",
"3.	c #CCCCCCCCCCCC",
"4.	c #ABABABABABAB",
"5.	c #737373737373",
"6.	c #575757575757",
"7.	c #0E0E0E0E0E0E",
"8.	c #353535353535",
"9.	c #8D8D8D8D8D8D",
"0.	c #D5D5D5D5D5D5",
"q.	c #F7F7F7F7F7F7",
"w.	c #FCFCFCFCFCFC",
"e.	c #EDEDEDEDEDED",
"r.	c #DBDBDBDBDBDB",
"t.	c #A1A1A1A1A1A1",
"y.	c #888888888888",
"u.	c #757575757575",
"i.	c #5D5D5D5D5D5D",
"p.	c #484848484848",
"a.	c #333333333333",
"s.	c #F5F5F5F5F5F5",
"d.	c #F3F3F3F3F3F3",
"f.	c #EBEBEBEBEBEB",
"g.	c #C6C6C6C6C6C6",
"h.	c #8E8E8E8E8E8E",
"j.	c #555555555555",
"k.	c #222222222222",
"l.	c #151515151515",
"z.	c #D0D0D0D0D0D0",
"x.	c #E4E4E4E4E4E4",
"c.	c #E6E6E6E6E6E6",
"v.	c #D4D4D4D4D4D4",
"b.	c #B7B7B7B7B7B7",
"n.	c #656565656565",
"m.	c #464646464646",
"M.	c #2E2E2E2E2E2E",
"N.	c #989898989898",
"B.	c #C7C7C7C7C7C7",
"V.	c #D9D9D9D9D9D9",
"C.	c #CECECECECECE",
"Z.	c #9D9D9D9D9D9D",
"A.	c #1D1D1D1D1D1D",
"S.	c #AAAAAAAAAAAA",
"D.	c #BDBDBDBDBDBD",
"F.	c #C0C0C0C0C0C0",
"G.	c #8F8F8F8F8F8F",
"H.	c #797979797979",
"J.	c #636363636363",
"K.	c #373737373737",
"L.	c #727272727272",
"P.	c #767676767676",
"I.	c #7B7B7B7B7B7B",
"U.	c #606060606060",
"Y.	c #686868686868",
"T.	c #6A6A6A6A6A6A",
"R.	c #535353535353",
"E.	c #3E3E3E3E3E3E",
"W.	c #848484848484",
"Q.	c #7A7A7A7A7A7A",
"!.	c #717171717171",
"~.	c #585858585858",
"^.	c #424242424242",
"/.	c #666666666666",
"(.	c #444444444444",
").	c #2A2A2A2A2A2A",
"_.	c #070707070707",
"`.	c #0F0F0F0F0F0F",
"                                                                ",
"                                                                ",
"                                                                ",
"                                                                ",
"                                                                ",
"                                                                ",
"                                            . X o o o .         ",
"                                    . X O + @ @ # $ % X         ",
"                            & o * = - ; ; : > , < 1 $ O &       ",
"                        2 3 4 5 6 7 8 9 0 q w e = r # t &       ",
"                O y - u i p a s d f g a h j k - 3 l # z &       ",
"              $ k x c v b n m M N B b V C Z A S D F G % o       ",
"            O H p f J K L P I U Y T R E W 6 Q 4 ! < 1 + O       ",
"          . 2 ~ 8 ^ / ( ) _ _ P ` ' ] [ { } 5 |  ...X.o.O       ",
"            t F Z O.+._ _ _ _ P @.#.$.%.&.9 *.=.-...;.:.O .     ",
"            X >.,.<.1._ _ _ _ ) @.2.3.4.{ 5.6.=.-.~ X.7.O .     ",
"            . o.8.9.0.q.w.) w.q.e.r.] t.y.u.i.p.a.~ G 2         ",
"            . 2 , 9 b K U +.s.d.f.r.g.g h.9 j.; k.l.o.O         ",
"              t y *.<.z.x.c.Y @.1.v.b.h.n.m.M...r G :.O &       ",
"              . * w N.B.J c.V.C.f Z.p i =.e ! = A.;.7.o         ",
"              . + ; y.S.D.F.E G.H.J.*.A m.| K.k.@ % o           ",
"                O y 6.L.P.I.U.Y.T.6 0 R.E.k.@ o                 ",
"                  z = u j W.Q.8 !.~.^.k.7.        & &           ",
"                  o l m.q /.Q (.).# o._.O o t 2 2 z _..         ",
"                  & :.F ..< G >.1 `.@ >.l.* l.G 7.t &           ",
"                    .   o z `.# < k.H 3 H l o.&                 ",
"                        2 l.3 H -.3 1 2                         ",
"                      o G H ~ l + z   . X O o o &               ",
"                      & % $ `.:.:.+ % % _.t &                   ",
"                          o z :.o.o.z t X .                     ",
"                          X 2 o.t X                             ",
"                                                                "};
