/* XPM */
static char * image_name[] = {
"32 32 75 1",
" 	c #020200000000",
".	c #020201010101",
"X	c #020202020202",
"o	c #040404040404",
"O	c #0B0B0B0B0B0B",
"+	c #030303030303",
"@	c #0C0C0C0C0C0C",
"#	c #141414141414",
"$	c #080808080808",
"%	c #060606060606",
"&	c #0E0E0E0E0E0E",
"*	c #0A0A0A0A0A0A",
"=	c #050505050505",
"-	c #070707070707",
";	c #101010101010",
":	c #222222222222",
">	c #191919191919",
",	c #161616161616",
"<	c #202020202020",
"1	c #0F0F0F0F0F0F",
"2	c #111111111111",
"3	c #0D0D0D0D0D0D",
"4	c #212121212121",
"5	c #121212121212",
"6	c #1A1A1A1A1A1A",
"7	c #1B1B1B1B1B1B",
"8	c #232323232323",
"9	c #131313131313",
"0	c #1F1F1F1F1F1F",
"q	c #090909090909",
"w	c #252525252525",
"e	c #343434343434",
"r	c #2B2B2B2B2B2B",
"t	c #272727272727",
"y	c #181818181818",
"u	c #2D2D2D2D2D2D",
"i	c #1C1C1C1C1C1C",
"p	c #1E1E1E1E1E1E",
"a	c #292929292929",
"s	c #1D1D1D1D1D1D",
"d	c #171717171717",
"f	c #3C3C3C3C3C3C",
"g	c #2F2F2F2F2F2F",
"h	c #313131313131",
"j	c #282828282828",
"k	c #323232323232",
"l	c #A0A0A0A0A0A0",
"z	c #A1A1A1A1A1A1",
"x	c #5E5E5E5E5E5E",
"c	c #909090909090",
"v	c #A7A7A7A7A7A7",
"b	c #4D4D4D4D4D4D",
"n	c #151515151515",
"m	c #434343434343",
"M	c #2A2A2A2A2A2A",
"N	c #4E4E4E4E4E4E",
"B	c #CECECECECECE",
"V	c #CDCDCDCDCDCD",
"C	c #747474747474",
"Z	c #A8A8A8A8A8A8",
"A	c #B5B5B5B5B5B5",
"S	c #707070707070",
"D	c #303030303030",
"F	c #353535353535",
"G	c #3B3B3B3B3B3B",
"H	c #2C2C2C2C2C2C",
"J	c #6B6B6B6B6B6B",
"K	c #656565656565",
"L	c #424242424242",
"P	c #525252525252",
"I	c #686868686868",
"U	c #717171717171",
"Y	c #3A3A3A3A3A3A",
"T	c #2E2E2E2E2E2E",
"R	c #242424242424",
"                                ",
"                                ",
"                                ",
"                                ",
"                                ",
"                                ",
"                         .      ",
"      X              oOo+@#     ",
"    .$%.X         %&%%+   O*    ",
" +o.=.  -;       +:-.  %= =>    ",
".oX      $,$     <1. %23$X 45   ",
" X+    367#63   38.+59     &=o. ",
"  o-0q%O><wer. Xt;Oy>+    X+  .X",
"  Xui      %rp <y$a0X   qp%   .=",
" -+p@       q4w8=2s+   2d$    . ",
" do.3--$    .i85ye$ X-       O  ",
" so   9fg2   19-:83#$      Xd.  ",
" 3o=   -y1&$%Oawh:jq    -@++    ",
"  +2k2       >lzxcvb%-n8>o      ",
"    umd2MrhMrNBVCZASD7&         ",
"     93otFGeHuJKuLPr            ",
"               *fi              ",
"               OIt              ",
"               *Ua              ",
"                Y1              ",
"                &               ",
"               -TX              ",
"               +R               ",
"                                ",
"                                ",
"                                ",
"                                "};
