/* XPM */
static char * image_name[] = {
"32 32 79 1",
" 	c #020200000000",
".	c #0B0B0B0B0B0B",
"X	c #3F3F3F3F3F3F",
"o	c #393939393939",
"O	c #020202020202",
"+	c #333333333333",
"@	c #454545454545",
"#	c #050505050505",
"$	c #5C5C5C5C5C5C",
"%	c #868686868686",
"&	c #242424242424",
"*	c #0E0E0E0E0E0E",
"=	c #696969696969",
"-	c #8C8C8C8C8C8C",
";	c #313131313131",
":	c #111111111111",
">	c #8D8D8D8D8D8D",
",	c #2C2C2C2C2C2C",
"<	c #212121212121",
"1	c #373737373737",
"2	c #0F0F0F0F0F0F",
"3	c #0A0A0A0A0A0A",
"4	c #383838383838",
"5	c #262626262626",
"6	c #0D0D0D0D0D0D",
"7	c #3E3E3E3E3E3E",
"8	c #272727272727",
"9	c #787878787878",
"0	c #818181818181",
"q	c #282828282828",
"w	c #020201010101",
"e	c #1A1A1A1A1A1A",
"r	c #1E1E1E1E1E1E",
"t	c #070707070707",
"y	c #292929292929",
"u	c #585858585858",
"i	c #515151515151",
"p	c #525252525252",
"a	c #4E4E4E4E4E4E",
"s	c #191919191919",
"d	c #464646464646",
"f	c #101010101010",
"g	c #3A3A3A3A3A3A",
"h	c #707070707070",
"j	c #5D5D5D5D5D5D",
"k	c #121212121212",
"l	c #7A7A7A7A7A7A",
"z	c #727272727272",
"x	c #202020202020",
"c	c #232323232323",
"v	c #323232323232",
"b	c #060606060606",
"n	c #4F4F4F4F4F4F",
"m	c #8E8E8E8E8E8E",
"M	c #7B7B7B7B7B7B",
"N	c #4A4A4A4A4A4A",
"B	c #909090909090",
"V	c #8F8F8F8F8F8F",
"C	c #7F7F7F7F7F7F",
"Z	c #3B3B3B3B3B3B",
"A	c #2A2A2A2A2A2A",
"S	c #929292929292",
"D	c #797979797979",
"F	c #090909090909",
"G	c #A3A3A3A3A3A3",
"H	c #898989898989",
"J	c #181818181818",
"K	c #4B4B4B4B4B4B",
"L	c #2B2B2B2B2B2B",
"P	c #939393939393",
"I	c #6C6C6C6C6C6C",
"U	c #6B6B6B6B6B6B",
"Y	c #363636363636",
"T	c #595959595959",
"R	c #434343434343",
"E	c #555555555555",
"W	c #1B1B1B1B1B1B",
"Q	c #030303030303",
"!	c #737373737373",
"              .XoO              ",
"               +@#              ",
"              O$%&              ",
"              *=-;              ",
"              :=>,              ",
"               <12              ",
"              3;4O              ",
"               516              ",
"              .7X#              ",
"              890q              ",
"              wert              ",
"              yuit              ",
"              :pa*              ",
"              sidf              ",
"              ghjk              ",
"              7lzx              ",
"              cXvb              ",
"              nmMc              ",
"              NBl&              ",
"              pVCq              ",
"              ZnAb              ",
"              uSDF              ",
"             t=GHJ              ",
"              4$Kb              ",
"              ZiL               ",
"              nPIk              ",
"              iUpf              ",
"              YIT:              ",
"             #RE,F              ",
"              WugQ              ",
"              Adc               ",
"             Qd!R#              "};
