/* XPM */
static char * image_name[] = {
"32 32 208 2",
"  	c #020200000000",
". 	c #181818181818",
"X 	c #434343434343",
"o 	c #0D0D0D0D0D0D",
"O 	c #2A2A2A2A2A2A",
"+ 	c #A8A8A8A8A8A8",
"@ 	c #8D8D8D8D8D8D",
"# 	c #797979797979",
"$ 	c #DADADADADADA",
"% 	c #898989898989",
"& 	c #121212121212",
"* 	c #B1B1B1B1B1B1",
"= 	c #DDDDDDDDDDDD",
"- 	c #7A7A7A7A7A7A",
"; 	c #424242424242",
": 	c #B8B8B8B8B8B8",
"> 	c #DCDCDCDCDCDC",
", 	c #9E9E9E9E9E9E",
"< 	c #A3A3A3A3A3A3",
"1 	c #060606060606",
"2 	c #0A0A0A0A0A0A",
"3 	c #393939393939",
"4 	c #D3D3D3D3D3D3",
"5 	c #ABABABABABAB",
"6 	c #7C7C7C7C7C7C",
"7 	c #CACACACACACA",
"8 	c #E0E0E0E0E0E0",
"9 	c #6F6F6F6F6F6F",
"0 	c #030303030303",
"q 	c #ACACACACACAC",
"w 	c #1F1F1F1F1F1F",
"e 	c #272727272727",
"r 	c #979797979797",
"t 	c #C9C9C9C9C9C9",
"y 	c #606060606060",
"u 	c #9F9F9F9F9F9F",
"i 	c #F1F1F1F1F1F1",
"p 	c #EDEDEDEDEDED",
"a 	c #BDBDBDBDBDBD",
"s 	c #2E2E2E2E2E2E",
"d 	c #848484848484",
"f 	c #C1C1C1C1C1C1",
"g 	c #ADADADADADAD",
"h 	c #454545454545",
"j 	c #C5C5C5C5C5C5",
"k 	c #969696969696",
"l 	c #313131313131",
"z 	c #BFBFBFBFBFBF",
"x 	c #E3E3E3E3E3E3",
"c 	c #E2E2E2E2E2E2",
"v 	c #1E1E1E1E1E1E",
"b 	c #414141414141",
"n 	c #E4E4E4E4E4E4",
"m 	c #838383838383",
"M 	c #3D3D3D3D3D3D",
"N 	c #7F7F7F7F7F7F",
"B 	c #858585858585",
"V 	c #565656565656",
"C 	c #E9E9E9E9E9E9",
"Z 	c #D7D7D7D7D7D7",
"A 	c #B6B6B6B6B6B6",
"S 	c #818181818181",
"D 	c #AAAAAAAAAAAA",
"F 	c #7B7B7B7B7B7B",
"G 	c #A7A7A7A7A7A7",
"H 	c #C4C4C4C4C4C4",
"J 	c #262626262626",
"K 	c #020202020202",
"L 	c #020201010101",
"P 	c #212121212121",
"I 	c #BCBCBCBCBCBC",
"U 	c #B9B9B9B9B9B9",
"Y 	c #525252525252",
"T 	c #888888888888",
"R 	c #4D4D4D4D4D4D",
"E 	c #C2C2C2C2C2C2",
"W 	c #343434343434",
"Q 	c #909090909090",
"! 	c #ECECECECECEC",
"~ 	c #494949494949",
"^ 	c #767676767676",
"/ 	c #727272727272",
"( 	c #5B5B5B5B5B5B",
") 	c #4A4A4A4A4A4A",
"_ 	c #C3C3C3C3C3C3",
"` 	c #C8C8C8C8C8C8",
"' 	c #717171717171",
"] 	c #383838383838",
"[ 	c #929292929292",
"{ 	c #A6A6A6A6A6A6",
"} 	c #A2A2A2A2A2A2",
"| 	c #AFAFAFAFAFAF",
" .	c #9C9C9C9C9C9C",
"..	c #0C0C0C0C0C0C",
"X.	c #464646464646",
"o.	c #B7B7B7B7B7B7",
"O.	c #040404040404",
"+.	c #949494949494",
"@.	c #9D9D9D9D9D9D",
"#.	c #D9D9D9D9D9D9",
"$.	c #A4A4A4A4A4A4",
"%.	c #353535353535",
"&.	c #747474747474",
"*.	c #2B2B2B2B2B2B",
"=.	c #3C3C3C3C3C3C",
"-.	c #080808080808",
";.	c #939393939393",
":.	c #646464646464",
">.	c #B5B5B5B5B5B5",
",.	c #CCCCCCCCCCCC",
"<.	c #E6E6E6E6E6E6",
"1.	c #A1A1A1A1A1A1",
"2.	c #DEDEDEDEDEDE",
"3.	c #777777777777",
"4.	c #5A5A5A5A5A5A",
"5.	c #0E0E0E0E0E0E",
"6.	c #676767676767",
"7.	c #171717171717",
"8.	c #8C8C8C8C8C8C",
"9.	c #C7C7C7C7C7C7",
"0.	c #EFEFEFEFEFEF",
"q.	c #DFDFDFDFDFDF",
"w.	c #A9A9A9A9A9A9",
"e.	c #545454545454",
"r.	c #D8D8D8D8D8D8",
"t.	c #E7E7E7E7E7E7",
"y.	c #F6F6F6F6F6F6",
"u.	c #C0C0C0C0C0C0",
"i.	c #D6D6D6D6D6D6",
"p.	c #AEAEAEAEAEAE",
"a.	c #4F4F4F4F4F4F",
"s.	c #666666666666",
"d.	c #BABABABABABA",
"f.	c #F8F8F8F8F8F8",
"g.	c #CFCFCFCFCFCF",
"h.	c #CDCDCDCDCDCD",
"j.	c #636363636363",
"k.	c #505050505050",
"l.	c #555555555555",
"z.	c #F2F2F2F2F2F2",
"x.	c #626262626262",
"c.	c #1B1B1B1B1B1B",
"v.	c #EBEBEBEBEBEB",
"b.	c #C6C6C6C6C6C6",
"n.	c #CBCBCBCBCBCB",
"m.	c #F4F4F4F4F4F4",
"M.	c #E8E8E8E8E8E8",
"N.	c #A0A0A0A0A0A0",
"B.	c #E1E1E1E1E1E1",
"V.	c #222222222222",
"C.	c #0B0B0B0B0B0B",
"Z.	c #B3B3B3B3B3B3",
"A.	c #333333333333",
"S.	c #1C1C1C1C1C1C",
"D.	c #616161616161",
"F.	c #EEEEEEEEEEEE",
"G.	c #959595959595",
"H.	c #F3F3F3F3F3F3",
"J.	c #757575757575",
"K.	c #161616161616",
"L.	c #E5E5E5E5E5E5",
"P.	c #B4B4B4B4B4B4",
"I.	c #DBDBDBDBDBDB",
"U.	c #151515151515",
"Y.	c #6A6A6A6A6A6A",
"T.	c #868686868686",
"R.	c #303030303030",
"E.	c #535353535353",
"W.	c #515151515151",
"Q.	c #3A3A3A3A3A3A",
"!.	c #D0D0D0D0D0D0",
"~.	c #2D2D2D2D2D2D",
"^.	c #BEBEBEBEBEBE",
"/.	c #1D1D1D1D1D1D",
"(.	c #D1D1D1D1D1D1",
").	c #5C5C5C5C5C5C",
"_.	c #141414141414",
"`.	c #4C4C4C4C4C4C",
"'.	c #B2B2B2B2B2B2",
"].	c #828282828282",
"[.	c #8B8B8B8B8B8B",
"{.	c #202020202020",
"}.	c #050505050505",
"|.	c #8E8E8E8E8E8E",
" X	c #B0B0B0B0B0B0",
".X	c #131313131313",
"XX	c #7E7E7E7E7E7E",
"oX	c #BBBBBBBBBBBB",
"OX	c #919191919191",
"+X	c #D5D5D5D5D5D5",
"@X	c #8F8F8F8F8F8F",
"#X	c #242424242424",
"$X	c #707070707070",
"%X	c #9A9A9A9A9A9A",
"&X	c #CECECECECECE",
"*X	c #808080808080",
"=X	c #F0F0F0F0F0F0",
"-X	c #5D5D5D5D5D5D",
";X	c #D2D2D2D2D2D2",
":X	c #D4D4D4D4D4D4",
">X	c #878787878787",
",X	c #404040404040",
"<X	c #F7F7F7F7F7F7",
"1X	c #252525252525",
"2X	c #101010101010",
"3X	c #A5A5A5A5A5A5",
"4X	c #6E6E6E6E6E6E",
"5X	c #0F0F0F0F0F0F",
"                        .       X o                             ",
"                    O + @   o # $ % &                           ",
"                o # * = - ; : > , < 1                           ",
"            2 2 3 4 5 6 7 8 > 9 0 q O   w                       ",
"            e r * t y u i p a s   d f g h                       ",
"            # j k l z x c 4 X v b + n m                         ",
"          M N B V k C Z A + S + D F G H J                       ",
"          K L P I x j U Y z q T R # g E W                       ",
"            O Q ! j G F ~ ^ E N / H ( N d                       ",
"          ) _ ` ' m ] [ { S } G @ |  .P I ..                    ",
"        X.D o.V O.+.s @.#. .o.$.5 %.&.*.G =.                    ",
"      -.;.g Y     :.>.F ,.<.1.2.G 3.4.[ :.d                     ",
"      5.6.7.    . 8.* B 9.0.q._ B ` k ^ - w.b                   ",
"                e.+.C r.t.y.2.u.i.H p.O a.s.d.                  ",
"                l d.C f.g.Q h.c #.j.I N w.k.4 l.                ",
"                O x z.! x.c.a v.#.[ U b.x.z n.N                 ",
"              5.>.m.M.&.+ , N.p.B.C G d.V.` 2.g.c.              ",
"            C.d i 2.Z.A.p.f S.D.F.c B p.x.G.H.#.J.              ",
"          K.a L.g.D ) T Z P...' t.#._ G ' %.B.I.a U.            ",
"          0 Y.T.R.E.W.>.3.o.^ 5 < Q d.C g Q.!.v.j D.            ",
"                  ~.^.o.6.&.x Y /.o.>.q (.). .8  ._.            ",
"                    `.d d.7 '.k.].d.N [.> T / ,.r.{.            ",
"            }.      5.|.|  XM !.N X 9.!.E h.F ^.M.k             ",
"            .X#       XXt oXOX+X( 3 ,.n H $ @X< M.!.#X          ",
"              $X~   4.z c 9.r.< Z.%Xz ` ^.&X{ G #.f #           ",
"              -.6 *X[ a =XZ h.w.!.%Xr u.x u.-X>.r.;XI           ",
"                X A m | z i C :X[ 3 $.` = +.U.D.^.>Xr ,X        ",
"                L ;.4 f z y.<X<. X0 { o.a @   L @X`..X1X        ",
"                  2XZ.Z I.v.m.z.+X& X.M -X3X2   &               ",
"                    r Z.j = 0.F.p ^     L @./.                  ",
"                    s k 4X:X;XE { { U.    y v                   ",
"                    K 5X5.6 @. XR.e.w     0                     "};
