/* XPM */
static char * image_name[] = {
"32 32 104 2",
"  	c #020200000000",
". 	c #020201010101",
"X 	c #030303030303",
"o 	c #090909090909",
"O 	c #131313131313",
"+ 	c #080808080808",
"@ 	c #040404040404",
"# 	c #0C0C0C0C0C0C",
"$ 	c #1E1E1E1E1E1E",
"% 	c #353535353535",
"& 	c #393939393939",
"* 	c #424242424242",
"= 	c #3A3A3A3A3A3A",
"- 	c #222222222222",
"; 	c #232323232323",
": 	c #101010101010",
"> 	c #070707070707",
", 	c #020202020202",
"< 	c #0B0B0B0B0B0B",
"1 	c #121212121212",
"2 	c #242424242424",
"3 	c #292929292929",
"4 	c #202020202020",
"5 	c #252525252525",
"6 	c #2F2F2F2F2F2F",
"7 	c #383838383838",
"8 	c #414141414141",
"9 	c #484848484848",
"0 	c #323232323232",
"q 	c #2D2D2D2D2D2D",
"w 	c #616161616161",
"e 	c #535353535353",
"r 	c #161616161616",
"t 	c #151515151515",
"y 	c #1F1F1F1F1F1F",
"u 	c #2A2A2A2A2A2A",
"i 	c #3B3B3B3B3B3B",
"p 	c #363636363636",
"a 	c #343434343434",
"s 	c #404040404040",
"d 	c #464646464646",
"f 	c #4B4B4B4B4B4B",
"g 	c #3F3F3F3F3F3F",
"h 	c #050505050505",
"j 	c #0A0A0A0A0A0A",
"k 	c #212121212121",
"l 	c #434343434343",
"z 	c #474747474747",
"x 	c #4A4A4A4A4A4A",
"c 	c #4E4E4E4E4E4E",
"v 	c #4D4D4D4D4D4D",
"b 	c #0D0D0D0D0D0D",
"n 	c #0F0F0F0F0F0F",
"m 	c #111111111111",
"M 	c #141414141414",
"N 	c #1D1D1D1D1D1D",
"B 	c #262626262626",
"V 	c #2B2B2B2B2B2B",
"C 	c #454545454545",
"Z 	c #494949494949",
"A 	c #5B5B5B5B5B5B",
"S 	c #515151515151",
"D 	c #181818181818",
"F 	c #1B1B1B1B1B1B",
"G 	c #2C2C2C2C2C2C",
"H 	c #3C3C3C3C3C3C",
"J 	c #333333333333",
"K 	c #5A5A5A5A5A5A",
"L 	c #555555555555",
"P 	c #303030303030",
"I 	c #4F4F4F4F4F4F",
"U 	c #060606060606",
"Y 	c #171717171717",
"T 	c #191919191919",
"R 	c #1C1C1C1C1C1C",
"E 	c #272727272727",
"W 	c #313131313131",
"Q 	c #3D3D3D3D3D3D",
"! 	c #5F5F5F5F5F5F",
"~ 	c #606060606060",
"^ 	c #676767676767",
"/ 	c #1A1A1A1A1A1A",
"( 	c #373737373737",
") 	c #2E2E2E2E2E2E",
"_ 	c #5E5E5E5E5E5E",
"` 	c #696969696969",
"' 	c #5C5C5C5C5C5C",
"] 	c #282828282828",
"[ 	c #525252525252",
"{ 	c #636363636363",
"} 	c #585858585858",
"| 	c #545454545454",
" .	c #565656565656",
"..	c #575757575757",
"X.	c #0E0E0E0E0E0E",
"o.	c #5D5D5D5D5D5D",
"O.	c #4C4C4C4C4C4C",
"+.	c #505050505050",
"@.	c #3E3E3E3E3E3E",
"#.	c #444444444444",
"$.	c #595959595959",
"%.	c #6A6A6A6A6A6A",
"&.	c #6B6B6B6B6B6B",
"*.	c #7B7B7B7B7B7B",
"                                                                ",
"                                                                ",
"                    . X o O O o + .       X @                   ",
"                    . @ # $ % & * = o . - ; : > ,               ",
"            @ < 1 $ 2 3 4 5 6 7 8 9 0 q w e $ r <               ",
"            . < t y u i p a % & s d 9 9 f i = g r X             ",
"              h j 1 k u 0 = 8 l d z 9 x c 8 d v ; o             ",
"          X b n m M r N k B V a i C Z 9 8 = A S 4 y #           ",
"          . X + : M t D F y 2 B G i C 9 H J K L P I 9 t U       ",
"        . X , U b O t Y T R - 2 E W & d 0 Q ! v i ~ ^ i #       ",
"          o 1 t t t Y D / F N k E G ( ) 2 z _ Q l ` ' d F X     ",
"          . X h b M / F F R R $ B P * a ] W Q & [ { } | W ,     ",
"    h < h h @ @ U j n r R $ R R ; V q % Z P $ G v  ...x P .     ",
"    , j j O : b < < X.X.n Y k k k 4 1 B Q z i | o.e O.V :       ",
"  . X j j X.O D D : X.b b m N ; F r - = E ; W +.v ..| q b       ",
"  , h X.: M r D N - ; T X.X.T N : : G g B T % | e | O.a /       ",
"    h b X.m t R y k - 2 R : T n + + m T V v  ...' c Q u V <     ",
"    , o j m D F - 2 - ; ] - 5 3 $ P P O / ] 3 J Z _ e @.0 O     ",
"    . + + j : Y F 5 ] 2 - < / 4 F J #.E 0 5 q % ) @.f I H # h   ",
"        , U # n 1 F 3 ] 5 1 $ T n D 2 ) f S [ e @.6 0 .. .O @   ",
"        , @ + j # / 2 @.5 = +.C J ( / D J & V i o.L H #.@.D ,   ",
"    , , , @ > o j D B t T 0 a ] 0 z ] E V & Y / & O.} | <       ",
"        j < j o # 3 C N % ] k B 5 R V I A [ z Q $ t B b         ",
"        , m D m y L 8 6 ' +.7 $.9 R $ B H a p 0 u ,             ",
"          @ / 4 8 { = P ' x @.! Q 0 d = 8 ) q ; 0 o             ",
"            j ; $.~ V i ..v * w ( J 8 8 | o.s B F >             ",
"            , , ( %.q z i Q f { p % 6 U - &.*.C m               ",
"                  5 0 A P i $.A 0 Q N     : F o                 ",
"                          r O.8 / 1                             ",
"                            X + ,                               ",
"                                                                ",
"                                                                "};
