/* XPM */
static char * image_name[] = {
"32 32 51 1",
" 	c #020200000000",
".	c #020202020202",
"X	c #030303030303",
"o	c #020201010101",
"O	c #050505050505",
"+	c #090909090909",
"@	c #040404040404",
"#	c #080808080808",
"$	c #070707070707",
"%	c #4C4C4C4C4C4C",
"&	c #060606060606",
"*	c #656565656565",
"=	c #131313131313",
"-	c #1E1E1E1E1E1E",
";	c #3E3E3E3E3E3E",
":	c #1B1B1B1B1B1B",
">	c #0B0B0B0B0B0B",
",	c #666666666666",
"<	c #1A1A1A1A1A1A",
"1	c #181818181818",
"2	c #464646464646",
"3	c #232323232323",
"4	c #0A0A0A0A0A0A",
"5	c #272727272727",
"6	c #585858585858",
"7	c #0F0F0F0F0F0F",
"8	c #2F2F2F2F2F2F",
"9	c #151515151515",
"0	c #0E0E0E0E0E0E",
"q	c #161616161616",
"w	c #171717171717",
"e	c #2C2C2C2C2C2C",
"r	c #2E2E2E2E2E2E",
"t	c #3B3B3B3B3B3B",
"y	c #444444444444",
"u	c #0C0C0C0C0C0C",
"i	c #2A2A2A2A2A2A",
"p	c #747474747474",
"a	c #353535353535",
"s	c #787878787878",
"d	c #222222222222",
"f	c #282828282828",
"g	c #191919191919",
"h	c #1C1C1C1C1C1C",
"j	c #262626262626",
"k	c #141414141414",
"l	c #474747474747",
"z	c #212121212121",
"x	c #424242424242",
"c	c #3D3D3D3D3D3D",
"v	c #0D0D0D0D0D0D",
"                                ",
"                                ",
"                                ",
"                                ",
"                                ",
"                                ",
"                 .              ",
"            .  .X               ",
"             X  oX              ",
"             X OO+@   o         ",
"           #+$O o +  .          ",
"           +  O% &&   o         ",
"         X.   +*=&-;O           ",
"          $@:>=&,<123X  o       ",
"       o 4 @56+789 05q          ",
"         0.wqe 5:   @ .         ",
"          +rtyw& @# uX  O       ",
"         . 0ip,  asd 4          ",
"             9fg&hj$ 1          ",
"           h@klz>x9q  Oo        ",
"              X1.-ci  X         ",
"           @ o @@4 @>o          ",
"                     .          ",
"             .                  ",
"              .  v              ",
"                                ",
"                                ",
"                                ",
"                                ",
"                                ",
"                                ",
"                                "};
