/* XPM */
static char * image_name[] = {
"32 32 112 2",
"  	c #020200000000",
". 	c #4A4A4A4A4A4A",
"X 	c #505050505050",
"o 	c #5F5F5F5F5F5F",
"O 	c #606060606060",
"+ 	c #4E4E4E4E4E4E",
"@ 	c #090909090909",
"# 	c #4F4F4F4F4F4F",
"$ 	c #555555555555",
"% 	c #4D4D4D4D4D4D",
"& 	c #2C2C2C2C2C2C",
"* 	c #040404040404",
"= 	c #4B4B4B4B4B4B",
"- 	c #656565656565",
"; 	c #3A3A3A3A3A3A",
": 	c #0E0E0E0E0E0E",
"> 	c #515151515151",
", 	c #5A5A5A5A5A5A",
"< 	c #424242424242",
"1 	c #080808080808",
"2 	c #1E1E1E1E1E1E",
"3 	c #494949494949",
"4 	c #525252525252",
"5 	c #464646464646",
"6 	c #393939393939",
"7 	c #1D1D1D1D1D1D",
"8 	c #545454545454",
"9 	c #5E5E5E5E5E5E",
"0 	c #484848484848",
"q 	c #2B2B2B2B2B2B",
"w 	c #030303030303",
"e 	c #232323232323",
"r 	c #3C3C3C3C3C3C",
"t 	c #7A7A7A7A7A7A",
"y 	c #585858585858",
"u 	c #5D5D5D5D5D5D",
"i 	c #868686868686",
"p 	c #212121212121",
"a 	c #565656565656",
"s 	c #0F0F0F0F0F0F",
"d 	c #707070707070",
"f 	c #2A2A2A2A2A2A",
"g 	c #3E3E3E3E3E3E",
"h 	c #979797979797",
"j 	c #323232323232",
"k 	c #666666666666",
"l 	c #202020202020",
"z 	c #282828282828",
"x 	c #595959595959",
"c 	c #5B5B5B5B5B5B",
"v 	c #191919191919",
"b 	c #6F6F6F6F6F6F",
"n 	c #1B1B1B1B1B1B",
"m 	c #575757575757",
"M 	c #131313131313",
"N 	c #1C1C1C1C1C1C",
"B 	c #616161616161",
"V 	c #020201010101",
"C 	c #434343434343",
"Z 	c #070707070707",
"A 	c #020202020202",
"S 	c #5C5C5C5C5C5C",
"D 	c #141414141414",
"F 	c #777777777777",
"G 	c #4C4C4C4C4C4C",
"H 	c #8B8B8B8B8B8B",
"J 	c #353535353535",
"K 	c #292929292929",
"L 	c #171717171717",
"P 	c #626262626262",
"I 	c #7D7D7D7D7D7D",
"U 	c #838383838383",
"Y 	c #646464646464",
"T 	c #181818181818",
"R 	c #747474747474",
"E 	c #303030303030",
"W 	c #8C8C8C8C8C8C",
"Q 	c #3F3F3F3F3F3F",
"! 	c #050505050505",
"~ 	c #0D0D0D0D0D0D",
"^ 	c #858585858585",
"/ 	c #1F1F1F1F1F1F",
"( 	c #0B0B0B0B0B0B",
") 	c #373737373737",
"_ 	c #828282828282",
"` 	c #535353535353",
"' 	c #737373737373",
"] 	c #3B3B3B3B3B3B",
"[ 	c #111111111111",
"{ 	c #3D3D3D3D3D3D",
"} 	c #6A6A6A6A6A6A",
"| 	c #333333333333",
" .	c #444444444444",
"..	c #898989898989",
"X.	c #0C0C0C0C0C0C",
"o.	c #909090909090",
"O.	c #636363636363",
"+.	c #2E2E2E2E2E2E",
"@.	c #060606060606",
"#.	c #272727272727",
"$.	c #262626262626",
"%.	c #717171717171",
"&.	c #686868686868",
"*.	c #242424242424",
"=.	c #0A0A0A0A0A0A",
"-.	c #1A1A1A1A1A1A",
";.	c #343434343434",
":.	c #767676767676",
">.	c #696969696969",
",.	c #222222222222",
"<.	c #797979797979",
"1.	c #6D6D6D6D6D6D",
"                        . X o o O O + X @                       ",
"                        #             $                         ",
"                        %             $       & *               ",
"                        =             -       ; :               ",
"                        >             ,       < 1               ",
"      2 3 4 % 4 5 6 & 7 8             9       0                 ",
"    q         w 1 : e r t y , o u 9 4 i p w   a         ;       ",
"    +                 s 6         * 1 d f g # h X % 5 j k       ",
"    %                 l z             x       c     w v b r     ",
"    >                 & n             4       m         +       ",
"M N B V               C Z           A 5       S         >       ",
"D q F g 0 G 4 4 = 4 G H # J K 2     L J       P         +       ",
"    G                 o Z L e C % a I I u x 4 U v       8       ",
"    %                 Y             J T     s R E < 3 4 W G < ; ",
"    G                 o             Q         y         +   ! ~ ",
"    #                 k             0         S         X       ",
"5 + ^ m = % 4 3 6 K / 9             +         $         +       ",
"    0           ( 7 ) _ 3 + $ ` 5 g ' v V     `         >       ",
"    ]               [ {           1 } |  .# 4 ..= < E / m       ",
"  X.]               e K             +       V X   ! 2 ) o.Y O.5 ",
"  M &               +.L             0       @. .        %       ",
"  #.$.              g               Q       v j         4       ",
"D F c % ` = # 4 Q 6 %.2 V         V r       #.e         X       ",
"  Q             ! ~ Y E 6 G X . 4 &.b g *.=.J -.        #       ",
"  7                 #             +.L [ / ;.:.Y 4 m 0 ; '       ",
"                    x             C w       .       V X.>.@     ",
"      p /           >             =         +           z       ",
"      @.,.r . + % X <.l           %         3                   ",
"                  V ` z < % + % Q 1.        X                   ",
"                  @ |           1 %.3 + G G R !                 ",
"                  N /             =       A x j                 ",
"                  1               0                             "};
