/* XPM */
static char * image_name[] = {
"32 32 108 2",
"  	c #020200000000",
". 	c #040404040404",
"X 	c #050505050505",
"o 	c #090909090909",
"O 	c #030303030303",
"+ 	c #252525252525",
"@ 	c #0B0B0B0B0B0B",
"# 	c #353535353535",
"$ 	c #070707070707",
"% 	c #0C0C0C0C0C0C",
"& 	c #4C4C4C4C4C4C",
"* 	c #0E0E0E0E0E0E",
"= 	c #2B2B2B2B2B2B",
"- 	c #393939393939",
"; 	c #202020202020",
": 	c #181818181818",
"> 	c #161616161616",
", 	c #1A1A1A1A1A1A",
"< 	c #1D1D1D1D1D1D",
"1 	c #232323232323",
"2 	c #101010101010",
"3 	c #3F3F3F3F3F3F",
"4 	c #3B3B3B3B3B3B",
"5 	c #0F0F0F0F0F0F",
"6 	c #111111111111",
"7 	c #464646464646",
"8 	c #3D3D3D3D3D3D",
"9 	c #020201010101",
"0 	c #4D4D4D4D4D4D",
"q 	c #282828282828",
"w 	c #171717171717",
"e 	c #717171717171",
"r 	c #020202020202",
"t 	c #424242424242",
"y 	c #2D2D2D2D2D2D",
"u 	c #686868686868",
"i 	c #2E2E2E2E2E2E",
"p 	c #5B5B5B5B5B5B",
"a 	c #6B6B6B6B6B6B",
"s 	c #404040404040",
"d 	c #080808080808",
"f 	c #858585858585",
"g 	c #888888888888",
"h 	c #323232323232",
"j 	c #363636363636",
"k 	c #060606060606",
"l 	c #414141414141",
"z 	c #878787878787",
"x 	c #AFAFAFAFAFAF",
"c 	c #666666666666",
"v 	c #444444444444",
"b 	c #6A6A6A6A6A6A",
"n 	c #333333333333",
"m 	c #848484848484",
"M 	c #121212121212",
"N 	c #494949494949",
"B 	c #898989898989",
"V 	c #909090909090",
"C 	c #A0A0A0A0A0A0",
"Z 	c #6D6D6D6D6D6D",
"A 	c #1F1F1F1F1F1F",
"S 	c #646464646464",
"D 	c #7C7C7C7C7C7C",
"F 	c #929292929292",
"G 	c #9C9C9C9C9C9C",
"H 	c #BABABABABABA",
"J 	c #575757575757",
"K 	c #8A8A8A8A8A8A",
"L 	c #B9B9B9B9B9B9",
"P 	c #C2C2C2C2C2C2",
"I 	c #8D8D8D8D8D8D",
"U 	c #2F2F2F2F2F2F",
"Y 	c #343434343434",
"T 	c #0A0A0A0A0A0A",
"R 	c #636363636363",
"E 	c #7A7A7A7A7A7A",
"W 	c #3A3A3A3A3A3A",
"Q 	c #AEAEAEAEAEAE",
"! 	c #C9C9C9C9C9C9",
"~ 	c #BFBFBFBFBFBF",
"^ 	c #C8C8C8C8C8C8",
"/ 	c #939393939393",
"( 	c #383838383838",
") 	c #585858585858",
"_ 	c #777777777777",
"` 	c #606060606060",
"' 	c #0D0D0D0D0D0D",
"] 	c #616161616161",
"[ 	c #6E6E6E6E6E6E",
"{ 	c #8F8F8F8F8F8F",
"} 	c #474747474747",
"| 	c #484848484848",
" .	c #131313131313",
"..	c #676767676767",
"X.	c #1E1E1E1E1E1E",
"o.	c #9A9A9A9A9A9A",
"O.	c #696969696969",
"+.	c #595959595959",
"@.	c #A3A3A3A3A3A3",
"#.	c #656565656565",
"$.	c #272727272727",
"%.	c #525252525252",
"&.	c #5F5F5F5F5F5F",
"*.	c #242424242424",
"=.	c #434343434343",
"-.	c #1B1B1B1B1B1B",
";.	c #151515151515",
":.	c #141414141414",
"                                                                ",
"                        .                                       ",
"                        X o             O                       ",
"                        O +             @                       ",
"                        X #             $                       ",
"                        % & * $ @ o X X X X         =           ",
"                          -   ; : > , < = 1 2       3           ",
"                          4                 5 5   6 7           ",
"                          8 9                 $ ; 0 q           ",
"                          -                     w e .           ",
"      5 : @     r r       t                     y u             ",
"          5 i ;           p O                   a s     d       ",
"            . y -       X f 2                 r g h s j k       ",
"                3 l X   o z w                 s x c h k         ",
"              r X v b n = m q         M N B V C Z $             ",
"              @ A S D F G H u * i J K L P I U Y X               ",
"            T R E # $ 5 W Q ! x ~ ^ P / ( X     9               ",
"      2 l ) _ ` -         ' 7 ] [ { z 1                         ",
"    r ( } | + 9   $           9    ...S                         ",
"  ' r             . :               X.o._ q                     ",
"  9                 T : r         i z f O.b #                   ",
"                        9 * o w +.@.#.6 j i $.1 > X             ",
"                    r r k T # %.&.$.    2 :       X % 2 @       ",
"                        % 8 W 2         O 1                     ",
"                      *.=.-.              *.o                   ",
"                     .q d                 k <                   ",
"                  6 ;.                      :.                  ",
"                X ;                           d                 ",
"                X                             ' o               ",
"                              o .               k               ",
"                                                                ",
"                                                                "};
