/* XPM */
static char * image_name[] = {
"32 32 84 1",
" 	c #020200000000",
".	c #020202020202",
"X	c #303030303030",
"o	c #191919191919",
"O	c #030303030303",
"+	c #161616161616",
"@	c #0A0A0A0A0A0A",
"#	c #373737373737",
"$	c #252525252525",
"%	c #222222222222",
"&	c #050505050505",
"*	c #171717171717",
"=	c #141414141414",
"-	c #0D0D0D0D0D0D",
";	c #535353535353",
":	c #BABABABABABA",
">	c #9E9E9E9E9E9E",
",	c #494949494949",
"<	c #6F6F6F6F6F6F",
"1	c #363636363636",
"2	c #020201010101",
"3	c #040404040404",
"4	c #0F0F0F0F0F0F",
"5	c #313131313131",
"6	c #919191919191",
"7	c #818181818181",
"8	c #BBBBBBBBBBBB",
"9	c #E6E6E6E6E6E6",
"0	c #D7D7D7D7D7D7",
"q	c #CFCFCFCFCFCF",
"w	c #B0B0B0B0B0B0",
"e	c #AFAFAFAFAFAF",
"r	c #333333333333",
"t	c #0B0B0B0B0B0B",
"y	c #3B3B3B3B3B3B",
"u	c #9D9D9D9D9D9D",
"i	c #E1E1E1E1E1E1",
"p	c #D1D1D1D1D1D1",
"a	c #CACACACACACA",
"s	c #CBCBCBCBCBCB",
"d	c #CECECECECECE",
"f	c #C0C0C0C0C0C0",
"g	c #4E4E4E4E4E4E",
"h	c #202020202020",
"j	c #111111111111",
"k	c #676767676767",
"l	c #BFBFBFBFBFBF",
"z	c #BCBCBCBCBCBC",
"x	c #DCDCDCDCDCDC",
"c	c #868686868686",
"v	c #343434343434",
"b	c #1C1C1C1C1C1C",
"n	c #B1B1B1B1B1B1",
"m	c #B9B9B9B9B9B9",
"M	c #BEBEBEBEBEBE",
"N	c #D2D2D2D2D2D2",
"B	c #DDDDDDDDDDDD",
"V	c #CCCCCCCCCCCC",
"C	c #929292929292",
"Z	c #353535353535",
"A	c #444444444444",
"S	c #656565656565",
"D	c #B8B8B8B8B8B8",
"F	c #C3C3C3C3C3C3",
"G	c #C9C9C9C9C9C9",
"H	c #C8C8C8C8C8C8",
"J	c #878787878787",
"K	c #3D3D3D3D3D3D",
"L	c #181818181818",
"P	c #0E0E0E0E0E0E",
"I	c #262626262626",
"U	c #B5B5B5B5B5B5",
"Y	c #858585858585",
"T	c #CDCDCDCDCDCD",
"R	c #C6C6C6C6C6C6",
"E	c #2F2F2F2F2F2F",
"W	c #474747474747",
"Q	c #404040404040",
"!	c #717171717171",
"~	c #5A5A5A5A5A5A",
"^	c #2C2C2C2C2C2C",
"/	c #0C0C0C0C0C0C",
"(	c #4D4D4D4D4D4D",
")	c #060606060606",
"                                ",
"                                ",
"          .                     ",
"          .                     ",
"                                ",
"                                ",
"                                ",
"                                ",
"               X                ",
"               o                ",
"        O                       ",
"             +.  @              ",
"             #$%  &     *       ",
"        &  =-;:>,<1 2  3        ",
"        @4567890qwert           ",
"          Oyuipasdfgh-2         ",
"           jklz:lzxcvb.         ",
"           1nfm8MNBVCZO         ",
"         OhASDFaGdHJKL4P        ",
"        O2  IUYTqRkEP           ",
"            WQr!~c^QP           ",
"            2OOI/()             ",
"             O=. t3             ",
"              /   2             ",
"                                ",
"                                ",
"                                ",
"                                ",
"                                ",
"                                ",
"                                ",
"                                "};
