/* XPM */
static char * image_name[] = {
"32 32 147 2",
"  	c #020200000000",
". 	c #0F0F0F0F0F0F",
"X 	c #252525252525",
"o 	c #020201010101",
"O 	c #0A0A0A0A0A0A",
"+ 	c #070707070707",
"@ 	c #060606060606",
"# 	c #020202020202",
"$ 	c #313131313131",
"% 	c #404040404040",
"& 	c #464646464646",
"* 	c #222222222222",
"= 	c #5F5F5F5F5F5F",
"- 	c #1C1C1C1C1C1C",
"; 	c #050505050505",
": 	c #141414141414",
"> 	c #040404040404",
", 	c #0B0B0B0B0B0B",
"< 	c #161616161616",
"1 	c #191919191919",
"2 	c #292929292929",
"3 	c #444444444444",
"4 	c #343434343434",
"5 	c #6E6E6E6E6E6E",
"6 	c #434343434343",
"7 	c #373737373737",
"8 	c #272727272727",
"9 	c #1D1D1D1D1D1D",
"0 	c #090909090909",
"q 	c #565656565656",
"w 	c #333333333333",
"e 	c #2E2E2E2E2E2E",
"r 	c #242424242424",
"t 	c #3C3C3C3C3C3C",
"y 	c #232323232323",
"u 	c #2D2D2D2D2D2D",
"i 	c #101010101010",
"p 	c #131313131313",
"a 	c #3D3D3D3D3D3D",
"s 	c #262626262626",
"d 	c #1E1E1E1E1E1E",
"f 	c #3A3A3A3A3A3A",
"g 	c #545454545454",
"h 	c #767676767676",
"j 	c #4C4C4C4C4C4C",
"k 	c #5C5C5C5C5C5C",
"l 	c #585858585858",
"z 	c #5B5B5B5B5B5B",
"x 	c #363636363636",
"c 	c #5D5D5D5D5D5D",
"v 	c #676767676767",
"b 	c #181818181818",
"n 	c #212121212121",
"m 	c #474747474747",
"M 	c #0C0C0C0C0C0C",
"N 	c #484848484848",
"B 	c #2F2F2F2F2F2F",
"V 	c #AFAFAFAFAFAF",
"C 	c #393939393939",
"Z 	c #B9B9B9B9B9B9",
"A 	c #7C7C7C7C7C7C",
"S 	c #525252525252",
"D 	c #3F3F3F3F3F3F",
"F 	c #4F4F4F4F4F4F",
"G 	c #3B3B3B3B3B3B",
"H 	c #1F1F1F1F1F1F",
"J 	c #2A2A2A2A2A2A",
"K 	c #353535353535",
"L 	c #323232323232",
"P 	c #151515151515",
"I 	c #656565656565",
"U 	c #737373737373",
"Y 	c #8C8C8C8C8C8C",
"T 	c #505050505050",
"R 	c #646464646464",
"E 	c #535353535353",
"W 	c #575757575757",
"Q 	c #8E8E8E8E8E8E",
"! 	c #6F6F6F6F6F6F",
"~ 	c #7D7D7D7D7D7D",
"^ 	c #0E0E0E0E0E0E",
"/ 	c #1A1A1A1A1A1A",
"( 	c #111111111111",
") 	c #848484848484",
"_ 	c #6B6B6B6B6B6B",
"` 	c #4D4D4D4D4D4D",
"' 	c #616161616161",
"] 	c #383838383838",
"[ 	c #030303030303",
"{ 	c #3E3E3E3E3E3E",
"} 	c #282828282828",
"| 	c #454545454545",
" .	c #868686868686",
"..	c #515151515151",
"X.	c #A4A4A4A4A4A4",
"o.	c #6A6A6A6A6A6A",
"O.	c #919191919191",
"+.	c #A3A3A3A3A3A3",
"@.	c #4E4E4E4E4E4E",
"#.	c #121212121212",
"$.	c #171717171717",
"%.	c #7B7B7B7B7B7B",
"&.	c #2C2C2C2C2C2C",
"*.	c #202020202020",
"=.	c #888888888888",
"-.	c #5E5E5E5E5E5E",
";.	c #303030303030",
":.	c #6C6C6C6C6C6C",
">.	c #666666666666",
",.	c #2B2B2B2B2B2B",
"<.	c #0D0D0D0D0D0D",
"1.	c #626262626262",
"2.	c #6D6D6D6D6D6D",
"3.	c #9C9C9C9C9C9C",
"4.	c #4A4A4A4A4A4A",
"5.	c #707070707070",
"6.	c #797979797979",
"7.	c #5A5A5A5A5A5A",
"8.	c #4B4B4B4B4B4B",
"9.	c #ADADADADADAD",
"0.	c #999999999999",
"q.	c #080808080808",
"w.	c #1B1B1B1B1B1B",
"e.	c #8B8B8B8B8B8B",
"r.	c #8A8A8A8A8A8A",
"t.	c #555555555555",
"y.	c #727272727272",
"u.	c #969696969696",
"i.	c #595959595959",
"p.	c #424242424242",
"a.	c #878787878787",
"s.	c #414141414141",
"d.	c #9D9D9D9D9D9D",
"f.	c #828282828282",
"g.	c #A5A5A5A5A5A5",
"h.	c #777777777777",
"j.	c #787878787878",
"k.	c #606060606060",
"l.	c #8F8F8F8F8F8F",
"z.	c #A1A1A1A1A1A1",
"x.	c #636363636363",
"c.	c #9B9B9B9B9B9B",
"v.	c #898989898989",
"b.	c #838383838383",
"n.	c #949494949494",
"m.	c #ABABABABABAB",
"M.	c #494949494949",
"                                                                ",
"                                                                ",
"                                                                ",
"                    . X o O +   @                               ",
"              #   . $ % & * = - % ; :     >                     ",
"                  , < 1 2 $ , 3 4 5 6 7 8 9 0 > #               ",
"              + # q 7 w e r t & y u i p a s t a p               ",
"            >   d f g h j k l z x c 2 v b < n @ ,   +           ",
"                b m M N B f V C Z q A z N S D F   #             ",
"            +   & G H J i 4 K . + L P I p U Y T G u >           ",
"              n d R E W w W Q 2 ! y ~ p 2 ^ / < . t (           ",
"              b / r E f I ) g _ 5 S ` ' ] W C   . >             ",
"          [ : 2 { z } _ | D | q f E  ...X.N o.| K P             ",
"            s H S u O.w +.& _ 4 n @.#.$.< %.6 5 { &.[ ;         ",
"            # 1 } u *.E H j =.-. .;.:.= >.$.v ,.: @ $.          ",
"            <.%   1.| <.: ..  q P 8 7 c f 2.3.A n ]             ",
"            4.;.5.6.= 7.8.9.  0.6 ..@.q.w % b # & w.@           ",
"            O s m 8.e F e.! r.q t.1.0.1.2 C * }   [             ",
"          o <.  $.    , ; $./ } , y.K S u.F i.&.8               ",
"        # i p p.e.4 z X > p F   X   y O *.o.` F | ;             ",
"          G 6 ] e.2.A _ a.W h | S 6 q ^ C @     ; [             ",
"            w a 8.s.s.1...d.>.0.f.@.g.@.h.s.$.                  ",
"          i   p.*.X y 0 H . D J m j.q k.y.l.:.9 ;               ",
"        P s.q 1.-.r.a j z.O ~ ;.s./ + e s = * t <.              ",
"        o X 8 #.x.z c.v.' b.v.>.2.n.^ |     ;                   ",
"          o o   % 9 , w ( -.B e ) %  .m.M.h [                   ",
"              n   d H i w.0     2 q.9 :  .* e n                 ",
"              # + q.1 n u N G 7.*.r   f M q.1                   ",
"                      ; $.J 8 m | c w.L   y                     ",
"                              # q., H / p (                     ",
"                                                                ",
"                                                                "};
