/* XPM */
static char * image_name[] = {
"32 32 171 2",
"  	c #020200000000",
". 	c #808080808080",
"X 	c #D2D2D2D2D2D2",
"o 	c #1F1F1F1F1F1F",
"O 	c #505050505050",
"+ 	c #8D8D8D8D8D8D",
"@ 	c #757575757575",
"# 	c #F7F7F7F7F7F7",
"$ 	c #080808080808",
"% 	c #3A3A3A3A3A3A",
"& 	c #929292929292",
"* 	c #797979797979",
"= 	c #171717171717",
"- 	c #1E1E1E1E1E1E",
"; 	c #141414141414",
": 	c #535353535353",
"> 	c #393939393939",
", 	c #F9F9F9F9F9F9",
"< 	c #FDFDFDFDFDFD",
"1 	c #AEAEAEAEAEAE",
"2 	c #AAAAAAAAAAAA",
"3 	c #BDBDBDBDBDBD",
"4 	c #343434343434",
"5 	c #474747474747",
"6 	c #7C7C7C7C7C7C",
"7 	c #8F8F8F8F8F8F",
"8 	c #060606060606",
"9 	c #232323232323",
"0 	c #262626262626",
"q 	c #5F5F5F5F5F5F",
"w 	c #FCFCFCFCFCFC",
"e 	c #B0B0B0B0B0B0",
"r 	c #868686868686",
"t 	c #949494949494",
"y 	c #727272727272",
"u 	c #D7D7D7D7D7D7",
"i 	c #A0A0A0A0A0A0",
"p 	c #F4F4F4F4F4F4",
"a 	c #424242424242",
"s 	c #B8B8B8B8B8B8",
"d 	c #2C2C2C2C2C2C",
"f 	c #090909090909",
"g 	c #B4B4B4B4B4B4",
"h 	c #F8F8F8F8F8F8",
"j 	c #DFDFDFDFDFDF",
"k 	c #3F3F3F3F3F3F",
"l 	c #5B5B5B5B5B5B",
"z 	c #9F9F9F9F9F9F",
"x 	c #989898989898",
"c 	c #737373737373",
"v 	c #151515151515",
"b 	c #050505050505",
"n 	c #F0F0F0F0F0F0",
"m 	c #4E4E4E4E4E4E",
"M 	c #313131313131",
"N 	c #636363636363",
"B 	c #525252525252",
"V 	c #070707070707",
"C 	c #6F6F6F6F6F6F",
"Z 	c #666666666666",
"A 	c #515151515151",
"S 	c #C4C4C4C4C4C4",
"D 	c #BABABABABABA",
"F 	c #696969696969",
"G 	c #FAFAFAFAFAFA",
"H 	c #F3F3F3F3F3F3",
"J 	c #020202020202",
"K 	c #A7A7A7A7A7A7",
"L 	c #1A1A1A1A1A1A",
"P 	c #6D6D6D6D6D6D",
"I 	c #8E8E8E8E8E8E",
"U 	c #4D4D4D4D4D4D",
"Y 	c #020201010101",
"T 	c #626262626262",
"R 	c #CACACACACACA",
"E 	c #A5A5A5A5A5A5",
"W 	c #222222222222",
"Q 	c #5C5C5C5C5C5C",
"! 	c #F6F6F6F6F6F6",
"~ 	c #C9C9C9C9C9C9",
"^ 	c #A2A2A2A2A2A2",
"/ 	c #5E5E5E5E5E5E",
"( 	c #444444444444",
") 	c #3C3C3C3C3C3C",
"_ 	c #8A8A8A8A8A8A",
"` 	c #EEEEEEEEEEEE",
"' 	c #3B3B3B3B3B3B",
"] 	c #676767676767",
"[ 	c #0F0F0F0F0F0F",
"{ 	c #686868686868",
"} 	c #333333333333",
"| 	c #C7C7C7C7C7C7",
" .	c #828282828282",
"..	c #AFAFAFAFAFAF",
"X.	c #595959595959",
"o.	c #212121212121",
"O.	c #252525252525",
"+.	c #272727272727",
"@.	c #353535353535",
"#.	c #CFCFCFCFCFCF",
"$.	c #A8A8A8A8A8A8",
"%.	c #E4E4E4E4E4E4",
"&.	c #8C8C8C8C8C8C",
"*.	c #E6E6E6E6E6E6",
"=.	c #0E0E0E0E0E0E",
"-.	c #111111111111",
";.	c #FBFBFBFBFBFB",
":.	c #979797979797",
">.	c #0A0A0A0A0A0A",
",.	c #242424242424",
"<.	c #747474747474",
"1.	c #939393939393",
"2.	c #EDEDEDEDEDED",
"3.	c #363636363636",
"4.	c #2E2E2E2E2E2E",
"5.	c #4F4F4F4F4F4F",
"6.	c #040404040404",
"7.	c #EBEBEBEBEBEB",
"8.	c #7D7D7D7D7D7D",
"9.	c #777777777777",
"0.	c #1C1C1C1C1C1C",
"q.	c #CBCBCBCBCBCB",
"w.	c #C0C0C0C0C0C0",
"e.	c #5D5D5D5D5D5D",
"r.	c #E5E5E5E5E5E5",
"t.	c #DCDCDCDCDCDC",
"y.	c #4B4B4B4B4B4B",
"u.	c #1D1D1D1D1D1D",
"i.	c #858585858585",
"p.	c #EFEFEFEFEFEF",
"a.	c #7F7F7F7F7F7F",
"s.	c #454545454545",
"d.	c #2B2B2B2B2B2B",
"f.	c #131313131313",
"g.	c #3D3D3D3D3D3D",
"h.	c #292929292929",
"j.	c #0B0B0B0B0B0B",
"k.	c #B1B1B1B1B1B1",
"l.	c #ECECECECECEC",
"z.	c #A1A1A1A1A1A1",
"x.	c #D1D1D1D1D1D1",
"c.	c #C3C3C3C3C3C3",
"v.	c #B6B6B6B6B6B6",
"b.	c #202020202020",
"n.	c #181818181818",
"m.	c #8B8B8B8B8B8B",
"M.	c #C5C5C5C5C5C5",
"N.	c #E3E3E3E3E3E3",
"B.	c #0D0D0D0D0D0D",
"V.	c #DEDEDEDEDEDE",
"C.	c #323232323232",
"Z.	c #CDCDCDCDCDCD",
"A.	c #C1C1C1C1C1C1",
"S.	c #414141414141",
"D.	c #E7E7E7E7E7E7",
"F.	c #121212121212",
"G.	c #2D2D2D2D2D2D",
"H.	c #B5B5B5B5B5B5",
"J.	c #A9A9A9A9A9A9",
"K.	c #909090909090",
"L.	c #818181818181",
"P.	c #E0E0E0E0E0E0",
"I.	c #383838383838",
"U.	c #030303030303",
"Y.	c #373737373737",
"T.	c #767676767676",
"R.	c #9B9B9B9B9B9B",
"E.	c #303030303030",
"W.	c #838383838383",
"Q.	c #DADADADADADA",
"!.	c #9E9E9E9E9E9E",
"                                                                ",
"                            . X           o                     ",
"                            O +         @ # $                   ",
"                  % & *         = -     ; :                     ",
"                > , < < 1       2 3     4 5                     ",
"        6 7     7 < < < , 8     9 0   q w < e                   ",
"        r t     y < < < u             i < < p   a s d           ",
"                f g h j k             l , < z   x < c           ",
"                    v b     - n m       M k     ; N 8           ",
"          d B         - V   $ x 9           C Z                 ",
"        A , < S     ; # D         F & 5   v G H         J       ",
"        K < < < L   b K P       I < < w U Y C T         R E     ",
"  W Q   l ! < ~                 u < < < ^       / (     Q )     ",
"  _ `     ' ] [     { + }       | < < <  .    ..< < X.          ",
"  $ o.O.7 + +.    ..< < h @.    4 #.p $.$     %.< < &.          ",
"    V *.< < ` =.-.;.< < < :.      J >.  ,.<.  1.< 2.@.  3.4.    ",
"    5.< < < < O 6.7.< < < 8.    &.9     9.` V J ) 0.    q.w.    ",
"    @.;.< < w }   e.r.< s V   $ t.y.    b u.            +.u.    ",
"      i., p.a.      =.W       s.* d.                f.d         ",
"        ; -.                y < < h g.              q.;.h.      ",
"              j.k.l.z.      x.< < < c.e G G v.b.    x #.f       ",
"      n.e 9   x < < < m.    M.< < < < < < < < N.B.              ",
"      h.V.C.  Z.< < < A.    S.D.< < < < < < < < .               ",
"              + < < < c       F.G.X < < < < < < H.              ",
"              $ 7 S y             Z.< < < < < < J.  k K.6.      ",
"                        B.K +.    L.< < < < < < Q   w.< O       ",
"                >.B     W P.)     >.q.< < < < 1     I. .U.      ",
"                ] ;.o     U.  Y.T.  $ N ^ R.X.  K c             ",
"                8 E.          W.Q.              !.N             ",
"                              J >.                              ",
"                                                                ",
"                                                                "};
