/* XPM */
static char * image_name[] = {
"32 32 82 1",
" 	c #020200000000",
".	c #090909090909",
"X	c #171717171717",
"o	c #020201010101",
"O	c #070707070707",
"+	c #1D1D1D1D1D1D",
"@	c #040404040404",
"#	c #0E0E0E0E0E0E",
"$	c #030303030303",
"%	c #565656565656",
"&	c #1A1A1A1A1A1A",
"*	c #303030303030",
"=	c #1F1F1F1F1F1F",
"-	c #3E3E3E3E3E3E",
";	c #484848484848",
":	c #313131313131",
">	c #0C0C0C0C0C0C",
",	c #5F5F5F5F5F5F",
"<	c #2A2A2A2A2A2A",
"1	c #424242424242",
"2	c #242424242424",
"3	c #2E2E2E2E2E2E",
"4	c #282828282828",
"5	c #606060606060",
"6	c #0A0A0A0A0A0A",
"7	c #343434343434",
"8	c #080808080808",
"9	c #0B0B0B0B0B0B",
"0	c #373737373737",
"q	c #323232323232",
"w	c #5B5B5B5B5B5B",
"e	c #101010101010",
"r	c #292929292929",
"t	c #4D4D4D4D4D4D",
"y	c #0D0D0D0D0D0D",
"u	c #1C1C1C1C1C1C",
"i	c #2B2B2B2B2B2B",
"p	c #717171717171",
"a	c #212121212121",
"s	c #3B3B3B3B3B3B",
"d	c #3A3A3A3A3A3A",
"f	c #121212121212",
"g	c #262626262626",
"h	c #444444444444",
"j	c #363636363636",
"k	c #4E4E4E4E4E4E",
"l	c #5C5C5C5C5C5C",
"z	c #151515151515",
"x	c #191919191919",
"c	c #353535353535",
"v	c #383838383838",
"b	c #505050505050",
"n	c #6B6B6B6B6B6B",
"m	c #7F7F7F7F7F7F",
"M	c #545454545454",
"N	c #515151515151",
"B	c #575757575757",
"V	c #7A7A7A7A7A7A",
"C	c #6D6D6D6D6D6D",
"Z	c #4C4C4C4C4C4C",
"A	c #464646464646",
"S	c #393939393939",
"D	c #535353535353",
"F	c #616161616161",
"G	c #636363636363",
"H	c #676767676767",
"J	c #696969696969",
"K	c #2D2D2D2D2D2D",
"L	c #3C3C3C3C3C3C",
"P	c #585858585858",
"I	c #7C7C7C7C7C7C",
"U	c #1B1B1B1B1B1B",
"Y	c #656565656565",
"T	c #4A4A4A4A4A4A",
"R	c #797979797979",
"E	c #555555555555",
"W	c #767676767676",
"Q	c #131313131313",
"!	c #2C2C2C2C2C2C",
"~	c #232323232323",
"^	c #020202020202",
"/	c #161616161616",
"                                ",
"                                ",
"                                ",
"                                ",
"                        .       ",
"                                ",
"                                ",
"                          X     ",
"                         oO     ",
"                                ",
"                                ",
"             +@          #      ",
"           $%&*o         =      ",
"            -;:=                ",
"            >,<1=     <:2       ",
"            34567    83%o       ",
"           90qw%er   0ty        ",
"            ui=pas  d%f         ",
"            @dgwhXjklz          ",
"       xcv   6abnjmM8           ",
"        o+Nu o3BVCZA            ",
"         @ SNDFGHJ7K            ",
"        3L ePCGw-IDU            ",
"      o0YT6 *R&8EWP             ",
"         dryQe! Avo             ",
"        o~^   4/o               ",
"              @                 ",
"                                ",
"                                ",
"                                ",
"                                ",
"                                "};
