/* XPM */
static char * image_name[] = {
"32 32 132 2",
"  	c #020200000000",
". 	c #111111111111",
"X 	c #272727272727",
"o 	c #353535353535",
"O 	c #404040404040",
"+ 	c #434343434343",
"@ 	c #3D3D3D3D3D3D",
"# 	c #343434343434",
"$ 	c #1E1E1E1E1E1E",
"% 	c #191919191919",
"& 	c #323232323232",
"* 	c #414141414141",
"= 	c #3C3C3C3C3C3C",
"- 	c #313131313131",
"; 	c #383838383838",
": 	c #3E3E3E3E3E3E",
"> 	c #484848484848",
", 	c #454545454545",
"< 	c #1D1D1D1D1D1D",
"1 	c #020201010101",
"2 	c #2E2E2E2E2E2E",
"3 	c #373737373737",
"4 	c #2B2B2B2B2B2B",
"5 	c #212121212121",
"6 	c #141414141414",
"7 	c #121212121212",
"8 	c #181818181818",
"9 	c #1F1F1F1F1F1F",
"0 	c #292929292929",
"q 	c #424242424242",
"w 	c #4C4C4C4C4C4C",
"e 	c #202020202020",
"r 	c #2F2F2F2F2F2F",
"t 	c #333333333333",
"y 	c #242424242424",
"u 	c #171717171717",
"i 	c #0C0C0C0C0C0C",
"p 	c #040404040404",
"a 	c #030303030303",
"s 	c #020202020202",
"d 	c #0E0E0E0E0E0E",
"f 	c #1B1B1B1B1B1B",
"g 	c #282828282828",
"h 	c #363636363636",
"j 	c #464646464646",
"k 	c #101010101010",
"l 	c #080808080808",
"z 	c #1A1A1A1A1A1A",
"x 	c #4E4E4E4E4E4E",
"c 	c #474747474747",
"v 	c #070707070707",
"b 	c #1C1C1C1C1C1C",
"n 	c #3A3A3A3A3A3A",
"m 	c #0B0B0B0B0B0B",
"M 	c #3F3F3F3F3F3F",
"N 	c #696969696969",
"B 	c #787878787878",
"V 	c #868686868686",
"C 	c #8D8D8D8D8D8D",
"Z 	c #8E8E8E8E8E8E",
"A 	c #878787878787",
"S 	c #7E7E7E7E7E7E",
"D 	c #6B6B6B6B6B6B",
"F 	c #4F4F4F4F4F4F",
"G 	c #090909090909",
"H 	c #151515151515",
"J 	c #262626262626",
"K 	c #050505050505",
"L 	c #737373737373",
"P 	c #A0A0A0A0A0A0",
"I 	c #AAAAAAAAAAAA",
"U 	c #AFAFAFAFAFAF",
"Y 	c #B1B1B1B1B1B1",
"T 	c #B0B0B0B0B0B0",
"R 	c #8A8A8A8A8A8A",
"E 	c #676767676767",
"W 	c #232323232323",
"Q 	c #393939393939",
"! 	c #4B4B4B4B4B4B",
"~ 	c #646464646464",
"^ 	c #A3A3A3A3A3A3",
"/ 	c #B2B2B2B2B2B2",
"( 	c #B3B3B3B3B3B3",
") 	c #ACACACACACAC",
"_ 	c #979797979797",
"` 	c #717171717171",
"' 	c #2A2A2A2A2A2A",
"] 	c #959595959595",
"[ 	c #ADADADADADAD",
"{ 	c #949494949494",
"} 	c #131313131313",
"| 	c #2C2C2C2C2C2C",
" .	c #777777777777",
"..	c #9C9C9C9C9C9C",
"X.	c #AEAEAEAEAEAE",
"o.	c #A5A5A5A5A5A5",
"O.	c #838383838383",
"+.	c #0F0F0F0F0F0F",
"@.	c #6D6D6D6D6D6D",
"#.	c #909090909090",
"$.	c #3B3B3B3B3B3B",
"%.	c #222222222222",
"&.	c #0D0D0D0D0D0D",
"*.	c #515151515151",
"=.	c #858585858585",
"-.	c #A9A9A9A9A9A9",
";.	c #303030303030",
":.	c #919191919191",
">.	c #A1A1A1A1A1A1",
",.	c #5A5A5A5A5A5A",
"<.	c #444444444444",
"1.	c #8F8F8F8F8F8F",
"2.	c #A7A7A7A7A7A7",
"3.	c #A4A4A4A4A4A4",
"4.	c #0A0A0A0A0A0A",
"5.	c #060606060606",
"6.	c #4A4A4A4A4A4A",
"7.	c #5C5C5C5C5C5C",
"8.	c #A6A6A6A6A6A6",
"9.	c #A8A8A8A8A8A8",
"0.	c #A2A2A2A2A2A2",
"q.	c #9A9A9A9A9A9A",
"w.	c #535353535353",
"e.	c #2D2D2D2D2D2D",
"r.	c #656565656565",
"t.	c #707070707070",
"y.	c #747474747474",
"u.	c #6C6C6C6C6C6C",
"i.	c #5E5E5E5E5E5E",
"p.	c #252525252525",
"a.	c #161616161616",
"s.	c #494949494949",
"                                                                ",
"                                                                ",
"                                                                ",
"                                                                ",
"                                                                ",
"                                                                ",
"                                                                ",
"                                    . X o O + O @ # $           ",
"                              % & * = o & - - # ; : > , <       ",
"                        1 2 * 3 4 5 % 6 7 7 6 8 9 0 o q w e     ",
"                      r + t y u i p a a p s a p d f g h j ,     ",
"                  5 + t 5 k a l z o > x > c t v s i b 4 : x p   ",
"                n ; y 7 a m M N B V C Z A S D F G p H J n x G   ",
"            % * 2 8 K v * L Z P I U Y T I P R E 2 s 7 W Q !     ",
"          X + 4 H a y ~ C ^ T / / / / ( / ) _ ` & a 6 g M 3     ",
"        g q ' 7 a & L ] I / Y T T T T / ( [ { E % p z r j }     ",
"      e q | 6 a #  ...X./ Y U U U U T / / o.O.! a +.X @ -       ",
"    m c & b K 9 @._ X.( Y U X.X.U U Y / I #.~ k l 9 ; c         ",
"    $.$.%.&.a *.=.o./ / T U X.U U Y / -.C N 9 a 8 ;.c &.        ",
"  u c r 8 K 8 ~ :.) ( / Y T T Y Y T >.=.,.6 a % - <.+.          ",
"  3 O 0 7 s y E 1.2.Y ( / / / X.3.1.` = K 4.$ o : 5.            ",
"  6.@ J 7 s u 7.S ] P 8.9.0.q.Z  .w.8 a } g $.; s               ",
"  w = g H v s e.w.r.t.y.y.u.i.q z a 4.< ;.+ p.                  ",
"  j * r $ . p s k y | | %.6 K a d < 2 : e.l                     ",
"  e.6.$.| e a.d l K K K 4.k z J & M Q +.                        ",
"  s $.> $.& 0 W e 9 e 5 g r Q <.| .                             ",
"    s %.O s.+ M : : O + : g u a                                 ",
"          d % < < % k K                                         ",
"                                                                ",
"                                                                ",
"                                                                ",
"                                                                "};
