/* XPM */
static char * image_name[] = {
"32 32 82 1",
" 	c #020200000000",
".	c #020201010101",
"X	c #121212121212",
"o	c #080808080808",
"O	c #0E0E0E0E0E0E",
"+	c #0B0B0B0B0B0B",
"@	c #0F0F0F0F0F0F",
"#	c #343434343434",
"$	c #1D1D1D1D1D1D",
"%	c #1E1E1E1E1E1E",
"&	c #474747474747",
"*	c #1F1F1F1F1F1F",
"=	c #515151515151",
"-	c #2B2B2B2B2B2B",
";	c #717171717171",
":	c #131313131313",
">	c #3C3C3C3C3C3C",
",	c #0D0D0D0D0D0D",
"<	c #222222222222",
"1	c #101010101010",
"2	c #606060606060",
"3	c #8A8A8A8A8A8A",
"4	c #8C8C8C8C8C8C",
"5	c #5F5F5F5F5F5F",
"6	c #646464646464",
"7	c #616161616161",
"8	c #A7A7A7A7A7A7",
"9	c #8B8B8B8B8B8B",
"0	c #8D8D8D8D8D8D",
"q	c #676767676767",
"w	c #868686868686",
"e	c #959595959595",
"r	c #4C4C4C4C4C4C",
"t	c #050505050505",
"y	c #3D3D3D3D3D3D",
"u	c #424242424242",
"i	c #6D6D6D6D6D6D",
"p	c #A5A5A5A5A5A5",
"a	c #A2A2A2A2A2A2",
"s	c #A4A4A4A4A4A4",
"d	c #686868686868",
"f	c #A6A6A6A6A6A6",
"g	c #969696969696",
"h	c #313131313131",
"j	c #060606060606",
"k	c #848484848484",
"l	c #B1B1B1B1B1B1",
"z	c #CCCCCCCCCCCC",
"x	c #EDEDEDEDEDED",
"c	c #C9C9C9C9C9C9",
"v	c #989898989898",
"b	c #898989898989",
"n	c #3E3E3E3E3E3E",
"m	c #C7C7C7C7C7C7",
"M	c #C2C2C2C2C2C2",
"N	c #B9B9B9B9B9B9",
"B	c #6B6B6B6B6B6B",
"V	c #303030303030",
"C	c #272727272727",
"Z	c #181818181818",
"A	c #020202020202",
"S	c #202020202020",
"D	c #888888888888",
"F	c #787878787878",
"G	c #575757575757",
"H	c #444444444444",
"J	c #A1A1A1A1A1A1",
"K	c #A0A0A0A0A0A0",
"L	c #040404040404",
"P	c #030303030303",
"I	c #151515151515",
"U	c #494949494949",
"Y	c #0C0C0C0C0C0C",
"T	c #3A3A3A3A3A3A",
"R	c #090909090909",
"E	c #4E4E4E4E4E4E",
"W	c #111111111111",
"Q	c #191919191919",
"!	c #3B3B3B3B3B3B",
"~	c #252525252525",
"^	c #1A1A1A1A1A1A",
"/	c #0A0A0A0A0A0A",
"                                ",
"                                ",
"                                ",
"                                ",
"                                ",
"                                ",
"            .                   ",
"             X o                ",
"             O+@  O             ",
"              #$ %&             ",
"              *=-;:   +> ,<     ",
"          1234567890qwer        ",
"         t=&yuipasdfgh          ",
"         j  >klzxcvy            ",
"           kbnrmMNBVC,          ",
"         : ZASDF<GHvJKhL        ",
"         #  P9Id L   P.U        ",
"        Y   UTRE       PW       ",
"       .    7 Q!                ",
"           W~ ^<                ",
"           @  Q#                ",
"           j  /y                ",
"              .T                ",
"               P                ",
"                L               ",
"                                ",
"                                ",
"                                ",
"                                ",
"                                ",
"                                ",
"                                "};
