/* XPM */
static char * image_name[] = {
"32 32 178 2",
"  	c #020200000000",
". 	c #191919191919",
"X 	c #5F5F5F5F5F5F",
"o 	c #767676767676",
"O 	c #8B8B8B8B8B8B",
"+ 	c #969696969696",
"@ 	c #939393939393",
"# 	c #828282828282",
"$ 	c #858585858585",
"% 	c #434343434343",
"& 	c #020201010101",
"* 	c #020202020202",
"= 	c #242424242424",
"- 	c #CDCDCDCDCDCD",
"; 	c #656565656565",
": 	c #353535353535",
"> 	c #373737373737",
", 	c #343434343434",
"< 	c #333333333333",
"1 	c #BBBBBBBBBBBB",
"2 	c #393939393939",
"3 	c #202020202020",
"4 	c #CBCBCBCBCBCB",
"5 	c #A4A4A4A4A4A4",
"6 	c #7A7A7A7A7A7A",
"7 	c #0D0D0D0D0D0D",
"8 	c #404040404040",
"9 	c #C8C8C8C8C8C8",
"0 	c #A6A6A6A6A6A6",
"q 	c #7C7C7C7C7C7C",
"w 	c #717171717171",
"e 	c #9E9E9E9E9E9E",
"r 	c #787878787878",
"t 	c #C7C7C7C7C7C7",
"y 	c #323232323232",
"u 	c #A3A3A3A3A3A3",
"i 	c #030303030303",
"p 	c #C4C4C4C4C4C4",
"a 	c #7F7F7F7F7F7F",
"s 	c #3A3A3A3A3A3A",
"d 	c #3E3E3E3E3E3E",
"f 	c #A9A9A9A9A9A9",
"g 	c #7E7E7E7E7E7E",
"h 	c #070707070707",
"j 	c #121212121212",
"k 	c #CECECECECECE",
"l 	c #4B4B4B4B4B4B",
"z 	c #9F9F9F9F9F9F",
"x 	c #D5D5D5D5D5D5",
"c 	c #F3F3F3F3F3F3",
"v 	c #E4E4E4E4E4E4",
"b 	c #D3D3D3D3D3D3",
"n 	c #DDDDDDDDDDDD",
"m 	c #CCCCCCCCCCCC",
"M 	c #D2D2D2D2D2D2",
"N 	c #CFCFCFCFCFCF",
"B 	c #D0D0D0D0D0D0",
"V 	c #EFEFEFEFEFEF",
"C 	c #F5F5F5F5F5F5",
"Z 	c #636363636363",
"A 	c #666666666666",
"S 	c #D6D6D6D6D6D6",
"D 	c #B1B1B1B1B1B1",
"F 	c #6C6C6C6C6C6C",
"G 	c #616161616161",
"H 	c #646464646464",
"J 	c #8C8C8C8C8C8C",
"K 	c #DBDBDBDBDBDB",
"L 	c #8A8A8A8A8A8A",
"P 	c #686868686868",
"I 	c #626262626262",
"U 	c #CACACACACACA",
"Y 	c #AFAFAFAFAFAF",
"T 	c #6D6D6D6D6D6D",
"R 	c #757575757575",
"E 	c #606060606060",
"W 	c #C3C3C3C3C3C3",
"Q 	c #7D7D7D7D7D7D",
"! 	c #383838383838",
"~ 	c #C6C6C6C6C6C6",
"^ 	c #A7A7A7A7A7A7",
"/ 	c #040404040404",
"( 	c #101010101010",
") 	c #4D4D4D4D4D4D",
"_ 	c #797979797979",
"` 	c #474747474747",
"' 	c #C2C2C2C2C2C2",
"] 	c #313131313131",
"[ 	c #C9C9C9C9C9C9",
"{ 	c #A5A5A5A5A5A5",
"} 	c #595959595959",
"| 	c #A0A0A0A0A0A0",
" .	c #A2A2A2A2A2A2",
"..	c #E6E6E6E6E6E6",
"X.	c #B8B8B8B8B8B8",
"o.	c #E8E8E8E8E8E8",
"O.	c #B6B6B6B6B6B6",
"+.	c #A1A1A1A1A1A1",
"@.	c #DEDEDEDEDEDE",
"#.	c #A8A8A8A8A8A8",
"$.	c #EDEDEDEDEDED",
"%.	c #808080808080",
"&.	c #DADADADADADA",
"*.	c #BCBCBCBCBCBC",
"=.	c #7B7B7B7B7B7B",
"-.	c #818181818181",
";.	c #868686868686",
":.	c #838383838383",
">.	c #898989898989",
",.	c #505050505050",
"<.	c #252525252525",
"1.	c #080808080808",
"2.	c #0A0A0A0A0A0A",
"3.	c #0E0E0E0E0E0E",
"4.	c #848484848484",
"5.	c #0F0F0F0F0F0F",
"6.	c #090909090909",
"7.	c #0B0B0B0B0B0B",
"8.	c #424242424242",
"9.	c #454545454545",
"0.	c #0C0C0C0C0C0C",
"q.	c #ADADADADADAD",
"w.	c #111111111111",
"e.	c #1B1B1B1B1B1B",
"r.	c #545454545454",
"t.	c #2C2C2C2C2C2C",
"y.	c #C5C5C5C5C5C5",
"u.	c #2A2A2A2A2A2A",
"i.	c #4A4A4A4A4A4A",
"p.	c #2D2D2D2D2D2D",
"a.	c #484848484848",
"s.	c #292929292929",
"d.	c #3D3D3D3D3D3D",
"f.	c #363636363636",
"g.	c #989898989898",
"h.	c #696969696969",
"j.	c #BEBEBEBEBEBE",
"k.	c #3B3B3B3B3B3B",
"l.	c #444444444444",
"z.	c #D8D8D8D8D8D8",
"x.	c #747474747474",
"c.	c #B9B9B9B9B9B9",
"v.	c #BABABABABABA",
"b.	c #BDBDBDBDBDBD",
"n.	c #C0C0C0C0C0C0",
"m.	c #E7E7E7E7E7E7",
"M.	c #5E5E5E5E5E5E",
"N.	c #151515151515",
"B.	c #2B2B2B2B2B2B",
"V.	c #2E2E2E2E2E2E",
"C.	c #303030303030",
"Z.	c #D4D4D4D4D4D4",
"A.	c #2F2F2F2F2F2F",
"S.	c #060606060606",
"D.	c #494949494949",
"F.	c #1A1A1A1A1A1A",
"G.	c #262626262626",
"H.	c #E2E2E2E2E2E2",
"J.	c #F1F1F1F1F1F1",
"K.	c #D9D9D9D9D9D9",
"L.	c #D7D7D7D7D7D7",
"P.	c #F2F2F2F2F2F2",
"I.	c #DCDCDCDCDCDC",
"U.	c #B7B7B7B7B7B7",
"Y.	c #5D5D5D5D5D5D",
"T.	c #D1D1D1D1D1D1",
"R.	c #5B5B5B5B5B5B",
"E.	c #5C5C5C5C5C5C",
"W.	c #565656565656",
"Q.	c #5A5A5A5A5A5A",
"!.	c #555555555555",
"~.	c #575757575757",
"^.	c #585858585858",
"/.	c #8E8E8E8E8E8E",
"(.	c #737373737373",
").	c #727272727272",
"_.	c #181818181818",
"`.	c #B5B5B5B5B5B5",
"                      . X o O + @ # $ % &                       ",
"                  * = X - ; : > , < 1 + 2 3                     ",
"                      > 4 ,         5 6                         ",
"          7 8         < 9 :         0 q         * w             ",
"          e r         < t y         u 6         i - y           ",
"          p a         s t d         f g h       j k l           ",
"      z x c v - b - - n c n m M N B V v x m b 4 x C n k r       ",
"    = Z A S D F G A H J K L A P H I U Y T ; ; P R n + H E 7     ",
"        & W Q i       ! ~ >         ^ Q / &     ( - )           ",
"          W _         y t :         u 6         i k `           ",
"          ' q         ] t y         0 6         h B l           ",
"          t Q         > [ ,         { q         i k `           ",
"} | e  . ...[ u  .z | X.o.O.z u | +.@.m 5 |  .z #.$.1 | z  .e s ",
"; 6 %.# $ &.*.%.%.%.=.+.@.z -.# q q N *.;.q # :.>.@.5 %.g %.Q ,.",
"<.1.2.2.3.U 4.5.2.6.7.8.4 9.6.0.6.6.q.$ w.2.7.2.e.M r.2.7.2.6.t.",
"e.        p Q         < y.,         { g         i N l         u.",
"e.        p 6         , ~ :         u 6         i - i.        p.",
".         W q         y t ,         5 _         h B a.        s.",
"d.] ] ] f.k g.2 ] ] < h.x H ] < ] ] j.e k.< ] ] l.z.x.] ] ] ] s ",
"q c.c.v.b.v B *.c.c.X.y...~ 1 c.c.c.&.k b.v.c.1 n.m.4 X.c.c.c.M.",
"N.s.B.V.y m g.: p.B.u.G B G p.p.t.u.c.g.> ] t.C.8 Z.w t.A.V.u.S.",
"          W q         y 9 >         5 q         h B D.          ",
"          9 =.        ! U y         { Q         i - `           ",
"          ' r         y ~ ,         5 _         i - D.          ",
"      7 j ~ >.j 0.6.7.` [ 9.1.( 6.6.Y 4.F.7.3.6.G.M } 0.h       ",
"    V.k z.V H.N S N B n J.@.k K.N M $.@.L.B &.B &.P.I.x U.7.    ",
"      p.Y.T.^ R.} E.W.Q M g Q.!.~.^.p 0 M.Q.!.E.Z K./.r..       ",
"          ~ q &       ! U :         { q *       6.k 9.          ",
"          (.).        y 9 !         5 =.        h t _.          ",
"          & .         , y.<         u 6         * A.            ",
"                      f.[ y         5 6                         ",
"                    : %.4 ' O.1 v.O.b `.h.<.                    "};
