/* XPM */
static char * image_name[] = {
"32 32 44 1",
" 	c #020200000000",
".	c #020201010101",
"X	c #050505050505",
"o	c #020202020202",
"O	c #0B0B0B0B0B0B",
"+	c #0E0E0E0E0E0E",
"@	c #0A0A0A0A0A0A",
"#	c #060606060606",
"$	c #171717171717",
"%	c #030303030303",
"&	c #141414141414",
"*	c #080808080808",
"=	c #070707070707",
"-	c #0C0C0C0C0C0C",
";	c #0F0F0F0F0F0F",
":	c #101010101010",
">	c #1F1F1F1F1F1F",
",	c #1A1A1A1A1A1A",
"<	c #151515151515",
"1	c #191919191919",
"2	c #161616161616",
"3	c #040404040404",
"4	c #212121212121",
"5	c #121212121212",
"6	c #222222222222",
"7	c #131313131313",
"8	c #111111111111",
"9	c #262626262626",
"0	c #2D2D2D2D2D2D",
"q	c #2B2B2B2B2B2B",
"w	c #0D0D0D0D0D0D",
"e	c #181818181818",
"r	c #1C1C1C1C1C1C",
"t	c #1D1D1D1D1D1D",
"y	c #1B1B1B1B1B1B",
"u	c #232323232323",
"i	c #090909090909",
"p	c #252525252525",
"a	c #1E1E1E1E1E1E",
"s	c #202020202020",
"d	c #272727272727",
"f	c #292929292929",
"g	c #282828282828",
"h	c #242424242424",
"                                ",
"                                ",
"        .     Xo                ",
"          O     +@   #          ",
"       o   #$    %&*   =        ",
"        -;   :>    *$%   #      ",
"     *X  .,<  .11    -2    .    ",
"      3$-  #45  #6<    :7       ",
"   %8   :93  +0=  OqO    <w     ",
"     8e  .r>   <4   &9     ;    ",
" 3    3t,  %4y  o>r  .$6     3  ",
"   :@   @65  #67  X6e  o,y      ",
"    @>O   +uO  @uw  ip;  31;    ",
" o+   56%   7u%  :u=  -9@  #5   ",
"   :r   $6    e6   <4   :p    3 ",
" #+ oyr  .ra   .r>  .ys   5,    ",
"  .1$ id&  Xf$   #g2  %d,   &+  ",
"%   @>w 8hX  wpi   ;ui  Oh=   3 ",
" %:   :uX 26   84    74   -y    ",
"   w,   26 .rs   14    ,>   =i  ",
" o  .er  .rs %4y  .sr   .y<     ",
"  =@  X>y  %4y #4<  Xue   .7    ",
"    8;  @65  #u& -u+  *uO    .  ",
"     o,;  +uO  ih+ :u#  i,      ",
"   =   ip=  2g   <g  1s   Xi    ",
"    %X   ;>  o>,  .re o$*       ",
"      @X   5r  3t5  oe@  i      ",
"        +o  .&2  @eX   w        ",
"          :   o5X  =-           ",
"            -   .+              ",
"              3    o            ",
"                                "};
