/* XPM */
static char * spGreasePencil_drawTool_xpm[] = {
"30 30 236 2",
"  	c None",
". 	c #818181",
"+ 	c #828282",
"@ 	c #838383",
"# 	c #848484",
"$ 	c #858585",
"% 	c #868686",
"& 	c #C8C8C8",
"* 	c #D1D1D1",
"= 	c #D2D2D2",
"- 	c #D3D3D3",
"; 	c #D4D4D4",
"> 	c #D5D5D5",
", 	c #D6D6D6",
"' 	c #D7D7D7",
") 	c #D8D8D8",
"! 	c #E8E8E8",
"~ 	c #E9E9E9",
"{ 	c #EAEAEA",
"] 	c #EBEBEB",
"^ 	c #ECECEC",
"/ 	c #EDEDED",
"( 	c #EEEEEE",
"_ 	c #EFEFEF",
": 	c #B8B8B8",
"< 	c #D8D8D7",
"[ 	c #D9D9D9",
"} 	c #D9DADA",
"| 	c #DADADA",
"1 	c #DBDBDB",
"2 	c #DBDCDB",
"3 	c #DCDCDC",
"4 	c #DDDDDE",
"5 	c #DFDFE0",
"6 	c #E1E2E2",
"7 	c #E4E4E4",
"8 	c #E5E5E5",
"9 	c #E1E1E1",
"0 	c #DADAD9",
"a 	c #B9B9B9",
"b 	c #B9B8B8",
"c 	c #DBDADA",
"d 	c #DDDDDD",
"e 	c #DDDEDD",
"f 	c #DEDEDD",
"g 	c #E0E0E0",
"h 	c #E2E2E2",
"i 	c #C5C5C5",
"j 	c #7E7E7E",
"k 	c #777777",
"l 	c #B3B3B3",
"m 	c #E9E8E8",
"n 	c #E8E7E7",
"o 	c #E2E1E1",
"p 	c #BABABA",
"q 	c #DCDBDB",
"r 	c #DDDCDC",
"s 	c #DEDEDE",
"t 	c #DFDEDE",
"u 	c #DFE0E0",
"v 	c #E3E3E3",
"w 	c #E6E6E6",
"x 	c #CDCDCD",
"y 	c #525252",
"z 	c #939393",
"A 	c #BDBDBD",
"B 	c #A6A6A6",
"C 	c #5E5E5E",
"D 	c #616161",
"E 	c #CACACA",
"F 	c #DDDCDD",
"G 	c #DEDEDF",
"H 	c #DFDFDF",
"I 	c #DFE0DF",
"J 	c #E0E0DF",
"K 	c #8A8A8A",
"L 	c #515150",
"M 	c #686868",
"N 	c #989898",
"O 	c #585858",
"P 	c #DCDDDD",
"Q 	c #BFBFBF",
"R 	c #E2E2E3",
"S 	c #535353",
"T 	c #4E4E4E",
"U 	c #3A3A3A",
"V 	c #313131",
"W 	c #434343",
"X 	c #767676",
"Y 	c #C3C3C3",
"Z 	c #7A7A7A",
"` 	c #9D9D9D",
" .	c #C2C2C1",
"..	c #E1E1E0",
"+.	c #E3E3E4",
"@.	c #EDEEED",
"#.	c #747474",
"$.	c #727272",
"%.	c #CECECE",
"&.	c #969696",
"*.	c #555555",
"=.	c #303030",
"-.	c #353535",
";.	c #9E9E9E",
">.	c #959595",
",.	c #E7E7E7",
"'.	c #C2C2C2",
").	c #E6E5E5",
"!.	c #F0F0F0",
"~.	c #8B8B8B",
"{.	c #5A5A5A",
"].	c #424242",
"^.	c #404040",
"/.	c #D0D0D0",
"(.	c #575757",
"_.	c #BBBBBB",
":.	c #E1E0E0",
"<.	c #9F9F9F",
"[.	c #CFCFCF",
"}.	c #A1A1A1",
"|.	c #505050",
"1.	c #515151",
"2.	c #C1C1C1",
"3.	c #E3E3E2",
"4.	c #E4E5E4",
"5.	c #EDECED",
"6.	c #F1F1F1",
"7.	c #C4C4C4",
"8.	c #454545",
"9.	c #464646",
"0.	c #3E3E3E",
"a.	c #EFF0EF",
"b.	c #E6E6E7",
"c.	c #C0C0C0",
"d.	c #BCBCBC",
"e.	c #EAE9EA",
"f.	c #979797",
"g.	c #6E6E6E",
"h.	c #BEBFBE",
"i.	c #5F5F5F",
"j.	c #878787",
"k.	c #A4A4A4",
"l.	c #EEEFEE",
"m.	c #EAEAE9",
"n.	c #E6E5E6",
"o.	c #BEBEBE",
"p.	c #F2F2F2",
"q.	c #6B6B6B",
"r.	c #4D4D4D",
"s.	c #E5E5E6",
"t.	c #919191",
"u.	c #B2B2B2",
"v.	c #4C4C4C",
"w.	c #E6E6E5",
"x.	c #BDBDBC",
"y.	c #EAEBEA",
"z.	c #B7B7B7",
"A.	c #484848",
"B.	c #C9C9C9",
"C.	c #A3A3A3",
"D.	c #F1F0F0",
"E.	c #ABABAB",
"F.	c #4F4F4F",
"G.	c #F3F3F3",
"H.	c #E7E7E8",
"I.	c #BFC0C0",
"J.	c #474747",
"K.	c #9A9A9A",
"L.	c #B0B0B0",
"M.	c #4D4E4D",
"N.	c #F4F4F4",
"O.	c #F2F3F3",
"P.	c #8E8E8E",
"Q.	c #343434",
"R.	c #494949",
"S.	c #F5F5F5",
"T.	c #F5F4F4",
"U.	c #F2F3F2",
"V.	c #BEBDBE",
"W.	c #ECEDED",
"X.	c #606060",
"Y.	c #3D3D3D",
"Z.	c #676767",
"`.	c #545454",
" +	c #F7F7F7",
".+	c #F6F6F6",
"++	c #F3F4F3",
"@+	c #F3F3F2",
"#+	c #ECEBEB",
"$+	c #808080",
"%+	c #000000",
"&+	c #EEEEEF",
"*+	c #EBEAEA",
"=+	c #EDEDEE",
"-+	c #898989",
";+	c #717171",
">+	c #646464",
",+	c #F9F9F9",
"'+	c #F8F8F7",
")+	c #F4F5F5",
"!+	c #C0C1C0",
"~+	c #939394",
"{+	c #A0A0A0",
"]+	c #565656",
"^+	c #FAFAFA",
"/+	c #F8F8F8",
"(+	c #F7F7F6",
"_+	c #F0EFF0",
":+	c #EDECEC",
"<+	c #F2F2F1",
"[+	c #ADADAD",
"}+	c #6A6A6A",
"|+	c #ACACAC",
"1+	c #D7D7D8",
"2+	c #FBFBFB",
"3+	c #EEEFEF",
"4+	c #ECECEB",
"5+	c #A5A5A5",
"6+	c #C8C8C9",
"7+	c #FCFCFC",
"8+	c #EFF0F0",
"9+	c #F2F2F3",
"0+	c #F5F5F6",
"a+	c #F6F7F6",
"b+	c #F9F8F9",
"c+	c #FDFDFD",
"d+	c #F9FAF9",
"e+	c #ECECED",
"f+	c #FCFBFB",
"g+	c #FAFAFB",
"h+	c #F2F1F2",
"i+	c #EBEBEC",
"j+	c #D5D4D5",
"k+	c #D4D3D3",
"l+	c #D1D1D2",
"m+	c #D0D1D0",
". . . . . . . . . . . . . . . . + @ # $ % % $ # @ + . . . . ",
". & * * * * * * * * * * * * * = - ; > , ' ' , > ; - = * & . ",
". ) ! ! ~ ~ ~ ~ ~ ~ ~ ~ ~ ~ ~ { ] ^ / ( _ _ ( / ^ { ~ ! ) . ",
". : < ) [ } | 1 1 2 3 3 3 4 5 6 7 ! { ^ ^ ^ { ~ 8 9 3 0 a . ",
". b [ | c 1 3 3 d d e f g h 7 ! ] / i j k $ l m ^ n o d p + ",
". a | 1 q r d f s t u 9 v w { / ( x y z A B C D E ^ w g A @ ",
". a 3 F d s G H I J h 7 ! ^ ( = K L M ) v 7 v N O P { v Q # ",
". p d s t H g g 9 R 8 ~ / _ ; S T U V W X Y 9 8 Z ` ^ w  .$ ",
". p s H g ..9 h +.w ~ @._ ~ #.$.3 %.&.*.=.-.;.7 >.>./ ,.'.$ ",
". p I g 9 h R 7 ).~ ( !./ ~.{.) h g g d p ].^./.(.A / ,.'.$ ",
". _.:.9 h v 7 w ~ ^ !.!.<.T [.9 g g g g g }.=.|.1.H / ,.2.# ",
". _.h 3.7 4.w ~ 5.!.6.7.8._.h g g g g g g [ 9.0.Y a.^ b.c.@ ",
". d.v 7 8 ,.e./ !.6.) 1.f.h g g g g g g g 9 (.g.( _ ] w h.+ ",
". d.7 8 ,.~ / !.6.7 i.j.h 9 g g g g g g h k.].B 6.l.m.n.o.. ",
". d.).w ~ ^ !.p./ $.q.s 9 g g g g g 9 h i r.$ / 6./ m s.A . ",
". A w ! ] _ p.!.t.{.) 9 g g g g g 9 h u.v.>.^ p.!.^ ~ w.x.. ",
". o.! y.( 6.p.z.A.B.h g g g g g 9 h C.r.u.!.p.6.( ] ~ ,.A . ",
". o.~ ^ D.p./.v.E.h g g g g g 9 v B F.2.G.G.p.!./ ] ~ H.A . ",
". I.{ ( 6.d i.J.^.K.g g g g 9 v L.M.Y N.N.G.6.( / ] ~ ! A . ",
". c.^ !.O.P.{.3 p Q.1 g g g h i R.A S.S.T.U.!.( / ^ { ~ V.. ",
". c.W.6.G.@ X.9 1 Q.Q.Y.Z.l ' `.K.S. +.+++@+!._ ( ^ #+{ o.. ",
". 2./ 6.G.$+%+d g , x o.f.R.*.X !. + +.+G.U.6.!.&+/ ^ *+o.. ",
". 2.=+6.G.-+%+%+x 9 9 s | ;+>+7  +,+'+.+)+G.p.!._ ( ^ ] o.. ",
". !+( 6.N.~+%+%+%+{+$.]+T O [  +^+,+/+(+S.N.p.6._+( :+] o.. ",
". 2.( <+N.[+%+%+%+R.}+~.|+1+/+2+2+^+,+ +.+N.G.6.!.3+/ 4+o.. ",
". 2.( 6.N., z 5+6+w N..+/+^+7+7+7+2+,+/+.+S.G.p.8+_ / ] o.. ",
". c.=+!.9+S.0+.+a+ +b+^+2+7+c+c+7+2+d+/+.+S.G.p.!._ / ^ o.. ",
". c.e+_ 6.G.N..+ +/+,+^+f+7+c+c+7+g+,+/+.+S.G.h+!._ / i+o.. ",
". _././.* * = = - - ; ; j+> > > j+; ; k+- = = l+* m+/.[._.. ",
". . . . . . . . . . . . . . . . . . . . . . . . . . . . . . "};
