/* XPM */
static char *zooAutoSave_0[] = {
/* columns rows colors chars-per-pixel */
"32 32 227 2",
"   c #180B03",
".  c #22150A",
"X  c #27190C",
"o  c #2A1405",
"O  c #2C190A",
"+  c #2B1C11",
"@  c #351B08",
"#  c #3A1B06",
"$  c #312217",
"%  c #322318",
"&  c #37281D",
"*  c #3C2613",
"=  c #3D2815",
"-  c #3B2A1B",
";  c #411E07",
":  c #462007",
">  c #442008",
",  c #4C2207",
"<  c #482309",
"1  c #402512",
"2  c #422914",
"3  c #422B18",
"4  c #4E2C14",
"5  c #482D18",
"6  c #4D321A",
"7  c #512507",
"8  c #542608",
"9  c #51290B",
"0  c #582708",
"q  c #5B2B0B",
"w  c #512D13",
"e  c #5B2E10",
"r  c #5F300E",
"t  c #523217",
"y  c #513218",
"u  c #5C3113",
"i  c #5A351A",
"p  c #5E3919",
"a  c #463321",
"s  c #453629",
"d  c #493421",
"f  c #4C3824",
"g  c #4D3A28",
"h  c #573B23",
"j  c #583720",
"k  c #5D3920",
"l  c #583F29",
"z  c #632F0C",
"x  c #63310E",
"c  c #6C320B",
"v  c #643411",
"b  c #663815",
"n  c #663A19",
"m  c #693410",
"M  c #693915",
"N  c #6B3D1A",
"B  c #73340B",
"V  c #79360B",
"C  c #7C380C",
"Z  c #733B13",
"A  c #783D13",
"S  c #5F432C",
"D  c #524233",
"F  c #584533",
"G  c #69401E",
"H  c #73421B",
"J  c #79451C",
"K  c #65452C",
"L  c #6D4323",
"P  c #634C35",
"I  c #694F39",
"U  c #6C5138",
"Y  c #744520",
"T  c #774922",
"R  c #7A4921",
"E  c #794D29",
"W  c #7C512B",
"Q  c #745135",
"!  c #7E5435",
"~  c #7F5838",
"^  c #64594A",
"/  c #6E5546",
"(  c #755C4B",
")  c #7E5E44",
"_  c #6E624F",
"`  c #79624C",
"'  c #706454",
"]  c #736959",
"[  c #7C6853",
"{  c #823A0C",
"}  c #883E0D",
"|  c #823F10",
" . c #8C410F",
".. c #834214",
"X. c #80471C",
"o. c #85491C",
"O. c #8B4414",
"+. c #8A4718",
"@. c #8F4816",
"#. c #8B4B1B",
"$. c #914512",
"%. c #934915",
"&. c #924D1B",
"*. c #9B4B14",
"=. c #9B4E19",
"-. c #97521E",
";. c #9A521D",
":. c #844C21",
">. c #8B4E21",
",. c #81542A",
"<. c #8C5123",
"1. c #8C592C",
"2. c #825A3A",
"3. c #8B5D32",
"4. c #935423",
"5. c #91552A",
"6. c #935826",
"7. c #915929",
"8. c #9A5521",
"9. c #9B5925",
"0. c #9B5C2A",
"q. c #955F34",
"w. c #8F6336",
"e. c #936335",
"r. c #996737",
"t. c #9A653E",
"y. c #9B6938",
"u. c #A24C12",
"i. c #AA4E11",
"p. c #A55117",
"a. c #A4531A",
"s. c #A8531A",
"d. c #AD581C",
"f. c #B35718",
"g. c #B35A1B",
"h. c #BB5B19",
"j. c #A25923",
"k. c #A05C28",
"l. c #AB5D22",
"z. c #B45D20",
"x. c #A4612B",
"c. c #AE672E",
"v. c #AF682E",
"b. c #B26024",
"n. c #B26529",
"m. c #B56A2E",
"M. c #BB6222",
"N. c #BB6B2C",
"B. c #B46D33",
"V. c #BB6E31",
"C. c #B4733A",
"Z. c #BF7334",
"A. c #BF783B",
"S. c #876144",
"D. c #806048",
"F. c #8C684E",
"G. c #806B54",
"H. c #826E59",
"J. c #83705C",
"K. c #936B43",
"L. c #916F57",
"P. c #977459",
"I. c #826F62",
"U. c #867364",
"Y. c #86776F",
"T. c #8A7E75",
"R. c #A56F4A",
"E. c #A6714B",
"W. c #A9724A",
"Q. c #A77C59",
"!. c #AC7D5E",
"~. c #C25E1A",
"^. c #C5601A",
"/. c #CA621A",
"(. c #D3641A",
"). c #D9681B",
"_. c #C36521",
"`. c #C36C2A",
"'. c #C96620",
"]. c #CF6820",
"[. c #CB6D28",
"{. c #C77533",
"}. c #C47A3B",
"|. c #C97532",
" X c #D46B21",
".X c #D86D22",
"XX c #D4732B",
"oX c #D17B36",
"OX c #908277",
"+X c #90867F",
"@X c #988272",
"#X c #A58975",
"$X c #AA8C72",
"%X c #B28B6E",
"&X c #CF803D",
"*X c #978E88",
"=X c #9B9283",
"-X c #A19787",
";X c #A19888",
":X c #AF9584",
">X c #A89F97",
",X c #B39B87",
"<X c #B49B88",
"1X c #BE9E86",
"2X c #A7A293",
"3X c #A9A295",
"4X c #ACA698",
"5X c #ADA89B",
"6X c #B3A79D",
"7X c #B0AB9E",
"8X c #B3AEA1",
"9X c #B6B2A4",
"0X c #B8B5A6",
"qX c #BAB6AB",
"wX c #BBB9AC",
"eX c #BFBDB0",
"rX c #CDBBAC",
"tX c #C0BEB2",
"yX c #C3C1B5",
"uX c #C7C6BA",
"iX c #CFC0B4",
"pX c #CAC9BE",
"aX c #CECEC2",
"sX c #D7CBC0",
"dX c #D0D0C6",
"fX c #D2D2C8",
"gX c #DFD4CC",
/* pixels */
"fXdXfXaXaXpXuXyXtXtXwXwXwXqXqXqXqXwXwXqXqXwXeXyXyXuXpXaXaXdXdXfX",
"dXdXaXpXuXeXwX9X8X5X4X3X2X3X2X2X2X2X2X2X4X4X5X7X0XwXtXuXpXaXdXdX",
"dXaXpXyXeX8X4X=X^ s & $ + + + + + + + + % - s ^ =X4X7XwXyXaXaXdX",
"aXaXyXqX4X' .   o # # ; ; : : , < < < < : # # o   . ' 5XwXyXpXaX",
"aXuXwX5XD o 9 q q e q e q q r u v v v v u x r r r 0 O D 5XwXuXaX",
"pXtX8X] X r v v n F.#X:X,X#XL.S.~ ! W G H N N N m b x O ] 8XtXuX",
"uXwX5X+ e M ~ <XsXgXiX<XP.2.W E E W u > J T H H H H H r + 5XwXuX",
"tX0X=XO N Y @X>XqXrX$XQ L ,.G G W L > : n ,.,.H b N R H + =X0XyX",
"tX8X_ * Y < T.*XY.( t.> < 3.> , L : , , : e.n , , : , X.5 _ 8XyX",
"tX8XF t T ) >X5X/ ; w.: : e., , H E , , J ,., 7 1.9 7 b p F 7XwX",
"wX4Xf p Y ( *XU.i , e., , e., , T r., 7 r.T 7 7 y.b 7 x N g 5XwX",
"wX4Xa n e U.OX) 9 , r., 7 x 8 7 T y.8 7 J e.7 0 J q 0 H G 6 5XwX",
"wX4X- M Z U.( i 9 7 1.b 7 7 q 8 J 0.x 9 0 J :.q 0 q Z -.H 3 4XqX",
"qX3X= b X.1XQ.q.5.5.4.7.6.6.6.6.6.4.8.8.8.8.9.9.9.9.-.-.A 3 2XqX",
"qX4X* x ..%Xt.<.#.#.#.#.#.#.-.#.&.&.&.-.-.;.;.;.;.;.-.%.C 1 2XwX",
"qX2X* x ..!.5.#.+.+.+.@.%.%.@.&.%.%.%.%.%.*.*.=.*.*.*.*.C 1 2XwX",
"qX>X* c } R.4.+.@.O.O.%.%.%.%.%.%.*.*.*.;.*.*.*.=.u.u.u.C 1 2XwX",
"qX>X* m } R.5.&.%.%.%.&.%.=.=.*.=.=.=.=.a.s.s.s.s.s.p.=...1 2XwX",
"qX3X3 Z &.E.k.8.8.;.;.a.j.j.j.j.l.j.l.d.l.l.l.b.b.b.l.d.O.5 4XwX",
"wX3X5 A 8.R.:.:.0.x.x.0.+.#.9.c.9.-.-.m.-.-.n.N.;.;.b.M.%.6 2XwX",
"wX4Xf J o.Y v z z 6.6.c c c c &.9.B B B.B B v.V V V V =.8.h 4XwX",
"wX5Xl J Z Y m X.#.C.x.+.o.X.B B A.B B j.V @...C +.a.C C 4.S 7XwX",
"tX5XP H 9.Y m c c J 4.c B V B B }.&.V C C B.C { C ..C { <.U 7XyX",
"yX8X[ p +.Z 4.+.B B B B +.{ V V }.Z.C C { oX=.{ @.d. .;.H G.7XyX",
"tX0X-X= &.B c c B 9.&.V V O.C C {.|...{ ;.oX{.@. .{  .g.4 =XqXyX",
"pXwX4X2 ;.l.n.n.m.N.N.N.N.`.`.`.`.[.[.[.[.XXXXXXXXXXXX_.t 5XeXuX",
"pXtX8XJ.w d.g.g.M.M.M.M._._._._././.(.].(. X.X.X.X.X.Xb J.9XtXpX",
"aXuXwX5XI 9 *.f.g.h.h.h.~.^.~.^././././.(.).).).).^.x U 5XeXuXpX",
"aXaXtXqX5XH.* # 0 C  .$.*.*.u.u.u.u.i.i.*.*. .c > < J.5XqXuXpXpX",
"fXaXaXtXwX8X4X=X` K i 6 4 4 4 4 4 4 w t i i K ` =X4X7XwXyXpXaXfX",
"fXaXaXaXuXtXqX0X7X5X4X2X2X2X2X2X2X2X2X2X4X5X5X8X0XwXyXuXpXpXfXfX",
"fXfXfXaXaXuXpXtXyXtXwXwXwX0XqXqXqXwXqXwXwXwXwXyXyXuXpXpXdXdXfXfX"
};
