/* XPM */
static char * zooKeymaster_xpm[] = {
"32 32 789 2",
"  	c None",
". 	c #D4D0C8",
"+ 	c #9497B7",
"@ 	c #8A8EB5",
"# 	c #8186B3",
"$ 	c #8F93B6",
"% 	c #A1A2BB",
"& 	c #C7C4C4",
"* 	c #A9AABD",
"= 	c #858490",
"- 	c #B9AC8E",
"; 	c #F7E5BB",
"> 	c #F6E5B4",
", 	c #FBEABF",
"' 	c #FCF0C8",
") 	c #EFDEB7",
"! 	c #CEB891",
"~ 	c #C6AF8A",
"{ 	c #B7A07B",
"] 	c #99805A",
"^ 	c #B49A75",
"/ 	c #BA9F7B",
"( 	c #DCC5A6",
"_ 	c #A89373",
": 	c #75603D",
"< 	c #77674A",
"[ 	c #6A5D41",
"} 	c #5B5033",
"| 	c #776E56",
"1 	c #766955",
"2 	c #675445",
"3 	c #655147",
"4 	c #5A4C44",
"5 	c #5C5651",
"6 	c #797B90",
"7 	c #B4B4C0",
"8 	c #B5B4C0",
"9 	c #8B8C9C",
"0 	c #6D6140",
"a 	c #AE9E76",
"b 	c #F1E3B5",
"c 	c #FBF3C6",
"d 	c #FEF5CB",
"e 	c #FBEDC4",
"f 	c #E2D0AA",
"g 	c #C3AF8C",
"h 	c #CCB79B",
"i 	c #947D63",
"j 	c #614427",
"k 	c #896F52",
"l 	c #6E502A",
"m 	c #816949",
"n 	c #735E42",
"o 	c #705F47",
"p 	c #473821",
"q 	c #6B604F",
"r 	c #47402E",
"s 	c #4A4634",
"t 	c #605645",
"u 	c #645549",
"v 	c #5A493F",
"w 	c #554940",
"x 	c #372E27",
"y 	c #31342B",
"z 	c #8D93A5",
"A 	c #C3C1C3",
"B 	c #8E91B6",
"C 	c #7D7A6C",
"D 	c #625536",
"E 	c #B5A785",
"F 	c #F2EAC5",
"G 	c #CABE92",
"H 	c #BFB38C",
"I 	c #AC9F79",
"J 	c #7A6948",
"K 	c #584526",
"L 	c #4E3724",
"M 	c #321C0E",
"N 	c #2D1309",
"O 	c #5A3F2F",
"P 	c #371801",
"Q 	c #594229",
"R 	c #503C26",
"S 	c #3A2718",
"T 	c #160F09",
"U 	c #29251F",
"V 	c #38372D",
"W 	c #0C0E07",
"X 	c #2E281B",
"Y 	c #322218",
"Z 	c #352117",
"` 	c #51443B",
" .	c #3C3328",
"..	c #15140A",
"+.	c #768076",
"@.	c #9EA0BA",
"#.	c #555040",
"$.	c #61533E",
"%.	c #B3A38E",
"&.	c #9E8F73",
"*.	c #7A6D4A",
"=.	c #928B70",
"-.	c #8F8A73",
";.	c #585138",
">.	c #2A2110",
",.	c #2C2113",
"'.	c #281C14",
").	c #060101",
"!.	c #392215",
"~.	c #4C3120",
"{.	c #5A4635",
"].	c #311C0E",
"^.	c #190A03",
"/.	c #2F2721",
"(.	c #030102",
"_.	c #3A3C36",
":.	c #2D3629",
"<.	c #1D1C14",
"[.	c #342820",
"}.	c #311D15",
"|.	c #3D2D25",
"1.	c #3B3126",
"2.	c #1B1A12",
"3.	c #636E60",
"4.	c #858AB4",
"5.	c #585142",
"6.	c #615042",
"7.	c #6A5645",
"8.	c #756352",
"9.	c #6B5D49",
"0.	c #737164",
"a.	c #57584C",
"b.	c #34342C",
"c.	c #010101",
"d.	c #0F0F0E",
"e.	c #181817",
"f.	c #030302",
"g.	c #2D2117",
"h.	c #725E51",
"i.	c #7B6B61",
"j.	c #1F0D0A",
"k.	c #0E0300",
"l.	c #24201F",
"m.	c #171417",
"n.	c #424743",
"o.	c #333C33",
"p.	c #21201B",
"q.	c #1D1712",
"r.	c #3A2B23",
"s.	c #41322A",
"t.	c #423629",
"u.	c #18150A",
"v.	c #5A635A",
"w.	c #5D5346",
"x.	c #4F372A",
"y.	c #C8B4A8",
"z.	c #715C48",
"A.	c #685640",
"B.	c #676655",
"C.	c #43453A",
"D.	c #343431",
"E.	c #191511",
"F.	c #1B1510",
"G.	c #0A0603",
"H.	c #2D200D",
"I.	c #6C5D42",
"J.	c #8A7F6E",
"K.	c #261C14",
"L.	c #120F07",
"M.	c #090A09",
"N.	c #384039",
"O.	c #223020",
"P.	c #363F2F",
"Q.	c #0A0903",
"R.	c #2C1D13",
"S.	c #351C14",
"T.	c #503C33",
"U.	c #413225",
"V.	c #1B1308",
"W.	c #323937",
"X.	c #463E2E",
"Y.	c #453128",
"Z.	c #EDDFD1",
"`.	c #897358",
" +	c #796547",
".+	c #433C21",
"++	c #3B3730",
"@+	c #383531",
"#+	c #0C0200",
"$+	c #281A16",
"%+	c #1E0E09",
"&+	c #271C15",
"*+	c #5F4E2C",
"=+	c #C7BC9D",
"-+	c #A1967E",
";+	c #3C2D1B",
">+	c #0D0701",
",+	c #090A08",
"'+	c #464941",
")+	c #363B2F",
"!+	c #272612",
"~+	c #3D3326",
"{+	c #382316",
"]+	c #4C342B",
"^+	c #635048",
"/+	c #45362A",
"(+	c #1A150B",
"_+	c #242820",
":+	c #8489B3",
"<+	c #403922",
"[+	c #453222",
"}+	c #C6B49A",
"|+	c #CCB99A",
"1+	c #816D41",
"2+	c #5C4E2E",
"3+	c #4C3D31",
"4+	c #443630",
"5+	c #190301",
"6+	c #402722",
"7+	c #2B0E06",
"8+	c #4B321E",
"9+	c #AB9874",
"0+	c #F6EAC7",
"a+	c #CBBB9E",
"b+	c #68533F",
"c+	c #3D2A1E",
"d+	c #160704",
"e+	c #140806",
"f+	c #32241B",
"g+	c #1F0802",
"h+	c #30180C",
"i+	c #3E2516",
"j+	c #584236",
"k+	c #5E4F42",
"l+	c #4E4233",
"m+	c #1C1106",
"n+	c #544434",
"o+	c #473A20",
"p+	c #726141",
"q+	c #EDE1C3",
"r+	c #CEBF96",
"s+	c #AB9769",
"t+	c #9B8A6D",
"u+	c #735E46",
"v+	c #5D4135",
"w+	c #351008",
"x+	c #38140A",
"y+	c #4F2D1C",
"z+	c #6E4F39",
"A+	c #F5EBCB",
"B+	c #F8EBC3",
"C+	c #CAB495",
"D+	c #806753",
"E+	c #4E3227",
"F+	c #270A08",
"G+	c #190201",
"H+	c #381913",
"I+	c #2E0601",
"J+	c #2A0702",
"K+	c #442719",
"L+	c #553F33",
"M+	c #6D5E52",
"N+	c #564A3B",
"O+	c #331B0A",
"P+	c #865233",
"Q+	c #8488B3",
"R+	c #C7B69B",
"S+	c #958159",
"T+	c #F1E0BB",
"U+	c #F8E9BE",
"V+	c #DBC89B",
"W+	c #C4B191",
"X+	c #BFAC95",
"Y+	c #6A4E3A",
"Z+	c #482612",
"`+	c #54311C",
" @	c #71513B",
".@	c #B89C85",
"+@	c #E0CAA9",
"@@	c #B8A27B",
"#@	c #725431",
"$@	c #5C3B23",
"%@	c #5C3D33",
"&@	c #401A16",
"*@	c #2D0A08",
"=@	c #330A03",
"-@	c #340301",
";@	c #3F1707",
">@	c #4C2F1F",
",@	c #655143",
"'@	c #705D50",
")@	c #584434",
"!@	c #532A14",
"~@	c #AB5A3A",
"{@	c #BE9A76",
"]@	c #AD9267",
"^@	c #F7E6BE",
"/@	c #F1DFB4",
"(@	c #F1DEB3",
"_@	c #C2B08B",
":@	c #A89576",
"<@	c #8F785D",
"[@	c #7E654E",
"}@	c #7D6049",
"|@	c #84674C",
"1@	c #AD9273",
"2@	c #5C3E14",
"3@	c #4C2D0A",
"4@	c #4B2A11",
"5@	c #431D0E",
"6@	c #593630",
"7@	c #461F1A",
"8@	c #40180F",
"9@	c #3A0D03",
"0@	c #3D1001",
"a@	c #3D1704",
"b@	c #472B17",
"c@	c #624C3A",
"d@	c #6D5546",
"e@	c #634334",
"f@	c #60260E",
"g@	c #AE512C",
"h@	c #A97547",
"i@	c #9B7643",
"j@	c #E9D2A8",
"k@	c #E5D2A8",
"l@	c #CDBA8F",
"m@	c #B0A077",
"n@	c #8E7E56",
"o@	c #BFAD90",
"p@	c #CEBBA5",
"q@	c #B6A088",
"r@	c #957C5C",
"s@	c #5C3B20",
"t@	c #2E0E00",
"u@	c #311004",
"v@	c #4C2E23",
"w@	c #340C0A",
"x@	c #361211",
"y@	c #370F07",
"z@	c #381306",
"A@	c #421D08",
"B@	c #48230C",
"C@	c #3C1B03",
"D@	c #472F16",
"E@	c #533B25",
"F@	c #664837",
"G@	c #63382A",
"H@	c #7B3E2A",
"I@	c #9D4A1C",
"J@	c #E3B695",
"K@	c #A27E4E",
"L@	c #D4CA9B",
"M@	c #CEBE94",
"N@	c #BB9373",
"O@	c #A08565",
"P@	c #A79672",
"Q@	c #B9A881",
"R@	c #D6C59D",
"S@	c #BDAB84",
"T@	c #8E7951",
"U@	c #715631",
"V@	c #270800",
"W@	c #2D1105",
"X@	c #3F2418",
"Y@	c #2D110D",
"Z@	c #311208",
"`@	c #402214",
" #	c #412412",
".#	c #4E311E",
"+#	c #5A3E2B",
"@#	c #513E26",
"##	c #3C3011",
"$#	c #45381C",
"%#	c #604A36",
"&#	c #5C3222",
"*#	c #875345",
"=#	c #814423",
"-#	c #C88C70",
";#	c #A57D52",
">#	c #B2AD7A",
",#	c #BEB188",
"'#	c #B98B70",
")#	c #937054",
"!#	c #B39F7D",
"~#	c #D3C196",
"{#	c #C8B885",
"]#	c #C6B584",
"^#	c #CFBC99",
"/#	c #B39D85",
"(#	c #684F3F",
"_#	c #533E2E",
":#	c #260B02",
"<#	c #2A0D01",
"[#	c #3D2514",
"}#	c #483221",
"|#	c #574334",
"1#	c #5D4334",
"2#	c #604533",
"3#	c #574831",
"4#	c #3E3A1B",
"5#	c #454023",
"6#	c #594731",
"7#	c #5F3928",
"8#	c #7A4C40",
"9#	c #7F5243",
"0#	c #F1CBB7",
"a#	c #E1C2A4",
"b#	c #BBA97F",
"c#	c #BFB28A",
"d#	c #B19474",
"e#	c #9E8364",
"f#	c #CEBB99",
"g#	c #EADAB1",
"h#	c #DACA9B",
"i#	c #DAC99E",
"j#	c #DBC8A9",
"k#	c #B7A28C",
"l#	c #A38E80",
"m#	c #6F5A4E",
"n#	c #1C0300",
"o#	c #2E1304",
"p#	c #4B3626",
"q#	c #513B2C",
"r#	c #574233",
"s#	c #4B2D1E",
"t#	c #4B2817",
"u#	c #56402D",
"v#	c #4C4029",
"w#	c #4D402A",
"x#	c #58402E",
"y#	c #613A2E",
"z#	c #623126",
"A#	c #6F483B",
"B#	c #F0D6C4",
"C#	c #EBD0B8",
"D#	c #D2B693",
"E#	c #BEB18A",
"F#	c #AB9E78",
"G#	c #B3A07D",
"H#	c #D0BE9A",
"I#	c #EDDCB5",
"J#	c #D9C89F",
"K#	c #DECCA8",
"L#	c #C1AD90",
"M#	c #937C66",
"N#	c #917A6D",
"O#	c #50372E",
"P#	c #280700",
"Q#	c #432619",
"R#	c #3F2211",
"S#	c #422514",
"T#	c #4D2C20",
"U#	c #461D11",
"V#	c #482819",
"W#	c #51392B",
"X#	c #584536",
"Y#	c #5C4235",
"Z#	c #552F25",
"`#	c #50231A",
" $	c #6B4F44",
".$	c #E3C1AE",
"+$	c #966144",
"@$	c #AC8765",
"#$	c #C8B996",
"$$	c #AFAC84",
"%$	c #B0A279",
"&$	c #CCBA94",
"*$	c #DCCAA4",
"=$	c #D0BE99",
"-$	c #8B7451",
";$	c #5D4223",
">$	c #543422",
",$	c #381508",
"'$	c #240605",
")$	c #200505",
"!$	c #230504",
"~$	c #290302",
"{$	c #220201",
"]$	c #220100",
"^$	c #2B0201",
"/$	c #390B04",
"($	c #432015",
"_$	c #4B3023",
":$	c #604A3F",
"<$	c #594035",
"[$	c #57392F",
"}$	c #5D4037",
"|$	c #73635A",
"1$	c #B09F8A",
"2$	c #DBC0A7",
"3$	c #CCAF91",
"4$	c #C5B392",
"5$	c #B4AF8A",
"6$	c #AEA075",
"7$	c #C3B188",
"8$	c #CCB994",
"9$	c #917B56",
"0$	c #341506",
"a$	c #321307",
"b$	c #63463B",
"c$	c #6D4F44",
"d$	c #896F66",
"e$	c #6F5247",
"f$	c #543528",
"g$	c #4C2B1F",
"h$	c #422011",
"i$	c #320D05",
"j$	c #240402",
"k$	c #310C03",
"l$	c #4D3226",
"m$	c #4E362B",
"n$	c #59463A",
"o$	c #514032",
"p$	c #59483A",
"q$	c #7C7066",
"r$	c #76726B",
"s$	c #A5A78F",
"t$	c #CCC3A7",
"u$	c #937D5A",
"v$	c #CCB89A",
"w$	c #A99B78",
"x$	c #AD9E71",
"y$	c #C8B68D",
"z$	c #D8C6A4",
"A$	c #41220F",
"B$	c #816854",
"C$	c #9D8477",
"D$	c #6F5246",
"E$	c #44201A",
"F$	c #38160C",
"G$	c #47251A",
"H$	c #2E0600",
"I$	c #340A02",
"J$	c #3C1509",
"K$	c #39180C",
"L$	c #270C04",
"M$	c #362019",
"N$	c #58463D",
"O$	c #5C4F44",
"P$	c #52483C",
"Q$	c #8D897D",
"R$	c #8A897E",
"S$	c #70736D",
"T$	c #9CA691",
"U$	c #A6AA91",
"V$	c #948C71",
"W$	c #B5A68C",
"X$	c #B5A88A",
"Y$	c #9F926A",
"Z$	c #C9BB97",
"`$	c #B5A583",
" %	c #624C27",
".%	c #846D54",
"+%	c #715747",
"@%	c #5B3A31",
"#%	c #48261F",
"$%	c #260100",
"%%	c #2B0301",
"&%	c #270401",
"*%	c #290300",
"=%	c #220000",
"-%	c #280200",
";%	c #2D0901",
">%	c #210500",
",%	c #382318",
"'%	c #5B4E40",
")%	c #504736",
"!%	c #595544",
"~%	c #7E7E72",
"{%	c #84877D",
"]%	c #717971",
"^%	c #9BA294",
"/%	c #939B8D",
"(%	c #828775",
"_%	c #A2A18C",
":%	c #958F74",
"<%	c #7D7459",
"[%	c #8A8164",
"}%	c #716341",
"|%	c #55421C",
"1%	c #715A40",
"2%	c #351309",
"3%	c #2D0406",
"4%	c #331012",
"5%	c #1D0000",
"6%	c #1C0000",
"7%	c #190000",
"8%	c #260201",
"9%	c #2B0804",
"0%	c #4E392D",
"a%	c #5C503D",
"b%	c #454027",
"c%	c #585643",
"d%	c #7A7A6E",
"e%	c #8C8D86",
"f%	c #757D73",
"g%	c #8B9486",
"h%	c #8A8F7E",
"i%	c #8B8A74",
"j%	c #6E674A",
"k%	c #615738",
"l%	c #635638",
"m%	c #453310",
"n%	c #776645",
"o%	c #4C321C",
"p%	c #2C0800",
"q%	c #240101",
"r%	c #320E0D",
"s%	c #371B16",
"t%	c #290E0B",
"u%	c #170000",
"v%	c #210803",
"w%	c #2B0D09",
"x%	c #180301",
"y%	c #1F0505",
"z%	c #29100D",
"A%	c #4A3C2E",
"B%	c #544C37",
"C%	c #4E4C34",
"D%	c #454731",
"E%	c #73786A",
"F%	c #848981",
"G%	c #757E74",
"H%	c #9BA295",
"I%	c #888C7C",
"J%	c #92917C",
"K%	c #979075",
"L%	c #5B4D28",
"M%	c #6A5938",
"N%	c #8C7C61",
"O%	c #9E8E77",
"P%	c #4A321D",
"Q%	c #33150E",
"R%	c #3F211B",
"S%	c #4C332C",
"T%	c #371C13",
"U%	c #2A0B07",
"V%	c #210402",
"W%	c #361C14",
"X%	c #32160D",
"Y%	c #2D140D",
"Z%	c #291A15",
"`%	c #4F4436",
" &	c #625B47",
".&	c #47442B",
"+&	c #474B34",
"@&	c #747D6E",
"#&	c #798479",
"$&	c #727C71",
"%&	c #9EA598",
"&&	c #8A9385",
"*&	c #878C7B",
"=&	c #92917B",
"-&	c #CBC5AD",
";&	c #B1A284",
">&	c #584221",
",&	c #96846C",
"'&	c #84735E",
")&	c #624E3C",
"!&	c #634E42",
"~&	c #79645B",
"{&	c #4B3127",
"]&	c #220401",
"^&	c #1F0100",
"/&	c #33170A",
"(&	c #220803",
"_&	c #270A04",
":&	c #32150B",
"<&	c #321E11",
"[&	c #41362E",
"}&	c #6B5F53",
"|&	c #635644",
"1&	c #433922",
"2&	c #4F4F3A",
"3&	c #697263",
"4&	c #778579",
"5&	c #747E73",
"6&	c #A4AB9E",
"7&	c #858E80",
"8&	c #868A7A",
"9&	c #95947E",
"0&	c #C0B9A2",
"a&	c #D6C8AC",
"b&	c #7F6848",
"c&	c #634C31",
"d&	c #543C29",
"e&	c #584435",
"f&	c #625043",
"g&	c #5D4C3C",
"h&	c #290F07",
"i&	c #280B00",
"j&	c #2F1307",
"k&	c #2D1307",
"l&	c #2B1006",
"m&	c #2C1003",
"n&	c #32170A",
"o&	c #4C3A2E",
"p&	c #61554F",
"q&	c #574337",
"r&	c #3E2115",
"s&	c #3A230E",
"t&	c #49402D",
"u&	c #797E70",
"v&	c #7D897E",
"w&	c #717B70",
"x&	c #A1A89E",
"y&	c #80897B",
"z&	c #878B7A",
"A&	c #969680",
"B&	c #ADA68E",
"C&	c #D3C3A5",
"D&	c #C3B093",
"E&	c #593F23",
"F&	c #5D4538",
"G&	c #574237",
"H&	c #4D3C2D",
"I&	c #463721",
"J&	c #38230F",
"K&	c #2E1206",
"L&	c #442D1C",
"M&	c #3B2310",
"N&	c #3B2210",
"O&	c #240700",
"P&	c #361F10",
"Q&	c #29100B",
"R&	c #2A0301",
"S&	c #3D0E02",
"T&	c #472011",
"U&	c #584436",
"V&	c #BEBDB4",
"W&	c #81887F",
"X&	c #7D857F",
"Y&	c #9398AA",
"Z&	c #899183",
"`&	c #888C7D",
" *	c #939480",
".*	c #9E9982",
"+*	c #CCBD9E",
"@*	c #AE9B7A",
"#*	c #7C654C",
"$*	c #533826",
"%*	c #5C4538",
"&*	c #5F4E3F",
"**	c #564833",
"=*	c #554530",
"-*	c #5C4837",
";*	c #564230",
">*	c #47301C",
",*	c #3E2510",
"'*	c #2C0E01",
")*	c #351905",
"!*	c #2D1204",
"~*	c #2C0E0A",
"{*	c #280000",
"]*	c #380401",
"^*	c #3E1208",
"/*	c #563F31",
"(*	c #C7C7BD",
"_*	c #737A6F",
":*	c #898EA1",
"<*	c #C2C0C3",
"[*	c #8F92A5",
"}*	c #8B8E84",
"|*	c #8F9284",
"1*	c #969888",
"2*	c #C5BE9C",
"3*	c #B6A880",
"4*	c #A28D6C",
"5*	c #644629",
"6*	c #60432B",
"7*	c #6C5343",
"8*	c #665343",
"9*	c #645545",
"0*	c #574838",
"a*	c #523F30",
"b*	c #473020",
"c*	c #422515",
"d*	c #341301",
"e*	c #3A1807",
"f*	c #230400",
"g*	c #230100",
"h*	c #36100A",
"i*	c #39170E",
"j*	c #5F5145",
"k*	c #ADB1A7",
"l*	c #83899B",
"m*	c #9C9EB9",
"n*	c #8B8FB5",
". . . . . . . . . . . . . . . . . . . . . . . . . . . . . . . . ",
". . . . + @ # # # # # # # # # # # # # # # # # # # # $ % & . . . ",
". . * = - ; > , ' ) ! ~ { ] ^ / ( _ : < [ } | 1 2 3 4 5 6 7 . . ",
". 8 9 0 a b c d e f g h i j k l m n o p q r s t u v w x y z A . ",
". B C D E F G H I J K L M N O P Q R S T U V W X Y Z `  ...+.@.. ",
". @ #.$.%.&.*.=.-.;.>.,.'.).!.~.{.].^./.(._.:.<.[.}.|.1.2.3.@ . ",
". 4.5.6.7.8.9.0.a.b.c.d.e.f.g.h.i.j.k.l.m.n.o.p.q.r.s.t.u.v.4.. ",
". 4.w.x.y.z.A.B.C.D.f.E.F.G.H.I.J.K.L.M.N.O.P.Q.R.S.T.U.V.W.4.. ",
". 4.X.Y.Z.`. +.+++@+#+$+%+&+*+=+-+;+>+,+'+)+!+~+{+]+^+/+(+_+4.. ",
". :+<+[+}+|+1+2+3+4+5+6+7+8+9+0+a+b+c+d+e+f+g+h+i+j+k+l+m+n+4.. ",
". :+o+p+q+r+s+t+u+v+w+x+y+z+A+B+C+D+E+F+G+H+I+J+K+L+M+N+O+P+4.. ",
". Q+R+S+T+U+V+W+X+Y+Z+`+ @.@+@@@#@$@%@&@*@=@-@;@>@,@'@)@!@~@4.. ",
". Q+{@]@^@/@(@_@:@<@[@}@|@1@2@3@4@5@6@7@8@9@0@a@b@c@d@e@f@g@4.. ",
". 4.h@i@j@k@l@m@n@o@p@q@r@s@t@u@v@w@x@y@z@A@B@C@D@E@F@G@H@I@4.. ",
". 4.J@K@L@M@N@O@P@Q@R@S@T@U@V@W@X@Y@Z@`@ #.#+#@###$#%#&#*#=#4.. ",
". 4.-#;#>#,#'#)#!#~#{#]#^#/#(#_#:#<#[#}#|#1#2#3#4#5#6#7#8#9#4.. ",
". 4.0#a#b#c#d#e#f#g#h#i#j#k#l#m#n#o#p#q#r#s#t#u#v#w#x#y#z#A#4.. ",
". 4.B#C#D#E#F#G#H#I#J#K#L#M#N#O#P#P#Q#R#S#T#U#V#W#X#Y#Z#`# $4.. ",
". 4..$+$@$#$$$%$&$*$=$-$;$>$,$'$)$!$~${$]$^$/$($_$:$<$[$}$|$4.. ",
". 4.1$2$3$4$5$6$7$8$9$0$a$b$c$d$e$f$g$h$i$j$k$l$m$n$o$p$q$r$4.. ",
". 4.s$t$u$v$w$x$y$z$m A$B$C$D$E$F$G$H$I$J$K$L$M$N$O$P$Q$R$S$4.. ",
". 4.T$U$V$W$X$Y$Z$`$ %.%+%@%#%$%%%&%*%=%-%;%>%,%'%)%!%~%{%]%4.. ",
". 4.^%/%(%_%:%<%[%}%|%1%2%3%4%5%5%6%7%6%5%8%9%0%a%b%c%d%e%f%4.. ",
". 4.^%g%h%i%j%k%l%m%n%o%p%q%r%s%t%u%v%w%x%y%z%A%B%C%D%E%F%G%4.. ",
". 4.H%g%I%J%K%L%M%N%O%P%Q%R%S%T%U%V%W%W%X%Y%Z%`% &.&+&@&#&$&4.. ",
". 4.%&&&*&=&-&;&>&,&'&)&!&~&{&]&^&/&(&_&:&<&[&}&|&1&2&3&4&5&4.. ",
". @ 6&7&8&9&0&a&b&c&d&e&f&g&h&i&j&k&l&m&n&o&p&q&r&s&t&u&v&w&@ . ",
". @.x&y&z&A&B&C&D&E&F&G&H&I&J&K&L&M&N&O&N&P&Q&R&S&T&U&V&W&X&@.. ",
". A Y&Z&`& *.*+*@*#*$*%*&***=*-*;*>*,*'*)*!*~*{*]*^*/*(*_*:*<*. ",
". . 7 [*}*|*1*2*3*4*5*6*7*8*9*0*a*b*c*d*e*a$f*g*h*i*j*k*l*7 . . ",
". . . & m*n*# # # # # # # # # # # # # # # # # # # # n*m*& . . . ",
". . . . . . . . . . . . . . . . . . . . . . . . . . . . . . . . "};
