/* XPM */
static char *CPSATTR_xpm[]={
"32 32 767 2",
"      c #5C1A1A",
" 0    c #762322",
" 1    c #812625",
" 2    c #812526",
" 3    c #802724",
" 4    c #7F2624",
" 5    c #7E2523",
" 6    c #7E2624",
" 7    c #7B2422",
" 8    c #792322",
" 9    c #772321",
" a    c #752220",
" b    c #71221F",
" c    c #70221F",
" d    c #6D211F",
" e    c #6B201F",
" f    c #854928",
" g    c #AF8731",
" h    c #793920",
" i    c #631D1B",
" j    c #631C1B",
" k    c #611C1C",
" l    c #5F1C1C",
" m    c #5D1C1A",
" n    c #5C1B19",
" o    c #5B1B1A",
" p    c #5A1B19",
" q    c #591B1A",
" r    c #5A1918",
" s    c #5A191A",
" t    c #591A19",
" u    c #732121",
" v    c #7D2423",
" w    c #7E2424",
" x    c #7A2324",
" y    c #AE602B",
" z    c #DAB877",
" A    c #B27742",
" B    c #8B4929",
" C    c #874925",
" D    c #7F4C1D",
" E    c #7A4A1B",
" F    c #855A1E",
" G    c #7D5D16",
" H    c #7F6014",
" I    c #7F6411",
" J    c #8E7A19",
" K    c #E8C53E",
" L    c #B8913B",
" M    c #66241C",
" N    c #601C1B",
" O    c #5E1B1A",
" P    c #5D1C1B",
" Q    c #5D1A1A",
" R    c #5A1B18",
" S    c #5A1A19",
" T    c #581A18",
" U    c #581B19",
" V    c #581918",
" W    c #571A19",
" X    c #571919",
" Y    c #7A2422",
" Z    c #792323",
" &    c #792423",
"0     c #762321",
"00    c #BE6C15",
"01    c #EAAE19",
"02    c #D2B859",
"03    c #7E611F",
"04    c #81541D",
"05    c #7D4F1B",
"06    c #733A1C",
"07    c #773F1B",
"08    c #753A1A",
"09    c #6F301B",
"0a    c #641D1C",
"0b    c #6A2C1E",
"0c    c #A47B1B",
"0d    c #865426",
"0e    c #C0A155",
"0f    c #A38240",
"0g    c #68301C",
"0h    c #591A1A",
"0i    c #581A19",
"0j    c #571A18",
"0k    c #561A19",
"0l    c #561918",
"0m    c #551919",
"0n    c #551918",
"0o    c #561A18",
"0p    c #772320",
"0q    c #752222",
"0r    c #752121",
"0s    c #712321",
"0t    c #7B2B1F",
"0u    c #B8951D",
"0v    c #84571A",
"0w    c #AF9C65",
"0x    c #8E5648",
"0y    c #67201E",
"0z    c #661F1C",
"0A    c #641F1B",
"0B    c #773620",
"0C    c #884F2A",
"0D    c #976826",
"0E    c #8B591E",
"0F    c #7A4F19",
"0G    c #5A1C19",
"0H    c #794620",
"0I    c #B69D41",
"0J    c #AD9259",
"0K    c #6C391E",
"0L    c #551A17",
"0M    c #561919",
"0N    c #551818",
"0O    c #541A18",
"0P    c #541817",
"0Q    c #541818",
"0R    c #732120",
"0S    c #712220",
"0T    c #712120",
"0U    c #6F2020",
"0V    c #6D211E",
"0W    c #6B201E",
"0X    c #6E5913",
"0Y    c #691F1D",
"0Z    c #6A281B",
"0&    c #8A7238",
"1     c #B69684",
"10    c #854C2B",
"11    c #D1BD7D",
"12    c #FFF9BB",
"13    c #FBF588",
"14    c #C8B645",
"15    c #A89926",
"16    c #9F911C",
"17    c #8A7314",
"18    c #622D18",
"19    c #551A18",
"1a    c #66341C",
"1b    c #B89D56",
"1c    c #A88B39",
"1d    c #926D28",
"1e    c #9E7D26",
"1f    c #5E2618",
"1g    c #511917",
"1h    c #531716",
"1i    c #521917",
"1j    c #511818",
"1k    c #6E211F",
"1l    c #6E201E",
"1m    c #6C201E",
"1n    c #6A1F1E",
"1o    c #671E1D",
"1p    c #6F5D11",
"1q    c #641F1C",
"1r    c #601E1A",
"1s    c #84611C",
"1t    c #B0A447",
"1u    c #FCFDE6",
"1v    c #FFFEFE",
"1w    c #F9F2A4",
"1x    c #B6AD45",
"1y    c #908820",
"1z    c #807B12",
"1A    c #78740B",
"1B    c #7C7409",
"1C    c #5C2D13",
"1D    c #511817",
"1E    c #5B2915",
"1F    c #5B3213",
"1G    c #776015",
"1H    c #A09B2B",
"1I    c #FED935",
"1J    c #B87614",
"1K    c #501716",
"1L    c #511717",
"1M    c #511816",
"1N    c #6B1F1D",
"1O    c #691F1E",
"1P    c #69201D",
"1Q    c #671E1C",
"1R    c #651E1D",
"1S    c #631E1C",
"1T    c #7C6619",
"1U    c #601C1C",
"1V    c #5F1D1A",
"1W    c #66261B",
"1X    c #CFB538",
"1Y    c #DFC960",
"1Z    c #C2BA74",
"1&    c #EAD766",
"2     c #F7F466",
"20    c #C7C240",
"21    c #857E15",
"22    c #74710C",
"23    c #736F0A",
"24    c #676206",
"25    c #786C0E",
"26    c #5C5104",
"27    c #5E5008",
"28    c #654C0C",
"29    c #572F0F",
"2a    c #A17B1F",
"2b    c #D9920F",
"2c    c #7A3D13",
"2d    c #4F1815",
"2e    c #4E1615",
"2f    c #4F1616",
"2g    c #4F1817",
"2h    c #661E1E",
"2i    c #651E1C",
"2j    c #651E1B",
"2k    c #621D1C",
"2l    c #745E16",
"2m    c #5E1C19",
"2n    c #5B1C1A",
"2o    c #8B651B",
"2p    c #B1A02D",
"2q    c #A6983B",
"2r    c #B9A752",
"2s    c #E8B316",
"2t    c #FFC71A",
"2u    c #FFBB12",
"2v    c #706004",
"2w    c #696004",
"2x    c #6A6205",
"2y    c #666203",
"2z    c #6D6607",
"2A    c #674E0C",
"2B    c #4B1815",
"2C    c #4B1716",
"2D    c #4C1615",
"2E    c #6B4C19",
"2F    c #532712",
"2G    c #4D1616",
"2H    c #4D1715",
"2I    c #4C1715",
"2J    c #4E1616",
"2K    c #631D1C",
"2L    c #621E1C",
"2M    c #601E1B",
"2N    c #5E1C1B",
"2O    c #715E0D",
"2P    c #7A6B10",
"2Q    c #94881D",
"2R    c #897E19",
"2S    c #85781B",
"2T    c #B8930D",
"2U    c #FEBC0D",
"2V    c #E9AB0C",
"2W    c #605C21",
"2X    c #67632D",
"2Y    c #5C5310",
"2Z    c #5A5108",
"2&    c #686309",
"3     c #716706",
"30    c #4A1714",
"31    c #491614",
"32    c #4B1715",
"33    c #6D5914",
"34    c #4C1B13",
"35    c #4B1614",
"36    c #601D1C",
"37    c #5D1B1A",
"38    c #581B18",
"39    c #735D11",
"3a    c #561B17",
"3b    c #592315",
"3c    c #6B6404",
"3d    c #726608",
"3e    c #796E17",
"3f    c #716C06",
"3g    c #686003",
"3h    c #72670D",
"3i    c #675D0C",
"3j    c #575002",
"3k    c #534B01",
"3l    c #534C02",
"3m    c #565003",
"3n    c #5D5903",
"3o    c #706B03",
"3p    c #4D2011",
"3q    c #471714",
"3r    c #4C1C16",
"3s    c #6B5516",
"3t    c #491613",
"3u    c #481514",
"3v    c #4A1515",
"3w    c #4A1614",
"3x    c #4C1714",
"3y    c #5D1B19",
"3z    c #591B18",
"3A    c #6B5A0F",
"3B    c #521816",
"3C    c #582813",
"3D    c #635B04",
"3E    c #676309",
"3F    c #635D10",
"3G    c #615A17",
"3H    c #626509",
"3I    c #635B0D",
"3J    c #5D5604",
"3K    c #635B02",
"3L    c #5D5401",
"3M    c #575001",
"3N    c #544C01",
"3O    c #585103",
"3P    c #60570B",
"3Q    c #4E2312",
"3R    c #461513",
"3S    c #552914",
"3T    c #58390F",
"3U    c #471515",
"3V    c #471615",
"3W    c #491514",
"3X    c #481513",
"3Y    c #491515",
"3Z    c #571918",
"3&    c #541A17",
"4     c #6E5911",
"40    c #4E1815",
"41    c #706605",
"42    c #665F17",
"43    c #615E0E",
"44    c #635818",
"45    c #635D17",
"46    c #5D560A",
"47    c #5A5B04",
"48    c #686201",
"49    c #665F02",
"4a    c #605602",
"4b    c #5C5402",
"4c    c #574F03",
"4d    c #5F5705",
"4e    c #491B12",
"4f    c #431512",
"4g    c #5E4111",
"4h    c #4C2411",
"4i    c #451414",
"4j    c #461514",
"4k    c #461614",
"4l    c #471413",
"4m    c #551917",
"4n    c #6A5310",
"4o    c #4E1814",
"4p    c #71561A",
"4q    c #6C6710",
"4r    c #645C13",
"4s    c #625B15",
"4t    c #645B18",
"4u    c #574D09",
"4v    c #62640A",
"4w    c #646703",
"4x    c #686503",
"4y    c #695E03",
"4z    c #615704",
"4A    c #5C5404",
"4B    c #5C4909",
"4C    c #421512",
"4D    c #431312",
"4E    c #5F4A0F",
"4F    c #431613",
"4G    c #451412",
"4H    c #441414",
"4I    c #441413",
"4J    c #461413",
"4K    c #481613",
"4L    c #481614",
"4M    c #571A17",
"4N    c #541918",
"4O    c #541816",
"4P    c #501717",
"4Q    c #7B4B2F",
"4R    c #957D2B",
"4S    c #7F5835",
"4T    c #825B2B",
"4U    c #8D711E",
"4V    c #746B07",
"4W    c #696018",
"4X    c #655C1A",
"4Y    c #675C17",
"4Z    c #5B510C",
"4&    c #646011",
"5     c #7E7D18",
"50    c #696703",
"51    c #6D6403",
"52    c #665D04",
"53    c #605607",
"54    c #4B270F",
"55    c #401411",
"56    c #471C12",
"57    c #5A450D",
"58    c #431311",
"59    c #441412",
"5a    c #461613",
"5b    c #451513",
"5c    c #551817",
"5d    c #531817",
"5e    c #4D1716",
"5f    c #A7630D",
"5g    c #E0A917",
"5h    c #7C5A13",
"5i    c #5F3710",
"5j    c #461612",
"5k    c #61480C",
"5l    c #67620B",
"5m    c #6B6118",
"5n    c #675F16",
"5o    c #66550E",
"5p    c #666411",
"5q    c #666907",
"5r    c #696A03",
"5s    c #6F6503",
"5t    c #6A5F05",
"5u    c #6C4C0F",
"5v    c #3E1310",
"5w    c #3E1411",
"5x    c #502C13",
"5y    c #52360D",
"5z    c #421312",
"5A    c #431413",
"5B    c #451413",
"5C    c #531818",
"5D    c #4F1816",
"5E    c #4E1716",
"5F    c #4D1615",
"5G    c #571F14",
"5H    c #7E5013",
"5I    c #514208",
"5J    c #471E10",
"5K    c #441513",
"5L    c #451711",
"5M    c #69510A",
"5N    c #746F09",
"5O    c #65610C",
"5P    c #686308",
"5Q    c #5A5708",
"5R    c #636207",
"5S    c #706607",
"5T    c #706304",
"5U    c #56400A",
"5V    c #624F0E",
"5W    c #45230E",
"5X    c #3D1410",
"5Y    c #624513",
"5Z    c #46210F",
"5&    c #401412",
"6     c #421412",
"60    c #421413",
"61    c #451514",
"62    c #451314",
"63    c #501916",
"64    c #491513",
"65    c #4B1E10",
"66    c #534507",
"67    c #461C10",
"68    c #401312",
"69    c #3F1411",
"6a    c #4C270E",
"6b    c #6A600F",
"6c    c #796906",
"6d    c #776D06",
"6e    c #756606",
"6f    c #655108",
"6g    c #392309",
"6h    c #3A1310",
"6i    c #3C1310",
"6j    c #583D0D",
"6k    c #74540F",
"6l    c #907310",
"6m    c #4B1D11",
"6n    c #411412",
"6o    c #431313",
"6p    c #441313",
"6q    c #4B1616",
"6r    c #461512",
"6s    c #491E10",
"6t    c #594C06",
"6u    c #451B10",
"6v    c #3D1310",
"6w    c #5E510F",
"6x    c #3B1210",
"6y    c #3B1310",
"6z    c #35110F",
"6A    c #180706",
"6B    c #1F0A08",
"6C    c #371210",
"6D    c #42210E",
"6E    c #8E760D",
"6F    c #F6A90F",
"6G    c #80470E",
"6H    c #3E1311",
"6I    c #3F1311",
"6J    c #411413",
"6K    c #280C0C",
"6L    c #2E0D0C",
"6M    c #4A1715",
"6N    c #451512",
"6O    c #441613",
"6P    c #441F10",
"6Q    c #544906",
"6R    c #421C10",
"6S    c #3E150F",
"6T    c #5A4C12",
"6U    c #3A130F",
"6V    c #3A1210",
"6W    c #39110F",
"6X    c #36110E",
"6Y    c #251307",
"6Z    c #3A2F06",
"6&    c #473C04",
"7     c #352805",
"70    c #42290A",
"71    c #84550B",
"72    c #3F180C",
"73    c #3D1211",
"74    c #3F1211",
"75    c #411312",
"76    c #270B0A",
"77    c #1E0809",
"78    c #4C1716",
"79    c #4A1615",
"7a    c #471513",
"7b    c #441512",
"7c    c #45210F",
"7d    c #544A0A",
"7e    c #452211",
"7f    c #5D4A0F",
"7g    c #3B150F",
"7h    c #482B0C",
"7i    c #503E06",
"7j    c #4A3E03",
"7k    c #251606",
"7l    c #1C0807",
"7m    c #200A08",
"7n    c #1D0907",
"7o    c #1D0808",
"7p    c #1C0707",
"7q    c #1A0708",
"7r    c #230A09",
"7s    c #260B0B",
"7t    c #290D0C",
"7u    c #2D0D0D",
"7v    c #1D0908",
"7w    c #4B1615",
"7x    c #491713",
"7y    c #471614",
"7z    c #401511",
"7A    c #3F1412",
"7B    c #49240F",
"7C    c #E49F17",
"7D    c #BD8713",
"7E    c #66490B",
"7F    c #4B3908",
"7G    c #42240D",
"7H    c #180707",
"7I    c #210908",
"7J    c #310F0D",
"7K    c #3C1210",
"7L    c #3B1211",
"7M    c #2C0D0C",
"7N    c #290D0A",
"7O    c #1D0909",
"7P    c #1F0809",
"7Q    c #481515",
"7R    c #471514",
"7S    c #421513",
"7T    c #411411",
"7U    c #3F1210",
"7V    c #441811",
"7W    c #F8B80A",
"7X    c #FEB60C",
"7Y    c #67390F",
"7Z    c #3A1110",
"7&    c #3A120F",
"8     c #320F0D",
"80    c #1A0807",
"81    c #35110E",
"82    c #35100F",
"83    c #1E0807",
"84    c #39120F",
"85    c #3E1212",
"86    c #3E1211",
"87    c #33100D",
"88    c #310D0D",
"89    c #270A0C",
"8a    c #210A09",
"8b    c #441514",
"8c    c #421313",
"8d    c #401311",
"8e    c #66370F",
"8f    c #6C3C0E",
"8g    c #2A0C0B",
"8h    c #180807",
"8i    c #240B0A",
"8j    c #3D1210",
"8k    c #3F1212",
"8l    c #401211",
"8m    c #411311",
"8n    c #421311",
"8o    c #3E1110",
"8p    c #471414",
"8q    c #3C1311",
"8r    c #3A1211",
"8s    c #210A08",
"8t    c #3B1111",
"8u    c #1F0909",
"8v    c #2E0E0D",
"8w    c #3D1312",
"8x    c #401212",
"8y    c #401213",
"8z    c #3F1213",
"8A    c #491615",
"8B    c #461412",
"8C    c #4F2113",
"8D    c #9C7B0C",
"8E    c #4D2111",
"8F    c #451A12",
"8G    c #997A0C",
"8H    c #997A0B",
"8I    c #98790B",
"8J    c #977A0C",
"8K    c #98780B",
"8L    c #6C4A0E",
"8M    c #94780B",
"8N    c #867307",
"8O    c #937B07",
"8P    c #9C7F0B",
"8Q    c #9D7E0A",
"8R    c #4E260F",
"8S    c #85690B",
"8T    c #8D7906",
"8U    c #9C7F0A",
"8V    c #9F7E0A",
"8W    c #815D0D",
"8X    c #491415",
"8Y    c #85600F",
"8Z    c #CFBA08",
"8&    c #83610D",
"9     c #75500E",
"90    c #75510E",
"91    c #E0CC07",
"92    c #744F0E",
"93    c #6C490F",
"94    c #4F270F",
"95    c #63460B",
"96    c #534006",
"97    c #D8C207",
"98    c #6D490D",
"99    c #6D490E",
"9a    c #421A10",
"9b    c #CDB507",
"9c    c #65450B",
"9d    c #5A4308",
"9e    c #6E490E",
"9f    c #B0940A",
"9g    c #A6860B",
"9h    c #411212",
"9i    c #411313",
"9j    c #481414",
"9k    c #C9B50A",
"9l    c #5A3011",
"9m    c #D0BA0A",
"9n    c #CEB807",
"9o    c #441A10",
"9p    c #2A0C0C",
"9q    c #CBB708",
"9r    c #3D1111",
"9s    c #3D1311",
"9t    c #CDB607",
"9u    c #21090A",
"9v    c #2B0C0B",
"9w    c #D0B509",
"9x    c #4A1414",
"9y    c #5D3113",
"9z    c #C4AD0A",
"9A    c #BEA60A",
"9B    c #663D0F",
"9C    c #3F1312",
"9D    c #CFB909",
"9E    c #441A12",
"9F    c #3E1210",
"9G    c #200908",
"9H    c #1E0808",
"9I    c #CDB609",
"9J    c #3D1212",
"9K    c #3E1312",
"9L    c #CEB608",
"9M    c #68420E",
"9N    c #63420C",
"9O    c #5F4908",
"9P    c #BAA209",
"9Q    c #98780D",
"9R    c #431412",
"9S    c #461414",
"9T    c #A98C0C",
"9U    c #AC920C",
"9V    c #83600F",
"9W    c #A7890B",
"9X    c #B89E0A",
"9Y    c #441911",
"9Z    c #1E0909",
"9&    c #290D0B",
"a     c #CEB709",
"a0    c #D4BE08",
"a1    c #9A8308",
"a2    c #AB9907",
"a3    c #E9D906",
"a4    c #725F08",
"a5    c #320E0E",
"a6    c #DCCC09",
"a7    c #8A680E",
"a8    c #8A680D",
"a9    c #8A670D",
"aa    c #D6C109",
"ab    c #481A11",
"ac    c #CFBA09",
"ad    c #461912",
"ae    c #401410",
"af    c #1C0908",
"ag    c #38100F",
"ah    c #CFB808",
"ai    c #CCB708",
"aj    c #1D0807",
"ak    c #877408",
"al    c #B0A006",
"am    c #220A0A",
"an    c #230A0A",
"ao    c #391110",
"ap    c #4A1514",
"aq    c #491414",
"ar    c #7B5410",
"as    c #AE930D",
"at    c #A1830C",
"au    c #82610D",
"av    c #CEBA0A",
"aw    c #461A11",
"ax    c #360F10",
"ay    c #CEB808",
"az    c #381110",
"aA    c #CAB707",
"aB    c #1E0908",
"aC    c #1F0908",
"aD    c #C7B607",
"aE    c #645209",
"aF    c #200909",
"aG    c #2A0B0C",
"aH    c #9D7D0F",
"aI    c #643811",
"aJ    c #552813",
"aK    c #A78B0C",
"aL    c #A0840C",
"aM    c #4C2110",
"aN    c #260A0A",
"aO    c #3B120F",
"aP    c #A5880B",
"aQ    c #2F0E0C",
"aR    c #8F7C08",
"aS    c #1F0A09",
"aT    c #200808",
"aU    c #341F08",
"aV    c #826E08",
"aW    c #20080A",
"aX    c #200809",
"aY    c #210A0A",
"aZ    c #210909",
"   0 1 2 3 4 5 6 7 8 9 a b c d e f g h i j k l m   n o p q r s t",
" u v w v x y z A B C D E F G H I J K L M N O P Q R p S T U V W X",
" Y Z Y &0 000102030405060708090a0b0c0d0e0f0g0h0i0i0j W0k0l0m0n0o",
"0p0q0r u0s0t0u0v0w0x0y0z0A0B0C0D0E0F p0G0H0I0J0K0l0L0M0N0O0P0Q0n",
"0R0S0T0U0V0W0X0Y0Z0&1 10111213141516171819191a1b1c1d1e1f1g1h1i1j",
"1k1l1m e1n1o1p1q i1r1s1t1u1v1w1x1y1z1A1B1C1D1E1F1G1H1I1J1K1L1M1L",
"1N1O1P1Q1R1S1T1U1V1W1X1Y1Z1&2 202122232425262728292a2b2c2d2e2f2g",
"2h2i2j0a2k1U2l2m2n2o2p2q2r2s2t2u2v2w2x2y2z2A2B2C2D2E2F2G2H2G2I2J",
"2K2L2M N2N2n2O p T2P2Q2R2S2T2U2V2W2X2Y2Z2&3 30313233343535322D2G",
" k362N37 p38393a3b3c3d3e3f3g3h3i3j3k3l3m3n3o3p3q3r3s3t3u3v303w3x",
" P3y n S3z X3A3B3C3D3E3F3G3H3I3J3K3L3M3N3O3P3Q3R3S3T3U3V3W3X313Y",
"2n t3Z3a0n3&4 2d404142434445464748494a4b4c4d4e4f4g4h4i4j4k4l313u",
" T0j0o4m1i1D4n4o2G4p4q4r4s4t4u4v4w4x4y4z4A4B4C4D4E4F4G4H4I4J4K4L",
"4M4N4O1M4P4Q4R4S4T4U4V4W4X4Y4Z4&5 505152535455565758594H4G5a5b3R",
"5c5d1i2g5e5f5g5h5i5j5k5l5m5n5o5p5q5r5s5t5u5v5w5x5y5z585A4D4G5B4j",
"5C1i5D5E5F5G5H5I5J5K5L5M5N5O5P5Q5R5S5T5U5V5W5X5Y5Z5&5&6 604I6162",
"1M635D2G3x643u65666768696a6b6c6d6e6f6g6h6i6j6k6l6m69556n586o4D6p",
"4P2J5F6q3v3q6r4j6s6t6u5v6v6w6i6x6y6z6A6B6C6D6E6F6G6H6I5&5z6J6K6L",
"1K2G3x6M3w4j6N6O606P6Q6R6S6T6U6V6W6X6Y6Z6&7 70717273745w6n757677",
"2f7879307a3R7b595z687c7d7e7f6h7g7h7i7j7k7l7m7n7o7p7q7o7r7s7t7u7v",
"5F7w797x7y3R59607z7A697B7C7D7E7F7G6W7H7I7v7J7K7L7M7N7s7n7p7n7O7P",
"2I797Q3W7R4J597S7T557U7V7W7X7Y7Z7&8 80818283847K858574868788898a",
"6M3Y3u4K4j4H8b8c5&8d5w6v8e8f6x7&6y8g8h7&6V7u8i6y7K8j8k8l8m8n6 8o",
"2D3W3Y4j8p7b59606n6I7A858q6v6x6V8r7I8s8t6x6y8u8v8w738x8y8z75606 ",
"6q3Y8A8p8B8C8D8E5z8F8G8H8I8J8K8L8M8N8O8P8Q8R8S8T8U8V8W8l8d7T4D8c",
"3w3X8X7a5B8Y8Z8&8m8d9 909192939495969798999a9b9c9d9e9f9g9h9i605z",
"7w7Q9j7a5B9k9l9m8m8x5&8k9n9o6v5v9p7l9q9r9s869t859u9v7A9w8x6 6 60",
"8A9x8p7a9y9z7b9A9B68749C9D9E9F9F9G9H9I9r9J9K9L9M9N9O9P9Q8c9i6 9R",
"3W8p3u9S9T9U9V9W9X6n686I8Z9Y9K849Z9&a 8j865va0a1a2a3a49&a5739R6p",
"3Y3Y7R4ja6a7a8a9aaab5&75acadae7Jafagah9F8674ai77ajakal6Bamanao4I",
"ap3uaqaras5K7b59atau6n6navaw8x9vajaxay689CazaA7OaBaCaDaEaF7IanaG",
"3W3u3uaHaI615b7baJaK608caLaM8k8aaNaOaP8x8kaQaR9HaSaTaUaVaWaXaYaZ"};
