/* XPM */
static char *PAINTF_xpm[]={
"41 24 770 2",
"      c #696A68",
" 0    c #676767",
" 1    c #666867",
" 2    c #666766",
" 3    c #646566",
" 4    c #646364",
" 5    c #626463",
" 6    c #636263",
" 7    c #616262",
" 8    c #606061",
" 9    c #626160",
" a    c #686964",
" b    c #87886D",
" c    c #777662",
" d    c #5D5E5C",
" e    c #5C5C5B",
" f    c #5B5B5C",
" g    c #5B5A5B",
" h    c #5A5B59",
" i    c #595A59",
" j    c #585959",
" k    c #595958",
" l    c #575757",
" m    c #585758",
" n    c #575858",
" o    c #565657",
" p    c #565656",
" q    c #555755",
" r    c #555555",
" s    c #565655",
" t    c #555556",
" u    c #5C5C55",
" v    c #636264",
" w    c #616362",
" x    c #606161",
" y    c #615F60",
" z    c #606060",
" A    c #676764",
" B    c #787970",
" C    c #8F907F",
" D    c #BDBD82",
" E    c #D1D18E",
" F    c #E1DD72",
" G    c #EFEB6C",
" H    c #C2C062",
" I    c #585856",
" J    c #575657",
" K    c #555655",
" L    c #555554",
" M    c #545455",
" N    c #555553",
" O    c #545454",
" P    c #545253",
" Q    c #535353",
" R    c #525252",
" S    c #515251",
" T    c #525152",
" U    c #515151",
" V    c #525151",
" W    c #525051",
" X    c #525251",
" Y    c #525250",
" Z    c #515252",
" &    c #585754",
"0     c #846E5B",
"00    c #AA7152",
"01    c #574F49",
"02    c #525352",
"03    c #626260",
"04    c #6D6C67",
"05    c #79796D",
"06    c #8B897F",
"07    c #B2B282",
"08    c #CECE93",
"09    c #E5E27D",
"0a    c #E8E478",
"0b    c #DED66B",
"0c    c #CBBC57",
"0d    c #AA9750",
"0e    c #958047",
"0f    c #A18E4D",
"0g    c #E0E070",
"0h    c #58584F",
"0i    c #515051",
"0j    c #505250",
"0k    c #505050",
"0l    c #4E4F50",
"0m    c #4E4E4E",
"0n    c #4F4F4F",
"0o    c #4D4E4F",
"0p    c #4E4E4D",
"0q    c #4D4D4D",
"0r    c #4D4D4C",
"0s    c #4C4D4D",
"0t    c #4D4C4C",
"0u    c #4D4C4D",
"0v    c #4C4C4C",
"0w    c #4D4E4C",
"0x    c #4E4F4D",
"0y    c #6E6357",
"0z    c #D19F71",
"0A    c #E08D5B",
"0B    c #7C412A",
"0C    c #332F2F",
"0D    c #4B4C4C",
"0E    c #79785E",
"0F    c #ECEC7F",
"0G    c #EBE771",
"0H    c #E4DD60",
"0I    c #CDC055",
"0J    c #BBAA59",
"0K    c #B19960",
"0L    c #A58C61",
"0M    c #9A805E",
"0N    c #88704E",
"0O    c #816B47",
"0P    c #7F6544",
"0Q    c #816B42",
"0R    c #E4E071",
"0S    c #71724A",
"0T    c #4B4B4B",
"0U    c #4B4C4A",
"0V    c #4B4A4A",
"0W    c #4A4A4A",
"0X    c #4A4A49",
"0Y    c #494A49",
"0Z    c #494A4A",
"0&    c #484949",
"1     c #494948",
"10    c #474848",
"11    c #494849",
"12    c #484948",
"13    c #474948",
"14    c #494947",
"15    c #484848",
"16    c #4F4E4B",
"17    c #9B8466",
"18    c #EEB078",
"19    c #D98254",
"1a    c #804026",
"1b    c #302522",
"1c    c #2B2C2B",
"1d    c #474748",
"1e    c #616255",
"1f    c #E8E679",
"1g    c #B5A15C",
"1h    c #9C845F",
"1i    c #998261",
"1j    c #988061",
"1k    c #987F5D",
"1l    c #8B7351",
"1m    c #816B4A",
"1n    c #806845",
"1o    c #7D6643",
"1p    c #796241",
"1q    c #78603F",
"1r    c #CEC35D",
"1s    c #93934F",
"1t    c #464747",
"1u    c #464746",
"1v    c #464546",
"1w    c #464645",
"1x    c #454545",
"1y    c #444445",
"1z    c #454344",
"1A    c #444343",
"1B    c #444344",
"1C    c #434445",
"1D    c #444443",
"1E    c #444544",
"1F    c #5B554E",
"1G    c #C8A777",
"1H    c #F5B278",
"1I    c #C57148",
"1J    c #783923",
"1K    c #302420",
"1L    c #212122",
"1M    c #313232",
"1N    c #484847",
"1O    c #555350",
"1P    c #CECF67",
"1Q    c #BEAF64",
"1R    c #917C59",
"1S    c #927A5A",
"1T    c #8B7552",
"1U    c #816A49",
"1V    c #7E6645",
"1W    c #7D6443",
"1X    c #7C6342",
"1Y    c #796141",
"1Z    c #775E3D",
"1&    c #735C3A",
"2     c #9D8C48",
"20    c #CBC95E",
"21    c #454440",
"22    c #424242",
"23    c #414141",
"24    c #424041",
"25    c #414040",
"26    c #403F3F",
"27    c #414140",
"28    c #3F3F3F",
"29    c #3F4040",
"2a    c #403F40",
"2b    c #3E3F3F",
"2c    c #3F3F3E",
"2d    c #3F3F40",
"2e    c #6D6353",
"2f    c #DFB982",
"2g    c #F3A872",
"2h    c #B6633D",
"2i    c #713620",
"2j    c #2B211E",
"2k    c #1F1F20",
"2l    c #262525",
"2m    c #3B3B3A",
"2n    c #464545",
"2o    c #989855",
"2p    c #D9D26D",
"2q    c #8B7350",
"2r    c #7F6848",
"2s    c #7B6243",
"2t    c #796240",
"2u    c #826E47",
"2v    c #C7BE78",
"2w    c #D0C97D",
"2x    c #7A6340",
"2y    c #735B39",
"2z    c #705737",
"2A    c #7E6839",
"2B    c #E9E566",
"2C    c #56563C",
"2D    c #3D3C3D",
"2E    c #3C3C3D",
"2F    c #3C3D3D",
"2G    c #3D3C3B",
"2H    c #3C3B3B",
"2I    c #3B3C3B",
"2J    c #3A3C3C",
"2K    c #3C3A3B",
"2L    c #3B3B3C",
"2M    c #3A3B3C",
"2N    c #3A3B3B",
"2O    c #44413E",
"2P    c #948164",
"2Q    c #F1C489",
"2R    c #E99867",
"2S    c #A55534",
"2T    c #63301D",
"2U    c #251F1C",
"2V    c #1E1E1D",
"2W    c #222222",
"2X    c #353534",
"2Y    c #414041",
"2Z    c #424442",
"2&    c #4B4B4C",
"3     c #767749",
"30    c #EFEB72",
"31    c #836E40",
"32    c #755C3C",
"33    c #755E3D",
"34    c #745D3C",
"35    c #7D6642",
"36    c #EBE98B",
"37    c #F9F990",
"38    c #8C7C49",
"39    c #6E5637",
"3a    c #6D5535",
"3b    c #6C5534",
"3c    c #D4CC5B",
"3d    c #75763E",
"3e    c #383837",
"3f    c #393839",
"3g    c #393738",
"3h    c #383738",
"3i    c #383737",
"3j    c #373636",
"3k    c #363737",
"3l    c #373637",
"3m    c #373736",
"3n    c #383838",
"3o    c #534C44",
"3p    c #C9AC7B",
"3q    c #FAC588",
"3r    c #D98357",
"3s    c #924628",
"3t    c #50291B",
"3u    c #1F1C1C",
"3v    c #1C1B1B",
"3w    c #1F1F1D",
"3x    c #2F302F",
"3y    c #404041",
"3z    c #505145",
"3A    c #E6E568",
"3B    c #968344",
"3C    c #705839",
"3D    c #715938",
"3E    c #705939",
"3F    c #715839",
"3G    c #C0B651",
"3H    c #B8B541",
"3I    c #7B6C2D",
"3J    c #6B5434",
"3K    c #695132",
"3L    c #695031",
"3M    c #9E8E42",
"3N    c #C0C051",
"3O    c #343533",
"3P    c #353434",
"3Q    c #333435",
"3R    c #343333",
"3S    c #343534",
"3T    c #343434",
"3U    c #333234",
"3V    c #333332",
"3W    c #363634",
"3X    c #6A604C",
"3Y    c #E1C28A",
"3Z    c #F7B87F",
"3&    c #C97349",
"4     c #823E23",
"40    c #3D241A",
"41    c #1B1919",
"42    c #1B1A1A",
"43    c #1F1D1D",
"44    c #2D2D2D",
"45    c #3C3C3C",
"46    c #3D3D3D",
"47    c #3F3E3F",
"48    c #464646",
"49    c #464643",
"4a    c #C8C857",
"4b    c #BEB152",
"4c    c #6D5435",
"4d    c #6C5536",
"4e    c #6B5534",
"4f    c #6B5436",
"4g    c #5B4829",
"4h    c #382C18",
"4i    c #473821",
"4j    c #665030",
"4k    c #685030",
"4l    c #654F2E",
"4m    c #7D6832",
"4n    c #E4E35D",
"4o    c #44432F",
"4p    c #303030",
"4q    c #2F3030",
"4r    c #31312F",
"4s    c #2F2F2F",
"4t    c #312F2F",
"4u    c #2F2F30",
"4v    c #2F2E2E",
"4w    c #4D453C",
"4x    c #B69C70",
"4y    c #F7D294",
"4z    c #EFA16E",
"4A    c #B4613A",
"4B    c #74341D",
"4C    c #2D1E17",
"4D    c #191818",
"4E    c #181918",
"4F    c #1E1E1E",
"4G    c #2B2B2C",
"4H    c #373737",
"4I    c #393A39",
"4J    c #3B3B3B",
"4K    c #3B3C3C",
"4L    c #444345",
"4M    c #424342",
"4N    c #888948",
"4O    c #DBD562",
"4P    c #6E5533",
"4Q    c #6A5133",
"4R    c #654F31",
"4S    c #624C2D",
"4T    c #644D2E",
"4U    c #654D2E",
"4V    c #624B2C",
"4W    c #66502D",
"4X    c #DCD853",
"4Y    c #616131",
"4Z    c #2C2C2B",
"4&    c #2D2C2B",
"5     c #2D2C2C",
"50    c #2C2C2C",
"51    c #2B2D2C",
"52    c #3B3732",
"53    c #8D7A5A",
"54    c #EDCC8F",
"55    c #FAC88D",
"56    c #E28E5F",
"57    c #A55433",
"58    c #682D19",
"59    c #271B16",
"5a    c #181817",
"5b    c #171818",
"5c    c #1F1E1E",
"5d    c #2A2928",
"5e    c #353535",
"5f    c #383A38",
"5g    c #3A3A3A",
"5h    c #636440",
"5i    c #F0EF67",
"5j    c #7A6736",
"5k    c #664F30",
"5l    c #664E30",
"5m    c #664F2F",
"5n    c #654E30",
"5o    c #634C2F",
"5p    c #634B2E",
"5q    c #665232",
"5r    c #7A6748",
"5s    c #948760",
"5t    c #EBEA78",
"5u    c #ABAB40",
"5v    c #282828",
"5w    c #292929",
"5x    c #292A29",
"5y    c #2B2A2B",
"5z    c #312F2C",
"5A    c #685C48",
"5B    c #D7B982",
"5C    c #FCDE9E",
"5D    c #F9BA80",
"5E    c #D47B50",
"5F    c #934628",
"5G    c #612817",
"5H    c #231816",
"5I    c #161616",
"5J    c #161717",
"5K    c #1C1D1D",
"5L    c #29292A",
"5M    c #333433",
"5N    c #343536",
"5O    c #353536",
"5P    c #373838",
"5Q    c #39393A",
"5R    c #404040",
"5S    c #47483F",
"5T    c #E0DF5C",
"5U    c #91833E",
"5V    c #634D2F",
"5W    c #776346",
"5X    c #8D7E60",
"5Y    c #C7BD88",
"5Z    c #E0DD83",
"5&    c #DFDD73",
"6     c #BDBD51",
"60    c #71712B",
"61    c #3B3B1D",
"62    c #242425",
"63    c #292829",
"64    c #2A2B29",
"65    c #524D3E",
"66    c #C5B27B",
"67    c #F9E3A2",
"68    c #FED99D",
"69    c #F0A06F",
"6a    c #C06A43",
"6b    c #873D22",
"6c    c #592414",
"6d    c #1F1815",
"6e    c #151516",
"6f    c #1A1B1A",
"6g    c #282827",
"6h    c #313031",
"6i    c #343334",
"6j    c #393A38",
"6k    c #424141",
"6l    c #40403F",
"6m    c #BCBC4C",
"6n    c #C3BC51",
"6o    c #6B5538",
"6p    c #897A5E",
"6q    c #AEA278",
"6r    c #D1CD89",
"6s    c #EBE978",
"6t    c #D1D155",
"6u    c #A4A238",
"6v    c #595929",
"6w    c #2B291B",
"6x    c #181715",
"6y    c #141415",
"6z    c #151414",
"6A    c #1F2020",
"6B    c #2C2B2B",
"6C    c #79694F",
"6D    c #EFD894",
"6E    c #FEECAB",
"6F    c #FCCB92",
"6G    c #E48B5D",
"6H    c #B45F3C",
"6I    c #7D361D",
"6J    c #58220F",
"6K    c #211715",
"6L    c #141515",
"6M    c #161515",
"6N    c #1A1A19",
"6O    c #272728",
"6P    c #312F31",
"6Q    c #323133",
"6R    c #333232",
"6S    c #353435",
"6T    c #383839",
"6U    c #393938",
"6V    c #414342",
"6W    c #3F4140",
"6X    c #3F3E40",
"6Y    c #858449",
"6Z    c #F1EE6F",
"6&    c #E6E472",
"7     c #D9D860",
"70    c #AEAF37",
"71    c #676822",
"72    c #3A3B21",
"73    c #1F1F18",
"74    c #171716",
"75    c #161715",
"76    c #151515",
"77    c #171516",
"78    c #161615",
"79    c #1B1B1B",
"7a    c #624B3D",
"7b    c #F1BD7B",
"7c    c #FED091",
"7d    c #F7AD79",
"7e    c #D97F53",
"7f    c #A55333",
"7g    c #773017",
"7h    c #55200E",
"7i    c #201713",
"7j    c #171517",
"7k    c #171617",
"7l    c #191919",
"7m    c #252424",
"7n    c #30312F",
"7o    c #333132",
"7p    c #343635",
"7q    c #363838",
"7r    c #393838",
"7s    c #393A3A",
"7t    c #3B3A3A",
"7u    c #434243",
"7v    c #414241",
"7w    c #52523E",
"7x    c #8D8D2C",
"7y    c #57571F",
"7z    c #27251B",
"7A    c #1A1A1A",
"7B    c #181818",
"7C    c #181819",
"7D    c #171819",
"7E    c #191718",
"7F    c #343535",
"7G    c #767474",
"7H    c #8E8B8D",
"7I    c #6F6D6F",
"7J    c #BE7D60",
"7K    c #F49A64",
"7L    c #E88B5B",
"7M    c #C86F45",
"7N    c #994B2B",
"7O    c #6F2C14",
"7P    c #571E0C",
"7Q    c #241814",
"7R    c #181718",
"7S    c #171717",
"7T    c #171918",
"7U    c #232423",
"7V    c #363635",
"7W    c #393939",
"7X    c #434444",
"7Y    c #252526",
"7Z    c #1C1C1B",
"7&    c #1A1B1B",
"8     c #191A1B",
"80    c #1A1919",
"81    c #191A19",
"82    c #B6B3B5",
"83    c #D7D5D6",
"84    c #D2D0D2",
"85    c #CBC8CA",
"86    c #C8A7A0",
"87    c #B76548",
"88    c #A65436",
"89    c #883F21",
"8a    c #6A2812",
"8b    c #561E0D",
"8c    c #281814",
"8d    c #191918",
"8e    c #1E1F1F",
"8f    c #2E2E2F",
"8g    c #343435",
"8h    c #343636",
"8i    c #373739",
"8j    c #3B3A3B",
"8k    c #3B3C3A",
"8l    c #3C3E3C",
"8m    c #454546",
"8n    c #434343",
"8o    c #434342",
"8p    c #414142",
"8q    c #323233",
"8r    c #1E1D1D",
"8s    c #1B1C1C",
"8t    c #1B1B1A",
"8u    c #9C999B",
"8v    c #BCBABA",
"8w    c #C7C4C7",
"8x    c #BEBCBE",
"8y    c #B3B0B3",
"8z    c #A9A4A3",
"8A    c #7F544E",
"8B    c #682919",
"8C    c #60230F",
"8D    c #4F1E0D",
"8E    c #271A17",
"8F    c #1A1A1B",
"8G    c #2C2D2D",
"8H    c #363536",
"8I    c #373738",
"8J    c #383938",
"8K    c #3A3939",
"8L    c #3C3D3C",
"8M    c #3E3D3E",
"8N    c #3E3E3F",
"8O    c #484748",
"8P    c #454544",
"8Q    c #3D3E3D",
"8R    c #202020",
"8S    c #1D1D1E",
"8T    c #1D1D1C",
"8U    c #1C1C1C",
"8V    c #1D1C1C",
"8W    c #202021",
"8X    c #777777",
"8Y    c #A2A1A2",
"8Z    c #A5A3A4",
"8&    c #A5A2A5",
"9     c #9F9F9F",
"90    c #959596",
"91    c #868585",
"92    c #6F6A6C",
"93    c #492A21",
"94    c #341C16",
"95    c #1E1B1B",
"96    c #1C1D1B",
"97    c #1B1D1D",
"98    c #262626",
"99    c #3A393A",
"9a    c #3A3A39",
"9b    c #3A3C3A",
"9c    c #3A3B3A",
"9d    c #3C3B3C",
"9e    c #3E3E3D",
"9f    c #3D3F3E",
"9g    c #3F3E3E",
"9h    c #484849",
"9i    c #454746",
"9j    c #414343",
"9k    c #201E20",
"9l    c #1F1F1E",
"9m    c #1D1F1D",
"9n    c #242424",
"9o    c #717071",
"9p    c #9F9D9E",
"9q    c #908E91",
"9r    c #8B898A",
"9s    c #878688",
"9t    c #828181",
"9u    c #7A7978",
"9v    c #6C6B6D",
"9w    c #1D1E1D",
"9x    c #1E1D1E",
"9y    c #222322",
"9z    c #3C3C3B",
"9A    c #3C3E3E",
"9B    c #3F403F",
"9C    c #4C4B4B",
"9D    c #4A484A",
"9E    c #474747",
"9F    c #313030",
"9G    c #202120",
"9H    c #2C2B2A",
"9I    c #545354",
"9J    c #A4A2A4",
"9K    c #A9A8A9",
"9L    c #8A898A",
"9M    c #797879",
"9N    c #716F70",
"9O    c #6B6A6B",
"9P    c #656464",
"9Q    c #625F61",
"9R    c #616061",
"9S    c #1E1F1E",
"9T    c #201F1F",
"9U    c #20201F",
"9V    c #1E201E",
"9W    c #222321",
"9X    c #40403E",
"9Y    c #403E3F",
"9Z    c #41403F",
"9&    c #404042",
"a     c #424142",
"a0    c #414143",
"a1    c #434443",
"a2    c #444543",
"a3    c #4B4C4B",
"a4    c #4A4A4B",
"a5    c #494A4B",
"a6    c #3D3D3E",
"a7    c #6C6C6C",
"a8    c #A5A4A6",
"a9    c #BAB8BA",
"aa    c #9D9B9D",
"ab    c #7F7F7F",
"ac    c #6B6B6B",
"ad    c #60605F",
"ae    c #5A5A5B",
"af    c #5A5A5A",
"ag    c #5C5D5D",
"ah    c #212021",
"ai    c #202121",
"aj    c #212121",
"ak    c #2D2C2D",
"al    c #3E3E3E",
"am    c #424243",
"an    c #424443",
"ao    c #424343",
"ap    c #434344",
"aq    c #434543",
"ar    c #454445",
"as    c #464745",
"at    c #4F4F50",
"au    c #4F4F4E",
"av    c #4D4D4E",
"aw    c #454345",
"ax    c #262726",
"ay    c #282928",
"az    c #4A4B49",
"aA    c #4E4D4E",
"aB    c #4C4A4C",
"aC    c #424241",
"aD    c #212222",
"aE    c #2B2B2B",
"aF    c #2E2F2F",
"aG    c #444545",
"aH    c #454645",
"aI    c #464644",
"aJ    c #444646",
"aK    c #464547",
"aL    c #535352",
"aM    c #515152",
"aN    c #504F4F",
"aO    c #2E2F2E",
"aP    c #252625",
"aQ    c #242525",
"aR    c #242324",
"aS    c #252523",
"aT    c #242323",
"aU    c #232524",
"aV    c #232424",
"aW    c #464446",
"aX    c #494748",
"aY    c #4A4849",
"aZ    c #49484A",
"a&    c #4A4B4A",
"b     c #4B4B4A",
"b0    c #4C4B4C",
"   0 1 2 3 4 5 6 7 8 9 a b c d e f g h i j k l m n o p p q r s s t u f g h i j k l",
" 4 v w x y z A B C D E F G H I J K L M M N O P Q R S T U V W U X T Y U Z &0 000102",
"030405060708090a0b0c0d0e0f0g0h0i0j0k0k0l0m0n0o0p0q0r0s0t0u0u0v0t0w0r0x0y0z0A0B0C0D",
"0E0F0G0H0I0J0K0L0M0N0O0P0Q0R0S0v0T0T0U0V0W0X0Y0Z0&1 10111213140&15161718191a1b1c1d",
"1e1f1g1h1i1j1k1l1m1n1o1p1q1r1s1t1t1u1v1w1x1y1y1x1z1A1A1B1C1B1D1E1F1G1H1I1J1K1L1M1N",
"1O1P1Q1R1S1T1U1V1W1X1Y1Z1&2 20212223242325262728292a2b2c292d232e2f2g2h2i2j2k2l2m2n",
"0p2o2p2q2r2s2t2u2v2w2x2y2z2A2B2C2D2E2F2G2H2I2J2K2L2M2N2L2K2O2P2Q2R2S2T2U2V2W2X2Y2Z",
"2&3 303132333435363738393a3b3c3d3e3f3g3h3i3j3i3k3l3m3k3n3o3p3q3r3s3t3u3v3w3x2F283y",
"153z3A3B3C3D3E3F3G3H3I3J3K3L3M3N3O3P3Q3R3S3T3U3V3V3V3W3X3Y3Z3&4 40414243443n454647",
"48494a4b4c4d4e4f4g4h4i4j4k4l4m4n4o4p4q4r4s4t4u4v4s4w4x4y4z4A4B4C4D4E4F4G4H4I4J4K2D",
"4L4M4N4O4P4Q3K3L4R4S4T4U4U4V4W4X4Y4Z4&5 44505152535455565758595a5b5c5d5e4H3h5f5g4K",
"4M3y5h5i5j5k5l5m5n5o4T5p5q5r5s5t5u5v5w5x5y5z5A5B5C5D5E5F5G5H5I5J5K5L5M5N5O3i5P5Q5g",
"225R5S5T5U4T5V4T5n5W5X5Y5Z5&6 606162636465666768696a6b6c6d6e5I6f6g6h3V6i5O3l3n6j4J",
"6k6l266m6n6o6p6q6r6s6t6u6v6w6x6y6z6A6B6C6D6E6F6G6H6I6J6K6L6M6N6O6P6Q6R6S5e3m6T6U4I",
"6V6W6X6Y6Z6&7 7071727374755I767778797a7b7c7d7e7f7g7h7i7j7k7l7m7n7o3U3S7p3k7q7r7s7t",
"7u7v3y7w7x7y7z7A7B7C7C7D747E7F7G7H7I7J7K7L7M7N7O7P7Q7R7S7T7U4p3U6i3P7V3m3i7W5g2m2H",
"7X4M3y267Y7Z7&8 4180817l7B2I82838485868788898a8b8c8d7C7l8e8f8g8h5e3l3h8i5Q8j8k458l",
"8m8n8o8p8q8r8s8s8s7&8t425y8u8v8w8x8y8z8A8B8C8D8E6N7&8F8r8G8H3j7q8I8J8K7t7t2I8L8M8N",
"8O1u8P1B8Q8R8S8T8U8V8U8W8X8Y8Z8&9 9091929394958T968s97983l999a2N9b9c9d8L9e9f9g263y",
"9h141d9i9j2l9k9l4F9m9n9o9p9q9r9s9t9u9v J8R8S9w8S9x8S9y5M2H9z2D2E9A8M28269B3y3y6k4M",
"9C0T9D149E9F9G2W9H9I9J9K9L9M9N9O9P9Q9R3T9S9T9U9V6A9W6h8Q9X9Y2b299Z5R9&a a08n8na1a2",
"0q0va3a4a5a64Ha7a8a9aaabacadae kafag5Rahahahai8Wajakal8o7uam8n8nanaoapaqar8P2nas1u",
"at0nauav0qawaxay8g47azaAaB0D0u0uaC9F2W9yaDaE6B51aFalaGaHaI2naJ1v1waKaK1u101N151N9h",
"aL TaM UaNaAaOaE5LaP62aQaRaS62aTaUaT9naV7U7r1E7uaW9E15158O1 aX12aYaZ110Z0Wa4a&b b0"};
