/* XPM */
static char *ADDSHELL_xpm[]={
"41 24 794 2",
"      c #696A68",
" 0    c #676767",
" 1    c #666867",
" 2    c #666766",
" 3    c #646566",
" 4    c #646364",
" 5    c #626463",
" 6    c #636263",
" 7    c #616262",
" 8    c #606061",
" 9    c #605F5F",
" a    c #5E5E5F",
" b    c #5F605D",
" c    c #88865C",
" d    c #B1B15D",
" e    c #727158",
" f    c #5B5B5C",
" g    c #5B5A5B",
" h    c #5A5B59",
" i    c #595A59",
" j    c #585959",
" k    c #595958",
" l    c #575757",
" m    c #585758",
" n    c #575858",
" o    c #565657",
" p    c #565656",
" q    c #555755",
" r    c #555555",
" s    c #565655",
" t    c #555556",
" u    c #3E3E55",
" v    c #4F503D",
" w    c #9D9D51",
" x    c #38389D",
" y    c #383838",
" z    c #383938",
" A    c #434439",
" B    c #BCBB43",
" C    c #676663",
" D    c #7F7D6B",
" E    c #87886E",
" F    c #676862",
" G    c #686560",
" H    c #6B6960",
" I    c #74705D",
" J    c #7A7558",
" K    c #7F7851",
" L    c #897E48",
" M    c #988841",
" N    c #978537",
" O    c #907F2F",
" P    c #AD9A32",
" Q    c #EFE13D",
" R    c #AE9F4B",
" S    c #666456",
" T    c #565554",
" U    c #545455",
" V    c #555553",
" W    c #545454",
" X    c #545253",
" Y    c #535353",
" Z    c #525252",
" &    c #515251",
"0     c #525152",
"00    c #515151",
"01    c #525151",
"02    c #525051",
"03    c #525251",
"04    c #525250",
"05    c #515252",
"06    c #525352",
"07    c #535251",
"08    c #515152",
"09    c #525353",
"0a    c #66645D",
"0b    c #E3C33E",
"0c    c #F6EC4D",
"0d    c #C3B746",
"0e    c #A5953A",
"0f    c #9F8D33",
"0g    c #968532",
"0h    c #8D7E2F",
"0i    c #7F7336",
"0j    c #70683F",
"0k    c #6A6442",
"0l    c #625F48",
"0m    c #5A584E",
"0n    c #666349",
"0o    c #938729",
"0p    c #6E6744",
"0q    c #938740",
"0r    c #A39550",
"0s    c #6F6B55",
"0t    c #525350",
"0u    c #4E4E4E",
"0v    c #4F4F4F",
"0w    c #4D4E4F",
"0x    c #4E4E4D",
"0y    c #4D4D4D",
"0z    c #4D4D4C",
"0A    c #4C4D4D",
"0B    c #4D4C4C",
"0C    c #4D4C4D",
"0D    c #4C4C4C",
"0E    c #4D4E4C",
"0F    c #4D4D4E",
"0G    c #4E4F4E",
"0H    c #4E4E4F",
"0I    c #4E4F4F",
"0J    c #5D5A58",
"0K    c #C0A22F",
"0L    c #D1C12B",
"0M    c #C4B746",
"0N    c #6E6B50",
"0O    c #585851",
"0P    c #565453",
"0Q    c #535252",
"0R    c #515050",
"0S    c #4F514F",
"0T    c #504E4F",
"0U    c #514F4A",
"0V    c #756A2A",
"0W    c #4D4C4A",
"0X    c #645F42",
"0Y    c #9A8F48",
"0Z    c #AEA157",
"0&    c #736E51",
"1     c #4F4F49",
"10    c #4E4F4A",
"11    c #4A4B4A",
"12    c #484949",
"13    c #494948",
"14    c #474848",
"15    c #494849",
"16    c #484948",
"17    c #474948",
"18    c #494947",
"19    c #484848",
"1a    c #4A4949",
"1b    c #4A4B4B",
"1c    c #4B4B4C",
"1d    c #4B4C4B",
"1e    c #565756",
"1f    c #5B594E",
"1g    c #897C1B",
"1h    c #706A41",
"1i    c #A9A04F",
"1j    c #716F58",
"1k    c #51504F",
"1l    c #4E4D4D",
"1m    c #4C4C4D",
"1n    c #4D4C4B",
"1o    c #4B4B4A",
"1p    c #494A4A",
"1q    c #49484A",
"1r    c #4F4C45",
"1s    c #75682A",
"1t    c #474747",
"1u    c #464747",
"1v    c #464746",
"1w    c #484645",
"1x    c #615B3C",
"1y    c #9B8C41",
"1z    c #C7C057",
"1A    c #DBDA5C",
"1B    c #AEAA52",
"1C    c #474544",
"1D    c #444343",
"1E    c #444344",
"1F    c #434445",
"1G    c #444443",
"1H    c #444544",
"1I    c #444445",
"1J    c #444645",
"1K    c #454645",
"1L    c #464646",
"1M    c #474646",
"1N    c #474748",
"1O    c #494949",
"1P    c #535151",
"1Q    c #52524E",
"1R    c #766C20",
"1S    c #5B5945",
"1T    c #595546",
"1U    c #9A8E41",
"1V    c #8B895B",
"1W    c #4E4D4B",
"1X    c #494748",
"1Y    c #484647",
"1Z    c #454547",
"1&    c #454545",
"2     c #434443",
"20    c #494841",
"21    c #726528",
"22    c #434242",
"23    c #484841",
"24    c #585440",
"25    c #655D39",
"26    c #7F732F",
"27    c #817424",
"28    c #9F9025",
"29    c #F1DE3D",
"2a    c #CBB03A",
"2b    c #404140",
"2c    c #403F40",
"2d    c #3E3F3F",
"2e    c #3F3F3E",
"2f    c #3F4040",
"2g    c #3F3F40",
"2h    c #414141",
"2i    c #464743",
"2j    c #4E4D44",
"2k    c #555445",
"2l    c #4A4A43",
"2m    c #424343",
"2n    c #444444",
"2o    c #454443",
"2p    c #454544",
"2q    c #464545",
"2r    c #4D4D4B",
"2s    c #6F6523",
"2t    c #5E593C",
"2u    c #4E4B43",
"2v    c #817A3D",
"2w    c #A59F5F",
"2x    c #666756",
"2y    c #70715D",
"2z    c #494846",
"2A    c #444340",
"2B    c #524E40",
"2C    c #68603E",
"2D    c #8F7F29",
"2E    c #867A2E",
"2F    c #817420",
"2G    c #7A6E1D",
"2H    c #6B621E",
"2I    c #57502C",
"2J    c #534E31",
"2K    c #524F36",
"2L    c #978D31",
"2M    c #605537",
"2N    c #3B3B3C",
"2O    c #3A3B3C",
"2P    c #3A3B3B",
"2Q    c #3D3C3C",
"2R    c #544F45",
"2S    c #918056",
"2T    c #A58243",
"2U    c #A48545",
"2V    c #A58640",
"2W    c #B1893B",
"2X    c #A98A3B",
"2Y    c #675B3E",
"2Z    c #424140",
"2&    c #424141",
"3     c #424142",
"30    c #424442",
"31    c #484A49",
"32    c #696024",
"33    c #615A35",
"34    c #464444",
"35    c #444540",
"36    c #857635",
"37    c #F8E87D",
"38    c #FAEE80",
"39    c #C8B349",
"3a    c #847829",
"3b    c #8A7B1D",
"3c    c #7E721B",
"3d    c #7C6E19",
"3e    c #4F4C29",
"3f    c #444130",
"3g    c #3D3C37",
"3h    c #393838",
"3i    c #383738",
"3j    c #383737",
"3k    c #413E33",
"3l    c #5E5727",
"3m    c #363737",
"3n    c #373637",
"3o    c #373736",
"3p    c #675F4B",
"3q    c #A58248",
"3r    c #61513A",
"3s    c #65634F",
"3t    c #7A7850",
"3u    c #7C7344",
"3v    c #6B5D3C",
"3w    c #544738",
"3x    c #A67934",
"3y    c #8C6F37",
"3z    c #43423E",
"3A    c #3F3F3F",
"3B    c #404041",
"3C    c #5D572D",
"3D    c #6B602E",
"3E    c #414140",
"3F    c #706133",
"3G    c #FDC913",
"3H    c #FDD019",
"3I    c #D7B01A",
"3J    c #514C2B",
"3K    c #474431",
"3L    c #464232",
"3M    c #685D27",
"3N    c #353534",
"3O    c #343535",
"3P    c #353434",
"3Q    c #333435",
"3R    c #343333",
"3S    c #343534",
"3T    c #454230",
"3U    c #524B23",
"3V    c #333332",
"3W    c #323333",
"3X    c #5A5640",
"3Y    c #907243",
"3Z    c #3B3834",
"3&    c #C8CA71",
"4     c #FDF86E",
"40    c #FED349",
"41    c #BC8431",
"42    c #3A3939",
"43    c #3F3D3A",
"44    c #8E7037",
"45    c #8B6B34",
"46    c #3E3D3D",
"47    c #3F3E3F",
"48    c #454543",
"49    c #535033",
"4a    c #7B6C26",
"4b    c #3D3D3E",
"4c    c #3B3D3B",
"4d    c #454339",
"4e    c #AE8E20",
"4f    c #D5B018",
"4g    c #867529",
"4h    c #363635",
"4i    c #3E3D2F",
"4j    c #645925",
"4k    c #303131",
"4l    c #312F31",
"4m    c #303030",
"4n    c #2F3030",
"4o    c #31312F",
"4p    c #2F2F2F",
"4q    c #484228",
"4r    c #464123",
"4s    c #2F2E2E",
"4t    c #2E2E2E",
"4u    c #302F2F",
"4v    c #353431",
"4w    c #9E7F3E",
"4x    c #3D3630",
"4y    c #323231",
"4z    c #323232",
"4A    c #C9C863",
"4B    c #FEF064",
"4C    c #FDCE48",
"4D    c #B77F2E",
"4E    c #373738",
"4F    c #393939",
"4G    c #3F3E39",
"4H    c #B1913D",
"4I    c #4F473A",
"4J    c #3D3C3D",
"4K    c #444345",
"4L    c #424342",
"4M    c #4B4937",
"4N    c #716421",
"4O    c #3F3D3D",
"4P    c #3C3B3C",
"4Q    c #3A393A",
"4R    c #46442E",
"4S    c #716813",
"4T    c #3B3931",
"4U    c #323131",
"4V    c #313131",
"4W    c #494633",
"4X    c #695F29",
"4Y    c #2E2F2E",
"4Z    c #2C2C2C",
"4&    c #2C2C2B",
"5     c #2C2B2B",
"50    c #2D2C2C",
"51    c #2D2D2D",
"52    c #4D4824",
"53    c #3A3924",
"54    c #2C2B2C",
"55    c #2B2B2C",
"56    c #2C2D2C",
"57    c #575035",
"58    c #765F32",
"59    c #4D4D42",
"5a    c #56564A",
"5b    c #585945",
"5c    c #D7D46B",
"5d    c #FDE159",
"5e    c #FEC343",
"5f    c #C5892E",
"5g    c #615C3C",
"5h    c #5E573D",
"5i    c #666141",
"5j    c #846C36",
"5k    c #3B3C3C",
"5l    c #44443B",
"5m    c #766A1B",
"5n    c #3F3F3B",
"5o    c #393A3A",
"5p    c #383839",
"5q    c #403F2F",
"5r    c #6D6416",
"5s    c #393732",
"5t    c #373532",
"5u    c #554F34",
"5v    c #C2B440",
"5w    c #D8D243",
"5x    c #3E3E2C",
"5y    c #292929",
"5z    c #292928",
"5A    c #252524",
"5B    c #212221",
"5C    c #2B2A2B",
"5D    c #564E1E",
"5E    c #333125",
"5F    c #292828",
"5G    c #292A29",
"5H    c #2A2A29",
"5I    c #74612F",
"5J    c #57462B",
"5K    c #D0CD66",
"5L    c #F7F070",
"5M    c #F8ED65",
"5N    c #FBE960",
"5O    c #FED34B",
"5P    c #FDB439",
"5Q    c #FDA530",
"5R    c #F9A432",
"5S    c #F7A02F",
"5T    c #E9942C",
"5U    c #544B38",
"5V    c #A38239",
"5W    c #3A3A3A",
"5X    c #424242",
"5Y    c #404040",
"5Z    c #41413D",
"5&    c #76691F",
"6     c #434239",
"60    c #373839",
"61    c #383837",
"62    c #454431",
"63    c #776B17",
"64    c #8E7F37",
"65    c #7F6931",
"66    c #68602B",
"67    c #675B25",
"68    c #6B652A",
"69    c #746A2F",
"6a    c #353327",
"6b    c #262626",
"6c    c #1D1C1D",
"6d    c #171818",
"6e    c #272625",
"6f    c #554F1C",
"6g    c #2B2B26",
"6h    c #292727",
"6i    c #282829",
"6j    c #292829",
"6k    c #8B7131",
"6l    c #4E402A",
"6m    c #D6B941",
"6n    c #FDD743",
"6o    c #FDD23E",
"6p    c #FDBD34",
"6q    c #FDA42A",
"6r    c #F89121",
"6s    c #F48C20",
"6t    c #EF8820",
"6u    c #D67A1C",
"6v    c #524835",
"6w    c #AA923C",
"6x    c #3B3B3A",
"6y    c #40403F",
"6z    c #434240",
"6A    c #766B27",
"6B    c #5C5A3E",
"6C    c #504D40",
"6D    c #6E6942",
"6E    c #908543",
"6F    c #837A2D",
"6G    c #756A15",
"6H    c #48442D",
"6I    c #333130",
"6J    c #302F30",
"6K    c #2D2C2D",
"6L    c #1A1919",
"6M    c #201F17",
"6N    c #7E7338",
"6O    c #49452C",
"6P    c #161718",
"6Q    c #1F1E1D",
"6R    c #4E4A1D",
"6S    c #2B2B2A",
"6T    c #2A292A",
"6U    c #29292A",
"6V    c #70582B",
"6W    c #5A452A",
"6X    c #BD852C",
"6Y    c #E4972A",
"6Z    c #E59D2A",
"6&    c #F5AC2C",
"7     c #FDA727",
"70    c #F4941E",
"71    c #DD7F17",
"72    c #CE7717",
"73    c #C87515",
"74    c #B96C14",
"75    c #5A4E37",
"76    c #A27F34",
"77    c #393A39",
"78    c #414342",
"79    c #3F4140",
"7a    c #635A3E",
"7b    c #D9C957",
"7c    c #D5C93A",
"7d    c #857B36",
"7e    c #615A32",
"7f    c #434233",
"7g    c #3B3B32",
"7h    c #6A6415",
"7i    c #423E2E",
"7j    c #313130",
"7k    c #2D2E2D",
"7l    c #1B1C1B",
"7m    c #181617",
"7n    c #282823",
"7o    c #6D643A",
"7p    c #6F663D",
"7q    c #1E1E1A",
"7r    c #1F1F19",
"7s    c #4D491A",
"7t    c #2D2C2B",
"7u    c #57492D",
"7v    c #8B5E2B",
"7w    c #38332E",
"7x    c #3C352D",
"7y    c #3D362E",
"7z    c #CCA237",
"7A    c #F79A20",
"7B    c #E38918",
"7C    c #A06219",
"7D    c #443D32",
"7E    c #453D34",
"7F    c #433D34",
"7G    c #70623C",
"7H    c #795F34",
"7I    c #3B3A3A",
"7J    c #434243",
"7K    c #414241",
"7L    c #49463E",
"7M    c #BDAD2A",
"7N    c #C2AE3F",
"7O    c #524E3A",
"7P    c #3A3935",
"7Q    c #676017",
"7R    c #333535",
"7S    c #333232",
"7T    c #2E2C2C",
"7U    c #1B1C1C",
"7V    c #212020",
"7W    c #212121",
"7X    c #4E4833",
"7Y    c #988C4F",
"7Z    c #4A462B",
"7&    c #4B461B",
"8     c #302F2E",
"80    c #2F302F",
"81    c #2E2F2F",
"82    c #343230",
"83    c #AA762A",
"84    c #4F4430",
"85    c #313231",
"86    c #C8A038",
"87    c #F3951F",
"88    c #D98313",
"89    c #975D18",
"8a    c #45453E",
"8b    c #AE954A",
"8c    c #494036",
"8d    c #3C3B3B",
"8e    c #434444",
"8f    c #45433F",
"8g    c #5F5A38",
"8h    c #A59439",
"8i    c #47463C",
"8j    c #3A3A3B",
"8k    c #3C3B37",
"8l    c #655D19",
"8m    c #4B4830",
"8n    c #363636",
"8o    c #232223",
"8p    c #262726",
"8q    c #1F1F1E",
"8r    c #44412A",
"8s    c #DBCF53",
"8t    c #C7B134",
"8u    c #393428",
"8v    c #323233",
"8w    c #333131",
"8x    c #323332",
"8y    c #4E4231",
"8z    c #AC7B2E",
"8A    c #4A4536",
"8B    c #353535",
"8C    c #BD9437",
"8D    c #E38A1D",
"8E    c #CB7C14",
"8F    c #91591A",
"8G    c #373739",
"8H    c #474642",
"8I    c #9B8E6C",
"8J    c #62553A",
"8K    c #3C3C3C",
"8L    c #3C3E3C",
"8M    c #454546",
"8N    c #434343",
"8O    c #434342",
"8P    c #414142",
"8Q    c #756C37",
"8R    c #A5994B",
"8S    c #43433D",
"8T    c #3D3E3B",
"8U    c #655F1A",
"8V    c #504B30",
"8W    c #3A3839",
"8X    c #252323",
"8Y    c #2B2C2B",
"8Z    c #373737",
"8&    c #2A2723",
"9     c #514823",
"90    c #7F6E31",
"91    c #AE9523",
"92    c #C49119",
"93    c #2C2920",
"94    c #303031",
"95    c #353636",
"96    c #353536",
"97    c #363535",
"98    c #494034",
"99    c #A57C33",
"9a    c #7D6D3B",
"9b    c #5F563B",
"9c    c #604F33",
"9d    c #5B4D32",
"9e    c #594B35",
"9f    c #6C6046",
"9g    c #AE9868",
"9h    c #64563C",
"9i    c #3E3D3E",
"9j    c #3E3E3F",
"9k    c #484748",
"9l    c #454440",
"9m    c #89813B",
"9n    c #998B47",
"9o    c #655D1D",
"9p    c #524D31",
"9q    c #3C3C3D",
"9r    c #363836",
"9s    c #242524",
"9t    c #383836",
"9u    c #4D4A3B",
"9v    c #696336",
"9w    c #6E6225",
"9x    c #463F1D",
"9y    c #383733",
"9z    c #3E3C38",
"9A    c #2C2C2D",
"9B    c #252423",
"9C    c #383939",
"9D    c #393839",
"9E    c #3E3B39",
"9F    c #625135",
"9G    c #977836",
"9H    c #A68333",
"9I    c #A17D33",
"9J    c #A37D32",
"9K    c #735B35",
"9L    c #48433B",
"9M    c #3D3F3E",
"9N    c #3F3E3E",
"9O    c #403F3F",
"9P    c #484849",
"9Q    c #454746",
"9R    c #444546",
"9S    c #4A4742",
"9T    c #9C9043",
"9U    c #887F4B",
"9V    c #655F1E",
"9W    c #544F32",
"9X    c #3E3F3E",
"9Y    c #3B382C",
"9Z    c #7C723E",
"9&    c #7F742F",
"a     c #30302B",
"a0    c #212022",
"a1    c #3A3B3A",
"a2    c #2B2C2D",
"a3    c #2D2B2C",
"a4    c #3C3C3B",
"a5    c #3C3D3B",
"a6    c #3E3F3D",
"a7    c #403E3E",
"a8    c #3F403F",
"a9    c #4C4B4B",
"aa    c #4B4B4B",
"ab    c #4A484A",
"ac    c #474847",
"ad    c #464645",
"ae    c #515041",
"af    c #B7A95A",
"ag    c #898130",
"ah    c #675F32",
"ai    c #5C583F",
"aj    c #8B833E",
"ak    c #776D2C",
"al    c #524D36",
"am    c #43423F",
"an    c #282626",
"ao    c #2E2D2D",
"ap    c #3B3C3B",
"aq    c #282929",
"ar    c #40403E",
"as    c #403E3F",
"at    c #41403F",
"au    c #404042",
"av    c #414143",
"aw    c #444543",
"ax    c #4A4A4B",
"ay    c #494A4B",
"az    c #49494A",
"aA    c #817A52",
"aB    c #CEC770",
"aC    c #DABE23",
"aD    c #6F6420",
"aE    c #393721",
"aF    c #3E3E3B",
"aG    c #242525",
"aH    c #343434",
"aI    c #333233",
"aJ    c #2E2D2E",
"aK    c #414041",
"aL    c #414242",
"aM    c #29282A",
"aN    c #424243",
"aO    c #424443",
"aP    c #434344",
"aQ    c #434543",
"aR    c #454445",
"aS    c #464745",
"aT    c #4F4F50",
"aU    c #4F4F4E",
"aV    c #4C4B4D",
"aW    c #4A4C4B",
"aX    c #71663E",
"aY    c #F6CD2A",
"aZ    c #E8C31D",
"a&    c #504A35",
"b     c #302E2F",
"b0    c #434544",
"b1    c #464647",
"b2    c #313232",
"b3    c #2C2D2D",
"b4    c #464644",
"b5    c #444646",
"b6    c #464546",
"b7    c #464547",
"b8    c #484847",
"b9    c #535352",
"ba    c #504F4F",
"bb    c #4F4E4F",
"bc    c #4E4E4C",
"bd    c #7C703D",
"be    c #605A42",
"bf    c #323331",
"bg    c #4B4B49",
"bh    c #4A4848",
"bi    c #303231",
"bj    c #414240",
"bk    c #484749",
"bl    c #313031",
"bm    c #4A4849",
"bn    c #4A4A4A",
"bo    c #4C4B4C",
"   0 1 2 3 4 5 6 7 8 9 a b c d e f g h i j k l m n o p p q r s s t u v w x y z A B",
" C D E F G H I J K L M N O P Q R S T U U V W X Y Z &0 00010200030 0400050607080609",
"0a0b0c0d0e0f0g0h0i0j0k0l0m0n0o0p0q0r0s0t0u0v0w0x0y0z0A0B0C0C0D0B0E0z0E0z0F0G0H0H0I",
"0J0K0L0M0N0O0P0Q0 0R0S0T0G0U0V0D0W0X0Y0Z0&1 101112131415161718121912161a1b111c1d1c",
"1e1f1g1h1i1j1k1l1m1n1o1p1q1r1s1t1u1v1w1x1y1z1A1B1C1D1D1E1F1E1G1H1I1J1K1L1M1t1N141O",
"1P1Q1R1S1T1U1V1W1X1Y1Z1&2 202122232425262728292a2b2c2d2e2f2g2h2i2j2k2l1G2m2n2o2p2q",
"0x2r2s2t192u2v2w2x2y2z2A2B2C2D2E2F2G2H2I2J2K2L2M2N2O2P2N2Q2R2S2T2U2V2W2X2Y2Z2&3 30",
"1c313233342n35363738393a3b3c3d3e3f3g3h3i3j3k3l3m3n3o3m y3p3q3r3s3t3u3v3w3x3y3z3A3B",
"191v3C3D3 3E3A3F3G3H3I3J3K3L3M3N3O3P3Q3R3S3T3U3V3V3V3W3X3Y3Z3N3&4 4041424344454647",
"1L48494a474b4c4d4e4f4g4h3P4i4j4k4l4m4n4o4p4q4r4s4t4u4v4w4x4y4z4A4B4C4D4E4F4G4H4I4J",
"4K4L4M4N4O4P4Q3h4R4S4T4U4V4W4X4Y4Z4&5 505152535455565758595a5b5c5d5e5f5g1x5h5i5j5k",
"4L3B5l5m5n5o5p3o5q5r5s5t5u5v5w5x5y5z5A5B5C5D5E5F5G5H5I5J5K5L5M5N5O5P5Q5R5S5T5U5V5W",
"5X5Y5Z5&6 42606162636465666768696a6b6c6d6e6f6g6h6i6j6k6l6m6n6n6o6p6q6r6s6t6u6v6w6x",
"2&6y6z6A6B6C6D6E6F6G6H6I6J6K6L6M6N6O6L6P6Q6R6S5H6T6U6V6W6X6Y6Z6&7 7071727374757677",
"78797a7b7c7d7e7f7g7h7i4y7j7k7l7m7n7o7p7q7r7s516K7t567u7v7w7x7y7z7A7B7C7D7E7F7G7H7I",
"7J7K7L7M7N7O7I5p7P7Q3T7R7S7T7U7V7W4u7X7Y7Z7&8 804p818283844V85868788893o3j8a8b8c8d",
"8e4L3B8f8g8h8i8j8k8l8m8n3O6S8o4k8p5H8q8r8s8t8u8v8w8x8v8y8z8A8B8C8D8E8F8G8H8I8J8K8L",
"8M8N8O8P3E8Q8R8S8T8U8V8W3i8X8Y8Z3V8&9 90919293943N95969798999a9b9c9d9e9f9g9h8T9i9j",
"9k1v2p1E2m9l9m9n5Z9o9p9q9r9s9t9u9v9w9x9y9z9z9A9B3S9C9C z9D9E9F9G9H9I9J9K9L9M9N9O3B",
"9P181N9Q9R1D9S9T9U9V9W9X4y9Y9Z9&9Wa a04V8K8Ka1a2a38ja4a58da44J9qa6a73A9Oa83B3B2&4L",
"a9aaab18ac1Madaeafagahaiajakalam8Kanao9A779O6yapaq7j479Xaras2d2fat5Yau3 av8N8N2 aw",
"0y0D1daxayaz19acaAaBaCaDaEaF1I1G4baGaHaIaJaKaL8P4FaM5W8O7JaN8N8NaO2maPaQaR2p2qaS1v",
"aT0vaU0F0yaV1daWaXaYaZa&b b01Mb17I5za4aOb25W2q1K1K8Zb36yb42qb5b6adb7b71v14b819b89P",
"b90 0800babb0G0ybcbdbebf5pbgaxbhbi501v124Laobj9kbk1&4yblb6131X16bm1q151pbnax111obo"};
