/* XPM */
static char *DELSHELL_xpm[]={
"41 24 808 2",
"      c #696A68",
" 0    c #676767",
" 1    c #666867",
" 2    c #666766",
" 3    c #646566",
" 4    c #646364",
" 5    c #626463",
" 6    c #636263",
" 7    c #616262",
" 8    c #606061",
" 9    c #605F5F",
" a    c #5F5F5F",
" b    c #69695C",
" c    c #A4A25C",
" d    c #8D8C58",
" e    c #5E5E5B",
" f    c #5B5B5C",
" g    c #5B5A5B",
" h    c #5A5B59",
" i    c #595A59",
" j    c #585959",
" k    c #595958",
" l    c #575757",
" m    c #585758",
" n    c #575858",
" o    c #565657",
" p    c #565656",
" q    c #555755",
" r    c #555555",
" s    c #565655",
" t    c #555556",
" u    c #727155",
" v    c #727167",
" w    c #868570",
" x    c #727367",
" y    c #656661",
" z    c #6A6761",
" A    c #716E5E",
" B    c #78735B",
" C    c #7E7855",
" D    c #81794E",
" E    c #918248",
" F    c #96863F",
" G    c #917F36",
" H    c #907F2F",
" I    c #DFCD34",
" J    c #DCCF45",
" K    c #7E7756",
" L    c #5A5B56",
" M    c #555554",
" N    c #545455",
" O    c #555553",
" P    c #545454",
" Q    c #545253",
" R    c #535353",
" S    c #525252",
" T    c #515251",
" U    c #525152",
" V    c #515151",
" W    c #525151",
" X    c #525051",
" Y    c #525251",
" Z    c #525250",
" &    c #515252",
"0     c #525352",
"00    c #535251",
"01    c #515152",
"02    c #525353",
"03    c #B99C44",
"04    c #F7EC51",
"05    c #E0D746",
"06    c #AB9941",
"07    c #A59538",
"08    c #988732",
"09    c #927F32",
"0a    c #8B7F30",
"0b    c #79703B",
"0c    c #6D6643",
"0d    c #676245",
"0e    c #605E4B",
"0f    c #595850",
"0g    c #837C35",
"0h    c #7B743E",
"0i    c #887E3F",
"0j    c #A99E53",
"0k    c #7E7755",
"0l    c #585750",
"0m    c #4E4F50",
"0n    c #4E4E4E",
"0o    c #4F4F4F",
"0p    c #4D4E4F",
"0q    c #4E4E4D",
"0r    c #4D4D4D",
"0s    c #4D4D4C",
"0t    c #4C4D4D",
"0u    c #4D4C4C",
"0v    c #4D4C4D",
"0w    c #4C4C4C",
"0x    c #4D4E4C",
"0y    c #4D4D4E",
"0z    c #4E4F4E",
"0A    c #4E4E4F",
"0B    c #4E4F4F",
"0C    c #897645",
"0D    c #E5D025",
"0E    c #CAB83B",
"0F    c #857F4D",
"0G    c #5C5C51",
"0H    c #575753",
"0I    c #555354",
"0J    c #535252",
"0K    c #515050",
"0L    c #4F514F",
"0M    c #504E4F",
"0N    c #696136",
"0O    c #5B5742",
"0P    c #4C4C4B",
"0Q    c #545246",
"0R    c #847C3C",
"0S    c #AB9F54",
"0T    c #878057",
"0U    c #5B594C",
"0V    c #51524A",
"0W    c #4D4E4A",
"0X    c #494A4A",
"0Y    c #484949",
"0Z    c #494948",
"0&    c #474848",
"1     c #494849",
"10    c #484948",
"11    c #474948",
"12    c #494947",
"13    c #484848",
"14    c #4A4949",
"15    c #4A4B4B",
"16    c #4A4B4A",
"17    c #4B4B4C",
"18    c #4B4C4B",
"19    c #585855",
"1a    c #756C28",
"1b    c #786C34",
"1c    c #988C3D",
"1d    c #8E8A5A",
"1e    c #535352",
"1f    c #504F4E",
"1g    c #4E4D4D",
"1h    c #4C4C4D",
"1i    c #4D4C4B",
"1j    c #4B4B4A",
"1k    c #49484A",
"1l    c #685F33",
"1m    c #59553C",
"1n    c #474747",
"1o    c #464747",
"1p    c #464745",
"1q    c #4F4B42",
"1r    c #7E7540",
"1s    c #B9AD52",
"1t    c #DCD753",
"1u    c #CEBA57",
"1v    c #5A5548",
"1w    c #454344",
"1x    c #444343",
"1y    c #444344",
"1z    c #434445",
"1A    c #444443",
"1B    c #444544",
"1C    c #444445",
"1D    c #595959",
"1E    c #6E6E6E",
"1F    c #535151",
"1G    c #474646",
"1H    c #474748",
"1I    c #494949",
"1J    c #625D34",
"1K    c #796E2F",
"1L    c #83793D",
"1M    c #A29C5B",
"1N    c #56574E",
"1O    c #494748",
"1P    c #484647",
"1Q    c #454547",
"1R    c #454545",
"1S    c #434443",
"1T    c #675E31",
"1U    c #554F39",
"1V    c #484642",
"1W    c #585441",
"1X    c #635D3C",
"1Y    c #6C6334",
"1Z    c #7E722E",
"1&    c #82752B",
"2     c #CAAB32",
"20    c #F5AC46",
"21    c #5B4F40",
"22    c #3F4040",
"23    c #403F40",
"24    c #3E3F3F",
"25    c #3F3F3E",
"26    c #3F3F40",
"27    c #414142",
"28    c #4A4A4A",
"29    c #686467",
"2a    c #A8A3A9",
"2b    c #DFDADF",
"2c    c #8C8486",
"2d    c #656162",
"2e    c #565454",
"2f    c #474645",
"2g    c #454544",
"2h    c #464545",
"2i    c #595639",
"2j    c #786B26",
"2k    c #4B4A4A",
"2l    c #6E663C",
"2m    c #B2AA5E",
"2n    c #6E6F5B",
"2o    c #6F705D",
"2p    c #55564E",
"2q    c #4D4B41",
"2r    c #5F5940",
"2s    c #7D7031",
"2t    c #8E7F2D",
"2u    c #897D27",
"2v    c #7F701F",
"2w    c #6D6224",
"2x    c #645E28",
"2y    c #504C34",
"2z    c #454239",
"2A    c #7E6E2E",
"2B    c #725F40",
"2C    c #413D3C",
"2D    c #3B3B3C",
"2E    c #3A3B3C",
"2F    c #3A3B3B",
"2G    c #3D3B3C",
"2H    c #504D4F",
"2I    c #959197",
"2J    c #DBD6DA",
"2K    c #F2EEF4",
"2L    c #DCD5DE",
"2M    c #B8AFB5",
"2N    c #9C9396",
"2O    c #837A7A",
"2P    c #675D5A",
"2Q    c #4C4540",
"2R    c #41413D",
"2S    c #51503E",
"2T    c #786920",
"2U    c #484846",
"2V    c #464444",
"2W    c #6D653A",
"2X    c #F2DB6B",
"2Y    c #FAEE87",
"2Z    c #DFCC5B",
"2&    c #928333",
"3     c #877920",
"30    c #7C6E1F",
"31    c #7F7318",
"32    c #625B24",
"33    c #525030",
"34    c #3E3C36",
"35    c #393939",
"36    c #393738",
"37    c #383738",
"38    c #383737",
"39    c #625827",
"3a    c #3E3C37",
"3b    c #363737",
"3c    c #373637",
"3d    c #373736",
"3e    c #373737",
"3f    c #3A393B",
"3g    c #8D8589",
"3h    c #B1A9A4",
"3i    c #AAA2A0",
"3j    c #9B9191",
"3k    c #908786",
"3l    c #7A6F6F",
"3m    c #615652",
"3n    c #4E433B",
"3o    c #40362D",
"3p    c #342A21",
"3q    c #2C2117",
"3r    c #342D26",
"3s    c #4A4A40",
"3t    c #796C1B",
"3u    c #494741",
"3v    c #424142",
"3w    c #414140",
"3x    c #4C493C",
"3y    c #EEBB17",
"3z    c #FED119",
"3A    c #EDC41A",
"3B    c #615829",
"3C    c #494631",
"3D    c #3A3935",
"3E    c #635929",
"3F    c #454131",
"3G    c #353534",
"3H    c #343535",
"3I    c #353434",
"3J    c #333435",
"3K    c #343333",
"3L    c #5D552A",
"3M    c #363434",
"3N    c #635735",
"3O    c #3C3832",
"3P    c #333332",
"3Q    c #323333",
"3R    c #323432",
"3S    c #343435",
"3T    c #454040",
"3U    c #61564C",
"3V    c #675C48",
"3W    c #483C36",
"3X    c #3E312B",
"3Y    c #3B2F29",
"3Z    c #392D24",
"3&    c #342A1F",
"4     c #30241A",
"40    c #2F2318",
"41    c #2E231B",
"42    c #3D3B3B",
"43    c #464646",
"44    c #474741",
"45    c #786D1D",
"46    c #504B3B",
"47    c #3F3E3F",
"48    c #3D3D3E",
"49    c #3D3E3B",
"4a    c #8A7429",
"4b    c #D8B417",
"4c    c #A18825",
"4d    c #3D3D35",
"4e    c #353535",
"4f    c #5D5527",
"4g    c #3F3B2D",
"4h    c #303131",
"4i    c #312F31",
"4j    c #303030",
"4k    c #2F3030",
"4l    c #31312F",
"4m    c #33322F",
"4n    c #584F26",
"4o    c #302F30",
"4p    c #AC8332",
"4q    c #C77C2B",
"4r    c #56432F",
"4s    c #31302F",
"4t    c #313131",
"4u    c #313031",
"4v    c #383736",
"4w    c #6B645D",
"4x    c #736C61",
"4y    c #5B4E46",
"4z    c #3A3028",
"4A    c #382C25",
"4B    c #362B24",
"4C    c #30261B",
"4D    c #291F13",
"4E    c #291E13",
"4F    c #302B25",
"4G    c #3D3C3D",
"4H    c #444345",
"4I    c #434342",
"4J    c #6D6323",
"4K    c #575136",
"4L    c #3E3D3D",
"4M    c #3C3B3C",
"4N    c #3A393A",
"4O    c #3E3C35",
"4P    c #6D6515",
"4Q    c #4B472D",
"4R    c #343433",
"4S    c #323131",
"4T    c #353532",
"4U    c #6B622C",
"4V    c #4A492E",
"4W    c #2D2E2E",
"4X    c #2C2C2C",
"4Y    c #2C2C2B",
"4Z    c #2D2C2C",
"4&    c #35342D",
"5     c #534D25",
"50    c #2B2D2C",
"51    c #AC7F2F",
"52    c #DA781A",
"53    c #E68324",
"54    c #895C2A",
"55    c #34312D",
"56    c #2E2E2E",
"57    c #323132",
"58    c #6F6767",
"59    c #786F6A",
"5a    c #6F665D",
"5b    c #3C3028",
"5c    c #382D24",
"5d    c #392D26",
"5e    c #2E2318",
"5f    c #251910",
"5g    c #251C10",
"5h    c #33312D",
"5i    c #3B3C3C",
"5j    c #424342",
"5k    c #404041",
"5l    c #665F23",
"5m    c #5F572E",
"5n    c #3B3D3C",
"5o    c #393A3A",
"5p    c #383839",
"5q    c #3B3A33",
"5r    c #6A6217",
"5s    c #4A472E",
"5t    c #333333",
"5u    c #464134",
"5v    c #6D6535",
"5w    c #DFD657",
"5x    c #A3A23B",
"5y    c #292929",
"5z    c #282827",
"5A    c #222121",
"5B    c #272827",
"5C    c #363329",
"5D    c #49441C",
"5E    c #29292A",
"5F    c #AD7F2D",
"5G    c #E07F1A",
"5H    c #E27F1A",
"5I    c #E57A1D",
"5J    c #BC7024",
"5K    c #4D3C2C",
"5L    c #2F2E2F",
"5M    c #736C6E",
"5N    c #877F7F",
"5O    c #7F7370",
"5P    c #3F352E",
"5Q    c #423830",
"5R    c #433833",
"5S    c #2B2016",
"5T    c #24180E",
"5U    c #251B11",
"5V    c #363433",
"5W    c #3A3A3A",
"5X    c #424242",
"5Y    c #404040",
"5Z    c #59552A",
"5&    c #6A5F2A",
"6     c #3A3C3B",
"60    c #3A3939",
"61    c #373839",
"62    c #3C3B36",
"63    c #675E1B",
"64    c #76692E",
"65    c #907F3A",
"66    c #7D6C30",
"67    c #554D2A",
"68    c #887F27",
"69    c #706830",
"6a    c #56502B",
"6b    c #2B2B27",
"6c    c #242424",
"6d    c #171618",
"6e    c #1D1E1D",
"6f    c #3B3825",
"6g    c #3F3C1E",
"6h    c #272829",
"6i    c #AB7B2A",
"6j    c #E3801B",
"6k    c #EC871D",
"6l    c #D97B18",
"6m    c #E08735",
"6n    c #CF7B23",
"6o    c #5E4528",
"6p    c #726C6E",
"6q    c #8E8688",
"6r    c #837876",
"6s    c #4C423B",
"6t    c #524644",
"6u    c #23170E",
"6v    c #261D13",
"6w    c #383836",
"6x    c #3B3B3B",
"6y    c #424141",
"6z    c #40403F",
"6A    c #545037",
"6B    c #81742B",
"6C    c #45463E",
"6D    c #656146",
"6E    c #7F7841",
"6F    c #897B35",
"6G    c #776E1A",
"6H    c #5F5526",
"6I    c #393831",
"6J    c #282628",
"6K    c #181716",
"6L    c #403B24",
"6M    c #7B7243",
"6N    c #282720",
"6O    c #181717",
"6P    c #171819",
"6Q    c #3F3B20",
"6R    c #3A3824",
"6S    c #2B2A2A",
"6T    c #A97B2A",
"6U    c #D47615",
"6V    c #E68822",
"6W    c #EFA759",
"6X    c #CE873E",
"6Y    c #6F4A1F",
"6Z    c #332F2C",
"6&    c #656061",
"7     c #92898B",
"70    c #897E7F",
"71    c #443933",
"72    c #504640",
"73    c #5D5151",
"74    c #2A2015",
"75    c #23180D",
"76    c #282018",
"77    c #393838",
"78    c #393A39",
"79    c #414342",
"7a    c #3F4140",
"7b    c #B5A352",
"7c    c #E5D744",
"7d    c #9C9139",
"7e    c #756D37",
"7f    c #504B33",
"7g    c #3B3B35",
"7h    c #605B1A",
"7i    c #514C28",
"7j    c #343332",
"7k    c #323231",
"7l    c #313130",
"7m    c #2A2A2A",
"7n    c #171717",
"7o    c #1B1A1B",
"7p    c #3E3B2B",
"7q    c #8B814C",
"7r    c #3C372B",
"7s    c #181917",
"7t    c #44401B",
"7u    c #363528",
"7v    c #2D2D2D",
"7w    c #AC7C2C",
"7x    c #E18A30",
"7y    c #E5A257",
"7z    c #A16724",
"7A    c #463729",
"7B    c #2F2F2E",
"7C    c #605B5A",
"7D    c #9E9890",
"7E    c #8F8381",
"7F    c #463B35",
"7G    c #524944",
"7H    c #5C5350",
"7I    c #281E14",
"7J    c #22190E",
"7K    c #2B231B",
"7L    c #3B3A3A",
"7M    c #434243",
"7N    c #414241",
"7O    c #877831",
"7P    c #BDAB2E",
"7Q    c #837736",
"7R    c #3E3D3B",
"7S    c #5A551D",
"7T    c #534D28",
"7U    c #353536",
"7V    c #333535",
"7W    c #333232",
"7X    c #262424",
"7Y    c #1E1F1E",
"7Z    c #1D1C1B",
"7&    c #37352D",
"8     c #766A3C",
"80    c #555037",
"81    c #585120",
"82    c #353429",
"83    c #302F2F",
"84    c #AA7E2C",
"85    c #CF852D",
"86    c #714D21",
"87    c #35312F",
"88    c #4D4A48",
"89    c #897F7F",
"8a    c #8E817F",
"8b    c #473C34",
"8c    c #564B46",
"8d    c #5C504D",
"8e    c #271B11",
"8f    c #24190F",
"8g    c #2E2924",
"8h    c #3B3B3A",
"8i    c #3C3B3B",
"8j    c #434444",
"8k    c #444340",
"8l    c #4B483D",
"8m    c #8A7B28",
"8n    c #69623B",
"8o    c #3C3D3C",
"8p    c #3A3A3B",
"8q    c #5A541F",
"8r    c #655C24",
"8s    c #383837",
"8t    c #363636",
"8u    c #212221",
"8v    c #2D2C2D",
"8w    c #2B2C2C",
"8x    c #222322",
"8y    c #2A2A29",
"8z    c #22211E",
"8A    c #9F953D",
"8B    c #D5C345",
"8C    c #947D23",
"8D    c #80662E",
"8E    c #4C3C2A",
"8F    c #333331",
"8G    c #323233",
"8H    c #323433",
"8I    c #343335",
"8J    c #423F3E",
"8K    c #726869",
"8L    c #857B7F",
"8M    c #4D423D",
"8N    c #584D4A",
"8O    c #584D4C",
"8P    c #251A10",
"8Q    c #24190E",
"8R    c #322F2A",
"8S    c #3C3C3C",
"8T    c #3C3E3C",
"8U    c #454546",
"8V    c #434343",
"8W    c #4E4C3A",
"8X    c #B1A246",
"8Y    c #5D5941",
"8Z    c #3D3E3D",
"8&    c #555326",
"9     c #645D24",
"90    c #3A3A39",
"91    c #3A3839",
"92    c #212020",
"93    c #2E2E2C",
"94    c #4A422B",
"95    c #796A2B",
"96    c #7D6E2C",
"97    c #CFA41D",
"98    c #69511E",
"99    c #272725",
"9a    c #353636",
"9b    c #363535",
"9c    c #373636",
"9d    c #413D3D",
"9e    c #6D6364",
"9f    c #897F82",
"9g    c #524942",
"9h    c #5D524E",
"9i    c #544945",
"9j    c #25190E",
"9k    c #23190D",
"9l    c #363430",
"9m    c #3E3D3E",
"9n    c #3E3E3F",
"9o    c #484748",
"9p    c #464746",
"9q    c #424443",
"9r    c #5B573C",
"9s    c #B8AC53",
"9t    c #56523E",
"9u    c #535029",
"9v    c #665C24",
"9w    c #2A2C2B",
"9x    c #2A2B29",
"9y    c #3F3E3A",
"9z    c #61593F",
"9A    c #807332",
"9B    c #645921",
"9C    c #3B3826",
"9D    c #3E3C38",
"9E    c #252526",
"9F    c #30302F",
"9G    c #383938",
"9H    c #383939",
"9I    c #393839",
"9J    c #685F5E",
"9K    c #776E6F",
"9L    c #4C433C",
"9M    c #534844",
"9N    c #483E36",
"9O    c #24190D",
"9P    c #241B0F",
"9Q    c #3B3937",
"9R    c #403F3F",
"9S    c #484849",
"9T    c #454746",
"9U    c #444546",
"9V    c #454343",
"9W    c #6F683A",
"9X    c #BBAD59",
"9Y    c #5E592D",
"9Z    c #6F6722",
"9&    c #3F3F3F",
"a     c #3B3C3B",
"a0    c #313028",
"a1    c #615A38",
"a2    c #8C7D35",
"a3    c #6A6231",
"a4    c #3A382D",
"a5    c #20201F",
"a6    c #252425",
"a7    c #3D3C3C",
"a8    c #333433",
"a9    c #222324",
"aa    c #353435",
"ab    c #3C3C3B",
"ac    c #3C3D3B",
"ad    c #403E3E",
"ae    c #454240",
"af    c #3D3530",
"ag    c #3D352F",
"ah    c #372E26",
"ai    c #2E261C",
"aj    c #393431",
"ak    c #4C4B4B",
"al    c #4B4B4B",
"am    c #4A484A",
"an    c #474847",
"ao    c #474844",
"ap    c #857F46",
"aq    c #B0A245",
"ar    c #7F7523",
"as    c #545140",
"at    c #706A3B",
"au    c #7D712B",
"av    c #655D30",
"aw    c #47453D",
"ax    c #2F2F2F",
"ay    c #242222",
"az    c #2C2B2B",
"aA    c #323232",
"aB    c #3E3F3E",
"aC    c #2D2F2D",
"aD    c #292A2A",
"aE    c #40403E",
"aF    c #403E3F",
"aG    c #41403F",
"aH    c #404042",
"aI    c #414042",
"aJ    c #414143",
"aK    c #444543",
"aL    c #4A4A4B",
"aM    c #494A4B",
"aN    c #49494A",
"aO    c #565445",
"aP    c #DACF83",
"aQ    c #D7C22E",
"aR    c #A08D21",
"aS    c #4B4625",
"aT    c #33332E",
"aU    c #41413F",
"aV    c #272928",
"aW    c #414242",
"aX    c #2A2929",
"aY    c #333234",
"aZ    c #404141",
"a&    c #424243",
"b     c #424343",
"b0    c #434344",
"b1    c #434543",
"b2    c #454445",
"b3    c #4F4F50",
"b4    c #4F4F4E",
"b5    c #4C4B4D",
"b6    c #505049",
"b7    c #D4B12B",
"b8    c #FAD11D",
"b9    c #887A2F",
"ba    c #2E2D2E",
"bb    c #3F3D3F",
"bc    c #272726",
"bd    c #444444",
"be    c #393B3A",
"bf    c #464546",
"bg    c #454645",
"bh    c #2B2A2B",
"bi    c #3C3D3D",
"bj    c #464644",
"bk    c #444646",
"bl    c #464645",
"bm    c #464547",
"bn    c #484847",
"bo    c #504F4F",
"bp    c #4F4E4F",
"bq    c #6A6243",
"br    c #786E40",
"bs    c #41403D",
"bt    c #2B2B2B",
"bu    c #4B4B49",
"bv    c #262827",
"bw    c #494A49",
"bx    c #373837",
"by    c #474846",
"bz    c #484648",
"bA    c #2D2D2C",
"bB    c #4A4849",
"bC    c #4C4B4C",
"   0 1 2 3 4 5 6 7 8 9 a b c d e f g h i j k l m n o p p q r s s t u f g h i j k l",
" v w x y z A B C D E F G H I J K L M N N O P Q R S T U V W X V Y U Z V &0 00010 02",
"030405060708090a0b0c0d0e0f0g0h0i0j0k0l0m0n0o0p0q0r0s0t0u0v0v0w0u0x0s0x0s0y0z0A0A0B",
"0C0D0E0F0G0H0I0J U0K0L0M0z0N0O0P0Q0R0S0T0U0V0W0X0Y0Z0&1 1011120Y130Y10141516171817",
"191a1b1c1d1e1f1g1h1i1j0X1k1l1m1n1o1p1q1r1s1t1u1v1w1x1x1y1z1y1A1B1C1D1E1F1G1n1H0&1I",
"1F1J1K0V1L1M1N1I1O1P1Q1R1S1T1U1V1W1X1Y1Z1&2 20212223242522262728292a2b2c2d2e2f2g2h",
"0q2i2j2k122l2m2n2o2p1x2q2r2s2t2u2v2w2x2y2z2A2B2C2D2E2F2D2G2H2I2J2K2K2L2M2N2O2P2Q2R",
"172S2T2U2V1B2W2X2Y2Z2&3 303132333435363738393a3b3c3d3b3e3f3g3h3i3j3k3l3m3n3o3p3q3r",
"133s3t3u3v3w3x3y3z3A3B3C3D3E3F3G3H3I3J3K3G3L3M3N3O3P3Q3R3S3T3U3V3W3X3Y3Z3&4 404142",
"434445464748494a4b4c4d4e3I4f4g4h4i4j4k4l4m4n4o4p4q4r4s4t4u4v4w4x4y4z4A4B4C4D4E4F4G",
"4H4I4J4K4L4M4N4O4P4Q4R4S4T4U4V4W4X4Y4Y4Z4&5 505152535455565758595a5b5c5d5e5f5g5h5i",
"5j5k5l5m5n5o5p5q5r5s5t5u5v5w5x4Y5y5z5A5B5C5D5E5F5G5H5I5J5K5L5M5N5O5P5Q5R5S5T5U5V5W",
"5X5Y5Z5&6 606162636465666768696a6b6c6d6e6f6g6h6i6j6k6l6m6n6o6p6q6r5Q6s6t3q6u6v6w6x",
"6y6z6A6B6C6D6E6F6G6H6I4u4o6J6K6L6M6N6O6P6Q6R6S6T6U6V6W6X6Y6Z6&7 707172737475767778",
"797a7b7c7d7e7f7g7h7i7j7k7l7m7n7o7p7q7r7s7t7u7v7w7x7y7z7A5L7B7C7D7E7F7G7H7I7J7K5o7L",
"7M7N7O7P7Q7R7L5p7S7T7U7V7W7X7Y7Z5y7&8 80818283848586874k4h4t88898a8b8c8d8e8f8g8h8i",
"8j5j8k8l8m8n8o8p8q8r8s8t4t8u8v8w8x8y8z8A8B8C4t8D8E8F8G5t8H8I8J8K8L8M8N8O8P8Q8R8S8T",
"8U8V4I278W8X8Y8Z8&9 90914u928H3e939495969798994e3G9a7U9b9a9c9d9e9f9g9h9i9j9k9l9m9n",
"9o9p2g1y9q9r9s9t9u9v4G2D9w9x9y9z9A9B9C609D389E9F9G9H9H9G9I4N7R9J9K9L9M9N9O9P9Q9R5k",
"9S121H9T9U9V9W9X9Y9Z9&a a0a1a2a3a4a5a635a75ia8a9aa2Dabac8iab4Gadaeafagahaiaj236y5j",
"akalam12an1Gaoapaqarasatauavaw3waxayazaAaB9R9&aCaD8o9&aBaEaF2422aG5YaHaIaJ8V8V1SaK",
"0r0w18aLaMaN13aOaPaQaRaSaT1A1CaU7maV488v7L3vaW48aXaYaZ4I7Ma&8V8V9qb b0b1b22g2h1p9p",
"b30ob40y0rb518b6b7b8b9babb0&1G5kbc3Ibdbe8w5Xbfbg24bhbi2gbj2hbkbfblbmbm9p0&bn13bn9S",
"1e U01 Vbobp0z0rbqbrbsbt1RbuaL4Lbv8ibw0&bx7Lby13bz8tbAa&9o0Z1O10bB1k1 0X28aL161jbC"};
