/* XPM */
static char *SWITCH_xpm[]={
"41 24 820 2",
"      c #696A68",
" 0    c #676767",
" 1    c #666867",
" 2    c #666766",
" 3    c #646566",
" 4    c #646364",
" 5    c #626463",
" 6    c #636263",
" 7    c #616262",
" 8    c #606061",
" 9    c #605F5F",
" a    c #5E5E5F",
" b    c #5D5E5D",
" c    c #5E5D5D",
" d    c #5D5E5C",
" e    c #5C5C5B",
" f    c #5B5B5C",
" g    c #5B5A5B",
" h    c #5A5B59",
" i    c #595A59",
" j    c #585959",
" k    c #595958",
" l    c #575757",
" m    c #585758",
" n    c #575858",
" o    c #565657",
" p    c #565656",
" q    c #555755",
" r    c #555555",
" s    c #565655",
" t    c #555556",
" u    c #B81E55",
" v    c #8E0726",
" w    c #76FFD8",
" x    c #016A0C",
" y    c #024E9A",
" z    c #0B0732",
" A    c #0575C0",
" B    c #0005B8",
" C    c #636264",
" D    c #616362",
" E    c #606161",
" F    c #615F60",
" G    c #5F5F5F",
" H    c #5E5F5E",
" I    c #5C5D5D",
" J    c #5B5C5C",
" K    c #595A5B",
" L    c #5A5859",
" M    c #595758",
" N    c #575856",
" O    c #575657",
" P    c #555655",
" Q    c #555554",
" R    c #545455",
" S    c #555553",
" T    c #545454",
" U    c #545253",
" V    c #575854",
" W    c #838A5D",
" X    c #53564E",
" Y    c #525152",
" Z    c #515151",
" &    c #525151",
"0     c #525051",
"00    c #525251",
"01    c #525250",
"02    c #515252",
"03    c #525352",
"04    c #535251",
"05    c #515152",
"06    c #525353",
"07    c #5E5D5F",
"08    c #5D5D5C",
"09    c #5D5B5C",
"0a    c #5B5B5A",
"0b    c #5A5A5A",
"0c    c #595858",
"0d    c #5B5B56",
"0e    c #575754",
"0f    c #535454",
"0g    c #535354",
"0h    c #515051",
"0i    c #505250",
"0j    c #505050",
"0k    c #4E4F50",
"0l    c #4E4E4E",
"0m    c #4F4F4F",
"0n    c #4D4E4F",
"0o    c #737655",
"0p    c #A4C34B",
"0q    c #45493C",
"0r    c #4C4D4C",
"0s    c #4D4C4C",
"0t    c #4D4C4D",
"0u    c #4C4C4C",
"0v    c #4D4E4C",
"0w    c #4D4D4C",
"0x    c #4D4D4E",
"0y    c #4E4F4E",
"0z    c #4E4E4F",
"0A    c #4E4F4F",
"0B    c #5B5959",
"0C    c #595859",
"0D    c #575857",
"0E    c #555656",
"0F    c #555354",
"0G    c #5B5850",
"0H    c #756C47",
"0I    c #CDC346",
"0J    c #9E9B54",
"0K    c #595651",
"0L    c #4F504E",
"0M    c #4B4B4B",
"0N    c #4B4C4A",
"0O    c #4B4A4A",
"0P    c #4A4A4A",
"0Q    c #4A4A49",
"0R    c #4A4B4A",
"0S    c #A3AF5C",
"0T    c #67832D",
"0U    c #2B2B2A",
"0V    c #464646",
"0W    c #494849",
"0X    c #484948",
"0Y    c #474948",
"0Z    c #494947",
"0&    c #484949",
"1     c #484848",
"10    c #4A4949",
"11    c #4A4B4B",
"12    c #4B4B4C",
"13    c #4B4C4B",
"14    c #565756",
"15    c #5E5A51",
"16    c #8B855C",
"17    c #7F7F5C",
"18    c #736D4A",
"19    c #83793F",
"1a    c #8A7C36",
"1b    c #807131",
"1c    c #6B633C",
"1d    c #99892C",
"1e    c #7A7548",
"1f    c #8E8350",
"1g    c #867E51",
"1h    c #666250",
"1i    c #4B4B48",
"1j    c #474747",
"1k    c #464747",
"1l    c #464746",
"1m    c #464546",
"1n    c #464645",
"1o    c #454545",
"1p    c #444445",
"1q    c #4E4F47",
"1r    c #B6CD56",
"1s    c #36401F",
"1t    c #2F2D2D",
"1u    c #434242",
"1v    c #444345",
"1w    c #434445",
"1x    c #484644",
"1y    c #5D5840",
"1z    c #67603E",
"1A    c #68613F",
"1B    c #575441",
"1C    c #494944",
"1D    c #474646",
"1E    c #474748",
"1F    c #474848",
"1G    c #494949",
"1H    c #535151",
"1I    c #746945",
"1J    c #F8CA26",
"1K    c #E4DB53",
"1L    c #988C43",
"1M    c #666340",
"1N    c #4E4E47",
"1O    c #4A4947",
"1P    c #6F622F",
"1Q    c #474644",
"1R    c #504F42",
"1S    c #7D7540",
"1T    c #928856",
"1U    c #79714A",
"1V    c #555345",
"1W    c #505044",
"1X    c #464542",
"1Y    c #414141",
"1Z    c #414040",
"1&    c #403F3F",
"2     c #72764B",
"20    c #92B03B",
"21    c #232520",
"22    c #353335",
"23    c #3E3F3F",
"24    c #45443E",
"25    c #776D3F",
"26    c #C9AD41",
"27    c #E9C742",
"28    c #E1C13B",
"29    c #D3B530",
"2a    c #C2A929",
"2b    c #A18F27",
"2c    c #625D38",
"2d    c #454541",
"2e    c #444444",
"2f    c #454443",
"2g    c #454544",
"2h    c #464545",
"2i    c #4E4E4D",
"2j    c #555249",
"2k    c #8C7C2E",
"2l    c #77733F",
"2m    c #7A733F",
"2n    c #9B9051",
"2o    c #7C7857",
"2p    c #565548",
"2q    c #4B4A42",
"2r    c #71672D",
"2s    c #424142",
"2t    c #414140",
"2u    c #3F3F3F",
"2v    c #3F3E3F",
"2w    c #42403C",
"2x    c #575439",
"2y    c #8A7F3D",
"2z    c #D2C43A",
"2A    c #9A9842",
"2B    c #3D3C3B",
"2C    c #3C3B3B",
"2D    c #3C3D3C",
"2E    c #A6B753",
"2F    c #596C27",
"2G    c #212122",
"2H    c #373839",
"2I    c #4D4B3B",
"2J    c #C0AC42",
"2K    c #F9E05A",
"2L    c #FEF077",
"2M    c #FCED78",
"2N    c #F3D65A",
"2O    c #D8BC40",
"2P    c #C3A92F",
"2Q    c #B59E23",
"2R    c #A9961A",
"2S    c #857C21",
"2T    c #47463D",
"2U    c #424141",
"2V    c #424442",
"2W    c #484A49",
"2X    c #60582F",
"2Y    c #4F4D40",
"2Z    c #464544",
"2&    c #4E4E40",
"3     c #605D3C",
"30    c #827B40",
"31    c #9E955C",
"32    c #857C40",
"33    c #424240",
"34    c #3C3B3C",
"35    c #3B3B3B",
"36    c #3A3A3B",
"37    c #413E39",
"38    c #595530",
"39    c #6A6024",
"3a    c #907F20",
"3b    c #5E5B38",
"3c    c #383738",
"3d    c #383737",
"3e    c #4A4B3B",
"3f    c #B0CD4B",
"3g    c #2D361D",
"3h    c #292829",
"3i    c #3D3D35",
"3j    c #C2AA3B",
"3k    c #FBE159",
"3l    c #FDF99B",
"3m    c #FDFDDF",
"3n    c #FEFECF",
"3o    c #FCF17F",
"3p    c #E1C549",
"3q    c #C5AB30",
"3r    c #B29C24",
"3s    c #A59119",
"3t    c #9A8B12",
"3u    c #7A7419",
"3v    c #41413C",
"3w    c #404041",
"3x    c #665D2A",
"3y    c #4B473E",
"3z    c #403F3D",
"3A    c #5A5534",
"3B    c #877F37",
"3C    c #8E8857",
"3D    c #7F774B",
"3E    c #ABA354",
"3F    c #716A3B",
"3G    c #736527",
"3H    c #4A452D",
"3I    c #3A3A33",
"3J    c #645823",
"3K    c #343434",
"3L    c #343333",
"3M    c #343534",
"3N    c #737B44",
"3O    c #89A437",
"3P    c #1E1F1B",
"3Q    c #2E2E2D",
"3R    c #897B34",
"3S    c #F6D142",
"3T    c #FCE66A",
"3U    c #FDFDC0",
"3V    c #FDFDF9",
"3W    c #FEFDDF",
"3X    c #FBF582",
"3Y    c #DFC547",
"3Z    c #C2A92D",
"3&    c #AF9820",
"4     c #9F8C16",
"40    c #928310",
"41    c #847C0A",
"42    c #535129",
"43    c #3D3D3D",
"44    c #454543",
"45    c #675F2A",
"46    c #47443D",
"47    c #3D3D3E",
"48    c #3B3D3B",
"49    c #3A3B3C",
"4a    c #4E4A33",
"4b    c #4F4930",
"4c    c #414234",
"4d    c #A48123",
"4e    c #FCC31D",
"4f    c #9C8F2D",
"4g    c #343230",
"4h    c #303131",
"4i    c #413C2F",
"4j    c #574F24",
"4k    c #2F3030",
"4l    c #31312F",
"4m    c #343430",
"4n    c #B0C14D",
"4o    c #485720",
"4p    c #1E1E1E",
"4q    c #33322C",
"4r    c #D2B032",
"4s    c #EFCA40",
"4t    c #F1D25B",
"4u    c #FEF68E",
"4v    c #FEFAAE",
"4w    c #FAF18F",
"4x    c #EAD15C",
"4y    c #C7AC39",
"4z    c #AD9626",
"4A    c #9C861B",
"4B    c #8D7D13",
"4C    c #82760E",
"4D    c #777007",
"4E    c #666310",
"4F    c #3D3E3A",
"4G    c #3D3C3D",
"4H    c #424342",
"4I    c #645E29",
"4J    c #43423D",
"4K    c #3E3D3D",
"4L    c #3A393A",
"4M    c #393838",
"4N    c #585230",
"4O    c #4C462E",
"4P    c #343433",
"4Q    c #4A412C",
"4R    c #9A7F18",
"4S    c #48442D",
"4T    c #2D2F2F",
"4U    c #2D2E2E",
"4V    c #4F4925",
"4W    c #433F24",
"4X    c #2D2C2B",
"4Y    c #2D2C2C",
"4Z    c #4D5235",
"4&    c #AAC840",
"5     c #212718",
"50    c #212021",
"51    c #49432B",
"52    c #D8B12D",
"53    c #DCB43C",
"54    c #DEBE4B",
"55    c #EBCB53",
"56    c #E9C959",
"57    c #D8B84C",
"58    c #BEA039",
"59    c #A58B29",
"5a    c #937B1C",
"5b    c #857114",
"5c    c #7B690F",
"5d    c #71640A",
"5e    c #685F06",
"5f    c #666303",
"5g    c #444430",
"5h    c #3B3C3C",
"5i    c #635D27",
"5j    c #42423B",
"5k    c #3B3D3C",
"5l    c #393A3A",
"5m    c #383839",
"5n    c #424036",
"5o    c #C0B442",
"5p    c #8F893C",
"5q    c #373735",
"5r    c #3D3A2B",
"5s    c #514A13",
"5t    c #242324",
"5u    c #2B2C2C",
"5v    c #2A2B2A",
"5w    c #5E541F",
"5x    c #343225",
"5y    c #292929",
"5z    c #292A29",
"5A    c #879243",
"5B    c #738C29",
"5C    c #1B1B1A",
"5D    c #262525",
"5E    c #524B29",
"5F    c #C79E29",
"5G    c #CCA633",
"5H    c #CAA739",
"5I    c #CDAD41",
"5J    c #C7AD36",
"5K    c #BEA42E",
"5L    c #AE9425",
"5M    c #9D841C",
"5N    c #8A7514",
"5O    c #7C6A0F",
"5P    c #6D5E0B",
"5Q    c #5F5406",
"5R    c #5B5303",
"5S    c #605C03",
"5T    c #47462C",
"5U    c #3A3A3A",
"5V    c #424242",
"5W    c #404040",
"5X    c #615A2A",
"5Y    c #403F3C",
"5Z    c #3A3C3B",
"5&    c #403E39",
"6     c #5E5537",
"60    c #77672F",
"61    c #6E652D",
"62    c #605A32",
"63    c #7B7248",
"64    c #5A5227",
"65    c #3E3914",
"66    c #1A1918",
"67    c #232324",
"68    c #59511E",
"69    c #2B2B28",
"6a    c #2F302B",
"6b    c #B1C24A",
"6c    c #37411B",
"6d    c #1B1B1C",
"6e    c #282627",
"6f    c #4E4527",
"6g    c #B89422",
"6h    c #C1A133",
"6i    c #B3962F",
"6j    c #B09434",
"6k    c #AA8F34",
"6l    c #A29124",
"6m    c #998C17",
"6n    c #928011",
"6o    c #86740E",
"6p    c #796909",
"6q    c #695C06",
"6r    c #5B5204",
"6s    c #574D03",
"6t    c #5E5803",
"6u    c #45452B",
"6v    c #41413F",
"6w    c #625A2A",
"6x    c #605939",
"6y    c #817136",
"6z    c #4F4A35",
"6A    c #393836",
"6B    c #2E2F2F",
"6C    c #1A191A",
"6D    c #1E1D1C",
"6E    c #564D19",
"6F    c #7A6D28",
"6G    c #665C39",
"6H    c #302E28",
"6I    c #2A2923",
"6J    c #5B5120",
"6K    c #2A2A2A",
"6L    c #2B2A2B",
"6M    c #575E37",
"6N    c #96B938",
"6O    c #21251A",
"6P    c #242424",
"6Q    c #3B3628",
"6R    c #A08A1F",
"6S    c #AF952D",
"6T    c #A3862C",
"6U    c #9B8424",
"6V    c #967D2C",
"6W    c #8F7C26",
"6X    c #877D19",
"6Y    c #807A0E",
"6Z    c #7B7109",
"6&    c #746705",
"7     c #685D04",
"70    c #605702",
"71    c #5B5202",
"72    c #595208",
"73    c #3E3D32",
"74    c #393A39",
"75    c #414342",
"76    c #6C6544",
"77    c #B3A53F",
"78    c #94883D",
"79    c #5A5237",
"7a    c #3E3D3A",
"7b    c #39383A",
"7c    c #373836",
"7d    c #1D1E1D",
"7e    c #1D1C1B",
"7f    c #57501A",
"7g    c #312F1F",
"7h    c #36352C",
"7i    c #625E3E",
"7j    c #B0A149",
"7k    c #A09A35",
"7l    c #2A2A2B",
"7m    c #2F2D2E",
"7n    c #91A941",
"7o    c #5F7E22",
"7p    c #1D1D1D",
"7q    c #2B2B2B",
"7r    c #2D2C2D",
"7s    c #2F2D2B",
"7t    c #7F701C",
"7u    c #988919",
"7v    c #947B2A",
"7w    c #8D7823",
"7x    c #877224",
"7y    c #816D26",
"7z    c #7A6E1A",
"7A    c #726E0E",
"7B    c #6D6C07",
"7C    c #6E6804",
"7D    c #6B6303",
"7E    c #645B04",
"7F    c #5E5603",
"7G    c #4E480D",
"7H    c #3B3A3A",
"7I    c #434243",
"7J    c #826E31",
"7K    c #D5BB2C",
"7L    c #837B38",
"7M    c #615E44",
"7N    c #3F3F3C",
"7O    c #333334",
"7P    c #2D2D2C",
"7Q    c #544E1A",
"7R    c #282621",
"7S    c #2B2928",
"7T    c #575131",
"7U    c #948029",
"7V    c #695D22",
"7W    c #212121",
"7X    c #2E3127",
"7Y    c #80AE2C",
"7Z    c #2F3A1A",
"7&    c #252524",
"8     c #2F2E2E",
"80    c #2F302F",
"81    c #2F2F2F",
"82    c #454028",
"83    c #8B7D11",
"84    c #85791A",
"85    c #7F6D24",
"86    c #796723",
"87    c #746422",
"88    c #70651B",
"89    c #6D6810",
"8a    c #6B6C06",
"8b    c #6E6A03",
"8c    c #6F6503",
"8d    c #685D02",
"8e    c #5F5705",
"8f    c #2D2B18",
"8g    c #242423",
"8h    c #363536",
"8i    c #434444",
"8j    c #434342",
"8k    c #454540",
"8l    c #45443F",
"8m    c #5B5840",
"8n    c #756E38",
"8o    c #5F5D43",
"8p    c #40403D",
"8q    c #363434",
"8r    c #3A3A35",
"8s    c #5B551B",
"8t    c #242421",
"8u    c #574E24",
"8v    c #6C5F29",
"8w    c #373834",
"8x    c #313231",
"8y    c #2B2C2B",
"8z    c #4D5B2A",
"8A    c #709826",
"8B    c #1F1F1C",
"8C    c #2A2929",
"8D    c #323233",
"8E    c #323333",
"8F    c #333131",
"8G    c #333431",
"8H    c #595023",
"8I    c #847A0E",
"8J    c #7C7415",
"8K    c #766A1C",
"8L    c #73671B",
"8M    c #6F6916",
"8N    c #6C6A0D",
"8O    c #6D6D06",
"8P    c #716A05",
"8Q    c #6F6504",
"8R    c #675D04",
"8S    c #3B3714",
"8T    c #1D1E1C",
"8U    c #232423",
"8V    c #454546",
"8W    c #434343",
"8X    c #414142",
"8Y    c #42413F",
"8Z    c #585641",
"8&    c #817C4F",
"9     c #67644B",
"90    c #383933",
"91    c #444234",
"92    c #655A21",
"93    c #7B6A2E",
"94    c #534822",
"95    c #262825",
"96    c #333333",
"97    c #363636",
"98    c #383837",
"99    c #8FB63D",
"9a    c #4C6620",
"9b    c #1D1F1E",
"9c    c #313132",
"9d    c #353435",
"9e    c #353534",
"9f    c #353636",
"9g    c #534D27",
"9h    c #7E730E",
"9i    c #7E760B",
"9j    c #78730C",
"9k    c #73720B",
"9l    c #727006",
"9m    c #747004",
"9n    c #756A03",
"9o    c #655B07",
"9p    c #332F16",
"9q    c #1E1F1C",
"9r    c #1E1F1D",
"9s    c #1F1E1F",
"9t    c #1F1F20",
"9u    c #484748",
"9v    c #444344",
"9w    c #424343",
"9x    c #42413E",
"9y    c #54513B",
"9z    c #847943",
"9A    c #A1934B",
"9B    c #B7A830",
"9C    c #4F492A",
"9D    c #313230",
"9E    c #30302F",
"9F    c #2C2E2C",
"9G    c #3D4334",
"9H    c #6D9B23",
"9I    c #2C351E",
"9J    c #1F1F1F",
"9K    c #282728",
"9L    c #29292A",
"9M    c #313130",
"9N    c #383937",
"9O    c #383939",
"9P    c #393938",
"9Q    c #353328",
"9R    c #463E16",
"9S    c #635A0D",
"9T    c #68600C",
"9U    c #675F0B",
"9V    c #60570C",
"9W    c #3C3715",
"9X    c #24241B",
"9Y    c #1F1F1E",
"9Z    c #1E1F1F",
"9&    c #201F1F",
"a     c #202021",
"a0    c #484849",
"a1    c #454746",
"a2    c #444546",
"a3    c #444343",
"a4    c #444244",
"a5    c #373736",
"a6    c #39372D",
"a7    c #D79A1A",
"a8    c #C1AB2F",
"a9    c #33322F",
"aa    c #323133",
"ab    c #3E3E3D",
"ac    c #363737",
"ad    c #262625",
"ae    c #425424",
"af    c #5B7F1E",
"ag    c #222320",
"ah    c #282829",
"ai    c #1F201F",
"aj    c #202022",
"ak    c #313031",
"al    c #3B3B3C",
"am    c #3C3C3B",
"an    c #3C3D3B",
"ao    c #1E1E1D",
"ap    c #1E1D1E",
"aq    c #1F1E1E",
"ar    c #1F211E",
"as    c #201E1F",
"at    c #212020",
"au    c #212221",
"av    c #4C4B4B",
"aw    c #4A484A",
"ax    c #474847",
"ay    c #454645",
"az    c #3A3938",
"aA    c #383838",
"aB    c #554D3E",
"aC    c #4F4B3F",
"aD    c #353535",
"aE    c #3B3C38",
"aF    c #7BA32F",
"aG    c #3C4C1F",
"aH    c #242624",
"aI    c #222222",
"aJ    c #252626",
"aK    c #3E3F3E",
"aL    c #363634",
"aM    c #1F2020",
"aN    c #20201F",
"aO    c #202020",
"aP    c #201F21",
"aQ    c #222322",
"aR    c #4D4D4D",
"aS    c #4A4A4B",
"aT    c #494A4B",
"aU    c #49494A",
"aV    c #3D3E3D",
"aW    c #373838",
"aX    c #444443",
"aY    c #5A6344",
"aZ    c #85B730",
"a&    c #292E21",
"b     c #323132",
"b0    c #2B2B2C",
"b1    c #272626",
"b2    c #3E3D3E",
"b3    c #414241",
"b4    c #403F40",
"b5    c #212222",
"b6    c #212321",
"b7    c #232223",
"b8    c #232323",
"b9    c #232424",
"ba    c #4F4F50",
"bb    c #4F4F4E",
"bc    c #4C4B4D",
"bd    c #4A4C4B",
"be    c #3D3C3C",
"bf    c #484A48",
"bg    c #3B3A3B",
"bh    c #3F4040",
"bi    c #677745",
"bj    c #5E7C26",
"bk    c #262725",
"bl    c #383A39",
"bm    c #434344",
"bn    c #454444",
"bo    c #333434",
"bp    c #444545",
"bq    c #454644",
"br    c #222424",
"bs    c #232322",
"bt    c #232224",
"bu    c #242525",
"bv    c #252424",
"bw    c #535352",
"bx    c #504F4F",
"by    c #4F4E4F",
"bz    c #4C4D4D",
"bA    c #353536",
"bB    c #3F3F3E",
"bC    c #4B4C4C",
"bD    c #393839",
"bE    c #3D3D3C",
"bF    c #444644",
"bG    c #2B2A29",
"bH    c #494848",
"bI    c #484947",
"bJ    c #242524",
"bK    c #252425",
"bL    c #252426",
"bM    c #252526",
"bN    c #262527",
"bO    c #272627",
"   0 1 2 3 4 5 6 7 8 9 a b c d e f g h i j k l m n o p p q r s s t u v w x y z A B",
" 4 C D E F G H I J g K L k M N O P Q R R S T U V W X Y Z &0  Z00 Y01 Z020304050306",
" G0708090a0b0c n l0d0e0f0g06050h0i0j0j0k0l0m0n0o0p0q0r0s0t0t0u0s0v0w0v0w0x0y0z0z0A",
"0B0C m0D0E R0F0G0H0I0J0K0L0x0r0u0M0M0N0O0P0Q0R0S0T0U0V0W0X0Y0Z0&1 0&0X10110R121312",
"1415161718191a1b1c1d1e1f1g1h1i1j1k1l1m1n1o1p1q1r1s1t1u1v1w1x1y1z1A1B1C0V1D1j1E1F1G",
"1H1I1J1K1L1M1N101O1P0V1Q1R1S1T1U1V1W1X1Y1Z1&2 202122232425262728292a2b2c2d2e2f2g2h",
"2i2j2k2l2m2n2o2p2q2r2s2t2u2v2w2x2y2z2A2B2C2D2E2F2G2H2I2J2K2L2M2N2O2P2Q2R2S2T2U2s2V",
"122W2X2Y2Z2&3 303132333435363738393a3b3c3d3e3f3g3h3i3j3k3l3m3n3o3p3q3r3s3t3u3v2u3w",
"1 1l3x3y2s2t2u3z3A3B3C3D3E3F3G3H3I3J3K3L3M3N3O3P3Q3R3S3T3U3V3W3X3Y3Z3&4 404142432v",
"0V4445462v4748494a4b4c4d4e4f4g4h4i4j4k4l4m4n4o4p4q4r4s4t4u4v4w4x4y4z4A4B4C4D4E4F4G",
"1v4H4I4J4K344L4M4N4O4P4Q4R4S4T4U4V4W4X4Y4Z4&5 505152535455565758595a5b5c5d5e5f5g5h",
"4H3w5i5j5k5l5m5n5o5p5q5r5s5t5u5v5w5x5y5z5A5B5C5D5E5F5G5H5I5J5K5L5M5N5O5P5Q5R5S5T5U",
"5V5W5X5Y5Z5&6 60616263646566670U68693h6a6b6c6d6e6f6g6h6i6j6k6l6m6n6o6p6q6r6s6t6u35",
"2U6v6w4J6x6y6z6A6B6C6D6E6F6G6H6I6J6K6L6M6N6O6P5y6Q6R6S6T6U6V6W6X6Y6Z6&7 7071727374",
"75767778797a7b7c4P7d7e7f7g7h7i7j7k7l7m7n7o7p7q7r7s7t7u7v7w7x7y7z7A7B7C7D7E7F7G3M7H",
"7I7J7K7L7M7N7H5m7O677P7Q7R7S7T7U7V7W7X7Y7Z7&8 808182838485868788898a8b8c8d8e8f8g8h",
"8i8j8k8l8m8n8o8p8q6e8r8s8t8u8v8w8x8y8z8A8B8C8D8E8F8G8H8I8J8K8L8M8N8O8P8Q8R8S8T4p8U",
"8V8W8j8X5W8Y8Z8&9 909192939495969798999a9b9c3M9d9e9f979g9h9i9j9k9l9m9n9o9p9q9r9s9t",
"9u1l2g9v9w2s3w9x9y9z9A9B9C9D9E3h9F9G9H9I9J9K9L9M9N9O9O9P9Q9R9S9T9U9V9W9X9Y9Z9&9&a ",
"a00Z1Ea1a2a3a41ua5a6a7a8a9aaabacadaeafag0Uahaiajakalaman8 aoapaqarasai9&aia a atau",
"av0Maw0Zax1D1nayazaAaBaC81aD1Y2taEaFaGa aH6eaIaiaJam2uaKaL509ZaMaNaOaP50ajaI7WaIaQ",
"aR0u13aSaTaU1 axaV231ma2aWan1paXaYaZa&6K3Lb 8Db0b1b2b38jb4ahau7Wb52Gb5b6b7aIb88Ub9",
"ba0mbb0xaRbc13bd5Ubebf0Wbgbh1D1jbibjbkbl8ibmbn23bo5Vbpaybq3Lbrb8bs67bt8Ububvbv6Pbu",
"bw Y05 Zbxby0ybzbAbB12bCbDbEaS10bFbG7q1w1 bHbIbnbD1E1 1 9u5W6ebJbKbLbKbM5DbNbkadbO"};
