/* XPM */
static char *TOGGLEB_xpm[]={
"41 24 817 2",
"      c #696A68",
" 0    c #676767",
" 1    c #666867",
" 2    c #666766",
" 3    c #646566",
" 4    c #646364",
" 5    c #626463",
" 6    c #636263",
" 7    c #616262",
" 8    c #606061",
" 9    c #605F5F",
" a    c #6F6F5C",
" b    c #8C8D5C",
" c    c #6E6D5E",
" d    c #5D5E5C",
" e    c #5C5C5B",
" f    c #5B5B5C",
" g    c #5B5A5B",
" h    c #5A5B59",
" i    c #595A59",
" j    c #585959",
" k    c #595958",
" l    c #575757",
" m    c #585758",
" n    c #575858",
" o    c #565657",
" p    c #565656",
" q    c #555755",
" r    c #555555",
" s    c #565655",
" t    c #555556",
" u    c #5C5C55",
" v    c #636364",
" w    c #666864",
" x    c #646562",
" y    c #615F60",
" z    c #5F5F5F",
" A    c #60605D",
" B    c #63625B",
" C    c #6C6956",
" D    c #78704D",
" E    c #817842",
" F    c #A49135",
" G    c #EFE039",
" H    c #BFB549",
" I    c #716E5A",
" J    c #5A5957",
" K    c #555655",
" L    c #555554",
" M    c #545455",
" N    c #555553",
" O    c #545454",
" P    c #545253",
" Q    c #535353",
" R    c #525252",
" S    c #515251",
" T    c #525152",
" U    c #515151",
" V    c #525151",
" W    c #525051",
" X    c #525251",
" Y    c #525250",
" Z    c #515252",
" &    c #525352",
"0     c #535251",
"00    c #515152",
"01    c #585A52",
"02    c #696C55",
"03    c #7D7255",
"04    c #E0C95D",
"05    c #D9D574",
"06    c #918B51",
"07    c #9B8B40",
"08    c #978634",
"09    c #8D7E2C",
"0a    c #84752D",
"0b    c #807532",
"0c    c #6B643F",
"0d    c #6A6546",
"0e    c #AC9E2E",
"0f    c #787446",
"0g    c #998D4C",
"0h    c #B0A467",
"0i    c #797555",
"0j    c #595752",
"0k    c #515150",
"0l    c #4E4F50",
"0m    c #4E4E4E",
"0n    c #4F4F4F",
"0o    c #4D4E4F",
"0p    c #4E4E4D",
"0q    c #4D4D4D",
"0r    c #4D4D4C",
"0s    c #4C4D4D",
"0t    c #4D4C4C",
"0u    c #4D4C4D",
"0v    c #4C4C4C",
"0w    c #4D4E4C",
"0x    c #4D4D4E",
"0y    c #4E4F4E",
"0z    c #899055",
"0A    c #5D5F51",
"0B    c #5B5959",
"0C    c #827145",
"0D    c #FCBB11",
"0E    c #E4D336",
"0F    c #D0C658",
"0G    c #877F4F",
"0H    c #645F4A",
"0I    c #56544F",
"0J    c #535151",
"0K    c #515050",
"0L    c #4F514F",
"0M    c #58544A",
"0N    c #776E33",
"0O    c #4E4E4B",
"0P    c #5D5B47",
"0Q    c #AD9E51",
"0R    c #8E8450",
"0S    c #64604C",
"0T    c #4C4D4A",
"0U    c #4A4A49",
"0V    c #494A49",
"0W    c #494A4A",
"0X    c #484949",
"0Y    c #494948",
"0Z    c #474848",
"0&    c #494849",
"1     c #484948",
"10    c #474948",
"11    c #494947",
"12    c #484848",
"13    c #4A4949",
"14    c #4A4B4B",
"15    c #4A4B4A",
"16    c #686A50",
"17    c #7F8C4C",
"18    c #4B4C4B",
"19    c #565756",
"1a    c #5F594F",
"1b    c #947C32",
"1c    c #B2A932",
"1d    c #79743D",
"1e    c #A1964C",
"1f    c #AAA26D",
"1g    c #76725E",
"1h    c #505050",
"1i    c #4D4C4B",
"1j    c #4B4B4A",
"1k    c #545244",
"1l    c #685F34",
"1m    c #494848",
"1n    c #474747",
"1o    c #464847",
"1p    c #525141",
"1q    c #6C633D",
"1r    c #958743",
"1s    c #A39652",
"1t    c #6E6848",
"1u    c #6B6947",
"1v    c #5A5A46",
"1w    c #464444",
"1x    c #444343",
"1y    c #444344",
"1z    c #434445",
"1A    c #444443",
"1B    c #444544",
"1C    c #444445",
"1D    c #444645",
"1E    c #454645",
"1F    c #464646",
"1G    c #474646",
"1H    c #4E4E48",
"1I    c #A9B258",
"1J    c #525747",
"1K    c #494949",
"1L    c #505151",
"1M    c #5B583D",
"1N    c #655F31",
"1O    c #4E4D4D",
"1P    c #565545",
"1Q    c #635F3C",
"1R    c #928A4B",
"1S    c #AEA775",
"1T    c #75715C",
"1U    c #4B4B49",
"1V    c #5A543B",
"1W    c #5D5634",
"1X    c #434444",
"1Y    c #444242",
"1Z    c #424242",
"1&    c #414141",
"2     c #424041",
"20    c #434340",
"21    c #59543A",
"22    c #928533",
"23    c #DFCE2E",
"24    c #D9C734",
"25    c #4B493E",
"26    c #403F40",
"27    c #3E3F3F",
"28    c #3F3F3E",
"29    c #3F4040",
"2a    c #3F3F40",
"2b    c #404041",
"2c    c #404141",
"2d    c #414040",
"2e    c #414241",
"2f    c #434343",
"2g    c #929554",
"2h    c #809046",
"2i    c #454644",
"2j    c #464545",
"2k    c #595539",
"2l    c #5F5934",
"2m    c #484748",
"2n    c #454646",
"2o    c #474742",
"2p    c #5C5B38",
"2q    c #898342",
"2r    c #ADA569",
"2s    c #92884D",
"2t    c #5A543A",
"2u    c #3F3E3F",
"2v    c #3F3D3D",
"2w    c #3D3E3E",
"2x    c #3D3C3D",
"2y    c #3C3C3D",
"2z    c #3C3D3D",
"2A    c #43413A",
"2B    c #5D562F",
"2C    c #6E6922",
"2D    c #A8921C",
"2E    c #AF9427",
"2F    c #3D3D3B",
"2G    c #3A3B3C",
"2H    c #3A3B3B",
"2I    c #3B3B3C",
"2J    c #3C3A3B",
"2K    c #3C3B3B",
"2L    c #3B3B3D",
"2M    c #3D3C3C",
"2N    c #3C3D3E",
"2O    c #3D3D3D",
"2P    c #3E3E3E",
"2Q    c #40403E",
"2R    c #5E5E46",
"2S    c #AEC34F",
"2T    c #4B5040",
"2U    c #424142",
"2V    c #424442",
"2W    c #4B4B4C",
"2X    c #484A49",
"2Y    c #595434",
"2Z    c #5A5534",
"2&    c #444444",
"3     c #424342",
"30    c #414041",
"31    c #3F403F",
"32    c #41413D",
"33    c #514E37",
"34    c #8D823E",
"35    c #B6AC6D",
"36    c #7F7A58",
"37    c #4E4A40",
"38    c #4E5040",
"39    c #4C4B3E",
"3a    c #413F39",
"3b    c #5D5630",
"3c    c #766D24",
"3d    c #534F27",
"3e    c #444133",
"3f    c #73661E",
"3g    c #3A3A35",
"3h    c #373637",
"3i    c #373736",
"3j    c #363737",
"3k    c #373737",
"3l    c #373638",
"3m    c #373838",
"3n    c #393939",
"3o    c #39393A",
"3p    c #3B3939",
"3q    c #3B3A3A",
"3r    c #B9C258",
"3s    c #748E3A",
"3t    c #3E3F3E",
"3u    c #3F3F3F",
"3v    c #464746",
"3w    c #5A5530",
"3x    c #5A5334",
"3y    c #414140",
"3z    c #3E3D3E",
"3A    c #3A3C3B",
"3B    c #3C3B39",
"3C    c #746626",
"3D    c #544F2E",
"3E    c #7E7333",
"3F    c #BCA44C",
"3G    c #EDD24B",
"3H    c #E7E161",
"3I    c #A89B36",
"3J    c #5C5729",
"3K    c #3A3931",
"3L    c #343534",
"3M    c #564F30",
"3N    c #635B21",
"3O    c #343432",
"3P    c #333332",
"3Q    c #323333",
"3R    c #323432",
"3S    c #333435",
"3T    c #343434",
"3U    c #353534",
"3V    c #353736",
"3W    c #383737",
"3X    c #3A3939",
"3Y    c #84834C",
"3Z    c #A4C743",
"3&    c #454C38",
"4     c #3C3C3C",
"40    c #3E3E3F",
"41    c #454543",
"42    c #5B562E",
"43    c #554F37",
"44    c #3D3D3E",
"45    c #3B3D3B",
"46    c #393A39",
"47    c #373738",
"48    c #3C3D35",
"49    c #736524",
"4a    c #363533",
"4b    c #353631",
"4c    c #9E771C",
"4d    c #FDB10C",
"4e    c #FDE12F",
"4f    c #787433",
"4g    c #303030",
"4h    c #31312F",
"4i    c #2F2F2F",
"4j    c #6B5E25",
"4k    c #444027",
"4l    c #2F2E2E",
"4m    c #2E2E2E",
"4n    c #302F2F",
"4o    c #30302F",
"4p    c #323231",
"4q    c #434236",
"4r    c #777846",
"4s    c #909E49",
"4t    c #92AC44",
"4u    c #7B953E",
"4v    c #556638",
"4w    c #51523D",
"4x    c #C8D959",
"4y    c #6E8F31",
"4z    c #393B39",
"4A    c #3B3B3B",
"4B    c #3B3C3C",
"4C    c #3B3A3B",
"4D    c #444345",
"4E    c #5A562A",
"4F    c #504C33",
"4G    c #3E3D3D",
"4H    c #3C3B3C",
"4I    c #3A393A",
"4J    c #393838",
"4K    c #363634",
"4L    c #4F4D37",
"4M    c #776927",
"4N    c #343331",
"4O    c #2F2E2F",
"4P    c #514528",
"4Q    c #C49111",
"4R    c #C0AD27",
"4S    c #3F3F2C",
"4T    c #2D2C2B",
"4U    c #2D2C2C",
"4V    c #31302C",
"4W    c #675E20",
"4X    c #31342A",
"4Y    c #2C2B2C",
"4Z    c #2B2B2C",
"4&    c #2C2D2C",
"5     c #2E2E2D",
"50    c #696C4D",
"51    c #C2D26A",
"52    c #A0C540",
"53    c #7AA230",
"54    c #719C2B",
"55    c #7FB32F",
"56    c #A3DA3E",
"57    c #D0E15D",
"58    c #9AC739",
"59    c #444F32",
"5a    c #383738",
"5b    c #383A38",
"5c    c #393A3A",
"5d    c #5B5629",
"5e    c #4F4B32",
"5f    c #3B3D3C",
"5g    c #383839",
"5h    c #353636",
"5i    c #3C3A35",
"5j    c #C4B539",
"5k    c #E0D749",
"5l    c #4E4F3A",
"5m    c #2F302A",
"5n    c #615A14",
"5o    c #292718",
"5p    c #212121",
"5q    c #292828",
"5r    c #292A29",
"5s    c #3C382A",
"5t    c #5F5A1A",
"5u    c #2A2A29",
"5v    c #2C2C2A",
"5w    c #7F7F4F",
"5x    c #B9D45E",
"5y    c #567028",
"5z    c #2C3223",
"5A    c #202220",
"5B    c #202221",
"5C    c #242721",
"5D    c #6E7A3B",
"5E    c #C3E354",
"5F    c #7BAC2A",
"5G    c #3E4731",
"5H    c #363637",
"5I    c #2B2B2B",
"5J    c #404040",
"5K    c #4E4934",
"5L    c #373839",
"5M    c #403E37",
"5N    c #645933",
"5O    c #79672C",
"5P    c #61562B",
"5Q    c #625B24",
"5R    c #78723B",
"5S    c #827949",
"5T    c #4D4A2C",
"5U    c #5E5711",
"5V    c #191915",
"5W    c #161616",
"5X    c #232223",
"5Y    c #282A29",
"5Z    c #4F4725",
"5&    c #433F1F",
"6     c #272829",
"60    c #292727",
"61    c #282829",
"62    c #45502D",
"63    c #B9D455",
"64    c #4D6623",
"65    c #1F211E",
"66    c #181818",
"67    c #161617",
"68    c #161816",
"69    c #2F3020",
"6a    c #C7D35C",
"6b    c #92C733",
"6c    c #7AAC29",
"6d    c #567821",
"6e    c #383736",
"6f    c #2E2F2E",
"6g    c #222222",
"6h    c #424141",
"6i    c #40403F",
"6j    c #5F5726",
"6k    c #4A4735",
"6l    c #45423B",
"6m    c #665D37",
"6n    c #7F6F2E",
"6o    c #4F4A30",
"6p    c #313132",
"6q    c #1D1B1D",
"6r    c #181718",
"6s    c #312D21",
"6t    c #786E27",
"6u    c #645B18",
"6v    c #2E2C21",
"6w    c #161615",
"6x    c #1B1A1A",
"6y    c #272828",
"6z    c #665E21",
"6A    c #343528",
"6B    c #2B2A2A",
"6C    c #2A292A",
"6D    c #989F4A",
"6E    c #99D134",
"6F    c #688A2D",
"6G    c #252C1A",
"6H    c #161516",
"6I    c #171716",
"6J    c #21211E",
"6K    c #AFAF52",
"6L    c #AFD845",
"6M    c #688E24",
"6N    c #455A23",
"6O    c #6B9B20",
"6P    c #3B442C",
"6Q    c #323233",
"6R    c #242423",
"6S    c #1C1D1C",
"6T    c #414342",
"6U    c #474845",
"6V    c #716931",
"6W    c #625D3D",
"6X    c #736A3D",
"6Y    c #887932",
"6Z    c #534C34",
"6&    c #393936",
"7     c #363735",
"70    c #333331",
"71    c #1F1E1D",
"72    c #181817",
"73    c #1E1F1E",
"74    c #5B5416",
"75    c #564E20",
"76    c #787038",
"77    c #706734",
"78    c #302C21",
"79    c #25251C",
"7a    c #5F5B1B",
"7b    c #2E2F2D",
"7c    c #2D2D2D",
"7d    c #2D2C2D",
"7e    c #31312C",
"7f    c #B5CB4C",
"7g    c #5B7E23",
"7h    c #85B92E",
"7i    c #89BF32",
"7j    c #405222",
"7k    c #252622",
"7l    c #62633A",
"7m    c #CBE254",
"7n    c #8EC230",
"7o    c #3E4B2B",
"7p    c #2F3629",
"7q    c #6FA026",
"7r    c #3B501F",
"7s    c #282626",
"7t    c #1E1F1F",
"7u    c #1E1C1C",
"7v    c #434243",
"7w    c #957D3E",
"7x    c #DFC85E",
"7y    c #D6D043",
"7z    c #5E5A36",
"7A    c #3F3E3B",
"7B    c #353535",
"7C    c #232424",
"7D    c #252424",
"7E    c #211F1F",
"7F    c #565014",
"7G    c #403C25",
"7H    c #2E2D2B",
"7I    c #3C3921",
"7J    c #827735",
"7K    c #B6AC4F",
"7L    c #978E2F",
"7M    c #2D2C28",
"7N    c #2F302F",
"7O    c #393C30",
"7P    c #B2D846",
"7Q    c #3D5020",
"7R    c #41581F",
"7S    c #8BC52D",
"7T    c #9BD535",
"7U    c #84A33B",
"7V    c #D1D960",
"7W    c #A0D238",
"7X    c #6D9229",
"7Y    c #373834",
"7Z    c #3B3D35",
"7&    c #739E29",
"8     c #3F571A",
"80    c #202020",
"81    c #1D1D1C",
"82    c #1E1D1D",
"83    c #7C6532",
"84    c #DEB11E",
"85    c #847D26",
"86    c #5D592B",
"87    c #49483B",
"88    c #3A3A3B",
"89    c #232323",
"8a    c #313131",
"8b    c #363630",
"8c    c #5C5515",
"8d    c #2A2A20",
"8e    c #292B29",
"8f    c #232322",
"8g    c #575030",
"8h    c #C2A42D",
"8i    c #B99423",
"8j    c #23211F",
"8k    c #262728",
"8l    c #303131",
"8m    c #373832",
"8n    c #96C93B",
"8o    c #47621F",
"8p    c #1D1F1A",
"8q    c #638E25",
"8r    c #89C02C",
"8s    c #A0D538",
"8t    c #AFDC44",
"8u    c #8DC32E",
"8v    c #475331",
"8w    c #3C3F38",
"8x    c #76A42A",
"8y    c #394C1B",
"8z    c #1D1E1C",
"8A    c #1D1E1E",
"8B    c #1E201E",
"8C    c #454546",
"8D    c #4F4C40",
"8E    c #444441",
"8F    c #535037",
"8G    c #796F28",
"8H    c #4C4A31",
"8I    c #3E3F3C",
"8J    c #3C3D3C",
"8K    c #282727",
"8L    c #363536",
"8M    c #49442F",
"8N    c #5F5917",
"8O    c #292927",
"8P    c #21211F",
"8Q    c #4A4124",
"8R    c #907F2B",
"8S    c #4A452F",
"8T    c #403F34",
"8U    c #303031",
"8V    c #222322",
"8W    c #262627",
"8X    c #333432",
"8Y    c #6A902F",
"8Z    c #638D23",
"8&    c #22231E",
"9     c #37402C",
"90    c #6D9C22",
"91    c #8BC12B",
"92    c #94CE32",
"93    c #6D932B",
"94    c #393B37",
"95    c #505F35",
"96    c #7BAB26",
"97    c #2B351C",
"98    c #1E1F1D",
"99    c #1F1E1F",
"9a    c #222223",
"9b    c #454544",
"9c    c #424343",
"9d    c #46453D",
"9e    c #545128",
"9f    c #5E5A1C",
"9g    c #504F36",
"9h    c #2A2A2B",
"9i    c #373837",
"9j    c #514E2B",
"9k    c #5C551E",
"9l    c #3A3838",
"9m    c #5C542A",
"9n    c #8A7A26",
"9o    c #3F3E30",
"9p    c #38383A",
"9q    c #343435",
"9r    c #262625",
"9s    c #272726",
"9t    c #414D30",
"9u    c #6A9A21",
"9v    c #425722",
"9w    c #435726",
"9x    c #7DB224",
"9y    c #8DC52F",
"9z    c #485733",
"9A    c #3A3B3A",
"9B    c #444939",
"9C    c #729F2C",
"9D    c #5A7D1D",
"9E    c #20231F",
"9F    c #201F1F",
"9G    c #222021",
"9H    c #484849",
"9I    c #474748",
"9J    c #454746",
"9K    c #444546",
"9L    c #49483A",
"9M    c #635E20",
"9N    c #746F37",
"9O    c #46453B",
"9P    c #282928",
"9Q    c #3A3A39",
"9R    c #635C20",
"9S    c #524E2C",
"9T    c #736839",
"9U    c #877724",
"9V    c #2C2A1F",
"9W    c #272627",
"9X    c #383838",
"9Y    c #272827",
"9Z    c #516D25",
"9&    c #6D9E21",
"a     c #5A7530",
"a0    c #2D3324",
"a1    c #5F8724",
"a2    c #6E9A29",
"a3    c #3D413C",
"a4    c #4C573B",
"a5    c #729D2E",
"a6    c #67911F",
"a7    c #2B351D",
"a8    c #202021",
"a9    c #252425",
"aa    c #363736",
"ab    c #4C4B4B",
"ac    c #4B4B4B",
"ad    c #4A484A",
"ae    c #474847",
"af    c #464645",
"ag    c #464542",
"ah    c #58553C",
"ai    c #776F29",
"aj    c #494726",
"ak    c #47473E",
"al    c #6B631E",
"am    c #907F33",
"an    c #837328",
"ao    c #413F38",
"ap    c #272526",
"aq    c #2C2B2B",
"ar    c #29292A",
"as    c #403F3F",
"at    c #3E403E",
"au    c #262823",
"av    c #46611F",
"aw    c #67971E",
"ax    c #7CAC2C",
"ay    c #649123",
"az    c #648F25",
"aA    c #688F2A",
"aB    c #72A324",
"aC    c #5D831D",
"aD    c #2F3820",
"aE    c #212122",
"aF    c #4A4A4B",
"aG    c #494A4B",
"aH    c #49494A",
"aI    c #464747",
"aJ    c #44433B",
"aK    c #595325",
"aL    c #C3B24D",
"aM    c #B5AB34",
"aN    c #AF9E2F",
"aO    c #484740",
"aP    c #282929",
"aQ    c #2E2E2F",
"aR    c #414143",
"aS    c #313232",
"aT    c #252524",
"aU    c #2D3423",
"aV    c #496425",
"aW    c #567E1D",
"aX    c #557F1A",
"aY    c #4F751A",
"aZ    c #3D4F24",
"a&    c #292C24",
"b     c #212321",
"b0    c #232222",
"b1    c #4F4F50",
"b2    c #4F4F4E",
"b3    c #4C4B4D",
"b4    c #4A4C4B",
"b5    c #4A4A4A",
"b6    c #4A494A",
"b7    c #3D3F3D",
"b8    c #393530",
"b9    c #DF9817",
"ba    c #FAC928",
"bb    c #837838",
"bc    c #434242",
"bd    c #2A2928",
"be    c #424443",
"bf    c #2B2C2C",
"bg    c #414242",
"bh    c #454445",
"bi    c #383837",
"bj    c #262526",
"bk    c #262927",
"bl    c #252523",
"bm    c #242322",
"bn    c #242325",
"bo    c #252325",
"bp    c #232423",
"bq    c #242525",
"br    c #535352",
"bs    c #504F4F",
"bt    c #4F4E4F",
"bu    c #6F5D3D",
"bv    c #9D8331",
"bw    c #515049",
"bx    c #2E2D2D",
"by    c #454545",
"bz    c #333232",
"bA    c #272826",
"bB    c #414142",
"bC    c #464546",
"bD    c #2A2B2A",
"bE    c #252324",
"bF    c #242524",
"bG    c #252426",
"bH    c #252526",
"bI    c #2B2A2C",
"bJ    c #383937",
"bK    c #484847",
"bL    c #4C4B4C",
"   0 1 2 3 4 5 6 7 8 9 a b c d e f g h i j k l m n o p p q r s s t u f g h i j k l",
" 4 v w x y z A B C D E F G H I J K L M M N O P Q R S T U V W U X T Y U Z &0 000102",
" z030405060708090a0b0c0d0e0f0g0h0i0j0k0l0m0n0o0p0q0r0s0t0u0u0v0t0w0r0w0r0x0y0n0z0A",
"0B0C0D0E0F0G0H0I0J0K0L0M0N0x0O0P E0Q0R0S0T0U0V0W0X0Y0Z0&1 10110X120X1 131415161718",
"191a1b1c1d1e1f1g1h1i1j1k1l1m1n1n1o1p1q1r1s1t1u1v1w1x1x1y1z1y1A1B1C1D1E1F1G1H1I1J1K",
"0J1L1M1N1O1P1Q1R1S1T1U1V1W1X1Y1Z1Z1&2 202122232425262728292a2b2c2d1Z2e2f1A2g2h2i2j",
"0p0r2k2l122m2n2o2p2q2r2s2t2u2v2w2x2y2z2A2B2C2D2E2F2G2H2I2J2K2L2M2N2O2P2Q2R2S2T2U2V",
"2W2X2Y2Z1w2&3 303132333435363738393a3b3c3d3e3f3g3h3i3j3k3l3m3n3o3p3q2I323r3s3t3u2b",
"123v3w3x2U3y3u3z2M3A3B3C3D3E3F3G3H3I3J3K3L3M3N3O3P3P3Q3R3S3T3U3V3j3W3X3Y3Z3&4 2O40",
"1F4142432u44452H464748494a4b4c4d4e4f4g4h4i4j4k4l4m4n4o4p4q4r4s4t4u4v4w4x4y4z4A4B4C",
"4D3 4E4F4G4H4I4J3j4K4L4M4N4O4P4Q4R4S4T4U4V4W4X4Y4Z4&5 505152535455565758595a5b5c3L",
"3 2b5d5e5f5c5g3i5h5i5j5k5l4m5m5n5o5p5q5r5s5t5u5q5r5v5w5x5y5z5A5B5C5D5E5F5G3W3m5H5I",
"1Z5J3J5K3A3X5L5M5N5O5P5Q5R5S5T5U5V5W5X5Y5Z5&6 606162636465666768696a6b6c6d6e3j6f6g",
"6h6i6j6k456l6m6n6o4a6p6q6r6s6t6u6v6w6x6y6z6A6B5u6C6D6E6F6G6H6I6J6K6L6M6N6O6P6Q6R6S",
"6T6U6V6W6X6Y6Z6&7 3L707172737475767778797a7b7c7d7e7f7g7h7i7j7k7l7m7n7o7p7q7r7s7t7u",
"7v7w7x7y7z7A3q5g3k5H7B7C7D7E7F7G7H7I7J7K7L7M4O7N7O7P7Q7R7S7T7U7V7W7X7Y7Z7&8 808182",
"1X83848586874B883X4J3k898a8b8c8d8e8f8g8h8i8j8k8l8m8n8o8p8q8r8s8t8u8v5a8w8x8y8z8A8B",
"8C1A8D8E8F8G8H8I8J2H3n8K8L8M8N8O8P8Q8R8S8T8U8V8W8X8Y8Z8&9 90919293943X95969798999a",
"2m3v9b1y9c9d9e9f9g2v2M9h9i9j9k9l9m9n9o9p3n3n9q9r9s9t9u9v4l9w9x9y9z9A9B9C9D9E9F9G9h",
"9H119I9J9K1x1y9L9M9N9O9P9Q9R9S9T9U9V9W9X4 4 4B5g6C9Y9Z9&a a0a1a2a3a4a5a6a7a8a8a9aa",
"abacad11ae1Gaf1Eagahaiajakalamanaoapaqar46as6iat2z5 auavawaxayazaAaBaCaDaE6g6g5I8J",
"0q0v18aFaGaH12aeaeaIaJaKaLaMaNaO2PaP2OaQaq2M2caR6h26aSaTaUaVaWaXaYaZa&b 5Xb05q9i3 ",
"b10nb20x0qb318b4b5b6b7b8b9babb1nbcbd31be8lbf3Wbg1Ebh1Xbi9sbjbkblbmbnbobpbqaT4i1&12",
"br T00 Ubsbt0y0q0s0q40bibubvbw13aebx3t0XbybzbA4g2ubB9bbC4AbDbEbFa9bGa9bH9rbIbJbKbL"};
