/* XPM */
static char *PAINTE_xpm[]={
"41 24 723 2",
"      c #696A68",
" 0    c #676767",
" 1    c #666867",
" 2    c #666766",
" 3    c #646566",
" 4    c #646364",
" 5    c #626463",
" 6    c #636263",
" 7    c #616262",
" 8    c #606061",
" 9    c #605F5F",
" a    c #5E5E5F",
" b    c #5D5E5D",
" c    c #5E5D5D",
" d    c #5D5E5C",
" e    c #5C5C5B",
" f    c #5B5B5C",
" g    c #5B5A5B",
" h    c #5A5B59",
" i    c #595A59",
" j    c #585959",
" k    c #595958",
" l    c #575757",
" m    c #585758",
" n    c #575858",
" o    c #565657",
" p    c #565656",
" q    c #555755",
" r    c #555555",
" s    c #565655",
" t    c #555556",
" u    c #B81E55",
" v    c #8E0726",
" w    c #76FFD8",
" x    c #016A0C",
" y    c #024E9A",
" z    c #0B0732",
" A    c #0575C0",
" B    c #0005B8",
" C    c #636264",
" D    c #616362",
" E    c #606161",
" F    c #615F60",
" G    c #5F5F5F",
" H    c #5E5F5E",
" I    c #5C5D5D",
" J    c #5B5C5C",
" K    c #595A5B",
" L    c #5A5859",
" M    c #5F5E5B",
" N    c #6E6E63",
" O    c #585757",
" P    c #555655",
" Q    c #555554",
" R    c #545455",
" S    c #555553",
" T    c #545454",
" U    c #545253",
" V    c #535353",
" W    c #525252",
" X    c #515251",
" Y    c #525152",
" Z    c #515151",
" &    c #525151",
"0     c #525051",
"00    c #525251",
"01    c #525250",
"02    c #515252",
"03    c #585754",
"04    c #846E5B",
"05    c #AA7152",
"06    c #574F49",
"07    c #525352",
"08    c #5E5D5F",
"09    c #5D5D5C",
"0a    c #5D5B5C",
"0b    c #5B5B5A",
"0c    c #5A5A5A",
"0d    c #595858",
"0e    c #535454",
"0f    c #5A5A56",
"0g    c #BCBD7E",
"0h    c #E7E763",
"0i    c #69684F",
"0j    c #505250",
"0k    c #505050",
"0l    c #4E4F50",
"0m    c #4E4E4E",
"0n    c #4F4F4F",
"0o    c #4D4E4F",
"0p    c #4E4E4D",
"0q    c #4D4D4D",
"0r    c #4D4D4C",
"0s    c #4C4D4D",
"0t    c #4D4C4C",
"0u    c #4D4C4D",
"0v    c #4C4C4C",
"0w    c #4D4E4C",
"0x    c #4E4F4D",
"0y    c #6E6357",
"0z    c #D19F71",
"0A    c #E08D5B",
"0B    c #7C412A",
"0C    c #332F2F",
"0D    c #4B4C4C",
"0E    c #5B5959",
"0F    c #595859",
"0G    c #575857",
"0H    c #555656",
"0I    c #545354",
"0J    c #535252",
"0K    c #515050",
"0L    c #4F514F",
"0M    c #575551",
"0N    c #BABB74",
"0O    c #FAF958",
"0P    c #BEBF47",
"0Q    c #52534C",
"0R    c #4B4B4B",
"0S    c #4B4C4A",
"0T    c #4B4A4A",
"0U    c #4A4A4A",
"0V    c #4A4A49",
"0W    c #494A49",
"0X    c #494A4A",
"0Y    c #484949",
"0Z    c #494948",
"0&    c #474848",
"1     c #494849",
"10    c #484948",
"11    c #474948",
"12    c #494947",
"13    c #484848",
"14    c #4F4E4B",
"15    c #9B8466",
"16    c #EEB078",
"17    c #D98254",
"18    c #804026",
"19    c #302522",
"1a    c #2B2C2B",
"1b    c #474748",
"1c    c #565756",
"1d    c #555454",
"1e    c #535352",
"1f    c #505152",
"1g    c #4F4F51",
"1h    c #504F4E",
"1i    c #4E4D4D",
"1j    c #4C4C4D",
"1k    c #4D4C4B",
"1l    c #B7B86E",
"1m    c #F9F956",
"1n    c #BDBC43",
"1o    c #4E4E47",
"1p    c #474747",
"1q    c #464747",
"1r    c #464746",
"1s    c #464546",
"1t    c #464645",
"1u    c #454545",
"1v    c #444445",
"1w    c #454344",
"1x    c #444343",
"1y    c #444344",
"1z    c #434445",
"1A    c #444443",
"1B    c #444544",
"1C    c #5B554E",
"1D    c #C8A777",
"1E    c #F5B278",
"1F    c #C57148",
"1G    c #783923",
"1H    c #302420",
"1I    c #212122",
"1J    c #313232",
"1K    c #484847",
"1L    c #535151",
"1M    c #505151",
"1N    c #4D4F4E",
"1O    c #4C4C4B",
"1P    c #4A4B4A",
"1Q    c #494949",
"1R    c #494748",
"1S    c #4F4D4A",
"1T    c #B6B668",
"1U    c #FAF957",
"1V    c #BABB46",
"1W    c #4A4B43",
"1X    c #444242",
"1Y    c #424142",
"1Z    c #414241",
"1&    c #414141",
"2     c #424041",
"20    c #414040",
"21    c #403F3F",
"22    c #414140",
"23    c #3F3F3F",
"24    c #3F4040",
"25    c #403F40",
"26    c #3E3F3F",
"27    c #3F3F3E",
"28    c #3F3F40",
"29    c #6D6353",
"2a    c #DFB982",
"2b    c #F3A872",
"2c    c #B6633D",
"2d    c #713620",
"2e    c #2B211E",
"2f    c #1F1F20",
"2g    c #262525",
"2h    c #3B3B3A",
"2i    c #464545",
"2j    c #4B4B4C",
"2k    c #484748",
"2l    c #454646",
"2m    c #4B4C46",
"2n    c #B6B663",
"2o    c #FAF951",
"2p    c #BBBB3F",
"2q    c #47463F",
"2r    c #3F3E3F",
"2s    c #3E3D3D",
"2t    c #333434",
"2u    c #2A2829",
"2v    c #3A3A3B",
"2w    c #3C3D3D",
"2x    c #3D3C3B",
"2y    c #3C3B3B",
"2z    c #3B3C3B",
"2A    c #3A3C3C",
"2B    c #3C3A3B",
"2C    c #3B3B3C",
"2D    c #3A3B3C",
"2E    c #3A3B3B",
"2F    c #44413E",
"2G    c #948164",
"2H    c #F1C489",
"2I    c #E99867",
"2J    c #A55534",
"2K    c #63301D",
"2L    c #251F1C",
"2M    c #1E1E1D",
"2N    c #222222",
"2O    c #353534",
"2P    c #414041",
"2Q    c #424442",
"2R    c #484A49",
"2S    c #494747",
"2T    c #474746",
"2U    c #464444",
"2V    c #444444",
"2W    c #424342",
"2X    c #484843",
"2Y    c #B4B45D",
"2Z    c #F9FA4F",
"2&    c #B9B943",
"3     c #43433C",
"30    c #3B3B3B",
"31    c #39393A",
"32    c #302F30",
"33    c #1C1E1D",
"34    c #191919",
"35    c #2C2B2C",
"36    c #393738",
"37    c #383738",
"38    c #383737",
"39    c #373636",
"3a    c #363737",
"3b    c #373637",
"3c    c #373736",
"3d    c #383838",
"3e    c #534C44",
"3f    c #C9AC7B",
"3g    c #FAC588",
"3h    c #D98357",
"3i    c #924628",
"3j    c #50291B",
"3k    c #1F1C1C",
"3l    c #1C1B1B",
"3m    c #1F1F1D",
"3n    c #2F302F",
"3o    c #404041",
"3p    c #464741",
"3q    c #B4B35B",
"3r    c #FAFA50",
"3s    c #B7B94B",
"3t    c #41403A",
"3u    c #393939",
"3v    c #363636",
"3w    c #2C2A2B",
"3x    c #1A191A",
"3y    c #181817",
"3z    c #171918",
"3A    c #232222",
"3B    c #333334",
"3C    c #343333",
"3D    c #343534",
"3E    c #343434",
"3F    c #333234",
"3G    c #333332",
"3H    c #363634",
"3I    c #6A604C",
"3J    c #E1C28A",
"3K    c #F7B87F",
"3L    c #C97349",
"3M    c #823E23",
"3N    c #3D241A",
"3O    c #1B1919",
"3P    c #1B1A1A",
"3Q    c #1F1D1D",
"3R    c #2D2D2D",
"3S    c #3C3C3C",
"3T    c #3D3D3D",
"3U    c #464646",
"3V    c #454543",
"3W    c #434342",
"3X    c #454540",
"3Y    c #B2B456",
"3Z    c #F9F94E",
"3&    c #B1B249",
"4     c #3F3F38",
"40    c #282727",
"41    c #181A18",
"42    c #171515",
"43    c #161717",
"44    c #1D1C1D",
"45    c #2B2C2C",
"46    c #2F3030",
"47    c #31312F",
"48    c #2F2F2F",
"49    c #312F2F",
"4a    c #2F2F30",
"4b    c #2F2E2E",
"4c    c #4D453C",
"4d    c #B69C70",
"4e    c #F7D294",
"4f    c #EFA16E",
"4g    c #B4613A",
"4h    c #74341D",
"4i    c #2D1E17",
"4j    c #191818",
"4k    c #181918",
"4l    c #1E1E1E",
"4m    c #2B2B2C",
"4n    c #373737",
"4o    c #393A39",
"4p    c #3B3C3C",
"4q    c #3D3C3D",
"4r    c #444345",
"4s    c #404141",
"4t    c #3E3E40",
"4u    c #46443F",
"4v    c #B3B256",
"4w    c #F9F849",
"4x    c #B1B043",
"4y    c #3E3F38",
"4z    c #343332",
"4A    c #272626",
"4B    c #181718",
"4C    c #151415",
"4D    c #151616",
"4E    c #1B1C1C",
"4F    c #282828",
"4G    c #2C2C2B",
"4H    c #2D2C2B",
"4I    c #2D2C2C",
"4J    c #2C2C2C",
"4K    c #2B2D2C",
"4L    c #3B3732",
"4M    c #8D7A5A",
"4N    c #EDCC8F",
"4O    c #FAC88D",
"4P    c #E28E5F",
"4Q    c #A55433",
"4R    c #682D19",
"4S    c #271B16",
"4T    c #171818",
"4U    c #1F1E1E",
"4V    c #2A2928",
"4W    c #353535",
"4X    c #383A38",
"4Y    c #3A3A3A",
"4Z    c #46463E",
"4&    c #B2B454",
"5     c #F8F847",
"50    c #B1B041",
"51    c #3F3F36",
"52    c #353636",
"53    c #313132",
"54    c #262626",
"55    c #181618",
"56    c #141515",
"57    c #282928",
"58    c #292929",
"59    c #292A29",
"5a    c #2B2A2B",
"5b    c #312F2C",
"5c    c #685C48",
"5d    c #D7B982",
"5e    c #FCDE9E",
"5f    c #F9BA80",
"5g    c #D47B50",
"5h    c #934628",
"5i    c #612817",
"5j    c #231816",
"5k    c #161616",
"5l    c #1C1D1D",
"5m    c #29292A",
"5n    c #333433",
"5o    c #343536",
"5p    c #353536",
"5q    c #373838",
"5r    c #424242",
"5s    c #404040",
"5t    c #454641",
"5u    c #B4B253",
"5v    c #F8FA45",
"5w    c #B2B13A",
"5x    c #3F3F39",
"5y    c #333333",
"5z    c #262527",
"5A    c #171718",
"5B    c #161416",
"5C    c #151615",
"5D    c #1D1C1C",
"5E    c #282829",
"5F    c #2A2B2A",
"5G    c #292829",
"5H    c #2A2B29",
"5I    c #524D3E",
"5J    c #C5B27B",
"5K    c #F9E3A2",
"5L    c #FED99D",
"5M    c #F0A06F",
"5N    c #C06A43",
"5O    c #873D22",
"5P    c #592414",
"5Q    c #1F1815",
"5R    c #151516",
"5S    c #1A1B1A",
"5T    c #282827",
"5U    c #313031",
"5V    c #343334",
"5W    c #393A38",
"5X    c #424141",
"5Y    c #474741",
"5Z    c #B4B352",
"5&    c #FAFA43",
"6     c #B1B339",
"60    c #373839",
"61    c #353435",
"62    c #232524",
"63    c #171717",
"64    c #171617",
"65    c #1F1F1F",
"66    c #2C2A2C",
"67    c #2B2A2A",
"68    c #2A2A2A",
"69    c #2C2B2B",
"6a    c #79694F",
"6b    c #EFD493",
"6c    c #FEECAB",
"6d    c #FCCB92",
"6e    c #E48B5D",
"6f    c #B45F3C",
"6g    c #7D361D",
"6h    c #58220F",
"6i    c #211715",
"6j    c #161515",
"6k    c #1A1A19",
"6l    c #272728",
"6m    c #312F31",
"6n    c #323133",
"6o    c #333232",
"6p    c #383839",
"6q    c #393938",
"6r    c #414342",
"6s    c #5A5B44",
"6t    c #E3E242",
"6u    c #43423C",
"6v    c #363537",
"6w    c #272826",
"6x    c #1A1A18",
"6y    c #171817",
"6z    c #191817",
"6A    c #232221",
"6B    c #2F302E",
"6C    c #2E2E2E",
"6D    c #2F2D2E",
"6E    c #2D2E2D",
"6F    c #634C3E",
"6G    c #F1B77A",
"6H    c #FED192",
"6I    c #F7AD79",
"6J    c #D97F53",
"6K    c #A55333",
"6L    c #773017",
"6M    c #55200E",
"6N    c #201713",
"6O    c #171517",
"6P    c #252424",
"6Q    c #30312F",
"6R    c #333132",
"6S    c #343635",
"6T    c #363838",
"6U    c #393838",
"6V    c #393A3A",
"6W    c #3B3A3A",
"6X    c #434243",
"6Y    c #424341",
"6Z    c #525240",
"6&    c #44443E",
"7     c #3E3E3C",
"70    c #272625",
"71    c #1A1A1A",
"72    c #181818",
"73    c #19191A",
"74    c #343232",
"75    c #848283",
"76    c #989597",
"77    c #79787A",
"78    c #BF7F62",
"79    c #F49964",
"7a    c #E88B5B",
"7b    c #C86F45",
"7c    c #994B2B",
"7d    c #6F2C14",
"7e    c #571E0C",
"7f    c #241814",
"7g    c #232423",
"7h    c #303030",
"7i    c #353434",
"7j    c #363635",
"7k    c #434444",
"7l    c #191A1B",
"7m    c #1C1B1A",
"7n    c #2A292A",
"7o    c #BAB7BA",
"7p    c #D5D3D6",
"7q    c #D2D0D1",
"7r    c #CBC8CA",
"7s    c #C8A7A0",
"7t    c #B76548",
"7u    c #A65436",
"7v    c #883F21",
"7w    c #6A2812",
"7x    c #561E0D",
"7y    c #281814",
"7z    c #191918",
"7A    c #181819",
"7B    c #1E1F1F",
"7C    c #2E2E2F",
"7D    c #343435",
"7E    c #343636",
"7F    c #373739",
"7G    c #3B3A3B",
"7H    c #3B3C3A",
"7I    c #3C3E3C",
"7J    c #454546",
"7K    c #434343",
"7L    c #3D3D3E",
"7M    c #1E1D1E",
"7N    c #1D1E1E",
"7O    c #2C2D2D",
"7P    c #3A3A39",
"7Q    c #3A3839",
"7R    c #474546",
"7S    c #A3A0A1",
"7T    c #BBBABA",
"7U    c #C7C4C7",
"7V    c #BEBCBE",
"7W    c #B3B0B3",
"7X    c #A9A4A3",
"7Y    c #80554E",
"7Z    c #682919",
"7&    c #60230F",
"8     c #4F1E0D",
"80    c #271A17",
"81    c #1A1B1B",
"82    c #1A1A1B",
"83    c #1E1D1D",
"84    c #363536",
"85    c #373738",
"86    c #383938",
"87    c #3A3939",
"88    c #3C3D3C",
"89    c #3E3D3E",
"8a    c #3E3E3F",
"8b    c #201F20",
"8c    c #313030",
"8d    c #3F3D3E",
"8e    c #848485",
"8f    c #A3A2A2",
"8g    c #A5A3A4",
"8h    c #A5A2A5",
"8i    c #9F9F9F",
"8j    c #959596",
"8k    c #868585",
"8l    c #6F6A6C",
"8m    c #492A21",
"8n    c #341C16",
"8o    c #1E1B1B",
"8p    c #1D1D1C",
"8q    c #1C1D1B",
"8r    c #1B1D1D",
"8s    c #3A393A",
"8t    c #3A3C3A",
"8u    c #3A3B3A",
"8v    c #3C3B3C",
"8w    c #3E3E3D",
"8x    c #3D3F3E",
"8y    c #3F3E3E",
"8z    c #484849",
"8A    c #464748",
"8B    c #2E2F2F",
"8C    c #1F2020",
"8D    c #222121",
"8E    c #404140",
"8F    c #828282",
"8G    c #A19EA0",
"8H    c #908E91",
"8I    c #8B898A",
"8J    c #878688",
"8K    c #828181",
"8L    c #7A7978",
"8M    c #6C6B6D",
"8N    c #575657",
"8O    c #202020",
"8P    c #1D1D1E",
"8Q    c #1D1E1D",
"8R    c #222322",
"8S    c #3C3C3B",
"8T    c #3C3C3D",
"8U    c #3C3E3E",
"8V    c #3F403F",
"8W    c #4C4B4B",
"8X    c #4A484A",
"8Y    c #383937",
"8Z    c #252524",
"8&    c #4F4E4D",
"9     c #6F6F70",
"90    c #B0AEB0",
"91    c #ABAAAB",
"92    c #8A898A",
"93    c #797879",
"94    c #716F70",
"95    c #6B6A6B",
"96    c #656464",
"97    c #625F61",
"98    c #616061",
"99    c #1E1F1E",
"9a    c #201F1F",
"9b    c #20201F",
"9c    c #1E201E",
"9d    c #222321",
"9e    c #3D3E3D",
"9f    c #40403E",
"9g    c #403E3F",
"9h    c #41403F",
"9i    c #404042",
"9j    c #414143",
"9k    c #434443",
"9l    c #444543",
"9m    c #4B4C4B",
"9n    c #464647",
"9o    c #3E3F40",
"9p    c #616162",
"9q    c #919091",
"9r    c #B1B0B1",
"9s    c #BDBCBE",
"9t    c #9E9C9E",
"9u    c #7F7F7F",
"9v    c #6B6B6B",
"9w    c #60605F",
"9x    c #5A5A5B",
"9y    c #212021",
"9z    c #202121",
"9A    c #202021",
"9B    c #212121",
"9C    c #2D2C2D",
"9D    c #3E3E3E",
"9E    c #424243",
"9F    c #424443",
"9G    c #424343",
"9H    c #434344",
"9I    c #434543",
"9J    c #454445",
"9K    c #454544",
"9L    c #464745",
"9M    c #4F4F50",
"9N    c #4F4F4E",
"9O    c #4D4D4E",
"9P    c #4C4B4D",
"9Q    c #4A4B49",
"9R    c #4E4D4E",
"9S    c #4C4A4C",
"9T    c #424241",
"9U    c #212222",
"9V    c #2B2B2B",
"9W    c #444545",
"9X    c #454645",
"9Y    c #464644",
"9Z    c #444646",
"9&    c #464547",
"a     c #515152",
"a0    c #504F4F",
"a1    c #4F4E4F",
"a2    c #373837",
"a3    c #292A2A",
"a4    c #252625",
"a5    c #242425",
"a6    c #242525",
"a7    c #242324",
"a8    c #252523",
"a9    c #242323",
"aa    c #242424",
"ab    c #232424",
"ac    c #464446",
"ad    c #4A4849",
"ae    c #49484A",
"af    c #4A4A4B",
"ag    c #4B4B4A",
"ah    c #4C4B4C",
"   0 1 2 3 4 5 6 7 8 9 a b c d e f g h i j k l m n o p p q r s s t u v w x y z A B",
" 4 C D E F G H I J g K L k M N O P Q R R S T U V W X Y Z &0  Z00 Y01 Z020304050607",
" G08090a0b0c0d n p s Q0e0f0g0h0i0j0k0k0l0m0n0o0p0q0r0s0t0u0u0v0t0w0r0x0y0z0A0B0C0D",
"0E0F m0G0H R0I0J Y0K0L0M0N0O0P0Q0R0R0S0T0U0V0W0X0Y0Z0&1 1011120Y131415161718191a1b",
"1c1d U1e1f1g1h1i1j1k0Q1l1m1n1o1p1q1r1s1t1u1v1v1u1w1x1x1y1z1y1A1B1C1D1E1F1G1H1I1J1K",
"1L1M0k1N0u1O1P1Q1R1S1T1U1V1W1X1Y1Z1&2 1&202122232425262724281&292a2b2c2d2e2f2g2h2i",
"0p0r2j0T132k2l1B2m2n2o2p2q2r2s2t2u2v2w2x2y2z2A2B2C2D2E2C2B2F2G2H2I2J2K2L2M2N2O2P2Q",
"2j2R2S2T2U2V2W2X2Y2Z2&3 30313233343536373839383a3b3c3a3d3e3f3g3h3i3j3k3l3m3n2w233o",
"131r2i1y1Y223p3q3r3s3t3u3v3w3x3y3z3A3B3C3D3E3F3G3G3G3H3I3J3K3L3M3N3O3P3Q3R3d3S3T2r",
"3U3V3W202r3X3Y3Z3&4 3a3E404142434445464748494a4b484c4d4e4f4g4h4i4j4k4l4m4n4o304p4q",
"4r2W4s4t4u4v4w4x4y3H4z4A4B4C4D4E4F4G4H4I3R4J4K4L4M4N4O4P4Q4R4S3y4T4U4V4W4n374X4Y4p",
"2W3o244Z4&5 505152535455564C4E57585858595a5b5c5d5e5f5g5h5i5j5k435l5m5n5o5p385q314Y",
"5r5s5t5u5v5w5x3c5y5z5A5B5C5D5E5F58585G5H5I5J5K5L5M5N5O5P5Q5R5k5S5T5U3G5V5p3b3d5W30",
"5X5Y5Z5&6 3t6061624j636465664H4m6768696a6b6c6d6e6f6g6h6i566j6k6l6m6n6o614W3c6p6q4o",
"6r6s6t5w6u2h6v6w6x6y6z6A6B3n6C6D6E3R6F6G6H6I6J6K6L6M6N6O64346P6Q6R3F3D6S3a6T6U6V6W",
"6X6Y6Z6&7 3u70717273541J6o741j75767778797a7b7c7d7e7f4B633z7g7h3F5V7i7j3c383u4Y2h2y",
"7k2W3o204p584E7l7m7n7j3v4W077o7p7q7r7s7t7u7v7w7x7y7z7A347B7C7D7E4W3b377F317G7H3S7I",
"7J7K3W7L687M4E7N7O4o7P7Q7R7S7T7U7V7W7X7Y7Z7&8 806k8182837O84396T8586876W6W2z88898a",
"2k1r1B327B7M8b8c3S8d4q288e8f8g8h8i8j8k8l8m8n8o8p8q4E8r543b8s7P2E8t8u8v888w8x8y213o",
"8z128A8B8C8D3b221&8E1u8F8G8H8I8J8K8L8M8N8O8P8Q8P7M8P8R5n2y8S4q8T8U8923218V3o3o5X2W",
"8W0R8X8Y8Z361B1r8&9 9091929394959697983E999a9b9c8C9d5U9e9f9g26249h5s9i1Y9j7K7K9k9l",
"0q0v9m9n9o1b9p9q9r9s9t9u9v9w9x k0c I5s9y9y9y9z9A9B9C9D3W6X9E7K7K9F9G9H9I9J9K2i9L1r",
"9M0n9N9O0q9P2R2z3d9g9Q9R9S0D0u0u9T8c2N8R9U9V694K8B9D9W9X9Y2i9Z1s1t9&9&1r0&1K131K8z",
"1e Ya  Za0a11Pa2a3a4a5a6a7a8a5a962a9aaab7g6U1B6Xac1p13132k0Z1R10adae1 0X0Uaf1Pagah"};
