/* XPM */
static char *PAINTV_xpm[]={
"41 24 680 2",
"      c #696A68",
" 0    c #676767",
" 1    c #666867",
" 2    c #666766",
" 3    c #646566",
" 4    c #646364",
" 5    c #626463",
" 6    c #636263",
" 7    c #616262",
" 8    c #606061",
" 9    c #605F5F",
" a    c #5E5E5F",
" b    c #5D5E5D",
" c    c #5E5D5D",
" d    c #5D5E5C",
" e    c #5C5C5B",
" f    c #5B5B5C",
" g    c #5B5A5B",
" h    c #5A5B59",
" i    c #595A59",
" j    c #585959",
" k    c #595958",
" l    c #575757",
" m    c #585758",
" n    c #575858",
" o    c #565657",
" p    c #565656",
" q    c #555755",
" r    c #555555",
" s    c #565655",
" t    c #555556",
" u    c #5C5C55",
" v    c #636264",
" w    c #616362",
" x    c #606161",
" y    c #615F60",
" z    c #5F5F5F",
" A    c #5E5F5E",
" B    c #5C5D5D",
" C    c #5B5C5C",
" D    c #595A5B",
" E    c #5A5859",
" F    c #595758",
" G    c #575856",
" H    c #575657",
" I    c #555655",
" J    c #555554",
" K    c #545455",
" L    c #555553",
" M    c #545454",
" N    c #545253",
" O    c #535353",
" P    c #525252",
" Q    c #515251",
" R    c #525152",
" S    c #515151",
" T    c #525151",
" U    c #525051",
" V    c #525251",
" W    c #525250",
" X    c #515252",
" Y    c #585754",
" Z    c #846E5B",
" &    c #AA7152",
"0     c #574F49",
"00    c #525352",
"01    c #5E5D5F",
"02    c #5D5D5C",
"03    c #5D5B5C",
"04    c #5B5B5A",
"05    c #5A5A5A",
"06    c #595858",
"07    c #535454",
"08    c #535354",
"09    c #525353",
"0a    c #515152",
"0b    c #515051",
"0c    c #505250",
"0d    c #505050",
"0e    c #4E4F50",
"0f    c #4E4E4E",
"0g    c #4F4F4F",
"0h    c #4D4E4F",
"0i    c #4E4E4D",
"0j    c #4D4D4D",
"0k    c #4D4D4C",
"0l    c #4C4D4D",
"0m    c #4D4C4C",
"0n    c #4D4C4D",
"0o    c #4C4C4C",
"0p    c #4D4E4C",
"0q    c #4E4F4D",
"0r    c #6E6357",
"0s    c #D19F71",
"0t    c #E08D5B",
"0u    c #7C412A",
"0v    c #332F2F",
"0w    c #4B4C4C",
"0x    c #5B5959",
"0y    c #595859",
"0z    c #575857",
"0A    c #555656",
"0B    c #545354",
"0C    c #535252",
"0D    c #515050",
"0E    c #4F514F",
"0F    c #504E4F",
"0G    c #4E4F4E",
"0H    c #4D4D4E",
"0I    c #4C4D4C",
"0J    c #4B4B4B",
"0K    c #4B4C4A",
"0L    c #4B4A4A",
"0M    c #4A4A4A",
"0N    c #4A4A49",
"0O    c #494A49",
"0P    c #494A4A",
"0Q    c #484949",
"0R    c #494948",
"0S    c #474848",
"0T    c #494849",
"0U    c #484948",
"0V    c #474948",
"0W    c #494947",
"0X    c #484848",
"0Y    c #4F4E4B",
"0Z    c #9B8466",
"0&    c #EEB078",
"1     c #D98254",
"10    c #804026",
"11    c #302522",
"12    c #2B2C2B",
"13    c #474748",
"14    c #565756",
"15    c #555454",
"16    c #535352",
"17    c #545451",
"18    c #55544F",
"19    c #54534E",
"1a    c #4F504E",
"1b    c #4D4C4B",
"1c    c #4B4B4A",
"1d    c #49484A",
"1e    c #494848",
"1f    c #474747",
"1g    c #464747",
"1h    c #464746",
"1i    c #464546",
"1j    c #464645",
"1k    c #454545",
"1l    c #444445",
"1m    c #454344",
"1n    c #444343",
"1o    c #444344",
"1p    c #434445",
"1q    c #444443",
"1r    c #444544",
"1s    c #5B554E",
"1t    c #C8A777",
"1u    c #F5B278",
"1v    c #C57148",
"1w    c #783923",
"1x    c #302420",
"1y    c #212122",
"1z    c #313232",
"1A    c #484847",
"1B    c #535151",
"1C    c #505151",
"1D    c #4D4F4E",
"1E    c #676651",
"1F    c #D8D861",
"1G    c #DBDC62",
"1H    c #DCDB62",
"1I    c #D1D04A",
"1J    c #666445",
"1K    c #454547",
"1L    c #434443",
"1M    c #434444",
"1N    c #444242",
"1O    c #424242",
"1P    c #414141",
"1Q    c #424041",
"1R    c #414040",
"1S    c #403F3F",
"1T    c #414140",
"1U    c #3F3F3F",
"1V    c #3F4040",
"1W    c #403F40",
"1X    c #3E3F3F",
"1Y    c #3F3F3E",
"1Z    c #3F3F40",
"1&    c #6D6353",
"2     c #DFB982",
"20    c #F3A872",
"21    c #B6633D",
"22    c #713620",
"23    c #2B211E",
"24    c #1F1F20",
"25    c #262525",
"26    c #3B3B3A",
"27    c #464545",
"28    c #4B4B4C",
"29    c #6A6A4D",
"2a    c #F8F763",
"2b    c #FDFE64",
"2c    c #FDFD64",
"2d    c #FDFE48",
"2e    c #7B7C37",
"2f    c #424142",
"2g    c #3F3E3F",
"2h    c #3F3D3D",
"2i    c #3D3E3E",
"2j    c #3D3C3D",
"2k    c #3C3C3D",
"2l    c #3C3D3D",
"2m    c #3D3C3B",
"2n    c #3C3B3B",
"2o    c #3B3C3B",
"2p    c #3A3C3C",
"2q    c #3C3A3B",
"2r    c #3B3B3C",
"2s    c #3A3B3C",
"2t    c #3A3B3B",
"2u    c #44413E",
"2v    c #948164",
"2w    c #F1C489",
"2x    c #E99867",
"2y    c #A55534",
"2z    c #63301D",
"2A    c #251F1C",
"2B    c #1E1E1D",
"2C    c #222222",
"2D    c #353534",
"2E    c #414041",
"2F    c #424442",
"2G    c #484A49",
"2H    c #494747",
"2I    c #474746",
"2J    c #69684A",
"2K    c #F8F960",
"2L    c #FDFE60",
"2M    c #FDFD62",
"2N    c #FDFD47",
"2O    c #70702B",
"2P    c #3C3B3C",
"2Q    c #3B3B3B",
"2R    c #3A3A3B",
"2S    c #3A393A",
"2T    c #383A39",
"2U    c #383838",
"2V    c #393839",
"2W    c #393738",
"2X    c #383738",
"2Y    c #383737",
"2Z    c #373636",
"2&    c #363737",
"3     c #373637",
"30    c #373736",
"31    c #534C44",
"32    c #C9AC7B",
"33    c #FAC588",
"34    c #D98357",
"35    c #924628",
"36    c #50291B",
"37    c #1F1C1C",
"38    c #1C1B1B",
"39    c #1F1F1D",
"3a    c #2F302F",
"3b    c #404041",
"3c    c #545445",
"3d    c #CACA51",
"3e    c #DFE04D",
"3f    c #E3E24B",
"3g    c #E3E33C",
"3h    c #5E5F24",
"3i    c #343434",
"3j    c #393939",
"3k    c #353535",
"3l    c #343535",
"3m    c #353434",
"3n    c #333435",
"3o    c #343333",
"3p    c #343534",
"3q    c #333234",
"3r    c #333332",
"3s    c #363634",
"3t    c #6A604C",
"3u    c #E1C28A",
"3v    c #F7B87F",
"3w    c #C97349",
"3x    c #823E23",
"3y    c #3D241A",
"3z    c #1B1919",
"3A    c #1B1A1A",
"3B    c #1F1D1D",
"3C    c #2D2D2D",
"3D    c #3C3C3C",
"3E    c #3D3D3D",
"3F    c #464646",
"3G    c #454543",
"3H    c #434342",
"3I    c #40403E",
"3J    c #313226",
"3K    c #27271A",
"3L    c #272719",
"3M    c #1E1D19",
"3N    c #2C2E2D",
"3O    c #323332",
"3P    c #323131",
"3Q    c #303131",
"3R    c #312F31",
"3S    c #303030",
"3T    c #2F3030",
"3U    c #31312F",
"3V    c #2F2F2F",
"3W    c #312F2F",
"3X    c #2F2F30",
"3Y    c #2F2E2E",
"3Z    c #4D453C",
"3&    c #B69C70",
"4     c #F7D294",
"40    c #EFA16E",
"41    c #B4613A",
"42    c #74341D",
"43    c #2D1E17",
"44    c #191818",
"45    c #181918",
"46    c #1E1E1E",
"47    c #2B2B2C",
"48    c #373737",
"49    c #393A39",
"4a    c #3B3C3C",
"4b    c #444345",
"4c    c #424342",
"4d    c #404141",
"4e    c #3E3E40",
"4f    c #3E3D3D",
"4g    c #282728",
"4h    c #181717",
"4i    c #171818",
"4j    c #171816",
"4k    c #252423",
"4l    c #313131",
"4m    c #2F2E2F",
"4n    c #2D2F2F",
"4o    c #2D2E2E",
"4p    c #2C2C2C",
"4q    c #2C2C2B",
"4r    c #2D2C2B",
"4s    c #2D2C2C",
"4t    c #2B2D2C",
"4u    c #3B3732",
"4v    c #8D7A5A",
"4w    c #EDCC8F",
"4x    c #FAC88D",
"4y    c #E28E5F",
"4z    c #A55433",
"4A    c #682D19",
"4B    c #271B16",
"4C    c #181817",
"4D    c #1F1E1E",
"4E    c #2A2928",
"4F    c #383A38",
"4G    c #3A3A3A",
"4H    c #3E3E3D",
"4I    c #3B3D3C",
"4J    c #393A3A",
"4K    c #2B2A2B",
"4L    c #171718",
"4M    c #151617",
"4N    c #302F31",
"4O    c #2E2F2E",
"4P    c #2A2B2A",
"4Q    c #292929",
"4R    c #292A29",
"4S    c #312F2C",
"4T    c #685C48",
"4U    c #D7B982",
"4V    c #FCDE9E",
"4W    c #F9BA80",
"4X    c #D47B50",
"4Y    c #934628",
"4Z    c #612817",
"4&    c #231816",
"5     c #161616",
"50    c #161717",
"51    c #1C1D1D",
"52    c #29292A",
"53    c #333433",
"54    c #343536",
"55    c #353536",
"56    c #373838",
"57    c #39393A",
"58    c #404040",
"59    c #3A3C3B",
"5a    c #3A3939",
"5b    c #2C2C2D",
"5c    c #161617",
"5d    c #171617",
"5e    c #1D1D1E",
"5f    c #302F30",
"5g    c #2E2F2D",
"5h    c #2E2C2C",
"5i    c #2A2B2B",
"5j    c #292829",
"5k    c #2A2B29",
"5l    c #524D3E",
"5m    c #C5B27B",
"5n    c #F9E3A2",
"5o    c #FED99D",
"5p    c #F0A06F",
"5q    c #C06A43",
"5r    c #873D22",
"5s    c #592414",
"5t    c #1F1815",
"5u    c #151516",
"5v    c #1A1B1A",
"5w    c #282827",
"5x    c #313031",
"5y    c #343334",
"5z    c #393A38",
"5A    c #424141",
"5B    c #40403F",
"5C    c #2E2F30",
"5D    c #171817",
"5E    c #171717",
"5F    c #202020",
"5G    c #2E2D2E",
"5H    c #2B2A2A",
"5I    c #2A2A2A",
"5J    c #2C2B2B",
"5K    c #79694F",
"5L    c #EFD393",
"5M    c #FEECAB",
"5N    c #FCCB92",
"5O    c #E48B5D",
"5P    c #B45F3C",
"5Q    c #7D361D",
"5R    c #58220F",
"5S    c #211715",
"5T    c #141515",
"5U    c #161515",
"5V    c #1A1A19",
"5W    c #272728",
"5X    c #323133",
"5Y    c #333232",
"5Z    c #353435",
"5&    c #383839",
"6     c #393938",
"60    c #414342",
"61    c #3F4140",
"62    c #3F3E40",
"63    c #343335",
"64    c #1B1C1A",
"65    c #1A1A18",
"66    c #181A18",
"67    c #21201F",
"68    c #323231",
"69    c #313130",
"6a    c #2E2E2E",
"6b    c #2F2D2E",
"6c    c #2D2E2D",
"6d    c #634C3E",
"6e    c #F1B77A",
"6f    c #FECF91",
"6g    c #F7AD79",
"6h    c #D97F53",
"6i    c #A55333",
"6j    c #773017",
"6k    c #55200E",
"6l    c #201713",
"6m    c #171517",
"6n    c #191919",
"6o    c #252424",
"6p    c #30312F",
"6q    c #333132",
"6r    c #343635",
"6s    c #363838",
"6t    c #393838",
"6u    c #3B3A3A",
"6v    c #434243",
"6w    c #414241",
"6x    c #3E3E3E",
"6y    c #3E3E3C",
"6z    c #343232",
"6A    c #4C4C4D",
"6B    c #848283",
"6C    c #989597",
"6D    c #79787A",
"6E    c #BF7E61",
"6F    c #F49564",
"6G    c #E88B5B",
"6H    c #C86F45",
"6I    c #994B2B",
"6J    c #6F2C14",
"6K    c #571E0C",
"6L    c #241814",
"6M    c #181718",
"6N    c #171918",
"6O    c #232423",
"6P    c #363635",
"6Q    c #383837",
"6R    c #363636",
"6S    c #BAB7BA",
"6T    c #D5D3D6",
"6U    c #D2D0D1",
"6V    c #CBC8CA",
"6W    c #C8A7A0",
"6X    c #B76548",
"6Y    c #A65436",
"6Z    c #883F21",
"6&    c #6A2812",
"7     c #561E0D",
"70    c #281814",
"71    c #191918",
"72    c #181819",
"73    c #1E1F1F",
"74    c #2E2E2F",
"75    c #343435",
"76    c #343636",
"77    c #373739",
"78    c #3B3A3B",
"79    c #3B3C3A",
"7a    c #3C3E3C",
"7b    c #454546",
"7c    c #434343",
"7d    c #414142",
"7e    c #3D3E3D",
"7f    c #3C3D3C",
"7g    c #3A3A39",
"7h    c #3A3839",
"7i    c #474546",
"7j    c #A29FA1",
"7k    c #BAB9BA",
"7l    c #C7C4C7",
"7m    c #BEBCBE",
"7n    c #B3B0B3",
"7o    c #A9A4A3",
"7p    c #7F544E",
"7q    c #682919",
"7r    c #60230F",
"7s    c #4F1E0D",
"7t    c #271A17",
"7u    c #1A1B1B",
"7v    c #1A1A1B",
"7w    c #1E1D1D",
"7x    c #2C2D2D",
"7y    c #363536",
"7z    c #373738",
"7A    c #383938",
"7B    c #3E3D3E",
"7C    c #3E3E3F",
"7D    c #484748",
"7E    c #454544",
"7F    c #424343",
"7G    c #3F3D3E",
"7H    c #848485",
"7I    c #A2A2A2",
"7J    c #A5A3A4",
"7K    c #A5A2A5",
"7L    c #9F9F9F",
"7M    c #959596",
"7N    c #868585",
"7O    c #6F6A6C",
"7P    c #492A21",
"7Q    c #341C16",
"7R    c #1E1B1B",
"7S    c #1D1D1C",
"7T    c #1C1D1B",
"7U    c #1B1C1C",
"7V    c #1B1D1D",
"7W    c #262626",
"7X    c #3A3C3A",
"7Y    c #3A3B3A",
"7Z    c #3D3F3E",
"7&    c #3F3E3E",
"8     c #484849",
"80    c #454746",
"81    c #444546",
"82    c #444244",
"83    c #434242",
"84    c #404140",
"85    c #828282",
"86    c #A19EA0",
"87    c #908E91",
"88    c #8B898A",
"89    c #878688",
"8a    c #828181",
"8b    c #7A7978",
"8c    c #6C6B6D",
"8d    c #1D1E1D",
"8e    c #1E1D1E",
"8f    c #222322",
"8g    c #3C3C3B",
"8h    c #3C3E3E",
"8i    c #3F403F",
"8j    c #4C4B4B",
"8k    c #4A484A",
"8l    c #474847",
"8m    c #474646",
"8n    c #4F4E4D",
"8o    c #6F6F70",
"8p    c #B0AEB0",
"8q    c #ABAAAB",
"8r    c #8A898A",
"8s    c #797879",
"8t    c #716F70",
"8u    c #6B6A6B",
"8v    c #656464",
"8w    c #625F61",
"8x    c #616061",
"8y    c #1E1F1E",
"8z    c #201F1F",
"8A    c #20201F",
"8B    c #1E201E",
"8C    c #1F2020",
"8D    c #222321",
"8E    c #403E3F",
"8F    c #41403F",
"8G    c #404042",
"8H    c #414143",
"8I    c #444543",
"8J    c #4B4C4B",
"8K    c #4A4A4B",
"8L    c #494A4B",
"8M    c #49494A",
"8N    c #616162",
"8O    c #919091",
"8P    c #B1B0B1",
"8Q    c #BDBCBE",
"8R    c #9E9C9E",
"8S    c #7F7F7F",
"8T    c #6B6B6B",
"8U    c #60605F",
"8V    c #5A5A5B",
"8W    c #212021",
"8X    c #202121",
"8Y    c #202021",
"8Z    c #212121",
"8&    c #2D2C2D",
"9     c #424243",
"90    c #424443",
"91    c #434344",
"92    c #434543",
"93    c #454445",
"94    c #464745",
"95    c #4F4F50",
"96    c #4F4F4E",
"97    c #4C4B4D",
"98    c #4A4B49",
"99    c #4E4D4E",
"9a    c #4C4A4C",
"9b    c #424241",
"9c    c #313030",
"9d    c #212222",
"9e    c #2B2B2B",
"9f    c #2E2F2F",
"9g    c #444545",
"9h    c #454645",
"9i    c #464644",
"9j    c #444646",
"9k    c #464547",
"9l    c #504F4F",
"9m    c #4F4E4F",
"9n    c #4A4B4A",
"9o    c #373837",
"9p    c #292A2A",
"9q    c #252625",
"9r    c #242425",
"9s    c #242525",
"9t    c #242324",
"9u    c #252523",
"9v    c #242323",
"9w    c #232524",
"9x    c #242424",
"9y    c #232424",
"9z    c #464446",
"9A    c #494748",
"9B    c #4A4849",
"9C    c #4C4B4C",
"   0 1 2 3 4 5 6 7 8 9 a b c d e f g h i j k l m n o p p q r s s t u f g h i j k l",
" 4 v w x y z A B C g D E k F G H I J K K L M N O P Q R S T U S V R W S X Y Z &0 00",
" z010203040506 n p s J0708090a0b0c0d0d0e0f0g0h0i0j0k0l0m0n0n0o0m0p0k0q0r0s0t0u0v0w",
"0x0y m0z0A K0B0C R0D0E0F0G0H0I0o0J0J0K0L0M0N0O0P0Q0R0S0T0U0V0W0Q0X0Y0Z0&1 10111213",
"1415 N16 X1718191a1b1c0P1d1e1f1f1g1h1i1j1k1l1l1k1m1n1n1o1p1o1q1r1s1t1u1v1w1x1y1z1A",
"1B1C0d1D1E1F1G1H1I1J1K1k1L1M1N1O1O1P1Q1P1R1S1T1U1V1W1X1Y1V1Z1P1&2 2021222324252627",
"0i0k280L292a2b2c2d2e2f1T1U2g2h2i2j2k2l2m2n2o2p2q2r2s2t2r2q2u2v2w2x2y2z2A2B2C2D2E2F",
"282G2H2I2J2K2L2M2N2O2r2P2Q2R2S2T2U2V2W2X2Y2Z2Y2&3 302&2U3132333435363738393a2l1U3b",
"0X1h271o3c3d3e3f3g3h3i3j2Z2Z3k2D3l3m3n3o3p3i3q3r3r3r3s3t3u3v3w3x3y3z3A3B3C2U3D3E2g",
"3F3G3H1R2g3I3J3K3L3M3N3k3m3O3P3Q3R3S3T3U3V3W3X3Y3V3Z3&4 404142434445464748492Q4a2j",
"4b4c4d4e4f2P4g4h4i4j4k3P4l4m4n4o4p4q4r4s3C4p4t4u4v4w4x4y4z4A4B4C4i4D4E3k482X4F4G4a",
"4c3b1V4H4I4J4K4C4L4M1y4N4O3C4t4P4Q4Q4Q4R4K4S4T4U4V4W4X4Y4Z4&5 5051525354552Y56574G",
"1O581X2j595a5b445c5d5e5f5g5h475i4Q4Q5j5k5l5m5n5o5p5q5r5s5t5u5 5v5w5x3r5y553 2U5z2Q",
"5A5B2g3E592S5C445D5E5F3R5f5G4r475H5I5J5K5L5M5N5O5P5Q5R5S5T5U5V5W3R5X5Y5Z3k305&6 49",
"6061623E2P26636465666768693a6a6b6c3C6d6e6f6g6h6i6j6k6l6m5d6n6o6p6q3q3p6r2&6s6t4J6u",
"6v6w3b6x6y3D5a3S3C5b3S3n5Y6z6A6B6C6D6E6F6G6H6I6J6K6L6M5E6N6O3S3q5y3m6P302Y3j4G262n",
"1M4c3b1R6x4H4a2R5a6t6Q6R3k006S6T6U6V6W6X6Y6Z6&7 7071726n737475763k3 2X775778793D7a",
"7b7c3H7d581W2i7e7f2t7g7h7i7j7k7l7m7n7o7p7q7r7s7t5V7u7v7w7x7y2Z6s7z7A5a6u6u2o7f7B7C",
"7D1h7E1o7F2f3b1S6x7G2j1Z7H7I7J7K7L7M7N7O7P7Q7R7S7T7U7V7W3 2S7g2t7X7Y2P7f4H7Z7&1S3b",
"8 0W1380811n82831P841k85868788898a8b8c H5F5e8d5e8e5e8f532n8g2j2k8h7B1U1S8i3b3b5A4c",
"8j0J8k0W8l8m1j1h8n8o8p8q8r8s8t8u8v8w8x3i8y8z8A8B8C8D5x7e3I8E1X1V8F588G2f8H7c7c1L8I",
"0j0o8J8K8L8M8N8O8P8Q8R8S8T8U8V k05 B588W8W8W8X8Y8Z8&6x3H6v9 7c7c907F9192937E27941h",
"950g960H0j972G2o2U8E98999a0w0n0n9b9c2C8f9d9e5J4t9f6x9g9h9i279j1i1j9k9k1h0S1A0X1A8 ",
"16 R0a S9l9m9n9o9p9q9r9s9t9u9r9v9w9v9x9y6O6t1r6v9z1f0X0X7D0R9A0U9B1d0T0P0M8K9n1c9C"};
