/* XPM */
static char *REMSHELL_xpm[]={
"41 24 780 2",
"      c #696A68",
" 0    c #676767",
" 1    c #666867",
" 2    c #666766",
" 3    c #646566",
" 4    c #646364",
" 5    c #626463",
" 6    c #636263",
" 7    c #616262",
" 8    c #606061",
" 9    c #605F5F",
" a    c #5E5E5F",
" b    c #5F605D",
" c    c #88865C",
" d    c #B1B15D",
" e    c #727158",
" f    c #5B5B5C",
" g    c #5B5A5B",
" h    c #5A5B59",
" i    c #595A59",
" j    c #585959",
" k    c #595958",
" l    c #575757",
" m    c #585758",
" n    c #575858",
" o    c #565657",
" p    c #565656",
" q    c #555755",
" r    c #555555",
" s    c #565655",
" t    c #555556",
" u    c #727155",
" v    c #676663",
" w    c #7F7D6B",
" x    c #87886E",
" y    c #676862",
" z    c #686560",
" A    c #6B6960",
" B    c #74705D",
" C    c #7A7558",
" D    c #7F7851",
" E    c #897E48",
" F    c #988940",
" G    c #978537",
" H    c #907F2F",
" I    c #AD9A32",
" J    c #EFE13D",
" K    c #AE9F4B",
" L    c #666456",
" M    c #565554",
" N    c #545455",
" O    c #555553",
" P    c #545454",
" Q    c #545253",
" R    c #535353",
" S    c #525252",
" T    c #515251",
" U    c #525152",
" V    c #515151",
" W    c #525151",
" X    c #525051",
" Y    c #525251",
" Z    c #525250",
" &    c #515252",
"0     c #525352",
"00    c #535251",
"01    c #515152",
"02    c #525353",
"03    c #66645D",
"04    c #E3C33E",
"05    c #F6EC4D",
"06    c #C3B746",
"07    c #A5953A",
"08    c #9F8D33",
"09    c #968532",
"0a    c #8D7E2F",
"0b    c #7F7335",
"0c    c #70683F",
"0d    c #6A6441",
"0e    c #625F48",
"0f    c #5A584E",
"0g    c #666349",
"0h    c #938729",
"0i    c #6E6744",
"0j    c #938740",
"0k    c #A39550",
"0l    c #6F6B55",
"0m    c #525350",
"0n    c #4E4E4E",
"0o    c #4F4F4F",
"0p    c #4D4E4F",
"0q    c #4E4E4D",
"0r    c #4D4D4D",
"0s    c #4D4D4C",
"0t    c #4C4D4D",
"0u    c #4D4C4C",
"0v    c #4D4C4D",
"0w    c #4C4C4C",
"0x    c #4D4E4C",
"0y    c #4D4D4E",
"0z    c #4E4F4E",
"0A    c #4E4E4F",
"0B    c #4E4F4F",
"0C    c #5D5A58",
"0D    c #C0A22F",
"0E    c #D1C12B",
"0F    c #C4B746",
"0G    c #6E6B50",
"0H    c #585851",
"0I    c #565453",
"0J    c #535252",
"0K    c #515050",
"0L    c #4F514F",
"0M    c #504E4F",
"0N    c #514F4A",
"0O    c #756A2A",
"0P    c #4D4C4A",
"0Q    c #645F42",
"0R    c #9A8F48",
"0S    c #AEA157",
"0T    c #736E51",
"0U    c #4F4F49",
"0V    c #4E4F4A",
"0W    c #4A4B4A",
"0X    c #484949",
"0Y    c #494948",
"0Z    c #474848",
"0&    c #494849",
"1     c #484948",
"10    c #474948",
"11    c #494947",
"12    c #484848",
"13    c #4A4949",
"14    c #4A4B4B",
"15    c #4B4B4C",
"16    c #4B4C4B",
"17    c #565756",
"18    c #5B594E",
"19    c #897C1B",
"1a    c #706A41",
"1b    c #A9A04F",
"1c    c #716F58",
"1d    c #51504F",
"1e    c #4E4D4D",
"1f    c #4C4C4D",
"1g    c #4D4C4B",
"1h    c #4B4B4A",
"1i    c #494A4A",
"1j    c #49484A",
"1k    c #4F4C45",
"1l    c #75682A",
"1m    c #474747",
"1n    c #464747",
"1o    c #464746",
"1p    c #484645",
"1q    c #615B3C",
"1r    c #9B8C41",
"1s    c #C7C057",
"1t    c #DBD95D",
"1u    c #AEA64D",
"1v    c #474544",
"1w    c #444343",
"1x    c #444344",
"1y    c #434445",
"1z    c #444443",
"1A    c #444544",
"1B    c #444445",
"1C    c #444645",
"1D    c #454645",
"1E    c #464646",
"1F    c #474646",
"1G    c #474748",
"1H    c #494949",
"1I    c #535151",
"1J    c #52524E",
"1K    c #766C20",
"1L    c #5B5945",
"1M    c #595546",
"1N    c #9A8E41",
"1O    c #8B895B",
"1P    c #4E4D4B",
"1Q    c #494748",
"1R    c #484647",
"1S    c #454547",
"1T    c #454545",
"1U    c #434443",
"1V    c #494841",
"1W    c #726528",
"1X    c #434242",
"1Y    c #484841",
"1Z    c #585440",
"1&    c #655D39",
"2     c #7F732F",
"20    c #817423",
"21    c #9D8D22",
"22    c #F1DA3C",
"23    c #CBA92E",
"24    c #404140",
"25    c #403F40",
"26    c #3E3F3F",
"27    c #3F3F3E",
"28    c #3F4040",
"29    c #3F3F40",
"2a    c #404041",
"2b    c #434342",
"2c    c #4C4B43",
"2d    c #4F4F44",
"2e    c #4A4A42",
"2f    c #424343",
"2g    c #444444",
"2h    c #454443",
"2i    c #454544",
"2j    c #464545",
"2k    c #4D4D4B",
"2l    c #6F6523",
"2m    c #5E593C",
"2n    c #4E4B43",
"2o    c #817A3D",
"2p    c #A59F5F",
"2q    c #666756",
"2r    c #70715D",
"2s    c #494846",
"2t    c #444340",
"2u    c #524E40",
"2v    c #68603E",
"2w    c #8F7F29",
"2x    c #867A2E",
"2y    c #817420",
"2z    c #7A6E1D",
"2A    c #6E6420",
"2B    c #56502B",
"2C    c #534E31",
"2D    c #524F35",
"2E    c #978D35",
"2F    c #605335",
"2G    c #3B3B3C",
"2H    c #3A3B3C",
"2I    c #3A3B3B",
"2J    c #3C3A3B",
"2K    c #4F4D45",
"2L    c #7E6E51",
"2M    c #A18144",
"2N    c #A78441",
"2O    c #A38341",
"2P    c #AF8D3D",
"2Q    c #A5893C",
"2R    c #64593E",
"2S    c #424140",
"2T    c #424141",
"2U    c #424142",
"2V    c #424442",
"2W    c #484A49",
"2X    c #696024",
"2Y    c #615A35",
"2Z    c #464444",
"2&    c #444540",
"3     c #857635",
"30    c #F8E87D",
"31    c #FAEE80",
"32    c #C8B349",
"33    c #847829",
"34    c #8A7B1D",
"35    c #7E721B",
"36    c #7C6E19",
"37    c #4F4C29",
"38    c #444130",
"39    c #3D3C37",
"3a    c #393838",
"3b    c #383738",
"3c    c #383737",
"3d    c #413E33",
"3e    c #5E5724",
"3f    c #363737",
"3g    c #373637",
"3h    c #373736",
"3i    c #383838",
"3j    c #625C4B",
"3k    c #A5864C",
"3l    c #65543C",
"3m    c #3F3C39",
"3n    c #3C3A39",
"3o    c #3B3A3A",
"3p    c #3F3D3C",
"3q    c #5D4D38",
"3r    c #AB813A",
"3s    c #91743A",
"3t    c #45433D",
"3u    c #3F3F3F",
"3v    c #5D572D",
"3w    c #6B602E",
"3x    c #414140",
"3y    c #706133",
"3z    c #FDC913",
"3A    c #FDD019",
"3B    c #D7B01A",
"3C    c #514C2B",
"3D    c #474431",
"3E    c #464232",
"3F    c #685D27",
"3G    c #353534",
"3H    c #343535",
"3I    c #353434",
"3J    c #333435",
"3K    c #343333",
"3L    c #343534",
"3M    c #454230",
"3N    c #524B23",
"3O    c #333332",
"3P    c #323333",
"3Q    c #514E3C",
"3R    c #8D6E3F",
"3S    c #3F3933",
"3T    c #353736",
"3U    c #3A3939",
"3V    c #3F3D3B",
"3W    c #90753D",
"3X    c #917138",
"3Y    c #3F3E3C",
"3Z    c #3F3E3F",
"3&    c #454543",
"4     c #535033",
"40    c #7B6C26",
"41    c #3D3D3E",
"42    c #3B3D3B",
"43    c #454339",
"44    c #AE8E20",
"45    c #D5B018",
"46    c #867529",
"47    c #363635",
"48    c #3E3D2F",
"49    c #645925",
"4a    c #303131",
"4b    c #312F31",
"4c    c #303030",
"4d    c #2F3030",
"4e    c #31312F",
"4f    c #2F2F2F",
"4g    c #484228",
"4h    c #464123",
"4i    c #2F2E2E",
"4j    c #2E2E2E",
"4k    c #302F2F",
"4l    c #353431",
"4m    c #A17F3E",
"4n    c #423930",
"4o    c #323231",
"4p    c #323232",
"4q    c #343433",
"4r    c #343434",
"4s    c #353634",
"4t    c #363636",
"4u    c #373738",
"4v    c #393939",
"4w    c #3D3E3A",
"4x    c #B59441",
"4y    c #5D4E36",
"4z    c #3D3C3D",
"4A    c #444345",
"4B    c #424342",
"4C    c #4B4937",
"4D    c #716421",
"4E    c #3F3D3D",
"4F    c #3C3B3C",
"4G    c #3A393A",
"4H    c #46442E",
"4I    c #716813",
"4J    c #3B3931",
"4K    c #323131",
"4L    c #313131",
"4M    c #494633",
"4N    c #695F29",
"4O    c #2E2F2E",
"4P    c #2C2C2C",
"4Q    c #2C2C2B",
"4R    c #2C2B2B",
"4S    c #2D2C2C",
"4T    c #2D2D2D",
"4U    c #4D4824",
"4V    c #3A3924",
"4W    c #2C2B2C",
"4X    c #2B2B2C",
"4Y    c #2C2D2C",
"4Z    c #5B5436",
"4&    c #755D32",
"5     c #47453B",
"50    c #4D4938",
"51    c #4E4937",
"52    c #4F4B37",
"53    c #534F39",
"54    c #575039",
"55    c #575139",
"56    c #58513A",
"57    c #59513A",
"58    c #59503B",
"59    c #6C6741",
"5a    c #937635",
"5b    c #3B3C3C",
"5c    c #44443B",
"5d    c #766A1B",
"5e    c #3F3F3B",
"5f    c #393A3A",
"5g    c #383839",
"5h    c #403F2F",
"5i    c #6D6416",
"5j    c #393732",
"5k    c #373532",
"5l    c #554F34",
"5m    c #C2B440",
"5n    c #D8D243",
"5o    c #3E3E2C",
"5p    c #292929",
"5q    c #292928",
"5r    c #252524",
"5s    c #212221",
"5t    c #2B2A2B",
"5u    c #564E1E",
"5v    c #333125",
"5w    c #292828",
"5x    c #292A29",
"5y    c #2A2A29",
"5z    c #786833",
"5A    c #483D2D",
"5B    c #C5A645",
"5C    c #F3BF43",
"5D    c #F3BE41",
"5E    c #F2BC3F",
"5F    c #F5BC3E",
"5G    c #F5B93C",
"5H    c #F6B83B",
"5I    c #F6B63A",
"5J    c #F5B238",
"5K    c #EFA936",
"5L    c #5F5138",
"5M    c #AA8E3C",
"5N    c #3C3B3A",
"5O    c #424242",
"5P    c #404040",
"5Q    c #41413D",
"5R    c #76691F",
"5S    c #434239",
"5T    c #373839",
"5U    c #383837",
"5V    c #454431",
"5W    c #776B17",
"5X    c #8D7F37",
"5Y    c #7A672E",
"5Z    c #68602B",
"5&    c #675B25",
"6     c #6B652A",
"60    c #746A2F",
"61    c #353327",
"62    c #262626",
"63    c #1D1C1D",
"64    c #171818",
"65    c #272625",
"66    c #554F1C",
"67    c #2B2B26",
"68    c #292727",
"69    c #282829",
"6a    c #292829",
"6b    c #947D33",
"6c    c #42382A",
"6d    c #CC9F35",
"6e    c #FDB833",
"6f    c #FDB732",
"6g    c #FDB631",
"6h    c #FDB430",
"6i    c #FDB130",
"6j    c #FEB12F",
"6k    c #FDAE2E",
"6l    c #FDAC2E",
"6m    c #F39B29",
"6n    c #584934",
"6o    c #A69342",
"6p    c #40403F",
"6q    c #434240",
"6r    c #766B27",
"6s    c #5C5A3E",
"6t    c #504D40",
"6u    c #6E6942",
"6v    c #908543",
"6w    c #837A2D",
"6x    c #756A15",
"6y    c #48442D",
"6z    c #333130",
"6A    c #302F30",
"6B    c #2D2C2D",
"6C    c #1A1919",
"6D    c #201F17",
"6E    c #7E7338",
"6F    c #49452C",
"6G    c #161718",
"6H    c #1F1E1D",
"6I    c #4E4A1D",
"6J    c #2B2B2A",
"6K    c #2A292A",
"6L    c #29292A",
"6M    c #77602E",
"6N    c #53402C",
"6O    c #BC8529",
"6P    c #EC9B25",
"6Q    c #ED9C24",
"6R    c #F09E26",
"6S    c #F19C25",
"6T    c #F29C25",
"6U    c #F39B24",
"6V    c #F29924",
"6W    c #F29A23",
"6X    c #EA9121",
"6Y    c #5C4C35",
"6Z    c #A78C3C",
"6&    c #3A3A39",
"7     c #414342",
"70    c #3F4140",
"71    c #635A3E",
"72    c #D9C957",
"73    c #D5C93A",
"74    c #857B36",
"75    c #615A32",
"76    c #434233",
"77    c #3B3B32",
"78    c #6A6415",
"79    c #423E2E",
"7a    c #313130",
"7b    c #2D2E2D",
"7c    c #1B1C1B",
"7d    c #181617",
"7e    c #282823",
"7f    c #6D643A",
"7g    c #6F663D",
"7h    c #1E1E1A",
"7i    c #1F1F19",
"7j    c #4D491A",
"7k    c #2D2C2B",
"7l    c #584A2D",
"7m    c #8A5F2A",
"7n    c #3D362D",
"7o    c #443A2C",
"7p    c #493C2D",
"7q    c #4B3F2D",
"7r    c #4D3E2E",
"7s    c #524130",
"7t    c #524432",
"7u    c #514430",
"7v    c #534532",
"7w    c #554632",
"7x    c #685E3B",
"7y    c #8A6F34",
"7z    c #434243",
"7A    c #414241",
"7B    c #49463E",
"7C    c #BDAD2A",
"7D    c #C2AE3F",
"7E    c #524E3A",
"7F    c #3A3935",
"7G    c #676017",
"7H    c #333535",
"7I    c #333232",
"7J    c #2E2C2C",
"7K    c #1B1C1C",
"7L    c #212020",
"7M    c #212121",
"7N    c #4E4833",
"7O    c #988C4F",
"7P    c #4A462B",
"7Q    c #4B461B",
"7R    c #302F2E",
"7S    c #2F302F",
"7T    c #2E2F2F",
"7U    c #353330",
"7V    c #AA742B",
"7W    c #4C422F",
"7X    c #313231",
"7Y    c #333234",
"7Z    c #343334",
"7&    c #AB9142",
"8     c #504536",
"80    c #3C3B3B",
"81    c #434444",
"82    c #45433F",
"83    c #5F5A38",
"84    c #A59439",
"85    c #47463C",
"86    c #3A3A3B",
"87    c #3C3B37",
"88    c #655D19",
"89    c #4B4830",
"8a    c #232223",
"8b    c #262726",
"8c    c #1F1F1E",
"8d    c #44412A",
"8e    c #DBCF53",
"8f    c #C7B134",
"8g    c #393428",
"8h    c #323233",
"8i    c #333131",
"8j    c #323332",
"8k    c #514331",
"8l    c #AA7A2F",
"8m    c #474235",
"8n    c #343435",
"8o    c #343636",
"8p    c #353535",
"8q    c #373739",
"8r    c #403F3D",
"8s    c #8D835C",
"8t    c #75613A",
"8u    c #3C3C3C",
"8v    c #3C3E3C",
"8w    c #454546",
"8x    c #434343",
"8y    c #414142",
"8z    c #756C37",
"8A    c #A5994B",
"8B    c #43433D",
"8C    c #3D3E3B",
"8D    c #655F1A",
"8E    c #504B30",
"8F    c #3A3839",
"8G    c #252323",
"8H    c #2B2C2B",
"8I    c #373737",
"8J    c #2A2723",
"8K    c #514823",
"8L    c #7E6D30",
"8M    c #AD9423",
"8N    c #C49119",
"8O    c #2C2920",
"8P    c #303031",
"8Q    c #353636",
"8R    c #353536",
"8S    c #373635",
"8T    c #524533",
"8U    c #AD8233",
"8V    c #6D623A",
"8W    c #42423A",
"8X    c #3A3A38",
"8Y    c #393B38",
"8Z    c #42413D",
"8&    c #646254",
"9     c #B2A168",
"90    c #7C663C",
"91    c #3E3D3E",
"92    c #3E3E3F",
"93    c #484748",
"94    c #454440",
"95    c #89813B",
"96    c #998B47",
"97    c #655D1D",
"98    c #524D31",
"99    c #3C3C3D",
"9a    c #363836",
"9b    c #242524",
"9c    c #383836",
"9d    c #4D4A3B",
"9e    c #696336",
"9f    c #6E6225",
"9g    c #47401E",
"9h    c #383733",
"9i    c #3E3C38",
"9j    c #2C2C2D",
"9k    c #252423",
"9l    c #383939",
"9m    c #383938",
"9n    c #393839",
"9o    c #463F38",
"9p    c #725C34",
"9q    c #9E8039",
"9r    c #A78F44",
"9s    c #A38F4E",
"9t    c #A48D4E",
"9u    c #877346",
"9v    c #544A3A",
"9w    c #3E3F3D",
"9x    c #3F3E3E",
"9y    c #403F3F",
"9z    c #484849",
"9A    c #454746",
"9B    c #444546",
"9C    c #4A4742",
"9D    c #9C9043",
"9E    c #887F4B",
"9F    c #655F1E",
"9G    c #544F32",
"9H    c #3E3F3E",
"9I    c #3B382C",
"9J    c #7C723E",
"9K    c #7F742F",
"9L    c #30302B",
"9M    c #212022",
"9N    c #3A3B3A",
"9O    c #2B2C2D",
"9P    c #2D2B2C",
"9Q    c #3C3C3B",
"9R    c #3C3D3B",
"9S    c #3D3D3D",
"9T    c #43413C",
"9U    c #46403C",
"9V    c #40403E",
"9W    c #3F403F",
"9X    c #4C4B4B",
"9Y    c #4B4B4B",
"9Z    c #4A484A",
"9&    c #474847",
"a     c #464645",
"a0    c #515041",
"a1    c #B7A95A",
"a2    c #898130",
"a3    c #675F32",
"a4    c #5C583F",
"a5    c #8B833E",
"a6    c #776D2C",
"a7    c #524D36",
"a8    c #43423F",
"a9    c #282626",
"aa    c #2E2D2D",
"ab    c #393A39",
"ac    c #3B3C3B",
"ad    c #282929",
"ae    c #403E3F",
"af    c #41403F",
"ag    c #404042",
"ah    c #414143",
"ai    c #444543",
"aj    c #4A4A4B",
"ak    c #494A4B",
"al    c #49494A",
"am    c #817A52",
"an    c #CEC770",
"ao    c #DABE23",
"ap    c #6F6420",
"aq    c #393721",
"ar    c #3E3E3B",
"as    c #242525",
"at    c #333233",
"au    c #2E2D2E",
"av    c #414041",
"aw    c #414242",
"ax    c #29282A",
"ay    c #3A3A3A",
"az    c #424243",
"aA    c #424443",
"aB    c #434344",
"aC    c #434543",
"aD    c #454445",
"aE    c #464745",
"aF    c #4F4F50",
"aG    c #4F4F4E",
"aH    c #4C4B4D",
"aI    c #4A4C4B",
"aJ    c #71663E",
"aK    c #F6CD2A",
"aL    c #E8C31D",
"aM    c #504A35",
"aN    c #302E2F",
"aO    c #434544",
"aP    c #464647",
"aQ    c #313232",
"aR    c #2C2D2D",
"aS    c #464644",
"aT    c #444646",
"aU    c #464546",
"aV    c #464547",
"aW    c #484847",
"aX    c #535352",
"aY    c #504F4F",
"aZ    c #4F4E4F",
"a&    c #4E4E4C",
"b     c #7C703D",
"b0    c #605A42",
"b1    c #323331",
"b2    c #4B4B49",
"b3    c #4A4848",
"b4    c #303231",
"b5    c #414240",
"b6    c #484749",
"b7    c #313031",
"b8    c #4A4849",
"b9    c #4A4A4A",
"ba    c #4C4B4C",
"   0 1 2 3 4 5 6 7 8 9 a b c d e f g h i j k l m n o p p q r s s t u f g h i j k l",
" v w x y z A B C D E F G H I J K L M N N O P Q R S T U V W X V Y U Z V &0 00010 02",
"030405060708090a0b0c0d0e0f0g0h0i0j0k0l0m0n0o0p0q0r0s0t0u0v0v0w0u0x0s0x0s0y0z0A0A0B",
"0C0D0E0F0G0H0I0J U0K0L0M0z0N0O0w0P0Q0R0S0T0U0V0W0X0Y0Z0&1 10110X120X1 13140W151615",
"1718191a1b1c1d1e1f1g1h1i1j1k1l1m1n1o1p1q1r1s1t1u1v1w1w1x1y1x1z1A1B1C1D1E1F1m1G0Z1H",
"1I1J1K1L1M1N1O1P1Q1R1S1T1U1V1W1X1Y1Z1&2 202122232425262728292a2b2c2d2e1z2f2g2h2i2j",
"0q2k2l2m122n2o2p2q2r2s2t2u2v2w2x2y2z2A2B2C2D2E2F2G2H2I2G2J2K2L2M2N2O2P2Q2R2S2T2U2V",
"152W2X2Y2Z2g2&3 303132333435363738393a3b3c3d3e3f3g3h3f3i3j3k3l3m3n3o3p3q3r3s3t3u2a",
"121o3v3w2U3x3u3y3z3A3B3C3D3E3F3G3H3I3J3K3L3M3N3O3O3O3P3Q3R3S3G3T3f3c3a3U3V3W3X3Y3Z",
"1E3&4 403Z414243444546473I48494a4b4c4d4e4f4g4h4i4j4k4l4m4n4o4p4q4r4s4t4u4v4w4x4y4z",
"4A4B4C4D4E4F4G3a4H4I4J4K4L4M4N4O4P4Q4R4S4T4U4V4W4X4Y4Z4&5 505152535455565758595a5b",
"4B2a5c5d5e5f5g3h5h5i5j5k5l5m5n5o5p5q5r5s5t5u5v5w5x5y5z5A5B5C5D5E5F5G5H5I5J5K5L5M5N",
"5O5P5Q5R5S3U5T5U5V5W5X5Y5Z5&6 606162636465666768696a6b6c6d6e6f6g6h6i6j6k6l6m6n6o3m",
"2T6p6q6r6s6t6u6v6w6x6y6z6A6B6C6D6E6F6C6G6H6I6J5y6K6L6M6N6O6P6Q6R6S6T6U6V6W6X6Y6Z6&",
"7 707172737475767778794o7a7b7c7d7e7f7g7h7i7j4T6B7k4Y7l7m7n7o7p7q7r7s7t7u7v7w7x7y3o",
"7z7A7B7C7D7E3o5g7F7G3M7H7I7J7K7L7M4k7N7O7P7Q7R7S4f7T7U7V7W4L7X7Y7Z3I473h3c5e7&8 80",
"814B2a82838485868788894t3H6J8a4a8b5y8c8d8e8f8g8h8i8j8h8k8l8m8n8o8p3g3b8q8r8s8t8u8v",
"8w8x2b8y3x8z8A8B8C8D8E8F3b8G8H8I3O8J8K8L8M8N8O8P3G8Q8R8S8T8U8V8W8X8Y8Z8&9 905e9192",
"931o2i1x2f9495965Q9798999a9b9c9d9e9f9g9h9i9i9j9k3L9l9l9m9n9o9p9q9r9s9t9u9v9w9x9y2a",
"9z111G9A9B1w9C9D9E9F9G9H4o9I9J9K9G9L9M4L8u8u9N9O9P869Q9R809Q4z9S9T9U9V9y9W2a2a2T4B",
"9X9Y9Z119&1Fa a0a1a2a3a4a5a6a7a88ua9aa9jab9y6pacad7a3Z9H9Vae2628af5Pag2Uah8x8x1Uai",
"0r0w16ajakal129&amanaoapaqar1B1z41as4ratauavaw8y4vaxay2b7zaz8x8xaA2faBaCaD2i2jaE1o",
"aF0oaG0y0raH16aIaJaKaLaMaNaO1FaP3o5q9QaAaQay2j1D1D8IaR6paS2jaTaUa aVaV1o0ZaW12aW9z",
"aX U01 VaYaZ0z0ra&b b0b15gb2ajb3b44S1o0X4Baab593b61T4ob7aU0Y1Q1 b81j0&1ib9aj0W1hba"};
