/* XPM */
static char *TOGGLEP_xpm[]={
"41 24 825 2",
"      c #696A68",
" 0    c #676767",
" 1    c #666867",
" 2    c #666766",
" 3    c #646566",
" 4    c #646364",
" 5    c #626463",
" 6    c #636263",
" 7    c #616262",
" 8    c #606061",
" 9    c #605F5F",
" a    c #5E5E5F",
" b    c #5D5E5D",
" c    c #5E5D5D",
" d    c #5D5E5C",
" e    c #5C5C5B",
" f    c #5B5B5C",
" g    c #5B5A5B",
" h    c #5A5B59",
" i    c #595A59",
" j    c #585959",
" k    c #595958",
" l    c #575757",
" m    c #585758",
" n    c #575858",
" o    c #565657",
" p    c #565656",
" q    c #555755",
" r    c #555555",
" s    c #565655",
" t    c #555556",
" u    c #5C5C55",
" v    c #636264",
" w    c #616362",
" x    c #606161",
" y    c #615F60",
" z    c #5F5F5F",
" A    c #5E5F5E",
" B    c #5C5D5D",
" C    c #5B5C5C",
" D    c #595A5B",
" E    c #5A5859",
" F    c #595758",
" G    c #575856",
" H    c #575657",
" I    c #555655",
" J    c #555554",
" K    c #545455",
" L    c #555553",
" M    c #545454",
" N    c #545253",
" O    c #535353",
" P    c #525252",
" Q    c #515251",
" R    c #525152",
" S    c #515151",
" T    c #525151",
" U    c #525051",
" V    c #525251",
" W    c #525250",
" X    c #515252",
" Y    c #525352",
" Z    c #535251",
" &    c #515152",
"0     c #585A52",
"00    c #696C55",
"01    c #5E5D5F",
"02    c #5D5D5C",
"03    c #5D5B5C",
"04    c #5B5B5A",
"05    c #5A5A5A",
"06    c #595858",
"07    c #5B5A54",
"08    c #626052",
"09    c #676451",
"0a    c #636051",
"0b    c #595851",
"0c    c #515051",
"0d    c #505250",
"0e    c #505050",
"0f    c #4E4F50",
"0g    c #4E4E4E",
"0h    c #4F4F4F",
"0i    c #4D4E4F",
"0j    c #4E4E4D",
"0k    c #4D4D4D",
"0l    c #4D4D4C",
"0m    c #4C4D4D",
"0n    c #4D4C4C",
"0o    c #4D4C4D",
"0p    c #4C4C4C",
"0q    c #4D4E4C",
"0r    c #4D4D4E",
"0s    c #4E4F4E",
"0t    c #899055",
"0u    c #5D5F51",
"0v    c #5B5959",
"0w    c #595859",
"0x    c #575857",
"0y    c #555656",
"0z    c #565454",
"0A    c #78704E",
"0B    c #BBA84D",
"0C    c #D9C759",
"0D    c #EFDC5B",
"0E    c #EDD151",
"0F    c #DEC442",
"0G    c #C6AC38",
"0H    c #A18F37",
"0I    c #6B6543",
"0J    c #4E4D4A",
"0K    c #4B4B4B",
"0L    c #4B4C4A",
"0M    c #4B4A4A",
"0N    c #4A4A4A",
"0O    c #4A4A49",
"0P    c #494A49",
"0Q    c #494A4A",
"0R    c #484949",
"0S    c #494948",
"0T    c #474848",
"0U    c #494849",
"0V    c #484948",
"0W    c #474948",
"0X    c #494947",
"0Y    c #484848",
"0Z    c #4A4949",
"0&    c #4A4B4B",
"1     c #4A4B4A",
"10    c #686A50",
"11    c #7F8C4C",
"12    c #4B4C4B",
"13    c #565756",
"14    c #555454",
"15    c #535352",
"16    c #505152",
"17    c #5B584E",
"18    c #A89646",
"19    c #F3DB59",
"1a    c #FCF892",
"1b    c #FEFDBD",
"1c    c #FEFEB9",
"1d    c #FCF68C",
"1e    c #EDD55E",
"1f    c #D4BA3F",
"1g    c #C5AD2F",
"1h    c #BDA627",
"1i    c #908330",
"1j    c #525042",
"1k    c #464546",
"1l    c #464645",
"1m    c #454545",
"1n    c #444445",
"1o    c #454344",
"1p    c #444343",
"1q    c #444344",
"1r    c #434445",
"1s    c #444443",
"1t    c #444544",
"1u    c #444645",
"1v    c #454645",
"1w    c #464646",
"1x    c #474646",
"1y    c #4E4E48",
"1z    c #A9B258",
"1A    c #525747",
"1B    c #494949",
"1C    c #535151",
"1D    c #505151",
"1E    c #4D4F4E",
"1F    c #5D594A",
"1G    c #C2AB39",
"1H    c #E9CE52",
"1I    c #FCF186",
"1J    c #FEFDDB",
"1K    c #FEFDFD",
"1L    c #FDFDFA",
"1M    c #FEFDBA",
"1N    c #F1E06B",
"1O    c #CFB944",
"1P    c #BCA52F",
"1Q    c #B39D26",
"1R    c #AF9B1E",
"1S    c #9B8B22",
"1T    c #4E4B3C",
"1U    c #414141",
"1V    c #414040",
"1W    c #403F3F",
"1X    c #414140",
"1Y    c #3F3F3F",
"1Z    c #3F4040",
"1&    c #403F40",
"2     c #3E3F3F",
"20    c #3F3F3E",
"21    c #3F3F40",
"22    c #404041",
"23    c #404141",
"24    c #424242",
"25    c #414241",
"26    c #434343",
"27    c #929554",
"28    c #809046",
"29    c #454644",
"2a    c #464545",
"2b    c #4B4B4C",
"2c    c #4F4E48",
"2d    c #AE9931",
"2e    c #CCB33A",
"2f    c #DCC256",
"2g    c #F9EF8A",
"2h    c #FDFEDB",
"2i    c #FEFEF9",
"2j    c #FEFDEF",
"2k    c #FEFCA8",
"2l    c #E9D662",
"2m    c #C7B23F",
"2n    c #B39E2A",
"2o    c #A89622",
"2p    c #A28F1A",
"2q    c #9F8F17",
"2r    c #91851D",
"2s    c #454338",
"2t    c #3C3B3B",
"2u    c #3B3C3B",
"2v    c #3A3C3C",
"2w    c #3C3A3B",
"2x    c #3B3B3C",
"2y    c #3A3B3C",
"2z    c #3A3B3B",
"2A    c #3B3B3D",
"2B    c #3D3C3C",
"2C    c #3C3D3E",
"2D    c #3D3D3D",
"2E    c #3E3E3E",
"2F    c #40403E",
"2G    c #5E5E46",
"2H    c #AEC34F",
"2I    c #4B5040",
"2J    c #424142",
"2K    c #424442",
"2L    c #484A49",
"2M    c #494747",
"2N    c #7A7038",
"2O    c #BFA727",
"2P    c #B6A036",
"2Q    c #C7B346",
"2R    c #EAD767",
"2S    c #FBF68E",
"2T    c #FDFCAA",
"2U    c #FCF697",
"2V    c #F0E06D",
"2W    c #D2BE49",
"2X    c #B9A733",
"2Y    c #AA9724",
"2Z    c #9E8F1B",
"2&    c #978815",
"3     c #958613",
"30    c #978810",
"31    c #6D6523",
"32    c #393737",
"33    c #373636",
"34    c #383737",
"35    c #363737",
"36    c #373637",
"37    c #373736",
"38    c #373737",
"39    c #373638",
"3a    c #373838",
"3b    c #393939",
"3c    c #39393A",
"3d    c #3B3939",
"3e    c #3B3A3A",
"3f    c #41413D",
"3g    c #B9C258",
"3h    c #748E3A",
"3i    c #3E3F3E",
"3j    c #464746",
"3k    c #4A4843",
"3l    c #A69124",
"3m    c #AE9A24",
"3n    c #A7942B",
"3o    c #BCA935",
"3p    c #CEB744",
"3q    c #DAC452",
"3r    c #DCCA59",
"3s    c #D5C152",
"3t    c #C5B242",
"3u    c #B29F30",
"3v    c #A59223",
"3w    c #9A891A",
"3x    c #948513",
"3y    c #8E8211",
"3z    c #8C7F0E",
"3A    c #897F0D",
"3B    c #857C0E",
"3C    c #3C3C31",
"3D    c #343434",
"3E    c #333234",
"3F    c #333332",
"3G    c #323333",
"3H    c #323432",
"3I    c #333435",
"3J    c #353534",
"3K    c #353736",
"3L    c #3A3939",
"3M    c #84834C",
"3N    c #A4C743",
"3O    c #454C38",
"3P    c #3C3C3C",
"3Q    c #3E3E3F",
"3R    c #454543",
"3S    c #595439",
"3T    c #A28B1A",
"3U    c #A28D1E",
"3V    c #A18C22",
"3W    c #A08B25",
"3X    c #A28B2D",
"3Y    c #A48E30",
"3Z    c #A48E32",
"3&    c #9E8B2D",
"4     c #968325",
"40    c #8F7E1D",
"41    c #877916",
"42    c #847411",
"43    c #80740F",
"44    c #7F710C",
"45    c #7C720B",
"46    c #7D740C",
"47    c #827B0B",
"48    c #4A4724",
"49    c #312F2F",
"4a    c #2F2F30",
"4b    c #2F2E2E",
"4c    c #2E2E2E",
"4d    c #302F2F",
"4e    c #30302F",
"4f    c #323231",
"4g    c #434236",
"4h    c #777846",
"4i    c #909E49",
"4j    c #92AC44",
"4k    c #7B953E",
"4l    c #556638",
"4m    c #51523D",
"4n    c #C8D959",
"4o    c #6E8F31",
"4p    c #393B39",
"4q    c #3B3B3B",
"4r    c #3B3C3C",
"4s    c #3B3A3B",
"4t    c #444345",
"4u    c #424342",
"4v    c #69602B",
"4w    c #907A16",
"4x    c #968120",
"4y    c #988620",
"4z    c #99851A",
"4A    c #97811B",
"4B    c #917E1D",
"4C    c #8C791A",
"4D    c #857318",
"4E    c #7E6B14",
"4F    c #786612",
"4G    c #72610E",
"4H    c #6E620C",
"4I    c #6E620A",
"4J    c #6C6108",
"4K    c #6C6306",
"4L    c #706606",
"4M    c #7C710A",
"4N    c #605A1B",
"4O    c #2C2C2C",
"4P    c #2B2D2C",
"4Q    c #2C2B2C",
"4R    c #2B2B2C",
"4S    c #2C2D2C",
"4T    c #2E2E2D",
"4U    c #696C4D",
"4V    c #C2D26A",
"4W    c #A0C540",
"4X    c #7AA230",
"4Y    c #719C2B",
"4Z    c #7FB32F",
"4&    c #A3DA3E",
"5     c #D0E15D",
"50    c #9AC739",
"51    c #444F32",
"52    c #383738",
"53    c #383A38",
"54    c #393A3A",
"55    c #343534",
"56    c #675E26",
"57    c #8F7E11",
"58    c #887B1B",
"59    c #877624",
"5a    c #877D1A",
"5b    c #897F11",
"5c    c #897B11",
"5d    c #847410",
"5e    c #7F6F0F",
"5f    c #78670D",
"5g    c #70630A",
"5h    c #6A5C09",
"5i    c #635807",
"5j    c #5F5405",
"5k    c #5D5305",
"5l    c #625805",
"5m    c #695E06",
"5n    c #76761C",
"5o    c #69641E",
"5p    c #2A2A29",
"5q    c #29292A",
"5r    c #292828",
"5s    c #292A29",
"5t    c #2C2C2A",
"5u    c #7F7F4F",
"5v    c #B9D45E",
"5w    c #567028",
"5x    c #2C3223",
"5y    c #202220",
"5z    c #202221",
"5A    c #242721",
"5B    c #6E7A3B",
"5C    c #C3E354",
"5D    c #7BAC2A",
"5E    c #3E4731",
"5F    c #363637",
"5G    c #2B2B2B",
"5H    c #404040",
"5I    c #635B23",
"5J    c #847910",
"5K    c #7C7118",
"5L    c #7B6D1A",
"5M    c #7A6B22",
"5N    c #7A7216",
"5O    c #77740C",
"5P    c #79720A",
"5Q    c #786D09",
"5R    c #756708",
"5S    c #6E6205",
"5T    c #695C04",
"5U    c #605605",
"5V    c #5E5304",
"5W    c #5F5406",
"5X    c #635707",
"5Y    c #6C6A10",
"5Z    c #65601D",
"5&    c #292928",
"6     c #272829",
"60    c #292727",
"61    c #282829",
"62    c #45502D",
"63    c #B9D454",
"64    c #4D6623",
"65    c #1F211E",
"66    c #181818",
"67    c #161617",
"68    c #161816",
"69    c #2F3020",
"6a    c #C7D35C",
"6b    c #92C733",
"6c    c #7BAC29",
"6d    c #567821",
"6e    c #383736",
"6f    c #2E2F2E",
"6g    c #222222",
"6h    c #424141",
"6i    c #40403F",
"6j    c #534E2C",
"6k    c #7B730D",
"6l    c #726818",
"6m    c #6F6611",
"6n    c #6E621E",
"6o    c #6E621D",
"6p    c #6B6812",
"6q    c #6A6A0A",
"6r    c #6A6B06",
"6s    c #6C6604",
"6t    c #6E6404",
"6u    c #6C6004",
"6v    c #695E03",
"6w    c #665B05",
"6x    c #655905",
"6y    c #625705",
"6z    c #645606",
"6A    c #6D721D",
"6B    c #575523",
"6C    c #2B2A2A",
"6D    c #2A292A",
"6E    c #989F4A",
"6F    c #99D134",
"6G    c #688A2D",
"6H    c #252C1A",
"6I    c #161516",
"6J    c #171716",
"6K    c #21211E",
"6L    c #AFAF52",
"6M    c #AFD845",
"6N    c #688E24",
"6O    c #455A23",
"6P    c #6B9B20",
"6Q    c #3B442C",
"6R    c #323233",
"6S    c #242423",
"6T    c #1C1D1C",
"6U    c #414342",
"6V    c #3F4140",
"6W    c #464437",
"6X    c #706A08",
"6Y    c #6A6018",
"6Z    c #66610F",
"6&    c #645C14",
"7     c #64591B",
"70    c #655C18",
"71    c #636111",
"72    c #656608",
"73    c #676904",
"74    c #6A6903",
"75    c #6E6603",
"76    c #6E6303",
"77    c #6D6005",
"78    c #6A5E05",
"79    c #685B06",
"7a    c #695C08",
"7b    c #6C7015",
"7c    c #414027",
"7d    c #2D2D2D",
"7e    c #2D2C2D",
"7f    c #31312C",
"7g    c #B6CB4D",
"7h    c #5B7E23",
"7i    c #85BA2E",
"7j    c #89BF32",
"7k    c #405222",
"7l    c #252622",
"7m    c #62633A",
"7n    c #CBE254",
"7o    c #8EC230",
"7p    c #3E4B2B",
"7q    c #2F3629",
"7r    c #6FA026",
"7s    c #3B501F",
"7t    c #282626",
"7u    c #1E1F1F",
"7v    c #1E1C1C",
"7w    c #434243",
"7x    c #635F14",
"7y    c #6A6612",
"7z    c #645C16",
"7A    c #635B11",
"7B    c #625918",
"7C    c #63571D",
"7D    c #645C19",
"7E    c #656211",
"7F    c #65670B",
"7G    c #6C6803",
"7H    c #6F6804",
"7I    c #716504",
"7J    c #706305",
"7K    c #6D6006",
"7L    c #6E6109",
"7M    c #676418",
"7N    c #33322F",
"7O    c #313030",
"7P    c #2F302F",
"7Q    c #393C30",
"7R    c #B0D846",
"7S    c #3D5020",
"7T    c #42591F",
"7U    c #90CB30",
"7V    c #9BD536",
"7W    c #84A33B",
"7X    c #D1D960",
"7Y    c #A0D238",
"7Z    c #6D9229",
"7&    c #373834",
"8     c #3B3D35",
"80    c #739E29",
"81    c #3F571A",
"82    c #202020",
"83    c #1D1D1C",
"84    c #1E1D1D",
"85    c #434444",
"86    c #4B4835",
"87    c #6D6B0B",
"88    c #696019",
"89    c #635C19",
"8a    c #635A19",
"8b    c #65581D",
"8c    c #65591C",
"8d    c #666016",
"8e    c #66630F",
"8f    c #666808",
"8g    c #696C04",
"8h    c #6E6A04",
"8i    c #726906",
"8j    c #736705",
"8k    c #736607",
"8l    c #736509",
"8m    c #464229",
"8n    c #343233",
"8o    c #333232",
"8p    c #373832",
"8q    c #9ACE3D",
"8r    c #486320",
"8s    c #1D1F1A",
"8t    c #6B9828",
"8u    c #94CD32",
"8v    c #A1D638",
"8w    c #AFDC44",
"8x    c #8DC32E",
"8y    c #475331",
"8z    c #3C3F38",
"8A    c #75A22A",
"8B    c #394C1B",
"8C    c #1D1E1C",
"8D    c #1D1E1E",
"8E    c #1E201E",
"8F    c #454546",
"8G    c #434342",
"8H    c #414242",
"8I    c #575428",
"8J    c #6F6C0C",
"8K    c #68601A",
"8L    c #665B1E",
"8M    c #665A20",
"8N    c #655B1D",
"8O    c #675E17",
"8P    c #686211",
"8Q    c #69670C",
"8R    c #6A6C05",
"8S    c #6E6D04",
"8T    c #766C05",
"8U    c #786B06",
"8V    c #766708",
"8W    c #514A19",
"8X    c #323331",
"8Y    c #353635",
"8Z    c #353536",
"8&    c #353634",
"9     c #7FAA3A",
"90    c #74A22C",
"91    c #23241E",
"92    c #39422C",
"93    c #83B72D",
"94    c #95CD30",
"95    c #94CE32",
"96    c #6D932B",
"97    c #393B37",
"98    c #505F35",
"99    c #7BAA26",
"9a    c #2B351C",
"9b    c #1E1F1D",
"9c    c #1F1E1F",
"9d    c #222223",
"9e    c #484748",
"9f    c #454544",
"9g    c #434442",
"9h    c #57542A",
"9i    c #6F6D0D",
"9j    c #6C6712",
"9k    c #696118",
"9l    c #696018",
"9m    c #696215",
"9n    c #696611",
"9o    c #696B0A",
"9p    c #6C7004",
"9q    c #746F04",
"9r    c #7B6E05",
"9s    c #776C07",
"9t    c #4F4812",
"9u    c #20201D",
"9v    c #212123",
"9w    c #313131",
"9x    c #393839",
"9y    c #383839",
"9z    c #393938",
"9A    c #383938",
"9B    c #4C5938",
"9C    c #91CB35",
"9D    c #4E6628",
"9E    c #2F2F2E",
"9F    c #495E28",
"9G    c #8EC82D",
"9H    c #8EC52F",
"9I    c #485733",
"9J    c #3A3B3A",
"9K    c #444939",
"9L    c #729F2C",
"9M    c #597D1D",
"9N    c #20231F",
"9O    c #201F1F",
"9P    c #222021",
"9Q    c #2A2A2B",
"9R    c #484849",
"9S    c #474748",
"9T    c #454746",
"9U    c #444546",
"9V    c #454343",
"9W    c #514E36",
"9X    c #6C6815",
"9Y    c #727109",
"9Z    c #6F700A",
"9&    c #6E6D0B",
"a     c #6E7008",
"a0    c #727205",
"a1    c #777206",
"a2    c #7D7106",
"a3    c #685E0C",
"a4    c #383418",
"a5    c #1F1F1C",
"a6    c #1E1D1E",
"a7    c #1E1E1E",
"a8    c #303030",
"a9    c #373837",
"aa    c #3D3B3C",
"ab    c #3C3D3C",
"ac    c #5E7C2E",
"ad    c #95CF36",
"ae    c #6F893A",
"af    c #2F3425",
"ag    c #689027",
"ah    c #709B2A",
"ai    c #3D413C",
"aj    c #4C573B",
"ak    c #729D2E",
"al    c #67911F",
"am    c #2B351D",
"an    c #202021",
"ao    c #252425",
"ap    c #363736",
"aq    c #4C4B4B",
"ar    c #4A484A",
"as    c #474847",
"at    c #474744",
"au    c #504E37",
"av    c #615C28",
"aw    c #68631C",
"ax    c #6F6915",
"ay    c #676014",
"az    c #514A13",
"aA    c #3A3519",
"aB    c #23221E",
"aC    c #1F1E1E",
"aD    c #201E1F",
"aE    c #201F20",
"aF    c #1F1F20",
"aG    c #222121",
"aH    c #3C3E3C",
"aI    c #383935",
"aJ    c #4D6923",
"aK    c #8CC032",
"aL    c #ACD545",
"aM    c #83B433",
"aN    c #669327",
"aO    c #688F2A",
"aP    c #72A324",
"aQ    c #5D831D",
"aR    c #2F3820",
"aS    c #212122",
"aT    c #4A4A4B",
"aU    c #494A4B",
"aV    c #49494A",
"aW    c #464747",
"aX    c #222221",
"aY    c #202121",
"aZ    c #212120",
"a&    c #212021",
"b     c #212222",
"b0    c #343435",
"b1    c #3F403F",
"b2    c #2E3524",
"b3    c #526E29",
"b4    c #679126",
"b5    c #58811C",
"b6    c #4F751A",
"b7    c #3D4F24",
"b8    c #292C24",
"b9    c #212321",
"ba    c #232223",
"bb    c #232222",
"bc    c #4F4F50",
"bd    c #4F4F4E",
"be    c #4C4B4D",
"bf    c #4A4C4B",
"bg    c #4A494A",
"bh    c #484A48",
"bi    c #222323",
"bj    c #232322",
"bk    c #212221",
"bl    c #222322",
"bm    c #252626",
"bn    c #444545",
"bo    c #282827",
"bp    c #262526",
"bq    c #262927",
"br    c #252523",
"bs    c #242322",
"bt    c #242325",
"bu    c #252325",
"bv    c #232423",
"bw    c #242525",
"bx    c #252524",
"by    c #2F2F2F",
"bz    c #504F4F",
"bA    c #4F4E4F",
"bB    c #282828",
"bC    c #242425",
"bD    c #242323",
"bE    c #232524",
"bF    c #242424",
"bG    c #232424",
"bH    c #232523",
"bI    c #242324",
"bJ    c #272527",
"bK    c #484847",
"bL    c #2A2B2A",
"bM    c #252424",
"bN    c #242524",
"bO    c #252426",
"bP    c #252526",
"bQ    c #262625",
"bR    c #2B2A2C",
"bS    c #383937",
"bT    c #4C4B4C",
"   0 1 2 3 4 5 6 7 8 9 a b c d e f g h i j k l m n o p p q r s s t u f g h i j k l",
" 4 v w x y z A B C g D E k F G H I J K K L M N O P Q R S T U S V R W S X Y Z &0 00",
" z010203040506 n p0708090a0b &0c0d0e0e0f0g0h0i0j0k0l0m0n0o0o0p0n0q0l0q0l0r0s0h0t0u",
"0v0w m0x0y K0z0A0B0C0D0E0F0G0H0I0J0K0L0M0N0O0P0Q0R0S0T0U0V0W0X0R0Y0R0V0Z0&1 101112",
"1314 N15161718191a1b1c1d1e1f1g1h1i1j1k1l1m1n1n1m1o1p1p1q1r1q1s1t1n1u1v1w1x1y1z1A1B",
"1C1D0e1E1F1G1H1I1J1K1L1M1N1O1P1Q1R1S1T1U1V1W1X1Y1Z1&2 201Z2122231V2425261s2728292a",
"0j0l2b2c2d2e2f2g2h2i2j2k2l2m2n2o2p2q2r2s2t2u2v2w2x2y2z2x2w2t2A2B2C2D2E2F2G2H2I2J2K",
"2b2L2M2N2O2P2Q2R2S2T2U2V2W2X2Y2Z2&3 30313233343536373538393a3b3c3d3e2x3f3g3h3i1Y22",
"0Y3j3k3l3m3n3o3p3q3r3s3t3u3v3w3x3y3z3A3B3C3D3E3F3F3F3G3H3I3D3J3K35343L3M3N3O3P2D3Q",
"1w3R3S3T3U3V3W3X3Y3Z3&4 404142434445464748494a4b4c4d4e4f4g4h4i4j4k4l4m4n4o4p4q4r4s",
"4t4u4v4w4x4y4z4A4B4C4D4E4F4G4H4I4J4K4L4M4N4O4P4Q4R4S4T4U4V4W4X4Y4Z4&5 505152535455",
"4u22565758595a5b5c5d5e5f5g5h5i5j5k5l5m5n5o5p5q5r5s5t5u5v5w5x5y5z5A5B5C5D5E343a5F5G",
"245H5I5J5K5L5M5N5O5P5Q5R5S5T5l5U5V5W5X5Y5Z5&6 606162636465666768696a6b6c6d6e356f6g",
"6h6i6j6k6l6m6n6o6p6q6r6s6t6u6v6w6x6y6z6A6B4Q6C5p6D6E6F6G6H6I6J6K6L6M6N6O6P6Q6R6S6T",
"6U6V6W6X6Y6Z6&7 707172737475767778797a7b7c7d7d7e7f7g7h7i7j7k7l7m7n7o7p7q7r7s7t7u7v",
"7w251X7x7y7z7A7B7C7D7E7F737G7H7I7J7K7L7M7N7O4d7P7Q7R7S7T7U7V7W7X7Y7Z7&8 8081828384",
"854u22868788898a8b8c8d8e8f8g8h8i8j8k8l8m8n8o6R3G8p8q8r8s8t8u8v8w8x8y528z8A8B8C8D8E",
"8F268G8H8I8J8K8L8M8N8O8P8Q8R8S8T8U8V8W8X3K5F8Y8Z8&9 90919293949596973L98999a9b9c9d",
"9e3j9f1q9g9h9i9j9k9l9m9n9o9p9q9r9s9t9u9v9w9x9y9z9A9B9C9D9E9F9G9H9I9J9K9L9M9N9O9P9Q",
"9R0X9S9T9U9V9W9X9Y9Z9&a a0a1a2a3a4a5a6a76ga8a92xaaabacadaeafagahaiajakalamananaoap",
"aq0Kar0Xas1x1latauavawaxayazaAaBaCaDaEaF8EaG5paH1Y3iaIaJaKaLaMaNaOaPaQaRaS6g6g5Gab",
"0k0p12aTaUaV0YasasaW1k1r7PaXaYaZ82aYanana&a&b b01V2Jb19Eb2b3b4b5b6b7b8b9babb5ra94u",
"bc0hbd0r0kbe12bf0Nbgbh1w6DbiaG9dbjbbbkblb b babma926bn6ibobpbqbrbsbtbubvbwbxby1U0Y",
"15 R & SbzbA0s0k0m0k2b8HbBbrbCbDbEbDbFbGbvbFbHbIbJ2xbK9S3PbLbMbNaobOaobPbQbRbSbKbT"};
