/* XPM */
static char *rivet[] = {
/* width height num_colors chars_per_pixel */
"    32    32      256            2",
/* colors */
"`` c #1c2a1c",
"`. c #548654",
"`# c #84420c",
"`a c #ac8674",
"`b c #acb2ac",
"`c c #8c6a4c",
"`d c #245a1c",
"`e c #8c7664",
"`f c #4c624c",
"`g c #dcb294",
"`h c #bc9e84",
"`i c #848684",
"`j c #2c6e24",
"`k c #ac764c",
"`l c #dccabc",
"`m c #945214",
"`n c #84a284",
"`o c #246624",
"`p c #b49274",
"`q c #3c5e3c",
"`r c #9c765c",
"`s c #6c4a1c",
"`t c #2c4224",
"`u c #24621c",
"`v c #c49e84",
"`w c #8c725c",
"`x c #8c4a14",
"`y c #ecbe9c",
"`z c #a4866c",
"`A c #ac7e54",
"`B c #e4d6cc",
"`C c #ccb29c",
"`D c #9c5224",
"`E c #9c9e9c",
"`F c #9c7e64",
"`G c #2c5a1c",
"`H c #c49264",
"`I c #ccaa94",
"`J c #9c6e4c",
"`K c #bc8664",
"`L c #347a2c",
"`M c #eccab4",
"`N c #245224",
"`O c #6c866c",
"`P c #bcbebc",
"`Q c #547654",
"`R c #dcbea4",
"`S c #8c968c",
"`T c #bc8254",
"`U c #94420c",
"`V c #dcd2cc",
"`W c #845a34",
"`X c #ac7e6c",
"`Y c #a47244",
"`Z c #243624",
"`0 c #bcbabc",
"`1 c #8c827c",
"`2 c #3c6e3c",
"`3 c #3c663c",
"`4 c #bc9a7c",
"`5 c #d49e74",
"`6 c #9c4a14",
"`7 c #a4aaa4",
"`8 c #a47e64",
".` c #2c5a2c",
".. c #6c966c",
".# c #647664",
".a c #8c460c",
".b c #b4bab4",
".c c #94765c",
".d c #acaaac",
".e c #347224",
".f c #e4cab4",
".g c #94a694",
".h c #a47654",
".i c #2c621c",
".j c #c4a68c",
".k c #ecc6a4",
".l c #9c9a9c",
".m c #bc8e6c",
".n c #2c5624",
".o c #8c3e04",
".p c #b48e6c",
".q c #b4b2b4",
".r c #9c6234",
".s c #245e1c",
".t c #e4ba94",
".u c #948a84",
".v c #b47a54",
".w c #945224",
".x c #8ca68c",
".y c #2c6624",
".z c #b49684",
".A c #244a24",
".B c #944a14",
".C c #b4825c",
".D c #a45a2c",
".E c #9ca69c",
".F c #2c5e1c",
".G c #c49a7c",
".H c #d4ae8c",
".I c #c48654",
".J c #748e74",
".K c #e4c2ac",
".L c #8c9a8c",
".M c #a46e54",
".N c #947a6c",
".O c #a47a64",
".P c #243224",
".Q c #94663c",
".R c #8c8e8c",
".S c #2c722c",
".T c #ac7a5c",
".U c #8c9e8c",
".V c #cca27c",
".W c #946e4c",
".X c #ac825c",
".Y c #ecd6c4",
".Z c #c4c2bc",
".0 c #a45624",
".1 c #9c826c",
".2 c #c4966c",
".3 c #9c724c",
".4 c #3c763c",
".5 c #2c4e24",
".6 c #748a6c",
".7 c #547e54",
".8 c #dcc2ac",
"#` c #949294",
"#. c #649664",
"## c #b4a6a4",
"#a c #647e64",
"#b c #d4baac",
"#c c #5c6644",
"#d c #945a2c",
"#e c #2c3e24",
"#f c #ecd2bc",
"#g c #a4b2a4",
"#h c #8c8a8c",
"#i c #a4a2a4",
"#j c #b48264",
"#k c #749274",
"#l c #b4aaa4",
"#m c #a49694",
"#n c #6c826c",
"#o c #242e1c",
"#p c #946a4c",
"#q c #bc926c",
"#r c #e4d2c4",
"#s c #cca684",
"#t c #f4c6a4",
"#u c #bc967c",
"#v c #a4a6a4",
"#w c #2c622c",
"#x c #2c4a24",
"#y c #dccec4",
"#z c #c4a28c",
"#A c #9c4e1c",
"#B c #a48264",
"#C c #947a64",
"#D c #e4cebc",
"#E c #a47a54",
"#F c #8c4204",
"#G c #945624",
"#H c #2c6a24",
"#I c #944e14",
"#J c #ecdacc",
"#K c #945e34",
"#L c #ac8a74",
"#M c #acb6ac",
"#N c #3c623c",
"#O c #2c4624",
"#P c #ecc29c",
"#Q c #9c5624",
"#R c #ccae94",
"#S c #bc8a64",
"#T c #6c8a6c",
"#U c #bcc2bc",
"#V c #547a54",
"#W c #94460c",
"#X c #ac826c",
"#Y c #243a24",
"#Z c #3c6a3c",
"#0 c #2c5e2c",
"#1 c #acaeac",
"#2 c #b4b6b4",
"#3 c #a47254",
"#4 c #8ca28c",
"#5 c #3c7a3c",
"#6 c #2c5224",
"#7 c #949694",
"#8 c #a49a94",
"a` c #245a24",
"a. c #2c6e2c",
"a# c #ac7654",
"aa c #246224",
"ab c #a48674",
"ac c #ac7e5c",
"ad c #9c7e6c",
"ae c #2c5a24",
"af c #c4926c",
"ag c #9c6e54",
"ah c #dcbeac",
"ai c #a4724c",
"aj c #bc9a84",
"ak c #a47e6c",
"al c #947664",
"am c #34722c",
"an c #e4cabc",
"ao c #a4765c",
"ap c #2c6224",
"aq c #ecc6ac",
"ar c #2c562c",
"as c #b48e74",
"at c #245e24",
"au c #e4ba9c",
"av c #944a1c",
"aw c #2c5e24",
"ax c #d4ae94",
"ay c #c4865c",
"az c #946e54",
"aA c #c4c2c4",
"aB c #8c420c",
"aC c #94562c",
"aD c #2c6a2c",
"aE c #000000",
"aF c #000000",
"aG c #000000",
"aH c #000000",
"aI c #000000",
"aJ c #000000",
"aK c #000000",
"aL c #000000",
"aM c #000000",
"aN c #000000",
"aO c #000000",
"aP c #000000",
"aQ c #000000",
"aR c #000000",
"aS c #000000",
"aT c #000000",
"aU c #000000",
"aV c #000000",
"aW c #000000",
"aX c #000000",
"aY c #000000",
"aZ c #000000",
"a0 c #000000",
"a1 c #000000",
"a2 c #000000",
"a3 c #000000",
"a4 c #000000",
"a5 c #000000",
"a6 c #000000",
"a7 c #000000",
"a8 c #000000",
/* pixels */
"aAaA#UaAaA#UaAaA#UaA#U#4#4`baAaA#UaAaA#UaAaA#UaAaA#UaAaA#UaAaA#U",
"#UaAaA#UaAaA#UaAaA`P#0.nae#O#UaAaA#UaAaA#UaAaA#UaAaA#UaAaA#UaAaA",
"aA`PaAaA`PaAaA`PaAaA`2.saw`t#UaA`PaA`PaAaA`PaAaA`PaAaA`PaAaA`PaA",
"aA#UaA`PaA`PaAaA#UaA#V`d.F`N`PaAaA#UaA`PaAaA`PaAaA`PaAaA`PaA#UaA",
"aA`PaAaAaAaA#UaAaA`P#Zaw`d`NaA#UaAaAaAaA#UaAaA#UaAaA#UaAaA#UaAaA",
"aAaA#UaA#UaA`PaA`PaA#Z.saw#YaAaA`PaA`PaAaA`PaAaA`PaAaA`PaAaA`PaA",
"#UaA`PaA`PaAaA`PaAaA#V.Fat`NaA`PaAaA#UaA`PaA`PaAaA`PaAaA`PaAaA#U",
"aAaA#UaAaA`PaAaA#UaA#Taw`G#0.ZaA.b#ka`.gaA.ZaA#UaAaA#UaAaA`PaAaA",
"#UaA`7`P#UaA.Z`PaAaA#T`uat.`#U.J#6.n#O`Q`P#UaAaA`PaAaA`PaAaA`PaA",
"aA#.#H.iat.4.x`b#UaA#V.i`u#Oa`.n`N#O``#UaAaA`PaAaA`PaAaA#UaA#UaA",
"aA`..s.y#H`j#H.yap`o`o.yaw#O`N#x#Y.#aAaA`PaAaA`PaAaA#UaAaA`PaAaA",
"#U`0#n.`.5`Gap.y#H`jaw`jaa.e`d#O#a.Z`PaAaA`PaAaA#UaAaA`PaAaA`PaA",
"aA#UaA#U.Z.E`O`N.n`d#H`G`j.e.S`L.yap.S`2#k`P#UaAaA`PaAaA`PaAaA#U",
"aA.Z`PaA`PaA`Pat#H.F`N.i.5a`.y#H`j#H`j#H.y.saaaD.g`PaA`PaA#UaAaA",
"#UaAaA`PaA.7a`#H.n.5#O.P#O.n.``t#x.Fat.y.y#H#H.y`q`0`PaA`PaA`PaA",
"aA`PaA#Tat#6`G#6`N#Y#Y`N`d#ZaA#U.E#c`s`##F.o#FaB`W##`0`0`P`PaA`P",
"aA#U#5ae.n`N.5#x#o`S#T`Gae`3aA`P`a`x#Q#3.h.p`A.Q.0`6#B#2`0`0`PaA",
"aAaAa.a``G#x`Z.P#2aA.Lat`d#NaAab#Wao.W#p`c.c`r.h.C`K`6`X#1`0`0`P",
"#UaA..aea`#Y`faA#UaA.U.Fae`3#lav`r#p`wal.c#C`F`p#z.2`K#A#8#1`0`0",
"aA`PaA#4a.`baAaA`PaA.L.s`N#V#3`D`J`e.cad`p#u`4#s`g`g`5.0.M#i#1`0",
"aAaA`PaA#UaA`PaAaA#U.Uaw`d`O#I.T.3`F`F`4.H`y#t#P`yau.V.C`D.l.d#2",
"#UaA#UaAaA`PaA#UaAaA.L`dae`Q#Fac`r`F`Y.B`T.t.I#I`Haq.H#S.a#`#i`b",
"aAaAaA`PaAaAaAaA`P#UaA..`n#2.o.m`F#B.B.o.o.o#F.o`m.fah#z#F.R.l#1",
"#UaA`PaA#UaA`PaAaAaA`PaAaA`0#W.p`8`p`k#I.I#P`T`maf`l#R#L.B`i.l.d",
"aA`PaAaA`PaA#UaA`PaA`PaA`P`0`D.v.T`h#s.tau`y.k#f#f`l`4`8#d`i#7.d",
"aAaA#UaAaA`PaA`PaAaA#UaA`P`P.M.0#S.H`gau.K#D#f#J`B#y.z.raz#h.l`7",
"#UaAaA`PaAaA#UaA#UaAaA`PaA`0#l#A.C`H.H`R.8.f#y#r`V.j#L#d`1.R.l#1",
"aA`PaAaA#UaAaAaAaA`PaAaA`P`P`0#X.B.T#q.G.j#b`Caj.z#L#G`e.R#`#i#1",
"aA#UaA`PaA`PaA`PaA`PaA`PaA`P`0#2ak.BaC.h#B.z`z`8#K#d`e`S#h`E.d#2",
"aA#UaAaAaA#UaA`PaAaA#UaAaAaA`P`0#1#8`J.w.a#F`x#d`c`1`S#h.l#v#1`0",
"aAaA`PaA`PaAaAaA#UaAaA`PaA`P`P`0#2.q#i`E#`.R`i.R#7.R#`.l#v.q#2`0",
"#UaA`PaAaA`PaA`PaA`PaAaA#UaAaA`P`P#2`b.d`E`E.l#7.l.l#i.d#1#2`0aA"
};
