/* XPM */
static char *sIBL[] = {
/* width height ncolors chars_per_pixel */
"32 32 28 2",
/* colors */
"AA c #D8D8D8D8D8D8",
"BA c #D0D0D0D0D0D0",
"CA c #C8C8C8C8C8C8",
"DA c #C0C0C0C0C0C0",
"EA c #B8B8B8B8B8B8",
"FA c #B0B0B0B0B0B0",
"GA c #A8A8A8A8A8A8",
"HA c #A0A0A0A0A0A0",
"IA c #989898989898",
"JA c #909090909090",
"KA c #888888888888",
"LA c #808080808080",
"MA c #787878787878",
"NA c #707070707070",
"OA c #686868686868",
"PA c #606060606060",
"AB c #585858585858",
"BB c #505050505050",
"CB c #484848484848",
"DB c #404040404040",
"EB c #383838383838",
"FB c #303030303030",
"GB c #282828282828",
"HB c #202020202020",
"IB c #181818181818",
"JB c #101010101010",
"KB c #080808080808",
"LB c #000000000000",
/* pixels */
"HBIBJBJBIBJBJBJBIBIBJBIBJBIBJBJBIBJBJBIBFBDBGBIBIBKBIBJBJBIBJBGB",
"JBLBLBLBLBLBLBLBLBLBLBLBLBLBLBJBLBJBMACAAABAAACAPAIBLBKBKBLBLBJB",
"KBLBLBLBLBLBLBLBKBLBKBLBLBLBEBABDBEABAGAFABABACABAFACBNAMAMAHBKB",
"LBLBLBLBLBLBLBKBLBLBLBKBLBJBHAJAEAFAFADABACACABABACAGAKABACAFAJB",
"LBLBLBLBLBLBLBLBLBKBLBKBLBIBGAKADAGADAAACACAAACACABACALAFABABAJB",
"LBLBLBKBLBLBLBLBLBLBLBLBKBHBLAGAGACABADABADAGAEACAAADAHAJACADAGB",
"LBLBLBLBLBLBLBLBKBLBLBLBLBHBNACAHADAAACAHAMANALACACAAAEAKADABAHB",
"KBLBLBLBLBLBLBLBLBKBLBKBLBIBLAEAGACABAIAMAHADAFADABACADAMABADAHB",
"LBLBLBLBLBLBLBLBKBLBKBLBKBIBNADAEABAEAMAHABABAFAEABABADAMABACAHB",
"KBLBLBLBLBLBLBLBLBLBLBLBLBIBKAHABACACAFAGADABAEAFACABAFAKACACAHB",
"LBLBLBLBLBLBKBLBLBLBLBKBLBIBGALABABABACAFAFABACAHABACALAFACABAHB",
"KBLBLBLBLBLBLBLBLBLBKBLBLBHBDAJAJABABACACAFAGABAGACAGAMABABACAHB",
"LBLBLBLBLBKBLBLBLBLBLBLBLBIBBADAMAHACAAABADAGAEADAHAMAFACABADAHB",
"KBLBLBLBLBLBLBLBLBLBLBLBLBJBDABACALALAHADAAADAHAIALAMAIABABABAHB",
"LBLBLBLBLBLBLBLBLBLBKBLBKBJBDACAAADAFAJALAMAPALAKAKAKANAEADABAIB",
"KBLBLBLBLBKBLBLBLBLBLBLBLBIBDABACABABABACABAIANALAKAMAOAJABACAHB",
"JBJBLBLBKBLBKBIBLBKBLBLBKBIBCABABABACACACABADANAMAMAMAMAPADABAHB",
"FBCAFBLBLBLBHAIALBLBLBLBLBIBEACACACACABABACACAJAPAMALAOALACADAHB",
"DBKAJAGBKBMAMALALBKBLBKBLBKBFABACABACABABACABADAMAMAOAABFABAGAIB",
"DBPAGBMACBMAHBNAABPAKBLBLADBIBMALAMAMALAMAMALALAOAOAABBBMANADBLB",
"DBOALBMAEAKBJBKAKBLACBPAOALBKBLBLBKBLBLBLBLBLBLBLBLBLBLBKBLBLBLB",
"CBPALBEBKALBNAFACBJBGAJALBDBEBLBLBLBLBLBLBLBLBLBLBLBLBLBLBKBLBKB",
"EBNAKBJBIBLBFBHBLADBKABBLBHAJAKBLBLBLBLBLBLBLBLBLBLBKBLBLBLBLBLB",
"DBNALBLBLBFBJALACBNAPAEBHBLAJAIBKBLBLBLBLBLBLBLBKBLBKBLBKBLBLBLB",
"DBOALBLBKBKAHBMANALAPAFBOAEBBBOALBLBLBLBLBLBLBLBLBLBLBLBLBLBLBLB",
"EBOALBKBLBNAPABBFAKAABCBIABBJBJAJBLBKBKBLBLBLBKBLBLBLBLBLBLBLBLB",
"DBNALBLBLBHBMAEADBDBOAABMAPAIBMABBLBLBKBLBKBLBLBLBLBLBLBLBLBLBLB",
"CBOALBLBKBLBIBKALANACAIANALALAIAABKBLBLBLBLBLBLBLBLBLBLBLBLBLBLB",
"DBOALBLBLBKBLBKBKBLBOADBLBLBLBLBKBLBLBLBLBLBLBKBLBLBLBLBLBLBLBLB",
"DBOALBLBLBKBKBLBLBLBNAEBLBLBLBKBLBKBKBLBLBLBLBLBLBLBLBLBLBLBLBLB",
"IBFBLBLBKBLBLBLBKBLBGBJBLBKBLBLBKBLBLBLBLBKBKBLBLBLBLBLBLBLBLBLB",
"LBLBKBLBLBLBKBLBLBKBLBLBLBLBLBLBLBLBLBKBLBLBLBLBLBLBLBLBLBLBLBLB"};
