/* XPM */
static char *zooAutoSave_1[] = {
/* columns rows colors chars-per-pixel */
"32 32 256 2",
"   c #18011B",
".  c #230A25",
"X  c #29022E",
"o  c #2A0E2D",
"O  c #2D0731",
"+  c #2C102E",
"@  c #2C1030",
"#  c #35023C",
"$  c #351739",
"%  c #3E0445",
"&  c #3E1540",
"*  c #3E1A41",
"=  c #5B323F",
"-  c #44034D",
";  c #44034B",
":  c #480052",
">  c #4C0E55",
",  c #4F0C58",
"<  c #4F0558",
"1  c #421546",
"2  c #451649",
"3  c #510F4E",
"4  c #520B57",
"5  c #541859",
"6  c #4E1752",
"7  c #5A0664",
"8  c #5C0C65",
"9  c #5E0A68",
"0  c #5A0565",
"q  c #5A1762",
"w  c #452849",
"e  c #492448",
"r  c #4D2152",
"t  c #4F3354",
"y  c #562944",
"u  c #553357",
"i  c #59295A",
"p  c #5E2B62",
"a  c #631E5A",
"s  c #610C6B",
"d  c #660E70",
"f  c #6B0179",
"g  c #690376",
"h  c #641A6A",
"j  c #691C6D",
"k  c #671470",
"l  c #6A1473",
"z  c #6E1C75",
"x  c #6F1778",
"c  c #721B7A",
"v  c #7B197C",
"b  c #6C2851",
"n  c #7C3851",
"m  c #752E55",
"M  c #62286A",
"N  c #6D206C",
"B  c #66366B",
"V  c #7C2D6F",
"C  c #74207B",
"Z  c #78297E",
"A  c #73247A",
"S  c #79326A",
"D  c #703174",
"F  c #624968",
"G  c #6C5371",
"H  c #75497D",
"J  c #705976",
"K  c #78537E",
"L  c #750184",
"P  c #7B0588",
"I  c #7E0090",
"U  c #7B1C80",
"Y  c #7C2184",
"T  c #7C2D82",
"R  c #7C3483",
"E  c #7E5984",
"W  c #7C5681",
"Q  c #813C55",
"!  c #88386D",
"~  c #8A377A",
"^  c #96367D",
"/  c #8B4655",
"(  c #914A5B",
")  c #9A5756",
"_  c #8E406F",
"`  c #994A75",
"'  c #904D73",
"]  c #906879",
"[  c #A15D58",
"{  c #A2497A",
"}  c #A75679",
"|  c #A76359",
" . c #BB7B5B",
".. c #B17154",
"X. c #B36E60",
"o. c #BE7A63",
"O. c #BE7B7A",
"+. c #AC6D77",
"@. c #C67A79",
"#. c #840196",
"$. c #880799",
"%. c #8A198C",
"&. c #8B1296",
"*. c #800A89",
"=. c #9806AC",
"-. c #9D02B2",
";. c #9915A9",
":. c #8D2484",
">. c #842882",
",. c #843A83",
"<. c #8E3C91",
"1. c #962C8A",
"2. c #972996",
"3. c #993585",
"4. c #9F3A92",
"5. c #993198",
"6. c #8C2199",
"7. c #9E22A5",
"8. c #A302B9",
"9. c #A916BC",
"0. c #A5389C",
"q. c #A13D88",
"w. c #AE23BE",
"e. c #A532A5",
"r. c #AE0CC4",
"t. c #AE16C3",
"y. c #B50CCB",
"u. c #BC0BD4",
"i. c #B218C6",
"p. c #B818CD",
"a. c #B619CA",
"s. c #BD16D4",
"d. c #BA28CB",
"f. c #B228C3",
"g. c #BE26D0",
"h. c #845684",
"j. c #935699",
"k. c #8D498D",
"l. c #8F7D92",
"z. c #907293",
"x. c #A74887",
"c. c #A94394",
"v. c #AC4598",
"b. c #A65084",
"n. c #B65B88",
"m. c #B65697",
"M. c #AB5399",
"N. c #B345AE",
"B. c #AB6180",
"V. c #A86492",
"C. c #A17F85",
"Z. c #B8648A",
"A. c #BD6299",
"S. c #B8738E",
"D. c #A775AA",
"F. c #C209DB",
"G. c #C317DA",
"H. c #C908E3",
"J. c #CD08E8",
"K. c #CB12E4",
"L. c #D209ED",
"P. c #D115EA",
"I. c #C820DE",
"U. c #C126D5",
"Y. c #C835DA",
"T. c #CD22E4",
"R. c #D024E6",
"E. c #C65AAD",
"W. c #C26899",
"Q. c #C7768C",
"!. c #C8789B",
"~. c #C26D86",
"^. c #C769A6",
"/. c #CB76A4",
"(. c #D179A5",
"). c #D170AD",
"_. c #D172B3",
"`. c #C740D3",
"'. c #D46DC9",
"]. c #BE937B",
"[. c #C78D5A",
"{. c #C98875",
"}. c #D2907B",
"|. c #D9AA68",
" X c #DDB379",
".X c #DAA772",
"XX c #E0AE7E",
"oX c #E8C675",
"OX c #F4D97D",
"+X c #F7E27D",
"@X c #95849B",
"#X c #9B89A0",
"$X c #9F93A8",
"%X c #AF8F89",
"&X c #AE82B2",
"*X c #A195A9",
"=X c #A49AAC",
"-X c #A89EAF",
";X c #AB9AB0",
":X c #B286B6",
">X c #AAA2B3",
",X c #AEA8B7",
"<X c #AEAAB9",
"1X c #B0ACBB",
"2X c #BEABBF",
"3X c #B3B0BE",
"4X c #B7A5AA",
"5X c #B4B3C0",
"6X c #B8B7C3",
"7X c #B9B9C5",
"8X c #BEC0C9",
"9X c #C0818E",
"0X c #CD8595",
"qX c #D58C94",
"wX c #D48798",
"eX c #D79897",
"rX c #D38B88",
"tX c #D98EA3",
"yX c #D785A4",
"uX c #DA83BA",
"iX c #DC90A4",
"pX c #DB95AB",
"aX c #DAA683",
"sX c #C9AC90",
"dX c #CFB9B5",
"fX c #E09E9A",
"gX c #E295BB",
"hX c #E2AD8D",
"jX c #E3A49C",
"kX c #E5AC94",
"lX c #E6A99A",
"zX c #E4B787",
"xX c #EDBE94",
"cX c #ECBB9B",
"vX c #E7B693",
"bX c #E9ABA6",
"nX c #EBB2A4",
"mX c #E7BCB4",
"MX c #E290CC",
"NX c #EAA7C3",
"BX c #CDB0D0",
"VX c #EDC38C",
"CX c #EBC684",
"ZX c #EDC193",
"AX c #EDC79F",
"SX c #F1C798",
"DX c #F4D48A",
"FX c #F1CE91",
"GX c #F9E284",
"HX c #FEEE81",
"JX c #F9E084",
"KX c #C2C5CE",
"LX c #C6CAD1",
"PX c #D7C1DA",
"IX c #DECBE0",
"UX c #E9C5C2",
/* pixels */
"LXLXLXKXKX8X7X6X5X5X1X<X1X<X<X<X,X<X<X<X1X1X5X5X5X7X8X8XLXLXLXLX",
"LXLXKX8X6X5X1X,X-X=X=X*X$X*X$X$X$X$X$X$X*X=X-X-X<X1X5X7X8XLXLXLX",
"LXKX8X6X1X>X*X@XF w $ @ @ @ o o @ @ @ @ @ $ w F @X*X>X<X7X7X8XLX",
"KX8X6X1X=XG .   X # % % - - - - - - : - ; % % X   . G =X<X7X8XLX",
"KX7X<X=Xt X < 7 7 7 7 7 7 7 7 7 9 s s s 9 9 0 9 0 < O t =X<X7X8X",
"8X3X>XJ O 9 9 9 l k.D.&XD.D.j.k.R R A z l l k d d d s O J ,X5X8X",
"7X1X=Xo 8 l R :XIXIXPX:Xj.R Z Z Z Z 5 - A C C c x x l 9 @ *X1X7X",
"3X,X@Xo l C z.;X2XBXD.D D R j h k.h 3 - h >.T A j z Y x o #X,X7X",
"3X>XG $ z - z.l.%X] z.b n j.; b _ n n : : <.j 3 / / b ~ 1 G >X3X",
"3X>Xu 5 c h.4XdX+./ 9X[ ..V.b n ' {.n m ~ >.a [ S.| ( ` 5 i -X3X",
"1X=Xe q z ] sX%X[.[.zX|.[.qX../ %XvX) / M.A ! ) eX.X| ! S r -X1X",
"1X*Xe h S %XsXaXOX+X+X+XHXoXo.|  XHXoX[.B.M.( ..oXHXX.S.` e =X1X",
"1X*X* V ` sX].+X+X+XCXoX+X+XoX| zXHXHX|.@.+.x.o. XHXaX!.} * *X1X",
"1X*X& ! n.UXFXHXJXeXqX!.qXGXHXeXVXHXHXHXeXeX^./.xXHXvXwXb.y *X<X",
",X*X= ! Z.mXHXHX9XA.c.m.wXVXHXkXVXHXGXHXDXiX(.yXVXHXlX(.3.y *X<X",
",X*X= _ Z.AXHXVXqXc.c.v.A.ZXHXkXvXHXvXGXHXFX(.yXxXHXkXE.:.y $X<X",
",X$X& } wXFXHXhXW.m.0.m.yXDXHXwXxXHXfXtXGXHXcXE.SXHXbX).1.y $X,X",
",X$X= ~ W.ZXHXvXA.0.0.^.yXHXHXyXZXHXbX).bXHX+XSXSXHXbXE.q.2 *X,X",
"1X*X& b.m.AX+XDXiX)./.pXDXHXxX_.xXHXbX_.uXbXHXHXDXHXnXuXv.6 *X,X",
"1X*X1 ~ ^.pXHX+XDXcXnXGX+XDXtXuXZXHXjXuX^.tXbXHXHXHXnX'.0.6 *X5X",
"1X*X6 Y 4.O.{.OXHXHXHXHXJX}.@.!.ZXHX}.uX:.` gX.XHX+XrX(.0.i =X1X",
"1X=Xi v >.} {.rXhXSXZXhXqXQ.^ } NXzXn.N.3.5.m.Q.wXbXn.n.5.p -X1X",
"3X-XB z e.,.} } { Q.!.+.} b.x.3.MXW.~.4.*.f.x.c.n.Q.x.4.2.B >X3X",
"5X>XK 5 %.v %.5.{ { x.3.4.*.L :.'.'.1.:.I Y.7.&.v.N.&.;.z W >X5X",
"6X<X#X$ ;.g g g v N.2.:.P *.I L Y.Y.6.I ;.Y.Y.$.$.&.#.i.2 #X1X6X",
"6X1X=X1 ;.9.w.w.f.f.d.d.d.g.g.g.g.G.U.T.K.T.T.T.R.P.T.p.6 =X1X7X",
"8X5X,XE > 9.9.t.t.a.a.p.p.s.s.s.s.G.G.K.K.K.J.P.P.P.P.k h.>X5X8X",
"KX6X1X-XB , =.r.r.y.y.u.s.u.u.F.F.F.H.H.J.J.L.L.L.F.s D -X1X7XKX",
"KX8X6X<X=XE % # 7 L I $.=.=.-.=.-.-.8.8.-.=.#.f % > E -X1X6XKXKX",
"LXKX8X6X1X>X=X@XH M 5 5 > > > , > , , , q q M W @X*X>X1X6X7XKXLX",
"LXLXKX8X7X5X<X,X-X-X=X*X$X$X$X$X$X$X*X*X*X=X-X-X>X1X6X6X8XKXLXLX",
"LXLXLXLXKX8X6X5X3X3X1X1X<X<X<X<X<X<X<X1X1X1X1X5X6X6X7XKXLXLXLXLX"
};
