/* XPM */
static char *zooShots[] = {
/* columns rows colors chars-per-pixel */
"32 32 80 1",
"  c #010101",
". c #0A0A0A",
"X c #131313",
"o c #1A1A1A",
"O c #242424",
"+ c #2D2D2D",
"@ c #343434",
"# c #39393A",
"$ c #444444",
"% c #4B4B4B",
"& c #4F4F51",
"* c #535353",
"= c gray36",
"- c #52546F",
"; c #5B5D77",
": c #5A5D7A",
"> c #626263",
", c #6B6B6B",
"< c gray45",
"1 c #7B7B7B",
"2 c #676A84",
"3 c #6E7295",
"4 c #797A8A",
"5 c #7D80A1",
"6 c #7E83AB",
"7 c #848484",
"8 c #858589",
"9 c #8B8B8B",
"0 c #828493",
"q c #8E8E90",
"w c #939393",
"e c #969699",
"r c #9A9A9A",
"t c #8387AD",
"y c #8589AD",
"u c #8186B2",
"i c #8488B0",
"p c #898DB4",
"a c #8E91AC",
"s c #8F92B3",
"d c #9092AB",
"f c #9E9EA1",
"g c #999BAA",
"h c #9193B0",
"j c #9699BD",
"k c #999CBE",
"l c #A2A2A2",
"z c #A7A6AB",
"x c #A8A6A9",
"c c #AAAAAA",
"v c #A2A3B1",
"b c #A8A9B7",
"n c #ADAFBB",
"m c #AFB0B6",
"M c #B4B1AA",
"N c #B3B3B3",
"B c #B7B6B8",
"V c #B8B7BA",
"C c #BBB8B0",
"Z c #BBBBBB",
"A c #9B9DC0",
"S c #C0BCB5",
"D c #C1BEB8",
"F c #C6C2BC",
"G c #C9C5BE",
"H c #C4C3C4",
"J c #C6C6C8",
"K c #CDC9C2",
"L c #CCCCCC",
"P c #D1CDC5",
"I c #D5D1CA",
"U c #D9D5CE",
"Y c #D0D0D0",
"T c #DAD6D0",
"R c #DCD8D2",
"E c #DADADA",
"W c #E0DDD8",
"Q c #E3E0DB",
"! c #E2E2E2",
"~ c #EDEDED",
/* pixels */
"PPFFCMMMCMMNCMmMMNMMMMMMMCCFGKPI",
"PFCxdyuu666666666uu666uu666amGPP",
"GCgygnZZZZZZHZZZZZHZZZZZHZngyvKP",
"FxyBLYYYYYYYYYYYYYYYYYYYYYYYByVP",
"CanLYLYYLLLLYLYLLYYLYLLLYLYLLnsI",
"DpLLLLLLLLLLLLLLLLLLLLLLLLLLLLsU",
"DkBHLLKLLLKLLJLLJLJLLJLLLLLLJLAT",
"Dk7wlHHHJJJxclffrrewwq9wrxJJJJAT",
"Dd<,<1cxw7<,,<<,,,,,,,,,,,<HHHkT",
"C4>,wr9<>9xMceewwwww95,1cC<NZHkU",
"D%==wflw1,9DZ,rMrrw11S1F~Y<rmZkT",
"C#===><wfw>7N,NL~FQr=M,LLq>9lBjT",
"Dyq1,=<,<11,M,<1~rH1,c>Ee$$1,lsT",
"Dyq711<<$>$=N>7HLYL$7q>E5#>Ec15I",
"Cpfre911$wwwm7=*&&%@w1>Q,O,EM<2G",
"Dsfrr997O,xfrrrww977r%&R$ OH1<;Z",
"Dirrrrrr@%frrrrrrrrrf#>WfO.$,%-D",
"Dywwrrwr%+frrwrrrrrrr@1EY$%%%&:G",
"Dywww9ww=X1xrllrrrrrr+w!NO%*=>3I",
"Dtqw9w9w< .#%,17qq9w9+w1oX*<156T",
"Du99qq9q11,&%X...X. . ..#<=199aU",
"Dtq999991>%$x#    #+oO=$$$*199yU",
"Du9979997<=*wX    $%$%$%**>1996W",
"Cu9899799711=.=OoOo7***=,1178q6R",
"Di979797977wXX$+@$ X7<<1577979aU",
"F6887797779< #%O@$O +r17777777yU",
"Fi877777777@ *%O+&= .,<5777778yR",
"Kd077777477X.7*o@*>% X<<777770hW",
"PBt7177777  X$*O#*,,O o,17777yHR",
"IIby074777=X.$*X$&<<=  @11506nWU",
"IIUHaytupu6666uu6p666py6y66hLWRI",
"PIIURWWQQ!!QQ!QQ!QQQQQQQQQQWWUII"
};
