/* XPM */
static char * spGreasePencil_visOn_xpm[] = {
"30 30 253 2",
"  	c None",
". 	c #818181",
"+ 	c #C8C8C8",
"@ 	c #D0D0D0",
"# 	c #D1D1D1",
"$ 	c #D7D7D7",
"% 	c #E7E7E7",
"& 	c #E8E8E8",
"* 	c #E6E6E6",
"= 	c #D8D8D8",
"- 	c #B8B8B8",
"; 	c #D7D7D6",
"> 	c #D8D9D9",
", 	c #D6D7D6",
"' 	c #D6D6D6",
") 	c #D7D7D8",
"! 	c #D9D9D9",
"~ 	c #DADADA",
"{ 	c #DBDBDB",
"] 	c #D8D8D7",
"^ 	c #B9B8B8",
"/ 	c #DAD9D9",
"( 	c #D4D4D4",
"_ 	c #D3D3D3",
": 	c #D2D3D2",
"< 	c #D2D2D2",
"[ 	c #DBDADA",
"} 	c #D9D8D8",
"| 	c #B9B9B9",
"1 	c #D3D3D2",
"2 	c #CACACA",
"3 	c #C1C1C1",
"4 	c #BDBDBD",
"5 	c #C6C6C6",
"6 	c #CCCCCC",
"7 	c #D5D5D5",
"8 	c #D8D9D8",
"9 	c #DCDCDC",
"0 	c #DBDCDC",
"a 	c #DADBDB",
"b 	c #DADAD9",
"c 	c #DBDADB",
"d 	c #C2C2C2",
"e 	c #979797",
"f 	c #757575",
"g 	c #666666",
"h 	c #686868",
"i 	c #737373",
"j 	c #888888",
"k 	c #A0A0A0",
"l 	c #B7B7B7",
"m 	c #C5C5C5",
"n 	c #CECECD",
"o 	c #DDDDDD",
"p 	c #DCDDDC",
"q 	c #BABABA",
"r 	c #CBCBCB",
"s 	c #9A9A9A",
"t 	c #7C7C7C",
"u 	c #909090",
"v 	c #848484",
"w 	c #707070",
"x 	c #5F5F5F",
"y 	c #565656",
"z 	c #5E5E5E",
"A 	c #7B7B7C",
"B 	c #A3A3A3",
"C 	c #CFD0CF",
"D 	c #DEDEDE",
"E 	c #BABAB9",
"F 	c #D4D4D3",
"G 	c #C4C4C4",
"H 	c #939393",
"I 	c #6E6E6E",
"J 	c #525252",
"K 	c #4C4C4C",
"L 	c #4E4E4E",
"M 	c #535353",
"N 	c #545454",
"O 	c #4F4F4F",
"P 	c #4B4B4B",
"Q 	c #777777",
"R 	c #B1B1B1",
"S 	c #CFCFCE",
"T 	c #DDDEDD",
"U 	c #828282",
"V 	c #5D5D5D",
"W 	c #8A8A8A",
"X 	c #ADADAD",
"Y 	c #A7A7A7",
"Z 	c #B6B6B6",
"` 	c #9F9F9F",
" .	c #505050",
"..	c #4A4A4A",
"+.	c #6B6B6B",
"@.	c #B2B2B2",
"#.	c #D0D1D0",
"$.	c #DEDEDF",
"%.	c #DFDEDF",
"&.	c #BBBBBB",
"*.	c #DDDCDC",
"=.	c #949494",
"-.	c #747474",
";.	c #C0C0C0",
">.	c #EBEBEB",
",.	c #F5F5F5",
"'.	c #F0F0F0",
").	c #F6F6F6",
"!.	c #F7F7F7",
"~.	c #E9E9E9",
"{.	c #9B9B9B",
"].	c #585858",
"^.	c #494949",
"/.	c #BEBEBE",
"(.	c #DFDFDF",
"_.	c #E0E0E0",
":.	c #B3B3B3",
"<.	c #696969",
"[.	c #F1F1F1",
"}.	c #FDFDFD",
"|.	c #FEFEFE",
"1.	c #FFFFFF",
"2.	c #FAFAFA",
"3.	c #EEEEEE",
"4.	c #A1A1A1",
"5.	c #484848",
"6.	c #898989",
"7.	c #DFE0DF",
"8.	c #E0E0E1",
"9.	c #BCBCBC",
"0.	c #C9C9C9",
"a.	c #8C8C8C",
"b.	c #989898",
"c.	c #F2F2F2",
"d.	c #FCFCFC",
"e.	c #9D9D9D",
"f.	c #4D4D4D",
"g.	c #ACACAC",
"h.	c #E1E1E1",
"i.	c #BBBCBB",
"j.	c #838383",
"k.	c #BFBFBF",
"l.	c #727272",
"m.	c #FBFBFB",
"n.	c #F9F9F9",
"o.	c #CECECE",
"p.	c #808080",
"q.	c #434343",
"r.	c #E1E1E0",
"s.	c #E3E2E3",
"t.	c #636363",
"u.	c #858585",
"v.	c #ECECEC",
"w.	c #E3E3E3",
"x.	c #B9B8B9",
"y.	c #E1E0E0",
"z.	c #E2E2E3",
"A.	c #CFCFCF",
"B.	c #A6A6A6",
"C.	c #646464",
"D.	c #8D8D8D",
"E.	c #363636",
"F.	c #2F2F2F",
"G.	c #3E3E3E",
"H.	c #676767",
"I.	c #A8A8A8",
"J.	c #E4E4E3",
"K.	c #BDBDBC",
"L.	c #616161",
"M.	c #3A3A3A",
"N.	c #595959",
"O.	c #A4A4A4",
"P.	c #E2E2E2",
"Q.	c #E4E4E4",
"R.	c #B7B6B6",
"S.	c #656565",
"T.	c #878787",
"U.	c #F3F3F3",
"V.	c #474747",
"W.	c #B4B4B4",
"X.	c #515151",
"Y.	c #AEAEAE",
"Z.	c #E5E5E6",
"`.	c #BDBEBE",
" +	c #C7C7C7",
".+	c #868686",
"++	c #606060",
"@+	c #969696",
"#+	c #343434",
"$+	c #575757",
"%+	c #B0B0B0",
"&+	c #7D7D7D",
"*+	c #2D2D2D",
"=+	c #5C5C5C",
"-+	c #7F7F7F",
";+	c #555555",
">+	c #303030",
",+	c #5B5B5B",
"'+	c #797979",
")+	c #BEBDBE",
"!+	c #E5E6E6",
"~+	c #DCDBDB",
"{+	c #2A2A2A",
"]+	c #313131",
"^+	c #717171",
"/+	c #323232",
"(+	c #6C6C6C",
"_+	c #E5E5E5",
":+	c #E9E8E8",
"<+	c #D1D0D1",
"[+	c #767676",
"}+	c #282828",
"|+	c #454545",
"1+	c #353535",
"2+	c #626262",
"3+	c #8E8E8E",
"4+	c #EAEAEA",
"5+	c #EAE9E9",
"6+	c #E9E9EA",
"7+	c #AAAAAA",
"8+	c #2B2B2B",
"9+	c #272727",
"0+	c #949595",
"a+	c #BEBFBE",
"b+	c #E8E8E9",
"c+	c #919191",
"d+	c #7A7A7A",
"e+	c #AFAFAE",
"f+	c #ECEBEC",
"g+	c #ECEBEB",
"h+	c #EBEBEC",
"i+	c #EDEDEC",
"j+	c #EDEEED",
"k+	c #ECECED",
"l+	c #E6E5E6",
"m+	c #DAD9DA",
"n+	c #EDEDED",
"o+	c #EDEEEE",
"p+	c #EBEBEA",
"q+	c #EFEEEE",
"r+	c #EFEFEF",
"s+	c #EEEFEF",
"t+	c #EEEEEF",
"u+	c #F0F0F1",
"v+	c #EBEAEB",
"w+	c #EBECEB",
"x+	c #F3F2F3",
"y+	c #F1F0F0",
"z+	c #F1F1F2",
"A+	c #F1F0F1",
"B+	c #D3D2D3",
"C+	c #D3D2D2",
"D+	c #D0D0D1",
". . . . . . . . . . . . . . . . . . . . . . . . . . . . . . ",
". + @ @ @ @ @ @ @ @ @ @ @ @ @ @ @ @ @ @ @ @ @ # # # # # + . ",
". $ % % & & & % * * * * * * * % % & & & & & & & & & & & = . ",
". - ; $ = > = = $ , ' ' ' ) ) > ! ~ ~ { ~ ~ ! ! = = = ] - . ",
". ^ = ! / ! = ' ( _ : < _ _ ( ' $ ! ! ~ { { { [ ~ / } ! - . ",
". | ! ~ / } ' 1 2 3 4 4 3 5 6 # _ 7 $ 8 ~ 9 9 0 { a b ~ | . ",
". | { c ~ $ _ d e f g h i j k l m n < 7 = ~ 9 o p 0 { ~ | . ",
". q 9 9 / 7 r s t j u v w x y z A B 3 C ( = { o D o 9 9 E . ",
". q 9 { ! F G H u I J K L M N O P M Q R S 7 ~ o D D T o q . ",
". q o { $ # - U K V W X Y q Z ` Q  ...+.@.#.$ { $.%.D D q . ",
". &.*.! ( r =.y -.;.>.,.'.).!.~.r {.].^.i /._ ! o (._.(.&.. ",
"U &.9 ] # :.<.g 3 [.}.|.1.1.1.2.3._ 4.y 5.6.2 ' 9 7._.8.&.. ",
"U 9.9 ' 0.a.<.b.c.d.1.1.1.1.1.1.}.,.= e.f.N g.< ! D h.h.i.. ",
"j.9.~ ( k.I l.{ m.1.1.1.1.|.2.2.1.1.n.o.p.q.t + ) T r.s.9.. ",
"v 9./ # @.t.u.v.}.1.1.1.'.6 q k.w.d.d.@ g.J y x.' o y.z.9.. ",
"u.4 ! A.B.C.D.c.1.1.1.{ t E.F.G.H.5 !.A.- H.^.I._ 9 h.J.K.. ",
"u.4 ~ @ Y L.e !.1.1.* i M.O <.N.5.w (.# Z C.P O.# 9 P.Q.4 . ",
"v 4 9 ( R.S.T.U.1.n.g.V.V.l.g x N V.W.@ X N.X.Y.( o w.Z.4 . ",
"j.`.(.=  +. w 5 d.U..+M.++N.@+W.f.#+t 6 D.$+z 4 = _.Q.* 4 . ",
"U /.P.o _ %+w &+(.c.6.*+=+C.u.-+;+>+,+k H.x '++ 9 w.* % )+. ",
"U /.!+P.~+@ k +.u.Q.&.{+]+f i ^+N /+ .(+,+C.O.7 _._+:+~./.. ",
". /.& * P.{ <+4.h [+I.Q }+]+q.|+1+}+q.N.2+3+6 D Q.& 4+5+/.. ",
". /.6+~.% w.9 < 7+[+H.(+M >+8+{+9+E. .C.0++ o w.& >.4+4+/.. ",
". a+>.>.>.b+Q.D ( k.c+g z ,+M f.f.].d+e+# D Q.~.f+v.g+4+/.. ",
". k.h+i+j+k+4+l+_.m+A.x.e -+-.Q 3+%+0.! h.* >.n+3.o+v.p+/.. ",
". k.v.n+q+r+r+v.b+_+_.9 7 <+o.A.( { _._+~.n+r+'.s+3.v.4+/.. ",
". k.h+n+t+'.u+'.r+n+v+& % * * % % ~.w+3.r+[.[.[.r+3.v.>./.. ",
". k.h+n+t+'.[.c.x+c.[.[.y+'.[.[.[.z+c.U.U.U.c.A+r+3.v.h+/.. ",
". &.@ A.@ @ # # < < _ < B+_ _ _ B+< _ C+< # # D+@ C @ A.&.. ",
". . . . . . . . . . . U U U U U U U . . . . . . . . . . . . "};
