/* XPM */
static char * spGreasePencil_addButton_xpm[] = {
"30 30 254 2",
"  	c None",
". 	c #818181",
"+ 	c #C8C8C8",
"@ 	c #D1D1D1",
"# 	c #D0D0D0",
"$ 	c #D8D8D8",
"% 	c #E8E8E8",
"& 	c #E9E9E9",
"* 	c #E7E7E7",
"= 	c #B8B8B8",
"- 	c #D8D8D7",
"; 	c #D9D9D9",
"> 	c #D9DADA",
", 	c #DADADA",
"' 	c #DBDBDB",
") 	c #DADBDA",
"! 	c #DADADB",
"~ 	c #D9D9DA",
"{ 	c #B9B8B8",
"] 	c #DBDADA",
"^ 	c #DCDCDC",
"/ 	c #DCDDDC",
"( 	c #DCDCDB",
"_ 	c #DCDBDB",
": 	c #DAD9D9",
"< 	c #B9B9B9",
"[ 	c #DDDCDC",
"} 	c #DDDDDD",
"| 	c #DEDEDD",
"1 	c #DEDDDD",
"2 	c #DDDEDE",
"3 	c #D7D7D7",
"4 	c #D5D5D5",
"5 	c #D4D4D4",
"6 	c #D6D6D6",
"7 	c #DCDDDD",
"8 	c #DBDCDC",
"9 	c #DBDBDA",
"0 	c #DDDCDD",
"a 	c #DEDEDE",
"b 	c #DEDEDF",
"c 	c #DFDFDF",
"d 	c #DEDFDE",
"e 	c #DFDFDE",
"f 	c #C4C4C4",
"g 	c #D2D2D2",
"h 	c #D7D7D6",
"i 	c #DDDEDD",
"j 	c #BABABA",
"k 	c #DFDEDE",
"l 	c #E0E0E0",
"m 	c #E0E0E1",
"n 	c #D7D7D8",
"o 	c #C1C1C1",
"p 	c #A4A4A4",
"q 	c #8D8C8C",
"r 	c #C0C0C1",
"s 	c #DFE0DF",
"t 	c #BABAB9",
"u 	c #E0E0DF",
"v 	c #E1E1E1",
"w 	c #E1E1E2",
"x 	c #E2E2E2",
"y 	c #BDBDBD",
"z 	c #979797",
"A 	c #6C6C6C",
"B 	c #878787",
"C 	c #CCCCCC",
"D 	c #E3E2E2",
"E 	c #8D8D8D",
"F 	c #5D5D5D",
"G 	c #737373",
"H 	c #C9C9C9",
"I 	c #DFDFE0",
"J 	c #E0DFE0",
"K 	c #BBBBBB",
"L 	c #E0DFDF",
"M 	c #E3E3E3",
"N 	c #E2E3E3",
"O 	c #DCDCDD",
"P 	c #B5B5B5",
"Q 	c #888888",
"R 	c #565656",
"S 	c #6D6D6D",
"T 	c #C6C6C6",
"U 	c #D3D3D3",
"V 	c #DFDEDF",
"W 	c #E2E2E1",
"X 	c #E2E3E2",
"Y 	c #E2E1E2",
"Z 	c #AFAFAF",
"` 	c #868686",
" .	c #515050",
"..	c #646564",
"+.	c #C2C2C2",
"@.	c #CFCFCF",
"#.	c #D3D3D4",
"$.	c #BCBCBC",
"%.	c #A9A9A9",
"&.	c #808080",
"*.	c #494949",
"=.	c #555555",
"-.	c #B1B1B1",
";.	c #BEBEBE",
">.	c #C0C1C0",
",.	c #C7C7C7",
"'.	c #BBBCBB",
").	c #CBCBCB",
"!.	c #848484",
"~.	c #585858",
"{.	c #292929",
"].	c #2B2B2B",
"^.	c #505050",
"/.	c #626262",
"(.	c #686768",
"_.	c #7C7C7C",
":.	c #E1E1E0",
"<.	c #CECECE",
"[.	c #C5C5C5",
"}.	c #7B7B7B",
"|.	c #5F5F5F",
"1.	c #4A4A4A",
"2.	c #2F2F2F",
"3.	c #1C1C1C",
"4.	c #0C0C0C",
"5.	c #0D0D0D",
"6.	c #191919",
"7.	c #303030",
"8.	c #575757",
"9.	c #5A5A5A",
"0.	c #686868",
"a.	c #A9A8A9",
"b.	c #E2E1E1",
"c.	c #E2E2E3",
"d.	c #B7B7B7",
"e.	c #838383",
"f.	c #636363",
"g.	c #4E4E4E",
"h.	c #3D3D3D",
"i.	c #313131",
"j.	c #282828",
"k.	c #232323",
"l.	c #1B1B1B",
"m.	c #171717",
"n.	c #484848",
"o.	c #6A6A6A",
"p.	c #A2A2A2",
"q.	c #E4E4E3",
"r.	c #BDBDBC",
"s.	c #9B9B9C",
"t.	c #777777",
"u.	c #7E7E7E",
"v.	c #797979",
"w.	c #747474",
"x.	c #989898",
"y.	c #8A8A8A",
"z.	c #363636",
"A.	c #515151",
"B.	c #9C9C9C",
"C.	c #CACACA",
"D.	c #E4E4E4",
"E.	c #E6E6E6",
"F.	c #D2D2D3",
"G.	c #C6C7C6",
"H.	c #B6B6B6",
"I.	c #828282",
"J.	c #434343",
"K.	c #9F9F9F",
"L.	c #D3D3D2",
"M.	c #E6E6E7",
"N.	c #BDBEBE",
"O.	c #E5E5E5",
"P.	c #DDDDDC",
"Q.	c #858585",
"R.	c #4D4D4D",
"S.	c #545454",
"T.	c #CDCDCD",
"U.	c #EAEAEA",
"V.	c #E7E8E8",
"W.	c #E3E3E4",
"X.	c #939393",
"Y.	c #5E5E5E",
"Z.	c #535453",
"`.	c #9A9A9A",
" +	c #E6E5E5",
".+	c #EAEBEA",
"++	c #ECECEC",
"@+	c #EBEBEB",
"#+	c #BEBDBE",
"$+	c #E9EAEA",
"%+	c #ECEBEB",
"&+	c #EDEDED",
"*+	c #EEEEEE",
"=+	c #A6A6A6",
"-+	c #535353",
";+	c #969696",
">+	c #E8E9E8",
",+	c #EDEDEC",
"'+	c #EBEAEA",
")+	c #F0EFF0",
"!+	c #F0F0F0",
"~+	c #F1F1F1",
"{+	c #F2F2F2",
"]+	c #F2F2F3",
"^+	c #BCBDBD",
"/+	c #7F7F7E",
"(+	c #939292",
"_+	c #EEEFEE",
":+	c #EFEFEF",
"<+	c #EDEDEE",
"[+	c #EAEAEB",
"}+	c #F2F1F2",
"|+	c #F3F3F3",
"1+	c #F4F4F4",
"2+	c #F3F3F4",
"3+	c #848383",
"4+	c #BEBFBE",
"5+	c #F0F0F1",
"6+	c #F4F3F4",
"7+	c #F5F5F5",
"8+	c #F6F6F6",
"9+	c #F6F6F5",
"0+	c #EDECEC",
"a+	c #BFBFBF",
"b+	c #ECECED",
"c+	c #EEEEED",
"d+	c #EFF0EF",
"e+	c #F6F5F6",
"f+	c #F7F7F7",
"g+	c #F8F7F8",
"h+	c #EEEFEF",
"i+	c #ECECEB",
"j+	c #F0EFEF",
"k+	c #F5F5F6",
"l+	c #F7F7F8",
"m+	c #F9F9F9",
"n+	c #FAF9F9",
"o+	c #F9F8F9",
"p+	c #EFF0F0",
"q+	c #EFEFF0",
"r+	c #F5F6F5",
"s+	c #FBFBFB",
"t+	c #FAFAFA",
"u+	c #F6F7F6",
"v+	c #FBFAFA",
"w+	c #FCFCFC",
"x+	c #F8F8F9",
"y+	c #F8F8F8",
"z+	c #F1F0F1",
"A+	c #EBEBEC",
"B+	c #D4D3D4",
"C+	c #D3D2D2",
"D+	c #D1D1D2",
"E+	c #D0D1D0",
". . . . . . . . . . . . . . . . . . . . . . . . . . . . . . ",
". + @ @ @ @ @ @ # # # # # # # # # # # # # # @ @ @ @ @ @ + . ",
". $ % % & & & & % % % % % % * * * % % % % % & & & % % % $ . ",
". = - $ ; > , ' , ) ' ' ' ! ~ > , , ' ' , , ; , ; ; $ - = . ",
". { ; , ] ' ^ ^ ^ ^ / ( ' ; $ $ ; , ' ^ ^ ' ' _ ' ] : ; = . ",
". < , ' _ [ } | } 1 2 ^ , 3 4 5 6 ; ' / } } ^ 7 ^ 8 9 , < . ",
". < ^ 0 } a b c d e a ^ ; @ f < g h , } c a a a i 7 ^ ' < . ",
". j } a k c l l l m e ^ n o p q r 5 ; i c s c a a } ^ ^ t . ",
". j a c c u l v w x l / 3 y z A B C $ } u l v l c a i } j . ",
". j d c l v w x D x v } 6 < E F G H 6 ^ c l l l I J a a j . ",
". K L l v x M N M x v O 6 P Q R S T U ; ' } } V c l l c K . ",
". K v W x X x x Y l a , 5 Z `  ...+.@.#.6 3 ; ' } s l m K . ",
". $.x x v l c a } ' ; 4 # %.&.*.=.-.$.;.;.>.,.U ; } m l '.. ",
". $.x v a ^ , $ 6 g ).f = !.~.{.].^.R /.(.S _.-.4 / :.Y $.. ",
". $.x c ' 4 <.[.P z }.|.1.2.3.4.5.6.7.^.8.9.0.a.6 a b.c.$.. ",
". y x a 3 d.e.f.g.h.i.j.k.l.m.5.3.n.o._.E p.K # ^ l M q.r.. ",
". y x c 5 s.t.u.E v.w.Q x.y.S z.A.B.y f C.g ; } v D.E.E.y . ",
". y D.v 1 F.G.[.C ).).C C H.I.J.R K.C.L.; a v D.E.* % M.y . ",
". N.E.O.M m c a } } P., 4 f Q.R.S.B.T.; l O.% & U.U.% * y . ",
". ;.& % V.E.* * * * * W.a U X.Y.Z.`.# }  +.+++++++@+& % #+. ",
". ;.$+@+%+@+++&+*+*+*+@+O.^ =+S -+;+g l >+,+*+*+&+@+'+& ;.. ",
". ;.U.++&+*+)+!+~+{+]+!+@+w ^+/+/.(+4 M U._+!+:+<+++@+'+;.. ",
". ;.[+++&+:+!+}+|+1+1+2+:+% ; P 3+p , * &+!+~+:+:+*+++@+;.. ",
". 4+++&+:+5+{+|+6+7+8+9+|+&+E.! = 4 O.@+:+{+~+!+)+*+0+@+;.. ",
". a+b+c+d+5+{+6+1+e+f+g+f+2+:+& D.% ++!+{+|+{+!+!+h+&+i+;.. ",
". a+&+*+j+~+|+1+k+8+l+m+n+o+8+|+~+~+{+1+1+1+{+~+p+:+&+@+;.. ",
". a+b+*+q+~+]+1+r+8+g+m+s+s+t+m+f+8+u+8+7+1+{+~+!+:+&+++;.. ",
". a+b+*+q+~+{+1+e+8+f+m+v+s+w+s+t+x+y+f+7+1+{+z+!+:+&+A+;.. ",
". K # # @ @ g g U U U U B+5 5 5 B+U U C+g @ @ D+@ E+# @.K . ",
". . . . . . . . . . . . . . . . . . . . . . . . . . . . . . "};
