/* XPM */
static char * spGreasePencil_upAll_xpm[] = {
"30 30 290 2",
"  	c None",
". 	c #818181",
"+ 	c #C7C7C7",
"@ 	c #D0D0D0",
"# 	c #D7D7D7",
"$ 	c #E7E7E7",
"% 	c #E6E6E6",
"& 	c #E8E8E8",
"* 	c #B8B8B8",
"= 	c #D7D7D6",
"- 	c #D6D6D6",
"; 	c #D5D6D6",
"> 	c #D5D5D5",
", 	c #D6D7D6",
"' 	c #D8D8D8",
") 	c #D9D9D9",
"! 	c #DADADA",
"~ 	c #DBDBDC",
"{ 	c #DBDCDC",
"] 	c #DBDBDB",
"^ 	c #B9B8B8",
"/ 	c #D6D5D5",
"( 	c #D4D4D4",
"_ 	c #D3D3D3",
": 	c #D2D2D2",
"< 	c #D5D6D5",
"[ 	c #D9D9D8",
"} 	c #DCDCDC",
"| 	c #DDDDDD",
"1 	c #D5D4D4",
"2 	c #D8D7D7",
"3 	c #D9D8D8",
"4 	c #B9B9B9",
"5 	c #D0CFCF",
"6 	c #BABABA",
"7 	c #9D9D9D",
"8 	c #A9A9A9",
"9 	c #C5C4C4",
"0 	c #D0D1D1",
"a 	c #DDDCDC",
"b 	c #D1D2D1",
"c 	c #C8C8C8",
"d 	c #BCBCBC",
"e 	c #C2C2C2",
"f 	c #CFCFCF",
"g 	c #D7D8D8",
"h 	c #828282",
"i 	c #D5D4D5",
"j 	c #686868",
"k 	c #434343",
"l 	c #4A4A4A",
"m 	c #7C7C7C",
"n 	c #CECECE",
"o 	c #B7B7B7",
"p 	c #7A7A7A",
"q 	c #666666",
"r 	c #8B8B8B",
"s 	c #C1C1C1",
"t 	c #D2D3D2",
"u 	c #D6D7D7",
"v 	c #838383",
"w 	c #808080",
"x 	c #2D2D2D",
"y 	c #1A1A1A",
"z 	c #1C1C1C",
"A 	c #343434",
"B 	c #7A7A79",
"C 	c #CACACA",
"D 	c #D5D5D6",
"E 	c #DAD9D9",
"F 	c #D4D4D5",
"G 	c #B1B1B1",
"H 	c #595959",
"I 	c #2C2C2C",
"J 	c #2B2B2B",
"K 	c #585858",
"L 	c #B4B4B4",
"M 	c #BABAB9",
"N 	c #848484",
"O 	c #BBBBBB",
"P 	c #171717",
"Q 	c #0B0B0B",
"R 	c #0A0A0A",
"S 	c #424242",
"T 	c #ABABAB",
"U 	c #5E5E5E",
"V 	c #212121",
"W 	c #131313",
"X 	c #191919",
"Y 	c #3F3F3F",
"Z 	c #8F8F8F",
"` 	c #868686",
" .	c #D3D4D3",
"..	c #C5C5C5",
"+.	c #717171",
"@.	c #262626",
"#.	c #0C0C0C",
"$.	c #040404",
"%.	c #050505",
"&.	c #646464",
"*.	c #D1D1D1",
"=.	c #D3D3D2",
"-.	c #C0C0C0",
";.	c #747474",
">.	c #272727",
",.	c #111111",
"'.	c #141414",
").	c #878787",
"!.	c #A7A7A7",
"~.	c #030303",
"{.	c #2A2A2A",
"].	c #8A8A8A",
"^.	c #CDCDCD",
"/.	c #C9C9C9",
"(.	c #939393",
"_.	c #373737",
":.	c #121212",
"<.	c #0D0D0D",
"[.	c #1A191A",
"}.	c #4B4B4B",
"|.	c #B2B2B2",
"1.	c #888888",
"2.	c #898988",
"3.	c #353535",
"4.	c #090909",
"5.	c #010101",
"6.	c #161616",
"7.	c #383838",
"8.	c #C2C3C2",
"9.	c #BBBABA",
"0.	c #595A59",
"a.	c #060606",
"b.	c #020202",
"c.	c #080808",
"d.	c #282828",
"e.	c #707070",
"f.	c #CCCCCC",
"g.	c #D7D7D8",
"h.	c #BDBDBD",
"i.	c #9C9C9C",
"j.	c #272627",
"k.	c #5C5C5C",
"l.	c #B5B5B5",
"m.	c #AFAFAF",
"n.	c #4C4C4C",
"o.	c #1F1F1F",
"p.	c #101010",
"q.	c #151515",
"r.	c #575757",
"s.	c #BDBDBE",
"t.	c #BBBCBB",
"u.	c #C6C6C6",
"v.	c #999999",
"w.	c #5F5F5F",
"x.	c #070707",
"y.	c #292929",
"z.	c #3C3C3C",
"A.	c #414141",
"B.	c #515151",
"C.	c #858484",
"D.	c #BFBFBF",
"E.	c #C4C4C4",
"F.	c #484848",
"G.	c #0F0F0F",
"H.	c #232323",
"I.	c #6F6F6F",
"J.	c #D9D8D9",
"K.	c #CBCBCB",
"L.	c #AEAEAE",
"M.	c #0E0E0E",
"N.	c #202020",
"O.	c #AAAAAA",
"P.	c #B2B3B2",
"Q.	c #B8B8B9",
"R.	c #606161",
"S.	c #9E9D9E",
"T.	c #9A9A9A",
"U.	c #858585",
"V.	c #313131",
"W.	c #333333",
"X.	c #DCDBDB",
"Y.	c #696969",
"Z.	c #E0E0DF",
"`.	c #BDBDBC",
" +	c #B7B7B8",
".+	c #404040",
"++	c #DEDEDE",
"@+	c #E3E3E3",
"#+	c #E5E5E5",
"$+	c #373637",
"%+	c #363636",
"&+	c #E0E0E0",
"*+	c #E2E2E2",
"=+	c #DFDFDF",
"-+	c #4B4B4A",
";+	c #E4E4E4",
">+	c #EAEAEA",
",+	c #EDECEC",
"'+	c #EDEDED",
")+	c #EDEDEC",
"!+	c #3E3E3E",
"~+	c #E5E5E6",
"{+	c #BDBEBE",
"]+	c #E1E1E1",
"^+	c #B6B6B6",
"/+	c #5B5B5B",
"(+	c #DFDFDE",
"_+	c #EEEDEE",
":+	c #F0F0F0",
"<+	c #F1F1F1",
"[+	c #EEEEEE",
"}+	c #E7E8E7",
"|+	c #8C8C8C",
"1+	c #BEBEBE",
"2+	c #D9DADA",
"3+	c #6A6A6A",
"4+	c #444444",
"5+	c #EAEAEB",
"6+	c #F3F2F3",
"7+	c #F4F4F4",
"8+	c #F3F3F2",
"9+	c #F0F1F0",
"0+	c #989899",
"a+	c #494949",
"b+	c #E9E9E9",
"c+	c #BEBDBE",
"d+	c #E6E7E7",
"e+	c #DFDEDE",
"f+	c #A0A0A0",
"g+	c #A6A6A6",
"h+	c #F2F2F1",
"i+	c #F5F5F5",
"j+	c #F2F1F1",
"k+	c #ECECEC",
"l+	c #B0B0B0",
"m+	c #606060",
"n+	c #A1A1A1",
"o+	c #EBEAEA",
"p+	c #E9E9EA",
"q+	c #EFEFEF",
"r+	c #F3F3F3",
"s+	c #F4F4F5",
"t+	c #F5F6F6",
"u+	c #F6F6F5",
"v+	c #EFEEEE",
"w+	c #E7E7E6",
"x+	c #979797",
"y+	c #E6E6E7",
"z+	c #EBEBEB",
"A+	c #EAE9E9",
"B+	c #E0DFE0",
"C+	c #F0F0F1",
"D+	c #F2F2F2",
"E+	c #F5F4F4",
"F+	c #ECECEB",
"G+	c #DADBDB",
"H+	c #BEBFBE",
"I+	c #ECEBEC",
"J+	c #F1F1F0",
"K+	c #F1F1F2",
"L+	c #F6F6F6",
"M+	c #ECEBEB",
"N+	c #EBEBEC",
"O+	c #EDEEED",
"P+	c #EDEDEE",
"Q+	c #EFEEEF",
"R+	c #F2F1F2",
"S+	c #F0EFF0",
"T+	c #F7F7F7",
"U+	c #EDEEEE",
"V+	c #EBEBEA",
"W+	c #F3F3F4",
"X+	c #F2F2F3",
"Y+	c #EBEAEB",
"Z+	c #F8F8F8",
"`+	c #EEEFEF",
" @	c #EEEEEF",
".@	c #F4F5F4",
"+@	c #F4F3F4",
"@@	c #F9F9F9",
"#@	c #F8F9F8",
"$@	c #F5F4F5",
"%@	c #F4F3F3",
"&@	c #F9F9FA",
"*@	c #F1F0F1",
"=@	c #D3D2D3",
"-@	c #D4D3D4",
";@	c #D3D2D2",
">@	c #D1D1D2",
",@	c #D0D1D0",
". . . . . . . . . . . . . . . . . . . . . . . . . . . . . . ",
". + @ @ @ @ @ @ @ @ @ @ @ @ @ @ @ @ @ @ @ @ @ @ @ @ @ @ + . ",
". # $ $ $ $ % % % % $ $ & & & & & & $ $ % % % $ $ $ $ $ # . ",
". * = - # ; > - - , ' ) ! ~ ~ { ] ! ) ) # - - - # ' # = * . ",
". ^ # # / ( _ : : _ < [ ] } | | } ! ' - ( _ _ 1 - 2 3 ' * . ",
". 4 # - _ 5 6 7 8 9 0 - ) } | a ! ' > b c d e f > g [ ) 4 . ",
"h 4 ' i @ d j k l m 6 : ' } | } ' ( n o p q r s t u ) ) 4 . ",
"v 6 - : c w x y z A B C D ) ] E F n G H I J K L @ > ' ] M . ",
"N O > f 8 k P Q R P S T : - ' > f o U V W X Y Z + : # ! 6 h ",
"` O  ...+.@.#.$.%.#.V &...*.=.@ -.;.>.,.'.X z S 7 n ( ) 6 h ",
").d : !.k z Q ~.$.R ,.{.].+ ^./.(._.:.#.<.R Q [.}.|._ ' O v ",
"1.d f 2.3.X 4.5.~.R Q 6.7.Z 8.9.0.y <.a.b.~.c.,.d.e.f.g.O N ",
"1.h.*.i.}.d.<.~.a.<.,.6.j.k.l.m.n.o.'.R $.a.p.q.@.r.s.# t.N ",
").h.- u.v.w.6.x.#.y.z.A.B.C.D.E.].K F.>.,.G.H._.A.I.h.J.d N ",
"` d E _ K.L.{.M.N.N O.P.6 c *.@ + Q.G R.N.z n.S.T.|.*.~ d N ",
"U.h.] - f D.V.q.W.l.*.# ! X.} ] ! # *.+.{.d.Y.@ > ) | Z.`.v ",
"N h.| # *. +V.X .+E.# ++@+#+% #+@+++# m $+%+m > } &+*+@+h.h ",
"N h.=+) : |.A o.-+^.] ;+>+,+'+)+>+;+] U.!+!+` ) &+;+% ~+h.. ",
"v {+]+} > ^+k d./+*.(+& _+:+<+:+[+}+++|+S S ].] *+$ $ $ h.. ",
"h 1+;+&+2+e 3+4+h _ ]+5+:+6+7+8+9+>+&+0+}.a+Z | ;+& b+& c+. ",
". 1+d+;+e+_ f+;.g+' #+'+h+7+i+7+j+k+@+l+m+/+n+++#+& o+b+1+. ",
". 1+b+$ @+++i 6 ( *+p+q+r+s+t+u+r+v+w+( n+x+C ]+y+>+z+A+1+. ",
". 1+>+>+& #+*+B+;+& '+C+D+r+7+i+E+D+F+#+G+# =+;+b+z+z+>+1+. ",
". H+z+z+z+5+b+b+I+[+:+J+q+:+K+s+L+i+<+k+$ % $ b+I+k+M+>+1+. ",
". D.N+)+O+P+[+Q+:+R+<+S+'+k+q+7+L+T+i+D+q+'+'+'+[+U+k+V+1+. ",
". D.k+'+v+:+<+D+W+7+X+:+,+Y+[+7+T+Z+T+L+r+D+:+:+`+[+k+>+1+. ",
". D.N+'+ @:+K+r+.@i++@D+:+q+D+L+Z+@@#@T+i+7+D+<+q+[+k+z+1+. ",
". D.N+'+ @:+<+r+$@i+i+i+%@r+i+Z+@@&@Z+T+i+7+D+*@q+[+k+5+1+. ",
". O @ @ *.*.: *.: : _ _ =@_ _ ( -@_ _ ;@_ : : >@*.,@@ f O . ",
". . . . . . . . . . . h h h h h . . . . . . . . . . . . . . "};
