/* XPM */
static char * spGreasePencil_offLock_xpm[] = {
"30 30 241 2",
"  	c None",
". 	c #818181",
"+ 	c #C8C8C8",
"@ 	c #D1D1D1",
"# 	c #D8D8D8",
"$ 	c #E8E8E8",
"% 	c #E9E9E9",
"& 	c #E1E1E1",
"* 	c #C1C1C1",
"= 	c #A7A7A7",
"- 	c #AFAFAF",
"; 	c #C4C4C4",
"> 	c #E2E2E2",
", 	c #B8B8B8",
"' 	c #D8D8D7",
") 	c #D9D9D9",
"! 	c #D9DADA",
"~ 	c #DADADA",
"{ 	c #DBDBDB",
"] 	c #DBDCDB",
"^ 	c #DCDCDC",
"/ 	c #DCDCDD",
"( 	c #D7D7D8",
"_ 	c #ACADAD",
": 	c #787878",
"< 	c #7C7C7C",
"[ 	c #9E9E9E",
"} 	c #989898",
"| 	c #7E7E7E",
"1 	c #BABABA",
"2 	c #B9B8B8",
"3 	c #DBDADA",
"4 	c #DDDDDD",
"5 	c #DDDEDD",
"6 	c #DEDEDD",
"7 	c #DEDEDE",
"8 	c #D4D4D4",
"9 	c #8C8C8C",
"0 	c #828282",
"a 	c #C9C9C9",
"b 	c #ACACAC",
"c 	c #BBBBBB",
"d 	c #B1B1B1",
"e 	c #CECDCD",
"f 	c #DAD9D9",
"g 	c #B9B9B9",
"h 	c #DCDBDB",
"i 	c #DDDCDC",
"j 	c #DFDEDE",
"k 	c #DEDFDF",
"l 	c #DFDFDF",
"m 	c #D7D7D7",
"n 	c #8A8A8A",
"o 	c #A4A4A4",
"p 	c #DEDDDD",
"q 	c #5C5C5C",
"r 	c #6E6E6E",
"s 	c #929292",
"t 	c #A8A9A9",
"u 	c #DBDCDC",
"v 	c #DBDBDA",
"w 	c #DDDCDD",
"x 	c #DEDEDF",
"y 	c #DFE0DF",
"z 	c #E0E0DF",
"A 	c #E0E0E0",
"B 	c #959595",
"C 	c #999998",
"D 	c #D3D3D3",
"E 	c #CCCCCC",
"F 	c #5D5D5D",
"G 	c #BEBEBE",
"H 	c #DCDDDD",
"I 	c #E1E1E2",
"J 	c #E2E2E1",
"K 	c #7B7B7B",
"L 	c #CACACA",
"M 	c #D4D4D5",
"N 	c #CBCBCB",
"O 	c #B0B0B0",
"P 	c #D3D4D3",
"Q 	c #D5D6D5",
"R 	c #BABAB9",
"S 	c #E1E1E0",
"T 	c #E3E3E3",
"U 	c #E3E3E4",
"V 	c #E4E4E4",
"W 	c #ADAEAD",
"X 	c #8F8F8F",
"Y 	c #CFCFCF",
"Z 	c #E5E5E5",
"` 	c #E4E4E3",
" .	c #E4E3E4",
"..	c #A1A1A1",
"+.	c #A8A8A8",
"@.	c #DEDFDE",
"#.	c #E7E6E6",
"$.	c #7D7D7D",
"%.	c #C5C5C5",
"&.	c #A5A5A4",
"*.	c #9F9F9F",
"=.	c #E7E7E7",
"-.	c #E6E6E6",
";.	c #E3E4E3",
">.	c #969696",
",.	c #B7B7B7",
"'.	c #E1E0E1",
").	c #E1E0E0",
"!.	c #E9EAEA",
"~.	c #ECECEC",
"{.	c #EDEDED",
"].	c #CECECE",
"^.	c #858585",
"/.	c #EAEAEA",
"(.	c #E8E9E9",
"_.	c #ADADAD",
":.	c #7F7F7F",
"<.	c #D4D3D4",
"[.	c #E3E3E2",
"}.	c #E6E7E6",
"|.	c #EEEEEE",
"1.	c #BCBCBC",
"2.	c #777777",
"3.	c #8B8B8B",
"4.	c #C9C8C8",
"5.	c #727272",
"6.	c #E8E9E8",
"7.	c #F1F1F1",
"8.	c #EFEFEF",
"9.	c #DFDFE0",
"0.	c #919091",
"a.	c #868686",
"b.	c #949494",
"c.	c #848484",
"d.	c #4D4D4D",
"e.	c #5A5A5A",
"f.	c #565656",
"g.	c #535353",
"h.	c #F4F4F4",
"i.	c #F3F2F3",
"j.	c #F0F0F0",
"k.	c #E9E9EA",
"l.	c #E1E2E1",
"m.	c #BBBCBB",
"n.	c #888888",
"o.	c #D0D0D0",
"p.	c #515151",
"q.	c #555555",
"r.	c #767676",
"s.	c #C4C4C3",
"t.	c #EBEBEB",
"u.	c #E5E6E5",
"v.	c #E5E5E4",
"w.	c #E6E5E5",
"x.	c #6F6F6F",
"y.	c #FDFDFD",
"z.	c #FEFEFE",
"A.	c #FCFCFC",
"B.	c #F8F8F8",
"C.	c #898989",
"D.	c #585858",
"E.	c #5E5E5E",
"F.	c #666666",
"G.	c #F1F0F0",
"H.	c #EEEDEE",
"I.	c #E4E4E5",
"J.	c #BDBDBD",
"K.	c #FFFFFF",
"L.	c #676767",
"M.	c #747474",
"N.	c #E6E6E5",
"O.	c #BDBDBC",
"P.	c #E9EAE9",
"Q.	c #F2F2F2",
"R.	c #B4B4B5",
"S.	c #696969",
"T.	c #F6F6F6",
"U.	c #9D9D9D",
"V.	c #757575",
"W.	c #F3F3F3",
"X.	c #EFEEEE",
"Y.	c #F3F3F4",
"Z.	c #A2A3A2",
"`.	c #767576",
" +	c #7A7A7A",
".+	c #E7E7E8",
"++	c #BDBEBE",
"@+	c #F4F4F5",
"#+	c #BFBFBF",
"$+	c #F1F2F2",
"%+	c #C3C3C3",
"&+	c #FAFAFA",
"*+	c #6B6B6B",
"=+	c #979797",
"-+	c #F7F7F7",
";+	c #6D6D6D",
">+	c #BEBDBE",
",+	c #EBECEC",
"'+	c #F3F2F2",
")+	c #A5A5A5",
"!+	c #606060",
"~+	c #3B3B3B",
"{+	c #3D3D3D",
"]+	c #CDCDCD",
"^+	c #ECEBEB",
"/+	c #7D7C7D",
"(+	c #D2D2D2",
"_+	c #FBFBFB",
":+	c #636363",
"<+	c #EFEFF0",
"[+	c #EBEAEA",
"}+	c #EBEBEC",
"|+	c #484848",
"1+	c #8D8D8D",
"2+	c #F5F5F5",
"3+	c #BEBFBE",
"4+	c #838383",
"5+	c #F9F9F9",
"6+	c #F0EFF0",
"7+	c #EDECEC",
"8+	c #ECECED",
"9+	c #EEEEED",
"0+	c #F0F1F0",
"a+	c #737373",
"b+	c #6C6C6C",
"c+	c #EEEFEF",
"d+	c #ECECEB",
"e+	c #C2C2C2",
"f+	c #B5B5B5",
"g+	c #EFF0F0",
"h+	c #707070",
"i+	c #656565",
"j+	c #717171",
"k+	c #ABACAB",
"l+	c #F8F7F8",
"m+	c #B6B5B5",
"n+	c #F2F1F2",
"o+	c #D5D5D5",
"p+	c #D1D1D2",
"q+	c #D0D1D0",
"r+	c #999999",
". . . . . . . . . . . . . . . . . . . . . . . . . . . . . . ",
". + @ @ @ @ @ @ @ @ @ @ @ @ @ @ @ @ @ @ @ @ @ @ @ @ @ @ + . ",
". # $ $ % % % % % % % % % % % % & * = - ; > % % % $ $ $ # . ",
". , ' # ) ! ~ { { ] ^ ^ ^ / ( _ : < [ } | . 1 ~ ) ) # ' , . ",
". 2 ) ~ 3 { ^ ^ 4 4 5 6 7 8 9 0 , ~ a b c d : e { 3 f ) , . ",
". g ~ { h i 4 6 7 j k l m n o p 8 | q r r ~ s t ^ u v ~ g . ",
". g ^ w 4 7 x l y z A A o B & m < C D E F m G 9 5 H ^ { g . ",
". 1 4 7 j l A A & I J m K L M N O & > P q Q g 9 l 7 4 4 R . ",
". 1 7 l A S & T U V V W X Y K Z `  .T ; r 4 ..+.A l @.7 1 . ",
". 1 y A & > U Z #.$ > $.%.&.*.=.#.-.V } ..;.>.,.I '.l l 1 . ",
". c ).& > V =.!.~.{.].: $ ^.+ ~./.(.l >._.D :.<.T > & A c . ",
". c > [.Z }./.|.'.1.2.3.4.5.6.7.8.{.~.9.0.a.b.-.V ;.> I c . ",
". 1.T V -./.|.7 c.r d.e.f.g.n ) h.i.7.j.k.l.T $ -.V U > m.. ",
". 1.V -.$ ~.7.} n.{.* o.^.p.q.r., 1 s.> 7.7.|.t.$ u.v. .1.. ",
". 1.w.=./.8.Z x.+ y.z.z.A.B.C.g.D.F E.F.a.L G.H./.$ w.I.1.. ",
". J.-.$ ~.j.N F.& z.z.K.K.z.y.8.|.-.Y ..L.M.$ j.~.% =.N.O.. ",
". J.=.P.{.Q.R.S.T.z.z.K.K.K.K.z.z.z.z.z.U.V.W.7.{./.$ =.J.. ",
". J.$ t.X.Y.Z.`.y.z.K.K.K.K.K.K.K.K.z.z.^. +h.Q.|.t.% .+J.. ",
". ++% ~.j.@+3.:.z.z.K.K.K.K.A.K.K.K.z.z.0 0 h.Q.|.~.% $ J.. ",
". #+t.{.$+h.n %+z.z.K.K.&+U.*+=+7.K.z.-+;+= T.Q.8.~./.% >+. ",
". #+,+|.'+h.)+%.z.z.K.K.t.!+~+{+,.K.z.l !+]+T.Q.8.~.^+/.G . ",
". #+~.8.Q.j./+^.y.z.K.K.K.r.*+(+_+z.z.c :+/.T.W.<+{.~.[+G . ",
". G }+|.Q.T.+.F.m z.z.K./.|+c K.K.z.y.1+: 2+T.Q.j.|.~.t.G . ",
". 3+~.|.7.@+A : K =.z.z.{.O A.K.K.z.y.4+>.5+2+W.6+|.7+t.G . ",
". #+8+9+0+Y.-+D a+V.* -+z.z.z.z.z.z.8 b+8 B.2+Q.j.c+{.d+G . ",
". #+{.|.j.Q.T.B.8  +E.a+* j.2+~.m e+a+f+&+B.2+Q.g+8.{.t.G . ",
". #+8+|.<+Q.Y.T.5+8.d h+i+j+r.b+L.r k+-+5+-+h.Q.j.8.{.~.G . ",
". #+8+|.<+7.W.2+l+&+&+V m+- _.; 8 .+&+&+B.T.W.n+j.8.{.}+G . ",
". c o.o.@ @ D o+) ^ A > V Z Z Z V > A i # o+D p+@ q+o.Y c . ",
". . . . . . 0 c.n.1+s >.} r+r+r+} >.s 1+n.c.0 . . . . . . . "};
