/* XPM */
static char * spGreasePencil_onLock_xpm[] = {
"30 30 240 2",
"  	c None",
". 	c #818181",
"+ 	c #C8C8C8",
"@ 	c #D1D1D1",
"# 	c #D8D8D8",
"$ 	c #E8E8E8",
"% 	c #E9E9E9",
"& 	c #B8B8B8",
"* 	c #D8D8D7",
"= 	c #D9D9D9",
"- 	c #D9DADA",
"; 	c #DADADA",
"> 	c #DBDBDB",
", 	c #DBDCDB",
"' 	c #DCDCDC",
") 	c #DCDCDD",
"! 	c #DCDDDD",
"~ 	c #B9B8B8",
"{ 	c #DBDADA",
"] 	c #DDDDDD",
"^ 	c #DDDEDD",
"/ 	c #DEDEDD",
"( 	c #D0D0D0",
"_ 	c #B9B9B9",
": 	c #ABABAB",
"< 	c #A9A9A9",
"[ 	c #A8A8A8",
"} 	c #AFAFAF",
"| 	c #A3A3A3",
"1 	c #D6D5D5",
"2 	c #DAD9D9",
"3 	c #DCDBDB",
"4 	c #DDDCDC",
"5 	c #DEDEDE",
"6 	c #DFDEDE",
"7 	c #DEDFDF",
"8 	c #9F9F9F",
"9 	c #717171",
"0 	c #828282",
"a 	c #989898",
"b 	c #9E9E9E",
"c 	c #9B9B9B",
"d 	c #7C7C7C",
"e 	c #767676",
"f 	c #C0C1C1",
"g 	c #DBDCDC",
"h 	c #DBDBDA",
"i 	c #DDDCDD",
"j 	c #DEDEDF",
"k 	c #DFDFDF",
"l 	c #DFE0DF",
"m 	c #E0E0DF",
"n 	c #E0E0E0",
"o 	c #C2C2C2",
"p 	c #868686",
"q 	c #B1B1B1",
"r 	c #999999",
"s 	c #8B8B8B",
"t 	c #949494",
"u 	c #B7B7B7",
"v 	c #929292",
"w 	c #AEAEAE",
"x 	c #BABABA",
"y 	c #E1E1E1",
"z 	c #E1E1E2",
"A 	c #E2E2E1",
"B 	c #9C9C9D",
"C 	c #CDCDCD",
"D 	c #666667",
"E 	c #828181",
"F 	c #A0A0A1",
"G 	c #A6A6A6",
"H 	c #666666",
"I 	c #8F908F",
"J 	c #939393",
"K 	c #BABAB9",
"L 	c #E1E1E0",
"M 	c #E3E3E3",
"N 	c #E3E3E4",
"O 	c #E4E4E4",
"P 	c #E2E2E2",
"Q 	c #B6B6B6",
"R 	c #B5B5B5",
"S 	c #848484",
"T 	c #E5E5E5",
"U 	c #E4E4E3",
"V 	c #E4E3E4",
"W 	c #B7B7B6",
"X 	c #C3C3C3",
"Y 	c #747474",
"Z 	c #DEDFDE",
"` 	c #E7E6E6",
" .	c #D6D6D6",
"..	c #969695",
"+.	c #A4A4A4",
"@.	c #E7E7E7",
"#.	c #E6E6E6",
"$.	c #707070",
"%.	c #6D6D6D",
"&.	c #D8D8D9",
"*.	c #E1E0E1",
"=.	c #BBBBBB",
"-.	c #E1E0E0",
";.	c #E9EAEA",
">.	c #ECECEC",
",.	c #EDEDED",
"'.	c #BCBCBC",
").	c #777777",
"!.	c #EAEAEA",
"~.	c #E8E9E9",
"{.	c #909090",
"].	c #757575",
"^.	c #E3E3E2",
"/.	c #E6E7E6",
"(.	c #EEEEEE",
"_.	c #BDBDBD",
":.	c #808080",
"<.	c #9A9A9A",
"[.	c #B3B3B3",
"}.	c #888887",
"|.	c #EEEFEE",
"1.	c #F1F1F1",
"2.	c #EFEFEF",
"3.	c #D4D4D4",
"4.	c #DFDEDF",
"5.	c #737373",
"6.	c #E3E4E3",
"7.	c #727272",
"8.	c #606060",
"9.	c #5C5C5C",
"0.	c #525252",
"a.	c #5B5B5B",
"b.	c #F4F4F4",
"c.	c #F2F1F2",
"d.	c #9D9D9D",
"e.	c #EBEBEC",
"f.	c #7B7B7B",
"g.	c #BBBCBB",
"h.	c #888888",
"i.	c #F6F6F6",
"j.	c #575757",
"k.	c #555555",
"l.	c #B0B0B0",
"m.	c #C9C9C9",
"n.	c #8D8D8D",
"o.	c #EBEBEB",
"p.	c #E5E6E5",
"q.	c #E5E5E4",
"r.	c #E6E5E5",
"s.	c #6F6F6F",
"t.	c #FDFDFD",
"u.	c #FEFEFE",
"v.	c #FCFCFC",
"w.	c #F5F5F5",
"x.	c #898989",
"y.	c #535353",
"z.	c #585858",
"A.	c #515151",
"B.	c #9C9C9C",
"C.	c #F1F0F0",
"D.	c #EEEDEE",
"E.	c #E4E4E5",
"F.	c #F0F0F0",
"G.	c #CBCBCB",
"H.	c #FFFFFF",
"I.	c #C6C6C6",
"J.	c #A1A1A1",
"K.	c #646464",
"L.	c #E6E6E5",
"M.	c #BDBDBC",
"N.	c #E9EAE9",
"O.	c #F2F2F2",
"P.	c #B4B4B5",
"Q.	c #696969",
"R.	c #F3F3F3",
"S.	c #EFEEEE",
"T.	c #F3F3F4",
"U.	c #A2A3A2",
"V.	c #767576",
"W.	c #858585",
"X.	c #7A7A7A",
"Y.	c #E7E7E8",
"Z.	c #BDBEBE",
"`.	c #F4F4F5",
" +	c #7F7F7F",
".+	c #BFBFBF",
"++	c #F1F2F2",
"@+	c #8A8A8A",
"#+	c #FAFAFA",
"$+	c #6B6B6B",
"%+	c #979797",
"&+	c #F7F7F7",
"*+	c #A7A7A7",
"=+	c #BEBDBE",
"-+	c #EBECEC",
";+	c #F3F2F2",
">+	c #A5A5A5",
",+	c #C5C5C5",
"'+	c #3B3B3B",
")+	c #3D3D3D",
"!+	c #ECEBEB",
"~+	c #BEBEBE",
"{+	c #7D7C7D",
"]+	c #D2D2D2",
"^+	c #FBFBFB",
"/+	c #636363",
"(+	c #EFEFF0",
"_+	c #EBEAEA",
":+	c #D7D7D7",
"<+	c #484848",
"[+	c #787878",
"}+	c #BEBFBE",
"|+	c #838383",
"1+	c #969696",
"2+	c #F9F9F9",
"3+	c #F0EFF0",
"4+	c #EDECEC",
"5+	c #ECECED",
"6+	c #EEEEED",
"7+	c #F0F1F0",
"8+	c #D3D3D3",
"9+	c #C1C1C1",
"0+	c #6C6C6C",
"a+	c #F8F8F8",
"b+	c #EEEFEF",
"c+	c #ECECEB",
"d+	c #5E5E5E",
"e+	c #EFF0F0",
"f+	c #656565",
"g+	c #676767",
"h+	c #6E6E6E",
"i+	c #ABACAB",
"j+	c #F8F7F8",
"k+	c #B6B5B5",
"l+	c #ADADAD",
"m+	c #C4C4C4",
"n+	c #D5D5D5",
"o+	c #D1D1D2",
"p+	c #D0D1D0",
"q+	c #CFCFCF",
". . . . . . . . . . . . . . . . . . . . . . . . . . . . . . ",
". + @ @ @ @ @ @ @ @ @ @ @ @ @ @ @ @ @ @ @ @ @ @ @ @ @ @ + . ",
". # $ $ % % % % % % % % % % % % % % % % % % % % % $ $ $ # . ",
". & * # = - ; > > , ' ' ' ) ) ! ' ' ' ' > > ; ; = = # * & . ",
". ~ = ; { > ' ' ] ] ^ / ] ( _ : < < [ [ [ } | 1 > { 2 = & . ",
". _ ; > 3 4 ] / 5 6 7 ' 8 9 0 a 8 8 8 b c d e f ' g h ; _ . ",
". _ ' i ] 5 j k l m n o p = # q r s p t u > v w ^ ! ' > _ . ",
". x ] 5 6 k n n y z A | B C D E F G | t H I [ J k 5 ] ] K . ",
". x 5 k n L y M N O P . Q R S T U V M M W H X Y 5 k Z 5 x . ",
". x l n y P N T ` $  .e ] ..+.@.` #.T > $.< y %.&.*.k k x . ",
". =.-.y P O @.;.>.,.'.F @.). .>.!.~.#.{.r O a ].> P y n =.. ",
". =.P ^.T /.!.(.*._.:.<.[.}.|.1.2.,.3.Y 4.=.5.# O 6.P z =.. ",
". '.M O #.!.(.5 S 7.8.9.0.a.s = b.c.< d.e.f.o $ #.O N P g.. ",
". '.O #.$ >.1.a h.i.b.C %.j.k.e & l.e 3.m.n.o.o.$ p.q.V '.. ",
". '.r.@.!.2.T s.+ t.u.v.3.w.x.y.z.k.A.H %.B.C.D.!.$ r.E.'.. ",
". _.#.$ >.F.G.H y u.u.H.H.u.t.2.(.I.x J.K.9 $ F.>.% @.L.M.. ",
". _.@.N.,.O.P.Q.i.u.u.H.H.H.H.u.u.u.u.u.d.].R.1.,.!.$ @._.. ",
". _.$ o.S.T.U.V.t.u.H.H.H.H.H.H.H.H.u.u.W.X.b.O.(.o.% Y._.. ",
". Z.% >.F.`.s  +u.u.H.H.H.H.v.H.H.H.u.u.0 0 b.O.(.>.% $ _.. ",
". .+o.,.++b.@+X u.u.H.H.#+d.$+%+1.H.u.&+%.*+i.O.2.>.!.% =+. ",
". .+-+(.;+b.>+,+u.u.H.H.o.8.'+)+u H.u.k 8.C i.O.2.>.!+!.~+. ",
". .+>.2.O.F.{+W.t.u.H.H.H.e $+]+^+u.u.=./+!.i.R.(+,.>._+~+. ",
". ~+e.(.O.i.[ H :+u.u.H.!.<+=.H.H.u.t.n.[+w.i.O.F.(.>.o.~+. ",
". }+>.(.1.`.n [+f.@.u.u.,.l.v.H.H.u.t.|+1+2+w.R.3+(.4+o.~+. ",
". .+5+6+7+T.&+8+5.].9+&+u.u.u.u.u.u.3.0+3.a+w.O.F.b+,.c+~+. ",
". .+,.(.F.O.i.a+3.X.d+5.9+F.w.>.:+o 5.R #+a+w.O.e+2.,.o.~+. ",
". .+5+(.(+O.T.i.2+2.q $.f+9 e 0+g+h+i+&+2+&+b.O.F.2.,.>.~+. ",
". .+5+(.(+1.R.w.j+#+#+O k+} l+m+3.Y.#+#+a+i.R.c.F.2.,.e.~+. ",
". =.( ( @ @ 8+n+= ' n P O T T T O P n 4 # n+8+o+@ p+( q+=.. ",
". . . . . . 0 S h.n.v 1+a r r r a 1+v n.h.S 0 . . . . . . . "};
