/* XPM */
static char * spGreasePencil_ghostPreOn_xpm[] = {
"30 30 264 2",
"  	c None",
". 	c #818181",
"+ 	c #C8C8C8",
"@ 	c #D1D1D1",
"# 	c #D8D8D8",
"$ 	c #E8E8E8",
"% 	c #E9E9E9",
"& 	c #B8B8B8",
"* 	c #D8D8D7",
"= 	c #D9D9D9",
"- 	c #D9DADA",
"; 	c #DADADA",
"> 	c #DBDBDB",
", 	c #DBDCDB",
"' 	c #DBDBDC",
") 	c #DBDCDC",
"! 	c #B9B8B8",
"~ 	c #DBDADA",
"{ 	c #DCDCDC",
"] 	c #DCDDDC",
"^ 	c #DDDDDC",
"/ 	c #DDDDDD",
"( 	c #DAD9D9",
"_ 	c #B9B9B9",
": 	c #DCDBDB",
"< 	c #DEDDDD",
"[ 	c #DDDEDE",
"} 	c #DEDEDE",
"| 	c #DADBDB",
"1 	c #DADAD9",
"2 	c #DCDBDC",
"3 	c #DDDDDE",
"4 	c #DEDFDE",
"5 	c #DFDFDE",
"6 	c #DFDFDF",
"7 	c #DBDBDA",
"8 	c #BABABA",
"9 	c #DEDEDF",
"0 	c #D9D9DA",
"a 	c #D6D6D7",
"b 	c #D6D6D6",
"c 	c #BABAB9",
"d 	c #DEDEDD",
"e 	c #DCDCDD",
"f 	c #D7D7D7",
"g 	c #D4D4D4",
"h 	c #D0D0D0",
"i 	c #CCCCCC",
"j 	c #CCCBCC",
"k 	c #CFCFCF",
"l 	c #D7D7D6",
"m 	c #DDDEDD",
"n 	c #D8D7D7",
"o 	c #BEBEBE",
"p 	c #A0A0A0",
"q 	c #888888",
"r 	c #8E8E8E",
"s 	c #A5A5A5",
"t 	c #BDBDBD",
"u 	c #CBCBCB",
"v 	c #D3D4D3",
"w 	c #DFDEDF",
"x 	c #BBBBBB",
"y 	c #D1D2D2",
"z 	c #CECECE",
"A 	c #CFCFD0",
"B 	c #C7C7C7",
"C 	c #999999",
"D 	c #585858",
"E 	c #3F3F3F",
"F 	c #474747",
"G 	c #515151",
"H 	c #555555",
"I 	c #6D6D6D",
"J 	c #909090",
"K 	c #D7D6D7",
"L 	c #B2B1B2",
"M 	c #B3B3B3",
"N 	c #3B3B3B",
"O 	c #2A2B2A",
"P 	c #434343",
"Q 	c #4A4A4A",
"R 	c #494949",
"S 	c #4E4E4E",
"T 	c #545454",
"U 	c #6F6F6F",
"V 	c #AFAFAF",
"W 	c #E0E0E1",
"X 	c #BCBCBC",
"Y 	c #9F9F9F",
"Z 	c #949494",
"` 	c #969696",
" .	c #989898",
"..	c #8B8B8B",
"+.	c #444444",
"@.	c #232323",
"#.	c #575757",
"$.	c #8C8C8C",
"%.	c #979797",
"&.	c #7A7A7A",
"*.	c #535354",
"=.	c #4B4B4B",
"-.	c #696969",
";.	c #C1C1C1",
">.	c #D5D5D5",
",.	c #DFDFE0",
"'.	c #E0E0E0",
").	c #BBBCBB",
"!.	c #D2D2D2",
"~.	c #939393",
"{.	c #959595",
"].	c #929292",
"^.	c #1F1F1F",
"/.	c #727272",
"(.	c #A4A4A4",
"_.	c #9C9C9C",
":.	c #646464",
"<.	c #E2E1E2",
"[.	c #CACACA",
"}.	c #8D8D8D",
"|.	c #AAAAAA",
"1.	c #AEAEAE",
"2.	c #B5B5B5",
"3.	c #676767",
"4.	c #141414",
"5.	c #252525",
"6.	c #5A5A5A",
"7.	c #7F7F7F",
"8.	c #8A8A8A",
"9.	c #848484",
"0.	c #9B9B9B",
"a.	c #9A9A9A",
"b.	c #424141",
"c.	c #747374",
"d.	c #DFDEDE",
"e.	c #E1E1E2",
"f.	c #A9A9A9",
"g.	c #B2B2B2",
"h.	c #B6B6B6",
"i.	c #A2A2A2",
"j.	c #5E5E5E",
"k.	c #1E1E1E",
"l.	c #292929",
"m.	c #6E6E6E",
"n.	c #7C7C7C",
"o.	c #B0B0B0",
"p.	c #ABABAB",
"q.	c #484848",
"r.	c #686868",
"s.	c #C3C3C3",
"t.	c #E3E3E2",
"u.	c #BDBDBC",
"v.	c #B8B9B8",
"w.	c #ADADAD",
"x.	c #2C2C2C",
"y.	c #2E2E2E",
"z.	c #878787",
"A.	c #AFAEAF",
"B.	c #454545",
"C.	c #797979",
"D.	c #C9C9C9",
"E.	c #E1E1E1",
"F.	c #E4E4E4",
"G.	c #A1A1A1",
"H.	c #A8A8A8",
"I.	c #282828",
"J.	c #414141",
"K.	c #656565",
"L.	c #5C5C5C",
"M.	c #666666",
"N.	c #7D7D7D",
"O.	c #525252",
"P.	c #4C4C4C",
"Q.	c #9E9E9E",
"R.	c #E3E3E3",
"S.	c #E5E5E6",
"T.	c #D3D3D3",
"U.	c #505050",
"V.	c #2D2D2D",
"W.	c #2F2F2F",
"X.	c #343434",
"Y.	c #424242",
"Z.	c #595959",
"`.	c #E2E2E2",
" +	c #E5E5E5",
".+	c #E6E6E6",
"++	c #A6A6A6",
"@+	c #A3A3A3",
"#+	c #7E7E7E",
"$+	c #707070",
"%+	c #777777",
"&+	c #838383",
"*+	c #9F9E9E",
"=+	c #BCBDBC",
"-+	c #E7E7E7",
";+	c #BEBDBE",
">+	c #DCDDDD",
",+	c #C0BFBF",
"'+	c #8F8F8F",
")+	c #CDCDCD",
"!+	c #D6D7D6",
"~+	c #EAE9E9",
"{+	c #BFBFBF",
"]+	c #CBCBCC",
"^+	c #E1E0E0",
"/+	c #EAEAEA",
"(+	c #EBEBEC",
"_+	c #EBEBEB",
":+	c #D4D3D4",
"<+	c #EBEAEA",
"[+	c #ECECEC",
"}+	c #ECECEB",
"|+	c #ECEDED",
"1+	c #EDEDED",
"2+	c #EEEEEE",
"3+	c #BEBFBE",
"4+	c #E4E4E5",
"5+	c #E1E0E1",
"6+	c #E5E5E4",
"7+	c #EFEFF0",
"8+	c #F2F2F3",
"9+	c #F4F4F4",
"0+	c #F3F3F3",
"a+	c #F3F3F2",
"b+	c #F2F2F2",
"c+	c #F0F0F0",
"d+	c #EFEEEF",
"e+	c #ECEBEB",
"f+	c #EAEAEB",
"g+	c #EBECEB",
"h+	c #EBEAEB",
"i+	c #ECEBEC",
"j+	c #F0EFF0",
"k+	c #F4F4F5",
"l+	c #F7F7F7",
"m+	c #F8F8F8",
"n+	c #F5F5F5",
"o+	c #EFEFEF",
"p+	c #EDEEEE",
"q+	c #EBEBEA",
"r+	c #EEEDED",
"s+	c #F1F1F2",
"t+	c #F6F6F6",
"u+	c #F8F7F7",
"v+	c #FAF9FA",
"w+	c #FBFBFB",
"x+	c #FCFCFC",
"y+	c #FAFAFA",
"z+	c #F1F1F1",
"A+	c #EEEFEF",
"B+	c #EEEEEF",
"C+	c #F3F4F3",
"D+	c #F7F6F7",
"E+	c #FDFDFD",
"F+	c #F8F9F8",
"G+	c #F5F4F5",
"H+	c #F9F9F9",
"I+	c #FBFAFA",
"J+	c #F9F9FA",
"K+	c #F2F1F2",
"L+	c #D5D4D5",
"M+	c #D4D3D3",
"N+	c #D1D1D2",
"O+	c #D0D1D0",
". . . . . . . . . . . . . . . . . . . . . . . . . . . . . . ",
". + @ @ @ @ @ @ @ @ @ @ @ @ @ @ @ @ @ @ @ @ @ @ @ @ @ @ + . ",
". # $ $ % % % % % % % % % % % % % % % % % % % % % $ $ $ # . ",
". & * # = - ; > > , > > > ' ' ) > > > > ; ; = = = = # * & . ",
". ! = ; ~ > { { { { ] ^ / / / / / / { { { > > ~ ; ( ( = & . ",
". _ = ; ~ : { ^ / < [ } } } / < / / / ] / / { ) > | 1 = _ . ",
". _ > 2 { / 3 } 4 5 6 6 6 } / { > 7 > { / / } / ] ) > ; _ . ",
". 8 { / < } } } } 9 5 6 3 { 0 # a b # = > { / / } / { { c . ",
". 8 / } } d / / e / { , ; f g h i j k g l = { / } } m / 8 . ",
". 8 4 } / { 0 # n f f b g k o p q r s t u v f ; e w } } 8 . ",
". x < { ; f g y k z k A B C D E F G H I J t h K > } 6 6 x . ",
". x / 1 b @ + x L M 8 t q N O P Q Q R S T U V @ # / 6 W x . ",
". X > b k x Y Z `  . ...+.@.#.. $.p %.&.*.=.-.;.>.> ,.'.).. ",
". X = !._ %.$.~.{.{.].U ^.^./.%.(.C J J _.:.P C @ ; 5 <.X . ",
". t f [.s }._.|.1.2.|.3.4.5.6.7.8.9.. 0.x a.b.c.+ = d.e.X . ",
". o >.;.` }.f.g.h.g.i.j.k.l.Q m./.n.o.|.M p.q.r.s.; '.t.u.. ",
". o !.v.J J s p.w.p.Y -.x.5.y.T m.z.r ` A.a.B.C.D.> E.F.t . ",
". o h M ].J G.H.(.H._ ~.B.l.I.J.K.L.M.m.N.O.P.Q.g } R.S.t . ",
". o T.&  .r ~.i.(.p.1.V n.U.N V.W.X.X.N Y.Z.{.k { `. +.+t . ",
". o # B ++Z ].0.G._.p @+s #+$+%+&.n.C.&+*+=+g { `..+-+$ ;+. ",
". o >+>.,+p.G.{.'+'+r ].` Y g.+ i )+z h !+{ '.F.-+$ ~+% o . ",
". o E./ b D.{+h.V 1.w.g.o ]+f ^ 6 ^+E.`.R..+$ /+(+_+_+~+o . ",
". o S.R.6 > f :+T.!.T.b > '.F.$ <+[+}+[+|+1+2+1+1+1+_+/+o . ",
". 3+% $ -+4+R.E.5+E.`.6+-+_+7+8+9+9+0+a+b+b+c+c+d+1+e+/+o . ",
". {+f+}+g+f+/+h+_+i+1+j+b+k+l+m+m+m+l+n+n+0+b+c+o+p+[+q+o . ",
". {+[+1+r+o+c+c+s+b+k+t+u+v+w+x+w+y+m+l+n+9+b+z+A+2+1+_+o . ",
". {+(+1+B+c+s+b+C+n+D+m+w+x+E+E+w+y+F+l+t+n+0+b+c+o+1+[+o . ",
". {+(+1+B+c+z+0+G+t+l+H+I+w+x+x+w+J+H+m+t+n+0+K+c+o+1+(+o . ",
". x h h @ @ !.!.T.T.g g L+>.>.>.L+g g M+T.!.!.N+@ O+h k x . ",
". . . . . . . . . . . . . . . . . . . . . . . . . . . . . . "};
