/* XPM */
static char * spGreasePencil_delButton_xpm[] = {
"30 30 226 2",
"  	c None",
". 	c #818181",
"+ 	c #C8C8C8",
"@ 	c #D1D1D1",
"# 	c #D8D8D8",
"$ 	c #E8E8E8",
"% 	c #E9E9E9",
"& 	c #B8B8B8",
"* 	c #D8D8D7",
"= 	c #D9D9D9",
"- 	c #D9DADA",
"; 	c #DADADA",
"> 	c #DBDBDB",
", 	c #DBDCDB",
"' 	c #DCDCDC",
") 	c #DCDCDD",
"! 	c #DCDDDD",
"~ 	c #B9B8B8",
"{ 	c #DBDADA",
"] 	c #DDDDDD",
"^ 	c #DDDEDD",
"/ 	c #DEDEDD",
"( 	c #DEDEDE",
"_ 	c #DCDBDB",
": 	c #DAD9D9",
"< 	c #B9B9B9",
"[ 	c #DDDCDC",
"} 	c #DFDEDE",
"| 	c #DEDFDF",
"1 	c #DFDFDF",
"2 	c #E0DFDF",
"3 	c #DEDFDE",
"4 	c #DBDCDC",
"5 	c #DBDBDA",
"6 	c #DDDCDD",
"7 	c #DEDEDF",
"8 	c #DFE0DF",
"9 	c #E0E0DF",
"0 	c #E0E0E0",
"a 	c #E1E1E1",
"b 	c #E1E1E0",
"c 	c #BABABA",
"d 	c #E0E0E1",
"e 	c #E1E1E2",
"f 	c #E2E1E1",
"g 	c #E0E1E0",
"h 	c #BABAB9",
"i 	c #E2E2E2",
"j 	c #E2E3E2",
"k 	c #E3E3E3",
"l 	c #E3E3E2",
"m 	c #E3E2E3",
"n 	c #E2E2E1",
"o 	c #E3E2E2",
"p 	c #E0DFE0",
"q 	c #BBBBBB",
"r 	c #E1E0E0",
"s 	c #E2E3E3",
"t 	c #DFDFE0",
"u 	c #DFE0E0",
"v 	c #E3E4E3",
"w 	c #E4E4E4",
"x 	c #E2E1E2",
"y 	c #D8D9D8",
"z 	c #DFDEDF",
"A 	c #BCBCBC",
"B 	c #E5E5E5",
"C 	c #E4E3E4",
"D 	c #D5D5D5",
"E 	c #D0D0D0",
"F 	c #CECECE",
"G 	c #CCCCCC",
"H 	c #CDCDCD",
"I 	c #CFCECF",
"J 	c #D2D2D2",
"K 	c #D6D6D6",
"L 	c #E2E2E3",
"M 	c #BBBCBB",
"N 	c #B6B6B6",
"O 	c #A5A5A5",
"P 	c #9C9C9C",
"Q 	c #969595",
"R 	c #929292",
"S 	c #919090",
"T 	c #949494",
"U 	c #9B9B9B",
"V 	c #A6A6A6",
"W 	c #D4D4D4",
"X 	c #E4E4E3",
"Y 	c #E6E5E5",
"Z 	c #E6E6E6",
"` 	c #9A9A9A",
" .	c #585858",
"..	c #414141",
"+.	c #363636",
"@.	c #383838",
"#.	c #393939",
"$.	c #3A3A3A",
"%.	c #464646",
"&.	c #727272",
"*.	c #A9A9A9",
"=.	c #D7D6D6",
"-.	c #E5E4E4",
";.	c #E3E3E4",
">.	c #BDBDBD",
",.	c #E7E7E7",
"'.	c #D7D7D7",
").	c #9F9F9F",
"!.	c #636363",
"~.	c #444444",
"{.	c #2E2E2E",
"].	c #252424",
"^.	c #1E1E1E",
"/.	c #1D1D1D",
"(.	c #202020",
"_.	c #262626",
":.	c #303030",
"<.	c #3E3E3E",
"[.	c #575757",
"}.	c #828282",
"|.	c #C5C5C5",
"1.	c #E5E5E4",
"2.	c #BDBDBC",
"3.	c #E7E8E7",
"4.	c #E8E8E9",
"5.	c #E7E7E8",
"6.	c #CACACA",
"7.	c #8C8C8C",
"8.	c #909090",
"9.	c #9D9D9D",
"0.	c #A8A8A8",
"a.	c #B3B3B3",
"b.	c #C7C7C7",
"c.	c #D3D3D3",
"d.	c #EAE9E9",
"e.	c #EAEAEB",
"f.	c #E9EAE9",
"g.	c #E9E8E9",
"h.	c #E6E6E5",
"i.	c #DCDCDB",
"j.	c #E6E6E7",
"k.	c #BDBEBE",
"l.	c #EAEAEA",
"m.	c #EBEBEC",
"n.	c #ECECEC",
"o.	c #EBEBEB",
"p.	c #E5E4E5",
"q.	c #BEBEBE",
"r.	c #EBECEC",
"s.	c #EEEEEE",
"t.	c #EFEFEF",
"u.	c #EEEEEF",
"v.	c #EDEDED",
"w.	c #EDECED",
"x.	c #EBEBEA",
"y.	c #EBECEB",
"z.	c #EDEDEE",
"A.	c #EEEDED",
"B.	c #BEBDBE",
"C.	c #EAEBEB",
"D.	c #EDECEC",
"E.	c #F0F0F0",
"F.	c #F1F1F1",
"G.	c #F2F2F2",
"H.	c #F3F3F3",
"I.	c #F3F3F2",
"J.	c #F2F1F1",
"K.	c #F0F1F0",
"L.	c #F0F0EF",
"M.	c #EBEAEA",
"N.	c #F0EFF0",
"O.	c #F4F4F5",
"P.	c #F5F5F5",
"Q.	c #F6F6F6",
"R.	c #F5F5F6",
"S.	c #F5F6F6",
"T.	c #F6F6F5",
"U.	c #F5F4F4",
"V.	c #F5F5F4",
"W.	c #F4F4F4",
"X.	c #F1F2F1",
"Y.	c #F3F2F3",
"Z.	c #F6F6F7",
"`.	c #F7F7F7",
" +	c #F8F8F8",
".+	c #F8F7F7",
"++	c #F3F4F4",
"@+	c #BEBFBE",
"#+	c #F0F0F1",
"$+	c #F5F4F5",
"%+	c #F9F9F8",
"&+	c #F9F9F9",
"*+	c #FAFAFA",
"=+	c #FAFAFB",
"-+	c #F7F7F6",
";+	c #BFBFBF",
">+	c #ECECED",
",+	c #EEEEED",
"'+	c #EFF0EF",
")+	c #F4F3F4",
"!+	c #F7F6F7",
"~+	c #FAF9FA",
"{+	c #FBFBFB",
"]+	c #FBFBFC",
"^+	c #FCFCFC",
"/+	c #EEEFEF",
"(+	c #ECECEB",
"_+	c #F0EFEF",
":+	c #F8F8F9",
"<+	c #FCFBFB",
"[+	c #FDFCFD",
"}+	c #FDFDFD",
"|+	c #EFF0F0",
"1+	c #EFEFF0",
"2+	c #F2F2F3",
"3+	c #F5F6F5",
"4+	c #F9F8F9",
"5+	c #FEFEFE",
"6+	c #F9FAF9",
"7+	c #F6F5F6",
"8+	c #F2F1F2",
"9+	c #D5D4D5",
"0+	c #D4D3D3",
"a+	c #D1D1D2",
"b+	c #D0D1D0",
"c+	c #CFCFCF",
". . . . . . . . . . . . . . . . . . . . . . . . . . . . . . ",
". + @ @ @ @ @ @ @ @ @ @ @ @ @ @ @ @ @ @ @ @ @ @ @ @ @ @ + . ",
". # $ $ % % % % % % % % % % % % % % % % % % % % % $ $ $ # . ",
". & * # = - ; > > , ' ' ' ) ) ! ' ' ' ' > > ; ; = = # * & . ",
". ~ = ; { > ' ' ] ] ^ / ( ( ( ( ( ( ] ] ] ' ' _ > { : = & . ",
". < ; > _ [ ] / ( } | 1 1 1 1 2 1 1 1 3 ( ( ] ! ' 4 5 ; < . ",
". < ' 6 ] ( 7 1 8 9 0 0 a a a a a b 0 0 0 1 1 ( ^ ! ' > < . ",
". c ] ( } ( 1 1 0 d b a e a e f e a a g 0 8 1 ( 1 ( ] ] h . ",
". c ( 1 1 9 0 a e i i j k k k k l m i i n a a 0 1 ( ^ ( c . ",
". c 8 1 0 a e i o i k i i l l i o i k k i j i a d p ( ( c . ",
". q r 0 a i k s i a 0 t 1 1 1 1 1 u 0 a a i i m i a 0 1 q . ",
". q i n k v w k x ( ' ; : = y = = ; > ] z 0 i k k j a d q . ",
". A k k w B C i ( - D E F G G G H I J K = , 1 a k k L a M . ",
". A w w B B w a , F N O P Q R S T U V < G W > 1 L v X m A . ",
". A Y B Z Z w 0 W `  ...+.@.#.+.@.#.$.%.&.*.=.z k B -.;.A . ",
". >.Z Z ,.,.B a '.).!.~.{.].^./.(._.:.<.[.}.|.1 k Z Z 1.2.. ",
". >.,.3.$ 4.5.1.1 D 6.q O ` R 7.8.9.0.a.b.c.> a B ,.,.Z >.. ",
". >.$ $ d.e.f.g.h.i 1 6 ; =.W c.W '.= i.] 1 i B ,.$ $ j.>.. ",
". k.% % l.m.n.n.o.l.$ ,.p.k a 0 a j w B Z ,.$ % l.l.$ ,.>.. ",
". q.l.l.r.n.s.t.t.t.t.u.v.w.n.x.y.n.n.z.A.v.n.n.n.o.% $ B.. ",
". q.C.o.D.v.t.E.F.G.G.H.I.H.G.G.J.G.G.G.K.L.t.s.v.o.M.% q.. ",
". q.o.v.v.s.N.F.G.H.O.P.Q.R.S.T.P.U.V.W.G.X.E.t.z.n.o.d.q.. ",
". q.m.v.s.E.F.Y.H.W.P.Z.`. + + +.+`.T.P.++G.F.E.t.s.n.o.q.. ",
". @+n.v.t.#+G.H.$+Q.`.%+&+*+=+=+*+&+ +-+P.W.G.F.N.s.D.o.q.. ",
". ;+>+,+'+#+G.)+P.!+ +~+{+]+^+^+{+*+&+`.Q.W.H.F.E./+v.(+q.. ",
". ;+v.s._+F.H.W.R.`.:+*+<+[+}+}+^+{+&+ +Q.P.H.G.|+t.v.o.q.. ",
". ;+>+s.1+F.2+W.3+`.4+*+^+}+5+5+^+{+6+ +Q.P.H.G.E.t.v.n.q.. ",
". ;+>+s.1+F.G.W.7+`. +*+<+^+}+}+^+=+&+ +Q.P.H.8+E.t.v.m.q.. ",
". q E E @ @ J J c.c.W W 9+D D D 9+W W 0+c.J J a+@ b+E c+q . ",
". . . . . . . . . . . . . . . . . . . . . . . . . . . . . . "};
