/* XPM */
static char * spGreasePencil_selButton_xpm[] = {
"30 30 235 2",
"  	c None",
". 	c #818181",
"+ 	c #C8C8C8",
"@ 	c #D1D1D1",
"# 	c #D0D0D0",
"$ 	c #D8D8D8",
"% 	c #E8E8E8",
"& 	c #E7E7E7",
"* 	c #E9E9E9",
"= 	c #B8B8B8",
"- 	c #D8D8D7",
"; 	c #D7D7D7",
"> 	c #D8D9D9",
", 	c #D9D9D9",
"' 	c #D9D9DA",
") 	c #DADADB",
"! 	c #DADBDB",
"~ 	c #DBDBDB",
"{ 	c #DADADA",
"] 	c #B9B8B8",
"^ 	c #DAD9D9",
"/ 	c #D6D6D6",
"( 	c #D5D6D5",
"_ 	c #D6D6D5",
": 	c #DCDCDC",
"< 	c #DBDADA",
"[ 	c #D9D8D8",
"} 	c #B9B9B9",
"| 	c #DCDBDB",
"1 	c #D4D4D4",
"2 	c #D2D1D1",
"3 	c #D2D2D2",
"4 	c #D5D5D5",
"5 	c #D8D7D7",
"6 	c #DCDDDC",
"7 	c #DDDDDD",
"8 	c #DBDCDC",
"9 	c #DADAD9",
"0 	c #DCDBDC",
"a 	c #CECECE",
"b 	c #BBBBBA",
"c 	c #BABABA",
"d 	c #C0C0C0",
"e 	c #C5C5C5",
"f 	c #CACACA",
"g 	c #CFCFCF",
"h 	c #DEDDDD",
"i 	c #B7B7B7",
"j 	c #8E8E8E",
"k 	c #7B7B7A",
"l 	c #767676",
"m 	c #989898",
"n 	c #B4B4B4",
"o 	c #CDCDCD",
"p 	c #DBDCDB",
"q 	c #DEDEDE",
"r 	c #BABAB9",
"s 	c #DDDDDC",
"t 	c #D3D3D3",
"u 	c #A8A8A9",
"v 	c #AFAFAF",
"w 	c #B5B5B5",
"x 	c #A5A5A5",
"y 	c #888888",
"z 	c #717171",
"A 	c #696969",
"B 	c #828282",
"C 	c #A7A7A7",
"D 	c #C1C1C1",
"E 	c #DDDEDD",
"F 	c #DEDFDE",
"G 	c #DFDFDF",
"H 	c #D7D7D8",
"I 	c #9D9C9C",
"J 	c #BFBFBF",
"K 	c #C3C3C3",
"L 	c #A2A2A2",
"M 	c #6A6A6A",
"N 	c #797979",
"O 	c #A4A4A4",
"P 	c #C4C4C4",
"Q 	c #DEDEDF",
"R 	c #BBBBBB",
"S 	c #E0DFDF",
"T 	c #C9C9C9",
"U 	c #969696",
"V 	c #C2C2C2",
"W 	c #AAAAAA",
"X 	c #858585",
"Y 	c #6C6C6C",
"Z 	c #7F7F7F",
"` 	c #949494",
" .	c #E0E0E0",
"..	c #E1E1E1",
"+.	c #E1E1E0",
"@.	c #D9DAD9",
"#.	c #939293",
"$.	c #676767",
"%.	c #545454",
"&.	c #E1E2E1",
"*.	c #E0E0E1",
"=.	c #BCBCBC",
"-.	c #E2E2E2",
";.	c #ACACAC",
">.	c #BEBEBE",
",.	c #B6B6B6",
"'.	c #A9A9A9",
").	c #939393",
"!.	c #727272",
"~.	c #909090",
"{.	c #CBCCCB",
"].	c #E2E2E3",
"^.	c #BBBCBB",
"/.	c #E3E3E3",
"(.	c #A3A3A3",
"_.	c #9A9A9A",
":.	c #7E7E7E",
"<.	c #656565",
"[.	c #3D3D3D",
"}.	c #E3E3E4",
"|.	c #E4E5E4",
"1.	c #E4E4E3",
"2.	c #E3E2E3",
"3.	c #E5E4E4",
"4.	c #9C9C9C",
"5.	c #8A8A8A",
"6.	c #686868",
"7.	c #4E4E4E",
"8.	c #BDBDBD",
"9.	c #595959",
"0.	c #878787",
"a.	c #E4E3E4",
"b.	c #E6E6E6",
"c.	c #E5E5E5",
"d.	c #E4E4E4",
"e.	c #959595",
"f.	c #757575",
"g.	c #6F6F6F",
"h.	c #9B9B9B",
"i.	c #B0B0B0",
"j.	c #7C7C7C",
"k.	c #868686",
"l.	c #6D6D6D",
"m.	c #B2B2B2",
"n.	c #E5E5E4",
"o.	c #BDBDBC",
"p.	c #E5E6E5",
"q.	c #A8A8A8",
"r.	c #C7C7C7",
"s.	c #848484",
"t.	c #E3E2E2",
"u.	c #DBDBDC",
"v.	c #CECFCE",
"w.	c #868586",
"x.	c #A6A6A6",
"y.	c #C6C6C6",
"z.	c #E5E5E6",
"A.	c #BDBEBE",
"B.	c #DDDDDE",
"C.	c #929292",
"D.	c #979797",
"E.	c #838383",
"F.	c #8D8D8D",
"G.	c #A1A1A1",
"H.	c #707070",
"I.	c #8F8F8F",
"J.	c #E6E7E7",
"K.	c #9D9D9D",
"L.	c #A2A1A1",
"M.	c #7B7B7B",
"N.	c #BEBDBE",
"O.	c #E9EAEA",
"P.	c #EAEAEA",
"Q.	c #E9E8E8",
"R.	c #B1B1B1",
"S.	c #8C8C8C",
"T.	c #E1E0E0",
"U.	c #ECECEC",
"V.	c #EBEBEB",
"W.	c #E8E7E8",
"X.	c #E8E8E9",
"Y.	c #777777",
"Z.	c #A0A0A0",
"`.	c #AFAFB0",
" +	c #E6E5E5",
".+	c #EAEAEB",
"++	c #EDEDED",
"@+	c #EDECED",
"#+	c #EEEEEE",
"$+	c #EFEFEF",
"%+	c #E9E9EA",
"&+	c #898989",
"*+	c #ADADAD",
"=+	c #BEBFBE",
"-+	c #EFEFF0",
";+	c #F0F0F0",
">+	c #F1F1F1",
",+	c #F2F1F2",
"'+	c #F3F3F3",
")+	c #F2F2F2",
"!+	c #EEEEED",
"~+	c #7D7D7D",
"{+	c #E7E6E6",
"]+	c #EBEBEC",
"^+	c #EDEDEC",
"/+	c #EEEFEE",
"(+	c #F3F2F3",
"_+	c #F4F4F4",
":+	c #F5F4F5",
"<+	c #F1F0F1",
"[+	c #919191",
"}+	c #EAEAE9",
"|+	c #EFEEEE",
"1+	c #F4F4F5",
"2+	c #F6F6F6",
"3+	c #F5F5F6",
"4+	c #EDECEC",
"5+	c #737373",
"6+	c #E7E8E8",
"7+	c #ECECED",
"8+	c #F2F2F3",
"9+	c #F4F5F4",
"0+	c #F7F6F7",
"a+	c #F5F5F5",
"b+	c #B3B3B3",
"c+	c #CCCCCC",
"d+	c #F7F7F7",
"e+	c #F5F4F4",
"f+	c #CBCBCB",
"g+	c #EEEDEE",
"h+	c #D3D2D3",
"i+	c #CDCCCC",
"j+	c #D0D0D1",
"k+	c #CFD0CF",
"l+	c #8B8B8B",
". . . . . . . . . . . . . . . . . . . . . . . . . . . . . . ",
". + @ # # # # # # # # # # # # # # # # # @ @ @ @ @ @ @ @ + . ",
". $ % & % % % % & & & & & % % % % % % % % % * * * % % % $ . ",
". = - ; $ > , , $ $ $ $ , ' ) ! ~ ~ ~ ~ { { , , , , $ - = . ",
". ] , , ^ { { , ; / ( _ ; $ , { ~ : : : : ~ ~ < { ^ [ , = . ",
". } , { < | { - 1 2 # @ 3 1 4 5 , ~ : 6 : 7 : 8 ~ ! 9 , } . ",
". } ~ 0 : : ' / a b c d e f g 3 4 - { ~ 7 7 7 7 6 8 ~ { } . ",
". c : 7 h : { 1 i j k l . m n e o 3 / $ { p : 7 q 7 : : r . ",
". c 7 q q s , t u v w x y z A B C D o 3 4 $ ~ 7 q q E 7 c . ",
". c F G q : H @ I J K J c w L . M N O P o t $ : Q G q q c . ",
". R S G q ~ 4 T U P V D D D J } W X Y Z ` e 4 ~ G  . .G R . ",
". R ..+.G @.3 c #.J D D D D D D D R L $.%.W 4 :  .&...*.R . ",
". =.-...q , # ;.` >.J } ,.D D D n '.).!.~.{., q ..-.]...^.. ",
". =./.-.G $ a (._.= L :.z ,.D = <.[.A L f / 7 ..}.|.1.2.=.. ",
". =.3./.G , a 4.U 5.6.<.7.x D 8.).9.0.e 3 {  .a.b.b.3.}.=.. ",
". 8.c.d. ., a e.f.g.h.i.j.k.=.D c j l.m.3 { ..d.b.b.b.n.o.. ",
". 8.b.p...) o X <.q.e r.C g.= D D n N s.K ; 7 -.c.b.b.b.8.. ",
". 8.& b.t.u.v.w.N P a o =.z x.J D d q.z ~.y.; : ..d.b.z.8.. ",
". A.% & d.B.3 C.D.o 1 t y.E.F.R D D d G.H.I.>.t ~  ./.c.8.. ",
". >.* % J...{ V y.; ~ , g K.j.= D D D d L.f.M.C o 7 -.c.N.. ",
". >.O.P.Q.c...7 7  .-.G / i z m.D D D D D R.S.Y K.1 T.c.>.. ",
". >.P.U.V.* W.b.& % X.d.: y.Y.(.J D D D D V Z.N `.$ .. +>.. ",
". >..+U.U.++++@+#+$+#+%+ .a &+I.8.D D D V *+E.Z.# q /.& >.. ",
". =+V.U.#+-+;+>+,+'+)+!+d.4 L ~+*+D D V i.y ).T : -.{+% >.. ",
". J ]+^+/+-+>+(+_+:+_+<+* : R f.F.= V *+0.[+y.: /.& * }+>.. ",
". J U.++|+;+)+'+1+2+3+'+4+2.a k.5+C (.B e.y.7 d.6+V.V.P.>.. ",
". J 7+#+-+>+8+_+9+2+0+a+>+* 7 b+X S.E.Z.c+q c.P.U.++U.V.>.. ",
". J 7+#+-+>+)+_+:+2+d+d+e+$+& 7 f+} V 4  .b.V.g+#+#+U..+>.. ",
". R # # @ @ 3 3 3 3 t t h+3 # a c+T f i+a g # j+# k+g a R . ",
". . . . . . . . . . . . B s.y l+I.[+~.F.&+X E.B . . . . . . "};
