/* XPM */
static char * spGreasePencil_up_xpm[] = {
"30 30 260 2",
"  	c None",
". 	c #818181",
"+ 	c #C8C8C8",
"@ 	c #D1D1D1",
"# 	c #D0D0D0",
"$ 	c #D8D8D8",
"% 	c #E8E8E8",
"& 	c #E9E9E9",
"* 	c #E7E7E7",
"= 	c #B8B8B8",
"- 	c #D8D8D7",
"; 	c #D9D9D9",
"> 	c #D8D9D9",
", 	c #DADADA",
"' 	c #DADBDA",
") 	c #DBDBDB",
"! 	c #D9D9DA",
"~ 	c #D9DADA",
"{ 	c #B9B8B8",
"] 	c #DAD9D9",
"^ 	c #DCDCDC",
"/ 	c #DBDCDB",
"( 	c #DADAD9",
"_ 	c #D7D7D7",
": 	c #DBDADA",
"< 	c #B9B9B9",
"[ 	c #DCDBDB",
"} 	c #DDDDDC",
"| 	c #D5D5D5",
"1 	c #D3D3D3",
"2 	c #D2D2D2",
"3 	c #D4D3D3",
"4 	c #DDDDDD",
"5 	c #DBDCDC",
"6 	c #DBDBDA",
"7 	c #DCDBDC",
"8 	c #DDDDDE",
"9 	c #DCDDDC",
"0 	c #CFCFCF",
"a 	c #B6B6B6",
"b 	c #ACACAC",
"c 	c #D4D4D4",
"d 	c #DEDEDE",
"e 	c #BABABA",
"f 	c #DEDDDD",
"g 	c #D4D4D3",
"h 	c #CDCDCD",
"i 	c #919191",
"j 	c #636363",
"k 	c #585858",
"l 	c #727171",
"m 	c #A3A3A3",
"n 	c #D8D9D8",
"o 	c #DFDFDF",
"p 	c #BABAB9",
"q 	c #D7D7D8",
"r 	c #8E8E8E",
"s 	c #373737",
"t 	c #2A2A2A",
"u 	c #343434",
"v 	c #636362",
"w 	c #AEADAE",
"x 	c #CECECE",
"y 	c #E0E0E0",
"z 	c #DDDEDD",
"A 	c #DEDFDE",
"B 	c #DADADB",
"C 	c #D3D2D2",
"D 	c #CCCCCC",
"E 	c #2E2E2E",
"F 	c #202020",
"G 	c #101010",
"H 	c #3B3B3B",
"I 	c #484848",
"J 	c #4E4E4E",
"K 	c #B5B5B5",
"L 	c #E0E0E1",
"M 	c #E0DFE0",
"N 	c #BBBBBB",
"O 	c #E0DFDF",
"P 	c #D6D6D6",
"Q 	c #D0D1D1",
"R 	c #C4C4C4",
"S 	c #828282",
"T 	c #292929",
"U 	c #161616",
"V 	c #060606",
"W 	c #1A1A1A",
"X 	c #2C2C2C",
"Y 	c #333333",
"Z 	c #3D3D3D",
"` 	c #686868",
" .	c #BDBDBD",
"..	c #E1E0E1",
"+.	c #E1E1E1",
"@.	c #DFDFDE",
"#.	c #D6D7D6",
"$.	c #B2B2B2",
"%.	c #737373",
"&.	c #2B2B2B",
"*.	c #131313",
"=.	c #1D1D1D",
"-.	c #434343",
";.	c #0B0B0B",
">.	c #303030",
",.	c #242424",
"'.	c #181818",
").	c #3E3E3E",
"!.	c #767676",
"~.	c #C3C2C3",
"{.	c #E1E2E1",
"].	c #BCBCBC",
"^.	c #A8A7A8",
"/.	c #6A6A6A",
"(.	c #121212",
"_.	c #171717",
":.	c #6E6E6E",
"<.	c #111111",
"[.	c #5C5C5C",
"}.	c #1F1F1F",
"|.	c #222222",
"1.	c #2D2D2D",
"2.	c #424242",
"3.	c #C2C2C2",
"4.	c #E1E1E2",
"5.	c #BBBCBB",
"6.	c #C6C6C6",
"7.	c #757575",
"8.	c #191919",
"9.	c #707070",
"0.	c #141414",
"a.	c #717171",
"b.	c #7B7B7B",
"c.	c #2F2F2F",
"d.	c #353535",
"e.	c #404040",
"f.	c #7A7A7A",
"g.	c #DCDCDD",
"h.	c #E2E2E1",
"i.	c #E3E2E3",
"j.	c #525252",
"k.	c #232323",
"l.	c #C0C0C0",
"m.	c #BFC0BF",
"n.	c #6F6F6F",
"o.	c #1B1B1B",
"p.	c #454545",
"q.	c #313131",
"r.	c #CECDCE",
"s.	c #E2E1E1",
"t.	c #E2E2E3",
"u.	c #838383",
"v.	c #C7C7C7",
"w.	c #323232",
"x.	c #696969",
"y.	c #C5C5C5",
"z.	c #CBCBCB",
"A.	c #262626",
"B.	c #BFBFBF",
"C.	c #656565",
"D.	c #474747",
"E.	c #A8A8A8",
"F.	c #E4E4E3",
"G.	c #BDBDBC",
"H.	c #D5D6D5",
"I.	c #6B6B6B",
"J.	c #555555",
"K.	c #797978",
"L.	c #C9C9C9",
"M.	c #747474",
"N.	c #616161",
"O.	c #C1C1C1",
"P.	c #666666",
"Q.	c #4A4A4A",
"R.	c #535353",
"S.	c #E4E4E4",
"T.	c #D0CFCF",
"U.	c #C2C2C3",
"V.	c #808080",
"W.	c #3C3C3C",
"X.	c #6D6D6D",
"Y.	c #4B4B4B",
"Z.	c #515151",
"`.	c #797979",
" +	c #E2E2E2",
".+	c #E4E4E5",
"++	c #BDBEBE",
"@+	c #DBDBDC",
"#+	c #8B8B8B",
"$+	c #606060",
"%+	c #B3B3B3",
"&+	c #BEBEBE",
"*+	c #E3E3E3",
"=+	c #E6E6E6",
"-+	c #E3E4E4",
";+	c #979797",
">+	c #5E5E5E",
",+	c #CACACA",
"'+	c #DEDEDF",
")+	c #D9D8D8",
"!+	c #BEBDBE",
"~+	c #E8E9E9",
"{+	c #EAE9E9",
"]+	c #ECECEC",
"^+	c #EDEDED",
"/+	c #A6A6A5",
"(+	c #5D5D5D",
"_+	c #DFDEDE",
":+	c #E3E4E3",
"<+	c #E5E5E5",
"[+	c #E9E8E8",
"}+	c #EAEAEA",
"|+	c #EBEBEB",
"1+	c #EFEEEF",
"2+	c #F0F0F0",
"3+	c #EFEFEF",
"4+	c #565656",
"5+	c #5A5B5B",
"6+	c #EEEEED",
"7+	c #EEEEEE",
"8+	c #E9E9EA",
"9+	c #EAEAEB",
"0+	c #F2F1F2",
"a+	c #F1F1F1",
"b+	c #E1E0E0",
"c+	c #F0F0EF",
"d+	c #F2F2F2",
"e+	c #BEBFBE",
"f+	c #EFEFF0",
"g+	c #F3F2F3",
"h+	c #E3E3E2",
"i+	c #656566",
"j+	c #F4F4F3",
"k+	c #F3F3F3",
"l+	c #ECEBEB",
"m+	c #ECECED",
"n+	c #EFF0EF",
"o+	c #F0F0F1",
"p+	c #A0A0A1",
"q+	c #848484",
"r+	c #B4B4B4",
"s+	c #F4F4F4",
"t+	c #F5F5F5",
"u+	c #EDEEEE",
"v+	c #EBEBEA",
"w+	c #F0EFEF",
"x+	c #F4F4F5",
"y+	c #F2F2F3",
"z+	c #D9D8D9",
"A+	c #EFF0F0",
"B+	c #F1F1F2",
"C+	c #F4F5F4",
"D+	c #F5F4F5",
"E+	c #F6F6F6",
"F+	c #F4F3F3",
"G+	c #F3F3F4",
"H+	c #EBEBEC",
"I+	c #D3D2D3",
"J+	c #D1D1D2",
"K+	c #D0D1D0",
". . . . . . . . . . . . . . . . . . . . . . . . . . . . . . ",
". + @ @ @ @ @ # # # # # # # # # # # # # # # @ @ @ @ @ @ + . ",
". $ % % & & % % % % % % % * * * % % % % % % % & & % % % $ . ",
". = - $ ; > ; , , ' ) , , ! ! ~ , , ) ) , , ; ; ; ; $ - = . ",
". { ; , ] , ) ) ^ ^ / ( ; $ _ $ ; , ) ^ ^ ) ) : , : ] ; = . ",
". < ; , : [ ^ } ^ [ ~ $ | 1 2 3 | $ , / ^ 4 ^ 5 ) 5 6 , < . ",
". < ) 7 ^ 4 8 4 9 6 _ 1 0 a b a 0 c _ ) 4 d d 4 9 5 ^ ) < . ",
". e ^ 4 f d d 4 ) $ g h i j k l m h c n ^ d o d d 4 ^ 4 p . ",
". e 4 d o d 4 ) q c h r s t u k v w x | 6 d y y o d z 4 e . ",
". e A o d 4 B _ C D i E F G H I J k K @ _ 9 o y L M d d e . ",
". N O o 4 , P Q R S T U E V W X Y Z `  .1 ; d ..+.+.y o N . ",
". N y @.^ #.x $.%.&.*.=.-.;.>.,.'.X ).!.~.| ) o +.{.+.L N . ",
". ].y d ; @ ^./.>.(._.:.` <.[.H }.|.1.2.!.3.P ) o +.4.+.5.. ",
". ].y 4 _ 6.7.Y _.8.:.< 9.0.a.b.c.,.d.c.e.f.R _ g.y h.i.].. ",
"S ].O ) c  .j.|.k./.l.m.n.o./.a n.t >.p.q.e.. r.; d s.t.].. ",
"u. .d ; v.%.u w.x.y.z.R n.A.j B.N C.X u D.s p.E.c ^ +.F.G.. ",
"u. .d H.b I.J.K.L.1 @ + M.q.N.O.D ].P.q.d.Q.R.u.h ) +.S. .. ",
"u. .o , T.U.E.h ( , P h V.W.N.y.2 c N X.Y.Z.`.V.z.^  +.+ .. ",
"u.++ +o ^ @+4 y  ++.) # #+-.$++ $ ) , + %+%+&+a P o *+=+ .. ",
"S &+=+S.-+*+=+% % =+d 2 ;+I >+,+^  + +'+)+P P _ d *+=+* !+. ",
". &+~+% {+& ]+^+^+& +.| /+J (+,+_+=+& % :+h.y  +<+* [+& &+. ",
". &+}+|+]+^+1+2+3+]+.+; %+4+5+v.y {+6+7+|+}+& & 8+}+}+{+&+. ",
". &+9+]+^+3+2+0+a+7+% d N [.(+3.b+|+c+d+a+3+3+^+^+^+|+}+&+. ",
". e+|+]+7+f+a+d+g+a+|+h++ I.i+a y }+a+j+k+k+a+2+1+^+l+}+&+. ",
". B.m+6+n+o+a+g+k+g+3+% , p+q+r+o |+d+s+t+k+d+2+3+u+]+v+&+. ",
". B.^+7+w+a+d+k+x+s+y+^+=+z+L.| S.^+d+t+t+s+k+d+A+3+^+|+&+. ",
". B.m+7+f+a+B+k+C+t+D+d+7+% <+=+}+2+C+E+t+s+k+d+2+3+^+]+&+. ",
". B.m+7+f+a+d+k+D+E+E+E+F+2+3+3+a+G+E+E+t+s+k+0+2+3+^+H+&+. ",
". N # # @ @ 2 @ 2 2 1 1 I+1 2 2 I+1 1 C 2 @ 2 J+@ K+# 0 N . ",
". . . . . . . . . . . . S u.u.u.u.S . . . . . . . . . . . . "};
