/* XPM */
static char * spGreasePencil_ghostPostOff_xpm[] = {
"30 30 245 2",
"  	c None",
". 	c #818181",
"+ 	c #828282",
"@ 	c #848484",
"# 	c #858585",
"$ 	c #868686",
"% 	c #838383",
"& 	c #C7C7C7",
"* 	c #D0D0D0",
"= 	c #D1D1D1",
"- 	c #CFCFCF",
"; 	c #CECECE",
"> 	c #D6D6D6",
", 	c #E3E3E3",
"' 	c #E5E5E5",
") 	c #E6E6E6",
"! 	c #E7E7E7",
"~ 	c #E8E8E8",
"{ 	c #E9E9E9",
"] 	c #DFDFDF",
"^ 	c #DCDCDC",
"/ 	c #DBDBDB",
"( 	c #DEDEDE",
"_ 	c #D4D4D4",
": 	c #878787",
"< 	c #B9B9B9",
"[ 	c #D2D2D1",
"} 	c #D2D2D2",
"| 	c #D5D6D6",
"1 	c #D8D8D8",
"2 	c #DADADA",
"3 	c #DADBDA",
"4 	c #DCDCDD",
"5 	c #DBDCDC",
"6 	c #D3D3D3",
"7 	c #CCCCCC",
"8 	c #C1C1C1",
"9 	c #C8C8C7",
"0 	c #8C8C8C",
"a 	c #BBBABA",
"b 	c #C6C6C6",
"c 	c #CDCDCD",
"d 	c #D2D1D1",
"e 	c #D7D7D7",
"f 	c #D9D9D9",
"g 	c #DCDDDC",
"h 	c #DDDDDC",
"i 	c #DDDDDD",
"j 	c #D1D0D0",
"k 	c #C9C9C9",
"l 	c #AEAEAE",
"m 	c #A8A7A7",
"n 	c #C4C4C4",
"o 	c #BABABA",
"p 	c #8F8F8F",
"q 	c #BBBBBB",
"r 	c #D5D5D5",
"s 	c #D9D9D8",
"t 	c #DDDCDC",
"u 	c #DDDEDE",
"v 	c #DFDEDE",
"w 	c #DBDCDB",
"x 	c #C8C8C8",
"y 	c #AAAAAA",
"z 	c #A4A4A4",
"A 	c #C6C6C5",
"B 	c #9B9A9B",
"C 	c #BEBEBE",
"D 	c #D9DAD9",
"E 	c #E0E0E0",
"F 	c #DFDFDE",
"G 	c #A6A6A6",
"H 	c #A0A0A0",
"I 	c #C4C5C5",
"J 	c #8D8D8D",
"K 	c #BCBCBC",
"L 	c #CBCBCB",
"M 	c #939393",
"N 	c #B2B2B2",
"O 	c #DADADB",
"P 	c #DFDFE0",
"Q 	c #E0E0E1",
"R 	c #E1E0E0",
"S 	c #CACACA",
"T 	c #9F9F9F",
"U 	c #BABAB9",
"V 	c #898989",
"W 	c #8B8B8B",
"X 	c #DCDBDC",
"Y 	c #CBCBCA",
"Z 	c #A7A7A7",
"` 	c #9D9D9D",
" .	c #C5C5C5",
"..	c #B1B1B1",
"+.	c #979797",
"@.	c #DBDBDA",
"#.	c #DCDCDB",
"$.	c #969696",
"%.	c #C2C2C2",
"&.	c #D7D7D8",
"*.	c #DBDADB",
"=.	c #B7B7B7",
"-.	c #9B9B9B",
";.	c #8A8A8A",
">.	c #D1D2D1",
",.	c #666666",
"'.	c #7B7B7B",
").	c #A5A5A5",
"!.	c #BDBCBC",
"~.	c #CBCCCB",
"{.	c #CAC9C9",
"].	c #797979",
"^.	c #AFAFAF",
"/.	c #DFE0DF",
"(.	c #B3B3B3",
"_.	c #919191",
":.	c #737373",
"<.	c #525252",
"[.	c #606060",
"}.	c #A1A1A1",
"|.	c #757475",
"1.	c #686868",
"2.	c #939494",
"3.	c #AEAEAF",
"4.	c #BBBCBB",
"5.	c #E1E1E1",
"6.	c #B8B8B8",
"7.	c #959595",
"8.	c #5E5E5E",
"9.	c #505050",
"0.	c #6D6D6D",
"a.	c #787878",
"b.	c #707070",
"c.	c #5D5D5D",
"d.	c #646464",
"e.	c #909090",
"f.	c #A9A9A9",
"g.	c #ADADAD",
"h.	c #D6D6D7",
"i.	c #E0E0DF",
"j.	c #E2E1E1",
"k.	c #A8A8A8",
"l.	c #767676",
"m.	c #454545",
"n.	c #464646",
"o.	c #414141",
"p.	c #4F4F4F",
"q.	c #9A9A9A",
"r.	c #BDBDBD",
"s.	c #B6B6B6",
"t.	c #DEDDDD",
"u.	c #999999",
"v.	c #ABABAB",
"w.	c #B5B5B5",
"x.	c #232323",
"y.	c #3B3B3B",
"z.	c #6F6F6F",
"A.	c #ACACAC",
"B.	c #C3C3C3",
"C.	c #BDBDBC",
"D.	c #B9B9BA",
"E.	c #949494",
"F.	c #B0B0B0",
"G.	c #A2A2A2",
"H.	c #535353",
"I.	c #4C4C4C",
"J.	c #E2E2E2",
"K.	c #A3A3A3",
"L.	c #6A6A6A",
"M.	c #4A4A4A",
"N.	c #4D4D4D",
"O.	c #BFBFBF",
"P.	c #BDBEBE",
"Q.	c #989898",
"R.	c #5A5A5A",
"S.	c #808080",
"T.	c #717171",
"U.	c #585858",
"V.	c #E4E4E4",
"W.	c #D6D7D7",
"X.	c #7C7C7C",
"Y.	c #555555",
"Z.	c #595959",
"`.	c #7D7D7D",
" +	c #777777",
".+	c #565656",
"++	c #9C9C9C",
"@+	c #BEBDBE",
"#+	c #E3E4E4",
"$+	c #7F7F7F",
"%+	c #7E7E7E",
"&+	c #575757",
"*+	c #B9B9B8",
"=+	c #B4B4B4",
"-+	c #DBDBDC",
";+	c #D5D4D4",
">+	c #E3E3E4",
",+	c #848384",
"'+	c #7E7E7F",
")+	c #D5D4D5",
"!+	c #E5E4E5",
"~+	c #EDECED",
"{+	c #EFEFEF",
"]+	c #EFEFF0",
"^+	c #F0F0F0",
"/+	c #EEEEEE",
"(+	c #EDEDED",
"_+	c #EBEBEB",
":+	c #969797",
"<+	c #A3A3A2",
"[+	c #747474",
"}+	c #727272",
"|+	c #8A8989",
"1+	c #E6E6E7",
"2+	c #F1F1F2",
"3+	c #F4F4F4",
"4+	c #F7F6F6",
"5+	c #F8F7F8",
"6+	c #F8F8F8",
"7+	c #F7F7F7",
"8+	c #F6F6F6",
"9+	c #F3F3F3",
"0+	c #ECECEC",
"a+	c #9E9E9E",
"b+	c #CACACB",
"c+	c #DEDEDF",
"d+	c #ECEDEC",
"e+	c #F2F2F2",
"f+	c #F6F5F6",
"g+	c #FAFAFA",
"h+	c #FBFBFB",
"i+	c #FCFCFC",
"j+	c #F9F9F9",
"k+	c #F7F8F7",
"l+	c #F1F1F1",
"m+	c #757575",
"n+	c #D3D3D4",
"o+	c #F2F1F2",
"p+	c #F5F5F5",
"q+	c #FBFAFA",
"r+	c #F9F9FA",
"s+	c #D4D3D4",
"t+	c #D3D2D2",
"u+	c #D0D0D1",
"v+	c #888888",
". . . . . . . . . . . . . . . . . . . . . . . + @ # $ # % + ",
"+ & * * * * * * * * * = = = = = = * * * * * * - - ; ; ; & @ ",
"@ > , , ' ) ! ~ ~ ~ ~ ~ { { { { ~ ~ ~ ~ ~ ! ' , ] ^ / ( _ $ ",
": < [ } _ | 1 2 2 3 / / / 4 4 5 / / / / 2 1 > 6 * 7 8 9 < : ",
"0 a b c d _ e f ^ ^ g h i i i i i i ^ ^ 2 e _ j k l m n o : ",
"p o l q c = r s / t u ( ( ( ( v ( ( i w f > } x y z A = o $ ",
"p q < B C c } > D ^ ( ( E E E E E F i / e 6 k G H I = _ o @ ",
"J K L y M N k } e O h ( P E Q R Q ( ^ 1 _ S G T b } r 1 U + ",
"V q } S y W z n } > f w ( ] E E ( X 1 _ Y Z `  .6 e D / o . ",
"# q e 6 c ..J +.q ; 6 > f @.#./ 2 e 6 k z $.%.6 &.*.^ i o . ",
"% q / e 6 c =.p + G  .c = _ r r _ * %.-.;.o * > / ( ] ] q . ",
"+ q ( #.1 >.7 q 0 ,.'.).!.b ~.{.%.l @ ].^.k * e ^ /.E Q q . ",
". K E ( f 6 k (._.:.<.[.# }.z z +.|.1.2.3.o S _ 2 ( Q E 4.. ",
". K 5.( f = 6.7.0 M $ 8.9.0.a.b.c.d.e.f.y g.=.S h.w i.5.K . ",
". K j.( 1 L G e.T g...k.l.m.n.o.p.q.r.q s.l l 6.- 1 t.Q K . ",
". r.5.i > %.u._.v.w.< w.q.p.x.y.z.z q K K C N A.B._ ^ E C.+ ",
"+ r.5.g 6 D.M E.f.l F.G.z.o.H.I.9.. (.6.C n q f.6.* 2 E r.+ ",
"+ r.J.^ d w.E.M K.v.+.L.H.0.7.;.M.N.J r.8 8 O.y (.; 2 E r.+ ",
"+ P., i 6 6.Q.e.7.J 8.R.S.p Q.$.T.R.U.0 ..O.< G s.- 2 E r.+ ",
"+ C V.( W.n G._.X.Y.Z.@ u.W ;.`.'.J  +.+0.++).z r.} 2 5.@++ ",
"% C #+] e c w.;.U..+$+e.e.: . + J T T %+<.&+`.A.k = 2 E C % ",
"# C 5.^ _ L ..b.T.` g.l g.^...=.q < *+w.++T.8.# =+- e t.C $ ",
"V C -+> S g.. X.=+c * } 6 6 r r ;+_ 6 } * 8 $.b.'.A.- f C W ",
"e.O.= K H ;.$+=.6 2 ( 5.J., >+>+, , J.E i f - ..,+'.K.; O._.",
"$.o K.W $ '+s.)+i !+{ ~+{+]+^+^+{+/+(+_+~ , ( e 8 :+X.<+q q.",
"u.f.[+}+|+6.r ( 1+(+2+3+4+5+6+6+7+8+3+9+{+0+) E f k q.$+a+}.",
"u.=.).=.b+e c+) d+e+f+6+g+h+i+i+g+j+k+8+9+l+0+~ 5.2 b e.m+Q.",
"E.O.n+e -+5.) 0+o+p+7+j+q+h+i+i+h+r+6+7+p+9+^+~+! E 1 D.b.m+",
"J K L L c ; * * } } 6 6 s+_ r r )+6 6 t+} = = u+- c S n M R.",
"$ V ;.V v+# @ + . . . . . . . . . . . . . . . + @ v+e.-.++z."};
