/* XPM */
static char * spGreasePencil_visOff_xpm[] = {
"30 30 198 2",
"  	c None",
". 	c #828282",
"+ 	c #838383",
"@ 	c #848484",
"# 	c #818181",
"$ 	c #C7C7C7",
"% 	c #CFCFCF",
"& 	c #CECECE",
"* 	c #D0D0D0",
"= 	c #858585",
"- 	c #D5D5D5",
"; 	c #E0E0E0",
"> 	c #DEDEDE",
", 	c #E1E1E1",
"' 	c #E2E2E2",
") 	c #E3E3E3",
"! 	c #E4E4E4",
"~ 	c #E5E5E5",
"{ 	c #E6E6E6",
"] 	c #E7E7E7",
"^ 	c #E8E8E8",
"/ 	c #D7D7D7",
"( 	c #868686",
"_ 	c #B9B9B9",
": 	c #C8C8C8",
"< 	c #D1D1D1",
"[ 	c #D2D2D2",
"} 	c #D1D2D1",
"| 	c #D2D2D3",
"1 	c #D3D3D4",
"2 	c #D4D5D5",
"3 	c #D6D6D6",
"4 	c #D9D9D9",
"5 	c #DADADA",
"6 	c #D8D8D8",
"7 	c #D3D3D3",
"8 	c #D4D4D4",
"9 	c #D5D5D4",
"0 	c #B8B8B8",
"a 	c #878787",
"b 	c #BAB9B9",
"c 	c #BEBEBE",
"d 	c #B5B4B4",
"e 	c #CBCBCB",
"f 	c #C6C6C6",
"g 	c #CACACA",
"h 	c #CDCDCD",
"i 	c #D3D2D2",
"j 	c #C7C6C6",
"k 	c #BABABA",
"l 	c #BDBCBC",
"m 	c #A7A6A6",
"n 	c #BFBFBF",
"o 	c #C2C2C2",
"p 	c #B3B3B3",
"q 	c #A8A8A8",
"r 	c #A3A4A4",
"s 	c #A4A4A4",
"t 	c #A9A9A9",
"u 	c #B0B0B0",
"v 	c #C3C3C3",
"w 	c #B5B5B5",
"x 	c #D3D2D3",
"y 	c #BCBCBC",
"z 	c #929293",
"A 	c #9D9D9D",
"B 	c #A5A5A5",
"C 	c #ADADAD",
"D 	c #B1B1B1",
"E 	c #A6A6A6",
"F 	c #9F9F9F",
"G 	c #A1A1A1",
"H 	c #BDBDBD",
"I 	c #C9C9C9",
"J 	c #AEAEAE",
"K 	c #D0D1D1",
"L 	c #D2D1D1",
"M 	c #CCCCCC",
"N 	c #7A7A7A",
"O 	c #949494",
"P 	c #999999",
"Q 	c #979797",
"R 	c #9A9A9A",
"S 	c #9B9B9B",
"T 	c #9E9E9E",
"U 	c #BABAB9",
"V 	c #DBDBDB",
"W 	c #929292",
"X 	c #636363",
"Y 	c #ABABAB",
"Z 	c #B4B4B4",
"` 	c #A7A7A7",
" .	c #B6B6B6",
"..	c #DADBDA",
"+.	c #DCDCDC",
"@.	c #DBDCDB",
"#.	c #8D8D8D",
"$.	c #797979",
"%.	c #C4C4C4",
"&.	c #9C9C9C",
"*.	c #909090",
"=.	c #7D7D7D",
"-.	c #959695",
";.	c #C5C5C5",
">.	c #BBBBBB",
",.	c #DCDBDB",
"'.	c #A2A2A2",
").	c #7E7E7E",
"!.	c #AFAFAF",
"~.	c #747474",
"{.	c #696969",
"].	c #DDDDDD",
"^.	c #DFDFDF",
"/.	c #D7D7D6",
"(.	c #AAAAAA",
"_.	c #B7B7B7",
":.	c #737373",
"<.	c #8A8A8A",
"[.	c #C0C0C0",
"}.	c #E0E0E1",
"|.	c #7F7F7F",
"1.	c #BBBCBB",
"2.	c #787878",
"3.	c #D6D6D7",
"4.	c #DCDDDC",
"5.	c #E1E1E0",
"6.	c #E2E1E2",
"7.	c #DAD9D9",
"8.	c #B2B2B2",
"9.	c #6B6B6B",
"0.	c #5F5F5F",
"a.	c #646464",
"b.	c #E1E0E0",
"c.	c #E2E2E3",
"d.	c #A3A3A3",
"e.	c #404040",
"f.	c #7B7B7B",
"g.	c #C1C1C1",
"h.	c #BDBDBC",
"i.	c #8F8F8F",
"j.	c #5C5C5C",
"k.	c #585858",
"l.	c #6D6D6D",
"m.	c #CFCECE",
"n.	c #ACACAC",
"o.	c #616161",
"p.	c #686868",
"q.	c #E5E5E6",
"r.	c #BDBEBE",
"s.	c #C4C4C5",
"t.	c #555555",
"u.	c #757575",
"v.	c #A0A0A0",
"w.	c #5A5A5A",
"x.	c #535353",
"y.	c #989898",
"z.	c #BEBDBE",
"A.	c #E7E8E8",
"B.	c #A8A8A7",
"C.	c #E9E9E9",
"D.	c #D5D4D5",
"E.	c #6F6F6F",
"F.	c #808080",
"G.	c #969696",
"H.	c #919191",
"I.	c #666666",
"J.	c #DDDDDE",
"K.	c #E9E8E8",
"L.	c #8E8E8E",
"M.	c #BEBFBE",
"N.	c #D4D4D3",
"O.	c #8B8B8B",
"P.	c #E6E6E7",
"Q.	c #D1D1D2",
"R.	c #E0E0DF",
"S.	c #D6D5D5",
"T.	c #E7E7E8",
"U.	c #EAEAEA",
"V.	c #888888",
"W.	c #ECECEC",
"X.	c #F0F0F0",
"Y.	c #F2F2F2",
"Z.	c #F1F1F1",
"`.	c #F1F2F1",
" +	c #B9B9BA",
".+	c #EBEAEB",
"++	c #F4F4F4",
"@+	c #F7F7F7",
"#+	c #F8F7F7",
"$+	c #F8F8F8",
"%+	c #F6F6F7",
"&+	c #F6F6F6",
"*+	c #DEDDDE",
"=+	c #CBCBCC",
"-+	c #8C8C8C",
";+	c #D4D3D4",
">+	c #CCCCCD",
",+	c #898989",
". . + @ @ + . . . . . . . . . # # # # # # # # # . . . # # # ",
"+ $ % & % % % % % % % % % % * * * * * * * * * * * * * * $ # ",
"= - ; > > ; , ' ' , , , , ' ) ! ~ { ] ] ^ ] { ~ ! ) ! ~ / # ",
"( _ * : & * < [ [ } < < < | 1 2 3 / 4 5 4 6 3 - 7 7 8 9 0 . ",
"a b * c d : & & e : f f : g h * [ - 3 6 4 / - i h j [ - 0 . ",
"( k [ % l m n o p q r s t u k v g % 7 - - - [ g w v 7 3 _ . ",
"@ _ 3 x % y z A B C D C E F A G C H I * [ * I J o K - / _ . ",
". k 4 3 L M J N O G P Q Q R S P R T C o M v E k < - / 5 U # ",
". k V 6 7 h c W X + Y k 0 c H Z ` S R B  .A Y h 8 6 ..+.k # ",
"# k @.4 7 M Z P #.$.C < [ 8 8 * %.Z &.*.=.-.;.< / V +.> k # ",
". >.,.6 [ v B '.n C ).Z - / / - < : !.~.{.B I x 4 ].^.^.>.# ",
". >.V /.& w B Z [ [ (.)._.3 / / 3 h P :.<.S [.[ 4 > ; }.>.# ",
"+ y 5 8 I t q e 3 / < B |.H - 3 < s |.u Y Q !.& 6 ].}., 1.# ",
"@ y 4 [ o s !.< 3 / / < S 2.u n '.|.k ;.k A G : 3.4.5.6.y # ",
"@ y 7.[ c s 8.7 / / / M ` 9.0.~.a.B [ f c s A o - +.b.c.y # ",
"@ H 5 7 [.d. .- / / % Y R Q 0.e.f.t h f H d.T g.8 +., ) h.# ",
"+ H ].3 $ E 8.7 / - H T &.i.j.k.l.Q [.$ >.T F %.3 ].' ~ H # ",
". H ; 4 m.D n.f / 7 8.R i.o.i.J X p.` ;.!.T d.I 6 ^.! q.H # ",
". r.' ].- s.C u h 7 8.+ o.# !.u i.t.u.u v.F C & V ' ~ { H # ",
"# c ~ , V < H (.u % t w.:.q C n.'.. x.N y.F >.7 ].! ] ^ z.# ",
"# c A.~ b.4 % >.E y.~.# *.Q A T P i.$.t.N B.I 3 ^.! ^ C.c # ",
"# c C.^ ! ].D.e ` E.F.B d.y.G.O *.H.y.F.I.A g - J.! ] K.c # ",
"# c C.^ ! > 3 o L.Q C ` s '.F S S v.Y _.T . (.% 5 ; ! ] c . ",
"# M.^ ~ , V h G E e % : y 8.C !._.;.& N.M q O.u < V ; ! c + ",
". n P.' 4.Q.n.t % 5 ].].5 3.- - / +.^.> V [ C L.8.< V R.c = ",
"+ n ! > S.w B & J.! T.C.K.] { { ] C.U.C.! > 7 J L.D & V c V.",
"+ n ' V >.'.I ].~ W.X.Y.Y.Y.Y.Y.Z.Y.`.X.W.{ > 7 !.*.R < c O.",
"+ n c.V  +%.V ) .+Z.++@+#+$+$+$+$+%+&+++Z.W.~ *+8 >.s =+c -+",
"+ >.h e : g M & * [ 7 7 ;+8 8 8 ;+7 7 i [ * % >+e : v : y <.",
". @ a -+i.i.-+V.@ . # # # # # # # # # # . + = ,+L.H.W *.-+a "};
