/* XPM */
static char * spGreasePencil_tmpOn_xpm[] = {
"30 30 220 2",
"  	c None",
". 	c #818181",
"+ 	c #C8C8C8",
"@ 	c #D1D1D1",
"# 	c #D0D0D0",
"$ 	c #D8D8D8",
"% 	c #E8E8E8",
"& 	c #E7E7E7",
"* 	c #E6E6E6",
"= 	c #E9E9E9",
"- 	c #B8B8B8",
"; 	c #D8D8D7",
"> 	c #D7D7D7",
", 	c #D8D9D9",
"' 	c #D9D9D9",
") 	c #DADADA",
"! 	c #DADBDA",
"~ 	c #D8D8D9",
"{ 	c #DBDBDB",
"] 	c #B9B8B8",
"^ 	c #DAD9D9",
"/ 	c #D8D9D8",
"( 	c #D6D6D6",
"_ 	c #D5D5D5",
": 	c #DCDCDC",
"< 	c #DBDADA",
"[ 	c #B9B9B9",
"} 	c #DCDBDB",
"| 	c #DCDCDB",
"1 	c #D9D8D8",
"2 	c #D3D3D3",
"3 	c #CFCFCF",
"4 	c #D3D2D2",
"5 	c #DBDCDB",
"6 	c #DDDDDD",
"7 	c #DBDCDC",
"8 	c #DADBDB",
"9 	c #DADAD9",
"0 	c #DCDBDC",
"a 	c #DCDCDD",
"b 	c #D9DAD9",
"c 	c #D6D6D5",
"d 	c #D2D2D2",
"e 	c #CCCCCC",
"f 	c #AAAAAA",
"g 	c #BDBDBD",
"h 	c #D4D4D4",
"i 	c #DEDEDE",
"j 	c #DCDDDC",
"k 	c #BABABA",
"l 	c #DEDDDD",
"m 	c #C3C3C3",
"n 	c #A7A7A7",
"o 	c #9E9E9E",
"p 	c #B7B7B7",
"q 	c #C6C6C6",
"r 	c #B4B3B3",
"s 	c #BEBEBF",
"t 	c #CECECE",
"u 	c #BABAB9",
"v 	c #DFDFDF",
"w 	c #DFDFDE",
"x 	c #D6D6D7",
"y 	c #C9C9C9",
"z 	c #A3A3A3",
"A 	c #ADADAD",
"B 	c #919190",
"C 	c #B4B4B4",
"D 	c #DDDEDD",
"E 	c #DEDFDE",
"F 	c #DDDDDE",
"G 	c #D8D7D7",
"H 	c #D4D4D3",
"I 	c #CDCDCD",
"J 	c #B3B3B3",
"K 	c #A9A9A9",
"L 	c #DFDEDF",
"M 	c #BBBBBB",
"N 	c #E0DFDF",
"O 	c #D9DADA",
"P 	c #DADADB",
"Q 	c #D8D7D8",
"R 	c #E1E1E1",
"S 	c #E0E0DF",
"T 	c #D9D8D9",
"U 	c #E3E2E2",
"V 	c #E3E3E2",
"W 	c #E1E2E1",
"X 	c #DFDEDE",
"Y 	c #CECECF",
"Z 	c #AFAFAF",
"` 	c #8D8D8D",
" .	c #E0E0E0",
"..	c #E0E0E1",
"+.	c #BCBCBC",
"@.	c #C2C2C2",
"#.	c #E2E2E2",
"$.	c #E5E5E5",
"%.	c #C6C6C7",
"&.	c #939393",
"*.	c #999999",
"=.	c #BBBCBB",
"-.	c #C7C7C7",
";.	c #E4E4E4",
">.	c #E7E6E6",
",.	c #E2E1E1",
"'.	c #D7D7D6",
").	c #CDCCCD",
"!.	c #B0B0B0",
"~.	c #888888",
"{.	c #E2E2E1",
"].	c #E3E2E3",
"^.	c #E3E3E3",
"/.	c #E6E7E6",
"(.	c #C1C1C1",
"_.	c #868585",
":.	c #C4C4C4",
"<.	c #E3E3E4",
"[.	c #E4E5E5",
"}.	c #DDDCDC",
"|.	c #C0C0C0",
"1.	c #CACACA",
"2.	c #8A8A8A",
"3.	c #E4E4E3",
"4.	c #BDBDBC",
"5.	c #E2E3E2",
"6.	c #DEDEDF",
"7.	c #A0A0A0",
"8.	c #747474",
"9.	c #767676",
"0.	c #AEAEAE",
"a.	c #CBCBCB",
"b.	c #DFE0DF",
"c.	c #E6E6E5",
"d.	c #979696",
"e.	c #7A7A7A",
"f.	c #7D7D7D",
"g.	c #808080",
"h.	c #9B9B9B",
"i.	c #727272",
"j.	c #A2A2A2",
"k.	c #C5C5C5",
"l.	c #BDBEBE",
"m.	c #DEDEDD",
"n.	c #949494",
"o.	c #8B8B8B",
"p.	c #838383",
"q.	c #959595",
"r.	c #9F9F9F",
"s.	c #828282",
"t.	c #B6B6B6",
"u.	c #969696",
"v.	c #B2B2B2",
"w.	c #BEBEBE",
"x.	c #DDDEDE",
"y.	c #C0C0C1",
"z.	c #A6A6A6",
"A.	c #7F7F7F",
"B.	c #ABABAB",
"C.	c #7B7B7B",
"D.	c #9D9D9D",
"E.	c #BEBDBE",
"F.	c #E5E6E6",
"G.	c #ACACAC",
"H.	c #919191",
"I.	c #A5A5A5",
"J.	c #8E8E8E",
"K.	c #777777",
"L.	c #909090",
"M.	c #B1B1B1",
"N.	c #868686",
"O.	c #8C8C8C",
"P.	c #BFBFBF",
"Q.	c #E8E7E7",
"R.	c #E7E7E8",
"S.	c #8C8C8D",
"T.	c #898989",
"U.	c #A1A1A1",
"V.	c #C3C4C4",
"W.	c #BEBFBE",
"X.	c #E2E2E3",
"Y.	c #989898",
"Z.	c #E9E8E9",
"`.	c #EAEAEA",
" +	c #EBEAEA",
".+	c #EAEAEB",
"++	c #EBEBEA",
"@+	c #EAEBEA",
"#+	c #878787",
"$+	c #787878",
"%+	c #6F6F6F",
"&+	c #646464",
"*+	c #606060",
"=+	c #797979",
"-+	c #8F8F8F",
";+	c #ECECEC",
">+	c #ECEDED",
",+	c #EDECEC",
"'+	c #EBEBEB",
")+	c #979797",
"!+	c #EDEDED",
"~+	c #EDEEEE",
"{+	c #EEEEEE",
"]+	c #EBEBEC",
"^+	c #EDEDEE",
"/+	c #E0E1E0",
"(+	c #B5B4B5",
"_+	c #EFEFEF",
":+	c #EEEEEF",
"<+	c #E8E7E8",
"[+	c #D6D5D5",
"}+	c #E6E6E7",
"|+	c #F0F0F0",
"1+	c #F0EFF0",
"2+	c #CECDCE",
"3+	c #D1D0D1",
"4+	c #D0D0D1",
"5+	c #CFD0CF",
"6+	c #858585",
"7+	c #848484",
". . . . . . . . . . . . . . . . . . . . . . . . . . . . . . ",
". + @ @ @ @ # # # # # # # # # # # # # # # # @ @ @ @ @ @ + . ",
". $ % % % % % % % % % & * * * & & % % % % % % = = % % % $ . ",
". - ; > $ , ' ) ) ! ) ' $ $ ~ ' ' ) { { ) ) ' ' ' ' $ ; - . ",
". ] ' ' ^ ) { { { ) / > ( _ _ > $ ) { : : { { < ) < ^ ' - . ",
". [ ) ) < } : | ) 1 ( 2 # 3 # 4 _ $ ) 5 : 6 : 7 { 8 9 ' [ . ",
". [ { 0 : 6 a { b c d e - f g e # h > { 6 6 i 6 j 7 { ) [ . ",
". k : 6 l i 6 { $ 2 m n o p q r s t h / { j 6 6 i 6 : : u . ",
". k 6 i v w 6 { x y z A q 3 y z B C e _ $ ) : 6 i i D 6 k . ",
". k E v v v F ) G h # d _ c H I J K - # h ( ' { F L i i k . ",
". M N v v i : O $ $ ' P 6 6 { $ d 3 3 # e q 2 Q : i v v M . ",
". M R S v 5 ' > T { v R U V W X ! > h Y Z ` M h ) E  ...M . ",
". +.R  .6 ' 2 @.$ i #.$.* * $.#.v { > d %.&.*.I ' i ..R =.. ",
". +.R v { _ +.-.{  .;.& & >.;.,.i { '.d ).!.~.-.$ E {.].+.. ",
". +.U v { t g > i ^.* /.$.^. .6 ' h # # I (._.:.$ i ,.<.+.. ",
". g ^.R 6 $ _ 6 #.[.$.;. .}.1 2 I J z |.1.:.2.-.> i #.3.4.. ",
". g ;.5. .F 6.{.;.* ;.i > 3 |.+.7.8.9.` @.-.0.a._ : #.;.g . ",
". g $.^.R v b.].c.$. .> p d.e.f.g.h.o i.j.:.k.g a.)  .<.g . ",
". l.* ^.v P i #.$.;.m.+ n.o.p.j.*.q.r.r.s.t.(.u.v.> v ^.g . ",
". w.$.#.x.q ( v ^.#.) y.r.q.A n.z.A.B.r.C.D.C o.(.'  .;.E.. ",
". w.F.R } +.a.6  .v ' e G.B.H.o &.2.I.J.K.r.L.M._ 6 U * w.. ",
". w.* ^.: e ).{ i : ( - v.D.J.7.N.j.O.e.r.P.q ( 6 #.* Q.w.. ",
". w.R.$. .: { 0 { > t S.z O.z *.T.7.p.U.V.@ $ i ^.& = = w.. ",
". W.= % * X. .: > # m O.u.L.u.Y.*.` D.n.f h i $.Z.`. +`.w.. ",
". P..+++@+R.;.0 +.A !.o #+f $+%+&+*+=+-+@.{ ;.= ;+>+;+++w.. ",
". P.;+;+,+'+= #.h A H.v.m a.!.&.o.)+- e { ^.= !+~+{+;+`.w.. ",
". P.]+!+^+{+]+& /+_ (+Y.w.h $ $ h > 5  .$.= !+_+_+{+;+'+w.. ",
". P.]+!+:+_+{+;+<+#.{ # [+ .$.* * }+% `.;+_+|+1+_+{+;+]+w.. ",
". M 3 3 # # @ # # t I e 2+3 # @ 3+# @ @ @ @ @ 4+# 5+3 3 M . ",
". . . . . . s.p.6+~.o.` O.T.#+N.6+6+7+p.s.s.. . . . . . . . "};
