/* XPM */
static char * spGreasePencil_tmpOff_xpm[] = {
"30 30 205 2",
"  	c None",
". 	c #818181",
"+ 	c #828282",
"@ 	c #C7C7C7",
"# 	c #D0D0D0",
"$ 	c #858585",
"% 	c #D5D5D5",
"& 	c #E3E3E3",
"* 	c #E5E5E5",
"= 	c #E6E6E6",
"- 	c #E7E7E7",
"; 	c #E8E8E8",
"> 	c #D7D7D7",
", 	c #898989",
"' 	c #B9B9B9",
") 	c #D2D2D1",
"! 	c #D2D2D2",
"~ 	c #D4D4D4",
"{ 	c #D5D6D6",
"] 	c #D9D9D9",
"^ 	c #D9DAD9",
"/ 	c #DADADA",
"( 	c #D8D8D8",
"_ 	c #D8D8D9",
": 	c #DBDBDB",
"< 	c #D6D6D6",
"[ 	c #D7D7D6",
"} 	c #B8B8B8",
"| 	c #8C8C8C",
"1 	c #BABABA",
"2 	c #C8C8C8",
"3 	c #CFCFCF",
"4 	c #D2D1D1",
"5 	c #D3D3D3",
"6 	c #D8D9D8",
"7 	c #D6D5D5",
"8 	c #D7D6D6",
"9 	c #8D8D8D",
"0 	c #BBBBBB",
"a 	c #BEBEBE",
"b 	c #B5B5B5",
"c 	c #CAC9C9",
"d 	c #D1D0D0",
"e 	c #D6D6D5",
"f 	c #CECECE",
"g 	c #D3D4D4",
"h 	c #8B8B8B",
"i 	c #AAAAAA",
"j 	c #C4C4C4",
"k 	c #CECECF",
"l 	c #D1D1D1",
"m 	c #D2D3D2",
"n 	c #C9C9C9",
"o 	c #B3B3B3",
"p 	c #A3A3A3",
"q 	c #CBCBCB",
"r 	c #B6B6B6",
"s 	c #C4C5C4",
"t 	c #D4D5D5",
"u 	c #888888",
"v 	c #C0BFBF",
"w 	c #9F9F9F",
"x 	c #CDCDCD",
"y 	c #989898",
"z 	c #8B8B8C",
"A 	c #ACACAC",
"B 	c #BFBFC0",
"C 	c #ACABAB",
"D 	c #CCCCCC",
"E 	c #C9CAC9",
"F 	c #AEAEAE",
"G 	c #C2C2C2",
"H 	c #BABAB9",
"I 	c #999999",
"J 	c #B1B1B1",
"K 	c #C6C6C6",
"L 	c #B7B7B7",
"M 	c #909090",
"N 	c #BCBCBC",
"O 	c #7B7B7B",
"P 	c #C5C5C5",
"Q 	c #C3C3C2",
"R 	c #A2A2A2",
"S 	c #DBDCDB",
"T 	c #DCDCDC",
"U 	c #8E8E8E",
"V 	c #C1C1C1",
"W 	c #919191",
"X 	c #A6A6A6",
"Y 	c #BDBDBD",
"Z 	c #A3A4A3",
"` 	c #DEDEDE",
" .	c #DEDDDD",
"..	c #B0B0B0",
"+.	c #868686",
"@.	c #A5A5A5",
"#.	c #C0C0C0",
"$.	c #DDDDDD",
"%.	c #DFDFDF",
"&.	c #E0E0E0",
"*.	c #DEDEDD",
"=.	c #D4D5D4",
"-.	c #A9A9A9",
";.	c #7C7C7C",
">.	c #BFBFBF",
",.	c #848484",
"'.	c #707070",
").	c #DDDEDD",
"!.	c #E0E0E1",
"~.	c #E1E1E1",
"{.	c #CCCBCC",
"].	c #7E7E7E",
"^.	c #A8A8A8",
"/.	c #929292",
"(.	c #7D7D7D",
"_.	c #BBBCBB",
":.	c #C2C1C1",
"<.	c #949494",
"[.	c #737373",
"}.	c #C0BFC0",
"|.	c #D7D7D8",
"1.	c #E2E2E1",
"2.	c #E3E2E3",
"3.	c #E3E2E2",
"4.	c #B2B2B2",
"5.	c #7A7A7A",
"6.	c #E2E1E1",
"7.	c #E3E3E4",
"8.	c #979797",
"9.	c #808080",
"0.	c #9C9C9C",
"a.	c #878787",
"b.	c #E2E2E2",
"c.	c #E4E4E3",
"d.	c #BDBDBC",
"e.	c #E4E4E4",
"f.	c #E2E3E2",
"g.	c #DDDDDE",
"h.	c #E0E0DF",
"i.	c #727272",
"j.	c #474747",
"k.	c #838383",
"l.	c #5E5E5E",
"m.	c #636363",
"n.	c #C3C3C3",
"o.	c #CACACA",
"p.	c #DEDEDF",
"q.	c #4E4E4E",
"r.	c #383838",
"s.	c #4A4A4A",
"t.	c #717171",
"u.	c #969696",
"v.	c #9A9A9A",
"w.	c #6B6B6B",
"x.	c #9D9D9D",
"y.	c #BDBEBE",
"z.	c #D9D9DA",
"A.	c #D5D5D4",
"B.	c #ABABAB",
"C.	c #5B5B5B",
"D.	c #676767",
"E.	c #616161",
"F.	c #666666",
"G.	c #9E9E9E",
"H.	c #7F7F7F",
"I.	c #B4B4B4",
"J.	c #959595",
"K.	c #767676",
"L.	c #5D5D5D",
"M.	c #797979",
"N.	c #9B9B9B",
"O.	c #8A8A8A",
"P.	c #BEBDBE",
"Q.	c #E5E6E6",
"R.	c #494949",
"S.	c #A4A4A4",
"T.	c #A0A0A0",
"U.	c #B8B9B8",
"V.	c #DADADB",
"W.	c #E8E7E7",
"X.	c #787878",
"Y.	c #656565",
"Z.	c #555555",
"`.	c #E9E9E9",
" +	c #BEBFBE",
".+	c #696969",
"++	c #5C5C5C",
"@+	c #E4E4E5",
"#+	c #C9C9CA",
"$+	c #6F6F6F",
"%+	c #646464",
"&+	c #E0E1E1",
"*+	c #E8E8E7",
"=+	c #A1A1A1",
"-+	c #A7A7A7",
";+	c #D6D7D6",
">+	c #B2B1B2",
",+	c #ADADAD",
"'+	c #E1E0E1",
")+	c #B0AFB0",
"!+	c #CECDCE",
"~+	c #D1D0D1",
"{+	c #C5C5C6",
"]+	c #939393",
"^+	c #8F8F8F",
". + + + . . . . . . . . . . . . . . . . . . . . . . . . . . ",
"+ @ # # # # # # # # # # # # # # # # # # # # # # # # # # @ . ",
"$ % & & * = - ; ; ; ; - = = = - - ; ; ; ; ; - - - = = - > . ",
", ' ) ! ~ { > ] ] ^ / ] ( ( _ ] ] / : : / ] > > < < < [ } . ",
"| 1 2 3 4 5 < ( / ] 6 [ % % % > ( / / : / ( < % % 7 8 > } . ",
"9 0 a b c d 5 e > 8 % 5 3 f 3 ! % > ] ^ ( < 5 f @ g [ ( ' . ",
"h 0 3 a i j k l m ! # n o p 1 q 3 5 < > < 5 q r s t > ] ' . ",
"u 0 5 # v w 1 q x q 1 y z A B C 1 D l ! l E F G ! < ] : H . ",
"$ 1 > ~ 3 1 I J K L . M r G N h O i P x Q R } l % ( S T 1 . ",
"+ 1 : ( ~ f b U i V 0 a V V V 0 I W X Y y Z n l > : T ` 1 . ",
". 0  .: > ! q ..+.@.#.V V V V V Y a ' W U F q ! ( $.%.%.0 . ",
". 0 &.*./ =.f K -.;.X >.V V V V V 1 M ,.U '...l ( ).&.!.0 . ",
". N ~.%.: % {.A j X ].^.V V V V 0 /.O J L (.9 q ( $.!.~._.. ",
". N ~.%./ 5 o 1 f n X . F :.V 0 <.[.A V }.R O P |.` 1.2.N . ",
". N 3.%./ x ' ! % 5 q R + 4.Y y [.@.N V V L 5.G ( ` 6.7.N . ",
". Y & ~.$.> ~ / T / % n 8.9.M '.0.8.a.J V N . P > ` b.c.d.. ",
". Y e.f.&.g.g.h.&.%.] # N i.j.k.h l.m.].N n.i o.% T b.e.Y . ",
". Y * & ~.p.%.~.b.%.( D M q.r.s.t.u.v.w.x.G j Y o./ &.7.Y . ",
". y.= & %.z.T %.%.T A.B.C.D.'.E.F.U G.G.H.I.#.J.4.> %.& Y . ",
". a * b.$.n.! / / < Y O K.9 B.+ L.C.@.G.M.N.o O.V ( &.e.P.. ",
". a Q.~./ b V 5 5 >.| y w ^.M x.].R.;., [.N.O.F ~ T 3.= a . ",
". a * ~.] G Y D 0 O.v.S.B.v.U T.,.,.R.C.J.U.#.! V.~.= W.a . ",
". a = b./ ! q r ,.8.1 X.N., R I , G.Y.Z.J.j 3 < ` e.- `.a . ",
"+  += ~.: 5 >.O.<.} L H.W U J.y I | u..+++w q > ` e.W.`.a . ",
"k.>.@+h.6 #+I 8.y I X I ,.i X.$+%+l.[.(.O.9.A 3 : &+* *+a . ",
",.>.~.: # ^.=+@ j G., ..n.q ../.h u.I.j n -+O.J l T ~.e.a + ",
"+.>.$.% o =+o.< ;+# >+u.Y ~ ( ( ~ < ] / ( # ,+U J 3 T b.a ,.",
"u >./ 1 =+@ / %.'+%./ # 7 &.* = = = = * b.$.5 )+W N.l p.a $ ",
"a.N 2 -.I.2 D x f f x D !+3 # l ~+# # # 3 x q {+F 8.Y n N +.",
"+.| ]+u.y J.^+O.u , | 9 | , a.+.$ $ $ $ a.h W y N.8.y W O.$ "};
